<svg width="17" height="17" viewBox="0 0 17 17" fill="none" xmlns="http://www.w3.org/2000/svg">
<path d="M8.25098 0.125C3.69475 0.125 0.000976562 3.81878 0.000976562 8.375C0.000976562 12.9312 3.69475 16.625 8.25098 16.625C12.8072 16.625 16.501 12.9312 16.501 8.375C16.501 3.81878 12.8072 0.125 8.25098 0.125ZM2.65277 11.6446C2.09092 10.6847 1.76878 9.56745 1.76878 8.375C1.76878 4.79493 4.67108 1.89281 8.25098 1.89281C9.68417 1.89281 11.0081 2.28385 12.0812 3.07158L2.65277 11.616V11.6446ZM8.25098 14.8856C6.81779 14.8856 5.49385 14.4945 4.42058 13.707L13.8493 5.1622V5.13382C14.4112 6.09355 14.7332 7.21094 14.7332 8.40338C14.733 11.9835 11.831 14.8856 8.25098 14.8856Z" fill="#FB8308"/>
</svg>
