<svg width="25" height="28" viewBox="0 0 25 28" fill="none" xmlns="http://www.w3.org/2000/svg">
<path d="M8.51264 0.323242H5.01943C3.90319 0.323242 2.99268 1.22937 2.99268 2.35V4.03532H4.92313C5.89055 4.03532 6.67849 4.82326 6.67849 5.79068C6.67849 6.75809 5.89055 7.54603 4.92313 7.54603H2.99268V9.34516H4.92313C5.89055 9.34516 6.67849 10.1331 6.67849 11.1005C6.67849 12.0679 5.89055 12.8559 4.92313 12.8559H2.99268V14.6594H4.92313C5.89055 14.6594 6.67849 15.4473 6.67849 16.4147C6.67849 17.3822 5.89055 18.1701 4.92313 18.1701H2.99268V19.9736H4.92313C5.89055 19.9736 6.67849 20.7616 6.67849 21.729C6.67849 22.6964 5.89055 23.4843 4.92313 23.4843H2.99268V25.2878C2.99268 26.4041 3.89881 27.3146 5.01943 27.3146H8.51264V0.323242Z" fill="#17A3AF"/>
<path d="M4.92753 22.6491C5.43093 22.6491 5.84241 22.2376 5.84241 21.7342C5.84241 21.2308 5.43093 20.8193 4.92753 20.8193H1.535C1.0316 20.8193 0.620117 21.2308 0.620117 21.7342C0.620117 22.2376 1.0316 22.6491 1.535 22.6491H4.92753Z" fill="#17A3AF"/>
<path d="M20.0994 12.9999C19.2983 12.0369 18.1208 11.4854 16.8688 11.4854C15.6169 11.4854 14.4394 12.0369 13.6383 12.9999C13.5595 13.0919 13.4851 13.1969 13.415 13.302C14.2905 14.2957 15.5425 14.8647 16.8688 14.8647C18.1996 14.8647 19.4472 14.2913 20.327 13.302C20.2526 13.1969 20.1782 13.0963 20.0994 12.9999Z" fill="#17A3AF"/>
<path d="M4.92753 12.0202C5.43093 12.0202 5.84241 11.6087 5.84241 11.1053C5.84241 10.6019 5.43093 10.1904 4.92753 10.1904H1.535C1.0316 10.1904 0.620117 10.6019 0.620117 11.1053C0.620117 11.6087 1.0316 12.0202 1.535 12.0202H4.92753Z" fill="#17A3AF"/>
<path d="M4.92753 6.70569C5.43093 6.70569 5.84241 6.29421 5.84241 5.7908C5.84241 5.2874 5.43093 4.87592 4.92753 4.87592H1.535C1.0316 4.87592 0.620117 5.2874 0.620117 5.7908C0.620117 6.29421 1.0316 6.70569 1.535 6.70569H4.92753Z" fill="#17A3AF"/>
<path d="M4.92753 17.3347C5.43093 17.3347 5.84241 16.9232 5.84241 16.4198C5.84241 15.9164 5.43093 15.5049 4.92753 15.5049H1.535C1.0316 15.5049 0.620117 15.9164 0.620117 16.4198C0.620117 16.9232 1.0316 17.3347 1.535 17.3347H4.92753Z" fill="#17A3AF"/>
<path d="M16.869 8.33008C16.2299 8.33008 15.7134 8.85099 15.7134 9.4901C15.7134 9.76588 15.8053 10.0198 15.9804 10.2299C16.1993 10.4925 16.5276 10.6457 16.869 10.6457C17.2148 10.6457 17.5388 10.4925 17.762 10.2299C17.9371 10.0198 18.029 9.76588 18.029 9.4901C18.0247 8.84662 17.5081 8.33008 16.869 8.33008Z" fill="#17A3AF"/>
<path d="M16.8687 5.64648C14.3298 5.64648 12.2593 7.71264 12.2593 10.2559C12.2593 11.092 12.4782 11.8887 12.894 12.5891C12.9246 12.5453 12.9553 12.5016 12.9903 12.4578C13.6338 11.683 14.483 11.1402 15.4198 10.8556C15.3892 10.825 15.3585 10.7944 15.3322 10.7593C15.0346 10.4004 14.8682 9.94514 14.8682 9.48113C14.8682 8.37801 15.7656 7.48064 16.8687 7.48064C17.9718 7.48064 18.8692 8.37801 18.8692 9.48113C18.8692 9.94952 18.7073 10.4004 18.4096 10.7593C18.3833 10.7944 18.3483 10.825 18.3177 10.8556C19.2544 11.1358 20.1037 11.683 20.7471 12.4534C20.7822 12.4928 20.8128 12.5366 20.8435 12.5804C21.2593 11.8756 21.4738 11.0833 21.4738 10.2472C21.4782 7.71702 19.4076 5.64648 16.8687 5.64648Z" fill="#17A3AF"/>
<path d="M24.3808 2.18659V1.44242C24.3808 0.825201 23.8774 0.326172 23.2646 0.326172H9.35742V27.3219H23.2602C23.8774 27.3219 24.3764 26.8185 24.3764 26.2057C24.3808 26.2013 24.3808 2.18659 24.3808 2.18659ZM17.8584 24.8049H12.3647C12.1327 24.8049 11.9445 24.6166 11.9445 24.3846C11.9445 24.1526 12.1327 23.9644 12.3647 23.9644H17.8584C18.0904 23.9644 18.2787 24.1526 18.2787 24.3846C18.2787 24.6166 18.0904 24.8049 17.8584 24.8049ZM21.3735 22.8569H12.3647C12.1327 22.8569 11.9445 22.6687 11.9445 22.4367C11.9445 22.2047 12.1327 22.0164 12.3647 22.0164H21.3735C21.6055 22.0164 21.7938 22.2047 21.7938 22.4367C21.7938 22.6687 21.6055 22.8569 21.3735 22.8569ZM21.3735 20.9046H12.3647C12.1327 20.9046 11.9445 20.7163 11.9445 20.4843C11.9445 20.2523 12.1327 20.0641 12.3647 20.0641H21.3735C21.6055 20.0641 21.7938 20.2523 21.7938 20.4843C21.7938 20.7163 21.6055 20.9046 21.3735 20.9046ZM21.0627 13.7431C20.0209 14.9906 18.4932 15.7085 16.8691 15.7085C15.2451 15.7085 13.7174 14.9906 12.6755 13.7431C11.8613 12.7625 11.4148 11.5237 11.4148 10.2542C11.4148 7.24692 13.8618 4.79992 16.8647 4.79992C19.8721 4.79992 22.319 7.24692 22.319 10.2542C22.3234 11.5281 21.8769 12.7669 21.0627 13.7431Z" fill="#17A3AF"/>
</svg>
