<svg width="27" height="28" viewBox="0 0 27 28" fill="none" xmlns="http://www.w3.org/2000/svg">
<path fill-rule="evenodd" clip-rule="evenodd" d="M24.1704 0.645508C24.8166 0.80793 25.4044 1.07371 25.9093 1.52864C27.3584 2.83505 27.3296 5.29319 25.8375 6.56093C25.8073 6.58656 25.7733 6.60787 25.7314 6.63407C25.7102 6.64739 25.6869 6.66198 25.6611 6.67905C25.1618 5.95483 24.5079 5.50764 23.6044 5.50483C22.6995 5.50201 22.0371 5.93092 21.5449 6.65374C21.0464 6.45616 20.5929 5.74389 20.2308 4.60482C20.1658 4.53985 20.084 4.54236 20.0036 4.54482C19.9883 4.54529 19.9731 4.54576 19.958 4.54576L19.7333 4.54528C19.1331 4.54396 18.5324 4.54263 17.9323 4.54576C17.5062 4.54857 17.3803 4.67232 17.3803 5.09842C17.3782 7.83148 17.3789 10.5638 17.3796 13.2969L17.3794 13.3266C17.3784 13.4046 17.3773 13.4863 17.4366 13.588H20.2329C20.4474 12.5396 21 11.7184 21.9345 11.177C22.58 10.8036 23.2852 10.6862 24.0164 10.7677C25.5106 10.9344 26.6792 12.0952 26.952 13.6562C27.1524 14.8037 26.5189 16.3499 25.6505 16.7893C25.1583 16.0743 24.5016 15.6313 23.5967 15.6306C22.6925 15.6306 22.0322 16.0637 21.5189 16.8146C20.8039 16.2739 20.4178 15.5617 20.2357 14.6982H17.4506C17.3729 14.7914 17.3758 14.8841 17.3786 14.9725V14.9726C17.3791 14.9889 17.3796 15.005 17.3796 15.021C17.3782 17.7273 17.3782 20.4336 17.3796 23.1407C17.3796 23.6343 17.4921 23.7454 17.985 23.7468C18.634 23.7489 19.283 23.7482 19.932 23.7468C19.9463 23.7468 19.9606 23.7472 19.9752 23.7476C20.0571 23.7497 20.1433 23.752 20.2406 23.6863C20.4396 22.697 20.9663 21.8976 21.8508 21.3519C22.5026 20.9497 23.2191 20.8239 23.9721 20.8872C25.3482 21.0025 26.5709 22.0994 26.8993 23.5049C27.1967 24.7776 26.644 26.3315 25.6568 26.9221C25.1632 26.2021 24.5009 25.7542 23.5889 25.7563C22.6847 25.7584 22.0266 26.1958 21.5175 26.9418C20.8017 26.3962 20.4157 25.6818 20.2413 24.8584C20.1445 24.79 20.0508 24.7929 19.9605 24.7957C19.9367 24.7964 19.9131 24.7971 19.8898 24.7966C19.6179 24.7901 19.3457 24.7938 19.0735 24.7974C18.6003 24.8036 18.127 24.8099 17.6552 24.7635C16.9655 24.696 16.4367 24.1644 16.3636 23.4789C16.3432 23.2869 16.3327 23.0936 16.332 22.9009C16.3308 21.4558 16.3307 20.0107 16.3306 18.5655V18.5654V18.5654V18.5654V18.5653V18.5653V18.5653V18.5653V18.5652V18.5652C16.3305 17.4094 16.3305 16.2536 16.3298 15.0976C16.3298 15.0752 16.3306 15.0527 16.3314 15.0299C16.3348 14.9295 16.3384 14.8241 16.2771 14.7067C16.0617 14.6576 15.8375 14.6632 15.6085 14.6689C15.3846 14.6745 15.1562 14.6801 14.9271 14.6349C14.8798 14.3737 14.8902 14.1228 14.9009 13.8646V13.8646L14.9009 13.8645L14.901 13.8645L14.901 13.8644L14.901 13.8644L14.901 13.8643L14.901 13.8642L14.901 13.8642L14.901 13.8641C14.9036 13.8001 14.9063 13.7355 14.9081 13.6703C15.1544 13.6115 15.3995 13.6177 15.6394 13.6237C15.853 13.6291 16.0625 13.6343 16.2652 13.5936C16.3416 13.4804 16.3364 13.3704 16.3315 13.2651C16.3303 13.2396 16.3291 13.2143 16.3291 13.1893C16.3308 11.0726 16.3307 8.95638 16.3306 6.83987L16.3305 5.25451C16.3305 4.82561 16.3861 4.41287 16.6688 4.06341C17.0133 3.63802 17.4781 3.49951 17.9998 3.4981C18.3442 3.49695 18.6886 3.49705 19.033 3.49716C19.32 3.49725 19.607 3.49733 19.894 3.49669C19.9155 3.49669 19.9372 3.49745 19.9588 3.4982C20.0417 3.50108 20.1241 3.50394 20.1978 3.46435C20.2491 3.42421 20.2594 3.37063 20.2694 3.31818C20.2725 3.30172 20.2757 3.28537 20.28 3.26958C20.6604 1.85629 21.5569 0.983713 22.9906 0.674336C23.0086 0.670342 23.0258 0.662802 23.0431 0.655241L23.0431 0.655239C23.0502 0.652153 23.0573 0.649064 23.0644 0.646211H24.1697L24.1704 0.645508ZM23.5791 1.65309C22.7916 1.65661 22.1827 2.26833 22.1834 3.05513C22.1841 3.84123 22.8282 4.48599 23.6037 4.47615C24.3856 4.46631 25.0057 3.82435 24.9994 3.03052C24.9931 2.25286 24.3708 1.64887 23.5791 1.65239V1.65309ZM23.6023 11.7781C22.8106 11.7746 22.189 12.3793 22.1834 13.157C22.1778 13.9494 22.7993 14.5928 23.5805 14.6012C24.3568 14.6096 24.9994 13.9656 24.9994 13.1788C24.9994 12.392 24.3905 11.781 23.6023 11.7774V11.7781ZM24.9994 23.327C25.0064 22.5339 24.4074 21.9137 23.6248 21.9039C22.8169 21.894 22.1883 22.4973 22.1834 23.2869C22.1785 24.0787 22.805 24.722 23.584 24.7269C24.3518 24.7319 24.9924 24.0991 24.9987 23.327H24.9994ZM0.0124219 13.6193C0.226173 12.7664 0.664222 12.0738 1.43766 11.6203C1.81524 11.3995 2.22306 11.2526 2.65548 11.2406C3.25522 11.2242 3.85534 11.2269 4.45555 11.2295H4.45559H4.45564H4.45568H4.45572H4.45576H4.45581H4.45585H4.45589H4.45593C4.6796 11.2305 4.90329 11.2315 5.12698 11.2315C5.1602 11.2315 5.19314 11.2383 5.23397 11.2467C5.25622 11.2512 5.28082 11.2563 5.30909 11.261V17.0013C5.22712 17.0714 5.13963 17.0676 5.05519 17.0641C5.03532 17.0632 5.01562 17.0624 4.99619 17.0625C4.31275 17.0646 3.62931 17.066 2.94517 17.0625C1.55157 17.0569 0.458205 16.2202 0.0771097 14.873C0.0646119 14.8285 0.0496762 14.785 0.0347101 14.7414L0.0347075 14.7414C0.0269406 14.7188 0.0191655 14.6961 0.0117188 14.6733V13.6186L0.0124219 13.6193ZM22.8067 27.5761C22.8939 27.5955 22.9812 27.6149 23.0649 27.6451H24.1175C24.2028 27.612 24.293 27.5927 24.3833 27.5735C24.5378 27.5406 24.6924 27.5077 24.822 27.4047C24.6455 26.9533 24.0647 26.6151 23.5416 26.6488C22.9784 26.6854 22.4658 27.0222 22.3751 27.4208C22.5064 27.5094 22.6564 27.5427 22.8067 27.5761ZM6.24792 11.0724C7.84965 10.4037 9.44083 9.73926 11.0819 9.05371V19.2371L9.09852 18.4094L9.09352 18.4073C8.14239 18.0103 7.197 17.6157 6.24792 17.2198V11.0724ZM12.0041 12.2488L12.0043 14.1311H12.0036L12.0037 15.7659C12.0039 17.3997 12.004 19.0332 12.0029 20.6667C12.0029 20.8347 12.0093 21.0007 12.0536 21.1631C12.1625 21.5618 12.5064 21.8458 12.9304 21.8873C13.3065 21.9246 13.7003 21.6996 13.8803 21.3473C14.0047 21.1033 14.009 20.8396 14.009 20.576V20.5711V20.5706V20.57V20.5695V20.569V20.5685V20.5679C14.0097 16.2836 14.0104 12 14.0083 7.71575C14.0083 7.54911 13.9991 7.38107 13.9724 7.21724C13.8817 6.6688 13.3473 6.31161 12.8031 6.42692C12.2954 6.5338 12.005 6.93317 12.005 7.54279C12.0035 9.11172 12.0038 10.6803 12.0041 12.2488ZM3.39305 18.0008H5.2683C5.33822 18.0768 5.33807 18.1464 5.33792 18.2132L5.33791 18.2223C5.33791 18.4785 5.33871 18.7346 5.33951 18.9907V18.9908C5.34152 19.6311 5.34353 20.2715 5.33298 20.9118C5.32455 21.4068 4.98353 21.7795 4.50962 21.8687C4.08212 21.9496 3.63985 21.7183 3.4479 21.3133C3.39868 21.2092 3.36423 21.1009 3.36423 20.9842C3.36423 20.0441 3.36423 19.1033 3.36563 18.1633C3.36563 18.136 3.37133 18.109 3.37891 18.073C3.38325 18.0524 3.3882 18.029 3.39305 18.0008ZM22.3586 7.18674C23.1841 7.4919 23.999 7.50385 24.84 7.17479V7.17409C24.6136 6.68752 24.0701 6.37322 23.5547 6.39783C23.0069 6.42455 22.5014 6.74588 22.3586 7.18674ZM24.8371 17.3076C23.9933 17.6156 23.1798 17.631 22.3564 17.3013C22.5252 16.8498 23.0596 16.5229 23.589 16.5215C24.1164 16.5201 24.6395 16.8358 24.8364 17.3076H24.8371ZM23.5953 3.55937C23.8765 3.55726 24.0854 3.34421 24.0875 3.05804V3.05734C24.0896 2.7803 23.8716 2.55249 23.5995 2.54686C23.3295 2.54124 23.1003 2.76554 23.0947 3.04046C23.0883 3.33929 23.3035 3.56218 23.5953 3.55937ZM24.0874 13.1875C24.0832 13.4737 23.873 13.6846 23.5917 13.6846C23.2999 13.6846 23.0876 13.461 23.0953 13.1615C23.1023 12.8873 23.3344 12.6637 23.6044 12.6721C23.8772 12.6805 24.0916 12.9091 24.0881 13.1868L24.0874 13.1875ZM23.5753 22.7972C23.3018 22.8078 23.0901 23.0363 23.0951 23.3154L23.0944 23.3147C23.0993 23.6002 23.3123 23.8104 23.5936 23.809C23.8847 23.8076 24.0963 23.5819 24.0872 23.2831C24.0787 23.0096 23.8446 22.7867 23.5753 22.7972Z" fill="#17A3AF"/>
</svg>
