<svg width="27" height="26" viewBox="0 0 27 26" fill="none" xmlns="http://www.w3.org/2000/svg">
<path d="M26.9423 8.59544C26.6846 6.36037 25.5127 4.27459 23.7281 2.87309C21.9829 1.50253 19.808 0.897429 17.5249 1.18352C16.0332 1.40092 14.7367 1.92514 13.6673 2.7431C13.3528 2.5098 12.7957 2.10706 12.4321 1.90498C11.1404 1.18749 9.68841 0.808594 8.23242 0.808594C5.70644 0.808594 3.36238 1.91946 1.80195 3.85567C0.083426 5.97012 -0.408715 8.54151 0.339147 11.4981C0.767996 13.1993 1.76931 14.9158 3.09361 16.2256C3.1271 17.03 3.47591 17.7795 4.08413 18.3474C4.49766 18.7337 5.00512 18.9977 5.53217 19.1035C5.65592 19.6913 5.9491 20.2283 6.34844 20.5947C6.74692 20.9887 7.26772 21.2523 7.83281 21.3505C7.96677 21.9596 8.28124 22.5338 8.6976 22.9166C9.0748 23.262 9.71821 23.6671 10.4428 23.8226C10.7428 24.7615 11.2971 25.3549 12.1327 25.6351C12.3018 25.6915 12.6498 25.7866 13.082 25.7866C13.755 25.7866 14.3743 25.553 14.8724 25.1114L14.9129 25.0728C14.9513 25.0345 15.0151 24.974 15.098 24.8968L15.1491 24.8489C15.9074 24.139 16.7302 23.3305 17.1968 22.6342C17.4145 22.6819 17.6404 22.7072 17.8615 22.7072C18.2472 22.7072 18.8038 22.6325 19.2517 22.2851C19.8466 21.8594 20.203 21.239 20.274 20.5184C20.8865 20.4531 21.4865 20.1863 21.8869 19.7918C22.3118 19.3726 22.5812 18.7556 22.622 18.1306C23.3208 18.0492 23.9222 17.7585 24.3735 17.282C25.0668 16.55 25.0214 15.6322 24.9539 15.2141C26.4956 13.3097 27.2199 10.9049 26.9423 8.59544ZM5.96869 17.4486C5.71978 17.4259 5.46065 17.3027 5.24609 17.1026C4.99122 16.8642 4.83597 16.56 4.80163 16.2344L7.3804 13.7374C7.45505 13.6906 7.67444 13.5682 7.92732 13.5682C8.1609 13.5682 8.36128 13.6724 8.54008 13.887C8.88464 14.3013 8.78615 14.6467 8.70754 14.8034L5.96869 17.4486ZM8.28436 19.6865C8.09193 19.6777 7.78286 19.6184 7.52259 19.3615C7.34946 19.2023 7.21721 18.9196 7.18144 18.6438L9.88964 16.0286C10.0049 15.9707 10.2739 15.8513 10.5316 15.8513C10.6863 15.8513 10.8055 15.8941 10.8955 15.9835C11.2151 16.2994 11.2023 16.7337 11.1643 16.9692L8.28436 19.6865ZM10.7908 22.1503C10.4655 22.0765 10.0954 21.8864 9.84991 21.661C9.67252 21.4984 9.52266 21.1825 9.47981 20.8998L12.3359 18.2061C12.4094 18.1967 12.5013 18.1882 12.6018 18.1882C12.8408 18.1882 13.1663 18.2359 13.3588 18.4638C13.5188 18.6534 13.5424 19.0232 13.5123 19.3164L10.7908 22.1503ZM13.9857 23.6055C13.8688 23.715 13.7771 23.801 13.7348 23.8442C13.5515 24.0031 13.329 24.0834 13.0741 24.0834C12.8933 24.0834 12.7454 24.0434 12.6739 24.0196C12.4477 23.9435 12.2306 23.8283 12.062 23.285L14.8267 20.4057C14.8604 20.3926 14.8999 20.3864 14.9436 20.3864C15.1826 20.3864 15.48 20.5703 15.5882 20.702C15.7584 20.91 15.8615 21.2467 15.9035 21.499C15.8297 21.6599 15.4953 22.1915 13.9857 23.6055ZM23.1366 16.1115C22.8752 16.3877 22.4639 16.4987 21.9755 16.441L16.9789 11.3993C16.659 11.0771 16.0996 11.0737 15.7743 11.3942C15.4417 11.7248 15.4391 12.2649 15.7692 12.5984L20.8816 17.7563C20.9747 17.9461 20.9038 18.3699 20.6912 18.5793C20.5504 18.7184 20.2297 18.8316 19.9766 18.8316C19.8883 18.8316 19.8136 18.8177 19.7688 18.7947L14.5968 13.4944C14.2797 13.1683 13.7192 13.1609 13.3925 13.4788C13.2296 13.6378 13.1382 13.8506 13.1357 14.0777C13.1328 14.305 13.2185 14.5199 13.3775 14.6828L18.5504 19.9839C18.602 20.2084 18.6324 20.6342 18.2356 20.9191C18.1865 20.9572 18.0574 21.0011 17.8544 21.0011C17.7452 21.0011 17.6336 20.9878 17.5317 20.9631C17.4392 20.5649 17.2581 20.0555 16.9062 19.6238C16.5614 19.2029 15.9211 18.7783 15.2053 18.6909C15.144 18.1667 14.9612 17.7213 14.6595 17.3646C14.1356 16.7453 13.4422 16.5435 12.8763 16.4981C12.8382 15.9795 12.6569 15.3302 12.0929 14.7728C11.6587 14.3433 11.0913 14.1251 10.4593 14.1455C10.3948 13.6644 10.1871 13.2035 9.84877 12.7977C9.20649 12.0268 8.45267 11.865 7.93328 11.865C7.35911 11.865 6.75543 12.0663 6.31835 12.4031C6.29366 12.4222 6.2701 12.4429 6.24598 12.4659L3.96777 14.6717C3.25425 13.8884 2.68547 12.9861 2.30856 12.0498L11.4393 3.3079C11.4946 3.33685 11.5508 3.36296 11.6053 3.39333C11.7714 3.48557 12.0447 3.66892 12.3901 3.91896L8.37689 7.84644C8.23271 7.97246 7.51238 8.6505 7.50528 9.60754C7.50244 10.0341 7.64322 10.6673 8.33119 11.2605C9.01434 11.8491 9.85956 12.1599 10.7757 12.1599C11.8667 12.1599 12.9455 11.7143 13.8129 10.9052C14.3666 10.3895 15.5708 9.21331 16.3584 8.44076L23.2671 15.4653C23.2989 15.6154 23.3282 15.9092 23.1366 16.1115ZM23.9452 13.726L16.9757 6.64078C16.8185 6.48099 16.6005 6.38847 16.3732 6.3862H16.3684C16.1439 6.3862 15.9316 6.47305 15.7721 6.63L15.7428 6.65838C15.1928 7.19934 13.344 9.01464 12.6512 9.65976C12.102 10.1721 11.4356 10.4539 10.7749 10.4542C10.2702 10.4542 9.80932 10.287 9.44234 9.97082C9.33534 9.87858 9.20762 9.74292 9.20762 9.62173C9.20762 9.452 9.3992 9.2136 9.494 9.13157C9.51046 9.11767 9.52664 9.10319 9.54253 9.08758L14.278 4.45339C14.6944 4.06513 15.1687 3.7464 15.6917 3.49153L24.5511 12.7014C24.3769 13.0531 24.1779 13.3965 23.9452 13.726Z" fill="#C11F50"/>
</svg>
