<svg width="17" height="19" viewBox="0 0 17 19" fill="none" xmlns="http://www.w3.org/2000/svg">
<path fill-rule="evenodd" clip-rule="evenodd" d="M15.444 3.7522C15.7899 3.7522 16.0779 4.02933 16.0779 4.38197V4.70801C16.0779 5.05206 15.7899 5.33778 15.444 5.33778H0.707026C0.360243 5.33778 0.0722656 5.05206 0.0722656 4.70801V4.38197C0.0722656 4.02933 0.360243 3.7522 0.707026 3.7522H3.29969C3.82635 3.7522 4.28469 3.39099 4.40317 2.88134L4.53894 2.29619C4.74995 1.49911 5.44438 0.969727 6.23913 0.969727H9.91106C10.6972 0.969727 11.3994 1.49911 11.6026 2.25414L11.7479 2.88048C11.8655 3.39099 12.3238 3.7522 12.8514 3.7522H15.444ZM14.1266 15.6692C14.3973 13.235 14.8712 7.45215 14.8712 7.39381C14.8885 7.21706 14.8288 7.04976 14.7104 6.91505C14.5832 6.78893 14.4224 6.71428 14.2451 6.71428H1.91137C1.73322 6.71428 1.56372 6.78893 1.44611 6.91505C1.32677 7.04976 1.26796 7.21706 1.27661 7.39381C1.2782 7.40453 1.29521 7.60823 1.32364 7.94878C1.44993 9.46165 1.80169 13.6753 2.02899 15.6692C2.18984 17.1381 3.18868 18.0613 4.63548 18.0947C5.75194 18.1196 6.90211 18.1282 8.07824 18.1282C9.18604 18.1282 10.3111 18.1196 11.4622 18.0947C12.9592 18.0698 13.9571 17.1629 14.1266 15.6692Z" fill="#FB8308"/>
</svg>
