<svg width="26" height="25" viewBox="0 0 26 25" fill="none" xmlns="http://www.w3.org/2000/svg">
<path d="M24.9097 8.85809L9.44454 23.8248C8.64026 24.5787 7.58321 25 6.4802 25H1.08003C0.781301 25 0.505547 24.8891 0.298733 24.6896C0.0919177 24.49 0 24.2239 0 23.9357L0.137877 18.6807C0.160856 17.6386 0.597465 16.663 1.35579 15.9313L12.317 5.35477C12.5008 5.17738 12.8225 5.17738 13.0064 5.35477L16.8439 9.03548C17.0967 9.27938 17.4644 9.43459 17.855 9.43459C18.7053 9.43459 19.3717 8.7694 19.3717 7.97118C19.3717 7.57206 19.2108 7.2173 18.958 6.95122C18.8891 6.86253 15.2354 3.3592 15.2354 3.3592C15.0056 3.13747 15.0056 2.76053 15.2354 2.5388L16.775 1.03104C18.1997 -0.343681 20.4976 -0.343681 21.9224 1.03104L24.9097 3.91353C26.3114 5.26608 26.3114 7.48337 24.9097 8.85809Z" fill="#FB8308"/>
</svg>
