<svg width="27" height="28" viewBox="0 0 27 28" fill="none" xmlns="http://www.w3.org/2000/svg">
<path d="M6.38929 5.13663H6.80586C7.2639 5.13663 7.63611 4.76538 7.63611 4.30542V0.976718C7.63611 0.51772 7.26293 0.145508 6.80586 0.145508H6.38929C5.92933 0.145508 5.55615 0.51772 5.55615 0.976718V4.30445C5.55615 4.76538 5.92933 5.13663 6.38929 5.13663Z" fill="#7E57C2"/>
<path d="M17.9054 5.13663H18.322C18.781 5.13663 19.1522 4.76538 19.1522 4.30542V0.976718C19.1522 0.51772 18.781 0.145508 18.322 0.145508H17.9054C17.4445 0.145508 17.0732 0.51772 17.0732 0.976718V4.30445C17.0732 4.76538 17.4455 5.13663 17.9054 5.13663Z" fill="#7E57C2"/>
<path d="M9.98807 9.36145C9.98807 9.15605 9.81836 8.9873 9.61297 8.9873H7.4713C7.26494 8.9873 7.09619 9.15605 7.09619 9.36145V10.9882C7.09619 11.1955 7.26494 11.3633 7.4713 11.3633H9.61393C9.81932 11.3633 9.98904 11.1955 9.98904 10.9882L9.98807 9.36145Z" fill="#7E57C2"/>
<path d="M13.7967 9.36145C13.7967 9.15605 13.6289 8.9873 13.4225 8.9873H11.3175C11.1121 8.9873 10.9443 9.15605 10.9443 9.36145V10.9882C10.9443 11.1955 11.1121 11.3633 11.3175 11.3633H13.4225C13.6289 11.3633 13.7967 11.1955 13.7967 10.9882V9.36145Z" fill="#7E57C2"/>
<path d="M15.1315 11.3604H17.2355C17.4419 11.3604 17.6087 11.1926 17.6087 10.9853V9.35852C17.6087 9.15312 17.4419 8.98438 17.2355 8.98438H15.1315C14.9251 8.98438 14.7563 9.15312 14.7563 9.35852V10.9853C14.7573 11.1926 14.9261 11.3604 15.1315 11.3604Z" fill="#7E57C2"/>
<path d="M18.9449 11.3604H21.0471C21.2544 11.3604 21.4222 11.1926 21.4222 10.9853V9.35852C21.4222 9.15312 21.2544 8.98438 21.0471 8.98438H18.9449C18.7376 8.98438 18.5698 9.15312 18.5698 9.35852V10.9853C18.5708 11.1926 18.7386 11.3604 18.9449 11.3604Z" fill="#7E57C2"/>
<path d="M6.13944 12.6896C6.13944 12.4832 5.97069 12.3154 5.76337 12.3154H3.66124C3.45488 12.3154 3.28613 12.4832 3.28613 12.6896V14.3153C3.28613 14.5217 3.45488 14.6895 3.66124 14.6895H5.76337C5.97069 14.6895 6.13944 14.5217 6.13944 14.3153V12.6896Z" fill="#7E57C2"/>
<path d="M9.98807 12.6896C9.98807 12.4832 9.81836 12.3154 9.61297 12.3154H7.4713C7.26494 12.3154 7.09619 12.4832 7.09619 12.6896V14.3153C7.09619 14.5217 7.26494 14.6895 7.4713 14.6895H9.61393C9.81932 14.6895 9.98904 14.5217 9.98904 14.3153L9.98807 12.6896Z" fill="#7E57C2"/>
<path d="M13.7967 12.6896C13.7967 12.4832 13.6289 12.3154 13.4225 12.3154H11.3175C11.1121 12.3154 10.9443 12.4832 10.9443 12.6896V14.3153C10.9443 14.5217 11.1121 14.6895 11.3175 14.6895H13.4225C13.6289 14.6895 13.7967 14.5217 13.7967 14.3153V12.6896Z" fill="#7E57C2"/>
<path d="M14.7573 14.3153C14.7573 14.5217 14.9261 14.6895 15.1324 14.6895H17.2365C17.4428 14.6895 17.6097 14.5217 17.6097 14.3153V12.6896C17.6097 12.4832 17.4428 12.3154 17.2365 12.3154H15.1324C14.9261 12.3154 14.7573 12.4832 14.7573 12.6896V14.3153Z" fill="#7E57C2"/>
<path d="M18.5713 14.3153C18.5713 14.5217 18.7391 14.6895 18.9464 14.6895H21.0485C21.2558 14.6895 21.4236 14.5217 21.4236 14.3153V12.6896C21.4236 12.4832 21.2558 12.3154 21.0485 12.3154H18.9464C18.7391 12.3154 18.5713 12.4832 18.5713 12.6896V14.3153Z" fill="#7E57C2"/>
<path d="M6.13944 16.0177C6.13944 15.8104 5.97069 15.6436 5.76337 15.6436H3.66124C3.45488 15.6436 3.28613 15.8094 3.28613 16.0177V17.6435C3.28613 17.8498 3.45488 18.0176 3.66124 18.0176H5.76337C5.97069 18.0176 6.13944 17.8508 6.13944 17.6435V16.0177Z" fill="#7E57C2"/>
<path d="M9.98758 16.0177C9.98758 15.8104 9.81787 15.6436 9.61248 15.6436H7.47081C7.26445 15.6436 7.0957 15.8094 7.0957 16.0177V17.6435C7.0957 17.8498 7.26445 18.0176 7.47081 18.0176H9.61344C9.81883 18.0176 9.98855 17.8508 9.98855 17.6435L9.98758 16.0177Z" fill="#7E57C2"/>
<path d="M13.7967 16.0177C13.7967 15.8104 13.6289 15.6436 13.4225 15.6436H11.3175C11.1121 15.6436 10.9443 15.8094 10.9443 16.0177V17.6435C10.9443 17.8498 11.1121 18.0176 11.3175 18.0176H13.4225C13.6289 18.0176 13.7967 17.8508 13.7967 17.6435V16.0177Z" fill="#7E57C2"/>
<path d="M5.76435 18.9717H3.66221C3.45586 18.9717 3.28711 19.1385 3.28711 19.3458V20.9716C3.28711 21.178 3.45586 21.3457 3.66221 21.3457H5.76435C5.97167 21.3457 6.14042 21.178 6.14042 20.9716V19.3458C6.13945 19.1395 5.97071 18.9717 5.76435 18.9717Z" fill="#7E57C2"/>
<path d="M9.61344 18.9717H7.47081C7.26445 18.9717 7.0957 19.1385 7.0957 19.3458V20.9716C7.0957 21.178 7.26445 21.3457 7.47081 21.3457H9.61344C9.81883 21.3457 9.98855 21.178 9.98855 20.9716V19.3458C9.98758 19.1395 9.81883 18.9717 9.61344 18.9717Z" fill="#7E57C2"/>
<path d="M13.4225 18.9717H11.3175C11.1121 18.9717 10.9443 19.1385 10.9443 19.3458V20.9716C10.9443 21.178 11.1121 21.3457 11.3175 21.3457H13.4225C13.6289 21.3457 13.7967 21.178 13.7967 20.9716V19.3458C13.7967 19.1395 13.6289 18.9717 13.4225 18.9717Z" fill="#7E57C2"/>
<path d="M1.33249 24.1872H14.8508C14.6241 23.7147 14.4458 23.2162 14.3349 22.6907H1.83103V7.64402H22.8774V14.9909C23.4107 15.1625 23.9102 15.4026 24.375 15.6958V3.38864C24.375 2.83707 23.9285 2.38965 23.3779 2.38965H19.7319V4.30568C19.7319 5.08289 19.0994 5.71546 18.3222 5.71546H17.9056C17.1274 5.71546 16.4949 5.08289 16.4949 4.30568V2.39061H8.21457V4.30664C8.21457 5.08385 7.582 5.71642 6.80479 5.71642H6.38918C5.61004 5.71642 4.97651 5.08385 4.97651 4.30664V2.39061H1.33249C0.780923 2.39061 0.333496 2.83804 0.333496 3.38961V23.1902C0.333496 23.7408 0.780923 24.1872 1.33249 24.1872Z" fill="#7E57C2"/>
<path d="M15.0156 21.3203C15.0156 24.5333 17.6298 27.1465 20.8418 27.1465C24.0538 27.1465 26.668 24.5333 26.668 21.3203C26.668 18.1073 24.0538 15.4941 20.8418 15.4941C17.6298 15.4941 15.0156 18.1073 15.0156 21.3203ZM25.4723 21.3203C25.4723 23.8737 23.3952 25.9508 20.8418 25.9508C18.2884 25.9508 16.2113 23.8737 16.2113 21.3203C16.2113 18.7669 18.2884 16.6898 20.8418 16.6898C23.3952 16.6898 25.4723 18.7669 25.4723 21.3203Z" fill="#7E57C2"/>
<path d="M20.5883 18.0767C20.4533 18.3833 19.8834 19.6417 19.8834 19.6417C19.8544 19.6995 19.7831 19.7516 19.7194 19.7584C19.7194 19.7584 18.3482 19.9117 18.0117 19.9493C17.68 19.9869 17.6077 20.201 17.8584 20.4276C18.1043 20.6542 19.1255 21.5857 19.1255 21.5857C19.1746 21.6271 19.1997 21.713 19.1862 21.7747C19.1862 21.7747 18.9104 23.1295 18.8429 23.4583C18.7745 23.7881 18.9567 23.9212 19.2479 23.7543C19.542 23.5895 20.7416 22.9058 20.7416 22.9058C20.7966 22.874 20.8882 22.874 20.9431 22.9058C20.9431 22.9058 22.1427 23.5895 22.4368 23.7543C22.728 23.9212 22.9103 23.7881 22.8418 23.4583C22.7743 23.1305 22.4985 21.7747 22.4985 21.7747C22.485 21.713 22.511 21.6281 22.5593 21.5857C22.5593 21.5857 23.5814 20.6542 23.8263 20.4276C24.077 20.201 24.0047 19.9869 23.673 19.9493C23.3365 19.9117 21.9653 19.7584 21.9653 19.7584C21.9026 19.7516 21.8303 19.6995 21.8013 19.6417C21.8013 19.6417 21.2305 18.3833 21.0964 18.0767C20.9547 17.77 20.7291 17.77 20.5883 18.0767Z" fill="#7E57C2"/>
</svg>
