<svg width="31" height="31" viewBox="0 0 31 31" fill="none" xmlns="http://www.w3.org/2000/svg">
<circle cx="15.0156" cy="15.5781" r="15" fill="#7649B3"/>
<path fill-rule="evenodd" clip-rule="evenodd" d="M8.38184 8.52191C8.38184 8.27682 8.58053 8.07812 8.82562 8.07812C9.07072 8.07812 9.26941 8.27682 9.26941 8.52191V22.6343C9.26941 22.8794 9.07072 23.0781 8.82562 23.0781C8.58053 23.0781 8.38184 22.8794 8.38184 22.6343V8.52191ZM15.4056 8.84595C12.407 9.84545 10.4638 8.819 9.93219 8.4758V16.2568C10.4638 16.6001 12.407 17.6265 15.4056 16.627C18.9559 15.4436 21.6482 17.1596 21.6482 17.1596V9.37849C21.6482 9.37849 18.9559 7.66252 15.4056 8.84595Z" fill="white"/>
</svg>
