<svg width="24" height="24" viewBox="0 0 24 24" fill="none" xmlns="http://www.w3.org/2000/svg">
<g clip-path="url(#clip0_138_1736)">
<path d="M21 3.00024H12.236L8.236 1.00024H3C2.20435 1.00024 1.44129 1.31631 0.87868 1.87892C0.31607 2.44153 0 3.20459 0 4.00024L0 23.0002H24V6.00024C24 5.20459 23.6839 4.44153 23.1213 3.87892C22.5587 3.31631 21.7956 3.00024 21 3.00024ZM3 3.00024H7.764L11.764 5.00024H21C21.2652 5.00024 21.5196 5.1056 21.7071 5.29314C21.8946 5.48067 22 5.73503 22 6.00024V6.88124L2 6.99424V4.00024C2 3.73503 2.10536 3.48067 2.29289 3.29314C2.48043 3.1056 2.73478 3.00024 3 3.00024ZM2 21.0002V8.99424L22 8.88124V21.0002H2Z" fill="#374957"/>
</g>
<defs>
<clipPath id="clip0_138_1736">
<rect width="24" height="24" fill="white"/>
</clipPath>
</defs>
</svg>
