<svg width="27" height="28" viewBox="0 0 27 28" fill="none" xmlns="http://www.w3.org/2000/svg">
<path fill-rule="evenodd" clip-rule="evenodd" d="M16.6652 4.98539L16.5216 7.17985C16.3044 7.11708 16.0779 7.09278 15.8524 7.10805C15.7022 5.97354 15.18 4.92089 14.3674 4.11508L14.3626 4.11056C14.3139 4.0644 14.2837 4.03573 14.2528 4.00782C14.2021 3.96206 14.1496 3.91833 14.0111 3.80297L14.0111 3.80296L14.0111 3.80295L14.011 3.8029L14.0108 3.80278C13.9544 3.75575 13.8836 3.69683 13.7929 3.62103L13.4138 3.98008C12.8678 4.50435 12.1399 4.79672 11.383 4.79582H10.754C10.5708 4.79564 10.3948 4.72462 10.2628 4.59763L9.79174 4.16678L9.40685 4.6838C9.30206 4.81945 9.16518 4.92692 9.00855 4.99654C8.85191 5.06616 8.68042 5.09576 8.50951 5.08265C8.33859 5.06955 8.17362 5.01416 8.02943 4.92148C7.88523 4.82879 7.76634 4.70171 7.68345 4.55167L7.28132 3.81061C7.23061 3.87083 7.17925 3.93117 7.12751 3.99195C6.47596 4.75741 5.76548 5.5921 5.55792 7.11954C5.33425 7.10411 5.10961 7.12842 4.89441 7.19134L4.76229 5.18071C4.7174 4.53695 4.80535 3.89083 5.02067 3.28248C5.23598 2.67414 5.57407 2.11656 6.01394 1.64437C6.45381 1.17218 6.98606 0.795463 7.57763 0.53762C8.16921 0.279776 8.80748 0.146311 9.45281 0.145509H12.1269C12.7489 0.144978 13.3644 0.27214 13.9352 0.519122C14.5061 0.766104 15.0201 1.12765 15.4456 1.58136C15.871 2.03508 16.1988 2.57131 16.4086 3.15684C16.6184 3.74237 16.7057 4.36473 16.6652 4.98539ZM15.8179 16.1797H14.0945V18.0036L10.6994 21.0023L7.30145 18.0036V16.1797H5.57805C5.1618 16.1811 4.75397 16.297 4.3993 16.5149C4.04463 16.7328 3.75681 17.0441 3.56741 17.4148L0.539975 23.3577C0.331739 23.7535 0.229753 24.1965 0.243985 24.6435C0.258217 25.0906 0.38818 25.5262 0.621172 25.908C0.854164 26.2897 1.18221 26.6045 1.57326 26.8216C1.96431 27.0386 2.40498 27.1505 2.8522 27.1463H4.00114V27.1352H4.01272V24.9346H8.97602V24.9235H8.97611V23.5391H8.97602V23.5386H4.27975L4.53284 22.876L4.6742 22.5061C4.72319 22.3782 4.77236 22.2503 4.88581 21.9554L4.88587 21.9552L4.95188 21.7836C4.96527 21.7483 4.98548 21.7161 5.01134 21.6886C5.03721 21.6611 5.06823 21.639 5.10264 21.6236C5.13705 21.6081 5.17416 21.5996 5.21187 21.5984C5.24958 21.5973 5.28714 21.6036 5.32241 21.617C5.35768 21.6304 5.38996 21.6506 5.41742 21.6765C5.44488 21.7023 5.46698 21.7334 5.48245 21.7678C5.49792 21.8022 5.50646 21.8393 5.50758 21.877C5.50871 21.9147 5.5024 21.9523 5.48901 21.9875L5.11273 22.9641H9.55048V23.7454C9.82177 23.7454 10.0582 23.7436 10.2668 23.742C11.2886 23.7341 11.6438 23.7314 12.1614 23.9723L14.7465 16.7915H17.369C16.9482 16.3984 16.3938 16.1797 15.8179 16.1797ZM11.8194 24.9221L11.9659 24.5142C11.5284 24.3101 11.2287 24.3116 10.1928 24.3169C10.0046 24.3178 9.79223 24.3189 9.55029 24.3189V24.9221H11.8194ZM12.4258 17.071V14.7559C11.31 15.146 10.0948 15.146 8.979 14.7559V17.071L10.7024 18.5933L12.4258 17.071ZM13.5259 16.1768V17.7451L10.6995 20.2354L7.87598 17.7451V16.1768H8.40161V17.3343L10.6995 19.3622L13.0002 17.3343V16.1768H13.5259ZM5.37101 10.0303H5.50601C5.50026 9.92689 5.50026 7.74679 5.50601 7.6836H5.37101C5.07338 7.68435 4.78816 7.80292 4.57771 8.01338C4.36725 8.22383 4.24868 8.50905 4.24792 8.80668V8.90721C4.24792 9.20507 4.36625 9.49073 4.57687 9.70135C4.78749 9.91197 5.07315 10.0303 5.37101 10.0303ZM17.1533 8.80442V8.90495C17.1533 9.20281 17.035 9.48847 16.8243 9.69909C16.6137 9.90971 16.3281 10.028 16.0302 10.028H15.8923V7.68133C16.0887 7.66625 16.2857 7.69876 16.4668 7.77612C16.67 7.86061 16.8436 8.00335 16.9657 8.18634C17.0879 8.36933 17.1531 8.58439 17.1533 8.80442ZM11.4061 5.37027C12.3106 5.37195 13.1806 5.02292 13.8332 4.39655C14.3033 4.82813 14.6784 5.3529 14.9346 5.93743C15.1908 6.52197 15.3224 7.15345 15.3211 7.79165V9.85398C15.3211 11.0797 14.8342 12.2552 13.9674 13.1219C13.1007 13.9886 11.9252 14.4756 10.6995 14.4756C9.47376 14.4756 8.29825 13.9886 7.43153 13.1219C6.56482 12.2552 6.0779 11.0797 6.0779 9.85398V7.79165C6.07655 6.70168 6.4612 5.64645 7.16364 4.81304C7.29128 5.05129 7.47701 5.25346 7.70359 5.40082C7.93018 5.54817 8.1903 5.63595 8.45985 5.656C8.72939 5.67605 8.99964 5.62773 9.24553 5.51552C9.49143 5.40331 9.70502 5.23084 9.86651 5.0141C10.2537 5.38631 10.6409 5.3805 11.1623 5.37266C11.2404 5.37149 11.3215 5.37027 11.4061 5.37027ZM9.91184 11.7237C9.87545 11.7343 9.84149 11.7519 9.81193 11.7756H9.80906C9.75031 11.8234 9.71282 11.8925 9.70475 11.9678C9.69668 12.0431 9.71869 12.1185 9.76598 12.1777C9.87818 12.3197 10.0224 12.4333 10.1868 12.509C10.3512 12.5848 10.5311 12.6206 10.712 12.6136C10.8929 12.6066 11.0695 12.557 11.2276 12.4687C11.3856 12.3805 11.5206 12.2562 11.6215 12.1059C11.6642 12.0427 11.68 11.9651 11.6654 11.8902C11.6509 11.8153 11.6072 11.7493 11.544 11.7066C11.4807 11.664 11.4031 11.6482 11.3283 11.6627C11.2534 11.6773 11.1874 11.721 11.1447 11.7842C11.0944 11.8594 11.027 11.9217 10.948 11.9659C10.8691 12.0102 10.7808 12.0351 10.6903 12.0388C10.5999 12.0424 10.5098 12.0246 10.4276 11.9869C10.3453 11.9491 10.2731 11.8925 10.2169 11.8215C10.1934 11.7918 10.1643 11.767 10.1312 11.7486C10.0981 11.7302 10.0616 11.7185 10.024 11.7143C9.98635 11.71 9.94824 11.7132 9.91184 11.7237ZM8.82589 9.18677C8.87976 9.1329 8.91002 9.05984 8.91002 8.98366V8.53558C8.91002 8.4594 8.87976 8.38634 8.82589 8.33247C8.77203 8.27861 8.69897 8.24835 8.62279 8.24835C8.54661 8.24835 8.47355 8.27861 8.41968 8.33247C8.36582 8.38634 8.33555 8.4594 8.33555 8.53558V8.98366C8.33555 9.05984 8.36582 9.1329 8.41968 9.18677C8.47355 9.24063 8.54661 9.2709 8.62279 9.2709C8.69897 9.2709 8.77203 9.24063 8.82589 9.18677ZM7.8883 7.7506C7.94217 7.80447 8.01523 7.83473 8.09141 7.83473H9.15417C9.23035 7.83473 9.30341 7.80447 9.35727 7.7506C9.41114 7.69673 9.4414 7.62368 9.4414 7.5475C9.4414 7.47132 9.41114 7.39826 9.35727 7.34439C9.30341 7.29052 9.23035 7.26026 9.15417 7.26026H8.09141C8.01523 7.26026 7.94217 7.29052 7.8883 7.34439C7.83443 7.39826 7.80417 7.47132 7.80417 7.5475C7.80417 7.62368 7.83443 7.69673 7.8883 7.7506ZM12.8902 9.18677C12.9441 9.1329 12.9744 9.05984 12.9744 8.98366V8.53558C12.9744 8.4594 12.9441 8.38634 12.8902 8.33247C12.8364 8.27861 12.7633 8.24835 12.6871 8.24835C12.611 8.24835 12.5379 8.27861 12.484 8.33247C12.4302 8.38634 12.3999 8.4594 12.3999 8.53558V8.98366C12.3999 9.05984 12.4302 9.1329 12.484 9.18677C12.5379 9.24063 12.611 9.2709 12.6871 9.2709C12.7633 9.2709 12.8364 9.24063 12.8902 9.18677ZM12.1558 7.83473H13.2185C13.2947 7.83473 13.3678 7.80447 13.4216 7.7506C13.4755 7.69673 13.5058 7.62368 13.5058 7.5475C13.5058 7.47132 13.4755 7.39826 13.4216 7.34439C13.3678 7.29052 13.2947 7.26026 13.2185 7.26026H12.1558C12.0796 7.26026 12.0065 7.29052 11.9527 7.34439C11.8988 7.39826 11.8685 7.47132 11.8685 7.5475C11.8685 7.62368 11.8988 7.69673 11.9527 7.7506C12.0065 7.80447 12.0796 7.83473 12.1558 7.83473ZM12.4309 24.9232L15.1395 17.3604H26.7581L24.0495 24.9232H12.4309ZM18.6724 22.6524C18.9145 22.8153 19.1994 22.9028 19.4911 22.904C19.6855 22.9047 19.8781 22.8671 20.0579 22.7932C20.2376 22.7194 20.4011 22.6107 20.5388 22.4736C20.6765 22.3364 20.7857 22.1734 20.8603 21.9939C20.9349 21.8144 20.9732 21.6219 20.9732 21.4276C20.9732 21.1358 20.8868 20.8506 20.7248 20.6079C20.5628 20.3653 20.3326 20.176 20.0632 20.0641C19.7937 19.9522 19.4972 19.9227 19.2109 19.9792C18.9247 20.0357 18.6616 20.1757 18.4549 20.3816C18.2482 20.5875 18.1072 20.85 18.0495 21.136C17.9919 21.4221 18.0203 21.7187 18.1312 21.9886C18.2421 22.2585 18.4304 22.4894 18.6724 22.6524ZM23.843 25.4961H12.2244V27.1333H23.843V25.4961ZM4.58704 25.4961H11.6501V27.1333H4.58704V25.4961Z" fill="#FF9800"/>
</svg>
