<svg width="16" height="12" viewBox="0 0 16 12" fill="none" xmlns="http://www.w3.org/2000/svg">
<path fill-rule="evenodd" clip-rule="evenodd" d="M0.229004 1.79376V10.5106C0.229004 10.9848 0.570313 11.3691 1.04053 11.3691H14.4175C14.8872 11.3691 15.229 10.9803 15.229 10.5106V1.79376C15.229 1.27335 14.9233 0.869141 14.4175 0.869141H1.04053C0.515137 0.869141 0.229004 1.28328 0.229004 1.79376ZM1.4624 2.55301C1.4624 2.34296 1.5874 2.22279 1.78711 2.22279C1.91064 2.22279 6.77148 5.35517 7.06592 5.5389L7.82666 6.02008C8.06787 5.85571 8.31006 5.71518 8.56006 5.54486C9.07031 5.21315 13.6104 2.22279 13.7354 2.22279C13.9355 2.22279 14.0601 2.34296 14.0601 2.55301C14.0601 2.77548 13.6387 2.99645 13.3643 3.16678C11.6401 4.2354 9.9165 5.40035 8.20947 6.5087C8.10986 6.57723 7.91699 6.72372 7.77246 6.70137C7.61133 6.67604 2.66504 3.44436 1.76514 2.90608C1.62988 2.82513 1.4624 2.75115 1.4624 2.55301Z" fill="#FB8308"/>
</svg>
