<svg width="12" height="14" viewBox="0 0 12 14" fill="none" xmlns="http://www.w3.org/2000/svg">
<path d="M6.17617 0C4.69096 0 3.26658 0.589998 2.21637 1.6402C1.16617 2.69041 0.576172 4.11479 0.576172 5.6C0.576172 6.9244 0.857572 7.791 1.62617 8.75L6.17617 14L10.7262 8.75C11.4948 7.791 11.7762 6.9244 11.7762 5.6C11.7762 4.11479 11.1862 2.69041 10.136 1.6402C9.08577 0.589998 7.66138 0 6.17617 0V0Z" fill="#FB8308"/>
<path d="M6.17617 7.7C7.33597 7.7 8.27617 6.7598 8.27617 5.6C8.27617 4.4402 7.33597 3.5 6.17617 3.5C5.01637 3.5 4.07617 4.4402 4.07617 5.6C4.07617 6.7598 5.01637 7.7 6.17617 7.7Z" fill="#FFF8EF"/>
</svg>
