<svg width="27" height="17" viewBox="0 0 27 17" fill="none" xmlns="http://www.w3.org/2000/svg">
<path d="M10.6635 1.85387C10.6094 1.93813 10.5675 2.02808 10.5352 2.13461C10.5806 2.05733 10.6199 1.99009 10.6592 1.92329C10.6626 1.92504 10.6657 1.92678 10.6688 1.92809C10.6648 1.94643 10.6609 1.96433 10.6565 1.98267C10.6557 1.98616 10.6548 1.98965 10.6544 1.99315C10.543 2.48346 10.5146 2.98906 10.5635 3.48941L10.6661 4.5447C10.6762 4.64818 10.6827 4.75253 10.6897 4.85644C10.7242 5.3699 10.9416 5.85497 11.3486 6.33044C11.3604 6.34397 11.3708 6.36319 11.3761 6.37934C11.5193 6.82992 11.7293 7.19362 12.0188 7.49139C12.4541 7.93848 12.9706 8.17512 13.5137 8.17556H13.5146C14.0551 8.17556 14.5699 7.9411 15.003 7.49663C15.2802 7.21239 15.4859 6.86485 15.6317 6.43392C15.6479 6.38633 15.6784 6.33306 15.7151 6.28853C16.1369 5.77682 16.3434 5.2555 16.3425 4.70188C16.3425 4.66346 16.3425 4.62504 16.343 4.58662L16.3508 2.66989C16.3412 2.60615 16.332 2.54197 16.3229 2.47648C16.3329 2.50267 16.343 2.52756 16.3526 2.55201C16.37 2.59611 16.3866 2.63846 16.4019 2.68125C16.4255 2.74674 16.4456 2.81267 16.467 2.87859C16.4687 2.86593 16.4665 2.85458 16.4643 2.84366C16.4211 2.63627 16.3705 2.4315 16.2792 2.23896C16.2722 2.22368 16.2648 2.20883 16.2587 2.19355L16.2583 2.19311C16.2456 2.16517 16.2342 2.13679 16.2238 2.10798C16.1936 2.02589 16.1635 1.94381 16.1334 1.86129C16.1107 1.79885 16.088 1.73598 16.0653 1.67355C16.0609 1.6622 16.0565 1.65128 16.0526 1.63993C16.057 1.63731 16.0618 1.63513 16.0661 1.63251C16.1434 1.75432 16.2207 1.87614 16.2975 1.99795C16.2858 1.95691 16.2709 1.9163 16.2548 1.87657C16.1849 1.70673 16.0945 1.55042 15.9583 1.42381C15.9295 1.39717 15.9037 1.36792 15.8823 1.33561C15.7448 1.13084 15.5798 0.957506 15.354 0.851846C15.3475 0.848353 15.3409 0.845297 15.3339 0.842677C15.23 0.796396 15.1252 0.753172 15.0209 0.708201C14.9947 0.697286 14.9685 0.685934 14.9427 0.674582C14.9956 0.678948 15.048 0.684624 15.0999 0.692483C15.3955 0.736581 15.6741 0.835692 15.9448 0.963619C15.9343 0.952703 15.9225 0.944844 15.9107 0.936549C15.5859 0.716933 15.2226 0.606907 14.8371 0.5615C14.8222 0.559753 14.8074 0.558007 14.7925 0.556697C14.6633 0.544035 14.5328 0.540106 14.4088 0.490332C14.3603 0.471121 14.3083 0.460643 14.2577 0.447108C14.1992 0.431826 14.1403 0.417418 14.0817 0.40301C14.0673 0.399517 14.0538 0.396024 14.0394 0.392531C14.0403 0.385109 14.0398 0.387729 14.0407 0.380306H14.7078C14.703 0.367208 14.6969 0.363279 14.6904 0.362405C14.4 0.320491 14.1093 0.289491 13.8159 0.315688C13.7154 0.324857 13.6159 0.329223 13.5159 0.315251C13.4718 0.309139 13.4268 0.307392 13.3823 0.303463C13.3819 0.296041 13.3819 0.298223 13.3819 0.290801C13.5997 0.250196 13.8172 0.209591 14.0477 0.166803C13.8167 0.172479 13.5989 0.187761 13.3836 0.225746C13.2635 0.24714 13.1461 0.285562 13.0251 0.30128C12.8527 0.323547 12.678 0.332716 12.5034 0.347561C12.8483 0.183395 13.2177 0.111791 13.5941 0.0703125C13.5233 0.0720589 13.4526 0.0690029 13.3823 0.0729324C13.1216 0.0864673 12.8632 0.11703 12.6104 0.186015C12.4012 0.243211 12.2026 0.32311 12.0314 0.461953C11.9991 0.488149 11.9598 0.506487 11.924 0.528317C11.9205 0.523078 11.9166 0.517402 11.9131 0.511726C11.9917 0.454967 12.0672 0.393405 12.1493 0.342321C12.2331 0.289928 12.3213 0.244084 12.4104 0.202169C12.4968 0.161564 12.5868 0.129255 12.6754 0.0930163C12.5003 0.137551 12.3314 0.199113 12.169 0.279012C11.8467 0.437066 11.604 0.701216 11.3254 0.917338C11.3254 0.917338 11.3245 0.918648 11.3237 0.919084C11.3058 0.948337 11.2861 0.976717 11.27 1.00728C11.2464 1.05225 11.2285 1.10028 11.2019 1.14307C11.1896 1.16228 11.1634 1.17581 11.1412 1.18542C11.0953 1.20419 11.0464 1.21511 11.0015 1.23519C10.7613 1.3426 10.6199 1.53078 10.56 1.78401C10.6177 1.66918 10.6902 1.56614 10.7967 1.47271C10.7679 1.57182 10.7439 1.66001 10.7159 1.74646C10.7033 1.78401 10.6853 1.82025 10.6635 1.85387ZM11.2455 4.56566L11.2481 4.53422C11.2503 4.50715 11.2529 4.47004 11.2573 4.44603C11.3918 4.40149 11.4708 4.27269 11.4752 4.09106C11.4782 3.96183 11.4791 3.83128 11.4804 3.7051C11.4817 3.56451 11.483 3.42086 11.487 3.27766C11.487 3.03796 11.6817 2.84497 11.9196 2.84497C11.924 2.84497 11.9284 2.84498 11.9323 2.84541L12.1497 2.85196C12.3288 2.83712 12.5095 2.8393 12.6894 2.83668C12.8505 2.8345 13.0116 2.83624 13.1727 2.83624H13.6478C13.8207 2.83624 13.9936 2.83668 14.1664 2.83581C14.2944 2.83537 14.4219 2.83319 14.5498 2.83275C14.6603 2.83188 14.7707 2.83231 14.8812 2.83231C14.9886 2.83188 15.0947 2.83013 15.2003 2.86244C15.3226 2.89955 15.4134 2.97159 15.4658 3.08424C15.4994 3.15628 15.5151 3.23705 15.5383 3.31171C15.5396 3.3104 15.5409 3.30866 15.5422 3.30735C15.5457 3.43003 15.5457 3.55534 15.5453 3.68414C15.5448 3.79635 15.5448 3.91205 15.547 4.02775C15.5479 4.05832 15.5474 4.08932 15.5474 4.12293V4.18755C15.5474 4.31679 15.64 4.42769 15.7671 4.45039C15.7719 4.47441 15.7758 4.50759 15.7771 4.52112C15.8295 5.0158 15.6736 5.46551 15.2859 5.93618C15.206 6.03354 15.1436 6.14401 15.1056 6.25622C14.9873 6.60638 14.8235 6.88581 14.6052 7.10935C14.2791 7.4438 13.9019 7.62062 13.5142 7.62062H13.5133C13.1234 7.62019 12.744 7.44161 12.4156 7.10411C12.1877 6.87009 12.0205 6.578 11.9044 6.21168C11.8769 6.1248 11.8288 6.03878 11.7695 5.96936C11.3708 5.5035 11.204 5.05772 11.2455 4.56566Z" fill="#FF9800"/>
<path d="M19.6117 15.2744C19.6301 15.5294 19.6109 15.5635 19.3751 15.6521C18.7599 15.8835 18.1194 16.0123 17.4728 16.1075C16.159 16.3005 14.8352 16.3559 12.9923 16.3716C12.4465 16.3389 11.3855 16.2935 10.3276 16.2048C9.48585 16.1346 8.65236 15.9944 7.84507 15.7294C7.75644 15.7006 7.66868 15.6678 7.58179 15.6346C7.39842 15.5639 7.3744 15.5298 7.38488 15.3312L7.70317 12.2164C7.90707 10.5302 8.88508 9.59543 10.5136 9.25968C10.8834 9.18327 11.3807 8.62659 11.5929 8.17383C11.6829 8.25242 11.7754 8.3249 11.8702 8.39126L11.7056 8.25809C12.2369 8.68641 12.8499 8.91214 13.5001 8.91388C14.1502 8.91214 14.7627 8.68641 15.2945 8.25809L15.4072 8.17383C15.6189 8.62703 16.1167 9.18371 16.4865 9.25968C18.1146 9.59543 19.0926 10.5302 19.2969 12.2164L19.6117 15.2744Z" fill="#FF9800"/>
<path d="M2.89526 1.57355C2.84723 1.64821 2.81055 1.72723 2.78174 1.82154C2.82191 1.75343 2.8564 1.69405 2.89133 1.63511C2.89438 1.63642 2.897 1.63816 2.90006 1.63947C2.89657 1.65563 2.89307 1.67178 2.88958 1.6875C2.88871 1.69056 2.88827 1.69361 2.8874 1.69667C2.78916 2.12935 2.76427 2.57557 2.80706 3.01742L2.89744 3.94915C2.90617 4.04083 2.91185 4.13252 2.91796 4.22421C2.94809 4.67741 3.1402 5.10573 3.49953 5.52531C3.50957 5.5371 3.51917 5.55413 3.52354 5.56854C3.64972 5.96629 3.83528 6.2872 4.0907 6.55004C4.47492 6.94473 4.93117 7.15343 5.41057 7.15387H5.41145C5.88866 7.15387 6.34317 6.94692 6.72521 6.55484C6.97015 6.30379 7.15134 5.99685 7.28014 5.617C7.29455 5.57465 7.32118 5.52793 7.35349 5.48864C7.72592 5.03674 7.90799 4.57656 7.90755 4.08799C7.90755 4.05437 7.90755 4.02031 7.90799 3.98626L7.91497 2.29439C7.90668 2.23807 7.89838 2.18131 7.89009 2.12368C7.89925 2.14682 7.90755 2.16865 7.91628 2.19048C7.93156 2.22934 7.94641 2.26688 7.95951 2.30443C7.98003 2.36207 7.99793 2.42057 8.0167 2.47864C8.01801 2.46773 8.0167 2.45768 8.01452 2.44764C7.97654 2.2647 7.93156 2.08394 7.85123 1.91367C7.84512 1.90013 7.83857 1.88703 7.83289 1.8735C7.82198 1.84861 7.8115 1.82329 7.80233 1.79796C7.77569 1.72549 7.74906 1.65301 7.72243 1.5801C7.70234 1.52508 7.68226 1.46963 7.66218 1.41462C7.65825 1.40458 7.65475 1.39497 7.65126 1.38493C7.65519 1.38275 7.65956 1.38056 7.66349 1.37838C7.7316 1.48579 7.79971 1.59363 7.86782 1.70104C7.85734 1.6648 7.84424 1.629 7.82983 1.59407C7.76784 1.44431 7.68837 1.30634 7.5683 1.19413C7.54298 1.17055 7.52028 1.14479 7.5015 1.11641C7.38012 0.935657 7.2343 0.782407 7.0352 0.689409C7.02953 0.686353 7.02341 0.683733 7.01774 0.681113C6.92605 0.640508 6.83349 0.602087 6.74136 0.562355C6.71822 0.55275 6.69508 0.542708 6.67238 0.532665C6.7191 0.536595 6.76538 0.541834 6.81122 0.548384C7.07188 0.587242 7.31813 0.674564 7.55695 0.787646C7.54735 0.778041 7.5373 0.771055 7.52683 0.763633C7.23997 0.569777 6.9195 0.47285 6.57938 0.432682C6.56628 0.431372 6.55318 0.429625 6.54009 0.428315C6.42569 0.4174 6.31043 0.413471 6.20128 0.36981C6.15849 0.352782 6.11264 0.343613 6.06767 0.331824C6.01572 0.318289 5.9642 0.305628 5.91224 0.292966C5.89958 0.28991 5.88735 0.286854 5.87469 0.283797C5.87513 0.277248 5.87513 0.279431 5.876 0.272882H6.46499C6.46062 0.26153 6.45538 0.258037 6.44971 0.257164C6.19342 0.220052 5.93669 0.192545 5.67778 0.216122C5.58915 0.223981 5.50139 0.227911 5.41319 0.216122C5.37433 0.210883 5.3346 0.209137 5.29531 0.20608C5.29487 0.199531 5.29487 0.201278 5.29487 0.194729C5.48698 0.158926 5.67909 0.123124 5.88255 0.085139C5.67865 0.0899417 5.48611 0.103477 5.29618 0.137533C5.19008 0.156307 5.08617 0.190363 4.97964 0.204334C4.82726 0.223982 4.67357 0.232277 4.51901 0.244939C4.82377 0.0999839 5.14948 0.0371119 5.48174 0C5.41931 0.00174644 5.35687 -0.000873172 5.29487 0.0021831C5.06478 0.0139716 4.83643 0.0410415 4.61376 0.102167C4.42907 0.152814 4.25355 0.223108 4.10249 0.345796C4.07367 0.368936 4.03918 0.385091 4.00731 0.404302C4.00425 0.399499 4.00076 0.394697 3.9977 0.389894C4.06712 0.339684 4.13392 0.285544 4.2064 0.240136C4.28019 0.193855 4.35834 0.153687 4.43693 0.116138C4.51334 0.0803363 4.5928 0.0515203 4.67095 0.0200843C4.51639 0.0593793 4.36707 0.113955 4.22386 0.18425C3.93919 0.323965 3.72525 0.557115 3.47944 0.747478C3.47901 0.747914 3.47857 0.748351 3.47813 0.749225C3.46198 0.774985 3.44495 0.799871 3.43054 0.826941C3.41002 0.866673 3.39387 0.909024 3.37029 0.946573C3.35981 0.9636 3.33667 0.975389 3.31659 0.984121C3.27642 1.00071 3.23319 1.01032 3.19346 1.02778C2.98171 1.12296 2.85684 1.28888 2.80357 1.51198C2.85422 1.41069 2.9184 1.31944 3.01271 1.23692C2.98738 1.32424 2.96599 1.40196 2.94154 1.47836C2.93019 1.51198 2.91447 1.54386 2.89526 1.57355ZM3.40915 3.96705L3.41133 3.9391C3.41308 3.91509 3.4157 3.88234 3.41963 3.86139C3.53838 3.82209 3.60824 3.70814 3.61217 3.54834C3.61479 3.43438 3.61567 3.31912 3.61698 3.20778C3.61785 3.08335 3.61916 2.95673 3.62265 2.83055C3.62265 2.61879 3.79468 2.44851 4.00469 2.44851C4.00861 2.44851 4.01211 2.44851 4.01604 2.44851L4.20771 2.45419C4.36576 2.44109 4.52513 2.44284 4.68405 2.44065C4.82639 2.43891 4.96872 2.44022 5.11062 2.44022H5.52977C5.68258 2.44022 5.83496 2.44065 5.98777 2.44022C6.10042 2.43978 6.21306 2.43804 6.32615 2.4376C6.42351 2.43716 6.52131 2.4376 6.61868 2.43716C6.71342 2.43716 6.80729 2.43542 6.90029 2.4638C7.00813 2.49654 7.08847 2.55985 7.13475 2.6594C7.16444 2.72314 7.17841 2.79431 7.19893 2.86024C7.1998 2.85893 7.20111 2.85762 7.20242 2.85631C7.20548 2.96459 7.20548 3.07505 7.20504 3.18901C7.20504 3.28812 7.20461 3.39028 7.20679 3.49201C7.20723 3.51908 7.20723 3.54659 7.20679 3.57584V3.63304C7.20679 3.747 7.28844 3.8448 7.40065 3.86532C7.40501 3.88627 7.40807 3.91596 7.40938 3.92775C7.45566 4.36436 7.31813 4.76124 6.97582 5.17646C6.90509 5.26247 6.85008 5.35984 6.81646 5.45895C6.71167 5.76807 6.56759 6.01432 6.37505 6.2121C6.08732 6.50725 5.75419 6.66356 5.41188 6.66356H5.41145C5.0674 6.66356 4.73252 6.5055 4.44261 6.20773C4.24177 6.00122 4.09375 5.74362 3.99115 5.42009C3.96714 5.34368 3.92435 5.26727 3.87196 5.20615C3.51961 4.7953 3.37247 4.40147 3.40915 3.96705Z" fill="#FF9800"/>
<path d="M7.05219 12.1513C7.25041 10.5118 8.12887 9.388 9.60025 8.84617C9.19726 8.49076 8.67769 8.24539 8.03587 8.1131C7.70928 8.04586 7.27049 7.55423 7.08318 7.1543L6.98364 7.22852C6.51428 7.60663 5.97332 7.80572 5.39961 7.80747C4.82591 7.80572 4.28495 7.60663 3.81559 7.22852L3.96098 7.34641C3.87715 7.2879 3.7955 7.22372 3.71604 7.1543C3.52917 7.55423 3.08994 8.04542 2.76336 8.1131C1.32603 8.40955 0.462853 9.23475 0.282533 10.7232L0.00179222 13.4725C-0.00737661 13.648 0.0140173 13.6781 0.175563 13.7406C0.252407 13.7703 0.329687 13.7986 0.40784 13.8244C1.11995 14.0584 1.85608 14.182 2.59919 14.244C3.53267 14.3221 4.46963 14.3619 4.95121 14.3911C5.65066 14.385 6.26236 14.3719 6.82777 14.3462L7.05219 12.1513Z" fill="#FF9800"/>
<path d="M24.0601 7.90419C24.3574 8.02526 24.6545 8.14627 24.9494 8.27223C25.193 8.3766 25.431 8.49751 25.6602 8.63071C26.171 8.928 26.464 9.40525 26.6906 9.93006C26.8316 10.2567 26.925 11.9351 26.9715 12.769C26.9817 12.9526 26.9897 13.0953 26.9953 13.1736C27.0119 13.405 26.9945 13.436 26.781 13.5159C26.223 13.7259 25.6423 13.8425 25.0555 13.929C23.8635 14.104 22.6628 14.1542 20.9915 14.1687C20.9437 14.1658 20.8913 14.1628 20.8349 14.1596C20.7478 14.1548 20.6511 14.1497 20.5466 14.1441L20.5318 14.1433C20.414 14.1371 20.2865 14.1303 20.1519 14.1228L19.9476 12.1384C19.7362 10.3933 18.7403 9.23276 17.0825 8.74464C17.2288 8.63374 17.3847 8.53244 17.5619 8.45515C17.9539 8.28393 18.349 8.12018 18.7442 7.95638L18.7478 7.95489C18.8857 7.89777 19.2376 7.71946 19.5053 7.71946C19.8223 8.33806 20.5904 8.77447 21.4876 8.77447C22.3191 8.77447 23.0397 8.39962 23.3931 7.85228C23.412 7.83465 23.431 7.81674 23.4501 7.7985C23.4428 7.79768 23.4354 7.79674 23.428 7.79559C23.4559 7.74802 23.4811 7.69926 23.5035 7.64941C23.7376 7.71946 23.8569 7.8214 24.0601 7.90419Z" fill="#FF9800"/>
<path fill-rule="evenodd" clip-rule="evenodd" d="M17.9326 7.59745C17.947 7.59049 17.9581 7.58496 17.9672 7.58044C17.9838 7.5722 17.9936 7.56734 18.0038 7.5634C18.5583 7.35382 18.8814 6.95825 19.0285 6.42297H18.7473C18.6901 6.42384 18.6072 6.33696 18.5779 6.2719C18.2706 5.58904 18.1981 4.87082 18.2876 4.13382C18.3954 3.244 18.6757 2.42536 19.2429 1.73508C19.366 1.55519 19.518 1.40238 19.693 1.27096C20.0301 0.979303 20.4174 0.770167 20.8806 0.736984C20.9837 0.729998 21.0876 0.724759 21.1915 0.721703C21.1963 0.720394 21.2015 0.719085 21.2068 0.717776L21.6958 0.717773C21.7115 0.720393 21.7276 0.723013 21.7438 0.725632C21.935 0.734365 22.1258 0.751392 22.314 0.777152C22.6803 0.827799 22.972 1.03606 23.2331 1.28318C23.3872 1.405 23.5269 1.54821 23.6505 1.71674C23.6666 1.73901 23.6823 1.76127 23.6972 1.78398C24.2334 2.45898 24.5027 3.25448 24.6106 4.11766C24.7014 4.8468 24.6276 5.5563 24.3429 6.24003C24.2871 6.37494 24.2181 6.44262 24.06 6.43432H23.8902C23.9299 6.59456 23.9897 6.75043 24.0766 6.89975C24.2657 7.22502 24.5525 7.4311 24.9014 7.55772C24.9174 7.56366 24.933 7.57017 24.952 7.57812C24.9567 7.58011 24.9616 7.58218 24.9669 7.58435C24.2165 7.86838 23.0626 7.90222 22.4703 7.41277C22.4145 7.44329 22.3593 7.47415 22.3041 7.50491C22.1811 7.5736 22.0589 7.64183 21.9337 7.70486C21.6106 7.86771 21.2836 7.8651 20.9631 7.69918C20.8247 7.62757 20.6897 7.54969 20.5511 7.46973C20.4894 7.43415 20.427 7.39815 20.3632 7.36212C19.693 7.98829 18.6344 7.81578 17.9326 7.59745ZM22.1699 7.17831C22.9619 6.6142 23.4924 5.75408 23.6684 4.7979C23.709 4.57567 23.7422 4.37526 23.7413 4.31064C23.7422 4.25563 23.7409 4.20062 23.7378 4.14473C23.7247 3.91027 23.6679 3.7055 23.5763 3.52387L23.5164 3.4169C23.3588 3.15974 23.1265 2.95191 22.8458 2.77421C22.9032 2.86956 22.9758 2.95762 23.0484 3.04551C23.2277 3.26268 23.406 3.4788 23.3501 3.80112C23.2852 3.72918 23.2221 3.65553 23.1591 3.58195C23.0159 3.41486 22.8731 3.24818 22.7109 3.10298C22.4954 2.90941 22.2495 2.74689 22.0058 2.5858C21.9879 2.57394 21.97 2.56209 21.9521 2.55023C21.8512 2.48386 21.7534 2.41532 21.6587 2.34415C21.5202 2.39611 21.3762 2.43846 21.2264 2.47251C20.7763 2.57468 20.3178 2.60524 19.8581 2.58516H19.8555C19.7223 2.57992 19.6057 2.67248 19.5712 2.80084C19.5214 2.98597 19.4826 3.18332 19.4594 3.39333C19.4594 3.39333 18.9054 6.223 20.8012 7.22197C21.2705 7.46953 21.6477 7.53502 22.0922 7.23245C22.1184 7.21454 22.1442 7.19664 22.1699 7.17831Z" fill="#FF9800"/>
</svg>
