<svg width="27" height="28" viewBox="0 0 27 28" fill="none" xmlns="http://www.w3.org/2000/svg">
<path fill-rule="evenodd" clip-rule="evenodd" d="M22.2649 13.0863C22.4911 12.0403 23.4241 11.2486 24.555 11.2486C25.8555 11.2486 26.9016 12.2947 26.9864 13.567C26.9864 14.8675 25.9403 15.9136 24.6398 15.9136C23.5089 15.9136 22.5759 15.1219 22.3497 14.0759H18.9288C18.8157 15.2068 18.3633 16.2246 17.6848 17.0445L18.9853 18.345C19.4094 18.0623 19.89 17.9209 20.3989 17.9209C21.0775 17.9209 21.6995 18.1753 22.1801 18.656C23.1696 19.6455 23.1696 21.257 22.1801 22.2465C21.6995 22.7272 21.0492 22.9816 20.3989 22.9816C19.7487 22.9816 19.0984 22.7272 18.6178 22.2465C17.7414 21.3984 17.6565 20.0413 18.3068 19.0518L16.978 17.723C16.1581 18.4015 15.1403 18.8539 14.0094 18.9387V22.4727C15.0555 22.6989 15.8471 23.6319 15.8471 24.7628C15.8471 26.0633 14.801 27.1094 13.5005 27.1094C12.2 27.1094 11.1539 26.0633 11.1539 24.7628C11.1539 23.6319 11.9455 22.6989 12.9916 22.4727V19.0235C11.8607 18.9104 10.8429 18.4581 10.023 17.7795L8.69423 19.1083C8.97695 19.5324 9.11831 20.013 9.11831 20.5219C9.11831 21.2005 8.86386 21.8225 8.38324 22.3031C7.90261 22.7837 7.25235 23.0382 6.60208 23.0382C5.95182 23.0382 5.30156 22.7837 4.82093 22.3031C3.8314 21.3136 3.8314 19.702 4.82093 18.7125C5.30156 18.2319 5.92355 17.9774 6.60208 17.9774C7.11098 17.9774 7.59161 18.1188 8.0157 18.4015L9.34449 17.0727C8.66596 16.2528 8.2136 15.2068 8.12879 14.1041H4.6513C4.42512 15.1502 3.49214 15.9418 2.36125 15.9418C1.06072 15.9418 0.0146484 14.8958 0.0146484 13.5952C0.0146484 12.2947 1.06072 11.2486 2.36125 11.2486C3.49214 11.2486 4.42512 12.0403 4.6513 13.0863H8.10051C8.18533 11.9837 8.63768 10.9659 9.31622 10.146L7.95915 8.78896C7.53507 9.07168 7.02617 9.21304 6.54554 9.21304C5.89528 9.21304 5.24502 8.95859 4.76439 8.47796C3.77486 7.48843 3.77486 5.87691 4.76439 4.88739C5.24502 4.40676 5.867 4.15231 6.54554 4.15231C7.22407 4.15231 7.84606 4.40676 8.32669 4.88739C9.20313 5.73555 9.28795 7.09262 8.63769 8.08215L9.99475 9.43922C10.8146 8.76068 11.8324 8.3366 12.9351 8.22351V4.74602C11.889 4.51985 11.0974 3.58686 11.0974 2.45597C11.0974 1.15545 12.1434 0.109375 13.444 0.109375C14.7445 0.109375 15.7906 1.15545 15.7906 2.45597C15.7906 3.58686 14.9989 4.51985 13.9529 4.74602V8.19524C15.0838 8.28006 16.1016 8.73241 16.9215 9.41094L18.2503 8.08215C17.6 7.12089 17.6848 5.76382 18.5612 4.88739C19.0419 4.40676 19.6639 4.15231 20.3424 4.15231C21.0209 4.15231 21.6429 4.40676 22.1236 4.88739C23.1131 5.87691 23.1131 7.48843 22.1236 8.47796C21.6429 8.95859 20.9927 9.21304 20.3424 9.21304C19.8618 9.21304 19.3529 9.07168 18.9288 8.78896L17.6 10.1178C18.2785 10.9376 18.7309 11.9554 18.844 13.0863H22.2649ZM20.3424 5.14184C19.9183 5.14184 19.5225 5.31147 19.2398 5.59419C18.6461 6.18791 18.6461 7.17744 19.2398 7.79943C19.8335 8.42142 20.823 8.42142 21.445 7.79943C22.067 7.20571 22.067 6.21618 21.445 5.59419C21.1623 5.31147 20.7665 5.14184 20.3424 5.14184ZM5.49947 5.59419C4.87748 6.18791 4.87748 7.17744 5.49947 7.79943C6.09318 8.39314 7.08271 8.39314 7.7047 7.79943C8.32669 7.20571 8.32669 6.21618 7.7047 5.59419C7.42198 5.31147 7.02617 5.14184 6.60208 5.14184C6.178 5.14184 5.78219 5.31147 5.49947 5.59419ZM5.49947 21.5397C6.09318 22.1617 7.08271 22.1617 7.7047 21.5397C7.98742 21.257 8.15706 20.8612 8.15706 20.4371C8.15706 20.013 7.98742 19.6172 7.7047 19.3345C7.42198 19.0518 7.02617 18.8821 6.60208 18.8821C6.178 18.8821 5.78219 19.0518 5.49947 19.3345C4.87748 19.9282 4.87748 20.9177 5.49947 21.5397ZM21.445 21.5397C22.067 20.946 22.067 19.9565 21.445 19.3345C21.1623 19.0518 20.7665 18.8821 20.3424 18.8821C19.9183 18.8821 19.5225 19.0518 19.2398 19.3345C18.6178 19.9282 18.6178 20.9177 19.2398 21.5397C19.8335 22.1617 20.823 22.1617 21.445 21.5397ZM16.045 15.5743L16.356 16.9031C17.289 16.0832 17.8827 14.8958 17.8262 13.5952C17.8262 11.1921 15.8471 9.21304 13.444 9.21304C11.0408 9.21304 9.06177 11.1638 9.06177 13.5952C9.06177 14.924 9.65549 16.1115 10.5885 16.9031L10.8995 15.5743C11.0691 14.8392 11.6345 14.302 12.3979 14.3303C12.4544 14.3303 12.511 14.3869 12.5393 14.4434L13.1047 16.0832L13.3026 15.0937C13.2178 15.0937 13.133 15.0089 13.133 14.924V14.6979C13.133 14.613 13.1895 14.5282 13.3026 14.5282H13.6419C13.7267 14.5282 13.8115 14.5848 13.8115 14.6979V14.924C13.8115 15.0089 13.7267 15.0937 13.6419 15.0937L13.8398 16.0832L14.4052 14.4434C14.4052 14.3869 14.49 14.3303 14.5466 14.3303C15.3099 14.302 15.8754 14.8392 16.045 15.5743ZM15.0796 12.5533C15.0796 13.4246 14.3733 14.1309 13.502 14.1309C12.6307 14.1309 11.9244 13.4246 11.9244 12.5533C11.9244 11.682 12.6307 10.9757 13.502 10.9757C14.3733 10.9757 15.0796 11.682 15.0796 12.5533Z" fill="#AB47BC"/>
</svg>
