<svg width="71" height="46" viewBox="0 0 71 46" fill="none" xmlns="http://www.w3.org/2000/svg">
<path d="M0.246094 0.0546875V19.8997H20.0911V0.0546875H0.246094ZM14.0836 14.0497C13.7236 14.5447 13.2061 14.9272 12.6436 15.1522C11.9236 15.4222 11.1586 15.5572 10.3936 15.5347H5.91609V4.39719H10.1011C11.3386 4.39719 12.2836 4.64469 12.9586 5.13969C13.6336 5.63469 13.9711 6.35469 13.9711 7.27719C13.9936 7.77219 13.8586 8.24469 13.6111 8.64969C13.3411 9.05469 12.9811 9.36969 12.5311 9.57219C13.1386 9.75219 13.6561 10.1122 14.0386 10.6072C14.3986 11.1022 14.5786 11.7097 14.5561 12.3397C14.6011 12.9472 14.4211 13.5547 14.0836 14.0497ZM11.2486 8.60469C11.5636 8.33469 11.7436 7.95219 11.7211 7.52469C11.7211 6.64719 11.1136 6.19719 9.92109 6.19719H8.21109V8.96469H9.92109C10.4836 8.98719 10.9336 8.85219 11.2486 8.60469ZM10.1911 10.7422H8.18859V13.7572H10.1686C10.8436 13.7572 11.3611 13.6222 11.7211 13.3747C12.0811 13.1272 12.2836 12.7222 12.2611 12.2722C12.2611 11.2372 11.5636 10.7197 10.1911 10.7422ZM25.0411 0.0546875V19.8997H44.8861V0.0546875H25.0411ZM38.8786 14.0497C38.5186 14.5447 38.0011 14.9272 37.4386 15.1522C36.7186 15.4222 35.9536 15.5572 35.1661 15.5347H30.7111V4.39719H34.8961C36.1336 4.39719 37.0786 4.64469 37.7761 5.13969C38.4511 5.63469 38.7886 6.35469 38.7886 7.27719C38.8111 7.77219 38.6761 8.24469 38.4286 8.64969C38.1586 9.05469 37.7986 9.36969 37.3486 9.57219C37.9561 9.75219 38.4736 10.1122 38.8561 10.6072C39.2161 11.1022 39.3961 11.7097 39.3736 12.3397C39.3961 12.9472 39.2161 13.5547 38.8786 14.0497ZM36.0436 8.60469C36.3586 8.33469 36.5386 7.95219 36.5161 7.52469C36.5161 6.64719 35.9086 6.19719 34.7161 6.19719H33.0061V8.96469H34.7161C35.2786 8.98719 35.7286 8.85219 36.0436 8.60469ZM34.9861 10.7422H32.9836V13.7572H34.9636C35.6386 13.7572 36.1561 13.6222 36.5161 13.3747C36.8761 13.1272 37.0786 12.7222 37.0561 12.2722C37.0561 11.2372 36.3811 10.7197 34.9861 10.7422ZM49.8361 19.8997H69.6811V0.0546875H49.8361V19.8997ZM64.0786 14.8372C63.5836 15.1072 63.0211 15.3097 62.4811 15.4447C61.8511 15.6022 61.1986 15.6697 60.5686 15.6697C59.7586 15.6922 58.9261 15.5572 58.1611 15.2872C57.4861 15.0397 56.8561 14.6572 56.3386 14.1622C55.8436 13.6447 55.4386 13.0372 55.2136 12.3622C54.9436 11.5972 54.8086 10.7872 54.8086 9.97719C54.7861 9.16719 54.9436 8.37969 55.2136 7.63719C55.4836 6.96219 55.8661 6.35469 56.3836 5.83719C56.9236 5.31969 57.5536 4.93719 58.2286 4.68969C58.9936 4.41969 59.8261 4.28469 60.6361 4.28469C61.2211 4.28469 61.8061 4.35219 62.3911 4.46469C62.9311 4.57719 63.4486 4.77969 63.9211 5.02719V7.20969C63.4936 6.91719 63.0211 6.71469 62.5261 6.55719C62.0086 6.39969 61.4686 6.33219 60.9286 6.33219C60.2536 6.30969 59.5786 6.46719 58.9711 6.75969C58.4311 7.02969 58.0036 7.47969 57.7336 7.99719C57.4186 8.60469 57.2836 9.27969 57.3061 9.97719C57.2836 10.6522 57.4186 11.3497 57.7336 11.9572C58.0036 12.4972 58.4311 12.9247 58.9486 13.1947C59.5561 13.4872 60.2086 13.6447 60.8836 13.6222C62.0086 13.6222 63.1111 13.3072 64.0786 12.7222V14.8372Z" fill="black"/>
<path d="M22.4762 41.5892H31.1387V44.6942H18.7412V27.3242H30.6887V30.4292H22.4762V34.2092H29.7662V37.3142H22.4762V41.5892Z" fill="#EB0000"/>
<path d="M52.2883 27.3242H56.2933C55.6183 30.2492 54.8983 33.1742 54.1333 36.0992C53.3683 38.9792 52.5808 41.8367 51.7483 44.6942H47.7883C46.6858 40.8017 45.6508 36.8642 44.6383 32.9492C43.6708 36.8867 42.6358 40.8017 41.5333 44.6942H37.5733C36.7408 41.8367 35.9533 38.9792 35.1883 36.0992C34.4233 33.1967 33.7033 30.2717 33.0283 27.3242H37.1008C37.5058 29.5742 37.9333 31.8242 38.3833 34.0742C38.8333 36.3242 39.3058 38.5292 39.8233 40.7117C40.9033 36.5042 41.9383 32.2967 42.9058 28.0667H46.5508C47.5183 32.2067 48.5308 36.3242 49.6108 40.4417C50.1058 38.2817 50.5783 36.0992 51.0283 33.9392C51.4783 31.7342 51.8833 29.5292 52.2883 27.3242Z" fill="#EB0000"/>
<path d="M70.5364 39.5864C70.5364 40.7339 70.2439 41.7239 69.6814 42.5339C69.1189 43.3439 68.2864 43.9739 67.2289 44.4014C66.1489 44.8289 64.8664 45.0539 63.3589 45.0539C62.4139 45.0539 61.4464 44.9414 60.5239 44.7389C59.5789 44.5364 58.6789 44.1989 57.8464 43.7489V40.3964C59.5114 41.4314 61.4014 41.9714 63.3589 41.9714C64.4614 41.9714 65.2939 41.7914 65.8789 41.4089C66.4189 41.0939 66.7564 40.4864 66.7339 39.8564C66.7339 39.3614 66.5989 38.9564 66.3064 38.6864C65.9914 38.3714 65.6089 38.1464 65.1814 38.0114C64.6639 37.8314 64.1464 37.6739 63.6064 37.5389C62.7514 37.3364 61.8964 37.0889 61.0864 36.7514C60.4339 36.5039 59.8039 36.1439 59.2414 35.7164C58.7464 35.3339 58.3639 34.8389 58.0939 34.2764C57.8239 33.6464 57.6889 32.9489 57.7114 32.2739C57.7114 31.1714 57.9814 30.2264 58.5439 29.4389C59.1514 28.6064 59.9614 27.9764 60.9064 27.6164C61.9189 27.1889 63.1339 26.9639 64.5514 26.9639C65.4739 26.9639 66.3739 27.0764 67.2739 27.2789C68.1064 27.4589 68.9164 27.7514 69.6814 28.1339V31.4414C68.9389 30.9914 68.1064 30.6539 67.2739 30.4289C66.3964 30.1814 65.4739 30.0689 64.5739 30.0689C63.5839 30.0689 62.8189 30.2489 62.2789 30.5864C61.7614 30.8789 61.4464 31.4414 61.4689 32.0489C61.4464 32.4539 61.5814 32.8364 61.8514 33.1289C62.1664 33.4214 62.5489 33.6464 62.9539 33.7814C63.4264 33.9614 63.9889 34.1189 64.6414 34.2764C65.4739 34.4789 66.2389 34.7264 66.9364 34.9739C67.6114 35.1989 68.2414 35.5364 68.8264 35.9414C69.3664 36.3239 69.7939 36.8414 70.0864 37.4264C70.3789 37.9889 70.5364 38.7089 70.5364 39.5864Z" fill="#EB0000"/>
<path d="M15.2986 27.3242V44.6942H11.5186C10.2586 42.6692 8.97609 40.6442 7.69359 38.6192C6.43359 36.6392 5.15109 34.6592 3.86859 32.7017V44.6942H0.246094V27.3242H4.02609C5.33109 29.2817 6.61359 31.2392 7.89609 33.2192C9.17859 35.1992 10.4386 37.2017 11.6986 39.2042V27.3242H15.2986Z" fill="#EB0000"/>
</svg>
