<svg width="60" height="50" viewBox="0 0 60 50" fill="none" xmlns="http://www.w3.org/2000/svg">
<path d="M59.9105 0.478516H0.867188V41.3977H59.9105V0.478516Z" fill="#1A428A"/>
<path d="M59.9102 41.4062H0.866211V49.7225H59.9102V41.4062Z" fill="#B12028"/>
<path d="M33.6804 14.3652C28.1324 14.3652 23.4305 17.9869 21.8102 22.9949V15.009H13.6875V20.236H15.7639V38.8666H21.8102V30.6886C23.432 35.695 28.1324 39.3167 33.6804 39.3167C40.5698 39.3167 46.157 33.7325 46.157 26.8417C46.157 19.9508 40.5698 14.3652 33.6804 14.3652ZM33.616 20.8584C36.9197 20.8584 39.5976 23.5366 39.5976 26.8402C39.5976 30.1439 36.9197 32.8217 33.616 32.8217C30.3153 32.8217 27.6356 30.1438 27.6356 26.8402C27.6356 23.5366 30.3153 20.8584 33.616 20.8584Z" fill="white"/>
<path d="M24.9334 6.86284H21.8189V8.08705H24.3574V10.6481H21.7978L21.8038 13.6802H19.1963V4.29883H24.7625L24.9334 6.86284Z" fill="white"/>
<path d="M29.7999 4.43958C27.2029 4.43958 25.0977 6.48151 25.0977 9.00201C25.0977 11.521 27.2043 13.5644 29.7999 13.563C32.3954 13.563 34.5018 11.5195 34.5018 9.00201C34.5018 6.48151 32.3969 4.43958 29.7999 4.43958ZM29.8133 6.31641C30.253 6.31641 30.6385 6.69908 30.6385 7.12518L30.6354 10.8745C30.6354 11.302 30.2545 11.6381 29.8134 11.6381C29.3723 11.6381 29.0152 11.2916 29.0152 10.8625L29.0167 7.12528C29.0166 6.69909 29.3723 6.31641 29.8133 6.31641Z" fill="white"/>
<path d="M38.962 8.79944L41.4915 4.31348H38.7054L37.5502 6.3344L36.4144 4.31348H33.5294L36.1099 8.8309L33.3779 13.6679L36.1789 13.6724L37.5142 11.3004L38.8674 13.6679H41.7465L38.962 8.79944Z" fill="white"/>
<path d="M12.4785 43.2959V47.8343H13.9818V45.74L15.6666 47.8343H17.0154V43.2959H15.5121V45.2987L13.8978 43.2959H12.4785Z" fill="white"/>
<path d="M23.3301 43.2959V47.8343H27.2323V46.5893H24.8212V46.097H27.0388V45.002H24.8212V44.5413H27.201V43.2959H23.3301Z" fill="white"/>
<path d="M36.1407 43.2842L35.4084 45.4746L34.7665 43.2961H33.1777L34.6661 47.8662H35.988L36.7844 45.6096L37.5812 47.8662H38.9031L40.3866 43.2961H38.8251L38.1828 45.4746L37.4508 43.2842H36.1407Z" fill="white"/>
<path d="M48.1065 43.2079C46.8553 43.2079 46.1817 43.8758 46.1817 44.7385V44.7519C46.1817 45.7107 47.0774 46.0029 48.0945 46.21C48.5807 46.3076 48.723 46.3797 48.723 46.5086V46.522C48.723 46.645 48.606 46.7172 48.3345 46.7172C47.802 46.7172 47.2379 46.5625 46.7458 46.186L45.9355 47.1524C46.5131 47.6579 47.3427 47.9175 48.2625 47.916C49.4807 47.916 50.2657 47.3323 50.2657 46.3797V46.3662C50.2657 45.4511 49.487 45.115 48.3272 44.9004C47.8471 44.8105 47.724 44.7321 47.724 44.6092V44.5957C47.724 44.4862 47.8277 44.4082 48.0542 44.4082C48.4743 44.4082 48.9874 44.5448 49.4151 44.8553L50.1546 43.8306C49.6294 43.4151 48.9811 43.2079 48.1065 43.2079Z" fill="white"/>
</svg>
