<svg width="25" height="28" viewBox="0 0 25 28" fill="none" xmlns="http://www.w3.org/2000/svg">
<path d="M24.5624 13.7081C24.5624 15.4731 24.5657 17.2381 24.5614 19.0037C24.5587 20.0784 24.0931 20.9139 23.1705 21.4515C20.098 23.2423 17.0169 25.0181 13.9336 26.7901C12.967 27.3455 11.9847 27.3207 11.0202 26.7643C8.78534 25.4756 6.55205 24.1842 4.31769 22.8939C3.53437 22.4413 2.75052 21.9891 1.96613 21.5381C0.94518 20.952 0.432825 20.0827 0.43605 18.8946C0.44519 15.3914 0.439276 11.8877 0.439276 8.38456C0.439276 7.25125 0.952169 6.41148 1.92097 5.8502C4.89725 4.12604 7.88321 2.41801 10.853 0.682566C11.9686 0.0304285 13.0358 0.032579 14.1503 0.683103C17.0975 2.40457 20.0561 4.10508 23.0146 5.80719C24.0452 6.40019 24.5727 7.26738 24.5651 8.46681C24.5549 10.2141 24.5624 11.9614 24.5619 13.7086L24.5624 13.7081ZM19.8314 9.00068C19.9453 8.97326 20.0195 9.05175 20.1018 9.09799C20.4061 9.26949 20.7023 9.45658 21.0125 9.61679C21.4082 9.82163 21.8367 9.60711 21.9216 9.17755C21.9732 8.91681 21.8335 8.67541 21.5125 8.48993C19.4496 7.29748 17.3862 6.10665 15.3228 4.91527C14.5083 4.44485 13.6965 3.9696 12.8783 3.5067C12.3729 3.22069 11.917 3.47928 11.8778 4.05992C11.874 4.11368 11.8751 4.16744 11.8751 4.2212C11.8751 10.5195 11.8751 16.8183 11.8751 23.1165C11.8751 23.2601 11.8783 23.4025 11.9218 23.5418C12.003 23.8004 12.2401 23.981 12.5025 23.9816C12.7643 23.9816 12.9987 23.8009 13.0815 23.5402C13.1288 23.3918 13.1277 23.2402 13.1277 23.088C13.1277 20.3015 13.1272 17.515 13.1293 14.7291C13.1293 14.5989 13.0949 14.4602 13.2019 14.3081C13.2982 14.3081 13.4127 14.3081 13.5272 14.3081C14.217 14.3081 14.9067 14.3102 15.597 14.3065C15.9013 14.3049 16.1701 14.2237 16.2927 13.9065C16.4642 13.4619 16.1637 13.0689 15.6282 13.0603C14.9207 13.0484 14.2127 13.0581 13.5051 13.0549C13.3917 13.0549 13.2718 13.0812 13.1573 13.0038V5.08516C14.9815 6.13891 16.761 7.16684 18.5427 8.19585C18.5427 8.3523 18.5427 8.47703 18.5427 8.60176C18.5427 11.9974 18.5427 15.393 18.5432 18.7886C18.5432 18.9225 18.54 19.0564 18.576 19.1886C18.6572 19.4849 18.89 19.6757 19.176 19.6714C19.4566 19.6671 19.6765 19.4859 19.7582 19.201C19.7986 19.0601 19.7948 18.9177 19.7948 18.7747C19.7948 15.6301 19.7948 12.485 19.7969 9.34045C19.7969 9.22755 19.7668 9.10874 19.833 9.00121L19.8314 9.00068ZM8.16492 17.0322C8.09987 16.8951 8.05256 16.8 8.01009 16.7032C7.31656 15.1296 6.62356 13.556 5.93056 11.9818C5.52304 11.0555 5.11768 10.1281 4.70747 9.20282C4.56554 8.8824 4.31285 8.72487 4.04135 8.77165C3.7048 8.83025 3.51771 9.05444 3.49083 9.43346C3.48706 9.48722 3.48868 9.54099 3.48868 9.59475C3.48868 12.3183 3.48868 15.0425 3.48868 17.7661C3.48868 17.901 3.49513 18.0344 3.53652 18.1645C3.63921 18.486 3.95318 18.6553 4.28006 18.5645C4.59457 18.4768 4.73973 18.244 4.74026 17.8059C4.74188 16.1484 4.74026 14.4909 4.74295 12.8329C4.74295 12.7318 4.70854 12.6221 4.78435 12.52C4.88596 12.6006 4.90908 12.7183 4.9537 12.8205C5.89723 14.9592 6.83753 17.0994 7.77945 19.2392C7.9488 19.6247 8.11278 20.0123 8.29288 20.3929C8.41223 20.6451 8.63051 20.7617 8.90685 20.7375C9.18748 20.7128 9.3735 20.5365 9.43909 20.2472C9.46275 20.1435 9.47081 20.0349 9.47081 19.9279C9.47243 15.7613 9.47189 11.5952 9.47243 7.42866C9.47243 7.30232 9.4649 7.17867 9.42727 7.05717C9.32512 6.72223 9.002 6.54857 8.66599 6.65019C8.35148 6.74481 8.2203 6.97706 8.21976 7.44694C8.21922 10.52 8.21976 13.5936 8.21815 16.6666C8.21815 16.7715 8.24234 16.8806 8.16546 17.0317L8.16492 17.0322Z" fill="#03A9F4"/>
</svg>
