<svg width="27" height="26" viewBox="0 0 27 26" fill="none" xmlns="http://www.w3.org/2000/svg">
<path d="M8.82313 16.136C8.76713 16.08 8.68909 16.046 8.60463 16.046C8.5188 16.046 8.44214 16.08 8.38614 16.136C8.33151 16.1906 8.29754 16.265 8.29525 16.3467V16.3481V16.3559C8.29525 16.4403 8.32922 16.5184 8.38614 16.5744C8.44076 16.6304 8.5188 16.6643 8.60463 16.6643C8.68909 16.6643 8.76713 16.6304 8.82313 16.5744C8.87913 16.5184 8.9131 16.4403 8.9131 16.3559V16.3467C8.91172 16.2645 8.87638 16.1906 8.82313 16.136ZM9.44878 16.6276C9.40472 16.763 9.32898 16.8838 9.23166 16.9829C9.07008 17.1431 8.84929 17.2418 8.60463 17.2418C8.3586 17.2418 8.13734 17.1431 7.97623 16.9829C7.87845 16.8842 7.80317 16.763 7.76003 16.6276H7.26703L5.79172 19.8064H8.60463H11.4166L9.94223 16.6276H9.44878ZM8.60463 15.4681C8.84929 15.4681 9.07054 15.5668 9.23166 15.727C9.32163 15.8179 9.39324 15.9276 9.43731 16.0497H9.87981C9.93948 15.744 10.0423 15.4369 10.1883 15.1312C10.3159 14.8617 10.4756 14.5937 10.6684 14.327C10.2613 14.176 9.95004 13.9483 9.72374 13.6426C9.59613 13.4709 9.49882 13.2781 9.42858 13.0624C9.39324 13.5062 9.26747 13.9432 8.79237 14.3325C8.68818 14.4225 8.53348 14.4275 8.42286 14.3375C7.94272 13.9474 7.81511 13.5085 7.78022 13.0624C7.70999 13.2786 7.61222 13.4709 7.48507 13.6426C7.26015 13.9483 6.94893 14.176 6.54177 14.327C6.73456 14.5937 6.8943 14.8617 7.02191 15.1312C7.16651 15.4369 7.26933 15.744 7.33038 16.0497H7.7715C7.81694 15.9276 7.88718 15.8179 7.97714 15.727C8.13734 15.5673 8.3586 15.4681 8.60463 15.4681ZM21.5395 14.2985H16.1317V22.9851H21.5395V14.2985ZM15.843 13.7211H21.8283C21.9885 13.7211 22.117 13.8501 22.117 14.0098V22.9851H23.7419V9.70413H3.25928V22.9851H15.5543V14.0098C15.5538 13.8496 15.6842 13.7211 15.843 13.7211ZM20.19 17.6283H17.4822V18.063H20.19V17.6283ZM19.4574 17.0504L18.8354 16.1943L18.2134 17.0504H19.4574ZM17.5006 17.0504L18.6027 15.5347C18.6963 15.4057 18.8758 15.3772 19.0048 15.4695C19.0323 15.4892 19.0544 15.5126 19.0723 15.5384L20.1702 17.0504H20.4787C20.6389 17.0504 20.7674 17.1794 20.7674 17.3391V18.3513C20.7674 18.5115 20.6385 18.64 20.4787 18.64H17.1921C17.0333 18.64 16.9034 18.511 16.9034 18.3513V17.3391C16.9034 17.1789 17.0333 17.0504 17.1921 17.0504H17.5006ZM22.2097 12.8714H15.462C15.3018 12.8714 15.1733 12.7424 15.1733 12.5827V11.5118C15.1733 11.353 15.3023 11.223 15.462 11.223H22.2097C22.3699 11.223 22.4984 11.353 22.4984 11.5118V12.5827C22.4984 12.7424 22.3694 12.8714 22.2097 12.8714ZM15.7507 12.2935H21.921V11.8005H15.7507V12.2935ZM12.9282 10.9687H4.27923V21.9716H6.68912H8.31545V20.3843H5.33866C5.17984 20.3843 5.04994 20.2553 5.04994 20.0956C5.04994 20.0446 5.06279 19.9978 5.0862 19.9565L6.78551 16.2948C6.74007 15.9905 6.64505 15.6848 6.49908 15.3777C6.3375 15.0394 6.11534 14.697 5.83028 14.3509C5.72884 14.2287 5.74582 14.0465 5.86792 13.9451C5.90832 13.9125 5.95376 13.8918 6.00058 13.884C6.47705 13.7812 6.80984 13.5861 7.02191 13.2997C7.23903 13.0054 7.34185 12.601 7.34874 12.0869C7.35149 11.9373 7.46717 11.8152 7.61406 11.8033C7.79767 11.789 8.01892 11.7785 8.01983 11.7785C8.17223 11.772 8.30213 11.885 8.31912 12.0346C8.33978 12.2113 8.34115 12.3977 8.34115 12.585C8.34391 12.9779 8.34528 13.3773 8.60417 13.7078C8.86306 13.3773 8.86444 12.9779 8.86582 12.585C8.86582 12.3977 8.8672 12.2113 8.88785 12.0346C8.90621 11.8772 9.0453 11.7638 9.20137 11.7794C9.25324 11.7821 9.43685 11.7899 9.59292 11.8028C9.75036 11.8143 9.86741 11.9511 9.85823 12.1071C9.86741 12.6107 9.97023 13.0087 10.186 13.2992C10.398 13.588 10.735 13.7821 11.2151 13.8849C11.3698 13.9175 11.4703 14.0708 11.4377 14.2274C11.4272 14.2742 11.4065 14.3173 11.3781 14.3509C11.0916 14.697 10.8695 15.0394 10.7079 15.3777C10.5624 15.6848 10.4674 15.9905 10.4215 16.2948L12.13 19.9744C12.1965 20.119 12.1341 20.2906 11.9895 20.3567C11.9505 20.3751 11.9087 20.3843 11.8683 20.3843H8.89244V21.9716H10.5174H12.9273V10.9687H12.9282ZM3.99051 10.3913H13.2169C13.3771 10.3913 13.507 10.5203 13.507 10.68V22.2617C13.507 22.4205 13.3771 22.5504 13.2169 22.5504H10.5183H8.69782C8.66798 22.5596 8.63676 22.566 8.60417 22.566C8.57021 22.566 8.53899 22.5596 8.50916 22.5504H6.68866H3.99051C3.83031 22.5504 3.70178 22.4205 3.70178 22.2617V10.68C3.70178 10.5198 3.83031 10.3913 3.99051 10.3913Z" fill="#255AA8"/>
<path d="M25.6037 24.6006V9.10361C25.3012 9.19174 24.9878 9.23718 24.6727 9.23861V23.6696C24.6727 23.793 24.6237 23.9114 24.5364 23.9987C24.4491 24.086 24.3307 24.1351 24.2072 24.1351H2.79352C2.67005 24.1351 2.55165 24.086 2.46435 23.9987C2.37705 23.9114 2.328 23.793 2.328 23.6696V9.23861C2.01289 9.23718 1.69951 9.19174 1.39697 9.10361V24.6006C1.39697 24.7241 1.44602 24.8425 1.53332 24.9298C1.62062 25.0171 1.73903 25.0661 1.86249 25.0661H25.1382C25.2617 25.0661 25.3801 25.0171 25.4674 24.9298C25.5547 24.8425 25.6037 24.7241 25.6037 24.6006Z" fill="#255AA8"/>
<path d="M0.000488281 5.98021C0.000488281 6.59752 0.245714 7.18955 0.682219 7.62605C1.11872 8.06256 1.71075 8.30778 2.32806 8.30778C2.94537 8.30778 3.5374 8.06256 3.97391 7.62605C4.41041 7.18955 4.65564 6.59752 4.65564 5.98021V5.51469H0.000488281V5.98021Z" fill="#255AA8"/>
<path d="M27.0004 5.98021V5.51469H22.3452V5.98021C22.3452 6.59752 22.5904 7.18955 23.0269 7.62605C23.4635 8.06256 24.0555 8.30778 24.6728 8.30778C25.2901 8.30778 25.8821 8.06256 26.3186 7.62605C26.7551 7.18955 27.0004 6.59752 27.0004 5.98021Z" fill="#255AA8"/>
<path d="M24.4074 0.859375H2.59336L0.358887 4.58349H26.6419L24.4074 0.859375Z" fill="#255AA8"/>
<path d="M19.0869 8.30778C19.7042 8.30778 20.2962 8.06256 20.7327 7.62605C21.1692 7.18955 21.4144 6.59752 21.4144 5.98021V5.51469H16.7593V5.98021C16.7593 6.59752 17.0045 7.18955 17.441 7.62605C17.8775 8.06256 18.4695 8.30778 19.0869 8.30778Z" fill="#255AA8"/>
<path d="M13.5004 8.30778C14.1177 8.30778 14.7098 8.06256 15.1463 7.62605C15.5828 7.18955 15.828 6.59752 15.828 5.98021V5.51469H11.1729V5.98021C11.1729 6.59752 11.4181 7.18955 11.8546 7.62605C12.2911 8.06256 12.8831 8.30778 13.5004 8.30778Z" fill="#255AA8"/>
<path d="M7.91449 8.30778C8.5318 8.30778 9.12383 8.06256 9.56033 7.62605C9.99684 7.18955 10.2421 6.59752 10.2421 5.98021V5.51469H5.58691V5.98021C5.58691 6.59752 5.83214 7.18955 6.26864 7.62605C6.70515 8.06256 7.29718 8.30778 7.91449 8.30778Z" fill="#255AA8"/>
<path d="M23.7414 9.70338H3.25879V9.10285C4.03798 8.866 4.70153 8.34844 5.12085 7.65039C5.40907 8.13432 5.81804 8.53482 6.30765 8.81304C6.79726 9.09126 7.3508 9.23764 7.91394 9.23764C8.47708 9.23764 9.03062 9.09126 9.52022 8.81304C10.0098 8.53482 10.4188 8.13432 10.707 7.65039C10.9952 8.13432 11.4042 8.53482 11.8938 8.81304C12.3834 9.09126 12.937 9.23764 13.5001 9.23764C14.0633 9.23764 14.6168 9.09126 15.1064 8.81304C15.596 8.53482 16.005 8.13432 16.2932 7.65039C16.5814 8.13432 16.9904 8.53482 17.48 8.81304C17.9696 9.09126 18.5232 9.23764 19.0863 9.23764C19.6494 9.23764 20.203 9.09126 20.6926 8.81304C21.1822 8.53482 21.5912 8.13432 21.8794 7.65039C22.2987 8.34844 22.9622 8.866 23.7414 9.10285V9.70338Z" fill="#255AA8"/>
</svg>
