<svg width="25" height="28" viewBox="0 0 25 28" fill="none" xmlns="http://www.w3.org/2000/svg">
<path fill-rule="evenodd" clip-rule="evenodd" d="M17.7284 11.2854C17.7724 11.2854 17.8159 11.2768 17.8565 11.2599C17.8972 11.2431 17.9341 11.2184 17.9651 11.1874C17.9962 11.1563 18.0209 11.1194 18.0377 11.0788C18.0545 11.0382 18.0632 10.9946 18.0632 10.9507C18.0632 10.9067 18.0545 10.8632 18.0377 10.8226C18.0209 10.782 17.9962 10.7451 17.9651 10.714C17.9341 10.6829 17.8972 10.6582 17.8565 10.6414C17.8159 10.6246 17.7724 10.6159 17.7284 10.6159H5.73812C5.64934 10.6159 5.5642 10.6512 5.50142 10.714C5.43864 10.7767 5.40338 10.8619 5.40338 10.9507C5.40338 11.0394 5.43864 11.1246 5.50142 11.1874C5.5642 11.2501 5.64934 11.2854 5.73812 11.2854H17.7284ZM17.7284 8.00796C17.8172 8.00796 17.9024 7.97269 17.9651 7.90991C18.0279 7.84714 18.0632 7.762 18.0632 7.67322C18.0632 7.58444 18.0279 7.49929 17.9651 7.43652C17.9024 7.37374 17.8172 7.33847 17.7284 7.33847H5.73812C5.64934 7.33847 5.5642 7.37374 5.50142 7.43652C5.43864 7.49929 5.40338 7.58444 5.40338 7.67322C5.40338 7.762 5.43864 7.84714 5.50142 7.90991C5.5642 7.97269 5.64934 8.00796 5.73812 8.00796H17.7284ZM7.8026 21.1596H2.55154V19.5021H7.8026V21.1587V21.1596ZM8.13734 18.8326H2.2168C2.12804 18.8327 2.04294 18.868 1.98018 18.9308C1.91742 18.9935 1.88213 19.0786 1.88205 19.1674V21.4934C1.88205 21.5374 1.89071 21.5809 1.90753 21.6215C1.92436 21.6622 1.94901 21.6991 1.9801 21.7301C2.01118 21.7612 2.04808 21.7859 2.0887 21.8027C2.12931 21.8195 2.17284 21.8282 2.2168 21.8282H8.13734C8.1813 21.8282 8.22483 21.8195 8.26544 21.8027C8.30606 21.7859 8.34296 21.7612 8.37404 21.7301C8.40513 21.6991 8.42978 21.6622 8.4466 21.6215C8.46343 21.5809 8.47209 21.5374 8.47209 21.4934V19.1674C8.47209 19.0786 8.43682 18.9935 8.37404 18.9307C8.31127 18.8679 8.22612 18.8326 8.13734 18.8326ZM17.4724 2.21922L17.4625 5.06844C17.4623 5.15725 17.4974 5.2425 17.56 5.30552C17.6226 5.36853 17.7076 5.40417 17.7964 5.40463L20.6473 5.41102V16.6602H8.70754C8.45888 16.6602 8.22037 16.5615 8.04435 16.3859C7.86833 16.2102 7.76917 15.9719 7.76863 15.7233V14.5634H17.7267C17.8155 14.5634 17.9006 14.5282 17.9634 14.4654C18.0262 14.4026 18.0614 14.3175 18.0614 14.2287C18.0614 14.1399 18.0262 14.0548 17.9634 13.992C17.9006 13.9292 17.8155 13.894 17.7267 13.894H7.76863V12.7576C7.76867 12.7137 7.76004 12.6701 7.74323 12.6295C7.72642 12.5889 7.70177 12.5519 7.67068 12.5209C7.63958 12.4898 7.60267 12.4651 7.56204 12.4483C7.52141 12.4315 7.47786 12.4229 7.43389 12.4229H2.81776V2.21922H17.4724ZM18.0339 1.64757C17.9711 1.58492 17.886 1.54973 17.7972 1.54973H4.35444V0.68457H22.182V16.6602H21.3165V5.06844C21.3166 5.02455 21.3079 4.98109 21.2911 4.94054C21.2744 4.89999 21.2497 4.86315 21.2187 4.83212L18.0339 1.64757ZM20.1791 4.74009L18.1398 2.70115L18.1332 4.73544L20.1791 4.74009ZM23.5938 13.0924C23.8424 13.0925 24.0808 13.1913 24.2566 13.3671C24.4325 13.5429 24.5313 13.7812 24.5316 14.0298V16.6602H22.8512V13.0924H23.5938ZM24.5316 17.3311H8.70899C8.28262 17.3309 7.87377 17.1614 7.57225 16.8599C7.27073 16.5585 7.1012 16.1497 7.10089 15.7233V13.0924H1.40796C1.15935 13.0925 0.920965 13.1913 0.745146 13.3671C0.569326 13.5429 0.470446 13.7812 0.470215 14.0298V26.746C0.470138 26.9948 0.568883 27.2334 0.744735 27.4094C0.920588 27.5855 1.15915 27.6844 1.40796 27.6846H23.5938C23.8425 27.6844 24.0809 27.5856 24.2567 27.4097C24.4326 27.2339 24.5314 26.9955 24.5316 26.7468V17.3311Z" fill="#FF9800"/>
</svg>
