<svg width="22" height="19" viewBox="0 0 22 19" fill="none" xmlns="http://www.w3.org/2000/svg">
<path d="M19.6984 2.40245C19.2002 1.92149 18.6086 1.53996 17.9576 1.27966C17.3065 1.01936 16.6087 0.885376 15.9039 0.885376C15.1992 0.885376 14.5013 1.01936 13.8503 1.27966C13.1992 1.53996 12.6077 1.92149 12.1094 2.40245L11.0755 3.40014L10.0415 2.40245C9.03516 1.43141 7.67025 0.885879 6.24704 0.885879C4.82384 0.885879 3.45893 1.43141 2.45258 2.40245C1.44622 3.37349 0.880859 4.69051 0.880859 6.06378C0.880859 7.43704 1.44622 8.75406 2.45258 9.7251L3.48655 10.7228L11.0755 18.0454L18.6644 10.7228L19.6984 9.7251C20.1968 9.24437 20.5922 8.67359 20.862 8.04537C21.1318 7.41715 21.2706 6.74379 21.2706 6.06378C21.2706 5.38376 21.1318 4.71041 20.862 4.08219C20.5922 3.45396 20.1968 2.88318 19.6984 2.40245Z" fill="#FB8308"/>
</svg>
