<svg width="28" height="28" viewBox="0 0 28 28" fill="none" xmlns="http://www.w3.org/2000/svg">
<path d="M14 17.5C15.933 17.5 17.5 15.933 17.5 14C17.5 12.067 15.933 10.5 14 10.5C12.067 10.5 10.5 12.067 10.5 14C10.5 15.933 12.067 17.5 14 17.5Z" stroke="#EF1D26" stroke-width="2" stroke-miterlimit="10" stroke-linecap="round" stroke-linejoin="round"/>
<path d="M2.33337 15.0268V12.9734C2.33337 11.7601 3.32504 10.7568 4.55004 10.7568C6.66171 10.7568 7.52504 9.26342 6.46337 7.43176C5.85671 6.38176 6.21837 5.01676 7.28004 4.41009L9.29837 3.25509C10.22 2.70676 11.41 3.03342 11.9584 3.95509L12.0867 4.17676C13.1367 6.00842 14.8634 6.00842 15.925 4.17676L16.0534 3.95509C16.6017 3.03342 17.7917 2.70676 18.7134 3.25509L20.7317 4.41009C21.7934 5.01676 22.155 6.38176 21.5484 7.43176C20.4867 9.26342 21.35 10.7568 23.4617 10.7568C24.675 10.7568 25.6784 11.7484 25.6784 12.9734V15.0268C25.6784 16.2401 24.6867 17.2434 23.4617 17.2434C21.35 17.2434 20.4867 18.7368 21.5484 20.5684C22.155 21.6301 21.7934 22.9834 20.7317 23.5901L18.7134 24.7451C17.7917 25.2934 16.6017 24.9668 16.0534 24.0451L15.925 23.8234C14.875 21.9918 13.1484 21.9918 12.0867 23.8234L11.9584 24.0451C11.41 24.9668 10.22 25.2934 9.29837 24.7451L7.28004 23.5901C6.21837 22.9834 5.85671 21.6184 6.46337 20.5684C7.52504 18.7368 6.66171 17.2434 4.55004 17.2434C3.32504 17.2434 2.33337 16.2401 2.33337 15.0268Z" stroke="#EF1D26" stroke-width="2" stroke-miterlimit="10" stroke-linecap="round" stroke-linejoin="round"/>
</svg>
