<svg width="16" height="15" viewBox="0 0 16 15" fill="none" xmlns="http://www.w3.org/2000/svg">
<path d="M9.59375 0.588126C9.23438 0.747493 9 1.10685 9 1.50058V3.50049H5.5C2.4625 3.50049 0 5.96288 0 9.00025C0 12.5407 2.54688 14.1219 3.13125 14.4406C3.20937 14.4844 3.29688 14.5 3.38438 14.5C3.725 14.5 4 14.2219 4 13.8844C4 13.65 3.86562 13.4344 3.69375 13.2751C3.4 12.9969 3 12.4501 3 11.5001C3 9.84396 4.34375 8.50027 6 8.50027H9V10.5002C9 10.8939 9.23125 11.2533 9.59375 11.4126C9.95625 11.572 10.375 11.5064 10.6687 11.2439L15.6687 6.7441C15.8781 6.55348 16 6.28474 16 6.00038C16 5.71602 15.8812 5.44728 15.6687 5.25667L10.6687 0.756868C10.375 0.491255 9.95312 0.425633 9.59375 0.588126Z" fill="white"/>
</svg>
