<svg width="21" height="15" viewBox="0 0 21 15" fill="none" xmlns="http://www.w3.org/2000/svg">
<path fill-rule="evenodd" clip-rule="evenodd" d="M8.40426 6.38863C7.53283 5.82435 6.95972 4.84533 6.95972 3.72563C6.95972 1.96531 8.37624 0.552704 10.1414 0.552704C11.8848 0.552704 13.3232 1.96531 13.3232 3.72563C13.3232 4.84356 12.7431 5.82125 11.8731 6.38595C12.5799 6.68298 13.2194 7.15189 13.741 7.73884C14.0931 7.26653 14.5444 6.89162 15.0487 6.64468C14.5421 6.22854 14.2166 5.59925 14.2166 4.90089C14.2166 3.66215 15.2408 2.64072 16.483 2.64072C17.7252 2.64072 18.7494 3.66215 18.7494 4.90089C18.7494 5.60623 18.4173 6.24112 17.902 6.65709C19.0933 7.25261 19.9542 8.54817 19.9701 10.0053C19.9919 11.9613 18.1395 11.9613 16.5051 11.9613C15.9125 11.9613 15.4609 11.9412 15.0887 11.9078C14.744 14.0276 12.4151 14.0276 10.1419 14.0276C7.86931 14.0276 5.54107 14.0276 5.19532 11.9097C4.82712 11.9419 4.38136 11.9613 3.7998 11.9613C2.16536 11.9613 0.312988 11.9613 0.312988 10.0053C0.312988 8.54052 1.16691 7.239 2.36911 6.64777C1.86036 6.23166 1.5332 5.60098 1.5332 4.90089C1.5332 3.66215 2.55745 2.64072 3.79963 2.64072C5.04181 2.64072 6.06606 3.66215 6.06606 4.90089C6.06606 5.60292 5.73709 6.23516 5.22592 6.65122C5.72976 6.90064 6.18001 7.27799 6.53056 7.75263C7.05282 7.16099 7.69452 6.68812 8.40426 6.38863ZM5.97499 8.49912C5.47335 7.67728 4.64742 7.18014 3.7998 7.18014C2.40508 7.18014 1.18469 8.50581 1.18469 10.0053C1.18469 10.8964 1.64234 11.092 3.7998 11.092C4.38061 11.092 4.81277 11.0708 5.15919 11.0493C5.20997 10.1287 5.50567 9.25334 5.97499 8.49912ZM13.2807 8.52573L13.2798 8.52755L13.4323 8.74487C13.9771 9.54897 14.2605 10.44 14.2605 11.331V11.3734C14.2434 12.9021 13.2527 13.1583 10.1419 13.1583C7.00374 13.1583 6.02307 12.8975 6.02307 11.3328C6.02307 8.96399 7.94082 6.89941 10.1419 6.89941C11.3716 6.89941 12.5129 7.54385 13.2807 8.52573ZM7.83142 3.72563C7.83142 2.46515 8.87747 1.422 10.1414 1.422C11.4054 1.422 12.4515 2.46515 12.4515 3.72563C12.4515 4.98611 11.4054 6.02926 10.1414 6.02926C8.87747 6.02926 7.83142 4.98611 7.83142 3.72563ZM15.0883 4.90089C15.0883 4.14026 15.7202 3.51002 16.483 3.51002C17.2457 3.51002 17.8777 4.14026 17.8777 4.90089C17.8777 5.66153 17.2457 6.29176 16.483 6.29176C15.7202 6.29176 15.0883 5.66153 15.0883 4.90089ZM3.79963 3.51002C3.03689 3.51002 2.40491 4.14026 2.40491 4.90089C2.40491 5.66153 3.03689 6.29176 3.79963 6.29176C4.56237 6.29176 5.19436 5.66153 5.19436 4.90089C5.19436 4.14026 4.56237 3.51002 3.79963 3.51002ZM16.505 11.092C15.9167 11.092 15.4808 11.092 15.1322 11.0485C15.0668 10.1575 14.8053 9.28818 14.304 8.48408C14.8053 7.67998 15.6334 7.18014 16.4833 7.18014C17.878 7.18014 19.0984 8.50581 19.1202 10.0053C19.1202 10.8964 18.6626 11.092 16.5051 11.092H16.505Z" fill="#7649B3"/>
<path d="M8.40426 6.38863L8.45893 6.51819L8.70361 6.41494L8.48069 6.27059L8.40426 6.38863ZM11.8731 6.38595L11.7966 6.268L11.5737 6.41265L11.8186 6.51559L11.8731 6.38595ZM13.741 7.73884L13.6359 7.83226L13.7505 7.96129L13.8537 7.8229L13.741 7.73884ZM15.0487 6.64468L15.1105 6.77097L15.3069 6.67481L15.1379 6.53601L15.0487 6.64468ZM17.902 6.65709L17.8137 6.54767L17.6435 6.68507L17.8392 6.78288L17.902 6.65709ZM19.9701 10.0053L19.8295 10.0069L19.8295 10.0069L19.9701 10.0053ZM15.0887 11.9078L15.1013 11.7678L14.9709 11.7561L14.9499 11.8853L15.0887 11.9078ZM5.19532 11.9097L5.33411 11.887L5.31308 11.7582L5.18306 11.7696L5.19532 11.9097ZM2.36911 6.64777L2.43117 6.77396L2.62748 6.67742L2.45814 6.53892L2.36911 6.64777ZM5.22592 6.65122L5.13715 6.54216L4.96753 6.68022L5.16353 6.77725L5.22592 6.65122ZM6.53056 7.75263L6.41744 7.83617L6.52082 7.97615L6.63598 7.84569L6.53056 7.75263ZM5.97499 8.49912L6.09439 8.57341L6.14017 8.49983L6.09502 8.42585L5.97499 8.49912ZM5.15919 11.0493L5.16788 11.1897L5.29271 11.182L5.2996 11.0571L5.15919 11.0493ZM13.2807 8.52573L13.4064 8.58874L13.4463 8.50919L13.3915 8.4391L13.2807 8.52573ZM13.2798 8.52755L13.1541 8.46454L13.1164 8.53961L13.1647 8.60834L13.2798 8.52755ZM13.4323 8.74487L13.5488 8.66598L13.5474 8.66408L13.4323 8.74487ZM14.2605 11.3734L14.4011 11.375V11.3734H14.2605ZM15.1322 11.0485L14.9919 11.0588L15.0003 11.1738L15.1148 11.188L15.1322 11.0485ZM14.304 8.48408L14.1847 8.40969L14.1383 8.48408L14.1847 8.55847L14.304 8.48408ZM19.1202 10.0053L19.2608 10.0053L19.2608 10.0033L19.1202 10.0053ZM8.48069 6.27059C7.64788 5.73132 7.10034 4.79599 7.10034 3.72563H6.81909C6.81909 4.89468 7.41779 5.91739 8.32782 6.50667L8.48069 6.27059ZM7.10034 3.72563C7.10034 2.04334 8.45353 0.693329 10.1414 0.693329V0.412079C8.29894 0.412079 6.81909 1.88728 6.81909 3.72563H7.10034ZM10.1414 0.693329C11.8082 0.693329 13.1825 2.04396 13.1825 3.72563H13.4638C13.4638 1.88665 11.9615 0.412079 10.1414 0.412079V0.693329ZM13.1825 3.72563C13.1825 4.79351 12.6286 5.72789 11.7966 6.268L11.9497 6.5039C12.8575 5.91462 13.4638 4.89361 13.4638 3.72563H13.1825ZM11.8186 6.51559C12.5047 6.80394 13.1273 7.25994 13.6359 7.83226L13.8461 7.64543C13.3115 7.04383 12.655 6.56201 11.9276 6.25631L11.8186 6.51559ZM14.9868 6.51838C14.4619 6.77542 13.9934 7.16503 13.6282 7.65479L13.8537 7.8229C14.1929 7.36803 14.6268 7.00782 15.1105 6.77097L14.9868 6.51838ZM14.0759 4.90089C14.0759 5.64385 14.4223 6.31213 14.9594 6.75334L15.1379 6.53601C14.6619 6.14494 14.3572 5.55465 14.3572 4.90089H14.0759ZM16.483 2.5001C15.1635 2.5001 14.0759 3.58411 14.0759 4.90089H14.3572C14.3572 3.74018 15.3181 2.78135 16.483 2.78135V2.5001ZM18.89 4.90089C18.89 3.58411 17.8025 2.5001 16.483 2.5001V2.78135C17.6479 2.78135 18.6088 3.74018 18.6088 4.90089H18.89ZM17.9904 6.76652C18.5367 6.32548 18.89 5.65129 18.89 4.90089H18.6088C18.6088 5.56118 18.298 6.15675 17.8137 6.54767L17.9904 6.76652ZM20.1107 10.0038C20.0943 8.49313 19.2026 7.15004 17.9649 6.53131L17.8392 6.78288C18.984 7.35518 19.8142 8.60322 19.8295 10.0069L20.1107 10.0038ZM16.5051 12.1019C17.3143 12.1019 18.2141 12.1037 18.9072 11.8488C19.2582 11.7197 19.5654 11.5219 19.7822 11.2178C19.9994 10.9132 20.1164 10.5154 20.1107 10.0038L19.8295 10.0069C19.8347 10.4732 19.7283 10.8089 19.5532 11.0545C19.3778 11.3005 19.1239 11.4694 18.8101 11.5848C18.1739 11.8188 17.3303 11.8206 16.5051 11.8206V12.1019ZM15.0762 12.0479C15.4535 12.0817 15.9094 12.1019 16.5051 12.1019V11.8206C15.9156 11.8206 15.4684 11.8007 15.1013 11.7678L15.0762 12.0479ZM14.9499 11.8853C14.8681 12.3886 14.6704 12.758 14.3913 13.0332C14.1106 13.31 13.7394 13.4994 13.2992 13.6276C12.413 13.8858 11.2848 13.887 10.1419 13.887V14.1682C11.2722 14.1682 12.4451 14.1694 13.3778 13.8977C13.8471 13.7609 14.2649 13.5528 14.5888 13.2335C14.9143 12.9125 15.137 12.4869 15.2275 11.9304L14.9499 11.8853ZM10.1419 13.887C8.99927 13.887 7.87141 13.8858 6.98535 13.6279C6.54521 13.4997 6.174 13.3105 5.89318 13.0339C5.61401 12.759 5.41621 12.3899 5.33411 11.887L5.05653 11.9323C5.14731 12.4884 5.37019 12.9136 5.69583 13.2343C6.0198 13.5534 6.43753 13.7613 6.90673 13.8979C7.83937 14.1694 9.01191 14.1682 10.1419 14.1682V13.887ZM5.18306 11.7696C4.81984 11.8014 4.37829 11.8206 3.7998 11.8206V12.1019C4.38443 12.1019 4.8344 12.0824 5.20759 12.0498L5.18306 11.7696ZM3.7998 11.8206C2.97472 11.8206 2.13094 11.8188 1.49185 11.5847C1.17666 11.4693 0.920362 11.3001 0.741853 11.0536C0.563684 10.8076 0.453613 10.4716 0.453613 10.0053H0.172363C0.172363 10.517 0.293839 10.9145 0.514066 11.2186C0.733953 11.5222 1.0429 11.7198 1.39511 11.8488C2.09082 12.1037 2.99045 12.1019 3.7998 12.1019V11.8206ZM0.453613 10.0053C0.453613 8.59443 1.27678 7.34168 2.43117 6.77396L2.30705 6.52158C1.05704 7.13633 0.172363 8.4866 0.172363 10.0053H0.453613ZM2.45814 6.53892C1.98003 6.14787 1.67383 5.55627 1.67383 4.90089H1.39258C1.39258 5.6457 1.74068 6.31545 2.28008 6.75662L2.45814 6.53892ZM1.67383 4.90089C1.67383 3.74018 2.63475 2.78135 3.79963 2.78135V2.5001C2.48016 2.5001 1.39258 3.58411 1.39258 4.90089H1.67383ZM3.79963 2.78135C4.96451 2.78135 5.92544 3.74018 5.92544 4.90089H6.20669C6.20669 3.58411 5.11911 2.5001 3.79963 2.5001V2.78135ZM5.92544 4.90089C5.92544 5.55809 5.61753 6.15115 5.13715 6.54216L5.3147 6.76029C5.85666 6.31916 6.20669 5.64776 6.20669 4.90089H5.92544ZM5.16353 6.77725C5.6468 7.01649 6.07983 7.37906 6.41744 7.83617L6.64367 7.66908C6.28019 7.17693 5.81272 6.7848 5.28831 6.5252L5.16353 6.77725ZM6.63598 7.84569C7.14522 7.26881 7.76991 6.80895 8.45893 6.51819L8.34959 6.25907C7.61914 6.5673 6.96042 7.05318 6.42513 7.65956L6.63598 7.84569ZM3.7998 7.32076C4.59155 7.32076 5.37508 7.78619 5.85496 8.57238L6.09502 8.42585C5.57163 7.56837 4.70328 7.03951 3.7998 7.03951V7.32076ZM1.32532 10.0053C1.32532 8.57281 2.493 7.32076 3.7998 7.32076V7.03951C2.31716 7.03951 1.04407 8.43882 1.04407 10.0053H1.32532ZM3.7998 10.9513C3.26175 10.9513 2.83378 10.9391 2.49405 10.9075C2.15295 10.8757 1.91 10.8251 1.73735 10.753C1.56869 10.6826 1.47229 10.5942 1.41399 10.4849C1.35321 10.3709 1.32532 10.2186 1.32532 10.0053H1.04407C1.04407 10.2376 1.07338 10.4439 1.16583 10.6172C1.26076 10.7952 1.41361 10.9227 1.62904 11.0126C1.8405 11.1008 2.11647 11.1548 2.46797 11.1875C2.82084 11.2204 3.25913 11.2326 3.7998 11.2326V10.9513ZM5.1505 10.909C4.80604 10.9303 4.3769 10.9513 3.7998 10.9513V11.2326C4.38432 11.2326 4.81951 11.2113 5.16788 11.1897L5.1505 10.909ZM5.2996 11.0571C5.34899 10.1615 5.63674 9.30889 6.09439 8.57341L5.85559 8.42482C5.37461 9.19779 5.07094 10.0958 5.01878 11.0416L5.2996 11.0571ZM13.155 8.46272L13.1541 8.46454L13.4055 8.59056L13.4064 8.58874L13.155 8.46272ZM13.1647 8.60834L13.3172 8.82566L13.5474 8.66408L13.3949 8.44675L13.1647 8.60834ZM13.3159 8.82375C13.8463 9.60649 14.1198 10.4704 14.1198 11.331H14.4011C14.4011 10.4096 14.108 9.49145 13.5488 8.66599L13.3159 8.82375ZM14.1198 11.331V11.3734H14.4011V11.331H14.1198ZM10.1419 13.299C11.6911 13.299 12.7451 13.2367 13.4135 12.9697C13.7543 12.8335 14.0045 12.6408 14.1677 12.3697C14.3293 12.1013 14.3967 11.7708 14.4011 11.375L14.1198 11.3718C14.1157 11.7404 14.0529 12.0151 13.9267 12.2247C13.8022 12.4316 13.607 12.5895 13.3092 12.7085C12.7002 12.9518 11.7034 13.0177 10.1419 13.0177V13.299ZM5.88245 11.3328C5.88245 11.737 5.94548 12.0743 6.10351 12.3484C6.26333 12.6256 6.51154 12.823 6.85242 12.9625C7.19006 13.1006 7.6229 13.1838 8.16157 13.2332C8.70137 13.2827 9.35623 13.299 10.1419 13.299V13.0177C9.35845 13.0177 8.71393 13.0014 8.18725 12.9531C7.65945 12.9047 7.25871 12.8248 6.95892 12.7022C6.66237 12.5809 6.46928 12.4197 6.34716 12.2079C6.22325 11.993 6.1637 11.711 6.1637 11.3328H5.88245ZM10.1419 6.75879C7.85358 6.75879 5.88245 8.89625 5.88245 11.3328H6.1637C6.1637 9.03172 8.02806 7.04004 10.1419 7.04004V6.75879ZM13.3915 8.4391C12.6015 7.42896 11.4217 6.75879 10.1419 6.75879V7.04004C11.3214 7.04004 12.4242 7.65874 13.1699 8.61236L13.3915 8.4391ZM10.1414 1.28137C8.80017 1.28137 7.6908 2.38712 7.6908 3.72563H7.97205C7.97205 2.54318 8.95476 1.56262 10.1414 1.56262V1.28137ZM12.5921 3.72563C12.5921 2.38712 11.4827 1.28137 10.1414 1.28137V1.56262C11.3281 1.56262 12.3108 2.54318 12.3108 3.72563H12.5921ZM10.1414 6.16989C11.4827 6.16989 12.5921 5.06414 12.5921 3.72563H12.3108C12.3108 4.90808 11.3281 5.88864 10.1414 5.88864V6.16989ZM7.6908 3.72563C7.6908 5.06414 8.80017 6.16989 10.1414 6.16989V5.88864C8.95476 5.88864 7.97205 4.90808 7.97205 3.72563H7.6908ZM16.483 3.36939C15.6429 3.36939 14.9476 4.06223 14.9476 4.90089H15.2289C15.2289 4.21829 15.7975 3.65064 16.483 3.65064V3.36939ZM18.0183 4.90089C18.0183 4.06223 17.323 3.36939 16.483 3.36939V3.65064C17.1684 3.65064 17.7371 4.21829 17.7371 4.90089H18.0183ZM16.483 6.43239C17.323 6.43239 18.0183 5.73956 18.0183 4.90089H17.7371C17.7371 5.58349 17.1684 6.15114 16.483 6.15114V6.43239ZM14.9476 4.90089C14.9476 5.73956 15.6429 6.43239 16.483 6.43239V6.15114C15.7975 6.15114 15.2289 5.58349 15.2289 4.90089H14.9476ZM2.54553 4.90089C2.54553 4.21829 3.11419 3.65064 3.79963 3.65064V3.36939C2.95959 3.36939 2.26428 4.06223 2.26428 4.90089H2.54553ZM3.79963 6.15114C3.11419 6.15114 2.54553 5.58349 2.54553 4.90089H2.26428C2.26428 5.73956 2.95959 6.43239 3.79963 6.43239V6.15114ZM5.05373 4.90089C5.05373 5.58349 4.48508 6.15114 3.79963 6.15114V6.43239C4.63967 6.43239 5.33498 5.73956 5.33498 4.90089H5.05373ZM3.79963 3.65064C4.48508 3.65064 5.05373 4.21829 5.05373 4.90089H5.33498C5.33498 4.06223 4.63967 3.36939 3.79963 3.36939V3.65064ZM15.1148 11.188C15.4741 11.2328 15.9202 11.2326 16.505 11.2326V10.9513C15.9132 10.9513 15.4875 10.9511 15.1496 10.909L15.1148 11.188ZM14.1847 8.55847C14.6731 9.34192 14.9281 10.1889 14.9919 11.0588L15.2724 11.0382C15.2055 10.126 14.9375 9.23444 14.4234 8.40969L14.1847 8.55847ZM16.4833 7.03951C15.5779 7.03951 14.7077 7.57069 14.1847 8.40969L14.4234 8.55847C14.9028 7.78928 15.6889 7.32076 16.4833 7.32076V7.03951ZM19.2608 10.0033C19.2381 8.43872 17.9662 7.03951 16.4833 7.03951V7.32076C17.7899 7.32076 18.9587 8.57291 18.9796 10.0074L19.2608 10.0033ZM16.5051 11.2326C17.0458 11.2326 17.4841 11.2204 17.8369 11.1875C18.1884 11.1548 18.4644 11.1008 18.6758 11.0126C18.8913 10.9227 19.0441 10.7952 19.1391 10.6172C19.2315 10.4439 19.2608 10.2376 19.2608 10.0053H18.9796C18.9796 10.2186 18.9517 10.3709 18.8909 10.4849C18.8326 10.5942 18.7362 10.6826 18.5675 10.753C18.3949 10.8251 18.1519 10.8757 17.8108 10.9075C17.4711 10.9391 17.0431 10.9513 16.5051 10.9513V11.2326ZM16.505 11.2326H16.5051V10.9513H16.505V11.2326Z" fill="#7649B3"/>
</svg>
