<svg width="22" height="22" viewBox="0 0 22 22" fill="none" xmlns="http://www.w3.org/2000/svg">
<path d="M14.2816 10.9999C14.2816 12.8149 12.8149 14.2816 10.9999 14.2816C9.18493 14.2816 7.71826 12.8149 7.71826 10.9999C7.71826 9.18493 9.18493 7.71826 10.9999 7.71826C12.8149 7.71826 14.2816 9.18493 14.2816 10.9999Z" stroke="#FB8308" stroke-width="1.5" stroke-linecap="round" stroke-linejoin="round"/>
<path d="M10.9999 18.581C14.2357 18.581 17.2515 16.6743 19.3507 13.3743C20.1757 12.0818 20.1757 9.90932 19.3507 8.61682C17.2515 5.31682 14.2357 3.41016 10.9999 3.41016C7.76402 3.41016 4.74819 5.31682 2.64902 8.61682C1.82402 9.90932 1.82402 12.0818 2.64902 13.3743C4.74819 16.6743 7.76402 18.581 10.9999 18.581Z" stroke="#FB8308" stroke-width="1.5" stroke-linecap="round" stroke-linejoin="round"/>
</svg>
