<svg width="17" height="17" viewBox="0 0 17 17" fill="none" xmlns="http://www.w3.org/2000/svg">
<path d="M8.70117 0.187134C4.14495 0.187134 0.451172 3.88091 0.451172 8.43713C0.451172 12.9934 4.14495 16.6871 8.70117 16.6871C13.2574 16.6871 16.9512 12.9934 16.9512 8.43713C16.9512 3.88091 13.2574 0.187134 8.70117 0.187134ZM3.10297 11.7067C2.54112 10.7468 2.21898 9.62958 2.21898 8.43713C2.21898 4.85706 5.12127 1.95494 8.70117 1.95494C10.1344 1.95494 11.4583 2.34598 12.5314 3.13371L3.10297 11.6781V11.7067ZM8.70117 14.9477C7.26798 14.9477 5.94405 14.5567 4.87078 13.7691L14.2995 5.22434V5.19595C14.8614 6.15569 15.1834 7.27307 15.1834 8.46552C15.1832 12.0456 12.2812 14.9477 8.70117 14.9477Z" fill="#FB8308"/>
</svg>
