<svg width="27" height="26" viewBox="0 0 27 26" fill="none" xmlns="http://www.w3.org/2000/svg">
<path d="M24.0645 1.0215C24.0645 0.697515 23.8004 0.43457 23.4776 0.43457H3.52199C3.198 0.43457 2.93506 0.697515 2.93506 1.0215V3.95615H24.0645V1.0215Z" fill="#B053C0"/>
<path d="M21.1313 9.82629C21.1313 11.4474 22.4448 12.7609 24.0659 12.7609C25.687 12.7609 27.0006 11.4474 27.0006 9.82629L24.3159 5.13086H19.7896L21.1313 9.82629Z" fill="#B053C0"/>
<path d="M14.0869 5.13086V9.82629C14.0869 11.4474 15.4005 12.7609 17.0216 12.7609C18.6427 12.7609 19.9562 11.4474 19.9562 9.82629L18.6145 5.13086H14.0869Z" fill="#B053C0"/>
<path d="M9.9781 12.7609C11.5992 12.7609 12.9127 11.4474 12.9127 9.82629V5.13086H8.38518L7.04346 9.82629C7.04346 11.4474 8.357 12.7609 9.9781 12.7609Z" fill="#B053C0"/>
<path d="M2.93513 12.7609C4.55623 12.7609 5.86978 11.4474 5.86978 9.82629L7.2115 5.13086H2.68393L0.000488281 9.82629C0.000488281 11.4474 1.31404 12.7609 2.93513 12.7609Z" fill="#B053C0"/>
<path d="M24.0177 13.9062C24.4285 13.9062 24.8183 13.8277 25.1915 13.7149V25.058H1.71436V13.7149C2.08764 13.8277 2.47737 13.9062 2.88821 13.9062C4.39074 13.9062 5.69255 13.0859 6.40863 11.8779C7.12467 13.0859 8.42883 13.9062 9.93137 13.9062C11.4327 13.9062 12.7369 13.0869 13.4529 11.8801C14.1678 13.0869 15.4731 13.9062 16.9745 13.9062C18.4759 13.9062 19.7812 13.0859 20.4973 11.8779C21.2133 13.0859 22.5163 13.9062 24.0177 13.9062Z" fill="#B053C0"/>
<path d="M6.4485 22.2177C5.80013 22.2177 5.26773 22.0648 4.85129 21.7591C4.43486 21.4481 4.21083 21.0053 4.1792 20.4307H5.83176C5.84757 20.6258 5.90555 20.7681 6.00571 20.8577C6.10586 20.9473 6.23501 20.9921 6.39315 20.9921C6.53548 20.9921 6.65144 20.9579 6.74106 20.8893C6.83594 20.8155 6.88338 20.7154 6.88338 20.5889C6.88338 20.4255 6.80695 20.299 6.65408 20.2093C6.50121 20.1197 6.25346 20.0196 5.91083 19.9089C5.5471 19.7876 5.25191 19.6717 5.02524 19.561C4.80385 19.445 4.60881 19.279 4.44013 19.0628C4.27672 18.8414 4.19501 18.5542 4.19501 18.201C4.19501 17.8425 4.28463 17.5368 4.46385 17.2838C4.64307 17.0255 4.89083 16.8304 5.20711 16.6987C5.52338 16.5669 5.88183 16.501 6.28245 16.501C6.93082 16.501 7.44741 16.6538 7.83222 16.9596C8.2223 17.26 8.43051 17.6844 8.45687 18.2326H6.77268C6.76741 18.0639 6.7147 17.9374 6.61455 17.8531C6.51966 17.7687 6.39579 17.7266 6.24292 17.7266C6.12695 17.7266 6.03207 17.7608 5.95827 17.8293C5.88447 17.8979 5.84757 17.9954 5.84757 18.1219C5.84757 18.2273 5.8871 18.3196 5.96617 18.3986C6.05052 18.4724 6.15331 18.5383 6.27455 18.5963C6.39579 18.649 6.57501 18.7176 6.81222 18.8019C7.1654 18.9231 7.45532 19.0444 7.68199 19.1656C7.91392 19.2816 8.1116 19.4476 8.27501 19.6638C8.44369 19.8746 8.52803 20.1435 8.52803 20.4703C8.52803 20.8024 8.44369 21.1002 8.27501 21.3638C8.1116 21.6273 7.87175 21.8355 7.55547 21.9884C7.24447 22.1413 6.87548 22.2177 6.4485 22.2177Z" fill="white"/>
<path d="M12.775 21.2531H10.7983L10.4978 22.1624H8.86896L10.901 16.588H12.688L14.7122 22.1624H13.0755L12.775 21.2531ZM12.3876 20.067L11.7866 18.2642L11.1936 20.067H12.3876Z" fill="white"/>
<path d="M16.7671 20.9763H18.4987V22.1624H15.2173V16.588H16.7671V20.9763Z" fill="white"/>
<path d="M20.6511 17.8293V18.7386H22.4302V19.9168H20.6511V20.921H22.6674V22.1624H19.1013V16.588H22.6674V17.8293H20.6511Z" fill="white"/>
</svg>
