<svg width="31" height="31" viewBox="0 0 31 31" fill="none" xmlns="http://www.w3.org/2000/svg">
<circle cx="15.6533" cy="15.8281" r="14.25" fill="white" stroke="#7649B3" stroke-width="1.5"/>
<circle cx="15.6533" cy="15.8281" r="11.5869" fill="#FB8308"/>
<path fill-rule="evenodd" clip-rule="evenodd" d="M11.812 9.9834C10.8893 9.9834 10.1382 10.7345 10.1382 11.6575C10.1382 12.5808 10.8893 13.3316 11.812 13.3316C12.7356 13.3316 13.4864 12.5808 13.4864 11.6575C13.4864 10.7345 12.7356 9.9834 11.812 9.9834ZM19.4933 9.9834C18.5708 9.9834 17.8197 10.7345 17.8197 11.6575C17.8197 12.5808 18.5708 13.3316 19.4933 13.3316C20.4168 13.3316 21.1676 12.5808 21.1676 11.6575C21.1676 10.7345 20.4168 9.9834 19.4933 9.9834ZM15.4871 21.6713C17.6423 21.7341 19.6968 20.8574 21.5924 19.0694C21.8004 18.8733 21.9193 18.6082 21.9281 18.3228C21.9363 18.0378 21.833 17.7659 21.6372 17.5585C21.4358 17.3447 21.1518 17.2226 20.8588 17.2226C20.5851 17.2226 20.325 17.3259 20.126 17.514C18.707 18.8516 17.2112 19.5298 15.6821 19.5298C13.1308 19.5298 11.2988 17.6369 11.2217 17.5566C10.8336 17.1468 10.1238 17.1269 9.71264 17.515C9.28505 17.9183 9.26438 18.5952 9.66655 19.0236C9.7643 19.1277 12.0983 21.5688 15.4871 21.6713Z" fill="white"/>
</svg>
