<svg width="31" height="31" viewBox="0 0 31 31" fill="none" xmlns="http://www.w3.org/2000/svg">
<rect x="0.982422" y="0.90625" width="28.5" height="28.5" rx="14.25" fill="white" stroke="#8BC34A" stroke-width="1.5"/>
<path fill-rule="evenodd" clip-rule="evenodd" d="M19.5084 21.4691C18.7662 21.4691 18.1648 22.0705 18.1648 22.8127C18.1648 23.5546 18.7662 24.1562 19.5084 24.1562C20.2505 24.1562 20.8519 23.5548 20.8519 22.8127C20.8517 22.0707 20.2503 21.4691 19.5084 21.4691ZM22.22 16.8803H21.7738V17.8562H22.22V16.8803ZM20.5169 13.3751H20.0707V14.351H20.5169V13.3751ZM10.1932 11.9191V13.9206L8.90837 13.9293V11.9191H6.90137L15.1024 6.19765C15.1815 6.14245 15.2815 6.14245 15.3604 6.19765L23.5616 11.9191H21.5546V12.7735H20.2698V11.9191H10.1932ZM14.5388 10.1184C14.5388 10.1806 14.5894 10.2312 14.6516 10.2312H15.8116C15.8738 10.2312 15.9244 10.1806 15.9244 10.1184V8.95855C15.9244 8.89637 15.8738 8.84575 15.8116 8.84575H14.6516C14.5894 8.84575 14.5388 8.89637 14.5388 8.95855V10.1184ZM21.8585 13.3751V16.2956C21.8585 16.4106 21.7649 16.5043 21.6499 16.5043H18.9378C18.8228 16.5043 18.7292 16.4106 18.7292 16.2956V13.3751H19.4691V14.6517C19.4691 14.8179 19.6038 14.9525 19.7698 14.9525H20.8177C20.9839 14.9525 21.1184 14.8177 21.1184 14.6517V13.3751H21.8585ZM18.4523 13.3751H17.7124V14.6517C17.7124 14.8179 17.5777 14.9525 17.4117 14.9525H16.3638C16.1976 14.9525 16.0631 14.8177 16.0631 14.6517V13.3751H15.3232V16.2956C15.3232 16.4106 15.4168 16.5043 15.5318 16.5043H18.2439C18.3589 16.5043 18.4525 16.4106 18.4525 16.2956L18.4523 13.3751ZM17.1108 13.3751H16.6646V14.351H17.1108V13.3751ZM16.7493 16.8803H16.0093V18.157C16.0093 18.3232 15.8746 18.4577 15.7086 18.4577H14.6607C14.4945 18.4577 14.36 18.323 14.36 18.157V16.8803H13.6201V19.8009C13.6201 19.9159 13.7137 20.0095 13.8287 20.0095H16.5408C16.6558 20.0095 16.7495 19.9159 16.7495 19.8009L16.7493 16.8803ZM23.5616 16.8803V19.8009C23.5616 19.9159 23.468 20.0095 23.353 20.0095H20.6409C20.5259 20.0095 20.4322 19.9159 20.4322 19.8009V16.8803H21.1722V18.157C21.1722 18.3232 21.3069 18.4577 21.4729 18.4577H22.5206C22.6868 18.4577 22.8213 18.323 22.8213 18.157V16.8803H23.5616ZM20.1554 16.8803H19.4155V18.157C19.4155 18.3232 19.2808 18.4577 19.1148 18.4577H18.0669C17.9007 18.4577 17.7662 18.323 17.7662 18.157V16.8803H17.0263V19.8009C17.0263 19.9159 17.1199 20.0095 17.2349 20.0095H19.947C20.062 20.0095 20.1556 19.9159 20.1556 19.8009L20.1554 16.8803ZM18.8138 16.8803V17.8562H18.3676V16.8803H18.8138ZM15.4077 16.8803V17.8562H14.9615V16.8803H15.4077ZM13.3885 20.3856C16.7795 20.3856 20.1706 20.3856 23.5616 20.3856V22.1409C23.5616 22.5109 23.2599 22.8127 22.8898 22.8127C22.4109 22.8127 21.9323 22.8127 21.4534 22.8127C21.4534 22.7977 21.4532 22.7828 21.4528 22.7678C21.4287 21.7056 20.5584 20.8674 19.5082 20.8674C18.434 20.8674 17.5629 21.7385 17.5629 22.8127C16.1713 22.8127 14.7799 22.8127 13.3883 22.8127L13.3885 20.3856ZM6.90137 21.1863V22.3089C6.90137 22.5863 7.12776 22.8127 7.40516 22.8127C7.56977 22.8127 7.73438 22.8127 7.89879 22.8127C7.89879 21.7331 8.77525 20.8674 9.84401 20.8674C10.9142 20.8674 11.7892 21.7345 11.7892 22.8127C12.1218 22.8127 12.4543 22.8127 12.7869 22.8127V20.3856V14.5222H9.07457C8.73918 14.5222 8.4253 14.6954 8.29078 15.0122L6.95836 18.1498C6.9189 18.2425 6.90137 18.3276 6.90137 18.4272V20.4778H7.39061C7.49424 20.4778 7.57854 20.5623 7.57854 20.6658V20.9982C7.57854 21.1018 7.49404 21.1861 7.39061 21.1861L6.90137 21.1863ZM8.06878 18.1763L9.18219 15.5547H11.7542V18.1763H8.06878ZM9.84401 21.4691C10.5862 21.4691 11.1876 22.0705 11.1876 22.8127C11.1876 23.5546 10.5862 24.1562 9.84401 24.1562C9.10188 24.1562 8.50043 23.5548 8.50043 22.8127C8.50063 22.0707 9.10208 21.4691 9.84401 21.4691ZM19.5084 22.3549C19.7612 22.3549 19.9661 22.5598 19.9661 22.8127C19.9661 23.0656 19.7612 23.2704 19.5084 23.2704C19.2553 23.2704 19.0506 23.0658 19.0506 22.8127C19.0506 22.5598 19.2553 22.3549 19.5084 22.3549ZM9.84401 22.3549C10.0969 22.3549 10.3018 22.5598 10.3018 22.8127C10.3018 23.0656 10.0971 23.2704 9.84401 23.2704C9.59092 23.2704 9.38626 23.0658 9.38626 22.8127C9.38626 22.5598 9.59112 22.3549 9.84401 22.3549Z" fill="#8BC34A"/>
</svg>
