<svg width="31" height="31" viewBox="0 0 31 31" fill="none" xmlns="http://www.w3.org/2000/svg">
<rect x="0.982422" y="1.48438" width="28.5" height="28.5" rx="14.25" fill="white" stroke="#17A3AF" stroke-width="1.5"/>
<path d="M23.0571 15.9982C22.8083 16.0733 22.5485 16.1258 22.2746 16.1258C21.2737 16.1258 20.405 15.5787 19.9276 14.7735C19.4502 15.5787 18.58 16.1258 17.5791 16.1258C16.5782 16.1258 15.708 15.5795 15.2314 14.775C14.754 15.5795 13.8846 16.1258 12.8837 16.1258C11.882 16.1258 11.0125 15.5787 10.5351 14.7735C10.0578 15.5787 9.1899 16.1258 8.1882 16.1258C7.9143 16.1258 7.65448 16.0733 7.40562 15.9982V23.5602H6.62305V24.3428H23.8397V23.5602H23.0571V15.9982ZM13.6662 21.6038C13.6662 21.819 13.4909 21.9951 13.2749 21.9951H10.1446C9.92865 21.9951 9.75335 21.819 9.75335 21.6038V18.4735C9.75335 18.2583 9.92865 18.0822 10.1446 18.0822H13.2749C13.4909 18.0822 13.6662 18.2583 13.6662 18.4735V21.6038ZM19.9268 23.5602H16.014V18.4735C16.014 18.2583 16.19 18.0822 16.4052 18.0822H19.5356C19.7508 18.0822 19.9268 18.2583 19.9268 18.4735V23.5602Z" fill="#17A3AF"/>
<path d="M22.2748 7.5163C22.2748 7.30031 22.0988 7.12502 21.8836 7.12502H8.57976C8.36377 7.12502 8.18848 7.30031 8.18848 7.5163V9.47274H22.2748V7.5163Z" fill="#17A3AF"/>
<path d="M20.3203 13.3862C20.3203 14.4669 21.196 15.3426 22.2767 15.3426C23.3574 15.3426 24.2331 14.4669 24.2331 13.3862L22.4434 10.2559H19.4258L20.3203 13.3862Z" fill="#17A3AF"/>
<path d="M15.623 10.2559V13.3862C15.623 14.4669 16.4987 15.3426 17.5795 15.3426C18.6602 15.3426 19.5359 14.4669 19.5359 13.3862L18.6414 10.2559H15.623Z" fill="#17A3AF"/>
<path d="M12.8842 15.3426C13.9649 15.3426 14.8406 14.4669 14.8406 13.3862V10.2559H11.8222L10.9277 13.3862C10.9277 14.4669 11.8034 15.3426 12.8842 15.3426Z" fill="#17A3AF"/>
<path d="M8.18886 15.3426C9.2696 15.3426 10.1453 14.4669 10.1453 13.3862L11.0398 10.2559H8.02139L6.23242 13.3862C6.23242 14.4669 7.10812 15.3426 8.18886 15.3426Z" fill="#17A3AF"/>
</svg>
