<svg width="17" height="18" viewBox="0 0 17 18" fill="none" xmlns="http://www.w3.org/2000/svg">
<path d="M6.95832 6.54866C8.54486 6.17404 9.5273 4.5842 9.15268 2.99767C8.77805 1.41113 7.18822 0.428682 5.60168 0.803308C4.01515 1.17793 3.0327 2.76777 3.40732 4.35431C3.78195 5.94084 5.37179 6.92329 6.95832 6.54866Z" fill="#FB8308"/>
<path d="M11.6583 9.99249C11.6696 9.99249 11.681 9.99249 11.6939 9.99249C10.8895 8.46308 9.40873 7.37806 7.69118 7.08612C7.25652 7.26615 6.78132 7.3667 6.28179 7.3667C5.78387 7.3667 5.30705 7.26777 4.87239 7.08774C2.2174 7.537 0.229004 9.88545 0.229004 12.5907V13.5833C0.229004 14.0974 0.647444 14.5175 1.16157 14.5175H8.91082C8.687 14.0893 8.5605 13.6044 8.5605 13.0886C8.56212 11.3808 9.95043 9.99249 11.6583 9.99249Z" fill="#FB8308"/>
<path d="M11.658 10.7307C10.3589 10.7307 9.2998 11.7881 9.2998 13.0872C9.2998 14.3863 10.3573 15.4438 11.658 15.4438C12.9571 15.4438 14.0146 14.3863 14.0146 13.0872C14.0146 11.7881 12.9571 10.7307 11.658 10.7307ZM13.6367 13.0888C13.6367 13.2932 13.4712 13.457 13.2685 13.457H12.0262V14.6993C12.0262 14.9037 11.8607 15.0675 11.658 15.0675C11.4536 15.0675 11.2882 14.9021 11.2882 14.6993V13.457H10.0459C9.84151 13.457 9.6777 13.2916 9.6777 13.0888C9.6777 12.8845 9.84313 12.7207 10.0459 12.7207H11.2882V11.4783C11.2882 11.274 11.4536 11.1102 11.658 11.1102C11.8623 11.1102 12.0262 11.2756 12.0262 11.4783V12.7207H13.2685C13.4712 12.7191 13.6367 12.8845 13.6367 13.0888Z" fill="white"/>
<rect x="6.41846" y="7.80975" width="9.37325" height="9.37325" rx="4.68662" fill="white" stroke="#FB8308" stroke-width="1.125"/>
<path d="M11.1051 15.036V12.4981M11.1051 12.4981V9.96014M11.1051 12.4981L13.6276 12.4981M11.1051 12.4981H8.58252" stroke="#FB8308" stroke-width="1.5" stroke-linecap="round"/>
</svg>
