<svg width="29" height="28" viewBox="0 0 29 28" fill="none" xmlns="http://www.w3.org/2000/svg">
<path d="M17.6406 12.0695C16.3543 12.0695 15.0682 12.5586 14.0892 13.5377C12.1311 15.4958 12.1284 18.6862 14.0892 20.6444C15.9262 22.4815 18.849 22.5947 20.8203 20.9847L21.5471 21.7096L21.191 22.0655C21.1443 22.1122 21.1072 22.1676 21.0819 22.2286C21.0565 22.2896 21.0435 22.3551 21.0435 22.4211C21.0435 22.4872 21.0565 22.5525 21.0819 22.6135C21.1072 22.6745 21.1443 22.73 21.191 22.7766L26.1617 27.7462C26.2556 27.8406 26.3831 27.8939 26.5163 27.8942C26.6494 27.8946 26.7773 27.842 26.8717 27.7481L28.2919 26.327C28.339 26.2803 28.3763 26.2247 28.4018 26.1636C28.4273 26.1024 28.4404 26.0367 28.4404 25.9705C28.4404 25.9042 28.4273 25.8385 28.4018 25.7773C28.3763 25.7162 28.339 25.6606 28.2919 25.614L23.3223 20.6443C23.2756 20.5972 23.2201 20.5599 23.1589 20.5344C23.0977 20.5089 23.0321 20.4958 22.9658 20.4958C22.8995 20.4958 22.8339 20.5089 22.7727 20.5344C22.7115 20.5599 22.656 20.5972 22.6093 20.6443L22.2552 20.9994L21.5304 20.2746C23.1468 18.3033 23.0338 15.3772 21.195 13.5376C20.2159 12.5585 18.9298 12.0693 17.6436 12.0693L17.6406 12.0695ZM17.6406 13.0659C18.6683 13.0654 19.6957 13.4592 20.4829 14.2468C22.0572 15.8211 22.0572 18.36 20.4829 19.9343C18.9086 21.5086 16.3696 21.5087 14.7954 19.9343C13.221 18.36 13.2238 15.8231 14.7954 14.2488C15.5825 13.4616 16.6109 13.0665 17.6386 13.0659H17.6406Z" fill="#255AA8"/>
<path d="M9.5981 0.895508C9.4656 0.896037 9.33868 0.948934 9.24499 1.04262C9.1513 1.13632 9.09843 1.26321 9.0979 1.39571V4.91377H7.08926V3.34941C7.08913 3.28339 7.07597 3.21805 7.05055 3.15711C7.02513 3.09618 6.98795 3.04085 6.94112 2.9943C6.8943 2.94775 6.83876 2.91094 6.77768 2.88587C6.71659 2.86081 6.65117 2.84803 6.58514 2.84828H4.5755C4.44284 2.84881 4.31577 2.90179 4.22205 2.99569C4.12833 3.08959 4.07557 3.21674 4.0753 3.34941V4.91377H1.06139C1.04632 4.91277 1.02925 4.91277 1.01318 4.91377C0.756175 4.9394 0.560684 5.15568 0.561036 5.41397V9.42928C0.561036 10.8116 1.68853 11.9391 3.07083 11.9391H6.08379V9.94031C6.08223 9.80764 6.13323 9.6797 6.22567 9.58451C6.3181 9.48932 6.44445 9.43458 6.57711 9.43224C6.64437 9.43092 6.71122 9.44313 6.77367 9.46815C6.83612 9.49316 6.89291 9.53046 6.94067 9.57785C6.98843 9.62524 7.02617 9.68176 7.05167 9.74402C7.07717 9.80628 7.0899 9.87304 7.08911 9.94031V11.9391H14.5195C15.4751 11.361 16.555 11.0658 17.6384 11.0662C18.1436 11.0665 18.6476 11.1365 19.1399 11.2624V9.94031C19.1384 9.8078 19.1893 9.68002 19.2815 9.58486C19.3737 9.48969 19.4998 9.43488 19.6323 9.4323C19.6996 9.43099 19.7664 9.44319 19.8288 9.46821C19.8913 9.49322 19.9481 9.53052 19.9958 9.57791C20.0436 9.62529 20.0813 9.68177 20.1068 9.74402C20.1323 9.80628 20.1451 9.87304 20.1443 9.94031V11.6174C20.3521 11.7122 20.5553 11.8196 20.7533 11.9391H23.1582C24.5405 11.9391 25.668 10.8117 25.668 9.42934V5.41397C25.668 5.13799 25.4428 4.9148 25.1669 4.91383H22.1539V3.34947C22.1538 3.28344 22.1406 3.21811 22.1152 3.15717C22.0898 3.09624 22.0526 3.04091 22.0058 2.99436C21.9589 2.94781 21.9034 2.91094 21.8423 2.88587C21.7812 2.86081 21.7158 2.84803 21.6498 2.84828H19.6401C19.5075 2.84882 19.3804 2.90185 19.2867 2.99575C19.193 3.08965 19.1402 3.2168 19.1399 3.34947V4.91383H17.1303V1.39576C17.1298 1.26327 17.0769 1.13632 16.9833 1.04262C16.8896 0.948934 16.7626 0.896095 16.6301 0.895566L9.5981 0.895508ZM10.1022 1.89984H16.1262V4.91377H10.1022V1.89984ZM5.07962 3.85355H6.08394V4.85788H5.07962V3.85355ZM20.1444 3.85355H21.1487V4.85788H20.1444V3.85355ZM25.6682 11.8773C25.0283 12.533 24.1381 12.9434 23.1584 12.9434H22.004C23.6329 14.6556 24.0566 17.0953 23.2839 19.19L25.6682 21.5743V11.8773ZM0.561186 11.8783V21.6125C0.561186 21.8888 0.7852 22.1126 1.06139 22.1137H14.3009C13.9743 21.8965 13.6638 21.6454 13.376 21.3576C11.064 19.0453 11.0323 15.3018 13.2701 12.9435H7.08926V14.9482C7.08926 15.0142 7.07626 15.0796 7.051 15.1406C7.02574 15.2015 6.98871 15.2569 6.94204 15.3036C6.89536 15.3503 6.83995 15.3873 6.77896 15.4125C6.71797 15.4378 6.65261 15.4508 6.5866 15.4508C6.52059 15.4508 6.45523 15.4378 6.39424 15.4125C6.33325 15.3873 6.27784 15.3503 6.23116 15.3036C6.18449 15.2569 6.14746 15.2015 6.1222 15.1406C6.09694 15.0796 6.08394 15.0142 6.08394 14.9482V12.9435H3.07003C2.09076 12.9435 1.20094 12.5334 0.561186 11.8783Z" fill="#255AA8"/>
</svg>
