<svg width="9" height="11" viewBox="0 0 9 11" fill="none" xmlns="http://www.w3.org/2000/svg">
<path d="M4.28984 0.125C3.17593 0.125 2.10765 0.567499 1.32 1.35515C0.532343 2.1428 0.0898438 3.21109 0.0898438 4.325C0.0898438 5.3183 0.300894 5.96825 0.877344 6.6875L4.28984 10.625L7.70234 6.6875C8.27879 5.96825 8.48984 5.3183 8.48984 4.325C8.48984 3.21109 8.04734 2.1428 7.25969 1.35515C6.47204 0.567499 5.40375 0.125 4.28984 0.125V0.125Z" fill="#FB8308"/>
<path d="M4.28984 5.9C5.15969 5.9 5.86484 5.19485 5.86484 4.325C5.86484 3.45515 5.15969 2.75 4.28984 2.75C3.42 2.75 2.71484 3.45515 2.71484 4.325C2.71484 5.19485 3.42 5.9 4.28984 5.9Z" fill="#FFF8EF"/>
</svg>
