<svg width="83" height="40" viewBox="0 0 83 40" fill="none" xmlns="http://www.w3.org/2000/svg">
<path d="M19.3281 39.0986C29.9003 39.0986 38.4707 30.5282 38.4707 19.9561C38.4707 9.3839 29.9003 0.813477 19.3281 0.813477C8.75597 0.813477 0.185547 9.3839 0.185547 19.9561C0.185547 30.5282 8.75597 39.0986 19.3281 39.0986Z" fill="white"/>
<path d="M31.2667 24.783V15.0956H37.8473C35.6926 6.86873 28.2089 0.798828 19.3064 0.798828C8.72146 0.798828 0.140625 9.37967 0.140625 19.9646C0.140625 30.5495 8.72146 39.1303 19.3064 39.1303C28.227 39.1303 35.7241 33.0355 37.8611 24.7827L31.2667 24.783ZM19.0968 16.7148L13.7686 22.9148H19.0968V24.783H11.0284V23.1638L16.3566 16.9638H11.1954V15.0956H19.0978L19.0968 16.7148ZM28.7015 16.9914H23.4427V18.9566H28.7015V20.853H23.4427V22.8874H28.7015V24.7838H21.3252V15.0956H28.7015V16.9914Z" fill="url(#paint0_linear_55_2326)"/>
<path d="M33.3945 16.992V18.9572L38.4543 18.9259C38.4198 18.2781 38.3525 17.6323 38.2528 16.9912L33.3945 16.992Z" fill="url(#paint1_linear_55_2326)"/>
<path d="M33.3848 22.8859H38.2513C38.3555 22.2015 38.4228 21.512 38.4528 20.8203L33.3848 20.8515V22.8859Z" fill="url(#paint2_linear_55_2326)"/>
<path d="M40.6258 15.0956H42.2034L47.3931 21.7936V15.0956H49.0668V24.7829H47.6414L42.2996 17.891V24.7829H40.625L40.6258 15.0956Z" fill="url(#paint3_linear_55_2326)"/>
<path d="M51.4893 15.0956H58.6717V16.6173H53.1916V19.1359H58.049V20.6592H53.1916V23.2605H58.7405V24.7829H51.4893V15.0956Z" fill="url(#paint4_linear_55_2326)"/>
<path d="M59.9443 15.0962H61.7856L64.0967 22.2796L66.477 15.0693H67.9154L70.2957 22.2796L72.6069 15.0962H74.3922L71.0154 24.8526H69.5485L67.1684 17.8916L64.7881 24.8526H63.3211L59.9443 15.0962Z" fill="url(#paint5_linear_55_2326)"/>
<path d="M75.1396 23.372L76.1637 22.1541C77.091 22.9569 78.0182 23.4136 79.2221 23.4136C80.274 23.4136 80.9383 22.9291 80.9383 22.1956V22.1681C80.9383 21.4762 80.5508 21.1024 78.7517 20.6873C76.6897 20.1893 75.5272 19.5801 75.5272 17.7948V17.7674C75.5272 16.1068 76.9112 14.958 78.8348 14.958C80.2464 14.958 81.3672 15.3871 82.3499 16.1759L81.4365 17.463C80.5646 16.8117 79.6934 16.4669 78.807 16.4669C77.8109 16.4669 77.2294 16.9789 77.2294 17.6163V17.644C77.2294 18.3911 77.6722 18.7235 79.5267 19.1663C81.5748 19.6644 82.6405 20.3979 82.6405 22.0033V22.0309C82.6405 23.8438 81.2151 24.9234 79.1808 24.9234C77.7 24.9219 76.3022 24.4099 75.1396 23.372Z" fill="url(#paint6_linear_55_2326)"/>
<defs>
<linearGradient id="paint0_linear_55_2326" x1="0.140625" y1="19.9646" x2="37.8611" y2="19.9646" gradientUnits="userSpaceOnUse">
<stop stop-color="#D0232A"/>
<stop offset="1" stop-color="#DF1F29"/>
</linearGradient>
<linearGradient id="paint1_linear_55_2326" x1="33.3945" y1="17.9747" x2="38.4543" y2="17.9747" gradientUnits="userSpaceOnUse">
<stop stop-color="#D0232A"/>
<stop offset="1" stop-color="#DF1F29"/>
</linearGradient>
<linearGradient id="paint2_linear_55_2326" x1="33.3848" y1="21.853" x2="38.4528" y2="21.853" gradientUnits="userSpaceOnUse">
<stop stop-color="#D0232A"/>
<stop offset="1" stop-color="#DF1F29"/>
</linearGradient>
<linearGradient id="paint3_linear_55_2326" x1="40.6258" y1="19.9391" x2="49.0675" y2="19.9391" gradientUnits="userSpaceOnUse">
<stop stop-color="#D0232A"/>
<stop offset="1" stop-color="#DF1F29"/>
</linearGradient>
<linearGradient id="paint4_linear_55_2326" x1="51.4893" y1="19.9391" x2="58.7411" y2="19.9391" gradientUnits="userSpaceOnUse">
<stop stop-color="#D0232A"/>
<stop offset="1" stop-color="#DF1F29"/>
</linearGradient>
<linearGradient id="paint5_linear_55_2326" x1="59.9443" y1="19.9606" x2="74.3922" y2="19.9606" gradientUnits="userSpaceOnUse">
<stop stop-color="#D0232A"/>
<stop offset="1" stop-color="#DF1F29"/>
</linearGradient>
<linearGradient id="paint6_linear_55_2326" x1="75.1396" y1="19.9399" x2="82.6405" y2="19.9399" gradientUnits="userSpaceOnUse">
<stop stop-color="#D0232A"/>
<stop offset="1" stop-color="#DF1F29"/>
</linearGradient>
</defs>
</svg>
