<svg width="21" height="21" viewBox="0 0 21 21" fill="none" xmlns="http://www.w3.org/2000/svg">
<rect x="0.766602" y="0.78125" width="19.5" height="19.5" rx="9.75" fill="#7649B3"/>
<path fill-rule="evenodd" clip-rule="evenodd" d="M13.5166 8.53027C14.345 8.53027 15.0166 7.8587 15.0166 7.03027C15.0166 6.20185 14.345 5.53027 13.5166 5.53027C12.6882 5.53027 12.0166 6.20185 12.0166 7.03027C12.0166 7.17286 12.0365 7.3108 12.0737 7.44147C12.0597 7.44748 12.046 7.4544 12.0325 7.46225L8.62251 9.45225C8.60912 9.46006 8.59639 9.46858 8.58435 9.47773C8.31236 9.20209 7.93443 9.03125 7.5166 9.03125C6.68817 9.03125 6.0166 9.70282 6.0166 10.5312C6.0166 11.3597 6.68817 12.0312 7.5166 12.0312C7.93507 12.0312 8.31351 11.8599 8.58559 11.5835C8.59733 11.5924 8.60971 11.6006 8.62272 11.6082L12.0377 13.5982C12.0496 13.6051 12.0617 13.6113 12.074 13.6168C12.0366 13.7479 12.0166 13.8862 12.0166 14.0293C12.0166 14.8577 12.6882 15.5293 13.5166 15.5293C14.345 15.5293 15.0166 14.8577 15.0166 14.0293C15.0166 13.2009 14.345 12.5293 13.5166 12.5293C13.0998 12.5293 12.7228 12.6993 12.4509 12.9737C12.4396 12.9653 12.4278 12.9574 12.4153 12.9502L9.00033 10.9602C8.98722 10.9525 8.97384 10.9458 8.96026 10.9399C8.99696 10.81 9.0166 10.6729 9.0166 10.5312C9.0166 10.3889 8.99677 10.2511 8.95971 10.1207C8.97355 10.1147 8.98718 10.1078 9.00053 10.1L12.4105 8.11002C12.4241 8.10209 12.437 8.09344 12.4492 8.08415C12.7212 8.35958 13.0989 8.53027 13.5166 8.53027Z" fill="white"/>
</svg>
