<svg width="16" height="13" viewBox="0 0 16 13" fill="none" xmlns="http://www.w3.org/2000/svg">
<path fill-rule="evenodd" clip-rule="evenodd" d="M2.00277 0.625H13.4569C13.9632 0.625 14.4488 0.826129 14.8068 1.18414C15.1648 1.54215 15.3659 2.02772 15.3659 2.53402V3.42035H0.09375V2.53402C0.09375 2.02772 0.294879 1.54215 0.65289 1.18414C1.0109 0.826129 1.49647 0.625 2.00277 0.625ZM0.65289 12.0645C0.294879 11.7065 0.09375 11.221 0.09375 10.7147V5.46484H15.3659V10.7147C15.3659 11.221 15.1648 11.7065 14.8068 12.0645C14.4488 12.4226 13.9632 12.6237 13.4569 12.6237H2.00277C1.49647 12.6237 1.0109 12.4226 0.65289 12.0645ZM2.64321 7.40069C2.45142 7.59248 2.34367 7.85261 2.34367 8.12384V8.80563C2.34367 9.07687 2.45142 9.33699 2.64321 9.52879C2.835 9.72058 3.09513 9.82833 3.36636 9.82833H5.00267C5.2739 9.82833 5.53403 9.72058 5.72582 9.52879C5.91761 9.33699 6.02536 9.07687 6.02536 8.80563V8.12384C6.02536 7.85261 5.91761 7.59248 5.72582 7.40069C5.53403 7.2089 5.2739 7.10115 5.00267 7.10115H3.36636C3.09513 7.10115 2.835 7.2089 2.64321 7.40069Z" fill="#FB8308"/>
</svg>
