<svg width="27" height="25" viewBox="0 0 27 25" fill="none" xmlns="http://www.w3.org/2000/svg">
<path fill-rule="evenodd" clip-rule="evenodd" d="M12.22 5.31577C11.9025 5.32942 11.7784 5.7374 12.0368 5.92441L15.4616 8.48088C15.3838 8.81139 15.5127 9.15683 15.787 9.35717L18.1467 11.1183C18.4477 11.3418 18.8594 11.3418 19.1588 11.1183L20.4072 10.1874V14.2568C20.6968 13.9148 21.0638 13.6319 21.502 13.4436C21.8807 13.2798 22.2776 13.2036 22.6643 13.2001C22.9193 13.1985 23.1701 13.2347 23.4136 13.2963L24.6569 11.3533V10.7434L25.1087 11.2907L23.7511 13.4056C24.2683 13.6037 24.7414 13.9393 25.0855 14.3974C25.1436 14.3444 25.1947 14.2869 25.2376 14.2206L26.8667 11.6857C27.0651 11.3748 27.0403 10.9732 26.807 10.6903L24.7004 8.1418C24.5401 7.94844 24.3016 7.83573 24.0489 7.83573H21.0162C20.8343 7.83446 20.6555 7.89383 20.5082 8.00305L18.6543 9.38701L16.7992 8.00305C16.6405 7.8824 16.4452 7.82112 16.2452 7.82938C16.1131 7.83573 15.9823 7.87383 15.8667 7.94019L12.4419 5.3834C12.3787 5.33577 12.2997 5.31228 12.22 5.31577Z" fill="#7E57C2"/>
<path fill-rule="evenodd" clip-rule="evenodd" d="M20.7441 6.23072C21.1708 7.21781 22.3166 7.6731 23.3056 7.24639C24.2911 6.82126 24.7458 5.67542 24.3191 4.68991C23.8927 3.70282 22.7481 3.24817 21.761 3.67266C20.772 4.09937 20.3189 5.24363 20.7441 6.23072Z" fill="#7E57C2"/>
<path d="M2.48496 19.3076C1.46803 19.3076 0.643173 20.0172 0.318692 20.7398C-0.0188052 21.492 -0.0483322 22.2762 0.0491388 22.774C0.146927 23.2715 0.234556 23.5262 0.403146 23.7659C0.563481 23.991 0.853037 24.1993 1.11592 24.2739H7.52044C7.78332 24.1993 8.07066 23.991 8.23131 23.7659C8.40181 23.5262 8.48943 23.2715 8.58691 22.774C8.68311 22.2762 8.65453 21.4923 8.31767 20.7398C7.99351 20.0172 7.16992 19.3076 6.15267 19.3076H2.48496Z" fill="#7E57C2"/>
<path fill-rule="evenodd" clip-rule="evenodd" d="M2.15588 17.1289C2.67181 18.3249 4.06086 18.8751 5.25972 18.3595C6.4535 17.8436 7.00436 16.4545 6.48811 15.2604C5.97091 14.0632 4.58314 13.5126 3.38777 14.0286C2.1889 14.5445 1.63964 15.9316 2.15588 17.1289Z" fill="#7E57C2"/>
<path d="M11.6672 19.3055C10.6499 19.3055 9.82475 20.0151 9.50059 20.7377C9.16373 21.4917 9.13357 22.274 9.23135 22.7719C9.33041 23.2694 9.41645 23.524 9.58695 23.7637C9.7457 23.9888 10.0349 24.1971 10.2978 24.2717H16.7023C16.9652 24.1971 17.2532 23.9888 17.4135 23.7637C17.5837 23.524 17.6713 23.2694 17.7691 22.7719C17.8666 22.274 17.8367 21.4917 17.4996 20.7377C17.1754 20.0151 16.3518 19.3055 15.3352 19.3055H11.6672ZM13.4858 13.835C13.18 13.8385 12.8689 13.8998 12.5698 14.0284C11.371 14.5443 10.822 15.9318 11.3379 17.1274C11.8539 18.3247 13.2429 18.8749 14.4402 18.3593C15.6362 17.8434 16.1864 16.4544 15.6708 15.2603C15.2822 14.3627 14.4037 13.8287 13.4858 13.835Z" fill="#7E57C2"/>
<path d="M20.8497 19.3076C19.8328 19.3076 19.0073 20.0172 18.6834 20.7398C18.3459 21.492 18.3164 22.2762 18.4139 22.774C18.5117 23.2715 18.5993 23.5262 18.7695 23.7659C18.9282 23.991 19.2178 24.1993 19.4807 24.2739H25.8852C26.1481 24.1993 26.4354 23.991 26.5961 23.7659C26.7666 23.5262 26.8542 23.2715 26.9517 22.774C27.0494 22.2762 27.0193 21.4923 26.6821 20.7398C26.3583 20.0172 25.5344 19.3076 24.5177 19.3076H20.8497Z" fill="#7E57C2"/>
<path fill-rule="evenodd" clip-rule="evenodd" d="M20.521 17.1289C21.0366 18.3249 22.426 18.8751 23.6248 18.3595C24.8186 17.8436 25.3695 16.4545 24.8532 15.2604C24.3354 14.0632 22.9482 13.5126 21.7529 14.0286C20.554 14.5445 20.0051 15.9316 20.521 17.1289Z" fill="#7E57C2"/>
<path fill-rule="evenodd" clip-rule="evenodd" d="M5.22478 0.944653C4.99333 0.944653 4.80664 1.13293 4.80664 1.3647V12.7152C4.80664 12.9466 4.99333 13.1333 5.22478 13.1352H19.7635V12.2954H5.64483V1.78633H21.3539V3.09441H22.1943V1.36438C22.1943 1.13293 22.0054 0.944336 21.7742 0.944336L5.22478 0.944653Z" fill="#7E57C2"/>
</svg>
