<svg width="17" height="18" viewBox="0 0 17 18" fill="none" xmlns="http://www.w3.org/2000/svg">
<path fill-rule="evenodd" clip-rule="evenodd" d="M9.6542 15.648H0.845894C0.631027 15.648 0.451172 15.47 0.451172 15.2504C0.451172 11.7371 3.29929 8.88894 6.81262 8.88894C8.27217 8.88894 9.61692 9.38048 10.6904 10.2071C11.3368 9.75232 12.1249 9.48533 12.9753 9.48533C15.1711 9.48533 16.9512 11.2654 16.9512 13.4612C16.9512 15.6571 15.1711 17.4371 12.9753 17.4371C11.5873 17.4371 10.3654 16.7259 9.6542 15.648ZM6.81262 8.09376C4.83637 8.09376 3.2343 6.4917 3.2343 4.51545C3.2343 2.5392 4.83637 0.937134 6.81262 0.937134C8.78887 0.937134 10.3909 2.5392 10.3909 4.51545C10.3909 6.4917 8.78887 8.09376 6.81262 8.09376ZM12.9753 16.2444C14.5124 16.2444 15.7584 14.9983 15.7584 13.4612C15.7584 11.9241 14.5124 10.6781 12.9753 10.6781C11.4382 10.6781 10.1921 11.9241 10.1921 13.4612C10.1921 14.9983 11.4382 16.2444 12.9753 16.2444ZM11.7825 12.8648H14.168C14.4974 12.8648 14.7644 13.1319 14.7644 13.4612C14.7644 13.7906 14.4974 14.0576 14.168 14.0576H11.7825C11.4531 14.0576 11.1861 13.7906 11.1861 13.4612C11.1861 13.1319 11.4531 12.8648 11.7825 12.8648Z" fill="#FB8308"/>
</svg>
