<svg width="23" height="22" viewBox="0 0 23 22" fill="none" xmlns="http://www.w3.org/2000/svg">
<rect x="0.5" width="22" height="22" rx="11" fill="white"/>
<path d="M16.565 9.39756L9.99905 15.9829C9.65758 16.3146 9.2088 16.5 8.7405 16.5H6.4478C6.32097 16.5 6.20389 16.4512 6.11609 16.3634C6.02828 16.2756 5.98926 16.1585 5.98926 16.0317L6.04779 13.7195C6.05755 13.261 6.24292 12.8317 6.56487 12.5098L11.2186 7.8561C11.2966 7.77805 11.4332 7.77805 11.5113 7.8561L13.1405 9.47561C13.2479 9.58293 13.404 9.65122 13.5698 9.65122C13.9308 9.65122 14.2137 9.35854 14.2137 9.00732C14.2137 8.83171 14.1454 8.67561 14.0381 8.55854C14.0088 8.51951 12.4576 6.97805 12.4576 6.97805C12.36 6.88049 12.36 6.71463 12.4576 6.61707L13.1113 5.95366C13.7161 5.34878 14.6918 5.34878 15.2967 5.95366L16.565 7.22195C17.1601 7.81707 17.1601 8.79268 16.565 9.39756" fill="#FB8308"/>
</svg>
