<svg width="24" height="15" viewBox="0 0 24 15" fill="none" xmlns="http://www.w3.org/2000/svg">
<path fill-rule="evenodd" clip-rule="evenodd" d="M2.83378 14.7806C8.85417 14.7806 8.13245 14.7806 14.1528 14.7806C15.2834 14.7806 16.2083 13.8557 16.2083 12.7251C16.2083 8.76259 16.2083 6.89653 16.2083 2.93437C16.2083 1.80384 15.2834 0.878906 14.1528 0.878906C9.58299 0.878906 7.40323 0.878906 2.83378 0.878906C1.70326 0.878906 0.77832 1.80384 0.77832 2.93437C0.77832 6.89653 0.77832 8.76259 0.77832 12.7251C0.77832 13.8557 1.70326 14.7806 2.83378 14.7806ZM17.8834 4.85212L22.0499 3.00658C22.3285 2.88347 22.6257 2.90714 22.881 3.07327C23.1363 3.23939 23.2783 3.50141 23.2783 3.80604C23.2783 6.48852 23.2783 9.171 23.2783 11.8535C23.2783 12.1581 23.1363 12.4201 22.881 12.5862C22.6257 12.7524 22.3285 12.776 22.0499 12.6529L17.8834 10.8074V4.85212Z" fill="#FB8308"/>
</svg>
