<svg width="27" height="25" viewBox="0 0 27 25" fill="none" xmlns="http://www.w3.org/2000/svg">
<path fill-rule="evenodd" clip-rule="evenodd" d="M3.60884 0.395508L1.46556 6.82407H0.000488281V2.32408C0.000488281 1.81236 0.203629 1.32186 0.565557 0.960577C0.926842 0.598649 1.41734 0.395508 1.92906 0.395508H3.60884ZM4.96408 0.395508L2.82079 6.82407H6.60851L8.75179 0.395508H4.96408ZM7.96374 6.82407L10.107 0.395508H13.8947L11.7515 6.82407H7.96374ZM15.2498 0.395508L13.1065 6.82407H16.8942L19.0375 0.395508H15.2498ZM18.2495 6.82407L20.3927 0.395508H24.1805L22.0372 6.82407H18.2495ZM25.5181 0.448242C25.8627 0.530528 26.1809 0.706673 26.4355 0.961244C26.7974 1.32253 27.0006 1.81303 27.0006 2.32474V6.82474H23.3922L25.5181 0.448242ZM27.0004 22.8951V8.10938H0.000488281V22.8951C0.000488281 23.4068 0.203629 23.8973 0.565557 24.2586C0.926842 24.6205 1.41734 24.8236 1.92906 24.8236H25.0719C25.5836 24.8236 26.0741 24.6205 26.4354 24.2586C26.7973 23.8973 27.0004 23.4068 27.0004 22.8951ZM12.5715 19.5728L16.4287 17.0014C16.6074 16.8824 16.7147 16.6812 16.7147 16.4665C16.7147 16.2518 16.6074 16.0506 16.4287 15.9316L12.5715 13.3602C12.3742 13.2284 12.1203 13.2162 11.9113 13.3281C11.7024 13.4399 11.5719 13.6579 11.5719 13.8951V19.0379C11.5719 19.2751 11.7024 19.4931 11.9113 19.6049C12.1203 19.7168 12.3742 19.7046 12.5715 19.5728Z" fill="#C11F50"/>
</svg>
