<svg width="17" height="18" viewBox="0 0 17 18" fill="none" xmlns="http://www.w3.org/2000/svg">
<path d="M6.98322 6.42354C8.56976 6.04891 9.55221 4.45908 9.17758 2.87254C8.80295 1.28601 7.21312 0.30356 5.62658 0.678186C4.04005 1.05281 3.0576 2.64265 3.43223 4.22918C3.80685 5.81572 5.39669 6.79817 6.98322 6.42354Z" fill="white"/>
<path d="M11.6834 9.86884C11.6948 9.86884 11.7061 9.86884 11.7191 9.86884C10.9146 8.33942 9.43388 7.2544 7.71633 6.96246C7.28167 7.14249 6.80647 7.24305 6.30693 7.24305C5.80902 7.24305 5.33219 7.14411 4.89754 6.96408C2.24255 7.41334 0.25415 9.76179 0.25415 12.4671V13.4596C0.25415 13.9738 0.67259 14.3938 1.18672 14.3938H8.93597C8.71215 13.9657 8.58565 13.4807 8.58565 12.965C8.58727 11.2571 9.97558 9.86884 11.6834 9.86884Z" fill="white"/>
<path d="M11.6834 10.6055C10.3843 10.6055 9.3252 11.663 9.3252 12.9621C9.3252 14.2612 10.3826 15.3187 11.6834 15.3187C12.9825 15.3187 14.0399 14.2612 14.0399 12.9621C14.0399 11.663 12.9825 10.6055 11.6834 10.6055ZM13.662 12.9637C13.662 13.1681 13.4966 13.3319 13.2939 13.3319H12.0515V14.5742C12.0515 14.7786 11.8861 14.9424 11.6834 14.9424C11.479 14.9424 11.3136 14.777 11.3136 14.5742V13.3319H10.0713C9.8669 13.3319 9.70309 13.1664 9.70309 12.9637C9.70309 12.7594 9.86852 12.5956 10.0713 12.5956H11.3136V11.3532C11.3136 11.1489 11.479 10.985 11.6834 10.985C11.8877 10.985 12.0515 11.1505 12.0515 11.3532V12.5956H13.2939C13.4966 12.5939 13.662 12.7594 13.662 12.9637Z" fill="white"/>
<rect x="6.44385" y="7.6861" width="9.37325" height="9.37325" rx="4.68662" fill="white" stroke="#FB8308" stroke-width="1.125"/>
<path d="M11.13 14.9094V12.3715M11.13 12.3715V9.83356M11.13 12.3715L13.6525 12.3715M11.13 12.3715H8.60742" stroke="#FB8308" stroke-width="1.5" stroke-linecap="round"/>
</svg>
