<svg width="33" height="28" viewBox="0 0 33 28" fill="none" xmlns="http://www.w3.org/2000/svg">
<path d="M9.43993 2.13548C2.95819 5.0122 -0.610411 11.9673 1.4652 17.7208C2.52122 20.6339 4.7789 22.6367 7.61922 23.5835C8.78447 23.9476 9.98614 23.2922 10.4959 22.1269C10.4959 22.1269 10.4959 22.1269 10.4959 22.0905C11.9525 18.886 14.283 16.9197 15.7396 17.7572C16.9049 18.4127 17.0869 20.6339 16.3586 23.1465C16.5407 23.0737 16.7228 23.0009 16.9049 22.928C23.3866 20.0513 26.9552 13.0598 24.8796 7.3063C22.804 1.55285 15.8853 -0.741251 9.43993 2.13548ZM9.00296 7.45196C8.6024 6.32312 9.18503 4.97579 10.2775 4.46599C11.4063 3.95619 12.6444 4.5024 13.0449 5.63125C13.4455 6.76009 12.8629 8.10742 11.7704 8.61722C10.6416 9.12702 9.40351 8.61722 9.00296 7.45196ZM9.76766 15.0261C10.4231 16.0457 10.1318 17.4295 9.1122 18.1942C8.0926 18.9225 6.78169 18.704 6.12623 17.7208C5.47077 16.7012 5.76209 15.3174 6.78169 14.5527C7.76487 13.8245 9.1122 14.0429 9.76766 15.0261ZM9.29427 11.4211C8.93013 12.6228 7.69204 13.3511 6.5632 13.0233C5.43436 12.6956 4.81532 11.4575 5.17946 10.2559C5.5436 9.05419 6.78169 8.3259 7.91053 8.65363C9.07579 8.98136 9.69483 10.2194 9.29427 11.4211ZM21.4931 10.8749C21.6387 12.113 20.8012 13.2782 19.6359 13.4967C18.4343 13.7152 17.3782 12.9141 17.2326 11.7124C17.0869 10.4743 17.9245 9.30909 19.0897 9.0906C20.255 8.87212 21.3474 9.67323 21.4931 10.8749ZM18.2522 7.8161C17.6331 8.90853 16.2858 9.3455 15.2662 8.76288C14.2466 8.18025 13.9189 6.83292 14.5379 5.70408C15.157 4.61165 16.5043 4.17468 17.5239 4.7573C18.5435 5.33993 18.8712 6.72368 18.2522 7.8161Z" fill="#AB47BC"/>
<path d="M23.7511 24.931L21.2749 21.9086L30.3421 13.9703C30.8519 13.4969 31.5437 13.4969 31.9079 13.9339C32.272 14.3709 32.1628 15.0992 31.7258 15.6454L23.7511 24.931Z" fill="#AB47BC"/>
<path d="M21.2748 27.2963C21.6025 27.1143 21.8938 26.8594 22.1123 26.4952C22.6221 25.7305 22.6585 24.6745 22.2215 23.8734C21.4932 22.5261 19.891 22.3076 18.9078 23.3272C18.7986 23.4364 18.6893 23.5821 18.6165 23.6913C18.398 24.0555 18.2524 24.456 18.216 24.893C17.9246 25.5484 17.4877 26.2767 16.905 26.3496C15.7762 26.568 14.0283 26.1311 14.0283 26.1311C14.0283 26.1311 16.4317 28.9714 20.8014 27.442C20.947 27.442 21.1291 27.3692 21.2748 27.2963Z" fill="#AB47BC"/>
</svg>
