<svg width="19" height="20" viewBox="0 0 19 20" fill="none" xmlns="http://www.w3.org/2000/svg">
<path fill-rule="evenodd" clip-rule="evenodd" d="M15.5447 2.72194H14.4886V1H13.111V2.72194H5.25899V1H3.88144V2.72194H2.82531C2.15551 2.72194 1.51313 2.98802 1.03951 3.46164C0.565884 3.93527 0.299805 4.57764 0.299805 5.24745V16.4745C0.299805 17.1443 0.565884 17.7867 1.03951 18.2603C1.51313 18.7339 2.15551 19 2.82531 19H15.5447C16.2145 19 16.8569 18.7339 17.3305 18.2603C17.8041 17.7867 18.0702 17.1443 18.0702 16.4745V5.24745C18.0702 4.57764 17.8041 3.93527 17.3305 3.46164C16.8569 2.98802 16.2145 2.72194 15.5447 2.72194ZM2.84827 4.09949H3.9044V5.59184H5.28195V4.09949H13.111V5.59184H14.4886V4.09949H15.5447C15.8492 4.09949 16.1411 4.22043 16.3564 4.43572C16.5717 4.651 16.6927 4.94299 16.6927 5.24745V6.64796H1.67735V5.24745C1.67735 4.94299 1.7983 4.651 2.01358 4.43572C2.22887 4.22043 2.52086 4.09949 2.82531 4.09949H2.84827ZM15.5447 17.6224H2.82531C2.52086 17.6224 2.22887 17.5015 2.01358 17.2862C1.7983 17.0709 1.67735 16.7789 1.67735 16.4745V8.02551H16.6927V16.4745C16.6927 16.6252 16.663 16.7745 16.6053 16.9138C16.5476 17.0531 16.463 17.1796 16.3564 17.2862C16.2498 17.3928 16.1233 17.4774 15.984 17.5351C15.8447 17.5927 15.6954 17.6224 15.5447 17.6224ZM10.7006 9.35547H7.69291V12.3608H10.7006V9.35547ZM3.42212 9.3584H6.42977V12.3638H3.42212V9.3584ZM14.9706 9.35547H11.9629V12.3608H14.9706V9.35547ZM7.69287 13.2607H10.7005V16.2661H7.69287V13.2607ZM6.42977 13.2607H3.42212V16.2661H6.42977V13.2607ZM11.9629 13.2607H14.9705V16.2661H11.9629V13.2607Z" fill="#FB8308"/>
<path d="M14.4886 2.72194H14.3761V2.83444H14.4886V2.72194ZM14.4886 1H14.6011V0.8875H14.4886V1ZM13.111 1V0.8875H12.9985V1H13.111ZM13.111 2.72194V2.83444H13.2235V2.72194H13.111ZM5.25899 2.72194H5.14649V2.83444H5.25899V2.72194ZM5.25899 1H5.37149V0.8875H5.25899V1ZM3.88144 1V0.8875H3.76894V1H3.88144ZM3.88144 2.72194V2.83444H3.99394V2.72194H3.88144ZM1.03951 3.46164L0.95996 3.38209L0.95996 3.38209L1.03951 3.46164ZM1.03951 18.2603L1.11906 18.1807L1.11906 18.1807L1.03951 18.2603ZM17.3305 3.46164L17.41 3.38209L17.41 3.38209L17.3305 3.46164ZM3.9044 4.09949H4.0169V3.98699H3.9044V4.09949ZM3.9044 5.59184H3.7919V5.70434H3.9044V5.59184ZM5.28195 5.59184V5.70434H5.39445V5.59184H5.28195ZM5.28195 4.09949V3.98699H5.16945V4.09949H5.28195ZM13.111 4.09949H13.2235V3.98699H13.111V4.09949ZM13.111 5.59184H12.9985V5.70434H13.111V5.59184ZM14.4886 5.59184V5.70434H14.6011V5.59184H14.4886ZM14.4886 4.09949V3.98699H14.3761V4.09949H14.4886ZM16.3564 4.43572L16.2769 4.51527L16.2769 4.51527L16.3564 4.43572ZM16.6927 6.64796V6.76046H16.8052V6.64796H16.6927ZM1.67735 6.64796H1.56485V6.76046H1.67735V6.64796ZM1.67735 8.02551V7.91301H1.56485V8.02551H1.67735ZM16.6927 8.02551H16.8052V7.91301H16.6927V8.02551ZM16.6053 16.9138L16.5013 16.8707L16.5013 16.8707L16.6053 16.9138ZM16.3564 17.2862L16.2769 17.2067L16.2769 17.2067L16.3564 17.2862ZM15.984 17.5351L16.0271 17.639L16.0271 17.639L15.984 17.5351ZM7.69291 9.35547V9.24297H7.58041V9.35547H7.69291ZM10.7006 9.35547H10.8131V9.24297H10.7006V9.35547ZM7.69291 12.3608H7.58041V12.4733H7.69291V12.3608ZM10.7006 12.3608V12.4733H10.8131V12.3608H10.7006ZM6.42977 9.3584H6.54227V9.2459H6.42977V9.3584ZM3.42212 9.3584V9.2459H3.30962V9.3584H3.42212ZM6.42977 12.3638V12.4763H6.54227V12.3638H6.42977ZM3.42212 12.3638H3.30962V12.4763H3.42212V12.3638ZM11.9629 9.35547V9.24297H11.8504V9.35547H11.9629ZM14.9706 9.35547H15.0831V9.24297H14.9706V9.35547ZM11.9629 12.3608H11.8504V12.4733H11.9629V12.3608ZM14.9706 12.3608V12.4733H15.0831V12.3608H14.9706ZM10.7005 13.2607H10.813V13.1482H10.7005V13.2607ZM7.69287 13.2607V13.1482H7.58037V13.2607H7.69287ZM10.7005 16.2661V16.3786H10.813V16.2661H10.7005ZM7.69287 16.2661H7.58037V16.3786H7.69287V16.2661ZM3.42212 13.2607V13.1482H3.30962V13.2607H3.42212ZM6.42977 13.2607H6.54227V13.1482H6.42977V13.2607ZM3.42212 16.2661H3.30962V16.3786H3.42212V16.2661ZM6.42977 16.2661V16.3786H6.54227V16.2661H6.42977ZM14.9705 13.2607H15.083V13.1482H14.9705V13.2607ZM11.9629 13.2607V13.1482H11.8504V13.2607H11.9629ZM14.9705 16.2661V16.3786H15.083V16.2661H14.9705ZM11.9629 16.2661H11.8504V16.3786H11.9629V16.2661ZM14.4886 2.83444H15.5447V2.60944H14.4886V2.83444ZM14.3761 1V2.72194H14.6011V1H14.3761ZM13.111 1.1125H14.4886V0.8875H13.111V1.1125ZM13.2235 2.72194V1H12.9985V2.72194H13.2235ZM5.25899 2.83444H13.111V2.60944H5.25899V2.83444ZM5.14649 1V2.72194H5.37149V1H5.14649ZM3.88144 1.1125H5.25899V0.8875H3.88144V1.1125ZM3.99394 2.72194V1H3.76894V2.72194H3.99394ZM2.82531 2.83444H3.88144V2.60944H2.82531V2.83444ZM1.11906 3.54119C1.57159 3.08867 2.18534 2.83444 2.82531 2.83444V2.60944C2.12567 2.60944 1.45468 2.88737 0.95996 3.38209L1.11906 3.54119ZM0.412305 5.24745C0.412305 4.60748 0.666532 3.99372 1.11906 3.54119L0.95996 3.38209C0.465237 3.87682 0.187305 4.5478 0.187305 5.24745H0.412305ZM0.412305 16.4745V5.24745H0.187305V16.4745H0.412305ZM1.11906 18.1807C0.666532 17.7282 0.412305 17.1145 0.412305 16.4745H0.187305C0.187305 17.1741 0.465237 17.8451 0.95996 18.3398L1.11906 18.1807ZM2.82531 18.8875C2.18534 18.8875 1.57159 18.6333 1.11906 18.1807L0.95996 18.3398C1.45468 18.8346 2.12567 19.1125 2.82531 19.1125V18.8875ZM15.5447 18.8875H2.82531V19.1125H15.5447V18.8875ZM17.251 18.1807C16.7984 18.6333 16.1847 18.8875 15.5447 18.8875V19.1125C16.2443 19.1125 16.9153 18.8346 17.41 18.3398L17.251 18.1807ZM17.9577 16.4745C17.9577 17.1145 17.7035 17.7282 17.251 18.1807L17.41 18.3398C17.9048 17.8451 18.1827 17.1741 18.1827 16.4745H17.9577ZM17.9577 5.24745V16.4745H18.1827V5.24745H17.9577ZM17.251 3.54119C17.7035 3.99372 17.9577 4.60748 17.9577 5.24745H18.1827C18.1827 4.5478 17.9048 3.87682 17.41 3.38209L17.251 3.54119ZM15.5447 2.83444C16.1847 2.83444 16.7984 3.08867 17.251 3.54119L17.41 3.38209C16.9153 2.88737 16.2443 2.60944 15.5447 2.60944V2.83444ZM3.9044 3.98699H2.84827V4.21199H3.9044V3.98699ZM4.0169 5.59184V4.09949H3.7919V5.59184H4.0169ZM5.28195 5.47934H3.9044V5.70434H5.28195V5.47934ZM5.16945 4.09949V5.59184H5.39445V4.09949H5.16945ZM13.111 3.98699H5.28195V4.21199H13.111V3.98699ZM13.2235 5.59184V4.09949H12.9985V5.59184H13.2235ZM14.4886 5.47934H13.111V5.70434H14.4886V5.47934ZM14.3761 4.09949V5.59184H14.6011V4.09949H14.3761ZM15.5447 3.98699H14.4886V4.21199H15.5447V3.98699ZM16.436 4.35617C16.1996 4.11979 15.879 3.98699 15.5447 3.98699V4.21199C15.8193 4.21199 16.0827 4.32108 16.2769 4.51527L16.436 4.35617ZM16.8052 5.24745C16.8052 4.91315 16.6724 4.59255 16.436 4.35617L16.2769 4.51527C16.4711 4.70945 16.5802 4.97283 16.5802 5.24745H16.8052ZM16.8052 6.64796V5.24745H16.5802V6.64796H16.8052ZM1.67735 6.76046H16.6927V6.53546H1.67735V6.76046ZM1.56485 5.24745V6.64796H1.78985V5.24745H1.56485ZM1.93403 4.35617C1.69765 4.59255 1.56485 4.91315 1.56485 5.24745H1.78985C1.78985 4.97283 1.89895 4.70945 2.09313 4.51527L1.93403 4.35617ZM2.82531 3.98699C2.49102 3.98699 2.17042 4.11979 1.93403 4.35617L2.09313 4.51527C2.28732 4.32108 2.55069 4.21199 2.82531 4.21199V3.98699ZM2.84827 3.98699H2.82531V4.21199H2.84827V3.98699ZM2.82531 17.7349H15.5447V17.5099H2.82531V17.7349ZM1.93403 17.3658C2.17042 17.6021 2.49102 17.7349 2.82531 17.7349V17.5099C2.55069 17.5099 2.28732 17.4008 2.09313 17.2067L1.93403 17.3658ZM1.56485 16.4745C1.56485 16.8088 1.69765 17.1294 1.93403 17.3658L2.09313 17.2067C1.89895 17.0125 1.78985 16.7491 1.78985 16.4745H1.56485ZM1.56485 8.02551V16.4745H1.78985V8.02551H1.56485ZM16.6927 7.91301H1.67735V8.13801H16.6927V7.91301ZM16.8052 16.4745V8.02551H16.5802V16.4745H16.8052ZM16.7092 16.9568C16.7726 16.8039 16.8052 16.64 16.8052 16.4745H16.5802C16.5802 16.6105 16.5534 16.7451 16.5013 16.8707L16.7092 16.9568ZM16.436 17.3658C16.553 17.2487 16.6459 17.1098 16.7092 16.9568L16.5013 16.8707C16.4493 16.9964 16.373 17.1105 16.2769 17.2067L16.436 17.3658ZM16.0271 17.639C16.18 17.5757 16.3189 17.4828 16.436 17.3658L16.2769 17.2067C16.1807 17.3028 16.0666 17.3791 15.9409 17.4311L16.0271 17.639ZM15.5447 17.7349C15.7102 17.7349 15.8741 17.7023 16.0271 17.639L15.9409 17.4311C15.8153 17.4832 15.6807 17.5099 15.5447 17.5099V17.7349ZM7.69291 9.46797H10.7006V9.24297H7.69291V9.46797ZM7.80541 12.3608V9.35547H7.58041V12.3608H7.80541ZM10.7006 12.2483H7.69291V12.4733H10.7006V12.2483ZM10.5881 9.35547V12.3608H10.8131V9.35547H10.5881ZM6.42977 9.2459H3.42212V9.4709H6.42977V9.2459ZM6.54227 12.3638V9.3584H6.31727V12.3638H6.54227ZM3.42212 12.4763H6.42977V12.2513H3.42212V12.4763ZM3.30962 9.3584V12.3638H3.53462V9.3584H3.30962ZM11.9629 9.46797H14.9706V9.24297H11.9629V9.46797ZM12.0754 12.3608V9.35547H11.8504V12.3608H12.0754ZM14.9706 12.2483H11.9629V12.4733H14.9706V12.2483ZM14.8581 9.35547V12.3608H15.0831V9.35547H14.8581ZM10.7005 13.1482H7.69287V13.3732H10.7005V13.1482ZM10.813 16.2661V13.2607H10.588V16.2661H10.813ZM7.69287 16.3786H10.7005V16.1536H7.69287V16.3786ZM7.58037 13.2607V16.2661H7.80537V13.2607H7.58037ZM3.42212 13.3732H6.42977V13.1482H3.42212V13.3732ZM3.53462 16.2661V13.2607H3.30962V16.2661H3.53462ZM6.42977 16.1536H3.42212V16.3786H6.42977V16.1536ZM6.31727 13.2607V16.2661H6.54227V13.2607H6.31727ZM14.9705 13.1482H11.9629V13.3732H14.9705V13.1482ZM15.083 16.2661V13.2607H14.858V16.2661H15.083ZM11.9629 16.3786H14.9705V16.1536H11.9629V16.3786ZM11.8504 13.2607V16.2661H12.0754V13.2607H11.8504Z" fill="#FB8308"/>
</svg>
