<svg width="18" height="17" viewBox="0 0 18 17" fill="none" xmlns="http://www.w3.org/2000/svg">
<path d="M9.16016 0.383789C4.60393 0.383789 0.910156 4.07757 0.910156 8.63379C0.910156 13.19 4.60393 16.8838 9.16016 16.8838C13.7164 16.8838 17.4102 13.19 17.4102 8.63379C17.4102 4.07757 13.7164 0.383789 9.16016 0.383789ZM3.56195 11.9034C3.0001 10.9434 2.67796 9.82623 2.67796 8.63379C2.67796 5.05372 5.58025 2.1516 9.16016 2.1516C10.5933 2.1516 11.9173 2.54264 12.9904 3.33036L3.56195 11.8748V11.9034ZM9.16016 15.1444C7.72696 15.1444 6.40303 14.7533 5.32976 13.9658L14.7585 5.42099V5.39261C15.3204 6.35234 15.6423 7.46973 15.6423 8.66217C15.6422 12.2422 12.7402 15.1444 9.16016 15.1444Z" fill="#FB8308"/>
</svg>
