<svg width="31" height="33" viewBox="0 0 31 33" fill="none" xmlns="http://www.w3.org/2000/svg">
<path fill-rule="evenodd" clip-rule="evenodd" d="M22.2435 32.0197C21.0762 32.0107 19.9141 31.8585 18.7812 31.5662C14.8688 30.5856 10.8401 28.0981 7.43894 24.5617C4.03777 21.0254 1.64023 16.8394 0.696291 12.7791C-0.297645 8.50783 0.411244 4.85365 2.69013 2.48626L3.34082 1.8103C3.93118 1.19824 4.73117 0.854492 5.56524 0.854492C6.3993 0.854492 7.19929 1.19824 7.78965 1.8103L11.5289 5.69394C12.1184 6.30703 12.4495 7.13816 12.4495 8.00474C12.4495 8.87132 12.1184 9.70246 11.5289 10.3155L9.3201 12.6093C10.379 14.5395 11.8191 16.4712 13.5212 18.2394C15.2233 20.0076 17.0843 21.5044 18.9416 22.6044L21.1496 20.3099C21.4417 20.0064 21.7884 19.7656 22.1701 19.6013C22.5518 19.437 22.9609 19.3525 23.374 19.3525C23.7871 19.3525 24.1962 19.437 24.5779 19.6013C24.9596 19.7656 25.3063 20.0064 25.5984 20.3099L29.3369 24.1935C29.9266 24.8064 30.2578 25.6374 30.2578 26.504C30.2578 27.3705 29.9266 28.2015 29.3369 28.8144L28.6854 29.4903C27.0789 31.1624 24.8552 32.0197 22.2435 32.0197ZM5.56524 3.17849C5.44609 3.17788 5.32803 3.20197 5.21797 3.24935C5.1079 3.29674 5.00805 3.36647 4.92425 3.45445L4.27282 4.13041C2.56626 5.90324 2.0678 8.78147 2.86922 12.2302C3.71765 15.8836 5.90177 19.6797 9.01864 22.9168C12.1355 26.154 15.7889 28.4206 19.3065 29.3051C22.6271 30.1376 25.3962 29.6198 27.1028 27.8469L27.7534 27.171C27.9235 26.9942 28.019 26.7546 28.019 26.5047C28.019 26.2549 27.9235 26.0152 27.7534 25.8385L24.0157 21.9548C23.8456 21.7782 23.6149 21.679 23.3744 21.679C23.1339 21.679 22.9032 21.7782 22.733 21.9548L19.934 24.8625C19.7661 25.0371 19.549 25.1516 19.3143 25.1895C19.0795 25.2274 18.8392 25.1867 18.6282 25.0734C16.3336 23.8408 14.0204 22.0463 11.9385 19.8836C9.85662 17.7208 8.1329 15.3193 6.94346 12.9356C6.83423 12.7165 6.79495 12.4669 6.83131 12.2231C6.86766 11.9792 6.97776 11.7536 7.14568 11.5791L9.94542 8.67139C10.1154 8.49464 10.2109 8.255 10.2109 8.00513C10.2109 7.75526 10.1154 7.51562 9.94542 7.33886L6.20697 3.45445C6.12291 3.36662 6.0229 3.297 5.91274 3.24963C5.80258 3.20225 5.68446 3.17807 5.56524 3.17849ZM23.439 18.0401C23.1422 18.0401 22.8575 17.9176 22.6476 17.6996C22.4377 17.4815 22.3197 17.1857 22.3197 16.8774C22.3176 14.8375 21.5366 12.8818 20.1482 11.4394C18.7598 9.99689 16.8773 9.18541 14.9137 9.18295C14.6169 9.18295 14.3322 9.06045 14.1223 8.84239C13.9124 8.62433 13.7944 8.32857 13.7944 8.02019C13.7944 7.7118 13.9124 7.41605 14.1223 7.19799C14.3322 6.97993 14.6169 6.85742 14.9137 6.85742C20.2319 6.85742 24.5583 11.3534 24.5583 16.8774C24.5583 17.1857 24.4404 17.4815 24.2305 17.6996C24.0206 17.9176 23.7359 18.0401 23.439 18.0401ZM27.3785 17.7011C27.5884 17.9192 27.8731 18.0417 28.1699 18.0417C28.4668 18.0417 28.7515 17.9192 28.9614 17.7011C29.1713 17.483 29.2892 17.1873 29.2892 16.8789C29.2892 8.64419 22.8406 1.94434 14.9137 1.94434C14.6169 1.94434 14.3322 2.06684 14.1223 2.2849C13.9124 2.50296 13.7944 2.79872 13.7944 3.1071C13.7944 3.41549 13.9124 3.71124 14.1223 3.9293C14.3322 4.14736 14.6169 4.26987 14.9137 4.26987C21.6034 4.26987 27.0506 9.92633 27.0506 16.8789C27.0506 17.1873 27.1686 17.483 27.3785 17.7011Z" fill="#FB8308"/>
<path d="M18.7812 31.5662L18.7905 31.5299L18.7903 31.5299L18.7812 31.5662ZM22.2435 32.0197L22.2432 32.0572H22.2435V32.0197ZM7.43894 24.5617L7.46597 24.5358L7.46597 24.5358L7.43894 24.5617ZM0.696291 12.7791L0.732817 12.7706L0.732815 12.7706L0.696291 12.7791ZM2.69013 2.48626L2.66312 2.46025L2.66312 2.46025L2.69013 2.48626ZM3.34082 1.8103L3.31383 1.78427L3.3138 1.7843L3.34082 1.8103ZM7.78965 1.8103L7.81667 1.78429L7.81664 1.78427L7.78965 1.8103ZM11.5289 5.69394L11.5559 5.66795L11.5559 5.66793L11.5289 5.69394ZM11.5289 10.3155L11.5559 10.3416L11.5559 10.3415L11.5289 10.3155ZM9.3201 12.6093L9.29309 12.5833C9.28171 12.5951 9.27934 12.6129 9.28723 12.6273L9.3201 12.6093ZM13.5212 18.2394L13.4942 18.2654L13.4942 18.2654L13.5212 18.2394ZM18.9416 22.6044L18.9225 22.6367C18.9374 22.6456 18.9565 22.643 18.9686 22.6304L18.9416 22.6044ZM21.1496 20.3099L21.1766 20.3359L21.1766 20.3359L21.1496 20.3099ZM22.1701 19.6013L22.1849 19.6358L22.1849 19.6358L22.1701 19.6013ZM24.5779 19.6013L24.5631 19.6358L24.5631 19.6358L24.5779 19.6013ZM25.5984 20.3099L25.5714 20.3359L25.5714 20.3359L25.5984 20.3099ZM29.3369 24.1935L29.3639 24.1675L29.3639 24.1675L29.3369 24.1935ZM29.3369 28.8144L29.3639 28.8404L29.3639 28.8404L29.3369 28.8144ZM28.6854 29.4903L28.6584 29.4643L28.6584 29.4643L28.6854 29.4903ZM5.21797 3.24935L5.2328 3.2838L5.2328 3.2838L5.21797 3.24935ZM5.56524 3.17849L5.56504 3.21599L5.56537 3.21599L5.56524 3.17849ZM4.92425 3.45445L4.95125 3.48047L4.95141 3.48031L4.92425 3.45445ZM4.27282 4.13041L4.24582 4.10438L4.2458 4.1044L4.27282 4.13041ZM2.86922 12.2302L2.90575 12.2217L2.90575 12.2217L2.86922 12.2302ZM9.01864 22.9168L8.99163 22.9428L8.99163 22.9428L9.01864 22.9168ZM19.3065 29.3051L19.2973 29.3414L19.2974 29.3414L19.3065 29.3051ZM27.1028 27.8469L27.0757 27.8209L27.0757 27.8209L27.1028 27.8469ZM27.7534 27.171L27.7805 27.197L27.7805 27.197L27.7534 27.171ZM27.7534 25.8385L27.7805 25.8125L27.7805 25.8125L27.7534 25.8385ZM24.0157 21.9548L24.0428 21.9288L24.0427 21.9288L24.0157 21.9548ZM22.733 21.9548L22.706 21.9288L22.706 21.9288L22.733 21.9548ZM19.934 24.8625L19.907 24.8365L19.907 24.8365L19.934 24.8625ZM19.3143 25.1895L19.3083 25.1525L19.3083 25.1525L19.3143 25.1895ZM18.6282 25.0734L18.6459 25.0403L18.6459 25.0403L18.6282 25.0734ZM11.9385 19.8836L11.9115 19.9096L11.9115 19.9096L11.9385 19.8836ZM6.94346 12.9356L6.9099 12.9524L6.90991 12.9524L6.94346 12.9356ZM6.83131 12.2231L6.8684 12.2286L6.8684 12.2286L6.83131 12.2231ZM7.14568 11.5791L7.11867 11.5531L7.11866 11.5531L7.14568 11.5791ZM9.94542 8.67139L9.97243 8.6974L9.97245 8.69739L9.94542 8.67139ZM9.94542 7.33886L9.97245 7.31287L9.97244 7.31286L9.94542 7.33886ZM6.20697 3.45445L6.17987 3.48038L6.17995 3.48046L6.20697 3.45445ZM5.91274 3.24963L5.89792 3.28408L5.89792 3.28408L5.91274 3.24963ZM22.6476 17.6996L22.6746 17.6735L22.6746 17.6735L22.6476 17.6996ZM22.3197 16.8774L22.3572 16.8774L22.3572 16.8773L22.3197 16.8774ZM20.1482 11.4394L20.1212 11.4654L20.1212 11.4654L20.1482 11.4394ZM14.9137 9.18295L14.9138 9.14545H14.9137V9.18295ZM14.1223 8.84239L14.1493 8.81638L14.1493 8.81638L14.1223 8.84239ZM14.1223 7.19799L14.1493 7.22399L14.1493 7.22399L14.1223 7.19799ZM24.2305 17.6996L24.2035 17.6735L24.2035 17.6735L24.2305 17.6996ZM27.3785 17.7011L27.4055 17.6751L27.4055 17.6751L27.3785 17.7011ZM28.9614 17.7011L28.9344 17.6751L28.9344 17.6751L28.9614 17.7011ZM14.1223 2.2849L14.1493 2.31091L14.1493 2.31091L14.1223 2.2849ZM14.1223 3.9293L14.1493 3.90329L14.1493 3.90329L14.1223 3.9293ZM18.7718 31.6026C19.9076 31.8956 21.0729 32.0482 22.2432 32.0572L22.2438 31.9822C21.0796 31.9733 19.9205 31.8214 18.7905 31.5299L18.7718 31.6026ZM7.41191 24.5877C10.8169 28.1281 14.8515 30.62 18.772 31.6026L18.7903 31.5299C14.8861 30.5513 10.8633 28.0681 7.46597 24.5358L7.41191 24.5877ZM0.659765 12.7875C1.60549 16.8556 4.0069 21.0474 7.41191 24.5877L7.46597 24.5358C4.06863 21.0034 1.67497 16.8233 0.732817 12.7706L0.659765 12.7875ZM2.66312 2.46025C0.372584 4.83974 -0.335979 8.50856 0.659767 12.7876L0.732815 12.7706C-0.259311 8.50711 0.449903 4.86756 2.71715 2.51226L2.66312 2.46025ZM3.3138 1.7843L2.66312 2.46025L2.71715 2.51226L3.36784 1.83631L3.3138 1.7843ZM5.56524 0.816992C4.72077 0.816992 3.9111 1.16504 3.31383 1.78427L3.36781 1.83634C3.95126 1.23144 4.74158 0.891992 5.56524 0.891992V0.816992ZM7.81664 1.78427C7.21937 1.16504 6.4097 0.816992 5.56524 0.816992V0.891992C6.38889 0.891992 7.17921 1.23144 7.76266 1.83634L7.81664 1.78427ZM11.5559 5.66793L7.81667 1.78429L7.76264 1.83631L11.5018 5.71995L11.5559 5.66793ZM12.487 8.00474C12.487 7.12867 12.1523 6.28816 11.5559 5.66795L11.5018 5.71993C12.0845 6.32589 12.412 7.14765 12.412 8.00474H12.487ZM11.5559 10.3415C12.1523 9.72132 12.487 8.88081 12.487 8.00474H12.412C12.412 8.86183 12.0845 9.6836 11.5018 10.2896L11.5559 10.3415ZM9.34712 12.6353L11.5559 10.3416L11.5018 10.2895L9.29309 12.5833L9.34712 12.6353ZM13.5482 18.2134C11.8482 16.4473 10.4101 14.5182 9.35298 12.5913L9.28723 12.6273C10.3478 14.5607 11.7901 16.4951 13.4942 18.2654L13.5482 18.2134ZM18.9607 22.5722C17.1067 21.4741 15.2483 19.9795 13.5482 18.2134L13.4942 18.2654C15.1983 20.0357 17.0619 21.5348 18.9225 22.6367L18.9607 22.5722ZM21.1226 20.2839L18.9146 22.5784L18.9686 22.6304L21.1766 20.3359L21.1226 20.2839ZM22.1553 19.5669C21.769 19.7331 21.4181 19.9768 21.1226 20.2839L21.1766 20.3359C21.4653 20.0359 21.8079 19.798 22.1849 19.6358L22.1553 19.5669ZM23.374 19.315C22.9557 19.315 22.5416 19.4006 22.1553 19.5669L22.1849 19.6358C22.562 19.4735 22.966 19.39 23.374 19.39V19.315ZM24.5927 19.5669C24.2064 19.4006 23.7923 19.315 23.374 19.315V19.39C23.782 19.39 24.1861 19.4735 24.5631 19.6358L24.5927 19.5669ZM25.6254 20.2839C25.33 19.9768 24.979 19.7331 24.5927 19.5669L24.5631 19.6358C24.9401 19.798 25.2827 20.0359 25.5714 20.3359L25.6254 20.2839ZM29.3639 24.1675L25.6254 20.2839L25.5714 20.3359L29.3099 24.2195L29.3639 24.1675ZM30.2953 26.504C30.2953 25.6279 29.9604 24.7875 29.3639 24.1675L29.3099 24.2195C29.8927 24.8253 30.2203 25.6469 30.2203 26.504H30.2953ZM29.3639 28.8404C29.9604 28.2204 30.2953 27.38 30.2953 26.504H30.2203C30.2203 27.361 29.8927 28.1826 29.3099 28.7884L29.3639 28.8404ZM28.7124 29.5163L29.3639 28.8404L29.3099 28.7883L28.6584 29.4643L28.7124 29.5163ZM22.2435 32.0572C24.8637 32.0572 27.0978 31.1969 28.7125 29.5163L28.6584 29.4643C27.06 31.1279 24.8467 31.9822 22.2435 31.9822V32.0572ZM5.2328 3.2838C5.33815 3.23844 5.4511 3.2154 5.56504 3.21599L5.56543 3.14099C5.44109 3.14035 5.31792 3.16549 5.20314 3.21491L5.2328 3.2838ZM4.95141 3.48031C5.03176 3.39594 5.12744 3.32916 5.2328 3.2838L5.20314 3.21491C5.08836 3.26432 4.98433 3.337 4.8971 3.42859L4.95141 3.48031ZM4.29982 4.15643L4.95125 3.48047L4.89725 3.42843L4.24582 4.10438L4.29982 4.15643ZM2.90575 12.2217C2.10584 8.77947 2.60558 5.91647 4.29984 4.15641L4.2458 4.1044C2.52695 5.89001 2.02977 8.78347 2.83269 12.2387L2.90575 12.2217ZM9.04565 22.8908C5.93255 19.6576 3.75237 15.8674 2.90575 12.2217L2.83269 12.2387C3.68293 15.8999 5.87099 19.7018 8.99163 22.9428L9.04565 22.8908ZM19.3156 29.2687C15.8063 28.3863 12.1588 26.1241 9.04565 22.8908L8.99163 22.9428C12.1122 26.1838 15.7715 28.4549 19.2973 29.3414L19.3156 29.2687ZM27.0757 27.8209C25.382 29.5805 22.6289 30.0994 19.3156 29.2687L19.2974 29.3414C22.6253 30.1758 25.4104 29.6591 27.1298 27.873L27.0757 27.8209ZM27.7264 27.145L27.0757 27.8209L27.1298 27.873L27.7805 27.197L27.7264 27.145ZM27.9815 26.5047C27.9815 26.7451 27.8896 26.9754 27.7264 27.145L27.7805 27.197C27.9573 27.0131 28.0565 26.7641 28.0565 26.5047H27.9815ZM27.7264 25.8645C27.8896 26.0341 27.9815 26.2644 27.9815 26.5047H28.0565C28.0565 26.2454 27.9573 25.9964 27.7805 25.8125L27.7264 25.8645ZM23.9887 21.9808L27.7264 25.8645L27.7805 25.8125L24.0428 21.9288L23.9887 21.9808ZM23.3744 21.7165C23.6045 21.7165 23.8255 21.8114 23.9887 21.9808L24.0427 21.9288C23.8657 21.745 23.6253 21.6415 23.3744 21.6415V21.7165ZM22.76 21.9808C22.9233 21.8114 23.1443 21.7165 23.3744 21.7165V21.6415C23.1234 21.6415 22.8831 21.745 22.706 21.9288L22.76 21.9808ZM19.961 24.8885L22.76 21.9808L22.706 21.9288L19.907 24.8365L19.961 24.8885ZM19.3202 25.2265C19.5632 25.1873 19.7876 25.0688 19.9611 24.8885L19.907 24.8365C19.7446 25.0053 19.5349 25.1159 19.3083 25.1525L19.3202 25.2265ZM18.6104 25.1064C18.8287 25.2236 19.0773 25.2658 19.3202 25.2265L19.3083 25.1525C19.0817 25.1891 18.8498 25.1498 18.6459 25.0403L18.6104 25.1064ZM11.9115 19.9096C13.9957 22.0747 16.312 23.8718 18.6104 25.1064L18.6459 25.0403C16.3553 23.8099 14.0451 22.0179 11.9655 19.8575L11.9115 19.9096ZM6.90991 12.9524C8.10123 15.3398 9.82728 17.7444 11.9115 19.9096L11.9655 19.8575C9.88597 17.6972 8.16457 15.2988 6.97702 12.9189L6.90991 12.9524ZM6.79422 12.2175C6.75674 12.4689 6.79722 12.7263 6.9099 12.9524L6.97703 12.9189C6.87125 12.7067 6.83317 12.4649 6.8684 12.2286L6.79422 12.2175ZM7.11866 11.5531C6.94524 11.7334 6.8317 11.9661 6.79422 12.2175L6.8684 12.2286C6.90363 11.9923 7.01029 11.7739 7.17271 11.6051L7.11866 11.5531ZM9.91841 8.64538L7.11867 11.5531L7.1727 11.6051L9.97243 8.6974L9.91841 8.64538ZM10.1734 8.00513C10.1734 8.24551 10.0815 8.47578 9.91839 8.6454L9.97245 8.69739C10.1493 8.5135 10.2484 8.26449 10.2484 8.00513H10.1734ZM9.91839 7.36486C10.0815 7.53448 10.1734 7.76475 10.1734 8.00513H10.2484C10.2484 7.74577 10.1493 7.49675 9.97245 7.31287L9.91839 7.36486ZM6.17995 3.48046L9.9184 7.36487L9.97244 7.31286L6.23399 3.42845L6.17995 3.48046ZM5.89792 3.28408C6.00339 3.32943 6.09924 3.39613 6.17987 3.48038L6.23406 3.42852C6.14657 3.33711 6.0424 3.26456 5.92755 3.21518L5.89792 3.28408ZM5.56537 3.21599C5.67942 3.21559 5.79245 3.23872 5.89792 3.28408L5.92755 3.21518C5.8127 3.16579 5.6895 3.14056 5.5651 3.14099L5.56537 3.21599ZM22.6206 17.7256C22.8374 17.9508 23.1318 18.0776 23.439 18.0776V18.0026C23.1526 18.0026 22.8776 17.8844 22.6746 17.6735L22.6206 17.7256ZM22.2822 16.8774C22.2822 17.1952 22.4038 17.5004 22.6206 17.7256L22.6746 17.6735C22.4716 17.4626 22.3572 17.1762 22.3572 16.8774H22.2822ZM20.1212 11.4654C21.5028 12.9007 22.2801 14.847 22.2822 16.8774L22.3572 16.8773C22.3551 14.828 21.5705 12.8629 20.1752 11.4134L20.1212 11.4654ZM14.9137 9.22045C16.8669 9.2229 18.7397 10.0301 20.1212 11.4654L20.1752 11.4134C18.7799 9.96371 16.8878 9.14793 14.9138 9.14545L14.9137 9.22045ZM14.0953 8.86839C14.3121 9.09363 14.6065 9.22045 14.9137 9.22045V9.14545C14.6273 9.14545 14.3523 9.02726 14.1493 8.81638L14.0953 8.86839ZM13.7569 8.02019C13.7569 8.33807 13.8785 8.6432 14.0953 8.86839L14.1493 8.81638C13.9462 8.60545 13.8319 8.31908 13.8319 8.02019H13.7569ZM14.0953 7.17198C13.8785 7.39717 13.7569 7.70231 13.7569 8.02019H13.8319C13.8319 7.7213 13.9462 7.43492 14.1493 7.22399L14.0953 7.17198ZM14.9137 6.81992C14.6065 6.81992 14.3121 6.94674 14.0953 7.17198L14.1493 7.22399C14.3523 7.01312 14.6273 6.89492 14.9137 6.89492V6.81992ZM24.5958 16.8774C24.5958 11.3341 20.2539 6.81992 14.9137 6.81992V6.89492C20.2098 6.89492 24.5208 11.3728 24.5208 16.8774H24.5958ZM24.2575 17.7256C24.4743 17.5004 24.5958 17.1952 24.5958 16.8774H24.5208C24.5208 17.1762 24.4065 17.4626 24.2035 17.6735L24.2575 17.7256ZM23.439 18.0776C23.7463 18.0776 24.0407 17.9508 24.2575 17.7256L24.2035 17.6735C24.0005 17.8844 23.7255 18.0026 23.439 18.0026V18.0776ZM28.1699 18.0042C27.8835 18.0042 27.6085 17.886 27.4055 17.6751L27.3515 17.7271C27.5683 17.9523 27.8627 18.0792 28.1699 18.0792V18.0042ZM28.9344 17.6751C28.7314 17.886 28.4564 18.0042 28.1699 18.0042V18.0792C28.4772 18.0792 28.7716 17.9523 28.9884 17.7271L28.9344 17.6751ZM29.2517 16.8789C29.2517 17.1778 29.1374 17.4642 28.9344 17.6751L28.9884 17.7271C29.2052 17.5019 29.3267 17.1968 29.3267 16.8789H29.2517ZM14.9137 1.98184C22.8185 1.98184 29.2517 8.66354 29.2517 16.8789H29.3267C29.3267 8.62484 22.8626 1.90684 14.9137 1.90684V1.98184ZM14.1493 2.31091C14.3523 2.10003 14.6273 1.98184 14.9137 1.98184V1.90684C14.6065 1.90684 14.3121 2.03365 14.0953 2.2589L14.1493 2.31091ZM13.8319 3.1071C13.8319 2.80821 13.9462 2.52184 14.1493 2.31091L14.0953 2.2589C13.8785 2.48409 13.7569 2.78922 13.7569 3.1071H13.8319ZM14.1493 3.90329C13.9462 3.69237 13.8319 3.40599 13.8319 3.1071H13.7569C13.7569 3.42498 13.8785 3.73011 14.0953 3.95531L14.1493 3.90329ZM14.9137 4.23237C14.6273 4.23237 14.3523 4.11417 14.1493 3.90329L14.0953 3.95531C14.3121 4.18055 14.6065 4.30737 14.9137 4.30737V4.23237ZM27.0881 16.8789C27.0881 9.90698 21.6254 4.23237 14.9137 4.23237V4.30737C21.5814 4.30737 27.0131 9.94569 27.0131 16.8789H27.0881ZM27.4055 17.6751C27.2025 17.4642 27.0881 17.1778 27.0881 16.8789H27.0131C27.0131 17.1968 27.1347 17.5019 27.3515 17.7271L27.4055 17.6751Z" fill="#FB8308"/>
</svg>
