<svg width="22" height="19" viewBox="0 0 22 19" fill="none" xmlns="http://www.w3.org/2000/svg">
<path d="M17.0414 4.29102H3.78584C2.44143 4.29102 1.35156 5.38088 1.35156 6.7253V16.065C1.35156 17.4095 2.44143 18.4993 3.78584 18.4993H17.0414C18.3858 18.4993 19.4757 17.4095 19.4757 16.065V6.7253C19.4757 5.38088 18.3858 4.29102 17.0414 4.29102Z" fill="#FB8308"/>
<path d="M20.7919 5.83395C20.7919 6.97904 19.849 8.16715 17.9782 9.10251C16.1412 10.021 13.5639 10.6054 10.6865 10.6054C7.80899 10.6054 5.23174 10.021 3.39467 9.10251C1.52395 8.16715 0.581055 6.97904 0.581055 5.83395C0.581055 4.68886 1.52395 3.50075 3.39467 2.56539C5.23174 1.64686 7.80899 1.0625 10.6865 1.0625C13.5639 1.0625 16.1412 1.64686 17.9782 2.56539C19.849 3.50075 20.7919 4.68886 20.7919 5.83395Z" stroke="white" stroke-width="1.125"/>
<path d="M12.8444 7.53406H8.20789C7.75472 7.53353 7.32027 7.35325 6.99989 7.03274C6.67951 6.71224 6.49938 6.27769 6.49902 5.82451V2.87752C6.49938 2.42434 6.67951 1.98983 6.99989 1.66933C7.32027 1.34883 7.75472 1.1685 8.20789 1.16797H12.8444C13.2977 1.1685 13.7322 1.3488 14.0527 1.66929C14.3731 1.98977 14.5534 2.42428 14.554 2.87752V5.82451C14.5534 6.27775 14.3731 6.7123 14.0527 7.03278C13.7322 7.35327 13.2977 7.53353 12.8444 7.53406ZM8.20789 2.66684C8.15166 2.66684 8.09773 2.68918 8.05796 2.72894C8.0182 2.7687 7.99586 2.82263 7.99586 2.87886V5.82586C7.99586 5.88209 8.0182 5.93601 8.05796 5.97578C8.09773 6.01554 8.15166 6.03788 8.20789 6.03788H12.8444C12.9006 6.0377 12.9544 6.0153 12.9942 5.97557C13.0339 5.93585 13.0563 5.88203 13.0564 5.82586V2.87886C13.0563 2.82268 13.0339 2.76883 12.9942 2.7291C12.9544 2.68938 12.9006 2.66702 12.8444 2.66684H8.20789Z" fill="#FB8308"/>
</svg>
