<svg width="10" height="10" viewBox="0 0 10 10" fill="none" xmlns="http://www.w3.org/2000/svg">
<path d="M9.25 4.75099C9.25172 5.41092 9.09753 6.06193 8.8 6.65099C8.44722 7.35686 7.90488 7.95058 7.23372 8.36563C6.56257 8.78068 5.78912 9.00069 5 9.00099C4.34007 9.00271 3.68906 8.84853 3.1 8.55099L0.25 9.50099L1.2 6.65099C0.902466 6.06193 0.748279 5.41092 0.75 4.75099C0.750305 3.96187 0.970306 3.18842 1.38536 2.51727C1.80041 1.84612 2.39413 1.30377 3.1 0.950991C3.68906 0.653456 4.34007 0.49927 5 0.500991H5.25C6.29217 0.558487 7.27652 0.998371 8.01457 1.73642C8.75262 2.47447 9.1925 3.45882 9.25 4.50099V4.75099Z" fill="#FB8308" stroke="#7649B3" stroke-width="0.5" stroke-linecap="round" stroke-linejoin="round"/>
</svg>
