<svg width="18" height="19" viewBox="0 0 18 19" fill="none" xmlns="http://www.w3.org/2000/svg">
<path d="M7.64485 7.30013C9.23138 6.9255 10.2138 5.33567 9.8392 3.74913C9.46458 2.16259 7.87474 1.18015 6.2882 1.55477C4.70167 1.9294 3.71922 3.51923 4.09385 5.10577C4.46847 6.69231 6.05831 7.67475 7.64485 7.30013Z" fill="white"/>
<path d="M12.345 10.7454C12.3564 10.7454 12.3677 10.7454 12.3807 10.7454C11.5763 9.21601 10.0955 8.13099 8.37795 7.83905C7.94329 8.01908 7.46809 8.11963 6.96855 8.11963C6.47064 8.11963 5.99382 8.0207 5.55916 7.84067C2.90417 8.28993 0.915771 10.6384 0.915771 13.3436V14.3362C0.915771 14.8504 1.33421 15.2704 1.84834 15.2704H9.59759C9.37377 14.8422 9.24727 14.3573 9.24727 13.8416C9.24889 12.1337 10.6372 10.7454 12.345 10.7454Z" fill="white"/>
<path d="M12.345 11.4821C11.0459 11.4821 9.98682 12.5396 9.98682 13.8387C9.98682 15.1378 11.0443 16.1952 12.345 16.1952C13.6441 16.1952 14.7016 15.1378 14.7016 13.8387C14.7016 12.5396 13.6441 11.4821 12.345 11.4821ZM14.3237 13.8403C14.3237 14.0447 14.1582 14.2085 13.9555 14.2085H12.7132V15.4508C12.7132 15.6552 12.5477 15.819 12.345 15.819C12.1406 15.819 11.9752 15.6535 11.9752 15.4508V14.2085H10.7329C10.5285 14.2085 10.3647 14.043 10.3647 13.8403C10.3647 13.6359 10.5301 13.4721 10.7329 13.4721H11.9752V12.2298C11.9752 12.0254 12.1406 11.8616 12.345 11.8616C12.5494 11.8616 12.7132 12.0271 12.7132 12.2298V13.4721H13.9555C14.1582 13.4705 14.3237 13.6359 14.3237 13.8403Z" fill="white"/>
<rect x="7.10547" y="8.56268" width="9.37325" height="9.37325" rx="4.68662" fill="white" stroke="#08B564" stroke-width="1.125"/>
<path d="M9.61035 13.3849L10.974 14.7485L13.974 11.7485" stroke="#08B564" stroke-width="1.125" stroke-linecap="round" stroke-linejoin="round"/>
</svg>
