<svg width="17" height="19" viewBox="0 0 17 19" fill="none" xmlns="http://www.w3.org/2000/svg">
<path d="M7.40119 7.29848C8.98773 6.92385 9.97018 5.33402 9.59555 3.74748C9.22092 2.16095 7.63109 1.1785 6.04455 1.55313C4.45802 1.92775 3.47557 3.51759 3.8502 5.10412C4.22482 6.69066 5.81466 7.67311 7.40119 7.29848Z" fill="#08B564"/>
<path d="M12.1011 10.7452C12.1125 10.7452 12.1238 10.7452 12.1368 10.7452C11.3324 9.21583 9.8516 8.1308 8.13405 7.83887C7.69939 8.01889 7.22419 8.11945 6.72466 8.11945C6.22675 8.11945 5.74992 8.02052 5.31526 7.84049C2.66028 8.28974 0.671875 10.6382 0.671875 13.3435V14.336C0.671875 14.8502 1.09031 15.2702 1.60444 15.2702H9.35369C9.12988 14.8421 9.00337 14.3571 9.00337 13.8414C9.00499 12.1336 10.3933 10.7452 12.1011 10.7452Z" fill="#08B564"/>
<path d="M12.1013 11.4805C10.8022 11.4805 9.74316 12.5379 9.74316 13.837C9.74316 15.1361 10.8006 16.1936 12.1013 16.1936C13.4005 16.1936 14.4579 15.1361 14.4579 13.837C14.4579 12.5379 13.4005 11.4805 12.1013 11.4805ZM14.08 13.8387C14.08 14.043 13.9146 14.2068 13.7119 14.2068H12.4695V15.4492C12.4695 15.6535 12.3041 15.8173 12.1013 15.8173C11.897 15.8173 11.7316 15.6519 11.7316 15.4492V14.2068H10.4892C10.2849 14.2068 10.1211 14.0414 10.1211 13.8387C10.1211 13.6343 10.2865 13.4705 10.4892 13.4705H11.7316V12.2281C11.7316 12.0238 11.897 11.86 12.1013 11.86C12.3057 11.86 12.4695 12.0254 12.4695 12.2281V13.4705H13.7119C13.9146 13.4689 14.08 13.6343 14.08 13.8387Z" fill="white"/>
<rect x="6.86133" y="8.5625" width="9.37325" height="9.37325" rx="4.68662" fill="#08B564" stroke="white" stroke-width="1.125"/>
<path d="M9.36621 13.3864L10.7299 14.75L13.7298 11.75" stroke="white" stroke-width="1.125" stroke-linecap="round" stroke-linejoin="round"/>
</svg>
