<svg width="31" height="33" viewBox="0 0 31 33" fill="none" xmlns="http://www.w3.org/2000/svg">
<path d="M29.8832 11.755L25.5801 8.48272V5.72656C25.5801 5.46826 25.4813 5.22055 25.3055 5.0379C25.1297 4.85526 24.8912 4.75265 24.6426 4.75265H20.6863L15.8207 1.04206C15.6601 0.920181 15.4664 0.854492 15.2676 0.854492C15.0687 0.854492 14.875 0.920181 14.7145 1.04206L9.84883 4.75265H5.89258C5.64394 4.75265 5.40548 4.85526 5.22967 5.0379C5.05385 5.22055 4.95508 5.46826 4.95508 5.72656V8.48272L0.651956 11.755C0.532521 11.8457 0.435433 11.9644 0.368628 12.1016C0.301823 12.2387 0.267198 12.3902 0.267581 12.5439V29.1003C0.267581 29.8752 0.563897 30.6184 1.09134 31.1663C1.61879 31.7142 2.33416 32.0221 3.08008 32.0221H27.4551C28.201 32.0221 28.9164 31.7142 29.4438 31.1663C29.9713 30.6184 30.2676 29.8752 30.2676 29.1003V12.5439C30.268 12.3902 30.2333 12.2387 30.1665 12.1016C30.0997 11.9644 30.0026 11.8457 29.8832 11.755V11.755ZM25.5801 10.898L27.6426 12.466L25.5801 13.7418V10.898ZM15.2676 3.03857L17.5176 4.75265H13.0176L15.2676 3.03857ZM6.83008 6.70047H23.7051V14.9105L15.2676 20.1696L6.83008 14.9105V6.70047ZM4.95508 10.898V13.7516L2.89258 12.466L4.95508 10.898ZM28.3926 29.1003C28.3926 29.3586 28.2938 29.6064 28.118 29.789C27.9422 29.9716 27.7037 30.0742 27.4551 30.0742H3.08008C2.83144 30.0742 2.59298 29.9716 2.41717 29.789C2.24135 29.6064 2.14258 29.3586 2.14258 29.1003V14.2677L14.7895 22.1466C14.932 22.2321 15.0936 22.2771 15.2582 22.2771C15.4228 22.2771 15.5844 22.2321 15.727 22.1466L28.3926 14.2677V29.1003Z" fill="#FB8308" stroke="#FB8308" stroke-width="0.225"/>
</svg>
