<svg width="136" height="140" viewBox="0 0 136 140" fill="none" xmlns="http://www.w3.org/2000/svg">
<path d="M135.406 96.9947V100.197C135.378 110.139 128.842 120.067 115.788 127.653C89.5127 142.923 46.7837 142.923 20.3362 127.653C7.0265 119.969 0.378201 109.882 0.406343 99.8114V96.6095C0.377576 106.68 7.02588 116.767 20.3356 124.452C46.7831 139.721 89.5121 139.721 115.787 124.452C128.842 116.865 135.378 106.937 135.406 96.9947Z" fill="#A9B1D4"/>
<mask id="mask0_94_4024" style="mask-type:luminance" maskUnits="userSpaceOnUse" x="0" y="96" width="136" height="44">
<path d="M135.406 96.9955V100.197C135.378 110.139 128.842 120.068 115.788 127.654C89.5127 142.924 46.7837 142.924 20.3362 127.654C7.0265 119.97 0.378201 109.883 0.406343 99.8121V96.6102C0.377576 106.681 7.02588 116.768 20.3356 124.452C46.7831 139.721 89.5121 139.721 115.787 124.452C128.842 116.866 135.378 106.938 135.406 96.9955Z" fill="white"/>
</mask>
<g mask="url(#mask0_94_4024)">
<path d="M3.44188 108.3V111.502C1.40756 107.7 0.395086 103.754 0.406343 99.8121V96.6102C0.395086 100.553 1.40756 104.498 3.44188 108.3Z" fill="#A9B1D4"/>
</g>
<path d="M115.201 69.6457C128.322 77.2213 134.79 87.072 134.843 96.8077C134.896 106.542 128.539 116.39 115.505 123.965C102.473 131.538 85.3258 135.341 68.126 135.341C50.9263 135.341 33.7351 131.538 20.6171 123.964L20.3623 124.405L20.6171 123.964C7.49567 116.388 1.02533 106.538 0.969121 96.8019C0.91292 87.0677 7.26764 77.2194 20.3014 69.6449C33.3326 62.0721 50.4829 58.2693 67.6856 58.2693C84.8882 58.2693 102.082 62.072 115.201 69.6457Z" fill="#FAFAFC" stroke="#A9B1D4" stroke-width="1.125"/>
<path d="M68.1063 132.778C52.4295 132.778 36.7353 129.323 24.7613 122.41C12.9462 115.588 6.43175 106.463 6.41799 96.7177C6.40423 87.0389 12.8168 77.9773 24.4749 71.2026C48.2702 57.3738 87.1131 57.3732 111.062 71.2008C122.874 78.0204 129.387 87.1427 129.401 96.8872C129.415 106.569 123.001 115.631 111.339 122.408C99.4429 129.322 83.783 132.778 68.1063 132.778ZM67.7123 62.6394C52.367 62.6394 37.0411 66.0227 25.3967 72.7892C14.3289 79.2211 8.24031 87.718 8.25345 96.7146C8.26596 105.779 14.4546 114.339 25.6794 120.82C49.1182 134.353 87.1319 134.353 110.416 120.821C121.488 114.388 127.578 105.889 127.565 96.8897C127.552 87.8274 121.366 79.2693 110.144 72.7904C98.4236 66.0233 83.0582 62.6394 67.7123 62.6394Z" fill="#A9B1D4"/>
<path d="M75.6058 7.73767L75.6054 79.6721C75.6054 81.648 76.9929 84.0507 78.7039 85.0384L108.092 102.006L109.009 104.668L111.764 103.078C112.324 102.754 112.671 102.06 112.671 101.072V24.3323C112.671 22.3561 111.284 19.9534 109.573 18.9657L78.7042 1.14362C77.8685 0.661106 77.1116 0.607982 76.5543 0.907311C76.5532 0.903648 73.7988 2.49409 73.7988 2.49409L75.6058 7.73767Z" fill="black"/>
<path d="M106.93 104.388L76.0613 86.5651C74.35 85.577 72.9629 83.1743 72.9629 81.1984V4.45899C72.9629 2.48312 74.35 1.68222 76.0613 2.67034L106.93 20.4924C108.642 21.4801 110.029 23.8832 110.029 25.8591V102.599C110.029 104.575 108.641 105.375 106.93 104.388Z" fill="#133643"/>
<path d="M74.2832 5.22104V77.0335C74.2832 78.1696 75.0771 79.5523 76.0627 80.1205L106.931 97.9367C107.506 98.2719 108.02 98.2514 108.341 97.9437C108.574 97.7381 108.711 97.3824 108.711 96.9101V25.0973C108.711 23.9612 107.91 22.5855 106.931 22.0172L76.0627 4.19409C75.748 4.00907 75.4468 3.93396 75.1933 3.96144C74.6459 3.99587 74.2832 4.45458 74.2832 5.22104Z" fill="white"/>
<path d="M74.8242 4.9868V76.8054C74.8242 77.9379 75.628 79.3192 76.6 79.8892L107.467 97.7124C107.781 97.8952 108.081 97.9754 108.344 97.9388C108.578 97.7344 108.709 97.3834 108.709 96.9085V25.0972C108.709 23.9571 107.913 22.5908 106.926 22.0208L104.661 20.7128L76.0593 4.19762C75.7523 4.00747 75.4456 3.93456 75.1968 3.95654C74.9557 4.17564 74.8242 4.51893 74.8242 4.9868Z" fill="#EAEEFF"/>
<path opacity="0.3" d="M86.5078 11.0164L95.9461 16.4658L108.026 41.1168V53.9696L86.5078 11.0164Z" fill="white"/>
<g style="mix-blend-mode:screen" opacity="0.5">
<path d="M108.026 72.0154V79.4397L75.5078 16.0558V8.80225L108.026 72.0154Z" fill="white"/>
</g>
<g style="mix-blend-mode:screen" opacity="0.5">
<path d="M108.026 82.3892V96.9109C108.026 97.0307 108.013 97.13 107.994 97.2091C107.937 97.1864 107.876 97.1556 107.814 97.119L99.7059 92.4378L75.5078 42.667V18.4403L108.026 82.3892Z" fill="white"/>
</g>
<path d="M95.2367 95.9143L87.752 91.5932C86.9668 91.14 86.3242 90.027 86.3242 89.1202C86.3242 88.2134 86.9668 87.8426 87.752 88.2958L95.2367 92.6169C96.0219 93.0705 96.6645 94.1832 96.6645 95.0899C96.6645 95.9967 96.0222 96.3675 95.2367 95.9143Z" fill="#000B17"/>
<path d="M98.7539 50.6412V56.7715L92.5035 50.1965L89.8711 47.4322L93.1645 45.5449L93.2725 45.4849L97.7559 48.0931C97.6837 48.0572 97.6115 48.0092 97.5394 47.985C98.2853 48.4173 98.7539 49.3311 98.7539 50.6412Z" fill="#E6E6E6"/>
<path d="M98.7587 50.0217C98.755 50.0199 98.755 32.4059 98.755 32.4059C98.755 31.0958 98.2864 30.1824 97.5412 29.7497C97.517 29.7376 97.5049 29.7255 97.4932 29.7255L93.1659 27.3096L83.6702 22.021V42.2611C83.668 42.26 83.668 49.0907 83.668 49.0907L101.113 58.352L98.7587 50.0217Z" fill="#C6D1FF"/>
<path d="M96.5357 29.3637C95.9042 29.3717 95.2105 29.5809 94.4907 29.9957L94.4901 29.996C93.7228 30.4415 92.9975 31.0819 92.3615 31.8401C90.9214 33.5366 89.9371 35.8501 89.9493 37.8636C89.9493 37.8638 89.9493 37.864 89.9493 37.8642L96.5357 29.3637ZM96.5357 29.3637L93.1799 27.4112L93.1798 27.4112L64.4294 10.7042C64.4293 10.7042 64.4291 10.7041 64.429 10.704C63.6891 10.2801 62.6459 10.316 61.4439 11.0161L61.443 11.0166C60.2461 11.7055 59.1526 12.8951 58.3595 14.2669C57.5663 15.6388 57.0837 17.1749 57.0896 18.5461L57.0896 18.5464L57.2218 71.5271C57.228 74.1342 56.3133 77.0122 54.8408 79.5603C53.3683 82.1085 51.3276 84.3443 49.0629 85.6568L49.0566 85.6605L49.0565 85.6603L41.7615 89.5178L96.5357 29.3637Z" fill="#EAEEFF" stroke="#A9B1D4" stroke-width="0.375"/>
<path d="M97.7395 29.6528L97.7467 29.6337L93.6502 27.2534L104.66 20.9287L106.832 22.1826C106.832 22.1826 106.832 22.1826 106.832 22.1826C107.291 22.4476 107.715 22.9048 108.025 23.4388C108.335 23.973 108.522 24.5673 108.522 25.0967V56.5277L105.788 58.0959C102.727 59.8512 98.9435 57.6472 98.9435 54.1372V32.4045C98.9435 31.1122 98.4993 30.1499 97.7395 29.6528Z" fill="#EAEEFF" stroke="#A9B1D4" stroke-width="0.375"/>
<path d="M62.2662 31.4905L60.9883 30.7556V29.4777L62.2662 30.213V31.4905Z" fill="#133643"/>
<path d="M85.45 44.8322L63.6602 32.2933V31.0157L85.45 43.5543V44.8322Z" fill="#133643"/>
<path d="M62.2662 35.5485L60.9883 34.8132V33.5353L62.2662 34.2706V35.5485Z" fill="#133643"/>
<path d="M82.6517 46.0009L63.6602 35.0726V36.3505L82.6517 47.2788V46.0009Z" fill="#133643"/>
<path d="M62.2662 39.605L60.9883 38.8697V37.5922L62.2662 38.3275V39.605Z" fill="#133643"/>
<path d="M84.0157 50.8433L63.6602 39.1302V40.4078L84.0157 52.1209V50.8433Z" fill="#133643"/>
<path d="M62.2662 43.6628L60.9883 42.9278V41.6499L62.2662 42.3852V43.6628Z" fill="#133643"/>
<path d="M78.0148 51.4471L63.6602 43.1871V44.4651L78.0148 52.725V51.4471Z" fill="#133643"/>
<path d="M62.2662 47.721L60.9883 46.9857V45.7081L62.2662 46.4431V47.721Z" fill="#133643"/>
<path d="M85.45 61.0615L63.6602 48.523V47.2454L85.45 59.7839V61.0615Z" fill="#133643"/>
<path d="M62.2662 51.7779L60.9883 51.0429V49.765L62.2662 50.5003V51.7779Z" fill="#133643"/>
<path d="M79.2422 60.2687L63.6602 51.3024V52.5803L79.2422 61.5466V60.2687Z" fill="#133643"/>
<path d="M62.2662 55.8356L60.9883 55.1003V53.8228L62.2662 54.5577V55.8356Z" fill="#133643"/>
<path d="M85.45 69.1761L63.6602 56.6375V55.36L85.45 67.8985V69.1761Z" fill="#133643"/>
<path d="M62.2662 59.8924L60.9883 59.1571V57.8795L62.2662 58.6148V59.8924Z" fill="#133643"/>
<path d="M81.9698 69.9535L63.6602 59.4176V60.6955L81.9698 71.2311V69.9535Z" fill="#133643"/>
<path d="M62.2662 63.9504L60.9883 63.2151V61.9371L62.2662 62.6725V63.9504Z" fill="#133643"/>
<path d="M85.45 77.2913L63.6602 64.7528V63.4752L85.45 76.0134V77.2913Z" fill="#133643"/>
<path d="M62.2662 68.0076L60.9883 67.2723V65.9948L62.2662 66.7301V68.0076Z" fill="#1E3A47"/>
<path d="M77.1963 75.3213L63.6602 67.5321V68.8097L77.1963 76.5988V75.3213Z" fill="#1E3A47"/>
<path d="M62.2662 67.9787L60.9883 67.2434V65.9655L62.2662 66.7008V67.9787Z" fill="#133643"/>
<path d="M85.45 81.32L63.6602 68.7815V67.5035L85.45 80.0421V81.32Z" fill="#133643"/>
<path d="M62.2662 72.0359L60.9883 71.3006V70.0231L62.2662 70.7584V72.0359Z" fill="#133643"/>
<path d="M81.9698 82.0971L63.6602 71.5612V72.8387L81.9698 83.3746V82.0971Z" fill="#133643"/>
<path d="M62.2662 76.0936L60.9883 75.3586V74.0807L62.2662 74.816V76.0936Z" fill="#133643"/>
<path d="M85.45 89.4345L63.6602 76.896V75.618L85.45 88.1566V89.4345Z" fill="#133643"/>
<path d="M62.2662 80.1512L60.9883 79.4159V78.1383L62.2662 78.8733V80.1512Z" fill="#133643"/>
<path d="M77.1963 87.4641L63.6602 79.6749V80.9528L77.1963 88.742V87.4641Z" fill="#133643"/>
<path d="M60.1426 19.5739C60.5317 19.727 61.0252 19.9706 61.5 20.2506C62.1833 20.6539 62.7911 21.1082 63.2088 21.7362C63.5982 22.3187 63.7118 22.8152 63.7118 23.3684C63.7118 24.055 63.3799 24.4793 62.7248 24.3979V24.4166C63.1615 24.846 63.3799 25.3853 63.5034 26.1448C63.6265 26.9333 63.7976 27.8258 63.9115 28.1313L62.6112 27.3641C62.535 27.1377 62.3929 26.4053 62.298 25.6436C62.1837 24.7746 61.9847 24.4283 61.5667 24.1814L61.3864 24.0752V26.6413L60.1426 25.9074V19.5739ZM61.3861 23.1123L61.6041 23.2409C62.1456 23.5604 62.4588 23.3065 62.4588 22.7437C62.4588 22.1997 62.2405 21.6798 61.6803 21.3299C61.5758 21.2683 61.4524 21.205 61.3861 21.1943V23.1123Z" fill="#F84F57"/>
<path d="M67.3112 27.3142L65.8493 26.4518V28.1881L67.5006 29.1626V30.25L64.6055 28.5416V22.1124L67.3866 23.7534V24.8408L65.8493 23.9337V25.4124L67.3112 26.2748V27.3142Z" fill="#F84F57"/>
<path d="M68.2037 29.3867C68.4602 29.6812 68.8969 30.0439 69.2574 30.2568C69.8462 30.6041 70.1308 30.4667 70.1308 30.0472C70.1308 29.5797 69.8458 29.1826 69.305 28.5107C68.4316 27.4606 68.0993 26.5872 68.0993 26.0054C68.0993 24.9751 68.7826 24.5201 70.1217 25.3104C70.539 25.5566 70.938 25.9064 71.1274 26.1329L70.9281 27.0931C70.7478 26.8722 70.4723 26.6048 70.1118 26.3923C69.5798 26.0783 69.3237 26.2512 69.3237 26.5949C69.3237 26.9763 69.5139 27.2892 70.2067 28.1175C71.0515 29.1313 71.3648 29.9648 71.3648 30.6422C71.3648 31.8154 70.5009 32.0781 69.2479 31.3391C68.7349 31.0365 68.2323 30.606 68.0234 30.359L68.2037 29.3867Z" fill="#F84F57"/>
<path d="M73.2916 27.2393V31.4175C73.2916 32.362 73.5766 32.816 73.899 33.0061C74.2599 33.2193 74.5164 33.1131 74.5164 32.1404V27.9622L75.7602 28.6961V32.6548C75.7602 34.3049 75.1429 34.8373 73.9089 34.1089C72.5709 33.319 72.0488 32.0858 72.0488 30.4734V26.5055L73.2916 27.2393Z" fill="#F84F57"/>
<path d="M80.7458 35.8156C80.7172 35.188 80.6696 34.3303 80.689 33.6547L80.6604 33.6375C80.5465 34.2571 80.3757 34.948 80.2523 35.3712L79.7016 37.3452L78.819 36.8243L78.2874 34.2501C78.1639 33.6617 77.9928 32.7597 77.8979 32.0075L77.8697 31.9906C77.8507 32.6754 77.8126 33.4642 77.7748 34.0808L77.67 36.2512L76.5977 35.6185L77.0626 29.4637L78.3728 30.2372L78.885 32.8667C79.0659 33.7844 79.2268 34.5945 79.3407 35.387L79.3594 35.398C79.4547 34.7388 79.5972 34.098 79.7679 33.388L80.271 31.3575L81.5811 32.131L81.9706 38.7899L80.8597 38.1341L80.7458 35.8156Z" fill="#F84F57"/>
<path d="M85.5862 38.1006L84.1243 37.2381V38.9744L85.776 39.9489V41.0363L82.8809 39.3279V32.8987L85.6624 34.5405V35.6279L84.1247 34.7204V36.1991L85.5866 37.0615V38.1006H85.5862Z" fill="#F84F57"/>
<path d="M38.1962 70.7382C38.198 70.0739 38.434 69.6072 38.8135 69.3884C38.8099 69.3903 39.6811 68.8839 39.6811 68.8839C40.0633 68.6619 40.5927 68.693 41.1767 69.0301L61.7465 80.9062C62.9068 81.576 63.8455 83.2019 63.8418 84.5352L63.8074 96.6329C63.8056 97.2953 63.5715 97.7614 63.1941 97.9808L62.3228 98.4872C61.9458 98.7085 61.4146 98.6803 60.8273 98.3414L40.2574 86.4653C39.0971 85.7955 38.1585 84.1695 38.1621 82.8363L38.1962 70.7382Z" fill="#C6D0FF"/>
<path d="M38.3841 70.7384L38.3841 70.7384C38.3858 70.1118 38.607 69.7215 38.9101 69.5488C39.2136 69.3758 39.6656 69.3834 40.2117 69.6985L60.7815 81.5746L60.7816 81.5746C61.3265 81.8892 61.8299 82.4358 62.1971 83.0717C62.5642 83.7076 62.7848 84.415 62.7831 85.0407L62.7487 97.1384C62.7469 97.7648 62.5258 98.1552 62.2226 98.3279C61.9191 98.5009 61.4671 98.4935 60.921 98.1783L40.3512 86.3022L40.3512 86.3022C39.8062 85.9876 39.3028 85.441 38.9357 84.8052C38.5685 84.1693 38.3479 83.4618 38.3496 82.8362C38.3496 82.8362 38.3496 82.8361 38.3496 82.8361L38.3841 70.7384Z" fill="white" stroke="#A9B1D4" stroke-width="0.375"/>
<path d="M60.7163 84.3942V95.1155L51.0996 89.5634V78.8422L60.7163 84.3942Z" fill="white"/>
<path d="M44.1816 81.6086L49.711 84.8012V85.5149L44.1816 82.3227V81.6086Z" fill="#133643"/>
<path d="M43.2396 81.0651V81.7791L40.4141 80.1477V79.434L43.2396 81.0651Z" fill="#133643"/>
<path d="M41.1113 81.005L49.7106 85.9698V86.3266L41.1113 81.3622V81.005Z" fill="#133643"/>
<path d="M47.0078 85.2201L49.7117 86.7812V87.1381L47.0078 85.5769V85.2201Z" fill="#133643"/>
<path d="M42.5078 82.6222L45.9613 84.616V84.9729L42.5078 82.979V82.6222Z" fill="#133643"/>
<path d="M41.7754 83.0111L49.7115 87.593V87.9499L41.7754 83.368V83.0111Z" fill="#133643"/>
<path d="M40.4141 83.0369L49.7109 88.4043V88.7611L40.4141 83.3937V83.0369Z" fill="#133643"/>
<path opacity="0.2" d="M53.793 88.6393L54.6961 88.976L55.8271 90.4536L54.9346 88.7994C54.9346 88.7994 54.4451 88.0179 54.4169 88.0201C54.3883 88.0227 53.793 88.6393 53.793 88.6393Z" fill="#BBCAD5"/>
<path d="M59.8185 91.8544C60.1783 92.3255 60.4487 94.9623 60.4487 94.9623L56.7695 92.8381L57.5221 89.4418C57.7826 89.7037 59.4866 91.4195 59.8185 91.8544Z" fill="#273549"/>
<path d="M52.0075 87.3445C52.3669 87.2884 54.3409 87.5892 54.3409 87.5892L55.9061 89.4922L57.4852 89.4046C57.4852 89.4046 57.5002 89.4196 57.5222 89.4416L56.7697 92.8379L51.377 89.7245C51.377 89.7245 51.6481 87.4002 52.0075 87.3445Z" fill="#DAECFA"/>
<path d="M56.702 89.6591L57.2732 89.6126L57.1713 88.5098L57.0592 87.2872L54.7687 85.965L54.6565 87.0579L54.5547 88.0431L55.1259 88.7491C55.3593 89.0847 55.5956 89.1495 55.9066 89.4924C56.2844 89.5331 56.4826 89.7214 56.702 89.6591Z" fill="#FFB294"/>
<path opacity="0.3" d="M55.9128 88.711C56.5246 89.0642 56.9639 88.6571 57.1303 88.076L57.0581 87.288L54.7675 85.9657L54.6953 86.6702C54.8613 87.4429 55.3009 88.3574 55.9128 88.711Z" fill="#CC8E76"/>
<path d="M55.9141 83.1659L56.7799 83.8876L57.4862 84.5075L57.628 86.1207C57.628 86.1207 57.9098 85.9133 58.001 86.3112C58.1127 86.7996 57.9131 87.2272 57.8691 87.277C57.8251 87.3268 57.7826 87.4946 57.643 87.3913C57.5929 87.3543 57.5522 87.2836 57.5203 87.2085C57.461 87.4972 57.3668 87.8471 57.2411 87.9628C57.0239 88.1632 56.6949 88.6908 55.9137 88.2332C55.1323 87.7888 54.8036 86.8813 54.5864 86.4299C54.4611 86.1694 54.3665 85.7104 54.3072 85.3535C54.2753 85.392 54.2346 85.4154 54.1845 85.3945C54.0449 85.3367 54.0024 85.1201 53.9584 85.0194C53.9144 84.9186 53.7148 84.261 53.8265 83.9012C53.9174 83.6084 54.1991 84.1412 54.1991 84.1412L54.3409 82.6918L55.0473 82.8878L55.9141 83.1659Z" fill="#FFB294"/>
<path d="M57.3183 84.9C57.4777 85.4389 57.4554 86.4787 57.4554 86.4787L57.5682 86.5439C57.5682 86.5439 57.6122 86.0295 57.814 86.072C57.814 86.072 57.9481 85.144 57.562 84.3654C57.2286 83.6935 56.8779 83.2454 55.9144 82.6706C54.9508 82.1331 54.6002 82.176 54.2668 82.4632C53.8806 82.7959 54.0147 83.8785 54.0147 83.8785C54.2166 84.069 54.2606 84.6344 54.2606 84.6344L54.3734 84.6996C54.3734 84.6996 54.2906 83.9965 54.4357 83.6283C56.2767 84.9264 57.0256 83.9104 57.3183 84.9Z" fill="black"/>
<path d="M57.16 88.3871C57.16 88.3871 57.2728 88.4523 57.3824 88.856C57.4883 89.2459 57.7671 89.702 57.7671 89.702C57.8356 90.2329 56.8262 90.3948 56.9281 90.9341C56.9281 90.9341 56.4642 90.1347 56.3203 89.6144L55.9062 89.4924C55.9062 89.4924 57.0658 89.3584 57.1215 89.0839C57.1948 88.7234 57.16 88.3871 57.16 88.3871Z" fill="white"/>
<path d="M54.6695 86.9499C54.6695 86.9499 54.5544 86.8832 54.4449 87.1606C54.339 87.4284 54.0602 87.5621 54.0602 87.5621C53.9917 88.0139 54.9384 89.4369 54.8362 89.8582C54.8362 89.8582 55.3 89.4145 55.4927 89.1368L55.9067 89.4926C55.9067 89.4926 54.7453 88.0117 54.6896 87.6728C54.6156 87.2232 54.6695 86.9499 54.6695 86.9499Z" fill="white"/>
<path d="M57.1617 88.3886C57.1617 88.3886 57.3888 88.6762 57.2841 89.2085C57.2463 89.4005 56.2168 92.5191 56.2168 92.5191L57.0195 92.9826L57.9186 91.4932L57.3621 90.7403L58.0831 91.1133L57.901 89.8237C57.901 89.8237 57.5046 89.0858 57.4544 88.8535C57.417 88.6791 57.2243 88.3904 57.1577 88.3475C57.1598 88.3618 57.1609 88.371 57.1617 88.3886Z" fill="#424F70"/>
<path d="M51.9934 87.335C51.6337 87.391 51.3633 89.7157 51.3633 89.7157L55.0424 91.8399L54.2899 87.5746C54.0294 87.5354 52.3254 87.2833 51.9934 87.335Z" fill="#273549"/>
<path d="M54.6729 86.9504C54.6729 86.9504 54.4271 86.9647 54.5315 87.618C54.5692 87.8535 55.5987 92.1607 55.5987 92.1607L54.796 91.6972L53.8969 89.1699L54.4535 89.0596L53.7324 88.5998L53.9145 87.5201C53.9145 87.5201 54.3109 87.2402 54.3608 87.0655C54.3978 86.9365 54.5967 86.8757 54.6747 86.9094C54.674 86.9255 54.6733 86.9328 54.6729 86.9504Z" fill="#424F70"/>
<path d="M56.3232 89.6152L56.1785 90.4201L56.4672 91.7611L56.2177 92.5191L55.5981 92.1612L55.3516 91.1269L55.7293 90.1395L55.4956 89.1378C55.6982 89.3122 55.7982 89.3979 55.9096 89.4903C56.0154 89.5247 56.1338 89.5595 56.3232 89.6152Z" fill="#F84F57"/>
<path d="M40.4141 73.5123L49.7109 78.8798V78.0397L40.4141 72.6722V73.5123Z" fill="white"/>
<path d="M40.4141 75.1889L49.7109 80.5563V79.7162L40.4141 74.3488V75.1889Z" fill="white"/>
<path d="M40.4141 76.8654L49.7109 82.2328V81.3927L40.4141 76.0253V76.8654Z" fill="white"/>
<path d="M40.4141 78.5412L49.7109 83.9086V83.0685L40.4141 77.701V78.5412Z" fill="white"/>
<path d="M43.1289 74.2396L49.7116 78.0397V78.8798L43.1289 75.0797V74.2396Z" fill="#ED1C24"/>
<path d="M41.8281 75.1639L49.7122 79.7158V80.5559L41.8281 76.004V75.1639Z" fill="#49738A"/>
<path d="M45.0625 78.7081L49.7111 81.3918V82.2319L45.0625 79.5482V78.7081Z" fill="#FFCA28"/>
<path d="M43.082 79.2421L49.7098 83.0685V83.9086L43.082 80.0822V79.2421Z" fill="#8BC34A"/>
<path d="M38.1962 50.1514C38.198 49.4872 38.434 49.0204 38.8135 48.8017C38.8099 48.8035 39.6811 48.2972 39.6811 48.2972C40.0633 48.0751 40.5927 48.1063 41.1767 48.443L61.7469 60.3191C62.9072 60.9888 63.8459 62.6148 63.8422 63.9481L63.8078 76.0458C63.8059 76.7082 63.5718 77.1743 63.1945 77.3937L62.3232 77.9C61.9462 78.1213 61.415 78.0931 60.8277 77.7542L40.2574 65.8781C39.0971 65.2084 38.1585 63.5824 38.1621 62.2492L38.1962 50.1514Z" fill="#C6D0FF"/>
<path d="M38.3841 50.1517L38.3841 50.1517C38.3858 49.5252 38.607 49.1348 38.9101 48.9621C39.2136 48.7892 39.6656 48.7967 40.2117 49.1119C40.2117 49.1119 40.2117 49.1119 40.2117 49.1119L60.7819 60.9883L60.7819 60.9883C61.3269 61.3029 61.8303 61.8495 62.1974 62.4854C62.5646 63.1213 62.7852 63.8287 62.7835 64.4544L62.749 76.5521C62.7473 77.1785 62.5261 77.5689 62.223 77.7416C61.9194 77.9146 61.4674 77.9072 60.9214 77.592C60.9214 77.592 60.9214 77.592 60.9214 77.592L40.3512 65.7159L40.3512 65.7159C39.8062 65.4013 39.3028 64.8547 38.9357 64.2189C38.5685 63.583 38.3479 62.8755 38.3496 62.2499C38.3496 62.2499 38.3496 62.2499 38.3496 62.2498L38.3841 50.1517Z" fill="white" stroke="#A9B1D4" stroke-width="0.375"/>
<path d="M46.6289 62.6537L49.7101 64.4324V65.1465L46.6289 63.3674V62.6537Z" fill="#133643"/>
<path d="M45.6181 62.0702V62.7839L40.4141 59.7796V59.0656L45.6181 62.0702Z" fill="#133643"/>
<path d="M42.0254 61.1639L49.7112 65.6011V65.9583L42.0254 61.5208V61.1639Z" fill="#133643"/>
<path d="M47.5352 65.1578L49.7092 66.413V66.7703L47.5352 65.5151V65.1578Z" fill="#133643"/>
<path d="M43.3516 62.7416L46.9098 64.7958V65.1527L43.3516 63.0984V62.7416Z" fill="#133643"/>
<path d="M41.502 62.4851L49.711 67.2246V67.5814L41.502 62.842V62.4851Z" fill="#133643"/>
<path d="M47.8164 66.942L49.7117 68.0364V68.3932L47.8164 67.2989V66.942Z" fill="#133643"/>
<path d="M47.3286 66.6603V67.0172L43.3867 64.7413V64.3844L47.3286 66.6603Z" fill="#133643"/>
<path d="M60.7166 64.0262V74.7475L51.0996 69.195V58.4738L60.7166 64.0262Z" fill="white"/>
<path opacity="0.2" d="M53.793 68.2713L54.6961 68.608L55.8271 70.0856L54.9346 68.4314C54.9346 68.4314 54.4451 67.6499 54.4169 67.6525C54.3883 67.6547 53.793 68.2713 53.793 68.2713Z" fill="#BBCAD5"/>
<path d="M59.8185 71.4873C60.1779 71.9585 60.4487 74.5956 60.4487 74.5956L56.7695 72.4714L57.5221 69.0747C57.7826 69.3367 59.4866 71.0524 59.8185 71.4873Z" fill="#273549"/>
<path d="M52.0071 66.9773C52.3665 66.9212 54.3406 67.222 54.3406 67.222L55.9061 69.125L57.4852 69.0374C57.4852 69.0374 57.5002 69.0528 57.5222 69.0744L56.7697 72.4711L51.377 69.3577C51.377 69.3577 51.6473 67.0334 52.0071 66.9773Z" fill="#DAECFA"/>
<path d="M56.7017 69.2913L57.2728 69.2448L57.1714 68.142L57.0592 66.9194L54.7687 65.5972L54.6565 66.6901L54.5547 67.6753L55.1259 68.3813C55.3592 68.7169 55.5956 68.7817 55.907 69.1246C56.284 69.1653 56.4822 69.354 56.7017 69.2913Z" fill="#FFB294"/>
<path opacity="0.3" d="M55.9128 68.3433C56.5246 68.6965 56.9643 68.2894 57.1303 67.7084L57.0581 66.9203L54.7675 65.598L54.6953 66.3026C54.8616 67.0756 55.3009 67.9901 55.9128 68.3433Z" fill="#CC8E76"/>
<path d="M55.9637 62.8274L56.884 63.4766L57.6545 64.5636L57.6263 65.9848C57.6263 65.9848 57.908 65.7774 57.9993 66.1753C58.111 66.6637 57.9813 67.1315 57.9359 67.1806C57.8905 67.2297 57.7809 67.3587 57.6417 67.2554C57.5915 67.2184 57.5508 67.1477 57.5189 67.0726C57.4596 67.3613 57.3654 67.7672 57.2398 67.883C57.0225 68.0834 56.6939 68.323 55.9124 67.8654C55.1309 67.4206 54.8023 66.8014 54.585 66.3501C54.4597 66.0896 54.3652 65.5744 54.3058 65.2172C54.2739 65.2557 54.2333 65.2791 54.1831 65.2586C54.0435 65.2007 53.9343 64.9454 53.8889 64.8439C53.8435 64.7424 53.7138 64.1247 53.8255 63.7653C53.9164 63.4725 54.1981 64.0053 54.1981 64.0053L54.2018 62.4808L54.9803 62.3774L55.9637 62.8274Z" fill="#FFB294"/>
<path d="M57.1596 68.0206C57.1596 68.0206 57.2725 68.0858 57.382 68.4892C57.4879 68.8794 57.7667 69.3352 57.7667 69.3352C57.8352 69.8661 56.8259 70.028 56.9277 70.5673C56.9277 70.5673 56.4639 69.7679 56.3199 69.2476L55.9062 69.1256C55.9062 69.1256 57.0658 68.9915 57.1212 68.7167C57.1944 68.3566 57.1596 68.0206 57.1596 68.0206Z" fill="white"/>
<path d="M54.6695 66.5826C54.6695 66.5826 54.5544 66.5163 54.4449 66.7933C54.339 67.0611 54.0602 67.1948 54.0602 67.1948C53.9917 67.6466 54.9384 69.0696 54.8362 69.4909C54.8362 69.4909 55.3 69.0473 55.4927 68.7695L55.9067 69.1253C55.9067 69.1253 54.7453 67.6444 54.6896 67.3055C54.6156 66.8563 54.6695 66.5826 54.6695 66.5826Z" fill="white"/>
<path d="M57.1594 68.0193C57.1594 68.0193 57.3865 68.3069 57.2817 68.8393C57.244 69.0312 56.2148 72.1498 56.2148 72.1498L57.0176 72.6133L57.9167 71.124L57.3601 70.3711L58.0812 70.7441L57.8991 69.4544C57.8991 69.4544 57.5027 68.7165 57.4525 68.4842C57.4151 68.3098 57.2224 68.0211 57.1557 67.9783C57.1572 67.9926 57.1583 68.0017 57.1594 68.0193Z" fill="#424F70"/>
<path d="M51.8988 66.927C51.539 66.9831 51.3613 69.3473 51.3613 69.3473L55.0405 71.4716L54.2956 67.1337C54.0351 67.0948 52.2307 66.8754 51.8988 66.927Z" fill="#273549"/>
<path d="M54.671 66.5816C54.671 66.5816 54.4251 66.5962 54.5295 67.2495C54.5673 67.4851 55.5968 71.7922 55.5968 71.7922L54.7941 71.3287L53.895 68.8015L54.4515 68.6912L53.7305 68.2314L53.9126 67.1517C53.9126 67.1517 54.309 66.8717 54.3592 66.697C54.3962 66.568 54.5951 66.5072 54.6732 66.5409C54.6721 66.5567 54.6713 66.5644 54.671 66.5816Z" fill="#424F70"/>
<path d="M56.3197 69.247L56.1749 70.0516L56.4636 71.3925L56.2141 72.1506L55.5942 71.7926L55.3477 70.7583L55.7254 69.771L55.4916 68.7693C55.6943 68.9437 55.7943 69.0294 55.9057 69.1221C56.0123 69.1562 56.1302 69.191 56.3197 69.247Z" fill="#03A9F4"/>
<path d="M56.8783 63.0465C57.9016 64.0961 58.1705 64.8161 57.9302 66.005C57.5663 65.7199 57.5685 66.4076 57.5685 66.4076L57.3091 66.2783C57.3575 65.9423 57.5935 65.3304 57.2395 64.3709C57.0996 63.9913 56.7281 63.7019 56.4482 63.7147C56.1525 63.7283 55.7224 63.4931 55.4359 63.1205C55.1475 62.7453 54.7397 62.6178 54.6038 62.8688C54.2913 63.4454 54.4943 64.6332 54.4943 64.6332L54.2613 64.4988C54.2613 64.4988 54.2638 63.814 53.8996 63.6788C53.8996 63.6788 53.4794 61.6652 54.8669 61.9147C55.4956 62.0268 56.2155 62.3668 56.8783 63.0465Z" fill="black"/>
<path d="M40.4141 53.1445L49.7109 58.512V57.6719L40.4141 52.3044V53.1445Z" fill="white"/>
<path d="M40.4141 54.8207L49.7109 60.1881V59.3476L40.4141 53.9802V54.8207Z" fill="white"/>
<path d="M40.4141 56.497L49.7109 61.8644V61.0243L40.4141 55.6569V56.497Z" fill="white"/>
<path d="M40.4141 58.1725L49.7109 63.5399V62.6998L40.4141 57.3324V58.1725Z" fill="white"/>
<path d="M45.4121 55.1895L49.7115 57.672V58.5121L45.4121 56.0296V55.1895Z" fill="#F84F57"/>
<path d="M43.0156 55.4823L49.7104 59.3472V60.1877L43.0156 56.3224V55.4823Z" fill="#49738A"/>
<path d="M41.502 56.2844L49.711 61.0239V61.864L41.502 57.1245V56.2844Z" fill="#FFCA28"/>
<path d="M45.4121 60.2175L49.7115 62.6997V63.5398L45.4121 61.0576V60.2175Z" fill="#8BC34A"/>
<path d="M34.8616 23.8795C34.8642 23.0424 35.1613 22.454 35.6394 22.1785C35.6347 22.1807 36.7327 21.5428 36.7327 21.5428C37.2145 21.2629 37.8817 21.3021 38.6173 21.7267L64.5422 36.6943C66.0044 37.5384 67.1874 39.5876 67.1826 41.2678L67.1394 56.5149C67.1368 57.3495 66.8419 57.9372 66.3663 58.2134L65.2683 58.8517C64.7931 59.1309 64.1234 59.095 63.3837 58.6678L37.4589 43.7002C35.9966 42.856 34.8136 40.8069 34.8184 39.1267L34.8616 23.8795Z" fill="#C6D0FF"/>
<path d="M35.0491 23.8792C35.0514 23.0792 35.3343 22.567 35.7368 22.3376C36.1396 22.108 36.7286 22.1241 37.4256 22.5264C37.4256 22.5264 37.4256 22.5264 37.4256 22.5264L63.3504 37.494L63.4408 37.3375L63.3504 37.494C64.0463 37.8958 64.6863 38.5918 65.1521 39.3986C65.6179 40.2055 65.8994 41.1055 65.8971 41.9046L65.8539 57.1517C65.8516 57.9518 65.5687 58.4639 65.1662 58.6933C64.7633 58.9229 64.1744 58.9069 63.4774 58.5045L37.5526 43.5369C36.8566 43.1351 36.2167 42.4391 35.7509 41.6323C35.285 40.8254 35.0036 39.9255 35.0059 39.1263L35.0491 23.8792Z" fill="white" stroke="#A9B1D4" stroke-width="0.375"/>
<path d="M63.2455 41.1289V54.6412L51.125 47.6434V34.1315L63.2455 41.1289Z" fill="white"/>
<path d="M44.1738 38.6381L49.4387 41.6779V42.5777L44.1738 39.5379V38.6381Z" fill="#133643"/>
<path d="M42.9859 37.9535V38.8533L37.7207 35.8135V34.9137L42.9859 37.9535Z" fill="#133643"/>
<path d="M38.6016 36.8942L49.439 43.1511V43.6011L38.6016 37.3437V36.8942Z" fill="#133643"/>
<path d="M43.6348 40.8237L49.4382 44.1742V44.6242L43.6348 41.2736V40.8237Z" fill="#133643"/>
<path d="M40.3594 38.9325L44.7119 41.4455V41.8954L40.3594 39.3824V38.9325Z" fill="#133643"/>
<path d="M46.4492 43.4713L49.4381 45.197V45.6469L46.4492 43.9212V43.4713Z" fill="#133643"/>
<path d="M45.6929 43.0353V43.4849L39.4355 39.8724V39.4225L45.6929 43.0353Z" fill="#133643"/>
<path d="M42.3516 42.1281L49.4384 46.2197V46.6693L42.3516 42.578V42.1281Z" fill="#133643"/>
<path d="M58.573 40.4493C59.5344 41.3718 60.5148 42.804 60.1521 44.715C59.2593 49.4175 54.7286 45.635 54.2578 41.3121C54.0582 39.1333 55.0727 38.8303 55.9688 38.9647C56.8272 39.0937 57.5889 39.5048 58.573 40.4493Z" fill="black"/>
<path d="M58.5726 47.0806C58.5726 47.0806 60.5243 49.2683 60.9376 49.8893C61.3509 50.5103 61.4567 53.6007 61.4567 53.6007L57.1874 51.1412L52.918 48.6707C52.918 48.6707 53.0238 45.7023 53.4371 45.5591C53.8508 45.4158 55.8021 45.4814 55.8021 45.4814L58.5726 47.0806Z" fill="#03A9F4"/>
<path d="M58.572 47.0814C58.9482 49.6248 57.8612 49.4064 57.8498 51.5248L56.5239 50.7591C56.5126 48.6279 55.4255 47.591 55.8018 45.4818L58.572 47.0814Z" fill="#D94D3B"/>
<path d="M57.1879 48.2474C57.8924 48.6728 58.5966 48.4445 58.5732 47.0805L58.575 45.8385L58.2815 44.6756L57.1879 43.9659L56.0943 43.4127L55.8008 44.2371L55.8026 45.4813C55.7792 46.8182 56.4833 47.8591 57.1879 48.2474Z" fill="#FFB294"/>
<path opacity="0.3" d="M57.188 46.9064C57.908 47.3215 58.4246 46.7621 58.6202 45.9963L58.5352 45.1346L57.188 44.2788L55.8409 43.579L55.7559 44.3425C55.9515 45.3343 56.4681 46.4906 57.188 46.9064Z" fill="#CC8E76"/>
<path d="M57.1874 41.1557C57.7911 41.5646 58.4513 42.083 59.1064 42.5904L59.2277 44.1098C59.2277 44.1098 59.4208 43.7698 59.593 44.2915C59.7403 44.7381 59.5318 45.1477 59.4801 45.2159C59.4285 45.284 59.3786 45.5046 59.2152 45.3808C59.1563 45.3361 59.1086 45.2474 59.0713 45.1521C59.0017 45.5313 58.891 45.8362 58.7441 45.9955C58.4895 46.2714 57.8864 46.6158 57.1874 46.2124C56.4887 45.8091 55.8856 44.7685 55.631 44.1981C55.4841 43.8691 55.3731 43.4364 55.3038 42.977C55.2664 43.029 55.2188 43.0627 55.1598 43.0392C54.996 42.9744 54.9462 42.696 54.8949 42.5685C54.8433 42.441 54.6352 41.7906 54.7821 41.514C54.9539 41.1905 55.1474 41.754 55.1474 41.754L55.2126 41.0117C55.2459 40.6329 55.5409 40.4761 55.9332 40.6274C56.3637 40.7937 56.788 40.9652 57.1874 41.1557Z" fill="#FFB294"/>
<path d="M55.8008 40.5882C57.3476 42.179 57.9598 44.7279 60.0134 44.8975C60.1764 42.5527 57.7268 40.1526 55.8008 40.5882Z" fill="black"/>
<path d="M59.1035 45.266C59.1035 45.3481 59.1702 45.4532 59.2523 45.5008C59.3343 45.5485 59.401 45.5202 59.401 45.4378C59.401 45.3557 59.3343 45.2506 59.2523 45.203C59.1702 45.1557 59.1035 45.1839 59.1035 45.266Z" fill="white"/>
<path d="M54.9688 42.8783C54.9688 42.9604 55.0354 43.0655 55.1175 43.1132C55.1996 43.1608 55.2663 43.1326 55.2663 43.0501C55.2663 42.9681 55.1996 42.8629 55.1175 42.8153C55.0354 42.768 54.9688 42.7959 54.9688 42.8783Z" fill="white"/>
<path d="M37.7227 27.4515L49.4398 34.2163V33.1575L37.7227 26.3927V27.4515Z" fill="white"/>
<path d="M37.7227 29.5638L49.4398 36.3283V35.2694L37.7227 28.505V29.5638Z" fill="white"/>
<path d="M37.7227 31.6769L49.4398 38.4417V37.3828L37.7227 30.618V31.6769Z" fill="white"/>
<path d="M37.7227 33.7891L49.4398 40.5539V39.4951L37.7227 32.7303V33.7891Z" fill="white"/>
<path d="M38.6016 26.9003L49.439 33.1572V34.2161L38.6016 27.9591V26.9003Z" fill="#F84F57"/>
<path d="M39.2852 29.4073L49.4393 35.2697V36.3286L39.2852 30.4662V29.4073Z" fill="#49738A"/>
<path d="M40.3535 32.1378L49.4382 37.3825V38.4413L40.3535 33.1966V32.1378Z" fill="#FFCA28"/>
<path d="M45.6934 37.3329L49.4381 39.4949V40.5537L45.6934 38.3917V37.3329Z" fill="#8BC34A"/>
<path d="M21.6914 55.1248L23.6112 56.8815L24.296 57.6418L26.4668 55.4809L27.2757 54.0846L29.8363 49.6625C29.8363 49.6625 26.7712 48.7172 25.1269 50.6077C24.123 51.7603 22.7099 53.6168 21.6914 55.1248Z" fill="#FFCA28"/>
<path d="M23.6133 56.8815L24.298 57.6417L26.4688 55.4808L27.2778 54.0846C27.2144 53.8435 27.1415 53.5998 27.0656 53.3584C26.8462 54.0432 26.33 54.5839 25.8302 55.1005C25.1114 55.8413 24.3878 56.204 23.6133 56.8815Z" fill="#EDB408"/>
<path d="M28.9386 97.2294C28.8569 97.4954 28.6843 97.7332 28.4883 97.9387C27.9703 98.4872 27.2727 98.8558 26.5634 98.9492C26.3139 98.9818 26.064 98.9844 25.8145 99.0214C25.5672 99.0562 25.2825 99.1917 25.0656 99.3386C24.7949 99.5251 24.5175 99.7072 24.2186 99.8215C23.9178 99.938 23.5888 99.9824 23.3063 99.8867C23.052 99.8003 22.8465 99.5999 22.7508 99.343C22.6109 98.9649 22.7135 98.5147 22.8395 98.0996C22.8465 98.0761 22.8534 98.053 22.8604 98.0296C22.9795 97.6376 23.1099 97.2316 23.0612 96.8443C23.3924 96.5293 23.81 96.4245 24.2372 96.331C24.4285 96.2889 24.6223 96.2472 24.8088 96.275C24.9814 96.3006 25.1378 96.3871 25.3056 96.4289C25.609 96.5036 25.9402 96.4336 26.26 96.3659C26.4373 96.3285 26.6169 96.2911 26.7967 96.2563C27.2331 96.1794 27.6717 96.1281 28.0988 96.1581C28.3835 96.179 28.6799 96.2468 28.8503 96.4637C29.0064 96.6648 29.0229 96.9634 28.9386 97.2294Z" fill="#000B17"/>
<path d="M27.5816 97.2364C27.5208 97.4068 27.3413 97.5024 27.1757 97.5771C26.7184 97.7893 26.2634 98.0018 25.8083 98.2139C25.2786 98.459 24.6931 98.7111 24.1333 98.5568C23.8581 98.4799 23.62 98.3165 23.3679 98.1904C23.2653 98.137 23.158 98.0879 23.0459 98.0553C22.9968 98.0413 22.9246 98.0413 22.8594 98.0296C22.9784 97.6376 23.1089 97.2316 23.0601 96.8444C23.3914 96.5293 23.809 96.4245 24.2362 96.3311C24.4275 96.2889 24.6213 96.2472 24.8078 96.275C24.9803 96.3007 25.1368 96.3871 25.3046 96.4289C25.6079 96.5036 25.9391 96.4337 26.259 96.3659C26.4363 96.3285 26.6158 96.2912 26.7957 96.2563C26.9731 96.3542 27.1412 96.4685 27.2951 96.6018C27.4812 96.7627 27.6633 97.003 27.5816 97.2364Z" fill="#F8CFB3"/>
<path d="M30.995 98.4217C30.9389 98.6899 30.785 98.9302 30.6077 99.1379C30.1296 99.6934 29.4434 100.064 28.7201 100.158C28.4633 100.193 28.2046 100.193 27.95 100.23C27.6957 100.267 27.4158 100.402 27.2059 100.552C26.9447 100.738 26.6787 100.923 26.3801 101.042C26.0815 101.158 25.7455 101.202 25.44 101.107C25.1644 101.018 24.9289 100.815 24.8028 100.558C24.6163 100.178 24.6676 99.73 24.7515 99.3171C24.8263 98.9346 24.9171 98.5613 24.8728 98.1949C24.8658 98.1414 24.8563 98.0875 24.845 98.034C24.9102 97.9688 24.9779 97.9102 25.0501 97.8637C25.33 97.6724 25.666 97.5907 26.0115 97.5138C26.2027 97.4717 26.401 97.4299 26.597 97.4577C26.7813 97.4834 26.9516 97.572 27.1311 97.6142C27.4554 97.6889 27.7914 97.6189 28.1156 97.549C28.3559 97.4977 28.5963 97.4486 28.8388 97.409C29.2239 97.3486 29.6133 97.3134 30.0032 97.3412C30.2996 97.3621 30.6169 97.4299 30.8176 97.6493C31.0019 97.8523 31.0532 98.1535 30.995 98.4217Z" fill="#000B17"/>
<path d="M24.75 99.1539C25.016 99.1748 25.3787 99.3092 25.6473 99.3579C26.0136 99.4257 26.2946 99.5833 26.668 99.5246C27.1347 99.4547 27.5685 99.2495 28.0258 99.1304C28.3222 99.0535 28.6325 99.0091 28.9102 98.8761C29.1857 98.7453 29.4327 98.4936 29.4539 98.1877C29.4774 97.8331 29.1784 97.525 28.838 97.4084C28.5955 97.448 28.3551 97.4971 28.1148 97.5484C27.7906 97.6184 27.4546 97.6884 27.1303 97.6136C26.9508 97.5715 26.7805 97.4828 26.5962 97.4572C26.4002 97.4293 26.2019 97.4711 26.0107 97.5132C25.6656 97.5902 25.3292 97.6719 25.0493 97.8631C24.9863 97.9683 24.9281 98.08 24.872 98.1943L24.75 99.1539Z" fill="#F8CFB3"/>
<path d="M21.0499 64.2144C21.0499 64.2144 17.2 68.453 19.2612 72.7696C19.2612 72.7696 19.6925 74.6938 19.8522 75.3361C20.1926 76.7038 21.2444 79.8858 21.361 80.5079C21.4778 81.13 21.2833 83.1132 20.8942 84.3189C20.5055 85.5243 20.0281 89.2188 21.3943 92.174C22.7605 95.1296 22.9822 97.448 22.9822 97.448C22.9822 97.448 24.2381 98.6681 25.2493 97.5792V75.7636L27.3102 67.3641L21.0499 64.2144Z" fill="#133643"/>
<path opacity="0.5" d="M22.2286 75.1438C22.6829 76.421 23.2622 77.6601 23.5556 78.9835C24.2239 81.9958 23.3581 85.1148 23.2904 88.1997C23.2281 91.0442 23.8616 93.9016 25.1204 96.4534C24.1473 91.0105 25.8927 85.5013 26.6013 80.0177C26.7611 78.7809 26.8618 77.4861 26.42 76.3199C25.8044 74.695 24.3027 73.6622 23.0676 72.5349C22.6793 72.1802 21.9099 71.4387 21.5992 72.2183C21.3171 72.9247 21.9897 74.4723 22.2286 75.1438Z" fill="#000B17"/>
<path d="M30.6971 69.4033C30.6528 70.0544 30.6224 70.8128 30.655 71.5056C30.7341 73.1576 30.2677 79.7886 29.8592 80.7031C29.4507 81.6154 28.6714 84.6486 28.6714 85.2132C28.6714 85.7778 28.5945 90.1314 28.2842 91.3775C28.0907 92.1476 27.7639 94.4012 27.5445 96.0067C27.4067 96.9937 27.3111 97.7356 27.3111 97.7356C26.8843 98.9395 24.8029 98.5871 24.6651 97.9851C24.6651 97.9851 24.8611 94.6624 24.2383 92.2898C23.6176 89.9193 24.6277 86.0299 24.7842 85.4066C24.9381 84.786 24.978 82.8028 24.7842 81.9466C24.5882 81.0904 24.2779 77.8237 24.3548 77.0866C24.4343 76.3469 24.0049 75.2573 24.0049 75.2573C18.7763 71.3213 23.4612 66.7412 23.4612 66.7412L30.8507 67.8121C30.8507 67.8121 30.758 68.5005 30.6971 69.4033Z" fill="#133643"/>
<path opacity="0.5" d="M30.6547 71.5056C30.7338 73.1576 30.2674 79.7886 29.8589 80.7031C29.4504 81.6154 28.6711 84.6486 28.6711 85.2132C28.6711 85.7778 28.5942 90.1314 28.2839 91.3775C28.0904 92.1476 27.7636 94.4012 27.5442 96.0066C27.4603 93.4915 27.2643 87.8965 27.103 86.7296C26.8979 85.2132 28.1274 82.938 28.4004 81.123C28.6711 79.3076 27.3833 69.6762 27.3833 69.6762L29.4574 68.9391L30.6965 69.4033C30.6525 70.0543 30.6221 70.8127 30.6547 71.5056Z" fill="#133643"/>
<path d="M30.7227 49.7235L32.124 49.0482L35.2353 51.4033V52.7058L30.7227 49.7235Z" fill="#EDB408"/>
<path d="M36.1072 57.5488C36.1263 58.2661 36.1072 60.0009 35.6797 61.3265C35.2283 62.7187 33.4939 62.581 33.4939 62.581C33.4939 62.581 32.7336 64.1252 32.0635 65.1756C31.3934 66.226 31.1227 68.4118 31.1227 68.4118C30.9659 69.581 30.443 69.5619 29.7209 69.7759C29.1651 69.9374 28.3239 69.8755 27.3831 69.6762C26.0905 69.4055 24.6078 68.8683 23.4152 68.2983C22.6931 67.9561 22.0798 67.6043 21.6712 67.286C21.1865 66.9104 20.1413 66.2737 20.1933 65.3423C20.2314 64.7294 20.8729 64.0783 21.3195 63.6555C21.3671 63.6127 21.4096 63.5698 21.4525 63.5273C24.1278 60.9612 24.7221 59.0414 25.0071 56.7226C25.3017 54.3562 27.4259 49.775 27.9817 49.5423C28.5379 49.3097 30.0536 49.0195 32.3537 50.6257C34.5018 52.118 36.607 53.748 36.607 53.748L36.0984 57.2168C36.0977 57.2161 36.1072 57.3396 36.1072 57.5488Z" fill="#FFCA28"/>
<path opacity="0.5" d="M23.4104 68.2928C22.6927 67.9554 22.0798 67.6036 21.6712 67.2853C21.1865 66.9097 20.1413 66.273 20.1933 65.3416C20.2314 64.7287 20.8729 64.0776 21.3195 63.6548C21.3671 63.612 21.4096 63.5691 21.4525 63.5266C21.8566 63.9732 22.0178 65.1376 22.156 65.5464C22.4743 66.5012 22.84 67.4564 23.4104 68.2928Z" fill="#FFCA28"/>
<path d="M33.7178 41.7545C32.7378 42.1418 32.0391 43.0665 31.7244 44.0718C31.4097 45.0775 31.4364 46.1594 31.5753 47.204C31.6837 48.0206 31.8629 48.8406 32.2531 49.566C32.6432 50.2914 33.2672 50.9187 34.0501 51.1744C33.945 51.0092 33.9684 50.8194 33.9611 50.6234C34.5964 51.3393 35.4706 51.868 36.407 52.0669C36.3902 51.6298 36.5067 51.174 36.7298 50.7978C36.9343 51.107 37.2984 51.3701 37.6223 51.5507C38.1503 50.6421 38.6456 49.706 39.0351 48.7296C39.4245 47.7536 39.6711 46.7043 39.6077 45.6549C39.5234 44.2605 38.8497 42.8859 37.719 42.0648C36.5884 41.2438 35.0174 41.2412 33.7178 41.7545Z" fill="#133643"/>
<path opacity="0.5" d="M35.682 61.3262C35.2291 62.7192 33.4932 62.5814 33.4932 62.5814C33.4932 62.5814 32.7348 64.1261 32.0655 65.1761C31.3935 66.2262 31.1206 68.4145 31.1206 68.4145C30.9667 69.5811 30.4417 69.5649 29.7207 69.7749C29.163 69.9383 28.3229 69.8775 27.3828 69.6767C27.4224 69.6488 27.4645 69.6206 27.5088 69.5902C27.9243 69.3008 28.309 68.9696 28.6684 68.6149C30.1548 67.1428 31.2001 65.2692 32.0329 63.3721C33.4049 60.2549 36.0227 59.6156 35.01 55.2642C35.3156 55.887 35.7567 56.7037 36.1088 57.5485C36.1253 58.2674 36.1092 60.0032 35.682 61.3262Z" fill="#FFCA28"/>
<path d="M22.0864 67.5749C22.9148 68.9781 24.0623 68.1372 24.099 67.3089C24.1037 67.2502 24.0964 67.1967 24.0817 67.1433L23.1925 58.6748L24.2986 57.6413L23.6139 56.881L21.6941 55.1243C21.0459 56.0842 20.3128 57.2368 20.1937 57.6413C19.8893 58.6741 21.0558 65.828 22.0864 67.5749Z" fill="#FFCA28"/>
<path d="M22.0859 58.2303C22.6974 61.1808 23.6987 64.4324 24.0618 67.422C24.0739 67.3854 24.0886 67.3465 24.0984 67.3099C24.1032 67.2513 24.0959 67.1978 24.0812 67.1443L23.192 58.6759L24.2981 57.6423L23.6134 56.8821C23.1286 57.306 22.6219 57.8746 22.0859 58.2303Z" fill="#EDB408"/>
<path d="M24.0806 67.0403C24.3807 67.3133 24.5448 67.7877 24.5701 68.1926C24.6126 68.8689 24.8189 69.5375 24.7621 70.2128C24.7493 70.3659 24.6536 70.57 24.5027 70.541C24.6602 70.7107 24.5386 71.0961 24.3188 71.169C24.2554 71.1899 24.1869 71.1925 24.125 71.2174C24.007 71.2646 23.9289 71.3852 23.8091 71.428C23.6545 71.4834 23.4739 71.3943 23.3219 71.4559C23.2317 71.4925 23.1625 71.5783 23.0661 71.5907C22.9416 71.6065 22.8324 71.4925 22.7067 71.4936C22.6331 71.4944 22.5664 71.5343 22.4957 71.5541C22.3264 71.6017 22.1399 71.5284 22.015 71.4046C21.8901 71.2811 21.8168 71.1144 21.7633 70.947C21.7069 70.7711 21.9846 70.6011 22.1667 70.6312C21.9879 70.3868 22.1784 70.0186 22.0348 69.7522C21.834 69.3793 21.808 68.9169 21.782 68.4945C21.7666 68.2479 21.7706 67.9911 21.8736 67.7668C21.9329 67.6375 22.0227 67.525 22.0963 67.403C22.1571 67.3034 23.1936 66.2336 24.0806 67.0403Z" fill="#FFB294"/>
<path d="M22.168 70.6315C22.2456 70.6392 22.246 70.6953 22.3017 70.7495C22.3537 70.6543 22.3493 70.5568 22.6036 70.5473C22.712 70.5432 22.8106 70.6202 22.8802 70.7037C22.8905 70.6118 22.9898 70.504 23.1275 70.4564C23.2151 70.426 23.3858 70.4945 23.4503 70.5612C23.5239 70.4685 23.6437 70.3399 23.7617 70.3509C23.8797 70.3619 23.9896 70.4168 24.0471 70.5176C24.2508 70.193 24.2314 69.7812 24.205 69.3987C24.1933 69.2298 24.1812 69.0583 24.1241 68.8986C24.0207 68.6102 23.7833 68.3941 23.5543 68.1907C23.3396 68.0002 23.1114 67.7881 23.0605 67.5052C22.9967 67.75 23.1158 68.0105 23.1986 68.2494C23.2814 68.4886 23.3898 68.7209 23.4316 68.9708C23.4734 69.2203 23.4367 69.4994 23.2627 69.683C23.1033 69.8508 22.8641 69.9083 22.649 69.9937C22.434 70.079 22.2105 70.2329 22.1848 70.463C22.1812 70.4989 22.1907 70.6601 22.168 70.6315Z" fill="#F0A88B"/>
<path d="M44.9526 51.0774C44.9812 50.7788 44.8596 50.4806 44.8929 50.1824C44.916 49.9765 45.0112 49.7867 45.105 49.6016C45.4886 48.8465 45.8719 48.0914 46.2555 47.336C46.4427 46.9674 46.6713 46.6029 46.9413 46.2896C47.0527 46.1606 47.1699 46.0361 47.2817 45.9071C47.4997 45.655 47.6968 45.3847 47.8705 45.1003C48.0602 45.1454 48.1995 45.3715 48.1632 45.5631C48.1269 45.7547 48.0002 45.9141 47.8829 46.0698C47.6253 46.4127 47.3971 46.7776 47.2011 47.159C47.1718 47.2162 47.1395 47.2726 47.1033 47.3253C47.1674 47.3213 47.2326 47.307 47.2949 47.3217C47.4564 47.3598 47.5294 47.5708 47.6902 47.6104C47.8074 47.6393 47.9401 47.5664 48.0481 47.621C48.1504 47.6727 48.1793 47.8156 48.2808 47.8687C48.3328 47.8958 48.3947 47.8943 48.4512 47.9105C48.5831 47.9482 48.667 48.0735 48.7395 48.1896C48.8201 48.3193 48.9029 48.4534 48.9267 48.6044C48.9476 48.737 48.9216 48.8718 48.8934 49.0034C48.8487 49.2122 48.882 49.2675 48.8274 49.4741C48.7655 49.7086 48.4614 49.7911 48.3508 50.0069C48.2987 50.1083 48.279 50.2355 48.1863 50.3014C48.0954 50.3659 47.9514 50.3351 47.895 50.2388C47.6763 50.6792 47.1787 51.1518 46.783 51.4438C46.6896 51.513 46.594 51.5834 46.5266 51.6783C46.4599 51.7721 46.4244 51.8856 46.3548 51.9772C46.2104 52.1663 45.9415 52.2242 45.7081 52.1787C45.4747 52.1329 45.2681 52.0018 45.0706 51.8692C44.9413 51.7823 44.8728 51.6929 44.8772 51.5372C44.8823 51.3826 44.9376 51.2328 44.9526 51.0774Z" fill="#FFB294"/>
<path d="M46.4302 51.9905C46.4302 51.9905 45.9228 51.0497 44.9504 51.0775C44.9504 51.0775 40.9287 56.8344 40.8452 57.1403C40.8452 57.1403 37.3327 53.8572 36.0185 53.526C34.7043 53.1948 32.6761 55.2231 33.8151 56.8904C34.9542 58.5578 40.1505 61.5863 41.7622 60.5861C43.3735 59.5855 46.4302 54.3804 46.4302 51.9905Z" fill="#EDB408"/>
<path d="M32.0531 103.468C32.0505 103.448 32.2311 107.273 32.2311 107.273C32.3271 109.305 33.764 111.314 36.5133 112.811C41.9745 115.786 50.5544 115.62 55.673 112.437C58.2171 110.855 59.428 108.827 59.3335 106.821C59.3335 106.821 59.1441 103.253 59.1397 103.381C59.2177 101.22 57.7936 99.0503 54.8714 97.4587C49.4102 94.4841 40.8304 94.6504 35.7077 97.8357C33.157 99.4214 31.949 101.457 32.0531 103.468ZM53.3429 102.347C54.7087 103.09 55.6712 103.99 56.2369 104.954C55.7727 105.918 54.9216 106.834 53.6642 107.616C49.4908 110.211 42.4944 110.349 38.0411 107.924C36.6749 107.179 35.711 106.28 35.1453 105.316C35.6091 104.353 36.4598 103.437 37.7158 102.656C41.8932 100.059 48.8895 99.9211 53.3429 102.347Z" fill="#82171C"/>
<path opacity="0.2" d="M37.4776 99.9347C41.6397 97.3635 49.146 97.5302 54.2375 100.306C55.0688 100.758 55.7756 101.247 56.3779 101.768C57.7093 102.925 58.4564 104.219 58.5868 105.487C58.0035 106.613 56.9747 107.688 55.4916 108.612C51.948 110.817 46.7327 111.573 42.0518 110.842C41.0333 110.514 40.0602 110.109 39.1644 109.617C36.6188 108.229 35.1537 106.453 34.8445 104.705C34.5415 102.953 35.3962 101.22 37.4776 99.9347Z" fill="#B3DCF6"/>
<path d="M36.3341 108.987C38.0099 109.899 39.9825 110.516 42.0522 110.841C46.733 111.572 51.9484 110.817 55.492 108.611C56.9747 107.687 58.0038 106.613 58.5871 105.487C60.0182 102.703 58.752 99.5754 54.8706 97.4563C49.413 94.4839 40.8288 94.6476 35.7072 97.8355C30.5912 101.02 30.8729 106.009 36.3341 108.987ZM53.1633 98.5191C54.8263 99.423 55.8979 100.564 56.3779 101.768C57.1689 103.785 56.2852 105.991 53.6634 107.618C49.4918 110.211 42.498 110.351 38.0411 107.925C36.3876 107.023 35.3207 105.903 34.8448 104.705C34.0263 102.681 34.9082 100.46 37.5355 98.8291C41.7129 96.2326 48.71 96.0996 53.1633 98.5191Z" fill="#F84F57"/>
<path opacity="0.4" d="M39.8511 101.916C40.6391 101.429 41.5994 101.083 42.6498 100.87L41.1773 99.1992C39.9313 99.4879 38.7911 99.921 37.8397 100.509C36.0642 101.605 35.2343 103.062 35.5025 104.607C35.5066 104.631 35.5183 104.655 35.5231 104.678L38.0877 104.869C37.9488 103.755 38.5658 102.709 39.8511 101.916Z" fill="white"/>
<path d="M80.3489 122.104C82.7611 121.299 83.4455 116.63 80.834 115.609L58.7023 107.364C58.2908 107.128 57.6134 107.454 57.036 108.041C56.0746 109.018 55.3855 110.726 56.6359 111.809L78.6944 122.057C79.3088 122.271 79.8642 122.266 80.3489 122.104Z" fill="#F84F57"/>
<path d="M56.6359 110.174L78.6943 120.421C79.3084 120.635 79.8638 120.631 80.3485 120.468C81.4498 120.099 82.1844 118.927 82.4163 117.665C82.7585 119.396 81.928 121.575 80.3496 122.102C79.8638 122.266 79.3084 122.271 78.6943 122.057L56.6359 111.809C55.8888 111.162 55.8368 110.292 56.1189 109.488C56.2281 109.733 56.3955 109.965 56.6359 110.174Z" fill="#82171C"/>
</svg>
