<svg width="27" height="28" viewBox="0 0 27 28" fill="none" xmlns="http://www.w3.org/2000/svg">
<path d="M25.733 10.1509L21.4575 6.64493V3.56654C21.4575 3.16749 21.144 2.85395 20.7449 2.85395H19.6333C19.2342 2.85395 18.9207 3.16749 18.9207 3.56654V4.53566L14.1606 0.630663C13.79 0.317123 13.2199 0.317123 12.8494 0.630663L1.27692 10.1509C0.53583 10.7495 0.963384 11.9751 1.93251 11.9751H4.44083V20.6687C4.44083 21.4098 5.0394 22.0369 5.809 22.0369H8.77338C9.14393 20.9823 9.82801 20.0416 10.7971 19.4146V12.6592C10.7971 12.2031 10.9682 11.7471 11.3102 11.405L12.4788 10.1794C12.8209 9.80883 13.3055 9.60931 13.8185 9.60931C14.3316 9.60931 14.8161 9.80883 15.1582 10.1794L16.3268 11.405C16.6404 11.7471 16.8114 12.1746 16.8114 12.6592V13.6283C16.8114 13.9989 16.6974 14.3694 16.4979 14.6544C16.6974 14.968 16.8114 15.31 16.8114 15.6806V16.3647C16.8114 16.7352 16.6974 17.1058 16.4979 17.3908C16.6974 17.7043 16.8114 18.0464 16.8114 18.4169V19.386C17.752 20.0416 18.4646 20.9538 18.8352 22.0084H21.201C21.9421 22.0084 22.5691 21.4098 22.5691 20.6402V11.9751H25.0775C26.0181 11.9751 26.4741 10.7495 25.733 10.1509Z" fill="#8BC34A"/>
<path d="M15.2154 20.3546V18.4164C15.2154 18.3594 15.1869 18.3023 15.1584 18.2453L14.4458 17.5327C14.3603 17.4472 14.3603 17.3047 14.4458 17.1907L15.1584 16.4781C15.2154 16.4211 15.2154 16.3641 15.2154 16.3071V15.6515C15.2154 15.5945 15.1869 15.5375 15.1584 15.4805L14.4458 14.7679C14.3603 14.6824 14.3603 14.5399 14.4458 14.4259L15.1584 13.7133C15.2154 13.6563 15.2154 13.5992 15.2154 13.5422V12.5731C15.2154 12.5161 15.1869 12.4591 15.1584 12.4021L13.9898 11.1764C13.9043 11.0909 13.7332 11.0909 13.6477 11.1764L12.4791 12.4021C12.4506 12.4591 12.4221 12.5161 12.4221 12.5731V20.2691C11.0824 20.8107 10.1133 22.1503 10.1133 23.6895C10.1133 25.7418 11.7665 27.395 13.8188 27.395C15.871 27.395 17.5242 25.7418 17.5242 23.6895C17.4957 22.2073 16.5551 20.8962 15.2154 20.3546ZM13.7902 26.0268C13.2202 26.0268 12.7356 25.5708 12.7356 24.9722C12.7356 24.4021 13.1917 23.9176 13.7902 23.9176C14.3603 23.9176 14.8449 24.3736 14.8449 24.9722C14.8449 25.5708 14.3888 26.0268 13.7902 26.0268Z" fill="#8BC34A"/>
</svg>
