<svg width="136" height="136" viewBox="0 0 136 136" fill="none" xmlns="http://www.w3.org/2000/svg">
<path d="M135.406 93.2693V96.4711C135.378 106.413 128.842 116.342 115.788 123.928C89.5128 139.198 46.7838 139.198 20.3362 123.928C7.0265 116.243 0.378201 106.157 0.406343 96.0859V92.884C0.377576 102.955 7.02588 113.042 20.3356 120.726C46.7831 135.995 89.5121 135.995 115.787 120.726C128.842 113.14 135.378 103.211 135.406 93.2693Z" fill="#A9B1D4"/>
<mask id="mask0_94_4253" style="mask-type:luminance" maskUnits="userSpaceOnUse" x="0" y="92" width="136" height="44">
<path d="M135.406 93.2685V96.4704C135.378 106.413 128.842 116.341 115.788 123.927C89.5128 139.197 46.7838 139.197 20.3362 123.927C7.0265 116.243 0.378201 106.156 0.406343 96.0852V92.8833C0.377576 102.954 7.02588 113.041 20.3356 120.725C46.7831 135.994 89.5121 135.994 115.787 120.725C128.842 113.139 135.378 103.211 135.406 93.2685Z" fill="white"/>
</mask>
<g mask="url(#mask0_94_4253)">
<path d="M3.44188 104.573V107.775C1.40756 103.973 0.395086 100.028 0.406343 96.0852V92.8833C0.395086 96.8262 1.40756 100.771 3.44188 104.573Z" fill="#A9B1D4"/>
</g>
<path d="M115.201 65.921C128.322 73.4966 134.79 83.3474 134.843 93.0831C134.896 102.817 128.539 112.666 115.505 120.24C102.473 127.813 85.3259 131.616 68.126 131.616C50.9264 131.616 33.7352 127.813 20.6171 120.239C7.49567 112.664 1.02533 102.813 0.969121 93.0772C0.91292 83.343 7.26765 73.4948 20.3014 65.9202C33.3327 58.3474 50.4829 54.5446 67.6857 54.5446C84.8883 54.5446 102.082 58.3473 115.201 65.921Z" fill="#FAFAFC" stroke="#A9B1D4" stroke-width="1.125"/>
<path d="M68.1063 129.054C52.4296 129.054 36.7353 125.599 24.7613 118.686C12.9462 111.864 6.43175 102.74 6.41799 92.9938C6.40423 83.3149 12.8168 74.2533 24.4749 67.4787C48.2702 53.6499 87.1132 53.6493 111.062 67.4768C122.874 74.2965 129.387 83.4188 129.401 93.1633C129.415 102.845 123.001 111.907 111.339 118.685C99.443 125.598 83.7831 129.054 68.1063 129.054ZM67.7123 58.9155C52.367 58.9155 37.0411 62.2988 25.3967 69.0653C14.3289 75.4972 8.24032 83.9941 8.25345 92.9907C8.26596 102.055 14.4546 110.615 25.6794 117.096C49.1182 130.629 87.1319 130.629 110.416 117.097C121.488 110.664 127.578 102.165 127.565 93.1658C127.552 84.1035 121.366 75.5453 110.144 69.0665C98.4236 62.2994 83.0583 58.9155 67.7123 58.9155Z" fill="#A9B1D4"/>
<rect x="19.7539" y="1.69824" width="96.2995" height="75" rx="3" fill="white" stroke="#133643" stroke-width="2.25"/>
<rect x="26.1738" y="18.5499" width="50.5572" height="20.8649" rx="1.5" fill="#EAEEFF"/>
<rect x="79.9414" y="18.55" width="29.6923" height="20.8649" rx="1.5" fill="#EAEEFF"/>
<rect x="26.1738" y="43.4274" width="84.262" height="16.0499" rx="1.5" fill="#EAEEFF"/>
<path d="M22.9639 1.69824C21.1911 1.69824 19.7539 3.1354 19.7539 4.90823V12.1307H116.053V4.90822C116.053 3.1354 114.616 1.69824 112.843 1.69824H22.9639Z" fill="#335464"/>
<path d="M25.6201 7.91427C25.7153 7.33112 25.3197 6.78121 24.7365 6.68603C24.1534 6.59085 23.6035 6.98643 23.5083 7.56959C23.4131 8.15275 23.8087 8.70265 24.3918 8.79783C24.975 8.89301 25.5249 8.49743 25.6201 7.91427Z" fill="white"/>
<path d="M25.6201 7.91427C25.7153 7.33112 25.3197 6.78121 24.7365 6.68603C24.1534 6.59085 23.6035 6.98643 23.5083 7.56959C23.4131 8.15275 23.8087 8.70265 24.3918 8.79783C24.975 8.89301 25.5249 8.49743 25.6201 7.91427Z" fill="white"/>
<path d="M28.1304 8.92026C28.7213 8.92026 29.2003 8.44126 29.2003 7.85039C29.2003 7.25951 28.7213 6.78052 28.1304 6.78052C27.5395 6.78052 27.0605 7.25951 27.0605 7.85039C27.0605 8.44126 27.5395 8.92026 28.1304 8.92026Z" fill="white"/>
<path d="M28.1304 8.92026C28.7213 8.92026 29.2003 8.44126 29.2003 7.85039C29.2003 7.25951 28.7213 6.78052 28.1304 6.78052C27.5395 6.78052 27.0605 7.25951 27.0605 7.85039C27.0605 8.44126 27.5395 8.92026 28.1304 8.92026Z" fill="white"/>
<path d="M31.4585 9.11729C32.0494 9.11729 32.5284 8.63829 32.5284 8.04742C32.5284 7.45654 32.0494 6.97754 31.4585 6.97754C30.8677 6.97754 30.3887 7.45654 30.3887 8.04742C30.3887 8.63829 30.8677 9.11729 31.4585 9.11729Z" fill="white"/>
<path d="M31.4585 9.11729C32.0494 9.11729 32.5284 8.63829 32.5284 8.04742C32.5284 7.45654 32.0494 6.97754 31.4585 6.97754C30.8677 6.97754 30.3887 7.45654 30.3887 8.04742C30.3887 8.63829 30.8677 9.11729 31.4585 9.11729Z" fill="white"/>
<rect x="19.7539" y="1.69824" width="96.2995" height="73.4172" rx="3" stroke="#37474F" stroke-width="2.25"/>
<path d="M61.8579 43.5259C61.5605 43.7399 61.3448 44.0493 61.0887 44.3257C59.9441 45.571 58.8179 46.8351 57.8034 48.1911C57.3195 48.8393 54.3059 52.7113 55.8171 53.1292C56.0841 53.202 56.3724 53.1176 56.6038 52.9684C56.8351 52.8192 57.0196 52.6094 57.2058 52.4051C57.9898 51.5434 58.8151 50.6559 59.7774 49.9925C60.7307 49.3357 61.6769 48.6726 62.5544 47.916C62.807 47.6979 63.1819 47.3085 63.5271 47.2542C63.9465 47.1872 64.551 47.4666 64.9384 47.6086C65.9365 47.9722 66.8673 48.4966 67.8295 48.9376C67.9494 48.9933 68.0748 49.0472 68.2043 49.0403C68.3415 49.0345 68.4644 48.965 68.5777 48.8887C69.0635 48.5617 69.3017 48.1221 69.6227 47.6656C69.8627 47.3199 70.3947 46.8823 70.323 46.4061C70.2612 45.9875 69.436 45.5247 69.113 45.3283C68.0295 44.6656 66.9149 44.4875 65.7471 44.0793C65.1405 43.8664 64.5215 43.6997 63.9071 43.5204C63.3642 43.3627 62.7928 43.1471 62.2269 43.3335C62.0862 43.3789 61.9637 43.4458 61.8527 43.5251L61.8579 43.5259Z" fill="#FAC39A"/>
<path d="M54.7747 54.641C54.7106 55.3238 54.7166 56.1082 54.9567 56.7599C55.1517 57.287 55.6072 57.7015 56.1284 57.896C56.1145 57.0061 56.2491 56.1763 56.3883 55.299C56.4444 54.9493 56.5012 54.5943 56.6371 54.2647C56.7465 54.7039 56.9032 55.1316 57.1031 55.5391C57.1724 55.6807 57.2767 55.8384 57.4337 55.8436C57.5585 55.8493 57.6705 55.7461 57.7128 55.6268C57.755 55.5076 57.7402 55.377 57.7189 55.2534C57.6326 54.7856 57.4262 54.3504 57.29 53.8937C57.1375 53.3864 57.0739 52.6815 57.3581 52.2034C57.4371 52.0711 57.4819 51.8479 57.4017 51.7073C57.351 51.6194 57.2675 51.5531 57.1824 51.4974C56.8759 51.2982 56.5166 51.1818 56.1518 51.1716C56.117 51.1717 56.0796 51.1713 56.0463 51.1796C56.0013 51.1941 55.9673 51.2237 55.933 51.2559C55.0071 52.1013 54.8786 53.4696 54.7717 54.6432L54.7747 54.641Z" fill="#FAC39A"/>
<path d="M50.0612 90.4741C48.2478 90.1649 46.4661 90.4319 44.6527 90.3922C44.3936 90.3869 44.1002 90.3869 43.9284 90.5799C43.5134 91.0478 43.7883 92.2241 43.7909 92.7792C43.7909 93.0066 43.8015 93.2524 43.9469 93.4269C44.0685 93.5723 44.2588 93.6331 44.4412 93.678C45.0651 93.8313 45.7127 93.8657 46.3551 93.8895C48.0707 93.9529 50.003 94.1512 51.6948 93.8419C51.8164 93.8208 51.9407 93.7917 52.0385 93.7203C52.2447 93.5696 52.2817 93.2815 52.2896 93.0251C52.2976 92.7026 52.287 92.3774 52.1918 92.0708C51.9063 91.1403 50.96 90.6275 50.0612 90.4741Z" fill="#263238"/>
<path d="M35.1446 90.1665C36.958 89.8572 38.7397 90.1242 40.5531 90.0846C40.8122 90.0793 41.1056 90.0793 41.2774 90.2723C41.6924 90.7402 41.4202 91.9165 41.4149 92.4716C41.4149 92.699 41.4043 92.9448 41.2589 93.1193C41.1373 93.2646 40.947 93.3255 40.7646 93.3704C40.1407 93.5237 39.4931 93.5581 38.8507 93.5819C37.1351 93.6453 35.2028 93.8436 33.511 93.5343C33.3894 93.5131 33.2651 93.4841 33.1673 93.4127C32.9611 93.262 32.9241 92.9739 32.9162 92.7175C32.9082 92.395 32.9188 92.0698 33.014 91.7632C33.2995 90.8327 34.2458 90.3199 35.1446 90.1665Z" fill="#263238"/>
<path d="M50.4518 78.9127C50.2112 82.5263 49.8358 86.1479 49.6085 89.7271C49.5953 89.9253 49.5821 90.1315 49.479 90.3007C49.2939 90.61 48.8948 90.6972 48.5406 90.7501C46.9122 90.9907 43.5497 91.2206 43.5497 91.2206C43.5497 91.2206 43.5339 88.6591 43.4942 87.4802C43.4757 86.9197 43.4546 86.362 43.4334 85.8016C43.2907 82.1298 43.0263 78.4633 42.6562 74.8048C42.4738 73.0125 42.2677 71.2229 42.035 69.436C41.9187 68.5372 40.9406 65.4602 41.9716 65.0293C42.9259 64.6302 43.9885 64.5747 45.0221 64.5694C46.0319 64.5641 47.0417 64.6011 48.0515 64.6566C49.0084 64.7068 49.8966 64.6249 50.8536 64.5562C50.9963 67.0093 51.0333 69.4703 50.9593 71.9261C50.8906 74.2655 50.5654 76.5865 50.4491 78.9101L50.4518 78.9127Z" fill="#424F70"/>
<path d="M42.3437 79.1243C42.6081 76.7664 42.9279 74.4111 43.0416 72.0399C43.1394 70.0097 43.3879 67.961 43.2821 65.9203C43.2795 65.8674 43.2742 65.8119 43.2451 65.7696C43.2055 65.7141 43.1315 65.6956 43.0627 65.6824C41.7516 65.418 40.5224 65.3149 39.1822 65.3149C37.7943 65.3255 36.4065 65.3361 35.0187 65.344C34.6619 65.344 34.2786 65.3599 33.9983 65.5793C33.578 65.9071 33.5807 66.5336 33.6203 67.0649C34.1385 73.7793 35.6135 80.3218 35.8355 87.0785C35.8567 87.7314 35.8038 88.3817 35.8461 89.0346C35.8858 89.6268 35.7827 90.2638 36.3219 90.6762C36.6074 90.893 36.9722 90.9696 37.3238 91.0304C38.1195 91.1652 38.9257 91.2472 39.7346 91.2763C40.3849 91.3 41.6829 91.2895 41.6829 91.2895C41.6829 91.2895 42.0424 81.8101 42.3411 79.1243H42.3437Z" fill="#424F70"/>
<path d="M37.9215 41.1428H42.7246V36.7706H37.9215V41.1428Z" fill="#F79765"/>
<path d="M49.72 46.8734C50.4946 47.7881 51.3537 48.33 52.4745 48.708C53.5293 49.0622 54.3249 49.7627 55.2686 50.3205C56.8124 51.2351 58.7897 51.1611 60.4657 50.5187C62.1416 49.879 63.5691 48.7344 64.9225 47.5554C66.5007 46.1782 68.0444 44.6952 69.0225 42.8448C69.7151 41.5363 70.0984 40.093 70.4764 38.6655C70.8571 37.2275 71.243 35.7286 70.9522 34.2695C70.6297 32.6543 69.4957 31.1555 69.7442 29.5271C69.805 29.1227 69.953 28.7341 70.0535 28.3375C70.5478 26.3893 69.842 24.1873 68.3061 22.892C68.0497 22.6753 67.7669 22.4797 67.4417 22.3871C67.1087 22.292 66.7518 22.3158 66.4134 22.2497C65.29 22.0303 64.5657 20.9253 63.5347 20.4283C62.3452 19.8547 60.9309 20.1587 59.6806 20.5843C58.2795 21.0601 56.8204 21.6708 55.5304 22.3898C54.3884 23.0269 53.2491 24.5283 52.6199 25.6492C51.8718 26.9841 51.5863 28.6759 52.2657 30.0479C52.4798 30.4814 52.7917 30.8938 52.8314 31.3749C52.908 32.3344 51.9405 32.9953 51.1422 33.5319C50.2144 34.1558 49.3156 34.9673 49.0433 36.0511C48.7102 37.3808 49.4055 38.7527 50.2329 39.8445C50.3783 40.0375 50.5342 40.2357 50.5897 40.4736C50.6664 40.8041 50.5316 41.1477 50.3545 41.4358C49.8496 42.2632 48.9693 42.8739 48.697 43.8044C48.3798 44.8829 48.9931 46.0169 49.7174 46.8761L49.72 46.8734Z" fill="#133643"/>
<path d="M50.5183 42.8844C50.8725 43.0562 51.1316 43.191 51.2347 43.2571C53.5662 44.7428 55.5911 46.654 57.5842 48.5546C58.2715 49.2102 58.9721 49.8843 59.3686 50.746C59.7651 51.6078 59.7915 52.7075 59.1809 53.4344C58.4487 54.3041 57.0741 54.3305 56.0352 53.8732C54.9963 53.4159 54.1795 52.5806 53.2833 51.8827C51.7052 50.6482 49.4398 50.1856 47.9912 48.8956C46.8888 47.9175 46.1434 46.1332 45.5486 44.8036C45.3504 44.3595 45.205 43.8942 45.0622 43.429C44.8428 42.7205 44.6234 42.0094 44.404 41.301C44.3934 41.2666 44.3829 41.2296 44.3987 41.1979C44.4225 41.1503 44.4859 41.145 44.5388 41.145C45.7574 41.145 46.6007 41.2534 47.7374 41.6816C48.6811 42.0385 49.609 42.4456 50.5157 42.8871L50.5183 42.8844Z" fill="#0694D3"/>
<path d="M63.0424 35.906H59.8809V39.0676H63.0424V35.906Z" fill="#F99D6E"/>
<path d="M32.0948 46.2973C32.0869 46.403 32.0816 46.5114 32.0763 46.6198C31.9019 49.9056 31.9442 53.1993 32.042 56.4878C32.1292 59.422 31.8173 62.7951 32.6182 65.6394C32.6764 65.8456 32.7504 66.0597 32.9143 66.1998C33.0544 66.3161 33.2368 66.3637 33.4139 66.4007C34.5242 66.636 35.6688 66.6624 36.8055 66.6783C41.2068 66.7444 45.5791 66.7206 49.9672 66.4166C52.0555 66.2738 51.4343 62.4435 51.3894 61.016C51.2889 57.6562 50.8131 54.3202 50.1628 51.0264C49.3883 47.1035 48.2648 41.7373 43.7366 40.7487C42.9859 40.5848 42.214 40.5742 41.4447 40.5689C39.6445 40.561 37.8073 40.5954 36.105 41.1769C35.0079 41.5523 33.969 42.1814 33.2024 43.0591C32.3645 44.016 32.1715 45.1024 32.0922 46.2973H32.0948Z" fill="#03A9F4"/>
<mask id="mask1_94_4253" style="mask-type:luminance" maskUnits="userSpaceOnUse" x="31" y="40" width="21" height="27">
<path d="M32.0948 46.2965C32.0869 46.4022 32.0816 46.5106 32.0763 46.619C31.9019 49.9048 31.9442 53.1985 32.042 56.487C32.1292 59.4212 31.8173 62.7943 32.6182 65.6386C32.6764 65.8448 32.7504 66.0589 32.9143 66.199C33.0544 66.3153 33.2368 66.3629 33.4139 66.3999C34.5242 66.6352 35.6688 66.6616 36.8055 66.6775C41.2068 66.7436 45.5791 66.7198 49.9672 66.4158C52.0555 66.273 51.4343 62.4427 51.3894 61.0152C51.2889 57.6554 50.8131 54.3194 50.1628 51.0256C49.3883 47.1027 48.2648 41.7365 43.7366 40.7479C42.9859 40.584 42.214 40.5734 41.4447 40.5681C39.6445 40.5602 37.8073 40.5946 36.105 41.1761C35.0079 41.5515 33.969 42.1806 33.2024 43.0583C32.3645 44.0152 32.1715 45.1017 32.0922 46.2965H32.0948Z" fill="white"/>
</mask>
<g mask="url(#mask1_94_4253)">
<path d="M37.84 41.0384C38.6489 42.0429 40.3275 42.7434 41.5858 42.2782C42.8705 41.8024 43.875 40.4701 44.1684 39.1642C42.2255 38.6038 40.1583 38.7095 38.1387 38.8258C37.7633 38.847 37.084 38.9527 37.0179 39.4338C36.9571 39.8859 37.5704 40.708 37.8374 41.0411L37.84 41.0384Z" fill="#F79765"/>
<path d="M36.1133 40.1294C36.6631 42.0644 38.5215 43.55 40.5278 43.6611C41.0962 43.6928 41.6725 43.6214 42.1985 43.4099C43.6788 42.8152 44.5036 41.2555 45.1248 39.7858" stroke="white" stroke-width="0.75" stroke-miterlimit="10"/>
<path d="M31.3125 47.5462C34.5957 47.6705 37.8841 47.7154 41.1673 47.5832C44.3738 47.4537 47.723 47.3057 50.8159 46.428" stroke="white" stroke-width="0.75" stroke-miterlimit="10"/>
<path d="M31.25 49.1935C34.5332 49.3177 37.8216 49.3627 41.1048 49.2305C44.3113 49.101 47.6605 48.9529 50.7534 48.0753" stroke="white" stroke-width="0.75" stroke-miterlimit="10"/>
</g>
<path d="M58.6277 92.5444C59.9045 93.2185 61.3267 93.5621 62.7885 93.4194C62.955 93.4035 63.1348 93.3771 63.2537 93.2581C63.4652 93.0493 63.3621 92.666 63.1321 92.481C62.9022 92.2933 62.5929 92.2457 62.3021 92.1849C61.6465 92.0421 60.5389 91.6879 60.6658 90.8103C60.6975 90.5856 60.7953 90.3715 60.798 90.1468C60.798 90.1124 60.798 90.0781 60.7742 90.0516C60.7504 90.0226 60.7134 90.012 60.6764 90.0014L58.1863 89.3538C57.9431 90.0543 57.6999 90.7733 57.7289 91.5135C57.7369 91.7011 57.7659 91.8941 57.877 92.0448C57.9642 92.1611 58.0937 92.2404 58.218 92.3144C58.3528 92.3937 58.4876 92.4704 58.6251 92.5444H58.6277Z" fill="#313D5B"/>
<path d="M61.4609 37.1797C64.5093 37.1797 66.9805 34.1168 66.9805 30.3385C66.9805 26.5602 64.5093 23.4973 61.4609 23.4973C58.4126 23.4973 55.9414 26.5602 55.9414 30.3385C55.9414 34.1168 58.4126 37.1797 61.4609 37.1797Z" fill="#FAC39A"/>
<path d="M61.5207 90.186C61.7877 90.8654 62.0256 91.558 62.2318 92.2585C62.3137 92.5387 62.3851 92.8612 62.2239 93.1017C62.0943 93.2973 61.8485 93.3793 61.6212 93.4454C59.6518 94.0005 57.6005 94.2305 55.5544 94.2516C55.3218 94.2516 55.0654 94.2463 54.8883 94.093C54.2777 93.5643 55.8109 92.7105 56.1439 92.5466C56.7519 92.2426 57.4075 92.0549 58.0604 91.8672C58.6473 91.6981 59.6994 91.7694 59.1918 90.7808C59.139 90.675 59.0597 90.572 59.0702 90.4556C59.0967 90.0908 61.2088 90.1728 61.5234 90.186H61.5207Z" fill="#424F70"/>
<path d="M68.1534 47.4458C68.0107 48.2864 67.7067 49.0609 67.4714 49.8751C67.3049 50.4487 67.2494 51.0224 67.067 51.6013C66.9506 51.9714 66.147 56.2617 66.5145 56.259C63.2392 56.2855 59.9666 56.1824 56.6993 55.9524C56.7786 54.0386 56.8289 52.0877 56.316 50.2426C56.0914 49.4389 55.7636 48.6644 55.5415 47.8608C55.0498 46.0897 55.0816 44.2234 55.1133 42.3862C55.145 40.6601 55.8799 39.9675 57.4818 39.5128C58.9991 39.0819 60.5958 38.9656 62.1686 38.9762C63.7441 38.9867 65.3408 39.2775 66.726 40.023C67.0141 40.1789 67.2996 40.3587 67.4899 40.6257C67.6987 40.9218 67.7701 41.2918 67.8336 41.6487C68.1746 43.5652 68.4786 45.5319 68.1508 47.4511L68.1534 47.4458Z" fill="#FFCA28"/>
<mask id="mask2_94_4253" style="mask-type:luminance" maskUnits="userSpaceOnUse" x="55" y="38" width="14" height="19">
<path d="M68.1515 47.4436C68.0087 48.2842 67.7047 49.0587 67.4695 49.8729C67.3029 50.4465 67.2474 51.0202 67.065 51.5991C66.9487 51.9692 66.1451 56.2595 66.5125 56.2569C63.2373 56.2833 59.9647 56.1802 56.6974 55.9502C56.7767 54.0364 56.8269 52.0855 56.3141 50.2404C56.0894 49.4368 55.7616 48.6622 55.5396 47.8586C55.0479 46.0875 55.0796 44.2212 55.1113 42.384C55.143 40.6579 55.8779 39.9653 57.4799 39.5106C58.9972 39.0797 60.5938 38.9634 62.1667 38.974C63.7422 38.9845 65.3388 39.2753 66.724 40.0208C67.0121 40.1767 67.2976 40.3565 67.488 40.6235C67.6968 40.9196 67.7682 41.2896 67.8316 41.6465C68.1726 43.563 68.4766 45.5297 68.1488 47.4489L68.1515 47.4436Z" fill="white"/>
</mask>
<g mask="url(#mask2_94_4253)">
<path d="M61.3753 44.8573C61.4017 44.8758 61.4282 44.8916 61.452 44.9075C61.9727 45.222 62.4908 44.77 62.8213 44.3339C63.3024 43.7021 63.7861 43.065 64.1615 42.3645C64.8382 41.1036 65.8771 37.9208 64.4047 36.9454C63.5852 36.4035 62.7023 35.933 61.7454 35.7215C60.7885 35.5074 59.7417 35.5708 58.8825 36.0413C58.1741 36.4273 57.6322 37.0934 57.4207 37.8706C57.1987 38.6848 57.5873 39.3906 57.9283 40.1255C58.4913 41.3388 59.2526 42.4438 60.117 43.4615C60.4713 43.8792 60.9074 44.5321 61.3753 44.8546V44.8573Z" fill="white"/>
<path d="M61.523 43.2638C61.597 43.3325 61.6843 43.4039 61.7874 43.4013C61.8746 43.396 61.9486 43.3378 62.012 43.2797C63.2915 42.1298 64.0924 40.4644 64.1876 38.7488C64.1955 38.5875 64.1982 38.421 64.1321 38.2756C63.992 37.969 63.6113 37.8685 63.2783 37.813C62.2949 37.6491 61.2957 37.5672 60.2991 37.5724C59.8973 37.5724 59.4876 37.5909 59.1148 37.739C57.7508 38.2809 58.7659 39.6396 59.2734 40.4935C59.8841 41.5191 60.6427 42.4575 61.523 43.2664V43.2638Z" fill="#F99D6E"/>
</g>
<path d="M68.483 66.7051C68.4618 67.329 68.4169 67.9502 68.3508 68.5687C67.9648 72.2088 66.6061 75.64 65.3716 79.0553C64.1028 82.5685 62.8974 86.1054 61.6734 89.6317C61.6734 89.8538 61.5122 90.3772 61.3456 90.5305C61.0417 90.816 60.8434 90.5464 60.5685 90.4036C60.1085 90.1657 59.4794 90.1552 58.9718 90.0653C58.3771 89.9622 57.7823 89.8564 57.1875 89.7534C58.0783 87.1971 58.9057 84.6171 59.6644 82.0186C59.8257 81.4688 60.0319 80.9401 60.2037 80.4035C60.3993 79.7902 60.4363 79.0738 60.513 78.4341C60.6663 77.1388 60.7482 75.8382 60.9015 74.5429C61.1976 72.0317 60.9333 69.5125 61.187 66.9959C61.3509 65.3622 61.721 63.7471 61.803 62.1081C61.8981 60.189 61.6047 58.2329 62.0224 56.3586C62.07 56.1472 62.1308 55.9251 62.2841 55.7718C62.448 55.6053 62.6912 55.5418 62.9238 55.4995C63.7671 55.3462 65.5302 55.1797 66.1488 55.8696C66.5004 56.2608 66.7092 57.0301 66.9101 57.5165C68.1182 60.419 68.5887 63.5726 68.4803 66.7051H68.483Z" fill="#D3434A"/>
<path d="M61.9941 83.5437C61.9756 81.3153 61.9571 79.0895 61.9492 76.8611C61.9386 73.2105 61.9598 69.5572 62.0708 65.9092C62.1263 64.0853 62.203 62.2613 62.3087 60.4399C62.3616 59.528 62.4224 58.6186 62.4911 57.7093C62.5413 57.0246 62.7079 56.1999 62.6127 55.5284C60.942 55.346 59.1736 55.4703 57.4897 55.4491C57.3443 55.4491 57.191 55.4465 57.0588 55.5073C56.9478 55.5575 56.8579 55.6474 56.7733 55.7346C55.145 57.4264 53.7175 59.6443 53.4188 62.0181C52.7685 67.2098 54.0268 72.354 55.3564 77.3369C56.0279 79.8534 56.731 82.3647 57.2412 84.9209C57.3813 85.6188 58.629 91.0167 58.629 91.0167L62.2691 91.0114C62.2691 91.0114 62.0126 86.0365 61.9915 83.5463L61.9941 83.5437Z" fill="#F84F57"/>
<path d="M57.0435 29.0776C57.7916 28.5251 58.6296 28.1048 59.4834 27.7453C60.7708 27.2034 62.1137 26.7937 63.3772 26.2015C64.1306 25.85 64.9475 25.3001 65.0003 24.4674C65.0347 23.9123 64.6937 23.3889 64.2469 23.0611C63.7976 22.7333 63.253 22.5747 62.7137 22.4346C61.4925 22.1227 60.1628 21.9086 59.0023 22.3976C58.4234 22.6435 57.9264 23.0505 57.4744 23.4894C56.9907 23.9625 56.5492 24.4807 56.158 25.0331C55.7853 25.5645 55.4548 26.1302 55.2354 26.7408C54.7464 28.0995 54.8257 29.5852 54.9129 31.0258C54.9288 31.3034 54.9949 31.647 55.2645 31.7211C55.7086 31.8427 55.7086 30.7324 55.8434 30.4522C56.1183 29.8839 56.536 29.4477 57.0409 29.075L57.0435 29.0776Z" fill="#133643"/>
<path d="M46.8641 30.1297C46.9725 32.6939 46.161 35.4748 43.8004 36.8018C43.2373 37.119 42.6214 37.3358 42.0002 37.5155C40.7472 37.8777 39.436 38.0944 38.1408 37.9543C36.8455 37.8142 35.5634 37.2908 34.6699 36.3392C34.1465 35.7814 33.7738 35.1021 33.4407 34.4121C32.8459 33.1829 32.3569 31.9061 31.9789 30.595C31.7859 29.9262 31.6775 29.075 32.23 28.652C32.3675 28.5463 32.5393 28.4776 32.6556 28.348C32.756 28.237 32.8063 28.0916 32.8512 27.9489C33.0389 27.3435 33.1526 26.7012 33.4936 26.1698C33.9879 25.398 34.8682 24.9829 35.7061 24.6129C36.4912 24.2666 37.0596 24.0181 37.9134 24.1529C38.6615 24.2692 39.3964 24.4622 40.1075 24.7212C40.9613 25.0358 41.7623 25.5328 42.6505 25.7416C43.6206 25.9689 45.1221 25.702 45.7565 26.6113C46.4544 27.6132 46.8086 28.9217 46.8615 30.1324L46.8641 30.1297Z" fill="#133643"/>
<path d="M54.9113 33.3919C54.5967 33.0747 54.3614 32.665 54.3191 32.2209C54.2425 31.4437 54.8399 30.6612 55.6091 30.5291C55.8444 30.4894 56.114 30.5132 56.2753 30.6903C56.3704 30.7961 56.4101 30.9388 56.4498 31.0763C56.5819 31.5653 56.7167 32.0543 56.8489 32.5434C56.9784 33.0192 57.3723 33.9497 56.8251 34.1903C56.2145 34.4599 55.3025 33.7805 54.9139 33.3893L54.9113 33.3919Z" fill="#FAC39A"/>
<path d="M35.2314 33.0325C35.4534 36.9792 38.0995 40.043 41.1421 39.8711C44.1847 39.6993 46.4713 36.3633 46.2519 32.414C46.0298 28.4673 43.3838 25.4035 40.3411 25.5754C37.2985 25.7446 35.0119 29.0832 35.2314 33.0325Z" fill="#F9B689"/>
<path d="M34.6204 34.4364C33.7983 31.9066 33.8961 29.5249 34.1393 26.9211C34.2054 26.2021 34.5913 25.8029 35.0936 25.2821C35.4769 24.8856 35.8708 24.4812 36.3704 24.2459C37.7952 23.5771 39.5161 24.5023 41.0361 24.0952C42.2573 23.7701 43.3279 23.0379 44.6629 23.4238C45.1017 23.5507 45.5616 23.7199 45.8418 24.0794C46.3044 24.6768 46.0798 25.5994 45.5378 26.1254C44.9959 26.6514 44.2293 26.8656 43.4892 27.011C42.0591 27.2938 40.592 27.3916 39.1381 27.3017C38.6199 27.27 38.0648 27.2251 37.6207 27.4947C37.2665 27.7115 37.0497 28.1001 36.9017 28.4886C36.521 29.4905 36.4999 30.5928 36.0875 31.5815C35.7016 32.5067 35.5562 33.5403 35.2813 34.5184C35.2469 34.6452 35.194 34.788 35.0698 34.8356C34.8583 34.9149 34.6891 34.6532 34.6178 34.4391L34.6204 34.4364Z" fill="#133643"/>
<path d="M33.7904 33.3845C33.579 33.5352 33.4309 33.7572 33.3146 33.9872C33.2459 34.1247 33.1851 34.2701 33.1692 34.4234C33.1243 34.8331 33.3807 35.2111 33.6371 35.5336C33.8195 35.7636 34.0151 35.9936 34.2583 36.1575C34.8161 36.5355 36.4022 36.858 36.5661 35.9063C36.6639 35.3459 36.2065 34.5476 35.884 34.1167C35.4029 33.4717 34.5808 32.8188 33.7878 33.3871L33.7904 33.3845Z" fill="#F9B689"/>
<path d="M50.617 55.7206C50.8734 55.9823 51.2118 56.1488 51.5237 56.3603C52.9274 57.304 54.3469 58.2266 55.8405 59.0249C56.5542 59.4056 60.8366 61.8005 61.0216 60.2435C61.0533 59.9686 60.9265 59.6963 60.7441 59.4902C60.5617 59.284 60.3264 59.1333 60.0964 58.98C59.1263 58.335 58.1244 57.653 57.3234 56.8018C56.5304 55.9585 55.7321 55.1232 54.8518 54.3698C54.598 54.153 54.1566 53.8411 54.0508 53.508C53.9213 53.1036 54.1064 52.4639 54.1883 52.0594C54.3971 51.0179 54.7751 50.0187 55.0659 49.001C55.1029 48.8741 55.1373 48.7419 55.1109 48.615C55.0844 48.4802 54.9972 48.3692 54.9047 48.2687C54.5082 47.8378 54.0376 47.6687 53.538 47.4202C53.16 47.2351 52.6472 46.7752 52.1872 46.9179C51.7828 47.0422 51.4497 47.9277 51.3043 48.2766C50.8126 49.4477 50.8047 50.5764 50.5773 51.7924C50.4584 52.4242 50.387 53.0613 50.3024 53.6957C50.2284 54.2561 50.1015 54.8535 50.3712 55.3849C50.4372 55.5171 50.5218 55.6281 50.617 55.7259V55.7206Z" fill="#FAC39A"/>
<path d="M53.679 41.6873C53.5574 41.8301 53.4437 41.9755 53.338 42.1288C52.6824 43.054 52.2489 44.114 51.8233 45.1635C51.522 45.9063 51.2206 46.6491 50.9192 47.3945C50.8479 47.5743 50.5703 48.3515 50.5703 48.3515L55.1567 49.7921C55.1567 49.7921 56.4546 46.5063 56.4784 45.0128C56.489 44.3519 56.4123 43.6963 56.3383 43.0408C56.2273 42.0706 56.1163 41.1005 56.0026 40.1277C55.0853 40.3682 54.2976 40.9604 53.6817 41.69L53.679 41.6873Z" fill="#EDB408"/>
<path d="M62.6714 61.0451C63.356 61.0055 64.1306 60.8813 64.7386 60.5455C65.2303 60.2733 65.5713 59.7604 65.6849 59.2159C64.8073 59.3639 63.9667 59.356 63.0785 59.3507C62.7243 59.3481 62.3648 59.3454 62.0185 59.2608C62.4361 59.0863 62.8353 58.8669 63.208 58.6079C63.3375 58.518 63.4777 58.3911 63.4591 58.2352C63.4459 58.1109 63.327 58.0158 63.2027 57.992C63.0785 57.9682 62.9516 58.0025 62.8326 58.0422C62.3833 58.1982 61.9841 58.4678 61.5532 58.6713C61.0748 58.8987 60.3875 59.0678 59.872 58.859C59.7292 58.8009 59.5019 58.7903 59.375 58.8907C59.2957 58.9542 59.2428 59.0467 59.2005 59.1392C59.0499 59.4723 58.9891 59.845 59.034 60.2072C59.0393 60.2415 59.0446 60.2785 59.0578 60.3103C59.0789 60.3526 59.1133 60.3816 59.1503 60.4107C60.1258 61.1985 61.4977 61.1192 62.674 61.0478L62.6714 61.0451Z" fill="#FAC39A"/>
<path d="M26.5604 60.7434C26.8168 61.0051 27.1551 61.1717 27.4671 61.3831C28.8707 62.3269 30.2903 63.2494 31.7838 64.0477C32.4975 64.4284 36.7799 66.8234 36.965 65.2664C36.9967 64.9915 36.8698 64.7192 36.6874 64.513C36.505 64.3068 36.2697 64.1561 36.0398 64.0028C35.0696 63.3578 34.0678 62.6758 33.2668 61.8246C32.4738 60.9813 31.6754 60.146 30.7952 59.3926C30.5414 59.1759 30.0999 58.8639 29.9942 58.5309C29.8647 58.1264 30.0497 57.4867 30.1317 57.0823C30.3405 56.0407 30.7185 55.0415 31.0093 54.0238C31.0463 53.8969 31.0807 53.7647 31.0542 53.6378C31.0278 53.503 30.9406 53.392 30.848 53.2915C30.4515 52.8607 29.981 52.6915 29.4814 52.443C29.1034 52.258 28.5905 51.798 28.1306 51.9407C27.7261 52.065 27.393 52.9505 27.2477 53.2995C26.756 54.4705 26.748 55.5993 26.5207 56.8153C26.4017 57.4471 26.3304 58.0841 26.2458 58.7186C26.1718 59.279 26.0449 59.8764 26.3145 60.4077C26.3806 60.5399 26.4652 60.6509 26.5604 60.7487V60.7434Z" fill="#FAC39A"/>
<path d="M38.6167 66.068C39.3014 66.0284 40.0759 65.9042 40.6839 65.5684C41.1756 65.2962 41.5166 64.7833 41.6302 64.2388C40.7526 64.3868 39.912 64.3789 39.0238 64.3736C38.6696 64.371 38.3101 64.3683 37.9638 64.2837C38.3814 64.1093 38.7806 63.8898 39.1533 63.6308C39.2829 63.5409 39.423 63.414 39.4045 63.2581C39.3912 63.1338 39.2723 63.0387 39.148 63.0149C39.0238 62.9911 38.8969 63.0254 38.778 63.0651C38.3286 63.2211 37.9294 63.4907 37.4985 63.6942C37.0201 63.9216 36.3328 64.0907 35.8173 63.8819C35.6746 63.8238 35.4472 63.8132 35.3203 63.9136C35.241 63.9771 35.1882 64.0696 35.1459 64.1621C34.9952 64.4952 34.9344 64.8679 34.9793 65.2301C34.9846 65.2644 34.9899 65.3014 35.0031 65.3332C35.0243 65.3755 35.0586 65.4045 35.0956 65.4336C36.0711 66.2214 37.443 66.1421 38.6194 66.0707L38.6167 66.068Z" fill="#FAC39A"/>
<path d="M63.5781 28.6365C63.6891 28.4753 63.861 28.3854 64.0354 28.3325C64.2099 28.2823 64.395 28.2744 64.5694 28.3034C64.7439 28.3299 64.9131 28.3933 65.0637 28.4911C65.2118 28.5889 65.3492 28.7185 65.4206 28.9009C65.2276 28.9062 65.0717 28.8929 64.9184 28.8824C64.7677 28.8691 64.6249 28.8506 64.4848 28.8269C64.3447 28.8031 64.2046 28.7766 64.0592 28.7475C63.9138 28.7158 63.7658 28.6841 63.5781 28.6392V28.6365Z" fill="#AF735F"/>
<path d="M63.7387 30.162C63.7493 30.5585 63.9581 30.8784 64.2092 30.8758C64.4604 30.8731 64.656 30.548 64.6454 30.1488C64.6348 29.7523 64.426 29.4324 64.1749 29.4351C63.9237 29.4377 63.7281 29.7629 63.7387 30.162Z" fill="#3D2217"/>
<path d="M59.2655 28.6864C59.0805 28.7392 58.9324 28.7762 58.787 28.8132C58.6443 28.8476 58.5042 28.882 58.3641 28.9084C58.224 28.9375 58.0812 28.9613 57.9332 28.9798C57.7799 28.9983 57.6266 29.0142 57.4336 29.0168C57.4997 28.8318 57.6319 28.6996 57.7746 28.5938C57.92 28.4907 58.0865 28.422 58.261 28.3877C58.4355 28.3533 58.6179 28.3533 58.795 28.3956C58.9694 28.4405 59.1439 28.5251 59.2629 28.6811L59.2655 28.6864Z" fill="#AF735F"/>
<path d="M59.1532 30.186C59.1638 30.5825 58.9682 30.9077 58.717 30.913C58.4659 30.9156 58.2571 30.5984 58.2465 30.1992C58.2359 29.8027 58.4315 29.4776 58.6827 29.4723C58.9338 29.4696 59.1426 29.7869 59.1532 30.186Z" fill="#3D2217"/>
<path d="M62.1121 32.452C62.1121 32.6132 61.8346 32.7427 61.4936 32.7427C61.1526 32.7427 60.875 32.6132 60.875 32.452C60.875 32.2907 61.1526 32.1612 61.4936 32.1612C61.8346 32.1612 62.1121 32.2907 62.1121 32.452Z" fill="#E59A7F"/>
<path d="M61.8892 35.4913C60.808 35.5944 59.8035 34.952 59.5577 33.8709C59.5524 33.8497 59.5498 33.8312 59.5445 33.8101C59.5392 33.7889 59.5365 33.7678 59.5312 33.7466C59.5312 33.7466 60.2423 34.0585 61.6989 34.0321C63.1501 34.003 63.7634 33.6673 63.7687 33.6647C63.7555 33.6726 63.7449 33.7942 63.7423 33.8101C63.655 34.2039 63.5229 34.5582 63.2427 34.8569C62.8911 35.2349 62.402 35.4437 61.8919 35.4939L61.8892 35.4913Z" fill="#820B0B"/>
<mask id="mask3_94_4253" style="mask-type:luminance" maskUnits="userSpaceOnUse" x="59" y="33" width="5" height="3">
<path d="M61.8892 35.4934C60.808 35.5965 59.8035 34.9541 59.5577 33.8729C59.5524 33.8518 59.5498 33.8333 59.5445 33.8121C59.5392 33.791 59.5365 33.7698 59.5312 33.7487C59.5312 33.7487 60.2423 34.0606 61.6989 34.0342C63.1501 34.0051 63.7634 33.6694 63.7687 33.6667C63.7555 33.6747 63.7449 33.7963 63.7423 33.8121C63.655 34.206 63.5229 34.5602 63.2427 34.8589C62.8911 35.237 62.402 35.4458 61.8919 35.496L61.8892 35.4934Z" fill="white"/>
</mask>
<g mask="url(#mask3_94_4253)">
<path d="M62.9506 34.2202C62.5647 34.3708 62.1021 34.4026 61.6897 34.4131C61.317 34.4237 60.9416 34.392 60.5741 34.3206C60.2966 34.2677 59.9609 34.1673 59.9212 33.8342C59.8974 33.6465 60.0058 33.4932 60.2014 33.4906L63.0934 33.4324C63.2599 33.4298 63.4 33.5619 63.4026 33.7285C63.4079 33.9743 63.1885 34.1276 62.9506 34.2202Z" fill="#FCFFFF"/>
<path d="M62.6322 36.0023L60.7633 36.0393C60.5175 36.0446 60.3113 35.849 60.3086 35.6005C60.306 35.426 60.4144 35.2886 60.5624 35.2066C60.7342 35.1115 60.9378 35.0692 61.1281 35.0322C61.5669 34.9476 62.0057 34.9661 62.4419 35.0586C62.7062 35.1141 63.0631 35.2146 63.0684 35.545C63.0737 35.7908 62.8781 35.997 62.6296 35.9997L62.6322 36.0023Z" fill="#F799AB"/>
</g>
<path d="M40.0253 30.8385C39.7768 30.902 39.5574 30.9443 39.3353 30.9892C39.1159 31.0315 38.8991 31.0711 38.6824 31.1055C38.4656 31.1425 38.2462 31.1716 38.0242 31.2007C37.7995 31.2271 37.5748 31.2535 37.3184 31.2615C37.4743 31.0553 37.6832 30.9152 37.9026 30.8042C38.122 30.6958 38.3572 30.6244 38.5978 30.5848C38.8383 30.5451 39.0842 30.5398 39.33 30.5742C39.5732 30.6138 39.8164 30.6852 40.0253 30.8385Z" fill="#56575B"/>
<path d="M39.3295 32.3985C39.3454 32.795 39.1577 33.128 38.9066 33.1413C38.6554 33.1545 38.4413 32.8426 38.4228 32.446C38.4069 32.0495 38.5946 31.7164 38.8458 31.7032C39.0969 31.69 39.311 32.0019 39.3295 32.3985Z" fill="#3D2217"/>
<path d="M43.2468 30.6532C43.4001 30.484 43.601 30.3915 43.8072 30.3307C44.0134 30.2751 44.2275 30.2593 44.4363 30.2804C44.6452 30.2989 44.8514 30.3544 45.0443 30.4443C45.2347 30.5368 45.4171 30.6584 45.5439 30.8461C45.3192 30.8593 45.1289 30.8541 44.9386 30.8461C44.7509 30.8382 44.5685 30.825 44.3861 30.8065C44.2037 30.7906 44.024 30.7695 43.8389 30.7457C43.6512 30.7192 43.4662 30.6954 43.2441 30.6532H43.2468Z" fill="#56575B"/>
<path d="M43.9052 32.12C43.9211 32.5165 44.1379 32.8284 44.389 32.8152C44.6401 32.802 44.8278 32.4689 44.8119 32.0724C44.7961 31.6759 44.5793 31.364 44.3282 31.3772C44.0771 31.3904 43.8894 31.7235 43.9052 32.12Z" fill="#3D2217"/>
<path d="M41.1038 34.5757C41.1144 34.7343 41.3999 34.8453 41.7409 34.8241C42.0819 34.8004 42.3515 34.655 42.341 34.4937C42.3304 34.3351 42.0449 34.2241 41.7039 34.2452C41.3629 34.2664 41.0932 34.4144 41.1038 34.5757Z" fill="#E59A7F"/>
<path d="M41.5271 37.5952C42.6135 37.6269 43.5731 36.9211 43.7476 35.8267C43.7502 35.8055 43.7528 35.787 43.7555 35.7659C43.7581 35.7447 43.7608 35.7236 43.7634 35.7025C43.7634 35.7025 43.0735 36.062 41.6196 36.128C40.1683 36.1941 39.5339 35.8981 39.5312 35.8981C39.5445 35.9034 39.563 36.025 39.5683 36.0408C39.6819 36.4294 39.8379 36.7704 40.1366 37.0533C40.512 37.4075 41.0142 37.5846 41.5271 37.5978V37.5952Z" fill="white"/>
<path d="M34.0645 69.9404C36.0047 70.0752 37.9583 68.809 38.6297 66.985" stroke="#273549" stroke-width="0.75" stroke-miterlimit="10"/>
<path d="M48.3086 66.53C48.5042 67.0931 48.7791 67.6271 49.1228 68.1108C49.3237 68.3937 49.5537 68.6633 49.8497 68.8457C50.1458 69.0281 50.5159 69.11 50.8463 68.999" stroke="#273549" stroke-width="0.75" stroke-miterlimit="10"/>
<path d="M38.4922 29.2607C39.4174 29.0122 40.3664 28.888 41.3207 28.8272C42.275 28.7743 43.2319 28.7875 44.1782 28.9276C43.224 28.999 42.2803 29.0334 41.3339 29.0915C40.3875 29.1417 39.4465 29.2184 38.4922 29.2607Z" fill="#E59A7F"/>
<path d="M39.2858 28.3564C39.9361 28.1106 40.6234 27.9837 41.3134 27.9229C42.0033 27.87 42.7038 27.8833 43.3858 28.0207C42.6933 28.0921 42.0165 28.1265 41.3345 28.1846C40.6552 28.2375 39.9784 28.3115 39.2832 28.3538L39.2858 28.3564Z" fill="#E59A7F"/>
<path d="M32.0552 43.4716C32.0393 43.4875 32.0261 43.5033 32.0156 43.5165C29.8907 45.9434 28.0751 48.8054 26.8281 51.8583C28.2459 53.2761 29.6813 53.4268 32.0314 55.7769C32.7451 54.0903 33.5858 52.4593 34.2387 50.7464C34.9286 48.9409 35.3119 47.0561 35.5102 45.137C35.5895 44.3783 36.0627 42.0917 34.9921 41.7851C34.7912 41.7269 34.5771 41.7745 34.3788 41.838C33.4139 42.1525 32.7293 42.7076 32.0552 43.469V43.4716Z" fill="#0694D3"/>
<path d="M70.7831 46.4005C71.9304 44.5633 72.763 42.5331 73.2494 40.4236C73.6671 38.6049 73.8495 36.7307 73.8601 34.8724C73.8627 34.3173 73.8574 33.7383 73.6063 33.2414C73.5614 33.1489 73.5006 33.0563 73.4054 33.0167C73.3235 32.9797 73.2283 32.9929 73.1384 33.0061C71.9277 33.2044 70.5108 33.971 69.694 34.8882C68.0709 36.7122 66.9078 38.8904 66.0117 41.1638C65.8795 41.4969 65.7526 41.8405 65.7447 42.1974C65.7288 42.8107 66.0593 43.3764 66.4214 43.868C67.307 45.0708 68.4674 46.0727 69.7892 46.7732C69.9028 46.834 70.0218 46.8922 70.1513 46.8948C70.4315 46.8948 70.6324 46.6357 70.7805 46.3978L70.7831 46.4005Z" fill="#8BC34A"/>
<path d="M81.8591 91.1423C80.9233 91.145 80.3576 91.2401 80.0377 92.1891C79.7866 92.9346 79.8262 93.7831 79.8632 94.5392C79.8712 94.711 79.8897 94.8987 80.0034 95.0282C80.1038 95.1419 80.2598 95.1895 80.4078 95.2265C81.9304 95.6071 83.5297 95.5014 85.0946 95.393C85.285 95.3798 85.4912 95.3586 85.626 95.2265C85.7449 95.1101 85.7819 94.933 85.8057 94.7691C85.9696 93.6483 85.8454 92.4878 85.4462 91.4278C85.4198 91.3591 85.3907 91.2877 85.3325 91.2401C85.2612 91.1846 85.1634 91.1793 85.0735 91.1767C84.0002 91.1529 82.927 91.1397 81.8538 91.145L81.8591 91.1423Z" fill="#263238"/>
<path d="M69.1747 94.1631C69.4946 94.1975 69.8329 94.1816 70.1158 94.1843C72.212 94.2001 74.3056 94.216 76.4019 94.2319C76.5261 94.2319 76.6636 94.2319 76.7588 94.1499C76.8513 94.0733 76.8803 93.9464 76.9015 93.8301C77.0627 92.9419 77.068 92.0246 76.9121 91.1337C76.8962 91.0386 76.8724 90.9355 76.7984 90.8747C76.727 90.8165 76.6266 90.8112 76.5314 90.8112C75.6168 90.798 74.7021 90.7875 73.7875 90.7742C72.5372 90.7584 71.263 90.7742 70.0497 91.1258C69.5183 91.2818 68.8628 91.6043 68.4795 92.014C68.1332 92.3841 67.9376 92.9234 68.0803 93.4098C68.2336 93.9384 68.683 94.1103 69.1747 94.1631Z" fill="#263238"/>
<path d="M71.9391 20.1306C71.8308 22.6948 72.6423 25.4757 75.0029 26.8027C75.566 27.1199 76.1819 27.3367 76.8031 27.5164C78.0561 27.8786 79.3672 28.0954 80.6625 27.9553C81.9578 27.8152 83.2399 27.2918 84.1334 26.3401C84.6568 25.7823 85.0295 25.103 85.3626 24.413C85.9574 23.1838 86.4464 21.907 86.8244 20.5959C87.0174 19.9271 87.1258 19.0759 86.5733 18.653C86.4358 18.5472 86.264 18.4785 86.1477 18.349C86.0472 18.2379 85.997 18.0925 85.9521 17.9498C85.7644 17.3445 85.6507 16.7021 85.3097 16.1708C84.8154 15.3989 83.9351 14.9839 83.0971 14.6138C82.312 14.2675 81.7437 14.019 80.8899 14.1538C80.1418 14.2701 79.4069 14.4631 78.6958 14.7222C77.842 15.0367 77.041 15.5337 76.1528 15.7425C75.1826 15.9699 73.6812 15.7029 73.0467 16.6122C72.3489 17.6141 71.9947 18.9226 71.9418 20.1333L71.9391 20.1306Z" fill="#343A4A"/>
<path d="M71.7088 72.2893C71.9415 78.1657 72.108 84.0395 72.3565 89.9079C72.3697 90.1934 72.3882 90.5001 72.56 90.7301C72.7239 90.9468 72.9988 91.0526 73.2606 91.1319C74.2756 91.4385 75.3515 91.5389 76.4036 91.4253C76.5596 91.4094 76.7182 91.3856 76.853 91.3063C77.2284 91.0843 77.2442 90.5582 77.2204 90.1247C76.6547 79.6566 79.7819 69.1992 78.7721 58.7628C78.7536 58.5831 78.7272 58.3848 78.5871 58.2711C78.4787 58.1839 78.3307 58.1707 78.1906 58.1601C76.4063 58.0306 74.6193 57.9037 72.835 57.7742C72.4966 57.7504 72.2058 57.6341 72.0102 57.9275C71.841 58.1813 71.886 58.8289 71.8516 59.1302C71.7511 60.0237 71.6798 60.9199 71.6295 61.816C71.4313 65.3186 71.7115 68.7921 71.7115 72.2893H71.7088Z" fill="#424F70"/>
<path d="M86.416 82.0168C86.5296 78.5327 86.5693 75.046 86.6803 71.5619C86.7147 70.4966 87.6108 57.9746 87.09 57.9878C84.0554 58.0512 81.0207 58.112 77.986 58.1755C77.7878 58.1808 77.5657 58.194 77.4388 58.3447C77.3357 58.4663 77.3278 58.6407 77.3251 58.7993C77.119 69.4022 79.1438 80.1003 80.4101 90.6C80.4365 90.8115 80.4682 91.0389 80.6189 91.1869C80.714 91.2794 80.8409 91.3296 80.9652 91.3719C82.2076 91.8107 83.5505 91.9561 84.859 91.7949C85.0044 91.7764 85.155 91.7526 85.274 91.6706C86.2124 91.0362 86.0565 89.0008 86.1199 88.0729C86.2627 86.056 86.3525 84.0337 86.4186 82.0141L86.416 82.0168Z" fill="#424F70"/>
<path d="M81.5414 27.3549H76.7383V33.1705H81.5414V27.3549Z" fill="#F99D6E"/>
<path d="M88.2999 45.3226C88.4506 46.5439 88.485 47.7784 88.4876 49.0102C88.4929 51.6775 88.3396 54.3421 88.0303 56.9908C87.9986 57.2552 87.9616 57.5354 87.8003 57.7495C87.6655 57.9292 87.4593 58.0403 87.2558 58.1381C86.3411 58.5769 85.3498 58.8571 84.34 58.9602C83.6712 59.0289 82.9972 59.021 82.3257 59.0131C79.6268 58.984 76.9278 58.9523 74.2288 58.9232C73.3618 58.9126 72.3784 58.8492 71.8312 58.1777C71.4268 57.6808 71.3871 56.9908 71.366 56.3511C71.2603 53.1816 71.1519 50.0148 71.0461 46.8453C70.9483 43.948 70.8505 41.0455 71.0197 38.1509C71.0911 36.9085 71.2232 35.6344 71.6911 34.4686C72.1326 33.3689 72.7009 33.0597 73.8085 32.7319C74.5989 32.4966 75.429 32.4332 76.2511 32.3724C77.7896 32.2561 79.3281 32.1371 80.8692 32.1027C81.5882 32.0869 82.3125 32.0895 83.0262 32.1768C84.2713 32.3327 85.5084 32.7927 86.4971 33.5751C87.528 34.392 87.7052 35.5921 87.7897 36.8398C87.9854 39.6524 87.951 42.5311 88.2946 45.32L88.2999 45.3226Z" fill="#8BC34A"/>
<path d="M83.5738 23.0307C83.7945 19.0833 81.506 15.7454 78.4625 15.5753C75.4189 15.4051 72.7726 18.4671 72.5519 22.4145C72.3312 26.3618 74.6197 29.6997 77.6633 29.8699C80.7069 30.04 83.3531 26.978 83.5738 23.0307Z" fill="#FAC39A"/>
<path d="M90.2702 30.866C90.22 30.3796 90.1909 29.8853 90.3099 29.4121C90.4289 28.9389 90.7143 28.4869 91.1558 28.2754C91.1399 28.2834 91.251 27.1837 91.2906 27.0674C91.4281 26.655 91.6554 26.2717 91.9462 25.9466C92.237 25.6241 92.5912 25.3571 92.9904 25.1826C93.3869 25.0081 93.8838 25.0742 94.1852 24.7649C94.7482 24.1913 95.8479 24.2204 96.5749 24.4028C96.4295 23.4723 96.7573 22.481 97.4314 21.8254C98.5205 20.7628 100.159 20.7733 101.428 21.4474C102.615 22.0792 103.657 23.0811 104.08 24.3578C104.503 25.6346 104.191 27.1916 103.141 28.0296C104.021 28.479 104.299 29.5787 104.484 30.5488C104.64 31.3683 104.796 32.201 104.698 33.0284C104.548 34.2866 103.826 35.3942 103.125 36.449C102.946 36.7186 102.755 36.9988 102.475 37.1627C102.211 37.316 101.896 37.3478 101.592 37.361C98.3618 37.5143 95.2981 36.0683 92.3903 34.6567C91.6977 34.321 91.1954 34.099 90.8677 33.3852C90.5082 32.5975 90.3575 31.7251 90.2729 30.8687L90.2702 30.866Z" fill="#133643"/>
<path d="M77.5918 58.8119C77.6394 51.5767 77.5151 44.3257 78.0385 37.1038C78.1126 36.0861 78.1786 35.0684 78.2104 34.0507" stroke="#629429" stroke-width="0.75" stroke-miterlimit="10"/>
<path d="M84.1853 24.4396C85.0074 21.9098 84.9096 19.5281 84.6664 16.9243C84.6003 16.2053 84.2144 15.8061 83.7121 15.2854C83.3288 14.8888 82.935 14.4844 82.4353 14.2491C81.0105 13.5803 79.2896 14.5055 77.7697 14.0984C77.1617 13.9346 76.625 13.5698 76.0329 13.353C74.69 12.864 73.0749 13.2473 72.0942 14.2861C71.9356 14.4527 71.7902 14.6404 71.7056 14.8545C71.5205 15.3118 71.6236 15.8378 71.8351 16.2819C72.3902 17.4583 73.3339 17.7015 74.4178 18.1456C75.2901 18.5024 76.3237 18.5606 77.2542 18.5712C78.301 18.5844 79.287 18.3676 80.2704 18.8725C80.6219 19.0549 80.9339 19.3087 81.2749 19.5096C81.6212 19.7158 82.0071 19.8717 82.2847 20.1652C82.6653 20.567 82.7684 21.1485 82.8689 21.6931C83.046 22.6447 83.2654 23.5884 83.5271 24.5189C83.5614 24.6458 83.6143 24.7886 83.7386 24.8361C83.95 24.9154 84.1192 24.6537 84.1906 24.4396H84.1853Z" fill="#343A4A"/>
<path d="M90.0263 35.8726C92.2124 37.5618 94.4197 39.5206 95.6542 41.9763C96.1961 43.0549 96.1803 43.9986 95.6463 45.0665C95.2022 45.9574 94.4012 46.7213 93.3756 46.8244C92.6724 46.8958 91.9957 46.5654 91.3718 46.2323C89.8254 45.4102 88.2922 44.5141 87.0604 43.2716C84.6257 40.8132 84.06 36.3458 84.7579 33.0864C84.7764 32.9992 84.8002 32.9067 84.8637 32.8459C84.9879 32.7296 85.1862 32.7877 85.3421 32.8538C86.6268 33.4036 87.7926 34.1887 88.9081 35.0214C89.2782 35.2963 89.6536 35.5818 90.0316 35.8726H90.0263Z" fill="#8BC34A"/>
<path d="M98.8096 39.9351H94.5801V43.6491H98.8096V39.9351Z" fill="#F99D6E"/>
<path d="M85.0163 23.387C85.3573 23.6302 85.6243 24.0875 85.627 24.5078C85.6296 24.8409 85.4736 25.1581 85.2701 25.4225C84.8181 26.004 84.3184 26.3873 83.5862 26.501C83.0813 26.5776 82.3464 26.5353 82.238 25.9088C82.1402 25.3484 82.5976 24.5501 82.9201 24.1192C83.4012 23.4742 84.2233 22.8213 85.0163 23.3896V23.387Z" fill="#FAC39A"/>
<path d="M102.085 34.5167C102.593 30.596 100.555 27.0999 97.532 26.7078C94.5089 26.3157 91.646 29.1762 91.1375 33.0968C90.629 37.0175 92.6674 40.5137 95.6905 40.9058C98.7135 41.2979 101.576 38.4374 102.085 34.5167Z" fill="#FAC39A"/>
<path d="M99.0337 30.9771C98.0794 30.9348 97.1357 30.8581 96.192 30.8079C95.2456 30.7498 94.3019 30.7127 93.3477 30.644C94.294 30.5039 95.2536 30.4933 96.2052 30.5436C97.1569 30.6044 98.1085 30.7286 99.0337 30.9771Z" fill="#E59A7F"/>
<path d="M98.2433 30.0726C97.5507 30.0303 96.874 29.9536 96.1919 29.9034C95.5126 29.8452 94.8332 29.8082 94.1406 29.7395C94.8226 29.5994 95.5231 29.5888 96.2131 29.6417C96.903 29.7025 97.5903 29.8294 98.2406 30.0752L98.2433 30.0726Z" fill="#E59A7F"/>
<path d="M97.2002 94.3303C96.9306 94.1532 96.7139 93.9232 96.6372 93.6086C96.6055 93.4711 96.6055 93.331 96.6055 93.1909C96.6055 92.049 97.0099 90.8541 98.3105 91.7106C99.6639 92.6015 101.276 93.22 102.45 94.3382C103.804 95.6282 101.747 95.7234 100.853 95.6044C99.9574 95.4855 99.1035 95.1762 98.2761 94.8299C97.9536 94.6951 97.5386 94.5523 97.2002 94.3303Z" fill="#1A1A1A"/>
<path d="M76.6602 31.994L78.2013 34.241L81.5347 31.7429L76.6602 31.994Z" fill="#F99D6E"/>
<path d="M94.8703 93.9097C95.14 93.7326 95.3567 93.5027 95.4334 93.1881C95.4651 93.0506 95.4651 92.9105 95.4651 92.7704C95.4651 91.6285 95.0607 90.4336 93.7601 91.2901C92.4066 92.1809 90.7941 92.7995 89.6204 93.9177C88.267 95.2077 90.3236 95.3028 91.2171 95.1839C92.1132 95.0649 92.9671 94.7556 93.7945 94.4094C94.117 94.2745 94.532 94.1318 94.8703 93.9097Z" fill="#1A1A1A"/>
<path d="M101.28 81.5407C101.204 82.2042 100.855 82.8889 100.672 83.5418C100.437 84.3904 100.202 85.2389 99.9666 86.0875C99.4723 87.8692 98.9965 89.5768 98.8141 91.414C98.7295 92.2573 99.4168 92.1648 99.8583 92.7305C100.152 93.1058 100.006 93.6081 99.5305 93.7112C99.0018 93.8275 98.444 93.6266 98.0131 93.2988C97.6854 93.0503 97.2862 92.7172 97.0509 92.3815C96.7575 91.9639 96.9082 91.459 96.8712 90.9858C96.6042 87.5149 96.2103 84.0758 95.7266 80.6261" fill="#FAC39A"/>
<path d="M90.7891 81.1211C90.8657 81.7846 91.2147 82.4693 91.3971 83.1222C91.6323 83.9708 91.8676 84.8193 92.1029 85.6678C92.5972 87.4495 93.073 89.1572 93.2554 90.9944C93.34 91.8377 92.6527 91.7451 92.2112 92.3108C91.9178 92.6862 92.0632 93.1885 92.539 93.2916C93.0677 93.4079 93.6255 93.207 94.0564 92.8792C94.3841 92.6307 94.7833 92.2976 95.0186 91.9619C95.312 91.5442 95.1613 91.0393 95.1983 90.5662C95.4653 87.0953 95.8592 83.6562 96.3429 80.2065" fill="#FAC39A"/>
<path d="M78.2227 34.0967L81.5402 31.2339L83.3404 32.2278L79.7109 35.9075L78.2227 34.0967Z" fill="#629429"/>
<path d="M76.7372 31.5907L78.2228 34.0967L76.4729 35.9075L74.707 32.5371L76.7372 31.5907Z" fill="#629429"/>
<path d="M95.2428 28.2506C95.7504 29.9001 97.4025 30.3627 98.9807 30.1618C98.9278 30.7064 99.2159 31.2377 99.6204 31.6052C100.025 31.9726 100.535 32.1999 101.04 32.4035C100.987 33.1727 100.932 33.9393 100.879 34.7086C100.842 35.2346 100.807 35.7765 100.992 36.2708C101.111 36.5881 101.489 37.159 101.859 37.0216C102.179 36.9026 102.541 36.1281 102.695 35.8426C103.163 34.9623 103.406 33.9631 103.374 32.9639C103.332 31.6475 102.837 30.3945 102.351 29.1705C102.111 28.5652 101.865 27.9519 101.468 27.4338C100.569 26.2575 99.052 25.7605 97.6087 25.4248C95.7504 24.9939 94.7194 26.5615 95.2402 28.248L95.2428 28.2506Z" fill="#133643"/>
<path d="M105.659 61.6332C106.196 63.7664 106.061 66.0134 105.76 68.1942C105.339 71.2315 104.602 74.216 103.864 77.1925C103.423 78.9795 102.982 80.7638 102.54 82.5508C98.567 82.5429 94.5938 82.5323 90.6207 82.5244C88.728 76.3836 87.2186 69.923 88.1861 63.5682C88.5192 61.3768 89.143 59.2408 89.7907 57.1208C90.33 55.3629 90.7212 53.7927 90.4753 51.9529C90.2401 50.1738 89.8938 48.3921 89.9757 46.5893C90.0365 45.2834 90.6525 44.6702 91.6728 43.9168C92.3469 43.4198 93.0818 43.0074 93.859 42.6955C94.7736 42.3281 95.5164 42.3571 96.4892 42.3677C97.5651 42.3783 98.6463 42.4734 99.6931 42.7351C101.422 43.166 103.217 44.0066 103.616 45.902C103.748 46.5364 103.74 47.192 103.732 47.8423C103.732 50.2425 103.412 52.7591 103.642 55.1461C103.862 57.4248 105.107 59.4391 105.657 61.6332H105.659Z" fill="#D17DE6"/>
<path d="M99.6004 63.251C99.2594 63.0924 98.921 62.9179 98.6461 62.6615C98.1253 62.1751 98.321 61.5354 99.0294 61.4349C99.7378 61.3345 100.729 61.731 101.403 61.9319C101.3 61.6411 101.26 61.3266 101.292 61.0173C101.303 60.9089 101.327 60.7926 101.411 60.7238C101.551 60.6075 101.779 60.7001 101.882 60.8507C101.985 61.0014 102.011 61.1917 102.08 61.3609C102.209 61.694 102.506 61.9583 102.849 62.0509C102.968 62.0826 103.098 62.0958 103.206 62.1566C103.293 62.2042 103.365 62.2808 103.425 62.3601C103.642 62.6298 103.806 62.9391 103.901 63.2721C103.936 63.3884 103.959 63.5233 103.893 63.6264C103.806 63.7612 103.613 63.7665 103.452 63.7585C103.079 63.7374 102.685 63.6766 102.315 63.703C102.088 63.7189 101.884 63.8167 101.662 63.8352C100.98 63.8986 100.203 63.5312 99.6004 63.2536V63.251Z" fill="#FAC39A"/>
<path d="M97.2351 62.7381C97.7136 62.8227 98.1445 62.754 98.6176 62.7725C99.186 62.7963 99.6856 63.0025 100.235 62.7117C101.01 62.302 101.362 61.2181 100.74 60.5229C100.13 59.8356 99.0697 59.6479 98.2158 59.4576C96.6377 59.106 94.967 58.6778 93.6559 57.6865C92.2522 56.6265 91.6072 54.9717 91.2318 53.3089C90.5974 50.5069 91.0627 46.9514 91.4301 44.1018C89.6696 44.7442 88.2262 46.4703 87.4623 48.1251C86.471 50.269 86.2014 52.804 86.8305 55.0906C87.3724 57.0626 88.7364 58.8787 90.3225 60.137C91.0072 60.6815 91.7711 61.1547 92.5721 61.5142C94.0418 62.1777 95.6491 62.4606 97.2404 62.7355L97.2351 62.7381Z" fill="#A04FB5"/>
<path d="M106.399 63.89C107.584 63.4697 108.406 62.3727 108.921 61.2254C109.463 60.02 109.685 58.6613 109.656 57.3448C109.558 53.1365 107.28 49.8057 104.779 46.6018C103.923 45.5048 103.034 44.3813 101.824 43.6941C101.742 43.6491 101.652 43.6042 101.562 43.6227C101.48 43.6412 101.419 43.7099 101.366 43.776C100.608 44.7065 100.343 45.8564 100.364 47.0512C100.386 48.1562 100.557 49.2691 100.994 50.2868C101.525 51.5213 102.416 52.547 103.296 53.5435C104.16 54.519 105.149 55.3887 105.625 56.639C105.984 57.5854 106.016 58.6903 105.54 59.5838C105.207 60.205 104.639 60.6967 103.975 60.9373C103.73 61.0245 103.471 61.08 103.241 61.2043C103.011 61.3285 102.807 61.5426 102.788 61.8043C102.778 61.9497 102.826 62.0925 102.87 62.2299C103.016 62.6582 103.174 63.0917 103.449 63.4512C104.118 64.3288 105.458 64.2231 106.402 63.8874L106.399 63.89Z" fill="#A04FB5"/>
<path d="M97.8249 32.6072C97.9544 32.4591 98.1342 32.3878 98.3113 32.356C98.4911 32.327 98.6735 32.3402 98.8453 32.3851C99.0171 32.4327 99.1784 32.5146 99.3158 32.6257C99.4533 32.7393 99.5722 32.8821 99.6251 33.0724C99.4321 33.0565 99.2788 33.0275 99.1281 32.9984C98.9801 32.9667 98.84 32.9349 98.7025 32.8953C98.5651 32.8583 98.4303 32.816 98.2902 32.7684C98.1474 32.7208 98.0047 32.6732 97.8223 32.6072H97.8249Z" fill="#AF735F"/>
<path d="M97.8168 34.1396C97.7825 34.5361 97.9569 34.8772 98.2054 34.9009C98.4539 34.9247 98.6839 34.6234 98.7209 34.2269C98.7579 33.8303 98.5808 33.4893 98.3323 33.4656C98.0838 33.4418 97.8538 33.7431 97.8168 34.1396Z" fill="#3D2217"/>
<path d="M93.5341 32.1751C93.3438 32.2068 93.1931 32.228 93.0451 32.2491C92.8971 32.2676 92.757 32.2861 92.6142 32.2967C92.4715 32.3099 92.3287 32.3179 92.178 32.3205C92.0247 32.3205 91.8688 32.3205 91.6758 32.302C91.763 32.1275 91.9084 32.0086 92.0617 31.9213C92.2177 31.8368 92.3922 31.7865 92.5693 31.7707C92.7464 31.7548 92.9288 31.776 93.1006 31.8394C93.2698 31.9055 93.4337 32.0059 93.5341 32.1751Z" fill="#AF735F"/>
<path d="M93.256 33.6518C93.2217 34.0483 92.9917 34.3497 92.7406 34.3259C92.4921 34.3021 92.3176 33.9611 92.352 33.5646C92.3863 33.168 92.6163 32.8667 92.8675 32.8905C93.1159 32.9143 93.2904 33.2553 93.256 33.6518Z" fill="#3D2217"/>
<path d="M95.9415 36.2348C95.923 36.3934 95.6322 36.4912 95.2939 36.4542C94.9529 36.4172 94.6938 36.256 94.7097 36.0973C94.7282 35.9387 95.019 35.8409 95.3573 35.8779C95.6983 35.9149 95.9574 36.0762 95.9415 36.2348Z" fill="#E59A7F"/>
<path d="M95.3809 39.2285C94.2944 39.21 93.3665 38.4593 93.245 37.3596C93.245 37.3384 93.2397 37.3173 93.2397 37.2988C93.2397 37.2776 93.237 37.2565 93.2344 37.2354C93.2344 37.2354 93.9058 37.6266 95.3571 37.7588C96.803 37.8936 97.4507 37.6266 97.4533 37.6239C97.4401 37.6292 97.4163 37.7508 97.411 37.764C97.2789 38.1473 97.1097 38.4804 96.7977 38.7474C96.4065 39.0831 95.8963 39.2364 95.3835 39.2285H95.3809Z" fill="#820B0B"/>
<mask id="mask4_94_4253" style="mask-type:luminance" maskUnits="userSpaceOnUse" x="93" y="37" width="5" height="3">
<path d="M95.3809 39.227C94.2944 39.2085 93.3665 38.4578 93.245 37.3581C93.245 37.337 93.2397 37.3158 93.2397 37.2973C93.2397 37.2762 93.237 37.255 93.2344 37.2339C93.2344 37.2339 93.9058 37.6251 95.3571 37.7573C96.803 37.8921 97.4507 37.6251 97.4533 37.6225C97.4401 37.6278 97.4163 37.7494 97.411 37.7626C97.2789 38.1459 97.1097 38.479 96.7977 38.7459C96.4065 39.0817 95.8963 39.235 95.3835 39.227H95.3809Z" fill="white"/>
</mask>
<g mask="url(#mask4_94_4253)">
<path d="M96.5721 38.083C96.1703 38.1888 95.7077 38.1703 95.298 38.1332C94.9252 38.1015 94.5552 38.0275 94.1983 37.9165C93.9287 37.8319 93.6062 37.6944 93.6035 37.3614C93.6035 37.171 93.7251 37.0309 93.9207 37.0494L96.8021 37.3164C96.9686 37.3323 97.0902 37.4803 97.077 37.6469C97.0532 37.89 96.8179 38.0196 96.5721 38.083Z" fill="#FCFFFF"/>
<path d="M96.0562 39.8202L94.1952 39.6483C93.9494 39.6245 93.7696 39.4078 93.7908 39.1619C93.8066 38.9875 93.9309 38.8632 94.0868 38.7998C94.2692 38.7231 94.4754 38.7046 94.6684 38.6914C95.1151 38.657 95.5486 38.7258 95.9716 38.8632C96.228 38.9478 96.5717 39.0879 96.5399 39.4184C96.5161 39.6642 96.2994 39.8439 96.0535 39.8228L96.0562 39.8202Z" fill="#F799AB"/>
</g>
<path d="M94.4287 33.8699C94.2991 34.9855 93.2867 35.7838 92.1712 35.6542C91.0556 35.5247 90.2573 34.5123 90.3868 33.3967C90.5164 32.2812 91.5288 31.4829 92.6443 31.6124C93.7599 31.7419 94.5582 32.7544 94.4287 33.8699Z" stroke="#3D2217" stroke-width="0.75" stroke-miterlimit="10"/>
<path d="M100.198 34.5437C100.069 35.6593 99.0562 36.4576 97.9407 36.3281C96.8251 36.1985 96.0268 35.1861 96.1564 34.0706C96.2859 32.955 97.2983 32.1567 98.4139 32.2862C99.5294 32.4158 100.328 33.4282 100.198 34.5437Z" stroke="#3D2217" stroke-width="0.75" stroke-miterlimit="10"/>
<path d="M94.4395 33.7557C94.9893 33.4517 95.8035 33.5363 96.1947 33.9434" stroke="#3D2217" stroke-width="0.75" stroke-miterlimit="10"/>
<path d="M100.197 34.543L101.807 34.9025" stroke="#3D2217" stroke-width="0.75" stroke-miterlimit="10"/>
<path d="M103.283 34.7912C103.698 35.1375 103.883 35.6874 103.762 36.2161C103.632 36.7844 103.101 37.2444 102.614 37.5219C102.03 37.8577 100.425 38.0638 100.33 37.1016C100.275 36.5359 100.788 35.7746 101.142 35.3675C101.668 34.7595 102.538 34.17 103.286 34.7912H103.283Z" fill="#FAC39A"/>
<path d="M79.4128 21.2763C79.5344 21.1229 79.7115 21.0436 79.8886 21.0013C80.0657 20.9617 80.2508 20.967 80.4226 21.0066C80.5971 21.0463 80.761 21.1203 80.9037 21.226C81.0438 21.3344 81.1733 21.4719 81.2341 21.6569C81.0412 21.649 80.8878 21.6278 80.7345 21.6067C80.5838 21.5829 80.4437 21.5565 80.3036 21.5248C80.1635 21.493 80.0261 21.456 79.8833 21.419C79.7379 21.3767 79.5926 21.3371 79.4102 21.2789L79.4128 21.2763Z" fill="#343A4A"/>
<path d="M79.4775 22.8095C79.4616 23.206 79.6493 23.5391 79.9005 23.5523C80.1516 23.5655 80.3657 23.2536 80.3842 22.857C80.4001 22.4605 80.2124 22.1275 79.9612 22.1142C79.7101 22.101 79.496 22.4129 79.4775 22.8095Z" fill="#3D2217"/>
<path d="M75.1102 21.04C74.9199 21.0823 74.7718 21.1087 74.6264 21.1352C74.481 21.1616 74.3409 21.1854 74.1982 21.2039C74.0554 21.2224 73.9127 21.2383 73.762 21.2462C73.6087 21.2541 73.4554 21.2621 73.2598 21.2515C73.3391 21.0717 73.4765 20.9475 73.6272 20.8523C73.7805 20.7598 73.9497 20.7017 74.1268 20.6779C74.3039 20.6541 74.4863 20.6673 74.6608 20.7228C74.8326 20.781 75.0018 20.8761 75.1075 21.04H75.1102Z" fill="#343A4A"/>
<path d="M74.9018 22.5311C74.8859 22.9276 74.6692 23.2395 74.418 23.2263C74.1669 23.2131 73.9792 22.88 73.9951 22.4835C74.0109 22.087 74.2277 21.775 74.4788 21.7882C74.73 21.8015 74.9176 22.1345 74.9018 22.5311Z" fill="#3D2217"/>
<path d="M77.7042 24.987C77.6937 25.1456 77.4082 25.2566 77.0672 25.2355C76.7262 25.2143 76.4565 25.0663 76.4671 24.9051C76.4777 24.7465 76.7632 24.6354 77.1042 24.6566C77.4452 24.6777 77.7148 24.8258 77.7042 24.987Z" fill="#E59A7F"/>
<path d="M77.2793 28.0026C76.1929 28.0344 75.2333 27.3286 75.0588 26.2342C75.0562 26.213 75.0535 26.1945 75.0509 26.1734C75.0483 26.1522 75.0456 26.1311 75.043 26.1099C75.043 26.1099 75.7329 26.4694 77.1868 26.5355C78.6381 26.6016 79.2725 26.3055 79.2751 26.3055C79.2619 26.3108 79.2434 26.4324 79.2381 26.4483C79.1245 26.8369 78.9685 27.1779 78.6698 27.4607C78.2944 27.8149 77.7922 27.9921 77.2793 28.0053V28.0026Z" fill="white"/>
<path d="M83.6875 58.9897C83.8461 59.8859 84.2585 60.7344 84.8612 61.4138C85.1308 61.7178 85.4428 61.9927 85.8102 62.1698C86.1776 62.3469 86.6032 62.4157 86.9971 62.3099" stroke="#273549" stroke-width="0.75" stroke-miterlimit="10"/>
<path d="M71.9258 61.2574C72.2747 61.3288 72.6369 61.2231 72.9647 61.0803C73.7603 60.7261 74.4741 60.06 74.6353 59.2035" stroke="#273549" stroke-width="0.75" stroke-miterlimit="10"/>
<path d="M85.6299 39.6025H81.5352V40.9348H85.6299V39.6025Z" fill="#629429"/>
<path d="M101.401 38.4738C101.773 38.4738 102.075 38.172 102.075 37.7997C102.075 37.4274 101.773 37.1256 101.401 37.1256C101.028 37.1256 100.727 37.4274 100.727 37.7997C100.727 38.172 101.028 38.4738 101.401 38.4738Z" fill="#A04FB5"/>
</svg>
