<svg width="18" height="16" viewBox="0 0 18 16" fill="none" xmlns="http://www.w3.org/2000/svg">
<path d="M15.7115 2.5685C15.3333 2.19012 14.8843 1.88997 14.39 1.68519C13.8958 1.4804 13.3661 1.375 12.8311 1.375C12.2961 1.375 11.7664 1.4804 11.2722 1.68519C10.7779 1.88997 10.3289 2.19012 9.95069 2.5685L9.1658 3.35339L8.38091 2.5685C7.61698 1.80457 6.58087 1.3754 5.50051 1.3754C4.42015 1.3754 3.38403 1.80457 2.6201 2.5685C1.85617 3.33243 1.427 4.36854 1.427 5.4489C1.427 6.52926 1.85617 7.56537 2.6201 8.3293L3.40499 9.11419L9.1658 14.875L14.9266 9.11419L15.7115 8.3293C16.0899 7.95111 16.39 7.50207 16.5948 7.00784C16.7996 6.51361 16.905 5.98388 16.905 5.4489C16.905 4.91392 16.7996 4.38419 16.5948 3.88996C16.39 3.39573 16.0899 2.94669 15.7115 2.5685V2.5685Z" stroke="white" stroke-width="1.5" stroke-linecap="round" stroke-linejoin="round"/>
</svg>
