<svg width="18" height="16" viewBox="0 0 18 16" fill="none" xmlns="http://www.w3.org/2000/svg">
<path d="M15.4681 2.5685C15.0899 2.19012 14.6409 1.88997 14.1466 1.68519C13.6524 1.4804 13.1227 1.375 12.5877 1.375C12.0527 1.375 11.523 1.4804 11.0287 1.68519C10.5345 1.88997 10.0855 2.19012 9.70728 2.5685L8.92239 3.35339L8.1375 2.5685C7.37357 1.80457 6.33746 1.3754 5.2571 1.3754C4.17674 1.3754 3.14063 1.80457 2.3767 2.5685C1.61277 3.33243 1.18359 4.36854 1.18359 5.4489C1.18359 6.52926 1.61277 7.56537 2.3767 8.3293L3.16159 9.11419L8.92239 14.875L14.6832 9.11419L15.4681 8.3293C15.8465 7.95111 16.1466 7.50207 16.3514 7.00784C16.5562 6.51361 16.6616 5.98388 16.6616 5.4489C16.6616 4.91392 16.5562 4.38419 16.3514 3.88996C16.1466 3.39573 15.8465 2.94669 15.4681 2.5685V2.5685Z" stroke="#EF1D26" stroke-width="1.5" stroke-linecap="round" stroke-linejoin="round"/>
</svg>
