<svg width="17" height="18" viewBox="0 0 17 18" fill="none" xmlns="http://www.w3.org/2000/svg">
<path d="M4.54099 16.6249H2.29101C1.89318 16.6249 1.51166 16.4669 1.23035 16.1856C0.94905 15.9043 0.791016 15.5227 0.791016 15.1249V9.87495C0.791016 9.47713 0.94905 9.0956 1.23035 8.81429C1.51166 8.53299 1.89318 8.37496 2.29101 8.37496H4.54099M9.79096 6.87497V3.87499C9.79096 3.27825 9.55391 2.70596 9.13195 2.28401C8.71 1.86205 8.13771 1.625 7.54097 1.625L4.54099 8.37496V16.6249H13.0009C13.3627 16.629 13.7137 16.5022 13.9894 16.2679C14.265 16.0336 14.4467 15.7076 14.5009 15.3499L15.5359 8.59996C15.5686 8.38497 15.5541 8.16547 15.4934 7.95665C15.4328 7.74783 15.3275 7.55468 15.1848 7.3906C15.0421 7.22651 14.8655 7.09541 14.6671 7.00638C14.4687 6.91734 14.2534 6.8725 14.0359 6.87497H9.79096Z" stroke="#FB8308" stroke-width="1.5" stroke-linecap="round" stroke-linejoin="round"/>
</svg>
