<svg width="17" height="18" viewBox="0 0 17 18" fill="none" xmlns="http://www.w3.org/2000/svg">
<path d="M4.78489 16.6249H2.5349C2.13708 16.6249 1.75555 16.4669 1.47425 16.1856C1.19295 15.9043 1.03491 15.5227 1.03491 15.1249V9.87495C1.03491 9.47713 1.19295 9.0956 1.47425 8.81429C1.75555 8.53299 2.13708 8.37496 2.5349 8.37496H4.78489M10.0349 6.87497V3.87499C10.0349 3.27825 9.7978 2.70596 9.37585 2.28401C8.95389 1.86205 8.3816 1.625 7.78487 1.625L4.78489 8.37496V16.6249H13.2448C13.6066 16.629 13.9576 16.5022 14.2333 16.2679C14.5089 16.0336 14.6906 15.7076 14.7448 15.3499L15.7798 8.59996C15.8124 8.38497 15.7979 8.16547 15.7373 7.95665C15.6767 7.74783 15.5714 7.55468 15.4287 7.3906C15.286 7.22651 15.1094 7.09541 14.911 7.00638C14.7126 6.91734 14.4973 6.8725 14.2798 6.87497H10.0349Z" stroke="white" stroke-width="1.5" stroke-linecap="round" stroke-linejoin="round"/>
</svg>
