<svg width="136" height="132" viewBox="0 0 136 132" fill="none" xmlns="http://www.w3.org/2000/svg">
<path d="M135.406 89.2033V92.4052C135.378 102.347 128.842 112.276 115.788 119.862C89.5127 135.132 46.7837 135.132 20.3362 119.862C7.0265 112.177 0.378201 102.091 0.406343 92.02V88.8181C0.377576 98.889 7.02588 108.976 20.3356 116.66C46.7831 131.929 89.5121 131.929 115.787 116.66C128.842 109.074 135.378 99.1454 135.406 89.2033Z" fill="#A9B1D4"/>
<mask id="mask0_94_2844" style="mask-type:luminance" maskUnits="userSpaceOnUse" x="0" y="88" width="136" height="44">
<path d="M135.406 89.2023V92.4042C135.378 102.346 128.842 112.275 115.788 119.861C89.5127 135.131 46.7837 135.131 20.3362 119.861C7.0265 112.177 0.378201 102.09 0.406343 92.019V88.8171C0.377576 98.8881 7.02588 108.975 20.3356 116.659C46.7831 131.928 89.5121 131.928 115.787 116.659C128.842 109.073 135.378 99.1445 135.406 89.2023Z" fill="white"/>
</mask>
<g mask="url(#mask0_94_2844)">
<path d="M3.44188 100.507V103.709C1.40756 99.9068 0.395086 95.9613 0.406343 92.019V88.8171C0.395086 92.7601 1.40756 96.7049 3.44188 100.507Z" fill="#A9B1D4"/>
</g>
<path d="M115.201 61.8549C128.322 69.4305 134.79 79.2813 134.843 89.017C134.896 98.7512 128.539 108.6 115.505 116.174C102.473 123.747 85.3258 127.55 68.126 127.55C50.9263 127.55 33.7351 123.747 20.6171 116.173C7.49567 108.598 1.02533 98.7469 0.969121 89.0111C0.91292 79.2769 7.26764 69.4287 20.3014 61.8541C33.3327 54.2813 50.4829 50.4785 67.6857 50.4785C84.8882 50.4785 102.082 54.2812 115.201 61.8549Z" fill="#FAFAFC" stroke="#A9B1D4" stroke-width="1.125"/>
<path d="M68.1063 124.988C52.4295 124.988 36.7353 121.532 24.7613 114.619C12.9462 107.797 6.43175 98.6726 6.41799 88.9269C6.40423 79.248 12.8168 70.1864 24.4749 63.4118C48.2702 49.583 87.1131 49.5824 111.062 63.4099C122.874 70.2296 129.387 79.3518 129.401 89.0963C129.415 98.7777 123.001 107.841 111.339 114.618C99.4429 121.531 83.7831 124.988 68.1063 124.988ZM67.7123 54.8486C52.367 54.8486 37.0411 58.2319 25.3967 64.9984C14.3289 71.4303 8.24032 79.9272 8.25345 88.9237C8.26596 97.9879 14.4546 106.549 25.6794 113.029C49.1182 126.562 87.1319 126.562 110.416 113.03C121.488 106.597 127.578 98.0979 127.565 89.0988C127.552 80.0366 121.366 71.4784 110.144 64.9996C98.4236 58.2325 83.0583 54.8486 67.7123 54.8486Z" fill="#A9B1D4"/>
<path d="M79.1875 64.2873L81.1268 63.1604L105.843 77.4294L103.903 78.557L79.1875 64.2873Z" fill="#39313E"/>
<path d="M78.3027 31.1092L80.242 29.9823L81.2188 30.5464L79.2796 31.6733L78.3027 31.1092Z" fill="#322A36"/>
<path d="M79.2801 31.6739L81.2193 30.547L81.1268 63.1607L79.1875 64.2876L79.2801 31.6739Z" fill="#322A36"/>
<path d="M104.971 46.507L106.911 45.3801L106.814 79.1163L104.875 80.2432L104.971 46.507Z" fill="#322A36"/>
<path d="M103.996 45.943L105.935 44.8161L106.911 45.3789L104.971 46.5058L103.996 45.943Z" fill="#322A36"/>
<path d="M104.97 46.5061L104.875 80.2423L78.207 64.8457L78.3027 31.1095L79.2795 31.6736L79.187 64.2873L103.903 78.5569L103.995 45.9433L104.97 46.5061Z" fill="#231B26"/>
<path d="M31.2285 80.942L30.6469 80.6043L30.6406 78.3617L31.2222 78.6994L31.2285 80.942Z" fill="#231B26"/>
<path d="M31.2222 78.7002L30.6406 78.3625L78.5277 50.7143L79.1092 51.0526L31.2222 78.7002Z" fill="#C6D0FF"/>
<path d="M79.1077 51.0526L79.1146 53.2958L31.227 80.9428L31.2207 78.7002L79.1077 51.0526Z" fill="#7480BA"/>
<path d="M31.166 91.9566L33.1053 90.8297L57.8211 105.099L55.8819 106.226L31.166 91.9566Z" fill="#C6D0FF"/>
<path d="M30.2773 58.7801L32.2166 57.6532L33.1934 58.2173L31.2542 59.3442L30.2773 58.7801Z" fill="#322A36"/>
<path d="M31.2586 59.3433L33.1978 58.2164L33.1053 90.83L31.166 91.9569L31.2586 59.3433Z" fill="#C6D0FF"/>
<path d="M56.9492 74.1757L58.8885 73.0487L58.7928 106.785L56.8535 107.912L56.9492 74.1757Z" fill="#C6D0FF"/>
<path d="M55.9746 73.6132L57.9139 72.4862L58.8888 73.0491L56.9496 74.176L55.9746 73.6132Z" fill="#322A36"/>
<path d="M56.9469 74.1754L56.8512 107.912L30.1836 92.515L30.2793 58.7788L31.2561 59.3429L31.1635 91.9565L55.8794 106.226L55.9719 73.6126L56.9469 74.1754Z" fill="#7480BA"/>
<path d="M80.4659 33.3135L79.6354 32.8307L65.7734 69.7463L66.6039 70.229L80.4659 33.3135Z" fill="#816971"/>
<path d="M82.3013 32.2537L81.4708 31.7709L79.6348 32.8309L80.4652 33.3137L82.3013 32.2537Z" fill="#957F87"/>
<path d="M80.4674 33.3143L66.6055 70.2299L68.4422 69.1692L82.3035 32.2543L80.4674 33.3143Z" fill="#5D4D57"/>
<path d="M68.3638 40.3045L67.5334 39.8217L65.6973 40.8823L66.5278 41.3651L68.3638 40.3045Z" fill="#957F87"/>
<path d="M66.5278 41.3643L65.6973 40.8815L79.7218 61.6969L80.5523 62.1797L66.5278 41.3643Z" fill="#3D3239"/>
<path d="M68.3634 40.3044L66.5273 41.365L80.5519 62.1804L82.3886 61.1198L68.3634 40.3044Z" fill="#5D4D57"/>
<path d="M28.9004 58.22L28.9073 60.6214L58.8224 78.0061L58.8156 75.6053L28.9004 58.22Z" fill="#C6D0FF"/>
<path d="M58.8145 75.6061L58.8213 78.0069L109.322 48.5732L109.315 46.1724L58.8145 75.6061Z" fill="#B0BDFE"/>
<path d="M108.963 46.1863L58.835 75.4022L29.2927 58.2342L79.4205 29.0178L108.963 46.1863Z" fill="#EAEEFF" stroke="#7480BA" stroke-width="0.375"/>
<g opacity="0.3">
<path d="M75.8164 45.6943L82.3403 42.0403L86.9086 45.8376L75.8164 45.6943Z" fill="#48257C"/>
</g>
<path d="M91.497 49.2012L91.4038 49.5721L66.9531 63.5391L67.0457 63.1676L91.497 49.2012Z" fill="#CED3E8"/>
<path d="M67.0465 63.1678L66.9539 63.5393L57.3945 55.8579L57.494 54.9405L67.0465 63.1678Z" fill="#133643"/>
<path d="M91.496 49.2017L67.0447 63.1681L57.4922 54.9407L81.9435 40.9737L91.496 49.2017Z" fill="#335464"/>
<path d="M82.841 41.9442L82.7797 42.1919L81.4746 42.9373L81.5359 42.6897L82.841 41.9442Z" fill="#C2C8E3"/>
<path d="M81.5335 42.6903L81.4722 42.9379L80.7793 42.3407L80.8406 42.0937L81.5335 42.6903Z" fill="#8F9AD2"/>
<path d="M82.8399 41.9439L81.5347 42.6894L80.8418 42.0928L82.1469 41.3473L82.8399 41.9439Z" fill="#EAEEFF"/>
<path d="M84.5852 43.5629L84.5239 43.8099L83.2188 44.5554L83.28 44.3083L84.5852 43.5629Z" fill="#C2C8E3"/>
<path d="M83.2806 44.3088L83.2193 44.5558L81.9492 43.4626L82.0111 43.215L83.2806 44.3088Z" fill="#8F9AD2"/>
<path d="M84.5844 43.5639L83.2793 44.3093L82.0098 43.2156L83.3149 42.4701L84.5844 43.5639Z" fill="#EAEEFF"/>
<path d="M81.1913 42.8847L81.1294 43.1323L79.8242 43.8778L79.8861 43.6307L81.1913 42.8847Z" fill="#C2C8E3"/>
<path d="M79.8876 43.6299L79.8257 43.8769L79.1328 43.2803L79.1947 43.0326L79.8876 43.6299Z" fill="#8F9AD2"/>
<path d="M81.1934 42.8843L79.8882 43.6304L79.1953 43.0332L80.4998 42.2878L81.1934 42.8843Z" fill="#EAEEFF"/>
<path d="M83.0032 44.4667L82.9412 44.7137L81.6367 45.4592L81.698 45.2121L83.0032 44.4667Z" fill="#C2C8E3"/>
<path d="M81.6986 45.2121L81.6373 45.4591L80.3672 44.3653L80.4291 44.1183L81.6986 45.2121Z" fill="#8F9AD2"/>
<path d="M83.0024 44.4662L81.6972 45.2117L80.4277 44.1179L81.7323 43.3725L83.0024 44.4662Z" fill="#EAEEFF"/>
<path d="M79.5467 43.8251L79.4848 44.0721L78.1797 44.8176L78.241 44.5705L79.5467 43.8251Z" fill="#C2C8E3"/>
<path d="M78.2405 44.5704L78.1792 44.8174L77.4863 44.2208L77.5476 43.9731L78.2405 44.5704Z" fill="#8F9AD2"/>
<path d="M79.5475 43.8247L78.2417 44.5701L77.5488 43.9729L78.854 43.2274L79.5475 43.8247Z" fill="#EAEEFF"/>
<path d="M81.4237 45.3697L81.3618 45.6173L80.0566 46.3628L80.1186 46.1158L81.4237 45.3697Z" fill="#C2C8E3"/>
<path d="M80.1191 46.115L80.0572 46.3621L78.7871 45.2683L78.849 45.0213L80.1191 46.115Z" fill="#8F9AD2"/>
<path d="M81.4229 45.3695L80.1178 46.1156L78.8477 45.0218L80.1528 44.2764L81.4229 45.3695Z" fill="#EAEEFF"/>
<path d="M77.9016 44.7649L77.8403 45.0125L76.5352 45.758L76.5971 45.5103L77.9016 44.7649Z" fill="#C2C8E3"/>
<path d="M76.5966 45.5102L76.5347 45.7578L75.8418 45.1612L75.9031 44.9136L76.5966 45.5102Z" fill="#8F9AD2"/>
<path d="M77.9023 44.7645L76.5978 45.5099L75.9043 44.9133L77.2094 44.1679L77.9023 44.7645Z" fill="#EAEEFF"/>
<path d="M79.8417 46.2736L79.7798 46.5212L78.4746 47.2667L78.5365 47.019L79.8417 46.2736Z" fill="#C2C8E3"/>
<path d="M78.5345 47.0196L78.4726 47.2672L77.2031 46.1734L77.265 45.9264L78.5345 47.0196Z" fill="#8F9AD2"/>
<path d="M79.8383 46.2747L78.5332 47.0201L77.2637 45.927L78.5682 45.1815L79.8383 46.2747Z" fill="#EAEEFF"/>
<path d="M78.2616 47.1768L78.1997 47.4244L76.8945 48.1699L76.9558 47.9222L78.2616 47.1768Z" fill="#C2C8E3"/>
<path d="M76.9545 47.9226L76.8932 48.1703L75.623 47.0765L75.685 46.8295L76.9545 47.9226Z" fill="#8F9AD2"/>
<path d="M78.2589 47.1763L76.9531 47.9218L75.6836 46.8286L76.9887 46.0826L78.2589 47.1763Z" fill="#EAEEFF"/>
<path d="M75.4328 46.1755L75.3715 46.4226L74.0664 47.1686L74.1277 46.921L75.4328 46.1755Z" fill="#C2C8E3"/>
<path d="M74.1272 46.9209L74.066 47.1686L73.373 46.5714L73.4343 46.3243L74.1272 46.9209Z" fill="#8F9AD2"/>
<path d="M75.4336 46.1758L74.1285 46.9212L73.4355 46.3246L74.7407 45.5785L75.4336 46.1758Z" fill="#EAEEFF"/>
<path d="M76.6789 48.0797L76.617 48.3274L75.3125 49.0728L75.3738 48.8252L76.6789 48.0797Z" fill="#C2C8E3"/>
<path d="M75.3724 48.8248L75.3111 49.0724L74.041 47.9786L74.1029 47.731L75.3724 48.8248Z" fill="#8F9AD2"/>
<path d="M76.6762 48.0793L75.3711 48.8247L74.1016 47.7309L75.4061 46.9855L76.6762 48.0793Z" fill="#EAEEFF"/>
<path d="M73.785 47.116L73.7231 47.363L72.418 48.1084L72.4799 47.8608L73.785 47.116Z" fill="#C2C8E3"/>
<path d="M72.4814 47.8612L72.4195 48.1089L71.7266 47.5123L71.7885 47.2646L72.4814 47.8612Z" fill="#8F9AD2"/>
<path d="M73.7871 47.1162L72.482 47.861L71.7891 47.2644L73.0942 46.519L73.7871 47.1162Z" fill="#EAEEFF"/>
<path d="M75.0975 48.9843L75.0356 49.2313L73.7305 49.9774L73.7924 49.7297L75.0975 48.9843Z" fill="#C2C8E3"/>
<path d="M73.791 49.7296L73.7291 49.9773L72.459 48.8835L72.5209 48.6359L73.791 49.7296Z" fill="#8F9AD2"/>
<path d="M75.0948 48.9838L73.7897 49.7292L72.5195 48.6355L73.8247 47.89L75.0948 48.9838Z" fill="#EAEEFF"/>
<path d="M72.1438 48.0558L72.0825 48.3034L70.7773 49.0489L70.8386 48.8012L72.1438 48.0558Z" fill="#C2C8E3"/>
<path d="M70.8382 48.8017L70.7769 49.0493L70.084 48.4521L70.1453 48.2051L70.8382 48.8017Z" fill="#8F9AD2"/>
<path d="M72.1426 48.056L70.8374 48.8014L70.1445 48.2048L71.4497 47.4594L72.1426 48.056Z" fill="#EAEEFF"/>
<path d="M73.5149 49.8881L73.453 50.1357L72.1484 50.8812L72.2097 50.6335L73.5149 49.8881Z" fill="#C2C8E3"/>
<path d="M72.2084 50.6326L72.1471 50.8803L70.877 49.7865L70.9389 49.5388L72.2084 50.6326Z" fill="#8F9AD2"/>
<path d="M73.5141 49.8877L72.209 50.6332L70.9395 49.5394L72.2446 48.794L73.5141 49.8877Z" fill="#EAEEFF"/>
<path d="M70.4953 48.996L70.4334 49.2436L69.1289 49.9891L69.1902 49.7421L70.4953 48.996Z" fill="#C2C8E3"/>
<path d="M69.1884 49.7418L69.1271 49.9888L68.4336 49.3916L68.4955 49.1446L69.1884 49.7418Z" fill="#8F9AD2"/>
<path d="M70.4942 48.9951L69.189 49.7411L68.4961 49.1439L69.8012 48.3985L70.4942 48.9951Z" fill="#EAEEFF"/>
<path d="M71.9315 50.7919L71.8696 51.0389L70.5645 51.7843L70.6264 51.5373L71.9315 50.7919Z" fill="#C2C8E3"/>
<path d="M70.6263 51.5378L70.5644 51.7848L69.2949 50.6916L69.3562 50.444L70.6263 51.5378Z" fill="#8F9AD2"/>
<path d="M71.9327 50.7929L70.6276 51.5383L69.3574 50.4446L70.6626 49.6991L71.9327 50.7929Z" fill="#EAEEFF"/>
<path d="M68.0272 50.4058L67.9653 50.6528L66.6602 51.3983L66.7221 51.1513L68.0272 50.4058Z" fill="#C2C8E3"/>
<path d="M66.7216 51.1506L66.6597 51.3977L65.9668 50.801L66.0287 50.554L66.7216 51.1506Z" fill="#8F9AD2"/>
<path d="M68.0274 50.4057L66.7222 51.1512L66.0293 50.5545L67.3344 49.8091L68.0274 50.4057Z" fill="#EAEEFF"/>
<path d="M70.3495 51.6957L70.2876 51.9427L68.9824 52.6882L69.0443 52.4412L70.3495 51.6957Z" fill="#C2C8E3"/>
<path d="M69.0443 52.4409L68.9824 52.6879L67.7129 51.5942L67.7748 51.3472L69.0443 52.4409Z" fill="#8F9AD2"/>
<path d="M70.35 51.6952L69.0449 52.4407L67.7754 51.3469L69.0805 50.6015L70.35 51.6952Z" fill="#EAEEFF"/>
<path d="M66.3781 51.3465L66.3169 51.5941L65.0117 52.3396L65.073 52.0925L66.3781 51.3465Z" fill="#C2C8E3"/>
<path d="M65.0751 52.0924L65.0138 52.3394L64.3203 51.7428L64.3822 51.4951L65.0751 52.0924Z" fill="#8F9AD2"/>
<path d="M66.3809 51.3462L65.0757 52.0922L64.3828 51.495L65.688 50.7495L66.3809 51.3462Z" fill="#EAEEFF"/>
<path d="M68.7694 52.5989L68.7075 52.8466L67.4023 53.592L67.4643 53.345L68.7694 52.5989Z" fill="#C2C8E3"/>
<path d="M67.4623 53.3448L67.4004 53.5918L66.1309 52.498L66.1921 52.251L67.4623 53.3448Z" fill="#8F9AD2"/>
<path d="M68.7686 52.5985L67.4635 53.3446L66.1934 52.2508L67.4985 51.5054L68.7686 52.5985Z" fill="#EAEEFF"/>
<path d="M64.7362 52.2869L64.6743 52.5339L63.3691 53.28L63.4311 53.0323L64.7362 52.2869Z" fill="#C2C8E3"/>
<path d="M63.4286 53.0322L63.3667 53.2798L62.6738 52.6826L62.7357 52.4356L63.4286 53.0322Z" fill="#8F9AD2"/>
<path d="M64.7363 52.2866L63.4312 53.032L62.7383 52.4354L64.0434 51.69L64.7363 52.2866Z" fill="#EAEEFF"/>
<path d="M67.1868 53.5019L67.1255 53.7495L65.8203 54.495L65.8822 54.2473L67.1868 53.5019Z" fill="#C2C8E3"/>
<path d="M65.8809 54.2472L65.8189 54.4949L64.5488 53.4011L64.6107 53.1541L65.8809 54.2472Z" fill="#8F9AD2"/>
<path d="M67.186 53.5014L65.8814 54.2468L64.6113 53.1537L65.9165 52.4076L67.186 53.5014Z" fill="#EAEEFF"/>
<path d="M63.0858 53.225L63.0239 53.4727L61.7188 54.2181L61.7807 53.9705L63.0858 53.225Z" fill="#C2C8E3"/>
<path d="M61.7822 53.9702L61.7203 54.2178L61.0273 53.6212L61.0893 53.3736L61.7822 53.9702Z" fill="#8F9AD2"/>
<path d="M63.0879 53.2247L61.7828 53.9701L61.0898 53.3735L62.395 52.6281L63.0879 53.2247Z" fill="#EAEEFF"/>
<path d="M65.6053 54.4058L65.5434 54.6534L64.2383 55.3989L64.3002 55.1512L65.6053 54.4058Z" fill="#C2C8E3"/>
<path d="M64.2988 55.1516L64.2369 55.3993L62.9668 54.3055L63.0287 54.0585L64.2988 55.1516Z" fill="#8F9AD2"/>
<path d="M65.6026 54.4053L64.2975 55.1508L63.0273 54.0576L64.3325 53.3116L65.6026 54.4053Z" fill="#EAEEFF"/>
<path d="M64.0227 55.3095L63.9614 55.5571L62.6562 56.3026L62.7175 56.0549L64.0227 55.3095Z" fill="#C2C8E3"/>
<path d="M62.7155 56.0553L62.6543 56.303L61.3848 55.2092L61.446 54.9615L62.7155 56.0553Z" fill="#8F9AD2"/>
<path d="M64.0219 55.3105L62.7168 56.0559L61.4473 54.9622L62.7524 54.2167L64.0219 55.3105Z" fill="#EAEEFF"/>
<path d="M60.6125 54.64L60.5512 54.8877L59.2461 55.6331L59.3074 55.3855L60.6125 54.64Z" fill="#C2C8E3"/>
<path d="M59.3089 55.386L59.2476 55.6337L58.5547 55.0365L58.616 54.7895L59.3089 55.386Z" fill="#8F9AD2"/>
<path d="M60.6152 54.6397L59.3101 55.3852L58.6172 54.7886L59.9223 54.0431L60.6152 54.6397Z" fill="#EAEEFF"/>
<path d="M62.4413 56.2133L62.3794 56.4603L61.0742 57.2064L61.1361 56.9587L62.4413 56.2133Z" fill="#C2C8E3"/>
<path d="M61.1341 56.9585L61.0722 57.2062L59.8027 56.1118L59.864 55.8647L61.1341 56.9585Z" fill="#8F9AD2"/>
<path d="M62.4405 56.2128L61.1354 56.9583L59.8652 55.8645L61.1704 55.119L62.4405 56.2128Z" fill="#EAEEFF"/>
<path d="M84.7938 45.6144L84.7325 45.8614L83.9414 46.3136L84.0033 46.0659L84.7938 45.6144Z" fill="#C2C8E3"/>
<path d="M84.002 46.0651L83.94 46.3128L82.6699 45.219L82.7318 44.9713L84.002 46.0651Z" fill="#8F9AD2"/>
<path d="M87.6151 46.1725L87.5532 46.4202L86.248 47.1656L86.31 46.918L87.6151 46.1725Z" fill="#C2C8E3"/>
<path d="M87.6154 46.1736L86.3102 46.919L84.795 45.6145L84.0045 46.066L82.7344 44.9723L84.8306 43.7753L85.2746 44.158L86.1001 44.8691L87.6154 46.1736Z" fill="#EAEEFF"/>
<path d="M86.309 46.9189L86.2471 47.1666L84.7324 45.8614L84.7937 45.6144L86.309 46.9189Z" fill="#8F9AD2"/>
<path d="M82.4213 46.9697L82.3593 47.2167L81.0898 46.1235L81.1511 45.8759L82.4213 46.9697Z" fill="#8F9AD2"/>
<path d="M83.7264 46.2238L83.6645 46.4708L82.3594 47.2162L82.4213 46.9692L83.7264 46.2238Z" fill="#C2C8E3"/>
<path d="M83.7276 46.2233L82.4225 46.9688L81.1523 45.875L82.4575 45.1295L83.7276 46.2233Z" fill="#EAEEFF"/>
<path d="M86.0311 47.0763L85.9692 47.324L84.6641 48.0688L84.726 47.8218L86.0311 47.0763Z" fill="#C2C8E3"/>
<path d="M86.0317 47.0773L84.7265 47.8228L83.457 46.729L84.7616 45.9836L86.0317 47.0773Z" fill="#EAEEFF"/>
<path d="M84.7279 47.8229L84.666 48.07L83.3965 46.9768L83.4584 46.7292L84.7279 47.8229Z" fill="#8F9AD2"/>
<path d="M82.1438 47.1269L82.0825 47.3739L80.7773 48.1193L80.8386 47.8723L82.1438 47.1269Z" fill="#C2C8E3"/>
<path d="M80.8392 47.8727L80.7779 48.1198L79.5078 47.026L79.5697 46.779L80.8392 47.8727Z" fill="#8F9AD2"/>
<path d="M82.145 47.1279L80.8398 47.8733L79.5703 46.7795L80.8755 46.0341L82.145 47.1279Z" fill="#EAEEFF"/>
<path d="M80.5637 48.0307L80.5018 48.2783L79.1973 49.0238L79.2585 48.7767L80.5637 48.0307Z" fill="#C2C8E3"/>
<path d="M79.2572 48.776L79.1959 49.0231L77.9258 47.9293L77.9877 47.6823L79.2572 48.776Z" fill="#8F9AD2"/>
<path d="M80.5629 48.0302L79.2578 48.7763L77.9883 47.6825L79.2928 46.9364L80.5629 48.0302Z" fill="#EAEEFF"/>
<path d="M78.9803 48.9345L78.9184 49.1821L77.6133 49.9276L77.6752 49.6799L78.9803 48.9345Z" fill="#C2C8E3"/>
<path d="M77.6758 49.679L77.6139 49.9266L76.3438 48.8329L76.4057 48.5852L77.6758 49.679Z" fill="#8F9AD2"/>
<path d="M78.9815 48.9335L77.6764 49.6789L76.4062 48.5852L77.7114 47.8404L78.9815 48.9335Z" fill="#EAEEFF"/>
<path d="M77.3983 49.8368L77.3364 50.0845L76.0312 50.8299L76.0932 50.5829L77.3983 49.8368Z" fill="#C2C8E3"/>
<path d="M76.0931 50.5826L76.0312 50.8296L74.7617 49.7358L74.8236 49.4882L76.0931 50.5826Z" fill="#8F9AD2"/>
<path d="M77.3989 49.8371L76.0937 50.5832L74.8242 49.4888L76.1287 48.7433L77.3989 49.8371Z" fill="#EAEEFF"/>
<path d="M84.451 47.9803L84.3891 48.2273L83.084 48.9733L83.1459 48.7257L84.451 47.9803Z" fill="#C2C8E3"/>
<path d="M83.1478 48.7261L83.0859 48.9738L81.8164 47.88L81.8777 47.6324L83.1478 48.7261Z" fill="#8F9AD2"/>
<path d="M84.4522 47.9805L83.1471 48.726L81.877 47.6322L83.1821 46.8867L84.4522 47.9805Z" fill="#EAEEFF"/>
<path d="M82.8703 48.8832L82.809 49.1302L81.5039 49.8757L81.5652 49.6287L82.8703 48.8832Z" fill="#C2C8E3"/>
<path d="M81.5658 49.6283L81.5045 49.8754L80.2344 48.7816L80.2963 48.5346L81.5658 49.6283Z" fill="#8F9AD2"/>
<path d="M82.8715 48.8835L81.5664 49.6289L80.2969 48.5352L81.602 47.7897L82.8715 48.8835Z" fill="#EAEEFF"/>
<path d="M81.2909 49.7871L81.229 50.0342L79.9238 50.7796L79.9857 50.5326L81.2909 49.7871Z" fill="#C2C8E3"/>
<path d="M79.9838 50.5328L79.9218 50.7798L78.6523 49.6861L78.7136 49.439L79.9838 50.5328Z" fill="#8F9AD2"/>
<path d="M81.2882 49.7873L79.983 50.5327L78.7129 49.439L80.018 48.6929L81.2882 49.7873Z" fill="#EAEEFF"/>
<path d="M79.7082 50.6901L79.6469 50.9371L78.3418 51.6826L78.4031 51.4355L79.7082 50.6901Z" fill="#C2C8E3"/>
<path d="M78.4017 51.436L78.3404 51.683L77.0703 50.5892L77.1322 50.3422L78.4017 51.436Z" fill="#8F9AD2"/>
<path d="M79.7055 50.6903L78.4004 51.4357L77.1309 50.3419L78.436 49.5959L79.7055 50.6903Z" fill="#EAEEFF"/>
<path d="M75.8182 50.7408L75.7563 50.9884L74.4512 51.7338L74.5131 51.4862L75.8182 50.7408Z" fill="#C2C8E3"/>
<path d="M74.5131 51.4864L74.4511 51.734L73.1816 50.6403L73.2429 50.3926L74.5131 51.4864Z" fill="#8F9AD2"/>
<path d="M75.8194 50.7403L74.5143 51.4857L73.2441 50.392L74.5493 49.6465L75.8194 50.7403Z" fill="#EAEEFF"/>
<path d="M78.1242 51.594L78.0623 51.8417L76.7578 52.5871L76.8191 52.3401L78.1242 51.594Z" fill="#C2C8E3"/>
<path d="M76.8197 52.3405L76.7584 52.5875L75.4883 51.4937L75.5496 51.2461L76.8197 52.3405Z" fill="#8F9AD2"/>
<path d="M78.1241 51.5942L76.8189 52.3402L75.5488 51.2458L76.854 50.5004L78.1241 51.5942Z" fill="#EAEEFF"/>
<path d="M74.2381 51.6459L74.1762 51.8935L72.8711 52.639L72.933 52.3914L74.2381 51.6459Z" fill="#C2C8E3"/>
<path d="M72.931 52.3896L72.8691 52.6372L71.5996 51.5428L71.6615 51.2958L72.931 52.3896Z" fill="#8F9AD2"/>
<path d="M74.2367 51.6456L72.9316 52.391L71.6621 51.2972L72.9666 50.5518L74.2367 51.6456Z" fill="#EAEEFF"/>
<path d="M76.5422 52.4978L76.4809 52.7448L75.1758 53.4909L75.2377 53.2439L76.5422 52.4978Z" fill="#C2C8E3"/>
<path d="M75.2383 53.2443L75.1764 53.4913L73.9062 52.3976L73.9682 52.1499L75.2383 53.2443Z" fill="#8F9AD2"/>
<path d="M76.5414 52.4981L75.2369 53.2442L73.9668 52.1498L75.2719 51.4043L76.5414 52.4981Z" fill="#EAEEFF"/>
<path d="M72.6516 52.5482L72.5903 52.7953L71.2852 53.5413L71.3471 53.2937L72.6516 52.5482Z" fill="#C2C8E3"/>
<path d="M71.3477 53.2935L71.2857 53.5411L70.0156 52.4474L70.0775 52.1997L71.3477 53.2935Z" fill="#8F9AD2"/>
<path d="M72.6528 52.5478L71.3482 53.2932L70.0781 52.1994L71.3833 51.454L72.6528 52.5478Z" fill="#EAEEFF"/>
<path d="M74.9608 53.4008L74.8989 53.6485L73.5938 54.3939L73.6557 54.1462L74.9608 53.4008Z" fill="#C2C8E3"/>
<path d="M73.6556 54.1459L73.5937 54.3935L72.3242 53.2998L72.3861 53.0521L73.6556 54.1459Z" fill="#8F9AD2"/>
<path d="M74.9614 53.401L73.6562 54.1465L72.3867 53.0527L73.6919 52.3073L74.9614 53.401Z" fill="#EAEEFF"/>
<path d="M71.0754 53.4521L71.0141 53.6991L69.709 54.4445L69.7703 54.1975L71.0754 53.4521Z" fill="#C2C8E3"/>
<path d="M69.7689 54.1966L69.7076 54.4436L68.4375 53.3505L68.4994 53.1028L69.7689 54.1966Z" fill="#8F9AD2"/>
<path d="M71.0727 53.4517L69.7675 54.1972L68.498 53.1034L69.8032 52.3579L71.0727 53.4517Z" fill="#EAEEFF"/>
<path d="M73.3788 54.3047L73.3169 54.5524L72.0117 55.2972L72.0736 55.0502L73.3788 54.3047Z" fill="#C2C8E3"/>
<path d="M72.0736 55.0504L72.0117 55.2974L70.7422 54.2043L70.8035 53.9566L72.0736 55.0504Z" fill="#8F9AD2"/>
<path d="M73.378 54.3042L72.0729 55.0497L70.8027 53.9559L72.1079 53.2105L73.378 54.3042Z" fill="#EAEEFF"/>
<path d="M69.4921 54.3559L69.4301 54.6029L68.125 55.3483L68.1869 55.1013L69.4921 54.3559Z" fill="#C2C8E3"/>
<path d="M68.1856 55.1017L68.1236 55.3487L66.8535 54.2549L66.9154 54.0079L68.1856 55.1017Z" fill="#8F9AD2"/>
<path d="M69.4913 54.3569L68.1861 55.1023L66.916 54.0085L68.2212 53.2631L69.4913 54.3569Z" fill="#EAEEFF"/>
<path d="M71.7948 55.2077L71.7329 55.4547L70.4277 56.2001L70.4896 55.9531L71.7948 55.2077Z" fill="#C2C8E3"/>
<path d="M70.4916 55.9527L70.4297 56.1997L69.1602 55.1066L69.2221 54.8589L70.4916 55.9527Z" fill="#8F9AD2"/>
<path d="M71.7973 55.2072L70.4922 55.9526L69.2227 54.8589L70.5272 54.1134L71.7973 55.2072Z" fill="#EAEEFF"/>
<path d="M67.91 55.2584L67.8481 55.5061L66.543 56.2515L66.6049 56.0045L67.91 55.2584Z" fill="#C2C8E3"/>
<path d="M66.6029 56.0049L66.541 56.2519L65.2715 55.1582L65.3334 54.9111L66.6029 56.0049Z" fill="#8F9AD2"/>
<path d="M67.9086 55.2586L66.6035 56.0047L65.334 54.9109L66.6385 54.1654L67.9086 55.2586Z" fill="#EAEEFF"/>
<path d="M70.2141 56.1116L70.1528 56.3592L68.8477 57.1053L68.9096 56.8577L70.2141 56.1116Z" fill="#C2C8E3"/>
<path d="M68.9095 56.8576L68.8476 57.1052L67.5781 56.0108L67.6394 55.7638L68.9095 56.8576Z" fill="#8F9AD2"/>
<path d="M70.2153 56.1111L68.9107 56.8572L67.6406 55.7634L68.9458 55.018L70.2153 56.1111Z" fill="#EAEEFF"/>
<path d="M66.3257 56.1621L66.2637 56.4098L62.5859 58.5104L62.6478 58.2628L66.3257 56.1621Z" fill="#C2C8E3"/>
<path d="M62.6504 58.2631L62.5885 58.5108L61.3184 57.417L61.3803 57.17L62.6504 58.2631Z" fill="#8F9AD2"/>
<path d="M66.3268 56.1625L62.649 58.2631L61.3789 57.17L65.0567 55.0694L66.3268 56.1625Z" fill="#EAEEFF"/>
<path d="M68.6321 57.016L68.5708 57.2631L67.2656 58.0085L67.3269 57.7615L68.6321 57.016Z" fill="#C2C8E3"/>
<path d="M67.3275 57.7605L67.2662 58.0076L65.9961 56.9138L66.058 56.6668L67.3275 57.7605Z" fill="#8F9AD2"/>
<path d="M68.6332 57.0157L67.3281 57.7611L66.0586 56.6674L67.3637 55.9219L68.6332 57.0157Z" fill="#EAEEFF"/>
<path d="M89.1302 47.4777L89.0689 47.7247L86.9727 48.9223L87.0346 48.6746L89.1302 47.4777Z" fill="#C2C8E3"/>
<path d="M87.0365 48.6747L86.9746 48.9224L85.7051 47.8286L85.7664 47.581L87.0365 48.6747Z" fill="#8F9AD2"/>
<path d="M89.1314 47.4772L87.0357 48.6742L85.7656 47.5804L87.8619 46.3835L89.1314 47.4772Z" fill="#EAEEFF"/>
<path d="M86.7551 48.8334L86.6938 49.0804L85.3887 49.8265L85.45 49.5789L86.7551 48.8334Z" fill="#C2C8E3"/>
<path d="M85.4506 49.5779L85.3893 49.8256L84.1191 48.7318L84.1811 48.4842L85.4506 49.5779Z" fill="#8F9AD2"/>
<path d="M86.7563 48.8331L85.4511 49.5785L84.1816 48.4847L85.4868 47.7393L86.7563 48.8331Z" fill="#EAEEFF"/>
<path d="M85.1737 49.7365L85.1118 49.9841L83.8066 50.7296L83.8686 50.4819L85.1737 49.7365Z" fill="#C2C8E3"/>
<path d="M83.8691 50.4823L83.8072 50.73L82.5371 49.6362L82.599 49.3886L83.8691 50.4823Z" fill="#8F9AD2"/>
<path d="M85.1768 49.736L83.8717 50.4814L82.6016 49.3877L83.9067 48.6422L85.1768 49.736Z" fill="#EAEEFF"/>
<path d="M83.595 50.6404L83.533 50.8874L82.2285 51.6329L82.2898 51.3858L83.595 50.6404Z" fill="#C2C8E3"/>
<path d="M82.2884 51.3854L82.2272 51.6325L80.957 50.5393L81.0189 50.2917L82.2884 51.3854Z" fill="#8F9AD2"/>
<path d="M83.5942 50.6406L82.289 51.386L81.0195 50.2922L82.3247 49.5468L83.5942 50.6406Z" fill="#EAEEFF"/>
<path d="M82.0116 51.545L81.9497 51.792L80.6445 52.5374L80.7064 52.2904L82.0116 51.545Z" fill="#C2C8E3"/>
<path d="M80.7084 52.2901L80.6465 52.5371L79.377 51.4433L79.4382 51.1963L80.7084 52.2901Z" fill="#8F9AD2"/>
<path d="M82.0128 51.5445L80.7076 52.2899L79.4375 51.1962L80.7426 50.4507L82.0128 51.5445Z" fill="#EAEEFF"/>
<path d="M80.4289 52.4472L80.3676 52.6942L79.0625 53.4396L79.1238 53.1926L80.4289 52.4472Z" fill="#C2C8E3"/>
<path d="M79.1263 53.1923L79.0651 53.4393L77.7949 52.3455L77.8568 52.0985L79.1263 53.1923Z" fill="#8F9AD2"/>
<path d="M80.4301 52.4474L79.125 53.1929L77.8555 52.0991L79.1606 51.3537L80.4301 52.4474Z" fill="#EAEEFF"/>
<path d="M78.8475 53.3511L78.7856 53.5981L77.4805 54.3436L77.5424 54.0959L78.8475 53.3511Z" fill="#C2C8E3"/>
<path d="M77.5443 54.097L77.4824 54.3446L76.2129 53.2508L76.2748 53.0038L77.5443 54.097Z" fill="#8F9AD2"/>
<path d="M78.8481 53.3513L77.5429 54.0961L76.2734 53.0029L77.578 52.2569L78.8481 53.3513Z" fill="#EAEEFF"/>
<path d="M77.2649 54.2541L77.2036 54.5017L75.8984 55.2472L75.9603 54.9995L77.2649 54.2541Z" fill="#C2C8E3"/>
<path d="M75.9629 54.9999L75.901 55.2476L74.6309 54.1538L74.6928 53.9062L75.9629 54.9999Z" fill="#8F9AD2"/>
<path d="M77.266 54.2536L75.9615 54.999L74.6914 53.9053L75.9965 53.1598L77.266 54.2536Z" fill="#EAEEFF"/>
<path d="M75.6854 55.1586L75.6235 55.4062L74.3184 56.1517L74.3803 55.904L75.6854 55.1586Z" fill="#C2C8E3"/>
<path d="M74.3822 55.9038L74.3203 56.1515L73.0508 55.0577L73.1121 54.8101L74.3822 55.9038Z" fill="#8F9AD2"/>
<path d="M75.6866 55.1581L74.3814 55.9036L73.1113 54.8098L74.4165 54.0644L75.6866 55.1581Z" fill="#EAEEFF"/>
<path d="M74.1047 56.0625L74.0434 56.3096L72.7383 57.0556L72.7996 56.808L74.1047 56.0625Z" fill="#C2C8E3"/>
<path d="M72.7995 56.8077L72.7382 57.0553L71.4688 55.9615L71.53 55.7139L72.7995 56.8077Z" fill="#8F9AD2"/>
<path d="M74.1039 56.0621L72.7988 56.8075L71.5293 55.7137L72.8344 54.9683L74.1039 56.0621Z" fill="#EAEEFF"/>
<path d="M72.5213 56.9648L72.4594 57.2124L71.1543 57.9572L71.2162 57.7102L72.5213 56.9648Z" fill="#C2C8E3"/>
<path d="M71.2181 57.7099L71.1562 57.9569L69.8867 56.8638L69.9486 56.6161L71.2181 57.7099Z" fill="#8F9AD2"/>
<path d="M72.5219 56.965L71.2168 57.7105L69.9473 56.6167L71.2518 55.8712L72.5219 56.965Z" fill="#EAEEFF"/>
<path d="M70.9413 57.8687L70.8794 58.1163L69.5742 58.8611L69.6361 58.6141L70.9413 57.8687Z" fill="#C2C8E3"/>
<path d="M69.6367 58.6144L69.5748 58.8614L68.3047 57.7682L68.3666 57.5206L69.6367 58.6144Z" fill="#8F9AD2"/>
<path d="M70.9405 57.8682L69.6354 58.6136L68.3652 57.5199L69.6704 56.7744L70.9405 57.8682Z" fill="#EAEEFF"/>
<path d="M90.6478 48.7821L90.5859 49.0298L87.6992 50.6789L87.7611 50.4312L90.6478 48.7821Z" fill="#C2C8E3"/>
<path d="M87.7598 50.4312L87.6979 50.6788L86.4277 49.5851L86.4896 49.338L87.7598 50.4312Z" fill="#8F9AD2"/>
<path d="M90.6451 48.7818L87.7584 50.4309L86.4883 49.3377L89.375 47.6886L90.6451 48.7818Z" fill="#CED3E8"/>
<path d="M87.4842 50.5898L87.4223 50.8374L86.1172 51.5828L86.1791 51.3352L87.4842 50.5898Z" fill="#C2C8E3"/>
<path d="M86.1771 51.3356L86.1152 51.5833L84.8457 50.4895L84.907 50.2419L86.1771 51.3356Z" fill="#8F9AD2"/>
<path d="M87.4815 50.5907L86.1764 51.3362L84.9062 50.2424L86.2114 49.497L87.4815 50.5907Z" fill="#EAEEFF"/>
<path d="M85.9003 51.4936L85.8384 51.7412L84.5332 52.4867L84.5951 52.239L85.9003 51.4936Z" fill="#C2C8E3"/>
<path d="M84.5951 52.2388L84.5332 52.4864L83.2637 51.3927L83.325 51.145L84.5951 52.2388Z" fill="#8F9AD2"/>
<path d="M85.9014 51.4931L84.5963 52.2385L83.3262 51.1448L84.6313 50.3993L85.9014 51.4931Z" fill="#EAEEFF"/>
<path d="M84.3186 52.3974L84.2567 52.6444L73.4609 58.8118L73.5228 58.5641L84.3186 52.3974Z" fill="#C2C8E3"/>
<path d="M73.5215 58.5638L73.4596 58.8114L72.1895 57.7177L72.2514 57.47L73.5215 58.5638Z" fill="#8F9AD2"/>
<path d="M84.3178 52.397L73.5221 58.5638L72.252 57.47L83.0483 51.3033L84.3178 52.397Z" fill="#EAEEFF"/>
<path d="M73.244 58.722L73.1821 58.9696L71.877 59.715L71.9389 59.4674L73.244 58.722Z" fill="#C2C8E3"/>
<path d="M71.9388 59.4678L71.8769 59.7154L70.6074 58.6217L70.6687 58.374L71.9388 59.4678Z" fill="#8F9AD2"/>
<path d="M73.2452 58.7221L71.94 59.4675L70.6699 58.3738L71.9751 57.6283L73.2452 58.7221Z" fill="#EAEEFF"/>
<path d="M67.0508 57.9191L66.9889 58.1661L64.1016 59.8152L64.1635 59.5676L67.0508 57.9191Z" fill="#C2C8E3"/>
<path d="M64.1635 59.5681L64.1015 59.8157L62.832 58.7219L62.894 58.4743L64.1635 59.5681Z" fill="#8F9AD2"/>
<path d="M67.0514 57.9193L64.164 59.5677L62.8945 58.474L65.7812 56.8249L67.0514 57.9193Z" fill="#EAEEFF"/>
<path d="M69.3573 58.7738L69.2954 59.0208L67.9902 59.7669L68.0521 59.5193L69.3573 58.7738Z" fill="#C2C8E3"/>
<path d="M68.0541 59.5175L67.9922 59.7651L66.7227 58.6708L66.7839 58.4237L68.0541 59.5175Z" fill="#8F9AD2"/>
<path d="M69.3585 58.7735L68.0533 59.5189L66.7832 58.4251L68.089 57.6797L69.3585 58.7735Z" fill="#EAEEFF"/>
<path d="M71.6633 59.6258L71.602 59.8728L70.2969 60.6189L70.3582 60.3712L71.6633 59.6258Z" fill="#C2C8E3"/>
<path d="M70.3568 60.3716L70.2955 60.6193L69.0254 59.5255L69.0873 59.2779L70.3568 60.3716Z" fill="#8F9AD2"/>
<path d="M71.6625 59.626L70.3574 60.3715L69.0879 59.2777L70.393 58.5323L71.6625 59.626Z" fill="#EAEEFF"/>
<path d="M67.7786 59.6762L67.7173 59.9238L65.6211 61.1208L65.683 60.8737L67.7786 59.6762Z" fill="#C2C8E3"/>
<path d="M65.681 60.874L65.6191 61.1211L64.3496 60.0279L64.4115 59.7803L65.681 60.874Z" fill="#8F9AD2"/>
<path d="M67.7792 59.6757L65.6836 60.8733L64.4141 59.7795L66.5097 58.5819L67.7792 59.6757Z" fill="#EAEEFF"/>
<path d="M70.0795 60.5287L70.0176 60.7758L67.1309 62.4249L67.1928 62.1778L70.0795 60.5287Z" fill="#C2C8E3"/>
<path d="M67.1934 62.1784L67.1315 62.4255L65.8613 61.3317L65.9232 61.0847L67.1934 62.1784Z" fill="#8F9AD2"/>
<path d="M70.0807 60.529L67.194 62.1781L65.9238 61.0843L68.8105 59.4352L70.0807 60.529Z" fill="#EAEEFF"/>
<path d="M56.2909 47.9757L64.4557 43.231L63.0412 40.4012L54.877 45.1459L56.2909 47.9757Z" fill="#133643"/>
<path d="M59.6917 49.9403L67.8565 45.1956L64.4539 43.2313L56.2891 47.976L59.6917 49.9403Z" fill="#335464"/>
<path d="M59.6914 50.884L67.8562 46.1387L67.8594 45.1957L59.6945 49.9404L59.6914 50.884Z" fill="#231B26"/>
<path d="M54.877 45.1462L63.0412 40.4015L63.0762 28.1543L54.9114 32.899L54.877 45.1462Z" fill="#000B17"/>
<path d="M54.9122 32.899L63.077 28.1543L62.2547 27.6797L54.0898 32.4244L54.9122 32.899Z" fill="#39313E"/>
<path d="M54.0903 32.425L54.0547 45.0081L55.8989 48.6947L59.6918 50.8847L59.6949 49.941L56.2923 47.9767L54.8783 45.1469L54.9127 32.8997L54.0903 32.425Z" fill="#000B17"/>
<path d="M74.9587 0.856947L76.2232 1.59175C75.9581 1.43791 75.5916 1.4598 75.1864 1.69369L73.9219 0.958879C74.3271 0.724991 74.6942 0.703106 74.9587 0.856947Z" fill="#CED3E8"/>
<mask id="mask1_94_2844" style="mask-type:luminance" maskUnits="userSpaceOnUse" x="73" y="0" width="4" height="2">
<path d="M74.9607 0.856947L76.2252 1.59175C75.96 1.43791 75.5936 1.4598 75.1883 1.69369L73.9238 0.958879C74.3291 0.724991 74.6962 0.703106 74.9607 0.856947Z" fill="white"/>
</mask>
<g mask="url(#mask1_94_2844)">
<path d="M75.1883 1.69415L73.9238 0.959336C74.3291 0.724822 74.6962 0.702938 74.9607 0.857404L76.2252 1.59221C75.96 1.43836 75.5936 1.46026 75.1883 1.69415Z" fill="#000B17"/>
</g>
<path d="M39.3708 51.0972L38.1063 50.3624C37.8449 50.2104 37.6829 49.8871 37.6816 49.4275L38.9461 50.1623C38.9468 50.6219 39.1087 50.9453 39.3708 51.0972Z" fill="#CED3E8"/>
<mask id="mask2_94_2844" style="mask-type:luminance" maskUnits="userSpaceOnUse" x="37" y="49" width="3" height="3">
<path d="M39.3708 51.0972L38.1063 50.3624C37.8449 50.2105 37.6829 49.8872 37.6816 49.4275L38.9461 50.1623C38.9468 50.622 39.1087 50.9453 39.3708 51.0972Z" fill="white"/>
</mask>
<g mask="url(#mask2_94_2844)">
<path d="M39.3708 51.0972L38.1063 50.3624C37.8449 50.2105 37.6829 49.8872 37.6816 49.4275L38.9461 50.1623C38.9468 50.622 39.1087 50.9453 39.3708 51.0972Z" fill="#000B17"/>
</g>
<path d="M38.9431 50.1629L37.6786 49.4281L37.6055 23.6016L38.87 24.337L38.9431 50.1629Z" fill="#000B17"/>
<path d="M40.3231 21.8219L39.0586 21.0865L73.9198 0.960205L75.1843 1.6944L40.3231 21.8219Z" fill="#000B17"/>
<path d="M38.87 24.3355L37.6055 23.6001C37.603 22.6746 38.2527 21.5495 39.0576 21.0849L40.3221 21.8197C39.5166 22.2849 38.8668 23.41 38.87 24.3355Z" fill="#CED3E8"/>
<mask id="mask3_94_2844" style="mask-type:luminance" maskUnits="userSpaceOnUse" x="37" y="21" width="4" height="4">
<path d="M38.87 24.3348L37.6055 23.5994C37.603 22.6738 38.2527 21.5488 39.0576 21.0841L40.3221 21.8189C39.5166 22.2842 38.8668 23.4093 38.87 24.3348Z" fill="white"/>
</mask>
<g mask="url(#mask3_94_2844)">
<path d="M38.87 24.3348L37.6055 23.5994C37.603 22.6738 38.2527 21.5488 39.0576 21.0841L40.3221 21.8189C39.5166 22.2842 38.8668 23.4093 38.87 24.3348Z" fill="#000B17"/>
</g>
<path d="M75.1864 1.69334C75.9919 1.22869 76.6454 1.60079 76.6485 2.52633L76.7217 28.3522C76.7242 29.2778 76.0744 30.4028 75.2696 30.8674L40.4083 50.9943C39.6029 51.4596 38.9494 51.0869 38.9462 50.1613L38.8731 24.3355C38.8706 23.4099 39.5203 22.2849 40.3252 21.8202L75.1864 1.69334Z" fill="#335464"/>
<path d="M39.7188 48.3943L39.7238 50.1604C39.7244 50.3067 39.75 50.3836 39.7657 50.4168C39.8013 50.4143 39.8845 50.3986 40.0177 50.3217L74.8783 30.1948C75.4467 29.8671 75.9433 29.0072 75.9414 28.3556L75.9389 27.4813L39.7188 48.3943Z" fill="#335464"/>
<path d="M75.9413 27.4814L39.7211 48.3931L39.7193 47.8171L39.6523 24.3339C39.6505 23.6816 40.147 22.8224 40.7155 22.494L75.3172 2.51786L75.5773 2.3684C75.7099 2.29085 75.7937 2.2746 75.8293 2.27209C75.845 2.30649 75.8694 2.38278 75.8712 2.52849L75.9413 27.4814Z" fill="#EAEEFF"/>
<path d="M40.8085 22.656L40.8086 22.6559L75.1293 2.84094L75.1994 27.1139L39.9052 47.4917L39.8398 24.3322L39.6694 24.3327L39.8398 24.3322C39.839 24.0492 39.9482 23.704 40.1321 23.3854C40.316 23.0669 40.5611 22.7986 40.8085 22.656Z" fill="#EAEEFF" stroke="#A9B1D4" stroke-width="0.375"/>
<path opacity="0.3" d="M39.7186 47.8167L39.6523 24.3335C39.6505 23.6818 40.1464 22.8219 40.7149 22.4942L74.9451 2.73132L39.7186 47.8167Z" fill="white"/>
<path d="M83.5771 45.9853C83.5627 45.9797 83.5464 45.9772 83.5314 45.971C83.4839 45.9528 83.4438 45.9328 83.3907 45.9159C82.3426 45.5788 79.7454 44.8934 79.4984 45.9603C79.5559 46.0091 79.6135 46.0585 79.6704 46.1073C78.576 46.7408 79.4077 46.9421 78.8574 47.4518C78.5722 47.7157 78.5528 48.3492 78.9093 48.2367C78.671 48.625 78.8574 48.9896 79.7279 48.7839C80.1863 48.6763 80.9224 48.6538 82.023 49.3092C81.9786 49.3811 82.4464 49.7407 81.7178 49.7369C81.2338 49.7344 81.2363 49.3242 80.4783 49.5387C80.1919 49.6193 80.14 49.8657 80.3364 50.0208C83.215 52.3016 84.7584 50.1103 84.6533 50.1709C84.582 50.2122 84.7934 50.0909 84.8559 50.0484C85.0873 50.0302 85.3581 50.0365 85.5338 49.8945C85.774 49.7013 85.9441 49.3504 86.0516 49.0696C86.874 46.9146 84.9572 46.5475 83.5771 45.9853Z" fill="#FAC39A"/>
<path d="M86.2998 46.598C87.5505 46.5661 92.8743 46.8976 97.6208 48.0351C100.607 48.7512 102.332 50.2621 101.746 52.1969C101.515 52.9599 100.671 54.0424 99.8071 54.2081C98.7328 54.4139 90.3178 51.4578 85.111 50.6423C84.5625 50.556 86.2998 46.598 86.2998 46.598Z" fill="#F84F57"/>
<path d="M76.5318 83.4845C76.3223 83.5464 76.1122 83.6708 75.8971 83.876C75.2067 84.5364 75.0003 85.6539 75.2992 86.5544C75.5737 87.3843 76.3248 87.9434 77.0521 88.4149C77.6287 88.7889 78.2516 89.0703 78.9082 89.2741C79.7274 89.528 81.1871 89.822 82.2771 90.5749C82.7242 90.8839 84.2701 91.5374 84.9236 90.9764C86.2438 89.8439 86.2776 87.9571 85.499 86.9153C84.8949 86.1054 84.7185 86.3875 80.7712 85.071C79.7812 84.7415 78.8232 84.2731 77.9089 83.7696C77.4236 83.5014 76.9783 83.3519 76.5318 83.4845Z" fill="#1B151E"/>
<path d="M85.1152 84.2788C87.5141 77.4885 89.5253 68.9497 87.6004 67.2631C86.895 66.6452 85.9657 66.3638 85.0364 66.28C82.7563 66.0743 81.777 67.3075 80.9921 69.48C80.6188 70.5138 79.3055 77.5341 78.4531 82.1L85.1152 84.2788Z" fill="#424F70"/>
<path d="M64.0265 92.9668C63.8376 93.0787 63.6638 93.2514 63.5043 93.5028C62.9896 94.312 63.0553 95.447 63.5593 96.2481C64.0227 96.9867 64.8845 97.3456 65.7025 97.6264C66.3516 97.8484 67.022 97.9685 67.708 98.0067C68.5635 98.0536 70.05 97.9816 71.2864 98.4469C71.7942 98.6376 73.4495 98.8947 73.9504 98.1905C74.9629 96.7691 74.547 94.9292 73.5446 94.1081C72.766 93.4709 72.6622 93.7873 68.5185 93.4727C67.4797 93.3939 66.4385 93.1732 65.431 92.9074C64.8957 92.7661 64.4279 92.7292 64.0265 92.9668Z" fill="#1B151E"/>
<path d="M73.1776 74.4465C72.7204 75.6022 70.8287 84.3824 69.9007 88.6299C69.4329 90.7705 67.3448 94.6697 70.3909 96.6002C71.0188 96.998 71.7949 97.1324 72.5347 96.9973C73.4671 96.8279 73.726 96.2325 74.1701 95.3983C77.3694 89.3872 82.3649 74.8142 79.8428 72.4528C79.1586 71.8112 78.2381 71.4985 77.3125 71.3828C75.0424 71.0989 74.0275 72.299 73.1776 74.4465Z" fill="#273549"/>
<path d="M99.7315 87.4745L99.729 88.3919C98.1881 87.4895 95.6885 87.4901 94.1582 88.3919L94.1607 87.4751C95.6922 86.5727 98.1906 86.5721 99.7315 87.4745Z" fill="#7480BA"/>
<mask id="mask4_94_2844" style="mask-type:luminance" maskUnits="userSpaceOnUse" x="94" y="86" width="6" height="3">
<path d="M99.7315 87.4744L99.729 88.3918C98.1881 87.4894 95.6885 87.49 94.1582 88.3918L94.1607 87.475C95.6922 86.5726 98.1906 86.572 99.7315 87.4744Z" fill="white"/>
</mask>
<g mask="url(#mask4_94_2844)">
<path d="M94.4615 87.315C94.3577 87.3644 94.2576 87.4176 94.1607 87.4745L94.1582 88.3913C94.2551 88.3337 94.3565 88.2806 94.4615 88.2306V87.315Z" fill="#7480BA"/>
</g>
<path d="M94.1593 87.4739L94.1568 88.3913L80.0078 96.583L80.0103 95.6662L94.1593 87.4739Z" fill="#7480BA"/>
<path d="M78.8672 98.2088L78.8697 97.2913C78.8716 96.7029 79.2518 96.115 80.0129 95.6666L80.0104 96.584C79.2499 97.0318 78.8691 97.6197 78.8672 98.2088Z" fill="#7480BA"/>
<mask id="mask5_94_2844" style="mask-type:luminance" maskUnits="userSpaceOnUse" x="78" y="95" width="3" height="4">
<path d="M78.8652 98.2095L78.8677 97.2921C78.8696 96.7037 79.2498 96.1158 80.0109 95.6674L80.0084 96.5848C79.248 97.0326 78.8671 97.6204 78.8652 98.2095Z" fill="white"/>
</mask>
<g mask="url(#mask5_94_2844)">
<path d="M80.0109 95.6674L80.0084 96.5848C79.248 97.0326 78.8671 97.6204 78.8652 98.2095L78.8677 97.2921C78.8696 96.703 79.2505 96.1152 80.0109 95.6674Z" fill="#7480BA"/>
</g>
<path d="M78.6176 99.7746C77.4713 99.1036 76.8991 98.2206 76.9016 97.3382L76.8984 98.255C76.8966 99.1374 77.4688 100.02 78.6151 100.691L84.244 103.973L84.2472 102.872L78.6176 99.7746Z" fill="#7480BA"/>
<path d="M80.0122 95.666L94.1612 87.4743C94.2581 87.4168 94.3582 87.3642 94.462 87.3148V86.0134C93.8679 86.1773 93.3119 86.4024 92.8235 86.6907L78.592 94.9368C76.3288 96.2707 76.3406 98.4408 78.6189 99.7753C78.6189 99.7753 84.1453 102.821 84.2484 102.873L85.5117 102.139C85.4404 102.103 85.371 102.065 85.3053 102.027L80.0309 98.9386C78.4894 98.0355 78.4813 96.5678 80.0122 95.666Z" fill="#C6D0FF"/>
<path d="M84.2461 102.874L85.4968 102.137L94.0719 107.157L92.8205 107.894L84.2461 102.874Z" fill="#C6D0FF"/>
<path d="M95.7514 107.326L94.5 108.064C94.0567 108.325 93.4551 108.268 92.8203 107.895L94.0717 107.158C94.7064 107.53 95.308 107.587 95.7514 107.326Z" fill="#7480BA"/>
<mask id="mask6_94_2844" style="mask-type:luminance" maskUnits="userSpaceOnUse" x="92" y="107" width="4" height="2">
<path d="M95.7495 107.326L94.4981 108.064C94.0547 108.325 93.4531 108.268 92.8184 107.895L94.0697 107.158C94.7045 107.53 95.3061 107.587 95.7495 107.326Z" fill="white"/>
</mask>
<g mask="url(#mask6_94_2844)">
<path d="M94.2886 107.275C94.216 107.24 94.1429 107.202 94.0697 107.158L92.8184 107.896C92.8915 107.939 92.9647 107.978 93.0372 108.012C93.59 108.276 94.106 108.295 94.4981 108.063L95.7495 107.326C95.3573 107.557 94.8414 107.539 94.2886 107.275Z" fill="#C6D0FF"/>
</g>
<path d="M96.4193 108.494L95.168 109.232C95.2343 109.192 95.2987 109.148 95.36 109.098C95.991 108.589 96.2542 107.594 96.0854 106.37L97.3368 105.633C97.5062 106.856 97.2423 107.851 96.612 108.361C96.55 108.41 96.4856 108.455 96.4193 108.494Z" fill="#B4BCDF"/>
<mask id="mask7_94_2844" style="mask-type:luminance" maskUnits="userSpaceOnUse" x="95" y="105" width="3" height="5">
<path d="M96.4193 108.495L95.168 109.232C95.2343 109.193 95.2987 109.149 95.36 109.099C95.991 108.59 96.2542 107.595 96.0854 106.371L97.3368 105.634C97.5062 106.857 97.2423 107.852 96.612 108.362C96.55 108.411 96.4856 108.456 96.4193 108.495Z" fill="white"/>
</mask>
<g mask="url(#mask7_94_2844)">
<path d="M97.3711 105.954C97.363 105.849 97.3517 105.742 97.3361 105.634L96.0848 106.371C96.0998 106.48 96.111 106.587 96.1198 106.692C96.2042 107.768 95.9347 108.635 95.3599 109.099C95.2987 109.149 95.2343 109.193 95.168 109.232L96.4193 108.495C96.4856 108.456 96.55 108.411 96.6113 108.362C97.1867 107.898 97.4556 107.031 97.3711 105.954Z" fill="#C6D0FF"/>
</g>
<path d="M77.2969 84.3768L78.5482 83.6389L93.175 92.2021L91.9236 92.94L77.2969 84.3768Z" fill="#7480BA"/>
<path d="M95.168 98.0071L96.4193 97.2698L97.3367 105.633L96.0854 106.37L95.168 98.0071Z" fill="#C6D0FF"/>
<path d="M91.9219 92.9402L93.1732 92.2029C94.7717 93.1384 96.1362 95.2703 96.4183 97.2702L95.1669 98.0075C94.8849 96.007 93.5209 93.8764 91.9219 92.9402Z" fill="#C6D0FF"/>
<mask id="mask8_94_2844" style="mask-type:luminance" maskUnits="userSpaceOnUse" x="91" y="92" width="6" height="7">
<path d="M91.9219 92.9411L93.1732 92.2038C94.7717 93.1393 96.1362 95.2712 96.4183 97.2711L95.1669 98.0084C94.8849 96.0079 93.5209 93.8772 91.9219 92.9411Z" fill="white"/>
</mask>
<g mask="url(#mask8_94_2844)">
<path d="M91.9219 92.9411L93.1732 92.2038C93.6892 92.5058 94.1807 92.9329 94.6191 93.4395L93.3677 94.1762C92.93 93.6696 92.4378 93.2425 91.9219 92.9411Z" fill="#C6D0FF"/>
<path d="M93.3691 94.1766L94.6205 93.4399C95.1346 94.0328 95.5754 94.7357 95.8981 95.4762L94.6468 96.2128C94.3241 95.4724 93.8826 94.7695 93.3691 94.1766Z" fill="#C6D0FF"/>
<path d="M94.6465 96.212L95.8979 95.4753C96.1536 96.0613 96.3344 96.6723 96.4194 97.2708L95.168 98.0081C95.083 97.4096 94.9016 96.7986 94.6465 96.212Z" fill="#C6D0FF"/>
</g>
<path d="M91.9229 92.9397C93.5219 93.8759 94.8859 96.0065 95.1673 98.007L96.0847 106.369C96.2542 107.594 95.9909 108.588 95.3593 109.098C94.727 109.609 93.8002 109.572 92.8165 108.997L84.2414 103.976L84.2446 102.875L92.8196 107.895C93.5226 108.307 94.1842 108.333 94.6357 107.969C95.0885 107.603 95.2761 106.89 95.1523 106.011L94.2349 97.6487C94.0304 96.2235 93.0585 94.7076 91.9191 94.041L77.293 85.4772L77.2955 84.3771L91.9229 92.9397Z" fill="#7480BA"/>
<path d="M95.5508 89.7638L96.8021 89.0265L110.694 97.1695L109.443 97.9068L95.5508 89.7638Z" fill="#C6D0FF"/>
<path d="M112.371 97.3378L111.119 98.0745C110.676 98.3365 110.074 98.2784 109.439 97.9069L110.691 97.1696C111.326 97.5417 111.927 97.5986 112.371 97.3378Z" fill="#7480BA"/>
<mask id="mask9_94_2844" style="mask-type:luminance" maskUnits="userSpaceOnUse" x="109" y="97" width="4" height="2">
<path d="M112.369 97.3388L111.117 98.0754C110.674 98.3375 110.072 98.2793 109.438 97.9078L110.689 97.1705C111.324 97.5426 111.925 97.5995 112.369 97.3388Z" fill="white"/>
</mask>
<g mask="url(#mask9_94_2844)">
<path d="M110.908 97.2869C110.836 97.2525 110.763 97.2137 110.689 97.1705L109.438 97.9078C109.511 97.951 109.584 97.9898 109.656 98.0242C110.209 98.2881 110.725 98.3062 111.117 98.0754L112.369 97.3388C111.976 97.5695 111.461 97.5514 110.908 97.2869Z" fill="#C6D0FF"/>
</g>
<path d="M113.04 98.5047L111.789 99.2421C111.855 99.2027 111.92 99.1583 111.98 99.1089C112.612 98.5992 112.875 97.6049 112.706 96.3804L113.957 95.6431C114.126 96.8675 113.863 97.8619 113.232 98.3716C113.172 98.421 113.107 98.4654 113.04 98.5047Z" fill="#B4BCDF"/>
<mask id="mask10_94_2844" style="mask-type:luminance" maskUnits="userSpaceOnUse" x="111" y="95" width="4" height="5">
<path d="M113.04 98.504L111.789 99.2413C111.855 99.2019 111.92 99.1575 111.98 99.1081C112.612 98.5984 112.875 97.6041 112.706 96.3796L113.957 95.6423C114.126 96.8668 113.863 97.8611 113.232 98.3708C113.172 98.4202 113.107 98.4646 113.04 98.504Z" fill="white"/>
</mask>
<g mask="url(#mask10_94_2844)">
<path d="M113.992 95.9631C113.984 95.8587 113.972 95.7511 113.957 95.6423L112.706 96.3796C112.72 96.4884 112.732 96.596 112.741 96.7004C112.825 97.7773 112.556 98.6441 111.98 99.1081C111.92 99.1575 111.855 99.2025 111.789 99.2413L113.04 98.504C113.107 98.4646 113.171 98.4202 113.232 98.3708C113.807 97.9068 114.077 97.04 113.992 95.9631Z" fill="#C6D0FF"/>
</g>
<path d="M93.918 74.3873L95.1687 73.65L109.795 82.2132L108.544 82.9505L93.918 74.3873Z" fill="#7480BA"/>
<path d="M111.789 88.0184L113.04 87.2804L113.958 95.6429L112.707 96.3802L111.789 88.0184Z" fill="#C6D0FF"/>
<path d="M108.547 82.9507L109.798 82.2134C111.397 83.1496 112.761 85.2808 113.043 87.2808L111.792 88.0187C111.51 86.0175 110.146 83.8869 108.547 82.9507Z" fill="#C6D0FF"/>
<mask id="mask11_94_2844" style="mask-type:luminance" maskUnits="userSpaceOnUse" x="108" y="82" width="6" height="7">
<path d="M108.549 82.9499L109.8 82.2126C111.399 83.1488 112.763 85.2801 113.045 87.28L111.794 88.0179C111.512 86.0168 110.148 83.8861 108.549 82.9499Z" fill="white"/>
</mask>
<g mask="url(#mask11_94_2844)">
<path d="M108.549 82.9499L109.8 82.2126C110.316 82.5147 110.808 82.9418 111.247 83.4484L109.995 84.1857C109.557 83.6791 109.065 83.2526 108.549 82.9499Z" fill="#C6D0FF"/>
<path d="M109.996 84.1854L111.247 83.4481C111.761 84.041 112.202 84.7439 112.524 85.4843L111.273 86.2216C110.951 85.4812 110.51 84.7789 109.996 84.1854Z" fill="#C6D0FF"/>
<path d="M111.273 86.2217L112.525 85.4843C112.78 86.0709 112.962 86.6813 113.046 87.2798L111.795 88.0177C111.71 87.4186 111.529 86.8083 111.273 86.2217Z" fill="#C6D0FF"/>
</g>
<path d="M108.545 82.9503C110.144 83.8865 111.508 86.0178 111.79 88.0183L112.708 96.3808C112.877 97.6052 112.613 98.5996 111.982 99.1093C111.351 99.6202 110.423 99.5839 109.44 99.008L95.5476 90.865L95.5507 89.7644L109.443 97.9073C110.146 98.3188 110.808 98.3451 111.259 97.9805C111.712 97.6153 111.899 96.9017 111.775 96.0218L110.858 87.66C110.653 86.2354 109.682 84.7189 108.542 84.0522L93.916 75.4891L93.9191 74.389L108.545 82.9503Z" fill="#7480BA"/>
<path d="M77.293 82.3477L77.2992 84.3751L94.0829 94.2691L94.076 92.2429L77.293 82.3477Z" fill="#EDB408"/>
<path d="M77.293 82.3468L94.076 92.242L111.658 81.9284L94.8752 72.0344L77.293 82.3468Z" fill="#FFCA28"/>
<path d="M96.8377 70.4489C95.7708 69.9448 94.7183 69.4108 93.6583 68.8917C91.6115 67.8892 89.5246 66.9568 87.3052 66.4253C86.1101 66.1388 84.8362 66.0044 83.6687 66.3896C80.974 67.2758 80.9314 70.3344 82.1184 72.522C83.2315 74.5726 88.3095 76.1204 95.293 81.4741C95.9059 81.9438 96.5081 82.4272 97.1366 82.875C97.3061 82.9963 97.5244 83.1858 97.7426 83.3321C98.2679 79.2628 98.66 75.1929 99.0177 71.0674C98.2673 71.0536 97.5713 70.796 96.8377 70.4489Z" fill="#424F70"/>
<path d="M103.826 73.3982C102.858 72.2594 101.297 71.7591 99.8166 71.8373C98.3363 71.9142 96.9249 72.5064 95.6379 73.2537C94.9243 73.6683 94.2314 74.1355 93.4578 74.4194C93.1289 74.5401 92.8131 74.5989 92.5016 74.6195C92.4854 78.7607 92.4297 82.8506 92.2402 86.9493C92.3741 87.0237 92.5073 87.0875 92.6267 87.1063C92.895 87.1482 93.2858 86.913 93.5329 86.8055C94.8174 86.2495 95.9943 85.4384 97.3401 85.0275C97.5527 84.9631 97.7685 84.9081 97.9874 84.8668C98.3076 84.8074 98.6409 84.7774 98.9548 84.8624C99.1337 84.9106 99.3006 84.9944 99.4657 85.0788C100.496 85.601 101.423 86.0175 102.521 85.6698C108.759 83.6942 106.241 76.2417 103.826 73.3982Z" fill="#1A1E23"/>
<path d="M102.909 78.9053C102.909 81.5775 101.352 83.4605 100.654 85.6042C101.255 85.8081 101.856 85.88 102.521 85.6693C102.539 85.6636 102.554 85.6568 102.571 85.6511C103.114 83.4949 102.909 81.2004 102.909 78.9053Z" fill="#322A36"/>
<path d="M100.318 86.8278C99.9313 87.2024 99.5047 87.537 99.0376 87.804C97.5217 88.6708 95.7338 88.7665 94.059 88.3944C93.1535 88.193 92.278 87.8653 91.4406 87.4657C90.3468 86.9441 89.3437 86.2506 88.3219 85.5958C80.9219 80.8524 75.7338 79.7393 74.4556 77.79C73.0929 75.7106 72.884 72.6594 75.4962 71.5482C76.6281 71.066 77.9089 71.0916 79.1227 71.2761C81.379 71.6182 83.5347 72.3705 85.6572 73.1973C86.7553 73.6256 87.8491 74.0678 88.9535 74.4799C90.0292 74.8808 91.0122 75.1215 92.1329 74.7113C92.9065 74.428 93.5988 73.9602 94.3129 73.5462C95.2203 73.0203 96.1828 72.5706 97.2028 72.3224C97.7087 72.1992 98.0176 72.2742 98.5054 72.4349C98.9994 72.5975 99.4622 72.8514 99.8787 73.1654C103.036 75.5455 103.98 83.277 100.318 86.8278Z" fill="#273549"/>
<path d="M104.386 71.5085C104.256 72.5335 104.158 73.5791 104.121 74.611C104.17 73.5735 104.257 72.5385 104.386 71.5085Z" fill="#E5A07D"/>
<path d="M105.509 72.5136C105.304 71.705 105.087 70.8989 104.967 70.074C104.753 68.6107 105.489 63.5227 105.714 62.6965C107.355 56.6674 109.501 54.3916 108.347 49.2011C108.026 47.764 106.182 45.816 101.137 47.5157C97.4552 48.7558 93.8762 50.3074 90.4473 52.1491C89.2016 52.8182 88.5656 53.5518 88.306 54.9901C87.9683 56.8606 88.7088 77.5997 88.8601 78.3283C89.9464 83.522 103.139 85.3155 106.432 79.2938C107.283 77.7392 106.379 76.4666 105.763 73.5817C105.687 73.224 105.599 72.8688 105.509 72.5136Z" fill="#F84F57"/>
<path d="M103.45 49.456C103.568 53.1082 95.2899 53.4271 95.3856 49.9932C95.5182 45.2066 95.8065 44.6582 98.0478 43.9171C98.6613 43.7145 99.3035 43.5588 99.9526 43.5469C102.318 43.5056 102.365 43.894 102.559 44.7195C103.148 47.2203 103.407 48.1415 103.45 49.456Z" fill="#FAC39A"/>
<path d="M103.165 47.3167C103.023 46.6513 102.825 45.8464 102.56 44.7201C102.366 43.8946 102.319 43.5063 99.9535 43.5476C99.3043 43.5594 98.6621 43.7152 98.0486 43.9178C95.9336 44.6169 95.5571 45.1491 95.4102 49.2309C96.5502 49.7325 97.6896 50.3228 98.8291 50.3228C100.717 50.0033 102.203 48.8707 103.165 47.3167Z" fill="#FAC39A"/>
<path d="M92.0335 36.1245C91.6546 36.6549 91.3694 37.2439 91.3112 37.9168C91.1824 39.4159 91.8653 40.9055 91.6371 42.3995C91.4151 43.8479 92.2162 47.0522 95.0441 47.7101C96.4737 48.0428 99.2165 47.3781 100.083 46.889C101.245 46.233 101.964 45.0073 102.602 43.8241C107.835 34.1215 95.6732 31.024 92.0335 36.1245Z" fill="#FAC39A"/>
<path d="M103.681 33.5553C103.382 33.2795 103.021 33.0487 102.588 32.8761C102.457 32.8242 102.317 32.7767 102.221 32.6729C102.149 32.5953 102.107 32.4947 102.058 32.4009C101.834 31.9831 101.421 31.7036 100.998 31.4978C99.3976 30.7217 97.5178 30.7974 95.7805 31.162C95.1939 31.2852 94.6079 31.4415 94.0726 31.7148C93.4623 32.0269 92.9338 32.4834 92.4604 32.9837C91.5818 33.913 90.5537 35.3332 90.69 36.6984C90.72 36.9973 90.9057 37.2312 91.069 37.4851C91.1872 37.6708 91.3535 37.8184 91.4998 37.9823C91.9826 38.5264 92.2359 39.345 92.5461 39.9972C92.6805 40.2786 92.8288 40.5769 93.0964 40.7345C93.6167 41.0403 94.2877 40.667 94.8718 40.8089C95.2133 40.8915 95.4934 41.1473 95.6848 41.4443C95.8755 41.7426 95.9894 42.0834 96.1007 42.4211C96.2764 42.9502 96.3214 43.4061 96.4209 43.937C96.5209 44.4761 96.7079 45.0464 97.1088 45.4336C98.0068 46.3022 99.624 46.1496 100.705 45.8344C101.097 45.7206 101.49 45.6018 101.845 45.3998C102.666 44.9339 103.194 44.0884 103.685 43.276C104.134 42.5337 104.589 41.7751 104.798 40.9303C104.917 40.4537 104.954 39.9609 104.991 39.4707C105.141 37.4864 105.191 34.9474 103.681 33.5553Z" fill="#133643"/>
<path d="M95.5145 40.322C96.6302 40.2457 96.9135 41.6496 96.148 42.7347C95.9248 43.0511 95.5283 43.3325 95.2362 43.5845C93.2369 45.3106 92.7348 43.4426 93.3701 42.8554C94.8454 41.4902 94.1106 40.4177 95.5145 40.322Z" fill="#FAC39A"/>
<path d="M95.1774 42.4556C95.3056 42.3368 96.5776 41.5757 95.7115 41.0567C95.472 40.9135 95.2049 41.1261 95.1674 41.3837C95.1487 41.5176 95.1899 41.6545 95.1705 41.7877C95.1586 41.8671 95.1261 41.9409 95.0849 42.0091C94.9717 42.1955 94.5864 42.3749 94.6621 42.6476C94.7284 42.889 95.1043 42.5238 95.1774 42.4556Z" fill="#F99D6E"/>
<path d="M92.8184 58.7218L92.8471 91.5155L94.0847 92.2453L94.0566 59.4516L92.8184 58.7218Z" fill="#EDB408"/>
<path d="M94.0547 59.4508L111.694 49.1241L111.721 81.9179L111.662 81.9522L111.668 83.9584L94.0866 94.2708L94.0797 92.244L94.0547 59.4508Z" fill="#FFCA28"/>
<path d="M92.8164 58.7213L94.0546 59.4511L111.694 49.1244L110.455 48.3946L92.8164 58.7213Z" fill="#F1D235"/>
<path d="M72.1784 54.1981C72.0309 54.1118 71.9083 54.0474 71.9108 54.0612C71.9902 54.609 72.0696 55.1568 72.1491 55.7046C72.176 55.8897 72.1416 56.1524 71.9552 56.1574C71.8589 56.1599 71.782 56.0824 71.7201 56.0086C71.2973 55.512 70.9452 54.9561 70.6769 54.3613C70.5337 54.0437 70.3668 53.6728 70.0272 53.5946C69.6476 53.5071 69.313 53.8417 69.0672 54.1443C68.6826 54.6159 68.318 55.1524 68.465 55.7878C68.6157 56.4376 69.0422 56.9685 69.1392 57.6627C68.44 57.315 68.1755 56.7978 67.8709 56.1193C67.8184 56.0017 67.7321 55.8585 67.6058 55.8829C67.5313 55.8979 67.4813 55.9729 67.4713 56.0486C67.4613 56.1243 67.4825 56.1993 67.5038 56.2725C67.7189 57.0198 68.0248 57.5451 68.4863 58.1742C69.0303 58.9159 69.5663 59.5951 70.348 60.1147C70.6726 60.3305 72.2172 61.1841 72.9839 61.862C74.3697 63.0865 73.0521 60.1479 73.6381 59.5807C73.775 59.4481 74.6899 59.6695 74.7231 59.4594C74.76 59.228 73.8301 57.8778 73.7394 57.6652C73.4304 56.9385 73.2628 56.1393 73.0121 55.3907C72.9145 55.1005 72.8645 54.7822 72.6725 54.5296C72.63 54.4764 72.3804 54.3163 72.1784 54.1981Z" fill="#FAC39A"/>
<path d="M71.6178 61.2901C71.5734 60.9443 74.0386 57.7893 74.9297 58.9074C76.1861 60.4834 81.7419 62.2207 82.6637 61.746C84.5154 60.7917 85.0007 59.4265 85.768 57.5785C85.9925 57.037 88.8167 49.9747 92.8791 52.3773C93.0467 52.4761 93.2274 52.5487 93.3738 52.6788C96.8033 55.7362 92.7853 60.1719 90.9717 62.8642C90.1825 64.0355 87.237 66.8559 84.8387 67.6901C82.5167 68.4981 79.3023 67.9065 76.1673 65.587C75.0329 64.7478 71.7747 62.5283 71.6178 61.2901Z" fill="#F84F57"/>
</svg>
