<?xml version="1.0" encoding="UTF-8"?>
<!DOCTYPE svg PUBLIC "-//W3C//DTD SVG 1.1//EN" "http://www.w3.org/Graphics/SVG/1.1/DTD/svg11.dtd">
<svg xmlns="http://www.w3.org/2000/svg" version="1.1" width="327px" height="418px" style="shape-rendering:geometricPrecision; text-rendering:geometricPrecision; image-rendering:optimizeQuality; fill-rule:evenodd; clip-rule:evenodd" xmlns:xlink="http://www.w3.org/1999/xlink">
<g><path style="opacity:1" fill="#fefefd" d="M -0.5,-0.5 C 108.5,-0.5 217.5,-0.5 326.5,-0.5C 326.5,138.833 326.5,278.167 326.5,417.5C 319.167,417.5 311.833,417.5 304.5,417.5C 304.5,417.167 304.5,416.833 304.5,416.5C 304.5,408.833 304.5,401.167 304.5,393.5C 259.167,393.5 213.833,393.5 168.5,393.5C 167.508,401.316 167.174,409.316 167.5,417.5C 164.167,417.5 160.833,417.5 157.5,417.5C 157.826,409.316 157.492,401.316 156.5,393.5C 111.167,393.5 65.8333,393.5 20.5,393.5C 20.5,401.167 20.5,408.833 20.5,416.5C 20.5,416.833 20.5,417.167 20.5,417.5C 13.5,417.5 6.5,417.5 -0.5,417.5C -0.5,369.5 -0.5,321.5 -0.5,273.5C 3.08617,291.013 10.2528,307.013 21,321.5C 31.053,340.713 36.2196,361.047 36.5,382.5C 76.6632,383.499 116.997,383.832 157.5,383.5C 157.829,369.323 157.496,355.323 156.5,341.5C 155.883,333.599 153.049,326.599 148,320.5C 124.283,294.239 100.45,268.072 76.5,242C 65.5997,235.799 56.7664,237.966 50,248.5C 48.5951,252.072 48.2617,255.739 49,259.5C 50.5843,263.675 52.9177,267.341 56,270.5C 72.3728,288.537 88.3728,306.871 104,325.5C 105.357,331.981 102.857,334.481 96.5,333C 76.9164,311.421 58.0831,289.254 40,266.5C 37.8173,261.005 37.1506,255.339 38,249.5C 41.0468,243.141 44.0468,236.807 47,230.5C 57.2082,190.664 67.8749,150.997 79,111.5C 79.5357,96.7075 72.369,90.2075 57.5,92C 52.6667,94.1667 49.1667,97.6667 47,102.5C 30.2048,152.396 14.3715,202.396 -0.5,252.5C -0.5,168.167 -0.5,83.8333 -0.5,-0.5 Z"/></g>
<g><path style="opacity:1" fill="#99ac3c" d="M 118.5,0.5 C 127.359,-0.126076 136.025,0.707258 144.5,3C 151.668,7.08273 158.668,11.4161 165.5,16C 174.567,19.8491 183.901,20.5158 193.5,18C 200.324,15.0873 206.99,11.9207 213.5,8.5C 215.739,8.57429 216.739,9.74096 216.5,12C 214.646,19.2115 211.813,26.0449 208,32.5C 202.205,41.9255 196.038,51.0922 189.5,60C 184.442,61.1161 179.275,61.6161 174,61.5C 161.831,61.0579 149.664,60.5579 137.5,60C 136.584,59.6258 135.75,59.1258 135,58.5C 127.255,42.6771 119.255,27.0105 111,11.5C 110.289,9.10094 110.456,6.76761 111.5,4.5C 113.765,2.87257 116.099,1.53924 118.5,0.5 Z"/></g>
<g><path style="opacity:1" fill="#99ab3b" d="M 127.5,74.5 C 148.503,74.3334 169.503,74.5 190.5,75C 199.065,76.8661 205.898,81.3661 211,88.5C 224.745,107.652 237.745,127.319 250,147.5C 256.068,159.303 260.735,171.636 264,184.5C 264.635,223.037 245.802,244.87 207.5,250C 179.542,255.221 151.542,255.554 123.5,251C 106.462,246.979 90.7956,239.979 76.5,230C 65.677,219.924 61.0104,207.424 62.5,192.5C 64.2239,165.395 74.3906,142.062 93,122.5C 101.584,109 109.918,95.3334 118,81.5C 121.068,78.9174 124.235,76.5841 127.5,74.5 Z"/></g>
<g><path style="opacity:1" fill="#728a39" d="M 156.5,341.5 C 156.5,355.167 156.5,368.833 156.5,382.5C 116.5,382.5 76.5,382.5 36.5,382.5C 36.2196,361.047 31.053,340.713 21,321.5C 10.2528,307.013 3.08617,291.013 -0.5,273.5C -0.5,266.5 -0.5,259.5 -0.5,252.5C 14.3715,202.396 30.2048,152.396 47,102.5C 49.1667,97.6667 52.6667,94.1667 57.5,92C 72.369,90.2075 79.5357,96.7075 79,111.5C 67.8749,150.997 57.2082,190.664 47,230.5C 44.0468,236.807 41.0468,243.141 38,249.5C 37.1506,255.339 37.8173,261.005 40,266.5C 58.0831,289.254 76.9164,311.421 96.5,333C 102.857,334.481 105.357,331.981 104,325.5C 88.3728,306.871 72.3728,288.537 56,270.5C 52.9177,267.341 50.5843,263.675 49,259.5C 48.2617,255.739 48.5951,252.072 50,248.5C 56.7664,237.966 65.5997,235.799 76.5,242C 100.45,268.072 124.283,294.239 148,320.5C 153.049,326.599 155.883,333.599 156.5,341.5 Z"/></g>
<g><path style="opacity:1" fill="#728a3a" d="M 257.5,91.5 C 267.158,90.0767 273.991,93.7433 278,102.5C 292.465,147.562 307.132,192.562 322,237.5C 329.252,267.574 323.586,294.908 305,319.5C 294.286,339.14 288.786,360.14 288.5,382.5C 248.167,382.5 207.833,382.5 167.5,382.5C 167.333,368.163 167.5,353.829 168,339.5C 169.163,334.172 171.163,329.172 174,324.5C 198.803,295.397 224.637,267.23 251.5,240C 267.701,236.542 275.868,243.042 276,259.5C 274.118,264.044 271.451,268.044 268,271.5C 253,288.5 238,305.5 223,322.5C 220.003,325.939 219.837,329.439 222.5,333C 224.5,333.667 226.5,333.667 228.5,333C 245.118,314.26 261.618,295.427 278,276.5C 285.735,268.287 288.402,258.62 286,247.5C 284.444,242.72 282.111,238.387 279,234.5C 268.577,193.661 257.577,152.994 246,112.5C 243.746,101.97 247.579,94.9696 257.5,91.5 Z"/></g>
<g><path style="opacity:1" fill="#614382" d="M 158.5,113.5 C 161.833,113.5 165.167,113.5 168.5,113.5C 167.964,116.698 168.631,119.365 170.5,121.5C 181.779,125.046 188.112,132.713 189.5,144.5C 185.139,145.021 180.806,145.688 176.5,146.5C 175.052,144.333 173.885,142 173,139.5C 172,138.833 171,138.167 170,137.5C 169.5,145.159 169.334,152.826 169.5,160.5C 181.946,163.793 188.279,171.96 188.5,185C 187.06,197.081 180.727,205.248 169.5,209.5C 168.532,211.607 168.198,213.941 168.5,216.5C 165.167,216.5 161.833,216.5 158.5,216.5C 158.663,214.143 158.497,211.81 158,209.5C 145.659,205.665 139.159,197.332 138.5,184.5C 143.193,184.46 147.859,184.127 152.5,183.5C 152.485,187.471 154.152,190.471 157.5,192.5C 158.665,185.189 158.831,177.856 158,170.5C 139.828,161.986 135.161,148.652 144,130.5C 147.76,126.372 152.26,123.372 157.5,121.5C 158.48,118.914 158.813,116.247 158.5,113.5 Z"/></g>
<g><path style="opacity:1" fill="#bb6744" d="M 158.5,113.5 C 161.962,112.518 165.629,112.185 169.5,112.5C 169.264,115.609 169.597,118.609 170.5,121.5C 168.631,119.365 167.964,116.698 168.5,113.5C 165.167,113.5 161.833,113.5 158.5,113.5 Z"/></g>
<g><path style="opacity:1" fill="#9ea33c" d="M 156.5,136.5 C 157.822,139.768 158.489,143.435 158.5,147.5C 158.333,151.167 158.167,154.833 158,158.5C 149.962,151.662 149.462,144.329 156.5,136.5 Z"/></g>
<g><path style="opacity:1" fill="#c15a46" d="M 171.5,173.5 C 169.541,179.75 168.874,186.416 169.5,193.5C 168.349,186.917 168.183,179.583 169,171.5C 169.995,172.066 170.828,172.733 171.5,173.5 Z"/></g>
<g><path style="opacity:1" fill="#9fa23c" d="M 171.5,173.5 C 176.579,177.821 177.746,183.154 175,189.5C 173.549,191.464 171.716,192.797 169.5,193.5C 168.874,186.416 169.541,179.75 171.5,173.5 Z"/></g>
<g><path style="opacity:1" fill="#be6045" d="M 169.5,209.5 C 169.5,212.167 169.5,214.833 169.5,217.5C 165.629,217.815 161.962,217.482 158.5,216.5C 161.962,217.482 165.629,217.815 169.5,217.5C 169.5,214.833 169.5,212.167 169.5,209.5 Z"/></g>
<g><path style="opacity:1" fill="#d4dbc2" d="M 156.5,341.5 C 157.496,355.323 157.829,369.323 157.5,383.5C 116.997,383.832 76.6632,383.499 36.5,382.5C 76.5,382.5 116.5,382.5 156.5,382.5C 156.5,368.833 156.5,355.167 156.5,341.5 Z"/></g>
<g><path style="opacity:1" fill="#91a465" d="M 156.5,393.5 C 156.5,393.833 156.5,394.167 156.5,394.5C 111.5,394.5 66.5,394.5 21.5,394.5C 21.5,401.833 21.5,409.167 21.5,416.5C 21.1667,416.5 20.8333,416.5 20.5,416.5C 20.5,408.833 20.5,401.167 20.5,393.5C 65.8333,393.5 111.167,393.5 156.5,393.5 Z"/></g>
<g><path style="opacity:1" fill="#93a568" d="M 168.5,394.5 C 168.5,394.167 168.5,393.833 168.5,393.5C 213.833,393.5 259.167,393.5 304.5,393.5C 304.5,401.167 304.5,408.833 304.5,416.5C 304.167,416.5 303.833,416.5 303.5,416.5C 303.5,409.167 303.5,401.833 303.5,394.5C 258.5,394.5 213.5,394.5 168.5,394.5 Z"/></g>
<g><path style="opacity:1" fill="#5f4383" d="M 156.5,394.5 C 156.5,401.833 156.5,409.167 156.5,416.5C 111.5,416.5 66.5,416.5 21.5,416.5C 21.5,409.167 21.5,401.833 21.5,394.5C 66.5,394.5 111.5,394.5 156.5,394.5 Z"/></g>
<g><path style="opacity:1" fill="#5f4383" d="M 168.5,394.5 C 213.5,394.5 258.5,394.5 303.5,394.5C 303.5,401.833 303.5,409.167 303.5,416.5C 258.5,416.5 213.5,416.5 168.5,416.5C 168.5,409.167 168.5,401.833 168.5,394.5 Z"/></g>
<g><path style="opacity:1" fill="#b0bd91" d="M 156.5,393.5 C 157.492,401.316 157.826,409.316 157.5,417.5C 111.833,417.5 66.1667,417.5 20.5,417.5C 20.5,417.167 20.5,416.833 20.5,416.5C 20.8333,416.5 21.1667,416.5 21.5,416.5C 66.5,416.5 111.5,416.5 156.5,416.5C 156.5,409.167 156.5,401.833 156.5,394.5C 156.5,394.167 156.5,393.833 156.5,393.5 Z"/></g>
<g><path style="opacity:1" fill="#afbc8f" d="M 168.5,393.5 C 168.5,393.833 168.5,394.167 168.5,394.5C 168.5,401.833 168.5,409.167 168.5,416.5C 213.5,416.5 258.5,416.5 303.5,416.5C 303.833,416.5 304.167,416.5 304.5,416.5C 304.5,416.833 304.5,417.167 304.5,417.5C 258.833,417.5 213.167,417.5 167.5,417.5C 167.174,409.316 167.508,401.316 168.5,393.5 Z"/></g>
</svg>
