<svg width="17" height="14" viewBox="0 0 17 14" fill="none" xmlns="http://www.w3.org/2000/svg">
<path d="M13.7545 10.9317C13.8487 11.2339 13.8647 11.5515 13.8015 11.8601C13.7382 12.1687 13.5974 12.4602 13.3896 12.7123C13.2371 12.9023 13.0374 13.0578 12.8066 13.1663C12.5757 13.2749 12.3199 13.3335 12.0595 13.3376H5.40895C5.14855 13.3335 4.89278 13.2749 4.66191 13.1663C4.43104 13.0578 4.23141 12.9023 4.07884 12.7123C3.87112 12.4602 3.73025 12.1687 3.667 11.8601C3.60375 11.5515 3.6198 11.2339 3.71394 10.9317C4.44373 8.56818 6.46245 6.97838 8.73424 6.97838C11.006 6.97838 13.0247 8.56818 13.7545 10.9317ZM2.57216 10.6508C2.81374 9.8352 3.21212 9.06397 3.74925 8.37211C2.9611 8.55839 2.24501 8.93623 1.6793 9.4643C1.11359 9.99237 0.720032 10.6503 0.541671 11.3662C0.469061 11.6121 0.459409 11.8696 0.513444 12.1193C0.567479 12.369 0.68379 12.6044 0.853601 12.8077C0.982092 12.9688 1.15067 13.1007 1.34586 13.1927C1.54105 13.2847 1.75743 13.3343 1.97772 13.3376H3.15482C2.83776 12.9589 2.62143 12.5198 2.52246 12.054C2.42348 11.5882 2.44451 11.1082 2.58393 10.6508H2.57216ZM16.8915 11.3662C16.7131 10.6503 16.3196 9.99237 15.7539 9.4643C15.1881 8.93623 14.4721 8.55839 13.6839 8.37211C14.221 9.06397 14.6194 9.8352 14.861 10.6508C15.007 11.105 15.0357 11.5832 14.9449 12.0489C14.8542 12.5146 14.6463 12.9554 14.3372 13.3376H15.5143C15.7346 13.3343 15.951 13.2847 16.1462 13.1927C16.3413 13.1007 16.5099 12.9688 16.6384 12.8077C16.8003 12.6009 16.9081 12.3638 16.954 12.1142C16.9998 11.8647 16.9825 11.609 16.9033 11.3662H16.8915ZM13.4426 7.50831C13.7918 7.50831 14.1332 7.41507 14.4235 7.24038C14.7139 7.06569 14.9402 6.8174 15.0738 6.5269C15.2075 6.2364 15.2424 5.91674 15.1743 5.60835C15.1062 5.29995 14.938 5.01668 14.6911 4.79434C14.4442 4.572 14.1296 4.42059 13.7871 4.35924C13.4446 4.2979 13.0896 4.32938 12.7669 4.44971C12.4443 4.57004 12.1685 4.77381 11.9745 5.03525C11.7805 5.2967 11.677 5.60407 11.677 5.9185C11.677 6.34015 11.863 6.74452 12.1941 7.04267C12.5252 7.34081 12.9743 7.50831 13.4426 7.50831ZM4.02587 7.50831C4.37508 7.50831 4.71645 7.41507 5.0068 7.24038C5.29716 7.06569 5.52347 6.8174 5.6571 6.5269C5.79074 6.2364 5.82571 5.91674 5.75758 5.60835C5.68945 5.29995 5.52129 5.01668 5.27436 4.79434C5.02743 4.572 4.71283 4.42059 4.37033 4.35924C4.02783 4.2979 3.67281 4.32938 3.35019 4.44971C3.02756 4.57004 2.7518 4.77381 2.55779 5.03525C2.36378 5.2967 2.26023 5.60407 2.26023 5.9185C2.26023 6.34015 2.44625 6.74452 2.77737 7.04267C3.10849 7.34081 3.55759 7.50831 4.02587 7.50831ZM8.73424 5.9185C9.31626 5.9185 9.8852 5.7631 10.3691 5.47195C10.8531 5.1808 11.2302 4.76698 11.453 4.28281C11.6757 3.79865 11.734 3.26588 11.6204 2.7519C11.5069 2.23791 11.2266 1.76578 10.8151 1.39522C10.4035 1.02465 9.87917 0.772293 9.30834 0.670055C8.7375 0.567816 8.14582 0.620289 7.6081 0.820837C7.07039 1.02138 6.6108 1.361 6.28745 1.79674C5.96409 2.23248 5.79151 2.74477 5.79151 3.26882C5.79151 3.97156 6.10154 4.64552 6.65341 5.14243C7.20528 5.63934 7.95378 5.9185 8.73424 5.9185Z" fill="#FB8308"/>
</svg>
