<svg width="27" height="17" viewBox="0 0 27 17" fill="none" xmlns="http://www.w3.org/2000/svg">
<path d="M10.6635 1.92711C10.6094 2.01138 10.5675 2.10132 10.5352 2.20785C10.5806 2.13057 10.6199 2.06333 10.6592 1.99653C10.6626 1.99828 10.6657 2.00002 10.6688 2.00133C10.6648 2.01967 10.6609 2.03757 10.6565 2.05591C10.6557 2.0594 10.6548 2.0629 10.6544 2.06639C10.543 2.5567 10.5146 3.0623 10.5635 3.56265L10.6661 4.61794C10.6762 4.72142 10.6827 4.82577 10.6897 4.92968C10.7242 5.44314 10.9416 5.92821 11.3486 6.40368C11.3604 6.41722 11.3708 6.43643 11.3761 6.45258C11.5193 6.90316 11.7293 7.26686 12.0188 7.56463C12.4541 8.01172 12.9706 8.24836 13.5137 8.2488H13.5146C14.0551 8.2488 14.5699 8.01434 15.003 7.56987C15.2802 7.28564 15.4859 6.93809 15.6317 6.50716C15.6479 6.45957 15.6784 6.4063 15.7151 6.36177C16.1369 5.85006 16.3434 5.32875 16.3425 4.77512C16.3425 4.7367 16.3425 4.69828 16.343 4.65986L16.3508 2.74314C16.3412 2.67939 16.332 2.61521 16.3229 2.54972C16.3329 2.57591 16.343 2.6008 16.3526 2.62525C16.37 2.66935 16.3866 2.7117 16.4019 2.75449C16.4255 2.81998 16.4456 2.88591 16.467 2.95184C16.4687 2.93917 16.4665 2.92782 16.4643 2.91691C16.4211 2.70952 16.3705 2.50475 16.2792 2.3122C16.2722 2.29692 16.2648 2.28208 16.2587 2.26679L16.2583 2.26636C16.2456 2.23841 16.2342 2.21003 16.2238 2.18122C16.1936 2.09913 16.1635 2.01705 16.1334 1.93453C16.1107 1.8721 16.088 1.80923 16.0653 1.74679C16.0609 1.73544 16.0565 1.72452 16.0526 1.71317C16.057 1.71055 16.0618 1.70837 16.0661 1.70575C16.1434 1.82756 16.2207 1.94938 16.2975 2.07119C16.2858 2.03015 16.2709 1.98955 16.2548 1.94981C16.1849 1.77997 16.0945 1.62367 15.9583 1.49705C15.9295 1.47042 15.9037 1.44116 15.8823 1.40885C15.7448 1.20408 15.5798 1.03075 15.354 0.925088C15.3475 0.921595 15.3409 0.918539 15.3339 0.915919C15.23 0.869639 15.1252 0.826414 15.0209 0.781443C14.9947 0.770528 14.9685 0.759176 14.9427 0.747824C14.9956 0.75219 15.048 0.757866 15.0999 0.765725C15.3955 0.809823 15.6741 0.908934 15.9448 1.03686C15.9343 1.02595 15.9225 1.01809 15.9107 1.00979C15.5859 0.790175 15.2226 0.680149 14.8371 0.634742C14.8222 0.632996 14.8074 0.631249 14.7925 0.629939C14.6633 0.617278 14.5328 0.613348 14.4088 0.563574C14.3603 0.544363 14.3083 0.533885 14.2577 0.52035C14.1992 0.505068 14.1403 0.49066 14.0817 0.476252C14.0673 0.472759 14.0538 0.469266 14.0394 0.465773C14.0403 0.458351 14.0398 0.460971 14.0407 0.453548H14.7078C14.703 0.44045 14.6969 0.436521 14.6904 0.435648C14.4 0.393733 14.1093 0.362733 13.8159 0.38893C13.7154 0.398099 13.6159 0.402465 13.5159 0.388493C13.4718 0.382381 13.4268 0.380635 13.3823 0.376705C13.3819 0.369283 13.3819 0.371466 13.3819 0.364043C13.5997 0.323438 13.8172 0.282833 14.0477 0.240046C13.8167 0.245722 13.5989 0.261003 13.3836 0.298988C13.2635 0.320382 13.1461 0.358804 13.0251 0.374522C12.8527 0.396789 12.678 0.405958 12.5034 0.420803C12.8483 0.256637 13.2177 0.185033 13.5941 0.143555C13.5233 0.145301 13.4526 0.142245 13.3823 0.146175C13.1216 0.15971 12.8632 0.190272 12.6104 0.259257C12.4012 0.316453 12.2026 0.396353 12.0314 0.535195C11.9991 0.561391 11.9598 0.579729 11.924 0.601559C11.9205 0.59632 11.9166 0.590644 11.9131 0.584968C11.9917 0.528209 12.0672 0.466647 12.1493 0.415563C12.2331 0.36317 12.3213 0.317326 12.4104 0.275411C12.4968 0.234806 12.5868 0.202497 12.6754 0.166258C12.5003 0.210793 12.3314 0.272355 12.169 0.352255C11.8467 0.510308 11.604 0.774458 11.3254 0.99058C11.3254 0.99058 11.3245 0.99189 11.3237 0.992326C11.3058 1.02158 11.2861 1.04996 11.27 1.08052C11.2464 1.12549 11.2285 1.17352 11.2019 1.21631C11.1896 1.23552 11.1634 1.24905 11.1412 1.25866C11.0953 1.27743 11.0464 1.28835 11.0015 1.30843C10.7613 1.41584 10.6199 1.60402 10.56 1.85725C10.6177 1.74242 10.6902 1.63938 10.7967 1.54595C10.7679 1.64506 10.7439 1.73326 10.7159 1.8197C10.7033 1.85725 10.6853 1.89349 10.6635 1.92711ZM11.2455 4.6389L11.2481 4.60746C11.2503 4.5804 11.2529 4.54328 11.2573 4.51927C11.3918 4.47473 11.4708 4.34593 11.4752 4.1643C11.4782 4.03507 11.4791 3.90452 11.4804 3.77834C11.4817 3.63775 11.483 3.49411 11.487 3.3509C11.487 3.1112 11.6817 2.91822 11.9196 2.91822C11.924 2.91822 11.9284 2.91822 11.9323 2.91865L12.1497 2.9252C12.3288 2.91036 12.5095 2.91254 12.6894 2.90992C12.8505 2.90774 13.0116 2.90949 13.1727 2.90949H13.6478C13.8207 2.90949 13.9936 2.90992 14.1664 2.90905C14.2944 2.90861 14.4219 2.90643 14.5498 2.90599C14.6603 2.90512 14.7707 2.90556 14.8812 2.90556C14.9886 2.90512 15.0947 2.90337 15.2003 2.93568C15.3226 2.97279 15.4134 3.04483 15.4658 3.15748C15.4994 3.22952 15.5151 3.31029 15.5383 3.38495C15.5396 3.38364 15.5409 3.3819 15.5422 3.38059C15.5457 3.50328 15.5457 3.62858 15.5453 3.75738C15.5448 3.86959 15.5448 3.98529 15.547 4.101C15.5479 4.13156 15.5474 4.16256 15.5474 4.19618V4.2608C15.5474 4.39003 15.64 4.50093 15.7671 4.52363C15.7719 4.54765 15.7758 4.58083 15.7771 4.59437C15.8295 5.08905 15.6736 5.53876 15.2859 6.00942C15.206 6.10679 15.1436 6.21725 15.1056 6.32946C14.9873 6.67962 14.8235 6.95905 14.6052 7.1826C14.2791 7.51704 13.9019 7.69387 13.5142 7.69387H13.5133C13.1234 7.69343 12.744 7.51486 12.4156 7.17736C12.1877 6.94333 12.0205 6.65124 11.9044 6.28492C11.8769 6.19804 11.8288 6.11203 11.7695 6.0426C11.3708 5.57674 11.204 5.13096 11.2455 4.6389Z" fill="#FF9800"/>
<path d="M19.6127 15.3477C19.6311 15.6027 19.6118 15.6367 19.3761 15.7253C18.7609 15.9567 18.1204 16.0855 17.4738 16.1807C16.16 16.3737 14.8362 16.4292 12.9933 16.4449C12.4475 16.4121 11.3865 16.3667 10.3286 16.2781C9.48683 16.2078 8.65334 16.0676 7.84605 15.8026C7.75741 15.7738 7.66966 15.7411 7.58277 15.7079C7.39939 15.6371 7.37538 15.6031 7.38586 15.4044L7.70415 12.2897C7.90804 10.6035 8.88605 9.66867 10.5146 9.33292C10.8844 9.25651 11.3817 8.69984 11.5939 8.24707C11.6839 8.32566 11.7764 8.39814 11.8712 8.4645L11.7066 8.33134C12.2379 8.75965 12.8509 8.98538 13.501 8.98712C14.1511 8.98538 14.7637 8.75965 15.2955 8.33134L15.4081 8.24707C15.6199 8.70027 16.1176 9.25695 16.4875 9.33292C18.1156 9.66867 19.0936 10.6035 19.2979 12.2897L19.6127 15.3477Z" fill="#FF9800"/>
<path d="M2.89623 1.64679C2.84821 1.72145 2.81153 1.80048 2.78271 1.89478C2.82288 1.82667 2.85738 1.76729 2.8923 1.70835C2.89536 1.70966 2.89798 1.71141 2.90104 1.71272C2.89754 1.72887 2.89405 1.74503 2.89056 1.76074C2.88968 1.7638 2.88925 1.76686 2.88837 1.76991C2.79014 2.20259 2.76525 2.64881 2.80804 3.09066L2.89842 4.02239C2.90715 4.11408 2.91282 4.20576 2.91894 4.29745C2.94906 4.75066 3.14117 5.17897 3.5005 5.59855C3.51055 5.61034 3.52015 5.62737 3.52452 5.64178C3.6507 6.03953 3.83626 6.36044 4.09167 6.62328C4.47589 7.01798 4.93215 7.22668 5.41155 7.22711H5.41242C5.88964 7.22711 6.34415 7.02016 6.72618 6.62808C6.97112 6.37703 7.15232 6.07009 7.28112 5.69024C7.29553 5.64789 7.32216 5.60117 7.35447 5.56188C7.7269 5.10999 7.90896 4.6498 7.90853 4.16123C7.90853 4.12761 7.90853 4.09356 7.90896 4.0595L7.91595 2.36763C7.90765 2.31131 7.89936 2.25455 7.89106 2.19692C7.90023 2.22006 7.90853 2.24189 7.91726 2.26372C7.93254 2.30258 7.94739 2.34013 7.96048 2.37768C7.981 2.43531 7.99891 2.49381 8.01768 2.55188C8.01899 2.54097 8.01768 2.53093 8.0155 2.52088C7.97751 2.33794 7.93254 2.15719 7.8522 1.98691C7.84609 1.97337 7.83954 1.96027 7.83387 1.94674C7.82295 1.92185 7.81247 1.89653 7.8033 1.87121C7.77667 1.79873 7.75004 1.72625 7.7234 1.65334C7.70332 1.59832 7.68324 1.54287 7.66315 1.48786C7.65922 1.47782 7.65573 1.46821 7.65224 1.45817C7.65617 1.45599 7.66053 1.45381 7.66446 1.45162C7.73257 1.55903 7.80068 1.66687 7.8688 1.77428C7.85832 1.73804 7.84522 1.70224 7.83081 1.66731C7.76881 1.51755 7.68935 1.37958 7.56928 1.26737C7.54396 1.2438 7.52125 1.21804 7.50248 1.18966C7.3811 1.0089 7.23527 0.855649 7.03618 0.762651C7.0305 0.759595 7.02439 0.756975 7.01871 0.754355C6.92703 0.713751 6.83446 0.675329 6.74234 0.635597C6.7192 0.625992 6.69606 0.61595 6.67335 0.605908C6.72007 0.609837 6.76635 0.615077 6.8122 0.621626C7.07285 0.660484 7.3191 0.747806 7.55793 0.860888C7.54832 0.851283 7.53828 0.844297 7.5278 0.836875C7.24095 0.64302 6.92048 0.546092 6.58036 0.505924C6.56726 0.504614 6.55416 0.502867 6.54106 0.501557C6.42667 0.490642 6.3114 0.486713 6.20225 0.443052C6.15946 0.426024 6.11362 0.416855 6.06865 0.405067C6.01669 0.391532 5.96517 0.37887 5.91322 0.366208C5.90055 0.363152 5.88833 0.360096 5.87567 0.35704C5.8761 0.35049 5.8761 0.352673 5.87698 0.346124H6.46596C6.4616 0.334772 6.45636 0.331279 6.45068 0.330406C6.19439 0.293294 5.93767 0.265788 5.67876 0.289365C5.59012 0.297224 5.50236 0.301153 5.41417 0.289365C5.37531 0.284125 5.33558 0.282379 5.29628 0.279323C5.29585 0.272773 5.29585 0.27452 5.29585 0.267971C5.48796 0.232169 5.68007 0.196366 5.88353 0.158381C5.67963 0.163184 5.48708 0.176719 5.29716 0.210775C5.19106 0.229549 5.08715 0.263605 4.98061 0.277576C4.82824 0.297224 4.67455 0.305519 4.51999 0.318181C4.82474 0.173226 5.15046 0.110354 5.48272 0.0732422C5.42028 0.0749886 5.35785 0.072369 5.29585 0.0754253C5.06575 0.0872138 4.83741 0.114284 4.61473 0.175409C4.43005 0.226056 4.25453 0.29635 4.10346 0.419038C4.07465 0.442178 4.04015 0.458333 4.00828 0.477544C4.00523 0.472741 4.00173 0.467939 3.99868 0.463136C4.0681 0.412926 4.1349 0.358786 4.20738 0.313378C4.28116 0.267098 4.35932 0.226929 4.43791 0.189381C4.51431 0.153579 4.59378 0.124762 4.67193 0.0933265C4.51737 0.132621 4.36805 0.187198 4.22484 0.257492C3.94017 0.397207 3.72623 0.630358 3.48042 0.82072C3.47998 0.821157 3.47955 0.821594 3.47911 0.822467C3.46295 0.848227 3.44593 0.873113 3.43152 0.900183C3.411 0.939915 3.39484 0.982266 3.37127 1.01981C3.36079 1.03684 3.33765 1.04863 3.31756 1.05736C3.27739 1.07395 3.23417 1.08356 3.19444 1.10102C2.98268 1.19621 2.85781 1.36212 2.80455 1.58523C2.85519 1.48393 2.91937 1.39268 3.01368 1.31016C2.98836 1.39748 2.96696 1.4752 2.94251 1.55161C2.93116 1.58523 2.91544 1.6171 2.89623 1.64679ZM3.41012 4.04029L3.41231 4.01235C3.41405 3.98833 3.41667 3.95559 3.4206 3.93463C3.53936 3.89533 3.60922 3.78138 3.61315 3.62158C3.61577 3.50762 3.61664 3.39236 3.61795 3.28102C3.61882 3.15659 3.62013 3.02997 3.62363 2.90379C3.62363 2.69203 3.79565 2.52176 4.00566 2.52176C4.00959 2.52176 4.01308 2.52176 4.01701 2.52176L4.20869 2.52743C4.36674 2.51433 4.5261 2.51608 4.68503 2.5139C4.82736 2.51215 4.9697 2.51346 5.1116 2.51346H5.53074C5.68356 2.51346 5.83594 2.5139 5.98875 2.51346C6.10139 2.51302 6.21404 2.51128 6.32712 2.51084C6.42449 2.5104 6.52229 2.51084 6.61965 2.5104C6.7144 2.5104 6.80827 2.50866 6.90127 2.53704C7.00911 2.56978 7.08945 2.63309 7.13573 2.73264C7.16542 2.79638 7.17939 2.86755 7.19991 2.93348C7.20078 2.93217 7.20209 2.93086 7.2034 2.92955C7.20646 3.03783 7.20646 3.14829 7.20602 3.26225C7.20602 3.36136 7.20558 3.46353 7.20777 3.56526C7.2082 3.59233 7.2082 3.61983 7.20777 3.64909V3.70628C7.20777 3.82024 7.28941 3.91804 7.40162 3.93856C7.40599 3.95952 7.40904 3.98921 7.41035 4.00099C7.45663 4.4376 7.3191 4.83448 6.9768 5.2497C6.90607 5.33571 6.85106 5.43308 6.81744 5.53219C6.71265 5.84131 6.56857 6.08756 6.37602 6.28534C6.0883 6.58049 5.75516 6.7368 5.41286 6.7368H5.41242C5.06837 6.7368 4.73349 6.57874 4.44358 6.28098C4.24274 6.07446 4.09473 5.81686 3.99213 5.49333C3.96811 5.41692 3.92533 5.34052 3.87293 5.27939C3.52059 4.86854 3.37345 4.47472 3.41012 4.04029Z" fill="#FF9800"/>
<path d="M7.05267 12.2246C7.2509 10.5851 8.12936 9.46124 9.60073 8.91941C9.19774 8.56401 8.67818 8.31863 8.03636 8.18634C7.70977 8.1191 7.27098 7.62747 7.08367 7.22754L6.98413 7.30176C6.51477 7.67987 5.97381 7.87896 5.4001 7.88071C4.82639 7.87896 4.28543 7.67987 3.81608 7.30176L3.96147 7.41965C3.87764 7.36114 3.79599 7.29696 3.71653 7.22754C3.52966 7.62747 3.09043 8.11866 2.76384 8.18634C1.32652 8.4828 0.463342 9.30799 0.283021 10.7964L0.0022805 13.5457C-0.00688833 13.7213 0.0145056 13.7514 0.176052 13.8138C0.252895 13.8435 0.330175 13.8719 0.408329 13.8976C1.12044 14.1317 1.85657 14.2552 2.59968 14.3172C3.53315 14.3954 4.47012 14.4351 4.9517 14.4644C5.65115 14.4583 6.26284 14.4452 6.82826 14.4194L7.05267 12.2246Z" fill="#FF9800"/>
<path d="M24.0605 7.97743C24.3579 8.0985 24.655 8.21952 24.9499 8.34547C25.1935 8.44984 25.4314 8.57075 25.6607 8.70396C26.1715 9.00125 26.4645 9.47849 26.6911 10.0033C26.832 10.33 26.9255 12.0083 26.972 12.8422C26.9822 13.0259 26.9902 13.1685 26.9958 13.2468C27.0124 13.4783 26.9949 13.5093 26.7815 13.5892C26.2235 13.7992 25.6428 13.9157 25.056 14.0022C23.864 14.1773 22.6633 14.2275 20.992 14.2419C20.9442 14.239 20.8918 14.236 20.8354 14.2329C20.7483 14.228 20.6516 14.2229 20.5471 14.2174L20.5322 14.2166C20.4144 14.2103 20.287 14.2035 20.1524 14.1961L19.948 12.2117C19.7367 10.4665 18.7408 9.30601 17.083 8.81788C17.2293 8.70698 17.3851 8.60568 17.5624 8.5284C17.9544 8.35717 18.3495 8.19342 18.7447 8.02962L18.7483 8.02813C18.8861 7.97101 19.2381 7.7927 19.5058 7.7927C19.8228 8.4113 20.5908 8.84771 21.488 8.84771C22.3196 8.84771 23.0402 8.47286 23.3936 7.92552C23.4125 7.90789 23.4315 7.88998 23.4505 7.87174C23.4433 7.87092 23.4359 7.86999 23.4285 7.86883C23.4564 7.82126 23.4816 7.7725 23.5039 7.72266C23.738 7.7927 23.8574 7.89464 24.0605 7.97743Z" fill="#FF9800"/>
<path fill-rule="evenodd" clip-rule="evenodd" d="M17.9351 7.67069C17.9494 7.66374 17.9606 7.6582 17.9697 7.65369C17.9863 7.64545 17.9961 7.64059 18.0062 7.63664C18.5607 7.42707 18.8838 7.0315 19.031 6.49621H18.7498C18.6926 6.49708 18.6096 6.4102 18.5804 6.34514C18.273 5.66228 18.2005 4.94406 18.29 4.20706C18.3979 3.31725 18.6782 2.4986 19.2453 1.80832C19.3685 1.62844 19.5204 1.47562 19.6955 1.3442C20.0325 1.05255 20.4198 0.843409 20.8831 0.810226C20.9861 0.803241 21.09 0.798001 21.1939 0.794945C21.1987 0.793636 21.204 0.792327 21.2092 0.791018L21.6982 0.791016C21.7139 0.793635 21.7301 0.796255 21.7462 0.798874C21.9375 0.807607 22.1283 0.824635 22.3165 0.850395C22.6828 0.901041 22.9744 1.1093 23.2355 1.35643C23.3896 1.47824 23.5294 1.62145 23.6529 1.78998C23.6691 1.81225 23.6848 1.83452 23.6996 1.85722C24.2358 2.53222 24.5052 3.32773 24.613 4.19091C24.7038 4.92005 24.6301 5.62954 24.3454 6.31327C24.2895 6.44818 24.2205 6.51586 24.0625 6.50756H23.8926C23.9323 6.6678 23.9922 6.82367 24.079 6.97299C24.2681 7.29826 24.555 7.50435 24.9038 7.63096C24.9199 7.63691 24.9354 7.64341 24.9544 7.65137C24.9591 7.65335 24.9641 7.65542 24.9693 7.6576C24.219 7.94162 23.0651 7.97546 22.4728 7.48601C22.417 7.51653 22.3617 7.54739 22.3066 7.57815C22.1835 7.64684 22.0613 7.71508 21.9362 7.7781C21.6131 7.94096 21.286 7.93834 20.9656 7.77243C20.8272 7.70081 20.6921 7.62293 20.5535 7.54297C20.4918 7.50739 20.4294 7.4714 20.3657 7.43536C19.6955 8.06153 18.6368 7.88903 17.9351 7.67069ZM22.1724 7.25155C22.9644 6.68745 23.4949 5.82732 23.6708 4.87115C23.7114 4.64891 23.7446 4.44851 23.7437 4.38389C23.7446 4.32887 23.7433 4.27386 23.7402 4.21798C23.7271 3.98352 23.6704 3.77874 23.5787 3.59711L23.5189 3.49014C23.3613 3.23298 23.129 3.02515 22.8482 2.84745C22.9056 2.9428 22.9783 3.03086 23.0508 3.11875C23.2301 3.33593 23.4085 3.55204 23.3525 3.87436C23.2877 3.80242 23.2245 3.72877 23.1615 3.6552C23.0183 3.4881 22.8755 3.32143 22.7133 3.17622C22.4978 2.98265 22.252 2.82013 22.0083 2.65905C21.9903 2.64718 21.9724 2.63533 21.9545 2.62347C21.8536 2.55711 21.7558 2.48856 21.6611 2.41739C21.5227 2.46935 21.3786 2.5117 21.2289 2.54576C20.7787 2.64792 20.3203 2.67848 19.8605 2.6584H19.8579C19.7247 2.65316 19.6082 2.74572 19.5737 2.87409C19.5239 3.05921 19.485 3.25656 19.4619 3.46657C19.4619 3.46657 18.9078 6.29624 20.8036 7.29521C21.273 7.54277 21.6502 7.60826 22.0947 7.30569C22.1208 7.28779 22.1466 7.26989 22.1724 7.25155Z" fill="#FF9800"/>
</svg>
