<svg width="11" height="10" viewBox="0 0 11 10" fill="none" xmlns="http://www.w3.org/2000/svg">
<path d="M9.89565 1.2483C9.64027 0.992798 9.33705 0.790119 9.00332 0.651838C8.66959 0.513556 8.31189 0.442383 7.95065 0.442383C7.5894 0.442383 7.2317 0.513556 6.89797 0.651838C6.56424 0.790119 6.26102 0.992798 6.00565 1.2483L5.47565 1.7783L4.94565 1.2483C4.4298 0.73245 3.73016 0.44265 3.00065 0.44265C2.27113 0.44265 1.57149 0.73245 1.05565 1.2483C0.539799 1.76414 0.25 2.46378 0.25 3.1933C0.25 3.92281 0.539799 4.62245 1.05565 5.1383L1.58565 5.6683L5.47565 9.5583L9.36565 5.6683L9.89565 5.1383C10.1511 4.88292 10.3538 4.5797 10.4921 4.24597C10.6304 3.91224 10.7016 3.55454 10.7016 3.1933C10.7016 2.83205 10.6304 2.47435 10.4921 2.14062C10.3538 1.80689 10.1511 1.50367 9.89565 1.2483Z" fill="#FB8308" stroke="#7649B3" stroke-width="0.5" stroke-linecap="round" stroke-linejoin="round"/>
</svg>
