<svg width="19" height="18" viewBox="0 0 19 18" fill="none" xmlns="http://www.w3.org/2000/svg">
<path d="M9.68555 18C14.6561 18 18.6855 13.9706 18.6855 9C18.6855 4.02944 14.6561 0 9.68555 0C4.71498 0 0.685547 4.02944 0.685547 9C0.685547 13.9706 4.71498 18 9.68555 18Z" fill="#FB8308"/>
<path d="M10.1526 7.86555V5.40756C10.578 5.59664 10.8144 5.92752 10.9089 6.40021L12.516 6.16387C12.4215 5.54937 12.1379 5.02941 11.7597 4.65126C11.3816 4.27311 10.8144 4.03676 10.1526 3.9895V3.375H9.25448V3.9895C6.74923 4.22584 6.32381 6.8729 7.45826 8.2437C7.83641 8.71639 8.45091 9.09454 9.25448 9.33088V11.9779C8.82906 11.7416 8.40364 11.2689 8.26183 10.5599L6.60742 10.7489C6.84377 12.4506 7.83641 13.3015 9.25448 13.4905V14.625H10.1526V13.4433C12.9887 13.0179 13.2251 10.0872 12.2324 8.90546C11.8543 8.48004 11.1452 8.10189 10.1526 7.86555ZM9.25448 7.53466C8.97087 7.44013 8.78179 7.25105 8.63998 7.06197C8.21456 6.44748 8.49818 5.59664 9.25448 5.36029V7.53466ZM10.1526 12.0725V9.6145C10.5307 9.70903 10.8144 9.89811 10.9562 10.0872C11.5234 10.7489 11.1452 11.8834 10.1526 12.0725Z" fill="white"/>
</svg>
