<svg width="19" height="19" viewBox="0 0 19 19" fill="none" xmlns="http://www.w3.org/2000/svg">
<path d="M16.2448 7.84244H9.46741C8.9532 7.84295 8.46019 8.04745 8.09659 8.41106C7.73298 8.77466 7.52848 9.26767 7.52797 9.78188V13.4647L5.77174 14.7189C5.7034 14.7676 5.6477 14.832 5.60927 14.9066C5.57084 14.9813 5.55078 15.064 5.55078 15.148C5.55078 15.2319 5.57084 15.3146 5.60927 15.3893C5.6477 15.4639 5.7034 15.5283 5.77174 15.5771L7.54918 16.8467C7.6185 17.306 7.85012 17.7253 8.20204 18.0285C8.55396 18.3317 9.00289 18.4988 9.46741 18.4994H16.2455C16.7597 18.4989 17.2527 18.2944 17.6163 17.9308C17.9799 17.5672 18.1844 17.0742 18.1849 16.5599V9.78123C18.1844 9.26702 17.9799 8.77401 17.6163 8.41041C17.2527 8.0468 16.7597 7.84231 16.2455 7.8418L16.2448 7.84244ZM13.966 15.2524C13.8419 15.2524 13.7455 15.2132 13.7178 15.1059L13.5031 14.3563H12.2097L11.995 15.1078C11.9668 15.2151 11.871 15.2544 11.7463 15.2544C11.5483 15.2544 11.2828 15.1303 11.2828 14.9496C11.285 14.9305 11.2888 14.9116 11.2943 14.8931L12.3872 11.3401C12.4299 11.2552 12.498 11.1857 12.5819 11.1412C12.6658 11.0966 12.7615 11.0792 12.8558 11.0913C13.0705 11.0913 13.2794 11.1704 13.3302 11.3401L14.423 14.8931C14.4291 14.9114 14.4329 14.9304 14.4346 14.9496C14.4295 15.1219 14.164 15.2524 13.966 15.2524Z" fill="#FB8308"/>
<path d="M12.3623 13.7757H13.3426L12.8509 12.04L12.3623 13.7757Z" fill="#FB8308"/>
<path d="M6.47378 9.78192C6.47342 9.10082 6.70642 8.44016 7.13397 7.90998C6.55472 7.91057 5.98926 7.7333 5.51402 7.40214C5.03878 7.7333 4.47332 7.91057 3.89407 7.90998C3.81761 7.90642 3.74546 7.87355 3.69261 7.81818C3.63976 7.76281 3.61027 7.68921 3.61027 7.61267C3.61027 7.53612 3.63976 7.46252 3.69261 7.40716C3.74546 7.35179 3.81761 7.31891 3.89407 7.31536C4.30054 7.31488 4.69921 7.20377 5.04732 6.99394C4.62924 6.54449 4.36826 5.97154 4.30356 5.36113H3.89343C3.85322 5.363 3.81305 5.3567 3.77535 5.3426C3.73765 5.3285 3.7032 5.3069 3.67409 5.27911C3.64497 5.25132 3.6218 5.21791 3.60597 5.18091C3.59013 5.1439 3.58197 5.10407 3.58197 5.06382C3.58197 5.02357 3.59013 4.98374 3.60597 4.94673C3.6218 4.90973 3.64497 4.87632 3.67409 4.84853C3.7032 4.82074 3.73765 4.79914 3.77535 4.78504C3.81305 4.77094 3.85322 4.76464 3.89343 4.76651H5.21639V4.04396C5.21639 3.96511 5.24771 3.88948 5.30347 3.83373C5.35922 3.77797 5.43485 3.74665 5.5137 3.74665C5.59255 3.74665 5.66817 3.77797 5.72393 3.83373C5.77969 3.88948 5.81101 3.96511 5.81101 4.04396V4.76651H7.13397C7.17418 4.76464 7.21434 4.77094 7.25204 4.78504C7.28975 4.79914 7.32419 4.82074 7.35331 4.84853C7.38242 4.87632 7.4056 4.90973 7.42143 4.94673C7.43727 4.98374 7.44543 5.02357 7.44543 5.06382C7.44543 5.10407 7.43727 5.1439 7.42143 5.18091C7.4056 5.21791 7.38242 5.25132 7.35331 5.27911C7.32419 5.3069 7.28975 5.3285 7.25204 5.3426C7.21434 5.3567 7.17418 5.363 7.13397 5.36113H6.72448C6.66033 5.97245 6.3993 6.54638 5.98072 6.99651C6.32877 7.20649 6.72748 7.31762 7.13397 7.31793C7.20908 7.3179 7.28142 7.34633 7.33641 7.3975C7.3914 7.44867 7.42495 7.51878 7.43032 7.5937C7.98319 7.07733 8.7116 6.79033 9.46811 6.7908H10.8425V5.5347L12.5987 4.28052C12.6669 4.23168 12.7225 4.16727 12.7609 4.09264C12.7992 4.01802 12.8192 3.93533 12.8192 3.85143C12.8192 3.76753 12.7992 3.68484 12.7609 3.61021C12.7225 3.53559 12.6669 3.47118 12.5987 3.42234L10.8206 2.15273C10.7513 1.69341 10.5197 1.27413 10.1678 0.970922C9.81586 0.66771 9.36694 0.500639 8.90241 0.5L2.12499 0.5C1.61077 0.500511 1.11776 0.705008 0.754159 1.06861C0.390554 1.43222 0.186057 1.92522 0.185547 2.43944L0.185547 9.21751C0.186057 9.73172 0.390554 10.2247 0.754159 10.5883C1.11776 10.9519 1.61077 11.1564 2.12499 11.1569H6.47378V9.78192Z" fill="#FB8308"/>
<path d="M5.51434 6.6271C5.84797 6.282 6.06222 5.83907 6.12568 5.36328H4.9043C4.96771 5.83882 5.18145 6.28164 5.51434 6.6271Z" fill="white"/>
</svg>
