<svg width="27" height="28" viewBox="0 0 27 28" fill="none" xmlns="http://www.w3.org/2000/svg">
<path fill-rule="evenodd" clip-rule="evenodd" d="M18.563 0.287109C20.4243 0.287109 21.938 1.8008 21.938 3.66211V13.7871C21.938 15.6484 20.4243 17.1621 18.563 17.1621H6.21218L1.38424 21.1851C1.23068 21.315 1.0383 21.3809 0.844238 21.3809C0.722738 21.3809 0.599551 21.3539 0.486488 21.3015C0.189488 21.1615 0.000488281 20.8645 0.000488281 20.5371V3.66211C0.000488281 1.8008 1.51418 0.287109 3.37549 0.287109H18.563ZM5.90674 10.4121H12.6567C13.1225 10.4121 13.5005 10.0341 13.5005 9.56836C13.5005 9.10261 13.1225 8.72461 12.6567 8.72461H5.90674C5.44099 8.72461 5.06299 9.10261 5.06299 9.56836C5.06299 10.0341 5.44099 10.4121 5.90674 10.4121ZM5.90674 7.03711H16.0317C16.4975 7.03711 16.8755 6.65911 16.8755 6.19336C16.8755 5.72761 16.4975 5.34961 16.0317 5.34961H5.90674C5.44099 5.34961 5.06299 5.72761 5.06299 6.19336C5.06299 6.65911 5.44099 7.03711 5.90674 7.03711ZM23.6255 7.03711H24.4692C25.8648 7.03711 27.0005 8.1728 27.0005 9.56836V26.4434C27.0005 26.7674 26.8149 27.0627 26.5229 27.2027C26.4048 27.2584 26.2799 27.2871 26.1567 27.2871C25.9694 27.2871 25.7821 27.2247 25.6286 27.1032L21.641 23.9121H9.28175C7.88619 23.9121 6.7505 22.7764 6.7505 21.3809V18.8496H18.563C21.3541 18.8496 23.6255 16.5782 23.6255 13.7871V7.03711Z" fill="#FF9800"/>
</svg>
