<svg width="10" height="11" viewBox="0 0 10 11" fill="none" xmlns="http://www.w3.org/2000/svg">
<path fill-rule="evenodd" clip-rule="evenodd" d="M7.60449 3.87695C8.43292 3.87695 9.10449 3.20538 9.10449 2.37695C9.10449 1.54853 8.43292 0.876953 7.60449 0.876953C6.77606 0.876953 6.10449 1.54853 6.10449 2.37695C6.10449 2.51954 6.12439 2.65748 6.16155 2.78815C6.1476 2.79416 6.13386 2.80108 6.1204 2.80893L2.7104 4.79893C2.69701 4.80674 2.68429 4.81526 2.67224 4.82441C2.40025 4.54877 2.02232 4.37793 1.60449 4.37793C0.776065 4.37793 0.104492 5.0495 0.104492 5.87793C0.104492 6.70636 0.776065 7.37793 1.60449 7.37793C2.02296 7.37793 2.4014 7.20657 2.67348 6.9302C2.68522 6.93904 2.6976 6.94728 2.71061 6.95486L6.12561 8.94486C6.13751 8.95179 6.14963 8.958 6.16192 8.96349C6.12452 9.09454 6.10449 9.23292 6.10449 9.37598C6.10449 10.2044 6.77606 10.876 7.60449 10.876C8.43292 10.876 9.10449 10.2044 9.10449 9.37598C9.10449 8.54755 8.43292 7.87598 7.60449 7.87598C7.18772 7.87598 6.81064 8.04595 6.53881 8.32036C6.52753 8.31196 6.51566 8.30411 6.50322 8.29686L3.08822 6.30686C3.07511 6.29922 3.06173 6.29247 3.04815 6.28658C3.08485 6.15666 3.10449 6.01959 3.10449 5.87793C3.10449 5.73556 3.08466 5.59782 3.0476 5.46733C3.06144 5.46136 3.07508 5.45449 3.08842 5.4467L6.49842 3.4567C6.512 3.44877 6.5249 3.44012 6.53709 3.43083C6.80906 3.70626 7.18684 3.87695 7.60449 3.87695Z" fill="#7649B3"/>
</svg>
