<svg width="12" height="12" viewBox="0 0 12 12" fill="none" xmlns="http://www.w3.org/2000/svg">
<path d="M3.90332 10.877H2.40332C2.1381 10.877 1.88375 10.7716 1.69621 10.5841C1.50868 10.3965 1.40332 10.1422 1.40332 9.87695V6.37695C1.40332 6.11174 1.50868 5.85738 1.69621 5.66985C1.88375 5.48231 2.1381 5.37695 2.40332 5.37695H3.90332M7.40332 4.37695V2.37695C7.40332 1.97913 7.24529 1.5976 6.96398 1.31629C6.68268 1.03499 6.30115 0.876953 5.90332 0.876953L3.90332 5.37695V10.877H9.54332C9.78448 10.8797 10.0185 10.7952 10.2023 10.639C10.386 10.4828 10.5072 10.2654 10.5433 10.027L11.2333 5.52695C11.2551 5.38363 11.2454 5.23729 11.205 5.09808C11.1646 4.95886 11.0944 4.8301 10.9992 4.72071C10.9041 4.61132 10.7864 4.52392 10.6541 4.46456C10.5219 4.4052 10.3783 4.37531 10.2333 4.37695H7.40332Z" stroke="#7649B3" stroke-width="1.5" stroke-linecap="round" stroke-linejoin="round"/>
</svg>
