<svg width="12" height="12" viewBox="0 0 12 12" fill="none" xmlns="http://www.w3.org/2000/svg">
<path d="M10.6543 5.62794C10.656 6.28788 10.5018 6.93889 10.2043 7.52794C9.85151 8.23382 9.30917 8.82753 8.63802 9.24258C7.96687 9.65764 7.19342 9.87764 6.4043 9.87794C5.74436 9.87966 5.09335 9.72548 4.5043 9.42794L1.6543 10.3779L2.6043 7.52794C2.30676 6.93889 2.15258 6.28788 2.1543 5.62794C2.1546 4.83882 2.3746 4.06537 2.78966 3.39422C3.20471 2.72307 3.79842 2.18073 4.5043 1.82794C5.09335 1.53041 5.74436 1.37622 6.4043 1.37794H6.6543C7.69647 1.43544 8.68082 1.87532 9.41887 2.61337C10.1569 3.35142 10.5968 4.33577 10.6543 5.37794V5.62794Z" stroke="#7649B3" stroke-width="1.5" stroke-linecap="round" stroke-linejoin="round"/>
</svg>
