<svg width="136" height="138" viewBox="0 0 136 138" fill="none" xmlns="http://www.w3.org/2000/svg">
<path d="M135.406 95.3928V98.5947C135.378 108.537 128.842 118.465 115.788 126.052C89.5128 141.321 46.7838 141.321 20.3362 126.052C7.0265 118.367 0.378201 108.28 0.406343 98.2095V95.0076C0.377576 105.079 7.02588 115.165 20.3356 122.85C46.7831 138.119 89.5121 138.119 115.787 122.85C128.842 115.263 135.378 105.335 135.406 95.3928Z" fill="#A9B1D4"/>
<mask id="mask0_94_1638" style="mask-type:luminance" maskUnits="userSpaceOnUse" x="0" y="95" width="136" height="43">
<path d="M135.406 95.3921V98.594C135.378 108.536 128.842 118.464 115.788 126.051C89.5128 141.32 46.7838 141.32 20.3362 126.051C7.0265 118.366 0.378201 108.28 0.406343 98.2087V95.0068C0.377576 105.078 7.02588 115.164 20.3356 122.849C46.7831 138.118 89.5121 138.118 115.787 122.849C128.842 115.263 135.378 105.334 135.406 95.3921Z" fill="white"/>
</mask>
<g mask="url(#mask0_94_1638)">
<path d="M3.44188 106.697V109.899C1.40756 106.097 0.395086 102.151 0.406343 98.2087V95.0068C0.395086 98.9498 1.40756 102.895 3.44188 106.697Z" fill="#A9B1D4"/>
</g>
<path d="M115.201 68.0446C128.322 75.6202 134.79 85.471 134.843 95.2067C134.896 104.941 128.539 114.789 115.505 122.364C102.473 129.937 85.3259 133.74 68.126 133.74C50.9264 133.74 33.7352 129.937 20.6171 122.363C7.49567 114.787 1.02533 104.937 0.969121 95.2008C0.91292 85.4666 7.26765 75.6184 20.3014 68.0438C33.3327 60.471 50.4829 56.6682 67.6857 56.6682C84.8883 56.6682 102.082 60.4709 115.201 68.0446Z" fill="#FAFAFC" stroke="#A9B1D4" stroke-width="1.125"/>
<path d="M68.1063 131.178C52.4296 131.178 36.7353 127.722 24.7613 120.809C12.9462 113.988 6.43175 104.863 6.41799 95.1174C6.40423 85.4385 12.8168 76.3769 24.4749 69.6023C48.2702 55.7735 87.1132 55.7729 111.062 69.6004C122.874 76.4201 129.387 85.5423 129.401 95.2869C129.415 104.968 123.001 114.031 111.339 120.808C99.443 127.722 83.7831 131.178 68.1063 131.178ZM67.7123 61.0391C52.367 61.0391 37.0411 64.4224 25.3967 71.1889C14.3289 77.6208 8.24032 86.1177 8.25345 95.1143C8.26596 104.178 14.4546 112.739 25.6794 119.22C49.1182 132.753 87.1319 132.753 110.416 119.221C121.488 112.787 127.578 104.288 127.565 95.2894C127.552 86.2271 121.366 77.6689 110.144 71.1901C98.4236 64.423 83.0583 61.0391 67.7123 61.0391Z" fill="#A9B1D4"/>
<path d="M82.7218 62.4459V62.4487L81.0839 61.5124C81.0811 61.5124 81.0811 61.5124 81.0811 61.5124L81.0726 61.5095V61.5067C80.9453 61.4275 80.8633 61.2634 80.8633 61.0343V50.1237C80.8633 49.8578 80.9736 49.5607 81.1377 49.309L82.7671 50.2481C82.603 50.4971 82.5012 50.7941 82.5012 51.0572V61.9678C82.5012 62.2054 82.5861 62.3723 82.7218 62.4459Z" fill="#27DEBF"/>
<path d="M82.7218 62.4459V62.4487L81.0839 61.5124C81.0811 61.5124 81.0811 61.5124 81.0811 61.5124L81.0726 61.5095V61.5067C80.9453 61.4275 80.8633 61.2634 80.8633 61.0343V50.1237C80.8633 49.8578 80.9736 49.5607 81.1377 49.309L82.7671 50.2481C82.603 50.4971 82.5012 50.7941 82.5012 51.0572V61.9678C82.5012 62.2054 82.5861 62.3723 82.7218 62.4459Z" fill="#5B31A8"/>
<path d="M83.2428 49.773L106.093 36.5803C106.503 36.3441 106.835 36.5357 106.835 37.0084V47.9439C106.835 48.4166 106.503 48.9908 106.093 49.227L83.2434 62.3959C82.8338 62.6318 82.502 62.44 82.502 61.9673V51.0567C82.5017 50.584 82.8335 50.0092 83.2428 49.773Z" fill="#27DEBF"/>
<path d="M83.2428 49.773L106.093 36.5803C106.503 36.3441 106.835 36.5357 106.835 37.0084V47.9439C106.835 48.4166 106.503 48.9908 106.093 49.227L83.2434 62.3959C82.8338 62.6318 82.502 62.44 82.502 61.9673V51.0567C82.5017 50.584 82.8335 50.0092 83.2428 49.773Z" fill="#EAEEFF"/>
<path d="M104.978 35.5942L106.591 36.5135C106.458 36.4513 106.285 36.4683 106.093 36.5786L83.2414 49.7724C83.0603 49.8771 82.8934 50.0496 82.7661 50.2476L81.1367 49.3085C81.264 49.1104 81.4253 48.9407 81.6035 48.8389L104.455 35.6451C104.574 35.5772 104.684 35.5461 104.786 35.5461C104.856 35.5461 104.922 35.5631 104.978 35.5942Z" fill="#27DEBF"/>
<path d="M104.978 35.5942L106.591 36.5135C106.458 36.4513 106.285 36.4683 106.093 36.5786L83.2414 49.7724C83.0603 49.8771 82.8934 50.0496 82.7661 50.2476L81.1367 49.3085C81.264 49.1104 81.4253 48.9407 81.6035 48.8389L104.455 35.6451C104.574 35.5772 104.684 35.5461 104.786 35.5461C104.856 35.5461 104.922 35.5631 104.978 35.5942Z" fill="#7846D3"/>
<path d="M85.0308 50.7803L104.308 39.6337C104.504 39.5206 104.663 39.6009 104.663 39.8134C104.663 40.0258 104.504 40.2903 104.308 40.4035L85.0311 51.55C84.8348 51.6635 84.6758 51.5828 84.6758 51.3701C84.6755 51.1579 84.8345 50.8937 85.0308 50.7803Z" fill="#7846D3"/>
<path d="M85.0308 58.5688L104.308 47.4222C104.504 47.3088 104.663 47.3894 104.663 47.6022C104.663 47.8149 104.504 48.0788 104.308 48.1923L85.0311 59.3388C84.8348 59.4522 84.6758 59.3716 84.6758 59.1589C84.6755 58.9464 84.8345 58.6822 85.0308 58.5688Z" fill="#7846D3"/>
<path d="M85.0308 54.6746L104.308 43.528C104.504 43.4149 104.663 43.4952 104.663 43.7077C104.663 43.9204 104.504 44.1846 104.308 44.2978L85.0311 55.4443C84.8348 55.5577 84.6758 55.4771 84.6758 55.2644C84.6755 55.0519 84.8345 54.7877 85.0308 54.6746Z" fill="#7846D3"/>
<path d="M85.0308 56.6214L104.308 45.4749C104.504 45.3617 104.663 45.442 104.663 45.6548C104.663 45.8675 104.504 46.1314 104.308 46.2449L85.0311 57.3914C84.8348 57.5048 84.6758 57.4242 84.6758 57.2118C84.6755 56.999 84.8345 56.7348 85.0308 56.6214Z" fill="#7846D3"/>
<path d="M85.0308 52.727L104.308 41.5805C104.504 41.467 104.663 41.5476 104.663 41.7601C104.663 41.9728 104.504 42.237 104.308 42.3502L85.0311 53.4967C84.8348 53.6099 84.6758 53.5295 84.6758 53.3168C84.6755 53.1044 84.8345 52.8402 85.0308 52.727Z" fill="#7846D3"/>
<path d="M82.5964 45.7891V45.7919L81.0433 44.9036C80.916 44.8244 80.834 44.6632 80.834 44.4312V15.4015C80.834 15.1356 80.9443 14.8386 81.1112 14.5868L82.6275 15.4637C82.4719 15.7098 82.3757 15.9956 82.3757 16.2502V45.311C82.3757 45.5486 82.4606 45.7155 82.5964 45.7891Z" fill="#263238"/>
<path d="M106.358 1.67546C106.245 1.65849 106.112 1.6896 105.967 1.77164L83.1159 14.9654C82.9292 15.0758 82.7566 15.254 82.6265 15.4633L81.1074 14.5864C81.2347 14.3912 81.396 14.2214 81.5742 14.1168L104.426 0.925814C104.544 0.855092 104.658 0.823975 104.757 0.823975C104.827 0.823975 104.892 0.840948 104.949 0.872065L106.358 1.67546Z" fill="#37474F"/>
<path d="M83.1181 14.9653L105.969 1.77268C106.378 1.53647 106.71 1.72798 106.71 2.2004V31.2873C106.71 31.76 106.378 32.3342 105.968 32.5704L83.1184 45.7393C82.7088 45.9752 82.377 45.7834 82.377 45.311V16.2493C82.377 15.7764 82.7088 15.2018 83.1181 14.9653Z" fill="#335464"/>
<path d="M84.3838 15.9126L104.893 4.07153C105.261 3.85936 105.558 4.03136 105.558 4.45569V30.5623C105.558 30.9867 105.26 31.5021 104.893 31.714L84.3841 43.5338C84.0166 43.7457 83.7188 43.5734 83.7188 43.1493V17.065C83.7188 16.6404 84.0163 16.1247 84.3838 15.9126Z" fill="white"/>
<mask id="mask1_94_1638" style="mask-type:luminance" maskUnits="userSpaceOnUse" x="83" y="3" width="23" height="41">
<path d="M84.3858 15.9148L104.895 4.07379C105.263 3.86162 105.56 4.03362 105.56 4.45794V30.5646C105.56 30.9889 105.262 31.5044 104.895 31.7162L84.386 43.536C84.0186 43.7479 83.7207 43.5756 83.7207 43.1516V17.0673C83.7207 16.6427 84.0183 16.127 84.3858 15.9148Z" fill="white"/>
</mask>
<g mask="url(#mask1_94_1638)">
<path d="M101.435 26.6242C99.9706 24.3399 97.7127 25.2813 97.7127 25.2813C97.7127 25.2813 97.5936 27.4683 98.7121 30.6066C98.7121 30.6066 103.593 37.7172 104.566 38.3806L105.916 33.9042C105.916 33.9042 102.355 28.0592 101.435 26.6242Z" fill="#FAC39A"/>
<path d="M89.478 28.137C88.325 28.5766 88.4984 29.8428 88.5343 30.9529C88.5564 31.64 88.6692 32.8049 88.7425 34.4038L89.0706 39.5484L88.996 50.7122C92.74 51.9877 97.4998 50.8646 101.494 46.4262C101.494 46.4262 101.271 32.1419 101.271 29.7956C101.271 29.6895 101.269 29.5826 101.264 29.4754C101.124 26.268 99.5318 24.8972 97.7131 25.2819C97.1284 25.4058 95.8675 25.808 95.0342 26.0674L92.7416 26.8083C92.7416 26.8083 90.6248 27.7 89.478 28.137Z" fill="#D17DE6"/>
<path d="M98.1446 17.0231C98.1509 15.99 98.3062 14.6355 99.356 14.1388C99.8866 13.8876 100.645 13.7815 101.15 14.1105C101.665 14.4463 101.978 14.9037 101.888 15.5484C101.82 16.0293 101.544 16.4607 101.2 16.8039C101.146 16.8584 101.087 16.9159 101.069 16.9911C101.056 17.0494 101.069 17.1102 101.082 17.1688C101.219 17.8044 101.21 18.5362 100.778 19.0228C100.484 19.3546 100.013 19.5196 99.5763 19.4435C99.0731 19.3558 98.6561 18.9716 98.4289 18.5145C98.2015 18.0568 98.1415 17.5337 98.1446 17.0231Z" fill="#263238"/>
<path d="M91.2109 20.6484C91.2109 20.6484 91.7926 23.6476 92.0256 24.1036C92.259 24.5596 92.7408 24.5777 92.7408 24.5777L92.7 22.3692L91.2109 20.6484Z" fill="#263238"/>
<path d="M91.941 15.9334C91.9371 15.9184 91.3996 16.0635 91.3614 16.0788C91.115 16.175 90.8861 16.3201 90.7082 16.517C90.4366 16.8177 90.2955 17.2474 90.3914 17.6412C90.4652 17.9444 90.6663 18.2004 90.8836 18.4245C90.7164 18.6021 90.5707 18.8047 90.489 19.0347C90.4072 19.2644 90.3933 19.5241 90.4836 19.7507C90.5379 19.8876 90.6273 20.0072 90.7175 20.1235C90.9232 20.3883 91.1662 20.646 91.5209 20.6064C91.7834 20.5772 92.0451 20.5357 92.3068 20.5003C92.3068 20.5003 91.9436 15.9659 91.941 15.9334Z" fill="#263238"/>
<path d="M92.6343 20.4138C92.4145 20.6243 92.1013 20.2209 91.8303 19.9663C91.5596 19.7117 90.675 19.5012 90.234 20.6927C89.7845 21.9072 90.6235 23.1275 91.3197 23.1932C92.5194 23.3066 92.6996 22.3697 92.6996 22.3697L92.7404 27.2975C94.0499 30.0398 99.4479 28.9951 96.6943 26.151L96.6914 24.6444C96.6914 24.6444 97.7786 24.5436 98.309 24.3069C99.1913 23.9128 99.7466 22.9603 100.014 21.7858C100.444 19.8992 100.406 18.7799 100.263 15.3773C100.165 13.0421 95.9964 12.3187 93.9194 14.3849C91.8425 16.4506 92.6343 20.4138 92.6343 20.4138Z" fill="#FAC39A"/>
<path d="M91.8309 19.9653C91.6895 19.8544 91.7019 19.5342 91.6937 19.3781C91.6742 19.0013 91.6929 18.6219 91.7155 18.2459C91.7514 17.6519 91.9161 17.0287 91.7794 16.4474C91.7285 16.2312 91.6759 16.0075 91.7195 15.7897C91.763 15.5721 91.9328 15.3625 92.1543 15.35C91.8968 14.6728 92.0383 13.8604 92.5093 13.3099C92.9803 12.7597 93.7613 12.4943 94.47 12.644C94.6326 11.9891 95.219 11.4833 95.877 11.3328C96.2558 11.2462 96.6536 11.2683 97.0267 11.3713C97.3322 11.4556 97.7181 11.6878 97.8974 12.1107C98.1333 11.6052 98.9441 11.1526 99.6852 11.2386C100.307 11.3107 100.947 11.6952 101.159 12.2012C101.429 12.8488 101.488 13.6508 101.172 14.2773C100.943 14.7319 100.506 15.0762 100.01 15.1928C99.4878 15.3155 98.8748 15.2123 98.5291 14.9608C98.5758 15.1687 98.3939 15.915 97.6326 16.1577C97.292 16.2666 96.8753 16.3005 96.5288 16.2123C96.1823 16.1243 95.8884 15.8428 95.6083 15.6205C95.578 16.1011 95.2321 16.5348 94.7862 16.7164C94.3404 16.898 93.8157 16.8411 93.3922 16.6117C93.4963 16.9478 93.5548 17.298 93.5664 17.6496C93.5724 17.8329 93.5642 18.023 93.4844 18.1885C93.4046 18.3537 93.2377 18.4887 93.0544 18.4802C93.2592 18.9928 93.3333 19.5571 93.268 20.1051C93.2422 20.3215 93.1865 20.5506 93.0244 20.6963C92.5353 21.1359 92.1342 20.2027 91.8309 19.9653Z" fill="#263238"/>
<path d="M91.9414 16.212L90.6133 15.7447C90.8017 15.2548 91.252 14.9623 91.6187 15.0913C91.9856 15.2203 92.1301 15.7221 91.9414 16.212Z" fill="#263238"/>
<path d="M96.6922 24.6444C96.6922 24.6444 94.7225 24.714 94.0339 24.4758C93.5731 24.3166 93.1935 23.9279 93.082 23.6433C93.082 23.6433 93.211 24.2835 93.6229 24.7811C94.1264 25.3896 96.6922 25.2495 96.6922 25.2495V24.6444Z" fill="#F2B691"/>
<path d="M96.1838 19.2871C96.1838 19.5488 96.007 19.8076 95.7892 19.8653C95.5711 19.923 95.3945 19.7578 95.3945 19.4961C95.3945 19.2347 95.5713 18.9759 95.7892 18.9182C96.007 18.8602 96.1838 19.0257 96.1838 19.2871Z" fill="#263238"/>
<path d="M95.8859 17.9914L94.9236 18.6007C94.8429 18.3362 94.9292 17.975 95.1951 17.8066C95.4608 17.6383 95.8053 17.7269 95.8859 17.9914Z" fill="#263238"/>
<path d="M96.5146 21.9542L97.4156 22.1033C97.3265 22.4255 97.0524 22.6532 96.8035 22.6122C96.5545 22.5709 96.4253 22.2764 96.5146 21.9542Z" fill="#F28F8F"/>
<path d="M99.7603 17.8012L98.9902 17.3226C99.1472 17.0259 99.4471 16.8926 99.6595 17.0247C99.8723 17.1571 99.9173 17.5045 99.7603 17.8012Z" fill="#263238"/>
<path d="M99.5607 18.4909C99.5607 18.7522 99.3839 19.0111 99.1661 19.0688C98.9483 19.1265 98.7715 18.9613 98.7715 18.6999C98.7715 18.4385 98.9483 18.1797 99.1661 18.122C99.3842 18.0643 99.5607 18.2295 99.5607 18.4909Z" fill="#263238"/>
<path d="M97.416 18.6006L97.4618 21.3523L98.8766 20.6131L97.416 18.6006Z" fill="#F2B691"/>
<path d="M88.7627 51.6827C88.8379 52.4092 89.0348 53.1874 89.3916 53.8038C89.7624 54.4448 90.2727 54.926 90.8111 55.4425C90.8637 55.4929 90.9191 55.5489 90.9299 55.6207C90.9519 55.767 90.7845 55.8683 90.6391 55.8949C90.3347 55.9503 90.0173 55.8688 89.7466 55.7192C89.5401 55.6049 89.3652 55.4527 89.1933 55.2932C89.1384 55.2422 88.7859 54.993 88.7859 54.9364C88.8951 55.5268 89.1081 56.111 89.4032 56.6346C89.6668 57.1025 89.9882 57.5396 90.1938 58.0383C90.3259 58.3588 90.3893 58.7727 90.1409 59.0142C90.0433 59.109 89.9121 59.1602 89.7819 59.1987C88.8923 59.4609 87.8682 59.1961 87.217 58.5362C86.9169 58.2321 86.6974 57.8584 86.4993 57.4796C86.3879 57.2663 86.2818 57.0496 86.1924 56.8261C86.0391 56.4437 85.9344 56.0437 85.845 55.6414C85.6269 54.6615 85.546 53.6663 85.3961 52.6779C84.9242 49.563 84.7539 45.492 84.8645 43.2089C85.3726 32.7274 86.0877 29.182 89.4784 28.1367C90.4357 28.8496 90.8654 31.9039 89.8563 34.6233C89.4077 37.006 88.976 41.3741 88.8722 43.806C88.8102 45.2606 88.5751 48.1927 88.6439 49.6468C88.6742 50.2949 88.6872 50.9531 88.7627 51.6827Z" fill="#FAC39A"/>
</g>
<path d="M20.7531 98.2036V98.2064L19.1152 97.2701C19.1124 97.2701 19.1124 97.2701 19.1124 97.2701L19.1039 97.2672V97.2644C18.9766 97.1852 18.8945 97.0211 18.8945 96.792V85.8814C18.8945 85.6154 19.0049 85.3184 19.1689 85.0667L20.7984 86.0058C20.6343 86.2548 20.5324 86.5518 20.5324 86.8149V97.7255C20.5324 97.9631 20.6173 98.13 20.7531 98.2036Z" fill="#27DEBF"/>
<path d="M20.7531 98.2036V98.2064L19.1152 97.2701C19.1124 97.2701 19.1124 97.2701 19.1124 97.2701L19.1039 97.2672V97.2644C18.9766 97.1852 18.8945 97.0211 18.8945 96.792V85.8814C18.8945 85.6154 19.0049 85.3184 19.1689 85.0667L20.7984 86.0058C20.6343 86.2548 20.5324 86.5518 20.5324 86.8149V97.7255C20.5324 97.9631 20.6173 98.13 20.7531 98.2036Z" fill="#5B31A8"/>
<path d="M21.2724 85.529L44.1231 72.3364C44.5324 72.1002 44.8642 72.2917 44.8642 72.7644V83.6999C44.8642 84.1726 44.5321 84.7469 44.1228 84.9831L21.2727 98.152C20.8634 98.3879 20.5312 98.1961 20.5312 97.7234V86.8128C20.5313 86.3401 20.8631 85.7653 21.2724 85.529Z" fill="#27DEBF"/>
<path d="M21.2724 85.529L44.1231 72.3364C44.5324 72.1002 44.8642 72.2917 44.8642 72.7644V83.6999C44.8642 84.1726 44.5321 84.7469 44.1228 84.9831L21.2727 98.152C20.8634 98.3879 20.5312 98.1961 20.5312 97.7234V86.8128C20.5313 86.3401 20.8631 85.7653 21.2724 85.529Z" fill="#EAEEFF"/>
<path d="M43.0096 71.3512L44.622 72.2706C44.4891 72.2083 44.3165 72.2253 44.1241 72.3356L21.2726 85.5294C21.0916 85.6341 20.9247 85.8066 20.7974 86.0047L19.168 85.0655C19.2953 84.8675 19.4565 84.6977 19.6347 84.5959L42.4862 71.4021C42.605 71.3342 42.7154 71.3031 42.8172 71.3031C42.8879 71.3031 42.953 71.3201 43.0096 71.3512Z" fill="#27DEBF"/>
<path d="M43.0096 71.3512L44.622 72.2706C44.4891 72.2083 44.3165 72.2253 44.1241 72.3356L21.2726 85.5294C21.0916 85.6341 20.9247 85.8066 20.7974 86.0047L19.168 85.0655C19.2953 84.8675 19.4565 84.6977 19.6347 84.5959L42.4862 71.4021C42.605 71.3342 42.7154 71.3031 42.8172 71.3031C42.8879 71.3031 42.953 71.3201 43.0096 71.3512Z" fill="#7846D3"/>
<path d="M23.0604 86.537L42.3373 75.3905C42.5337 75.2774 42.6926 75.3577 42.6926 75.5704C42.6926 75.7829 42.5337 76.0471 42.3373 76.1605L23.0604 87.3071C22.8641 87.4205 22.7051 87.3399 22.7051 87.1271C22.7048 86.9147 22.8641 86.6505 23.0604 86.537Z" fill="#7846D3"/>
<path d="M23.0604 94.3265L42.3373 83.1799C42.5337 83.0665 42.6926 83.1471 42.6926 83.3596C42.6926 83.572 42.5337 83.8362 42.3373 83.9497L23.0604 95.0962C22.8641 95.2097 22.7051 95.129 22.7051 94.9166C22.7048 94.7041 22.8641 94.4399 23.0604 94.3265Z" fill="#7846D3"/>
<path d="M23.0604 90.4315L42.3373 79.2849C42.5337 79.1718 42.6926 79.2521 42.6926 79.4648C42.6926 79.6773 42.5337 79.9415 42.3373 80.0549L23.0604 91.2012C22.8641 91.3146 22.7051 91.234 22.7051 91.0216C22.7048 90.8088 22.8641 90.5449 23.0604 90.4315Z" fill="#7846D3"/>
<path d="M23.0604 92.3782L42.3373 81.2316C42.5337 81.1182 42.6926 81.1988 42.6926 81.4115C42.6926 81.624 42.5337 81.8882 42.3373 82.0016L23.0604 93.1482C22.8641 93.2616 22.7051 93.181 22.7051 92.9683C22.7048 92.7558 22.8641 92.4916 23.0604 92.3782Z" fill="#7846D3"/>
<path d="M23.0604 88.484L42.3373 77.3374C42.5337 77.224 42.6926 77.3046 42.6926 77.517C42.6926 77.7295 42.5337 77.9937 42.3373 78.1071L23.0604 89.2537C22.8641 89.3671 22.7051 89.2865 22.7051 89.0741C22.7048 88.8613 22.8641 88.5971 23.0604 88.484Z" fill="#7846D3"/>
<path d="M20.6569 81.5073V81.5102L19.1039 80.6219C18.9766 80.5427 18.8945 80.3815 18.8945 80.1495V51.1198C18.8945 50.8539 19.0049 50.5568 19.1718 50.3051L20.688 51.182C20.5324 51.4281 20.4363 51.7138 20.4363 51.9684V81.0293C20.4363 81.2669 20.5211 81.4338 20.6569 81.5073Z" fill="#263238"/>
<path d="M44.4183 37.3937C44.3052 37.3767 44.1722 37.4078 44.028 37.4898L21.1765 50.6836C20.9898 50.794 20.8172 50.9722 20.6871 51.1815L19.168 50.3046C19.2953 50.1094 19.4565 49.9396 19.6347 49.835L42.4862 36.644C42.605 36.5733 42.7182 36.5422 42.8172 36.5422C42.8879 36.5422 42.953 36.5591 43.0096 36.5903L44.4183 37.3937Z" fill="#37474F"/>
<path d="M21.1784 50.6841L44.029 37.4914C44.4384 37.2552 44.7702 37.4467 44.7702 37.9191V67.0057C44.7702 67.4784 44.4381 68.0527 44.0287 68.2889L21.1789 81.4581C20.7696 81.694 20.4375 81.5022 20.4375 81.0298V51.9681C20.4372 51.4951 20.769 50.9203 21.1784 50.6841Z" fill="#335464"/>
<path d="M22.3484 51.5832L42.8576 39.7421C43.225 39.53 43.5229 39.702 43.5229 40.126V66.2324C43.5229 66.6564 43.225 67.1721 42.8576 67.384L22.3489 79.2035C21.9815 79.4154 21.6836 79.2431 21.6836 78.8191V52.7351C21.6833 52.311 21.9812 51.7953 22.3484 51.5832Z" fill="white"/>
<mask id="mask2_94_1638" style="mask-type:luminance" maskUnits="userSpaceOnUse" x="21" y="39" width="23" height="41">
<path d="M22.3487 51.5847L42.8581 39.7437C43.2256 39.5315 43.5232 39.7035 43.5232 40.1275V66.2342C43.5232 66.6585 43.2253 67.1739 42.8579 67.3858L22.3489 79.2056C21.9815 79.4175 21.6836 79.2452 21.6836 78.8212V52.7372C21.6836 52.3125 21.9815 51.7966 22.3487 51.5847Z" fill="white"/>
</mask>
<g mask="url(#mask2_94_1638)">
<path d="M38.8165 62.4739C37.2168 60.3924 34.5664 60.6877 34.5664 60.6877C34.5664 60.6877 34.7582 62.8376 35.8764 65.9763C35.8764 65.9763 40.7576 73.0869 41.7308 73.7502L43.0804 69.2739C43.0804 69.2739 39.8552 63.8252 38.8165 62.4739Z" fill="#F8CFB3"/>
<path d="M34.0039 60.7875C34.0039 60.7875 34.9946 60.4393 36.147 60.5128C37.2995 60.5864 38.7171 61.8913 39.5623 63.25C40.691 65.0645 41.4472 66.3669 41.4472 66.3669C41.4472 66.3669 41.0704 68.4984 38.1584 69.4184L35.4664 65.9058L34.0039 60.7875Z" fill="#27DEBF"/>
<path d="M34.0039 60.7875C34.0039 60.7875 34.9946 60.4393 36.147 60.5128C37.2995 60.5864 38.7171 61.8913 39.5623 63.25C40.691 65.0645 41.4472 66.3669 41.4472 66.3669C41.4472 66.3669 41.0704 68.4984 38.1584 69.4184L35.4664 65.9058L34.0039 60.7875Z" fill="#629429"/>
<path d="M26.5724 69.1229L26.1953 75.0736L26.4977 86.1885C30.2417 87.464 35.0015 86.341 38.9959 81.9025C38.9959 81.9025 38.8324 67.1435 38.3133 64.621C37.6887 61.5865 36.1956 59.926 33.1744 61.006L30.214 62.1885L27.1665 63.3992C27.1665 63.3992 26.5724 67.9732 26.5724 69.1229Z" fill="#27DEBF"/>
<path d="M26.5724 69.1229L26.1953 75.0736L26.4977 86.1885C30.2417 87.464 35.0015 86.341 38.9959 81.9025C38.9959 81.9025 38.8324 67.1435 38.3133 64.621C37.6887 61.5865 36.1956 59.926 33.1744 61.006L30.214 62.1885L27.1665 63.3992C27.1665 63.3992 26.5724 67.9732 26.5724 69.1229Z" fill="#8BC34A"/>
<path d="M30.4844 52.5563C30.4844 55.0734 32.2516 56.6406 34.4315 56.0564C36.6114 55.4723 38.3786 52.9583 38.3786 50.4409C38.3786 47.9237 36.4965 47.9229 34.3166 48.5068C32.1367 49.0912 30.4844 50.0392 30.4844 52.5563Z" fill="#133643"/>
<path d="M29.8334 57.8228L29.1709 57.0573L29.4396 55.9537L28.862 51.5945C28.862 51.5945 28.1239 51.4307 27.7084 52.1832C26.7593 53.9017 28.9701 59.188 29.1587 59.5569C29.3921 60.0126 29.8739 60.031 29.8739 60.031L29.8334 57.8228Z" fill="#133643"/>
<path d="M29.7671 55.8674C29.5476 56.0779 29.2341 55.6745 28.9631 55.4199C28.6924 55.1653 27.8078 54.9548 27.3668 56.1463C26.9173 57.3608 27.7564 58.5811 28.4525 58.6468C29.6523 58.7602 29.8324 57.8233 29.8324 57.8233L29.8732 62.9444C31.8859 65.0787 36.5201 64.0369 33.8276 61.6179L33.8242 60.098C33.8242 60.098 34.9114 59.9973 35.4415 59.7605C36.3238 59.3664 36.8788 58.4139 37.1467 57.2394C37.5767 55.3528 37.7399 53.8787 37.375 50.4929C36.9753 46.7814 33.1289 47.7723 31.052 49.8385C28.975 51.9042 29.7671 55.8674 29.7671 55.8674Z" fill="#FAC39A"/>
<path d="M29.7278 56.2257C29.3611 56.1286 29.1187 55.5411 28.9643 55.4203C28.8225 55.3094 28.8353 54.9878 28.8271 54.8316C28.8073 54.4528 28.8652 54.0548 28.7993 53.6862C28.7269 53.2808 28.6718 52.8837 28.6686 52.4684C28.6627 51.6138 28.689 50.4373 29.0372 49.654C29.6797 48.2084 30.68 47.8452 31.8901 47.4562C32.8166 47.1583 33.8322 47.2013 34.7425 46.8568C35.5049 46.5682 36.1408 46.0285 36.7603 45.4989C36.9824 45.3091 37.2952 45.1102 37.5416 45.267C37.6647 45.3453 37.7247 45.4913 37.7679 45.6305C37.9023 46.065 37.9436 46.5278 37.8882 46.979C38.0975 46.9945 38.3119 46.9074 38.4508 46.7504C38.4938 46.7018 38.5397 46.6421 38.6044 46.6409C38.6935 46.6395 38.7394 46.7462 38.7546 46.8339C38.8197 47.2076 38.76 47.5931 38.6559 47.9578C38.1348 49.7798 36.3241 50.8822 34.4774 51.3066C33.4322 51.5467 32.3498 51.6723 31.3071 51.4206C31.1784 51.3895 31.0231 51.4251 30.9385 51.4834C30.8217 51.5643 30.7733 51.6788 30.7408 51.762C30.5385 52.2788 30.7527 53.338 30.6901 54.0503C30.6138 54.9193 30.4808 55.6531 30.1512 56.0644C30.0389 56.205 29.9221 56.2772 29.7278 56.2257Z" fill="#133643"/>
<path d="M28.7676 51.6666L27.4395 51.1992C27.6279 50.7093 28.0782 50.4168 28.4448 50.5458C28.8117 50.6748 28.956 51.1766 28.7676 51.6666Z" fill="#133643"/>
<path d="M33.825 60.0989C33.825 60.0989 31.8553 60.1685 31.1668 59.9303C30.7059 59.771 30.3263 59.3824 30.2148 59.0978C30.2148 59.0978 30.3438 59.7379 30.7557 60.2355C31.2593 60.844 33.825 60.704 33.825 60.704V60.0989Z" fill="#F2B691"/>
<path d="M33.3518 54.7227C33.3518 54.9844 33.1749 55.243 32.9571 55.3009C32.739 55.3587 32.5625 55.1934 32.5625 54.9318C32.5625 54.6704 32.739 54.4116 32.9571 54.3536C33.1752 54.2961 33.3518 54.4613 33.3518 54.7227Z" fill="#263238"/>
<path d="M32.7173 53.0046L31.8729 53.769C31.7484 53.5223 31.8364 53.1512 32.0698 52.9401C32.3029 52.7288 32.5929 52.7579 32.7173 53.0046Z" fill="#263238"/>
<path d="M33.6473 57.3948L34.5483 57.5439C34.4592 57.8661 34.1851 58.0938 33.9361 58.0528C33.6875 58.0115 33.5582 57.717 33.6473 57.3948Z" fill="#F28F8F"/>
<path d="M36.9731 52.2668L36.2031 51.7885C36.3601 51.4917 36.66 51.3585 36.8724 51.4906C37.0852 51.6224 37.1301 51.9701 36.9731 52.2668Z" fill="#263238"/>
<path d="M36.8052 53.6658C36.8052 53.9271 36.6284 54.186 36.4102 54.2437C36.1924 54.3014 36.0156 54.1362 36.0156 53.8748C36.0156 53.6134 36.1924 53.3546 36.4102 53.2969C36.6284 53.2389 36.8052 53.4041 36.8052 53.6658Z" fill="#263238"/>
<path d="M34.6836 53.6881L34.7294 56.4397L36.1444 55.7008L34.6836 53.6881Z" fill="#F2B691"/>
<path d="M21.8891 80.6127C23.1355 67.3338 24.826 64.0894 27.2608 63.7553C28.2181 64.4682 28.5202 67.518 27.8441 70.6806C27.8441 70.6806 26.4645 77.8399 26.3426 80.4176C26.2353 82.682 25.6087 85.4535 25.888 87.234C25.9375 87.5494 26.1027 88.4654 26.271 88.6761C26.8288 89.3737 26.7001 89.6959 27.1335 90.2382C27.473 90.6628 28.0379 90.9163 27.9725 91.0753C27.8888 91.2795 27.5199 91.5429 26.9295 91.2716C26.7157 91.1734 26.2846 90.8487 26.0732 90.4999C26.0732 90.4999 26.1366 91.3349 26.9179 92.6382C27.658 93.8724 27.8747 95.1624 25.8189 94.9267C24.6546 94.7935 23.8017 94.4648 23.0484 91.4656C22.8404 90.6379 22.6696 89.1321 22.5052 88.0478C22.0339 84.9332 21.7174 82.4405 21.8891 80.6127Z" fill="#FAC39A"/>
<path d="M27.2972 63.3489C27.2972 63.3489 24.833 63.8349 24.1453 66.1255C23.5645 68.0598 23.1088 69.7931 22.498 73.8646C22.498 73.8646 24.4146 75.8276 27.3345 74.6966C27.3345 74.6966 28.6375 69.3979 28.7668 67.0168C28.9082 64.4202 27.2972 63.3489 27.2972 63.3489Z" fill="#27DEBF"/>
<path d="M27.2972 63.3489C27.2972 63.3489 24.833 63.8349 24.1453 66.1255C23.5645 68.0598 23.1088 69.7931 22.498 73.8646C22.498 73.8646 24.4146 75.8276 27.3345 74.6966C27.3345 74.6966 28.6375 69.3979 28.7668 67.0168C28.9082 64.4202 27.2972 63.3489 27.2972 63.3489Z" fill="#629429"/>
</g>
<path d="M53.0675 79.4012V79.4041L51.4296 78.4677C51.4268 78.4677 51.4268 78.4677 51.4268 78.4677L51.4183 78.4649V78.4621C51.291 78.3829 51.209 78.2188 51.209 77.9896V67.079C51.209 66.8131 51.3193 66.5161 51.4834 66.2643L53.1128 67.2035C52.9487 67.4524 52.8469 67.7495 52.8469 68.0126V78.9232C52.8469 79.1608 52.9318 79.3277 53.0675 79.4012Z" fill="#27DEBF"/>
<path d="M53.0675 79.4012V79.4041L51.4296 78.4677C51.4268 78.4677 51.4268 78.4677 51.4268 78.4677L51.4183 78.4649V78.4621C51.291 78.3829 51.209 78.2188 51.209 77.9896V67.079C51.209 66.8131 51.3193 66.5161 51.4834 66.2643L53.1128 67.2035C52.9487 67.4524 52.8469 67.7495 52.8469 68.0126V78.9232C52.8469 79.1608 52.9318 79.3277 53.0675 79.4012Z" fill="#5B31A8"/>
<path d="M53.5885 66.7261L76.4392 53.5334C76.8485 53.2972 77.1803 53.4887 77.1803 53.9614V64.897C77.1803 65.3697 76.8482 65.9439 76.4389 66.1801L53.5891 79.349C53.1795 79.5849 52.8477 79.3931 52.8477 78.9204V68.0098C52.8477 67.5371 53.1795 66.9623 53.5885 66.7261Z" fill="#27DEBF"/>
<path d="M53.5885 66.7261L76.4392 53.5334C76.8485 53.2972 77.1803 53.4887 77.1803 53.9614V64.897C77.1803 65.3697 76.8482 65.9439 76.4389 66.1801L53.5891 79.349C53.1795 79.5849 52.8477 79.3931 52.8477 78.9204V68.0098C52.8477 67.5371 53.1795 66.9623 53.5885 66.7261Z" fill="#EAEEFF"/>
<path d="M75.324 52.5486L76.9365 53.468C76.8035 53.4057 76.6309 53.4227 76.4386 53.533L53.5871 66.7268C53.406 66.8315 53.2391 67.004 53.1118 67.2021L51.4824 66.2629C51.6097 66.0649 51.771 65.8951 51.9492 65.7933L74.8007 52.5995C74.9195 52.5316 75.0298 52.5005 75.1317 52.5005C75.2024 52.5005 75.2674 52.5175 75.324 52.5486Z" fill="#27DEBF"/>
<path d="M75.324 52.5486L76.9365 53.468C76.8035 53.4057 76.6309 53.4227 76.4386 53.533L53.5871 66.7268C53.406 66.8315 53.2391 67.004 53.1118 67.2021L51.4824 66.2629C51.6097 66.0649 51.771 65.8951 51.9492 65.7933L74.8007 52.5995C74.9195 52.5316 75.0298 52.5005 75.1317 52.5005C75.2024 52.5005 75.2674 52.5175 75.324 52.5486Z" fill="#7846D3"/>
<path d="M55.3748 67.7363L74.6518 56.5898C74.8481 56.4766 75.0071 56.557 75.0071 56.7694C75.0071 56.9819 74.8481 57.2464 74.6518 57.3595L55.3748 68.5061C55.1785 68.6195 55.0195 68.5389 55.0195 68.3262C55.0195 68.114 55.1785 67.8498 55.3748 67.7363Z" fill="#7846D3"/>
<path d="M55.3748 75.5256L74.6518 64.3791C74.8481 64.2659 75.0071 64.3463 75.0071 64.559C75.0071 64.7715 74.8481 65.0357 74.6518 65.1491L55.3748 76.2956C55.1785 76.4091 55.0195 76.3285 55.0195 76.1157C55.0195 75.9033 55.1785 75.6391 55.3748 75.5256Z" fill="#7846D3"/>
<path d="M55.3748 71.6306L74.6518 60.4841C74.8481 60.3709 75.0071 60.4513 75.0071 60.6637C75.0071 60.8764 74.8481 61.1407 74.6518 61.2538L55.3748 72.4004C55.1785 72.5135 55.0195 72.4332 55.0195 72.2204C55.0195 72.008 55.1785 71.7438 55.3748 71.6306Z" fill="#7846D3"/>
<path d="M55.3748 73.5781L74.6518 62.4316C74.8481 62.3184 75.0071 62.3988 75.0071 62.6112C75.0071 62.824 74.8481 63.0882 74.6518 63.2013L55.3748 74.3479C55.1785 74.4613 55.0195 74.3807 55.0195 74.1682C55.0195 73.9555 55.1785 73.6913 55.3748 73.5781Z" fill="#7846D3"/>
<path d="M55.3748 69.6832L74.6518 58.5367C74.8481 58.4233 75.0071 58.5039 75.0071 58.7163C75.0071 58.9288 74.8481 59.193 74.6518 59.3064L55.3748 70.453C55.1785 70.5664 55.0195 70.4858 55.0195 70.2733C55.0195 70.0609 55.1785 69.7967 55.3748 69.6832Z" fill="#7846D3"/>
<path d="M51.735 63.7025V63.7054L50.182 62.8171C50.0547 62.7379 49.9727 62.5766 49.9727 62.3447V33.315C49.9727 33.049 50.083 32.752 50.2499 32.5002L51.7661 33.3772C51.6106 33.6233 51.5144 33.909 51.5144 34.1636V63.2245C51.5144 63.4624 51.5992 63.629 51.735 63.7025Z" fill="#263238"/>
<path d="M75.4965 19.5896C75.3833 19.5727 75.2503 19.6038 75.1061 19.6858L52.2546 32.8796C52.0679 32.9899 51.8953 33.1681 51.7652 33.3775L50.2461 32.5005C50.3734 32.3054 50.5346 32.1356 50.7129 32.031L73.5643 18.84C73.6832 18.7693 73.7963 18.7382 73.8953 18.7382C73.966 18.7382 74.0311 18.7551 74.0877 18.7862L75.4965 19.5896Z" fill="#37474F"/>
<path d="M52.2568 32.8796L75.1074 19.6869C75.5168 19.4507 75.8486 19.6422 75.8486 20.1146V49.2012C75.8486 49.6739 75.5165 50.2482 75.1071 50.4844L52.2571 63.6533C51.8477 63.8892 51.5156 63.6974 51.5156 63.225V34.1633C51.5159 33.6906 51.8477 33.1158 52.2568 32.8796Z" fill="#335464"/>
<path d="M53.4287 33.7799L73.9382 21.9389C74.3057 21.7267 74.6033 21.8987 74.6033 22.3231V48.4297C74.6033 48.8538 74.3054 49.3695 73.9379 49.5813L53.429 61.4012C53.0615 61.613 52.7637 61.4408 52.7637 61.0167V34.9324C52.7637 34.5081 53.0615 33.9921 53.4287 33.7799Z" fill="white"/>
<mask id="mask3_94_1638" style="mask-type:luminance" maskUnits="userSpaceOnUse" x="52" y="21" width="23" height="41">
<path d="M53.4268 33.7785L73.9363 21.9374C74.3037 21.7253 74.6013 21.8973 74.6013 22.3213V48.428C74.6013 48.852 74.3035 49.3677 73.936 49.5796L53.4271 61.3994C53.0596 61.6113 52.7617 61.439 52.7617 61.015V34.9307C52.7617 34.5063 53.0596 33.9906 53.4268 33.7785Z" fill="white"/>
</mask>
<g mask="url(#mask3_94_1638)">
<path d="M70.6099 57.0677C67.5743 46.3667 67.5412 44.6148 67.7237 43.361C70.4792 42.6957 71.679 44.5839 72.4184 47.7709C72.7734 49.3013 73.7901 55.1308 74.4218 57.5607C74.9768 59.6957 75.673 61.9873 76.5024 63.5144C76.6493 63.7848 76.8962 63.9486 77.1842 63.9899C77.9573 64.1011 78.1853 64.5356 78.8147 64.8561C79.3078 65.1067 79.6722 65.0431 79.6487 65.2168C79.6187 65.4402 79.3935 65.8937 78.8696 65.9856C78.606 66.032 78.4003 65.9955 77.9463 65.9248C77.9463 65.9248 78.4006 66.5831 79.2931 67.1608C80.5027 67.9438 80.8787 69.1497 78.7822 69.7308C77.9604 69.9585 76.4261 69.6988 74.6037 67.2366C74.1138 66.5749 73.4993 65.4236 73.1005 64.4094C72.0617 61.7692 71.217 59.2083 70.6099 57.0677Z" fill="#FAC39A"/>
<path d="M63.2431 44.5886C63.2431 44.5886 60.2389 45.6565 59.4621 46.0211C61.4307 48.3954 59.0723 54.8806 59.0723 54.8806L60.337 59.2486L69.8423 55.9185C71.414 51.9456 71.7212 50.1629 71.5826 49.0755C71.2692 46.6152 69.7979 44.9994 67.7235 43.3592L63.2431 44.5886Z" fill="#FFCA28"/>
<path d="M70.379 41.9519L65.424 43.5083C62.1711 44.5301 58.8613 42.1007 58.8613 38.691V37.6576C58.8613 34.104 61.3561 30.5547 64.4336 29.7301L64.8494 29.6186C67.927 28.794 70.4217 31.0062 70.4217 34.5601V35.5518C70.422 38.7281 70.379 41.9519 70.379 41.9519Z" fill="#133643"/>
<path d="M68.2499 32.3875C68.8287 32.7558 69.6089 33.4203 69.5345 37.1575C69.4714 40.3249 68.5871 41.3402 68.1429 41.6836C67.6988 42.0271 66.8425 42.1198 66.01 42.1829V44.1807C66.01 44.1807 67.4493 45.5445 67.3769 46.431C67.3045 47.3176 66.01 48.0681 64.0586 46.8729C63.0241 46.2392 62.3661 45.1085 62.3661 45.1085L62.3848 40.8353C62.3848 40.8353 61.8949 41.5162 61.064 40.9C60.378 40.3914 60.1469 39.2856 60.6816 38.5159C60.9379 38.1467 61.2982 37.9331 61.6459 37.8978C62.1282 37.8488 62.533 38.2675 62.533 38.7524V38.9858C62.533 38.9858 63.139 39.0797 63.1792 37.8981C63.2015 37.2409 63.9854 36.2027 64.752 35.5442C66.0538 34.4251 67.7107 34.4126 68.2499 32.3875Z" fill="#F8CFB3"/>
<path d="M66.1429 36.9605C66.1528 37.1849 66.0074 37.4163 65.8182 37.4774C65.6289 37.5385 65.4674 37.4061 65.4575 37.1818C65.4476 36.9574 65.593 36.726 65.7823 36.6649C65.9715 36.6038 66.133 36.7362 66.1429 36.9605Z" fill="#263238"/>
<path d="M66.3702 39.6749L67.3801 39.7762C67.2964 40.1324 67.0022 40.3985 66.7232 40.3705C66.4443 40.3428 66.2862 40.0311 66.3702 39.6749Z" fill="#F28F8F"/>
<path d="M69.1122 35.2421L68.418 34.8724C68.5447 34.6096 68.8027 34.4792 68.9945 34.5813C69.186 34.6834 69.2389 34.9793 69.1122 35.2421Z" fill="#263238"/>
<path d="M65.1608 36.2673L65.855 35.5256C65.7283 35.3307 65.4703 35.3386 65.2785 35.5434C65.0867 35.7485 65.0341 36.0724 65.1608 36.2673Z" fill="#263238"/>
<path d="M69.0294 36.3717C69.0393 36.596 68.8939 36.8274 68.7046 36.8885C68.5154 36.9496 68.3541 36.8172 68.3442 36.5929C68.3343 36.3686 68.4797 36.1372 68.669 36.0761C68.8579 36.015 69.0195 36.1473 69.0294 36.3717Z" fill="#263238"/>
<path d="M67.3809 36.4852L67.4355 38.8555L68.5223 38.1755L67.3809 36.4852Z" fill="#F2B691"/>
<path d="M66.009 42.1811C65.1315 42.2832 63.3264 42.1681 63.0449 41.4196C63.0449 41.4196 63.1386 41.9123 63.6777 42.3016C64.2169 42.6908 66.0087 42.8119 66.0087 42.8119L66.009 42.1811Z" fill="#F2B691"/>
<path d="M54.2851 63.1242C55.2223 52.8964 55.7564 47.1355 59.4616 46.0209C60.0129 46.2206 60.5258 47.4421 60.6231 48.3157C60.7886 49.8014 60.5883 52.3717 59.6658 53.6956C59.6658 53.6956 58.5029 59.8232 58.0537 63.3485C57.7425 65.7906 57.0706 69.308 57.2279 71.2885C57.2576 71.6625 57.4964 71.9536 57.6851 72.2667C57.8947 72.6144 58.104 72.9618 58.3136 73.3095C58.4435 73.525 58.5742 73.7414 58.7383 73.9324C58.882 74.0996 59.0491 74.2447 59.2059 74.3997C59.3199 74.5123 59.4339 74.6891 59.3385 74.8181C59.3046 74.8642 59.2503 74.8905 59.1971 74.9114C58.8285 75.056 58.3923 75.0153 58.0565 74.8051C57.8475 74.6741 57.6777 74.4837 57.4582 74.3717C57.4477 74.7352 57.6073 75.0795 57.7632 75.4079C57.8865 75.6679 58.0101 75.9281 58.1482 76.1807C58.2899 76.4396 58.4475 76.6916 58.5538 76.9669C58.6602 77.2421 58.7131 77.5485 58.6361 77.8336C58.5156 78.2806 58.0842 78.5991 57.6279 78.6772C57.1719 78.7553 56.7009 78.6257 56.2896 78.413C54.8967 77.6928 54.4305 76.243 54.2542 74.7895C54.1408 73.8543 53.9651 72.3779 53.9815 71.1414C54.0243 67.9216 54.1026 65.114 54.2851 63.1242Z" fill="#FAC39A"/>
<path d="M62.3662 44.824C61.736 44.9665 61.0471 45.2421 60.6602 45.5255C60.6602 45.5255 61.9957 48.1049 64.2867 48.4791C66.5778 48.8534 66.7408 47.3097 66.7408 47.3097C65.3213 47.3694 63.8723 46.7487 62.3662 44.824Z" fill="#EDB408"/>
<path d="M66.0098 43.7878V44.1799C66.982 45.4461 67.2802 46.5397 66.7413 47.3094C66.7413 47.3094 68.347 47.856 68.6287 46.6806C68.9102 45.5052 66.8768 43.5957 66.8768 43.5957C66.6564 43.596 66.2378 43.697 66.0098 43.7878Z" fill="#EDB408"/>
</g>
<path d="M84.454 57.7807C84.0574 57.4517 83.4435 57.3847 82.7063 57.6577C81.2322 58.2036 79.8228 59.9024 79.5586 61.452C79.4265 62.2268 79.6056 62.8178 80.0019 63.1468L80.0022 63.1471L107.031 87.3663L107.034 87.3635C107.584 87.8831 108.471 88.0099 109.552 87.6096C111.613 86.8466 113.583 84.4721 113.952 82.3061C114.146 81.1697 113.858 80.3208 113.245 79.8766L113.251 79.8698L84.454 57.7807Z" fill="#F84F57"/>
<path opacity="0.15" d="M79.5586 61.4521C79.2944 63.0017 80.2752 63.8153 81.7493 63.2693C83.2234 62.7234 84.6327 61.0246 84.8972 59.475C85.1614 57.9253 84.1807 57.1118 82.7066 57.6577C81.2325 58.2034 79.8231 59.9024 79.5586 61.4521Z" fill="black"/>
<path d="M74.277 51.9318C73.3856 52.2619 72.5336 53.2891 72.3737 54.226C72.2937 54.6945 72.402 55.0518 72.6419 55.2506L72.6414 55.2515L80.881 62.0871L80.8815 62.0863C81.1211 62.2851 81.4923 62.3256 81.9381 62.1607C82.8295 61.8306 83.6815 60.8034 83.8416 59.8665C83.9217 59.398 83.8133 59.0407 83.5735 58.8419L75.3339 52.0062C75.094 51.8074 74.7228 51.7669 74.277 51.9318Z" fill="#263238"/>
<path opacity="0.1" d="M83.0577 62.4742L110.96 86.8293C110.507 87.1552 110.035 87.4313 109.55 87.6095C108.47 88.0086 107.582 87.8847 107.032 87.3608L107.028 87.3648L80.002 63.1495C80.4014 63.4807 81.0116 63.5421 81.7493 63.2706C82.202 63.0994 82.6478 62.8219 83.0577 62.4742Z" fill="black"/>
<path d="M88.7243 25.5375C88.7175 25.2524 88.7039 24.9737 88.6802 24.6954C88.6666 24.4167 88.6462 24.1452 88.619 23.8733C88.6055 23.69 88.5851 23.5098 88.5613 23.3265C88.5138 22.8544 88.4459 22.3856 88.3676 21.9406C88.3336 21.737 88.2963 21.5296 88.2555 21.3259C88.2216 21.1291 88.1775 20.9421 88.1367 20.7554C88.0179 20.2391 87.8923 19.7364 87.7461 19.2541C87.6714 19.0232 87.6001 18.7955 87.522 18.5715C87.5084 18.5375 87.4949 18.5002 87.4881 18.4662C87.4066 18.2422 87.3285 18.0281 87.2437 17.8176C87.1486 17.5732 87.0502 17.3285 86.9381 17.0976C86.8601 16.9245 86.7854 16.7579 86.6937 16.5916C86.6462 16.466 86.5817 16.3469 86.5138 16.2281C86.4425 16.0821 86.3676 15.9324 86.2827 15.7933C86.2623 15.7593 86.2487 15.7254 86.225 15.6982C86.1571 15.5726 86.079 15.4467 86.0043 15.3211C85.9534 15.2363 85.8991 15.1616 85.8513 15.0835C85.4813 14.5027 85.0838 13.9729 84.649 13.4872C84.5744 13.4023 84.4963 13.3174 84.4281 13.236C84.3636 13.1647 84.3025 13.1036 84.238 13.0391C84.1633 12.9576 84.0784 12.8795 83.9936 12.7947C83.7557 12.5571 83.5215 12.3429 83.2703 12.146C83.1514 12.0442 83.0258 11.9457 82.8999 11.8538C82.7743 11.7554 82.6487 11.6671 82.5161 11.5754C82.3124 11.4295 82.105 11.2903 81.8946 11.1712C81.8403 11.1372 81.7826 11.0999 81.7282 11.066L81.6943 11.0388C81.6841 11.0388 81.6841 11.0388 81.6841 11.0388L77.7848 8.7463C77.778 8.7463 77.778 8.7463 77.7712 8.7463L77.7169 8.71235C75.9033 7.67982 73.8111 7.14319 71.5082 7.14319C68.2714 7.14319 64.6171 8.20288 60.7449 10.4343C47.4516 18.1135 36.668 36.7868 36.668 52.1455C36.668 59.8043 39.3477 65.191 43.6782 67.7146L43.7189 67.735C43.7189 67.735 43.7189 67.735 43.7189 67.7418L47.6247 70.0275C47.6247 70.0343 47.6247 70.0343 47.6315 70.0343L47.6756 70.0615V70.0547C47.696 70.0649 47.7163 70.075 47.7333 70.0852C47.7537 70.0954 47.7741 70.109 47.7944 70.1192C47.9811 70.2278 48.1681 70.3262 48.365 70.4182C48.6026 70.537 48.8473 70.6422 49.0917 70.7376C49.3059 70.8292 49.5299 70.9141 49.7543 70.982C49.8731 71.0261 49.9885 71.06 50.1076 71.0872C50.2332 71.1347 50.3588 71.1721 50.4915 71.1992C50.6238 71.24 50.7497 71.2705 50.8821 71.2977C50.9806 71.3248 51.0722 71.3452 51.1709 71.3588C51.3373 71.3927 51.5175 71.4301 51.694 71.4504C51.7347 71.464 51.7687 71.4708 51.8128 71.4708C52.0199 71.5047 52.2306 71.5353 52.4377 71.5557C56.0244 71.9327 60.195 70.9206 64.6578 68.346C77.9613 60.6668 88.7449 41.9868 88.7449 26.6349C88.7447 26.2643 88.7376 25.901 88.7243 25.5375ZM44.8431 61.7735C44.1718 59.449 44.0292 57.0516 44.0292 55.4716C44.0292 40.9192 54.677 22.4733 67.281 15.1969C69.3282 14.0218 71.3206 13.1972 73.178 12.7556C74.2436 12.5002 75.2544 12.3726 76.214 12.3726C76.7585 12.3726 77.2708 12.4136 77.7523 12.4911L77.7942 12.5075C80.3741 15.5582 80.7537 20.4479 80.7537 23.0606C80.7537 37.6131 70.1166 56.0589 57.5093 63.3316C54.3016 65.1817 51.2182 66.1596 48.5726 66.1596C48.0219 66.1596 47.3916 66.0847 46.9475 65.9508C45.9483 64.7511 45.2801 63.2807 44.8431 61.7735Z" fill="#F84F57"/>
<path opacity="0.15" d="M85.2811 25.6011C85.2811 33.3324 82.2768 42.1584 77.5696 49.8303C77.349 50.1952 77.1227 50.5516 76.8907 50.9109C76.6955 51.2192 76.4947 51.5276 76.2853 51.8331C75.844 52.4894 75.3971 53.1372 74.9275 53.7708C74.7068 54.0735 74.4833 54.3734 74.2542 54.6676C74.0081 54.9929 73.7563 55.3154 73.5017 55.6351C73.018 56.2461 72.5173 56.8402 72.0081 57.4201C71.6743 57.8076 71.332 58.1867 70.9869 58.5544C68.2146 61.5361 65.1849 64.0537 62.0336 65.8699C61.431 66.2178 60.8369 66.5346 60.2457 66.8204C58.0816 67.867 56.0024 68.4866 54.1156 68.6506C53.7705 68.6846 53.431 68.6987 53.1029 68.6987C52.9275 68.6987 52.7606 68.6959 52.5937 68.6846C52.5852 68.6846 52.5823 68.6817 52.5739 68.6846C52.2429 68.6704 51.9261 68.6365 51.6177 68.5856C51.4621 68.5629 51.3094 68.5375 51.1623 68.5035C51.0123 68.4724 50.8681 68.4413 50.7238 68.396C48.4477 67.7788 47.2901 66.3952 46.9473 65.9519C47.3914 66.0849 48.0194 66.1584 48.571 66.1584C51.216 66.1584 54.2995 65.1824 57.5074 63.3324C70.1156 56.0594 80.7521 37.6124 80.7521 23.0608C80.7521 20.4469 80.373 15.5587 77.7931 12.5063L77.7507 12.4922C81.0378 13.0184 82.9077 15.2532 83.96 17.8359C84.2627 18.5686 84.4975 19.3324 84.6785 20.0905C84.687 20.1329 84.6983 20.1754 84.7068 20.2178C84.7408 20.3564 84.7747 20.4978 84.8002 20.6365C84.8285 20.7722 84.8539 20.908 84.8794 21.0438C84.8879 21.0749 84.8935 21.1117 84.8992 21.1485C84.9275 21.2956 84.9529 21.4399 84.9756 21.5813C85.0576 22.1216 85.1255 22.6478 85.1708 23.1513C85.1821 23.2984 85.1962 23.437 85.2047 23.5756C85.216 23.6803 85.2217 23.7878 85.2273 23.8896C85.2302 23.9321 85.233 23.9773 85.233 24.0198C85.2415 24.1329 85.2471 24.2433 85.2528 24.3536C85.2556 24.3847 85.2556 24.413 85.2556 24.4469C85.2641 24.5855 85.2669 24.7242 85.2698 24.8571C85.2783 25.1174 85.2811 25.3663 85.2811 25.6011Z" fill="black"/>
<path opacity="0.1" d="M47.2909 69.8367L43.6762 67.7103C39.3447 65.1785 36.666 59.7934 36.666 52.1487C36.666 45.2992 38.8145 37.794 42.3647 30.9023L46.483 33.2707C42.9257 40.162 40.5707 47.5881 40.5707 54.4379C40.571 61.9292 43.1198 67.2421 47.2909 69.8367Z" fill="black"/>
<path opacity="0.4" d="M81.7288 11.0662L81.6948 11.0379C81.6835 11.0379 81.6835 11.0379 81.6835 11.0379L77.7853 8.74654C77.7768 8.74654 77.7768 8.74654 77.7712 8.74654L77.7174 8.71259C75.9041 7.68006 73.8108 7.14258 71.5081 7.14258C68.2719 7.14258 64.617 8.20057 60.7443 10.4325C53.3751 14.69 46.7782 22.325 42.3652 30.9021L46.4614 33.3123C46.4331 33.3689 46.402 33.4255 46.3737 33.4821C50.8009 25.0011 57.3667 17.3208 64.6566 12.7267C71.2563 8.56832 77.5194 8.51174 81.8928 11.1709C81.8391 11.1369 81.7825 11.1001 81.7288 11.0662Z" fill="white"/>
<path d="M109.33 55.1125C111.288 54.8933 112.041 55.4684 112.771 57.0901C113.468 58.6415 115.601 63.3133 115.493 64.405C115.386 65.4966 110.928 70.1295 110.928 70.1295L109.656 68.5852L112.413 63.9524L110.22 59.2746L109.33 55.1125Z" fill="#FAC39A"/>
<path d="M105.391 53.579L105.76 57.4256L109.198 57.2118L108.922 52.9459L105.391 53.579Z" fill="#FAC39A"/>
<path d="M100.985 46.1805C100.959 45.9998 100.96 45.8159 100.993 45.6357C101.078 45.1692 101.376 44.7457 101.787 44.5087C102.197 44.2719 102.713 44.2255 103.159 44.3859C103.009 43.6849 103.413 42.9059 104.073 42.6244C104.571 42.4114 105.155 42.4742 105.654 42.6866C105.939 42.8083 106.219 42.9936 106.343 43.2779C106.688 42.6985 107.395 42.3576 108.063 42.4479C108.732 42.5381 109.323 43.0541 109.503 43.7042C110.025 43.5876 110.765 43.8204 110.998 44.3404C111.264 44.9319 110.938 45.6631 111.061 46.2835C111.14 46.6838 111.312 47.0612 111.387 47.4674C111.469 47.9197 111.497 48.3808 111.514 48.8397C111.589 50.7387 107.181 51.9732 107.268 53.275C106.485 52.322 105.702 51.3689 104.918 50.4159C104.918 50.2971 104.587 50.0009 104.512 49.9005C104.371 49.7121 104.246 49.5098 104.116 49.3129C103.699 48.6779 103.163 48.3438 102.497 48.0179C102.044 47.7964 101.626 47.4835 101.339 47.0691C101.156 46.8054 101.029 46.4977 100.985 46.1805Z" fill="#133643"/>
<path d="M102.837 49.3564C102.837 49.3564 102.076 50.4876 102.175 50.6073C102.274 50.727 102.758 50.8543 102.758 50.8543L102.837 49.3564Z" fill="#F2B691"/>
<path d="M105.164 45.7724C104.424 46.148 103.145 46.8428 102.816 49.522C102.478 52.2725 103.101 53.2284 103.483 53.5891C103.74 53.8323 105.069 53.9206 105.762 53.709C106.63 53.4442 108.509 52.5316 109.39 51.1121C110.426 49.442 110.64 47.2156 109.444 46.3429C107.76 45.1147 105.79 45.4544 105.164 45.7724Z" fill="#FAC39A"/>
<path d="M103.555 53.6372C103.866 53.8086 104.75 53.8799 105.408 53.7834L105.389 53.2895C105.389 53.2895 105.02 53.4601 104.511 53.5752C104.006 53.6901 103.56 53.638 103.555 53.6372Z" fill="#F2B691"/>
<path d="M104.84 45.6922C104.536 45.8218 104.243 45.9499 103.979 46.1881C103.855 46.2999 103.74 46.4263 103.674 46.5796C103.615 46.718 103.598 46.8724 103.612 47.0223C103.65 47.4334 103.925 47.8139 104.304 47.9788C104.104 48.2489 104.034 48.6107 104.117 48.9361C104.217 49.3247 104.512 49.6289 104.795 49.9132C104.812 49.9298 104.829 49.9471 104.852 49.9542C104.894 49.9675 104.937 49.942 104.974 49.9174C105.438 49.6065 105.725 49.0699 106.383 49.2854C107.245 49.5683 107.204 50.6328 106.527 51.2962C106.234 51.5833 105.867 51.7129 105.625 51.7219C105.342 51.7327 105.151 51.5542 105.151 51.5542C105.151 51.5542 105.174 52.9426 106.381 53.4922C106.381 53.4922 107.723 53.9211 108.958 53.5231C109.413 52.9457 110.176 52.2068 110.804 51.5465C112.873 49.3714 112.991 46.2116 109.94 45.2136C109.835 45.1791 109.729 45.1477 109.622 45.1194C108.646 44.8594 107.609 44.8453 106.622 45.0549C106.129 45.1598 105.647 45.3211 105.191 45.5372C105.073 45.5932 104.956 45.643 104.84 45.6922Z" fill="#133643"/>
<path d="M104.74 50.8808C104.402 50.7608 104.227 50.3939 104.349 50.0615C104.472 49.7292 104.845 49.5572 105.183 49.6771L104.74 50.8808Z" fill="#133643"/>
<path d="M105.08 103.639C105.08 103.639 105.282 104.252 105.391 104.788C105.478 105.214 105.602 105.927 105.453 106.247C105.303 106.568 104.721 106.775 103.819 106.768C103.234 106.763 102.324 107.16 101.7 107.508C101.056 107.868 99.7159 108.011 99.0344 107.931C98.2313 107.837 97.3996 107.371 97.2698 107.039C97.1399 106.706 97.0304 106.25 99.2047 105.555C99.2228 105.549 101.835 104.697 102.751 103.687L105.08 103.639Z" fill="#263238"/>
<path d="M105.082 103.7L104.667 103.648L102.753 103.687C101.837 104.698 99.2244 105.549 99.2066 105.555C99.083 105.594 98.9679 105.633 98.8587 105.671C98.4816 105.975 98.801 106.494 99.6988 106.574C100.597 106.654 103.39 105.713 104.009 105.415C104.627 105.117 105.082 104.522 105.082 103.7Z" fill="#FAC39A"/>
<path d="M105.082 102.877C105.082 102.877 105.079 103.4 105.082 103.699C105.085 103.998 104.731 104.443 103.817 104.41C103.176 104.388 102.728 104.215 102.753 103.686V102.924L105.082 102.877Z" fill="#FAC39A"/>
<path d="M111.219 100.202C111.384 100.269 111.417 100.587 111.425 101.217C111.432 101.694 111.511 102.528 110.949 102.679C110.387 102.83 109.572 102.723 109.227 102.264C108.795 101.692 108.507 101.191 107.889 100.49C107.352 99.882 106.77 99.3123 106.569 98.4749C106.388 97.7179 106.564 97.3966 107.083 97.1918C107.575 96.9977 108.07 97.1553 108.788 97.7539C109.034 97.9049 109.256 98.0387 109.426 98.0913C109.898 98.2376 111.055 100.135 111.219 100.202Z" fill="#263238"/>
<path d="M111.233 99.6182L111.213 100.391C111.213 100.391 110.695 101.403 109.258 100.391C109.227 100.316 109.098 98.8205 109.098 98.8205L111.233 99.6182Z" fill="#FAC39A"/>
<path d="M109.425 98.0913C109.255 98.0386 109.033 97.9048 108.787 97.7538C108.208 97.5682 106.988 97.7829 107.537 98.6248C108.129 99.53 108.738 99.9999 109.26 100.392C109.91 100.712 110.137 100.315 110.137 100.315L109.907 98.5031C109.72 98.289 109.549 98.1294 109.425 98.0913Z" fill="#FAC39A"/>
<path d="M112.285 88.9278C111.999 86.3934 111.449 84.9281 111.449 84.9281C111.449 84.9281 111.935 81.5168 112.318 78.2432C113.217 70.5601 112.618 70.4359 111.531 67.7649C111.531 67.7649 101.682 66.4978 101.27 70.594C100.757 75.6956 100.988 85.5875 101.075 87.3968C101.162 89.2065 101.308 90.0243 101.845 93.8152C102.254 96.6992 102.642 103.007 102.642 103.007C103.933 103.751 105.176 102.878 105.176 102.878C105.176 102.878 106.411 95.1207 106.382 93.035C106.347 90.4879 105.714 88.4659 105.714 88.4659C105.714 88.4659 106.552 80.1521 106.766 78.8308C106.766 78.8308 107.003 81.4817 107.09 83.2913C107.177 85.1007 107.667 86.8398 108.099 90.2082C108.473 93.1301 109.096 99.2308 109.096 99.2308C110.388 99.9748 111.29 99.637 111.29 99.637C111.29 99.637 112.57 91.4619 112.285 88.9278Z" fill="#133643"/>
<path opacity="0.15" d="M106.766 78.8299L107.239 75.2364C107.239 75.2364 109.195 75.3546 111.064 73.9057C111.064 73.9057 110.418 75.2186 107.801 75.7928L107.292 79.4896L107.106 83.5614C107.02 81.9688 106.907 80.3914 106.766 78.8299Z" fill="black"/>
<path d="M111.853 56.7007C111.518 55.7081 110.836 55.1276 109.33 55.1109L109.062 55.1194C108.956 55.6719 107.187 56.1754 105.585 55.6096C105.363 55.6498 104.599 55.7361 104.249 55.7828L103.482 55.8948C102.315 56.2767 101.8 58.303 101.688 61.5151C101.576 64.7273 101.096 71.5975 101.096 71.5975C101.096 71.5975 103.605 72.942 107.564 72.4215C111.108 71.9559 112.681 69.8688 112.559 70.1367C112.559 70.1367 111.824 67.5791 110.535 64.9802C112.401 60.3952 112.349 58.1734 111.853 56.7007Z" fill="#03A9F4"/>
<path d="M105.604 72.5392C106.208 72.5463 106.864 72.5135 107.566 72.4212C110.797 71.9966 112.422 70.2263 112.557 70.1188C112.509 69.9007 111.766 67.4597 110.536 64.9799C111.479 62.6631 111.932 60.9505 112.086 59.6323C111.932 60.5932 110.511 64.316 108.652 65.4325C108.652 65.4325 109.701 65.5958 110.598 66.8275C111.494 68.0574 110.759 72.275 105.604 72.5392Z" fill="#0694D3"/>
<path d="M104.249 55.7833C102.703 55.9777 101.48 56.3007 100.806 57.774C99.6626 60.2727 98.4255 62.3225 97.5251 63.2871C96.5633 64.3174 92.6224 66.1293 91.7336 65.9856C90.8451 65.8419 89.9588 64.8187 89.5011 65.0829C89.0434 65.3471 89.8903 66.3381 89.836 66.5613C89.7817 66.7842 88.169 66.6659 87.4071 66.1282C86.6453 65.5904 86.3639 66.701 87.3486 67.8555C88.3333 69.0099 90.1842 69.0996 92.1941 68.6965C94.204 68.2931 97.9975 67.2354 99.5384 65.9661C101.408 64.4263 102.043 63.26 102.839 61.8801C105.721 58.9109 104.249 55.7833 104.249 55.7833Z" fill="#FAC39A"/>
</svg>
