<svg width="31" height="31" viewBox="0 0 31 31" fill="none" xmlns="http://www.w3.org/2000/svg">
<mask id="path-1-inside-1_131_3474" fill="white">
<path fill-rule="evenodd" clip-rule="evenodd" d="M15.277 15.1874C10.7574 15.1874 7.09521 11.8294 7.09521 7.68746C7.09521 3.54448 10.7574 0.1875 15.277 0.1875C19.7955 0.1875 23.4588 3.54448 23.4588 7.68746C23.4588 11.8294 19.7955 15.1874 15.277 15.1874ZM11.3259 30.1892C4.96813 30.1892 0.276367 29.8688 0.276367 25.8539C0.276367 21.0792 7.09019 16.5527 15.2759 16.5527C23.4615 16.5527 30.2758 21.0792 30.2758 25.8539C30.2758 29.8697 25.2277 30.1892 18.8688 30.1892C18.2785 30.1892 17.6737 30.1864 17.0571 30.1835C16.4158 30.1806 15.7616 30.1775 15.0974 30.1775C14.4324 30.1775 13.7781 30.1806 13.1368 30.1835C12.5204 30.1864 11.9161 30.1892 11.3259 30.1892Z"/>
</mask>
<path fill-rule="evenodd" clip-rule="evenodd" d="M15.277 15.1874C10.7574 15.1874 7.09521 11.8294 7.09521 7.68746C7.09521 3.54448 10.7574 0.1875 15.277 0.1875C19.7955 0.1875 23.4588 3.54448 23.4588 7.68746C23.4588 11.8294 19.7955 15.1874 15.277 15.1874ZM11.3259 30.1892C4.96813 30.1892 0.276367 29.8688 0.276367 25.8539C0.276367 21.0792 7.09019 16.5527 15.2759 16.5527C23.4615 16.5527 30.2758 21.0792 30.2758 25.8539C30.2758 29.8697 25.2277 30.1892 18.8688 30.1892C18.2785 30.1892 17.6737 30.1864 17.0571 30.1835C16.4158 30.1806 15.7616 30.1775 15.0974 30.1775C14.4324 30.1775 13.7781 30.1806 13.1368 30.1835C12.5204 30.1864 11.9161 30.1892 11.3259 30.1892Z" fill="white"/>
<path d="M17.0571 30.1835L17.046 32.5835L17.046 32.5835L17.0571 30.1835ZM13.1368 30.1835L13.1256 27.7836L13.1256 27.7836L13.1368 30.1835ZM4.69521 7.68746C4.69521 13.347 9.63252 17.5874 15.277 17.5874V12.7874C11.8822 12.7874 9.49521 10.3118 9.49521 7.68746H4.69521ZM15.277 -2.2125C9.63274 -2.2125 4.69521 2.0267 4.69521 7.68746H9.49521C9.49521 5.06227 11.882 2.5875 15.277 2.5875V-2.2125ZM25.8588 7.68746C25.8588 2.0265 20.9199 -2.2125 15.277 -2.2125V2.5875C18.6711 2.5875 21.0588 5.06247 21.0588 7.68746H25.8588ZM15.277 17.5874C20.9201 17.5874 25.8588 13.3472 25.8588 7.68746H21.0588C21.0588 10.3117 18.6709 12.7874 15.277 12.7874V17.5874ZM-2.12363 25.8539C-2.12363 27.367 -1.6632 28.7409 -0.669125 29.8372C0.274238 30.8776 1.51829 31.4683 2.73628 31.8286C5.09608 32.5265 8.21844 32.5892 11.3259 32.5892V27.7892C8.07563 27.7892 5.6732 27.6917 4.09767 27.2257C3.34799 27.0039 3.02174 26.7618 2.88672 26.6129C2.80241 26.5199 2.67637 26.3481 2.67637 25.8539H-2.12363ZM15.2759 14.1527C10.7641 14.1527 6.56186 15.3951 3.42153 17.3858C0.364252 19.3238 -2.12363 22.2907 -2.12363 25.8539H2.67637C2.67637 24.6424 3.59539 22.9587 5.99144 21.4398C8.30444 19.9736 11.602 18.9527 15.2759 18.9527V14.1527ZM32.6758 25.8539C32.6758 22.2906 30.1877 19.3237 27.1304 17.3857C23.9899 15.3951 19.7876 14.1527 15.2759 14.1527V18.9527C18.9497 18.9527 22.2474 19.9736 24.5605 21.4399C26.9567 22.9588 27.8758 24.6425 27.8758 25.8539H32.6758ZM18.8688 32.5892C21.9854 32.5892 25.1779 32.5249 27.6101 31.8369C28.855 31.4847 30.1354 30.909 31.1165 29.8901C32.1611 28.8053 32.6758 27.4163 32.6758 25.8539H27.8758C27.8758 26.2994 27.7594 26.4563 27.6588 26.5608C27.4947 26.7312 27.1156 26.9884 26.3036 27.2181C24.622 27.6938 22.1111 27.7892 18.8688 27.7892V32.5892ZM17.046 32.5835C17.6616 32.5864 18.2719 32.5892 18.8688 32.5892V27.7892C18.285 27.7892 17.6859 27.7864 17.0683 27.7836L17.046 32.5835ZM15.0974 32.5775C15.7551 32.5775 16.4038 32.5805 17.046 32.5835L17.0683 27.7836C16.4278 27.7806 15.7681 27.7775 15.0974 27.7775V32.5775ZM13.1479 32.5835C13.7901 32.5805 14.4389 32.5775 15.0974 32.5775V27.7775C14.426 27.7775 13.7661 27.7806 13.1256 27.7836L13.1479 32.5835ZM11.3259 32.5892C11.9227 32.5892 12.5327 32.5864 13.1479 32.5835L13.1256 27.7836C12.5082 27.7864 11.9096 27.7892 11.3259 27.7892V32.5892Z" fill="#FB8308" mask="url(#path-1-inside-1_131_3474)"/>
</svg>
