<svg width="27" height="25" viewBox="0 0 27 25" fill="none" xmlns="http://www.w3.org/2000/svg">
<path d="M22.5766 6.67969H22.3402V8.14618H22.7819V8.5879H13.0244V8.14618H13.4661V6.67969H13.2717C12.7991 6.67969 12.4126 7.06619 12.4126 7.53882V24.0724C12.4126 24.5472 12.7991 24.9337 13.274 24.9337H22.5766C23.0514 24.9337 23.4379 24.5472 23.4379 24.0724V7.53882C23.4379 7.06619 23.0514 6.67969 22.5766 6.67969ZM15.7564 23.7521H13.5942V21.5899H15.7564V23.7521ZM15.7564 20.691H13.5942V18.5266H15.7564V20.691ZM15.7564 17.6277H13.5942V15.4633H15.7564V17.6277ZM19.0052 23.7521H16.8452V21.5899H19.0052V23.7521ZM19.0052 20.691H16.8452V18.5266H19.0052V20.691ZM19.0052 17.6277H16.8452V15.4633H19.0052V17.6277ZM22.2563 23.7521H20.0941V21.5899H22.2563V23.7521ZM22.2563 20.691H20.0941V18.5266H22.2563V20.691ZM22.2563 17.6277H20.0941V15.4633H22.2563V17.6277ZM22.2563 13.661C22.2563 14.0122 21.9714 14.2993 21.618 14.2993H14.2325C13.8813 14.2993 13.5942 14.0122 13.5942 13.661V10.1693C13.5942 9.81588 13.8813 9.52877 14.2325 9.52877H21.618C21.9714 9.52877 22.2563 9.81588 22.2563 10.1693V13.661Z" fill="#8BC34A"/>
<path d="M14.9833 0.0234375C14.3892 0.0234375 13.9077 0.50712 13.9077 1.10123V8.14664H21.8984V1.26024C21.8984 0.845028 22.1215 0.28184 22.455 0.0234377L14.9833 0.0234375ZM20.4739 5.6421H15.3323V5.20038H20.4739V5.6421ZM20.4739 4.06295H15.3323V3.62123H20.4739V4.06295ZM20.4739 2.48602H15.3323V2.04431H20.4739V2.48602Z" fill="#8BC34A"/>
<path d="M25.154 5.05461H22.3491V1.26024C22.3491 0.931167 22.4772 0.619761 22.7113 0.38565C22.9454 0.153737 23.2547 0.0234375 23.5859 0.0234375C24.2684 0.0234375 24.8227 0.580008 24.8227 1.26024V4.18663C24.8227 4.52013 24.9486 4.82492 25.154 5.05461Z" fill="#8BC34A"/>
<path d="M27.0001 2.90039V4.18799C27.0001 4.66736 26.6115 5.05597 26.1321 5.05597H26.1317C25.6526 5.05597 25.2642 4.66757 25.2642 4.18846V2.90039H27.0001Z" fill="#8BC34A"/>
<path d="M11.7745 13.346V12.8994C11.7745 12.4996 11.4476 12.1727 11.0457 12.1727H0.729308C0.327356 12.1727 0.000488281 12.4996 0.000488281 12.8994V13.346H11.7745Z" fill="#8BC34A"/>
<path d="M11.7745 13.7871H0.000488281V14.913H11.7745V13.7871Z" fill="#8BC34A"/>
<path d="M8.34914 16.3009C8.02627 16.3009 7.76367 16.5625 7.76367 16.8839C7.76367 17.2053 8.02627 17.4667 8.34914 17.4667C8.67434 17.4667 8.92944 17.1949 8.92944 16.8839C8.92944 16.5684 8.67023 16.3009 8.34914 16.3009Z" fill="#8BC34A"/>
<path d="M9.18848 16.3037C9.29663 16.4602 9.37105 16.6758 9.37105 16.8854C9.37105 17.0977 9.29409 17.3141 9.18848 17.4669C9.49076 17.447 9.7306 17.1938 9.7306 16.8854C9.7306 16.5768 9.49065 16.3236 9.18848 16.3037Z" fill="#8BC34A"/>
<path d="M0.000488281 15.3545V18.0269C0.000488281 18.4289 0.327356 18.7557 0.729308 18.7557H11.0457C11.4476 18.7557 11.7745 18.4289 11.7745 18.0269V15.3545H0.000488281ZM9.15068 17.9076C9.00934 17.9076 8.87241 17.8789 8.74872 17.8259C8.62503 17.8789 8.4881 17.9076 8.34896 17.9076C7.78356 17.9076 7.32197 17.4482 7.32197 16.8828C7.32197 16.3174 7.78356 15.8581 8.34896 15.8581C8.4881 15.8581 8.62283 15.8868 8.74872 15.9398C8.87241 15.8868 9.00934 15.8581 9.15068 15.8581C9.71388 15.8581 10.1733 16.3174 10.1733 16.8828C10.1733 17.4482 9.71388 17.9076 9.15068 17.9076Z" fill="#8BC34A"/>
</svg>
