<svg width="136" height="138" viewBox="0 0 136 138" fill="none" xmlns="http://www.w3.org/2000/svg">
<path d="M128.515 97.7741V100.814C128.488 110.253 122.283 119.679 109.889 126.882C84.9428 141.379 44.3752 141.379 19.2656 126.882C6.62911 119.586 0.31712 110.01 0.343838 100.448V97.4083C0.316526 106.97 6.62853 116.546 19.265 123.842C44.3746 138.339 84.9422 138.339 109.888 123.842C122.283 116.639 128.488 107.213 128.515 97.7741Z" fill="#A9B1D4"/>
<mask id="mask0_94_3666" style="mask-type:luminance" maskUnits="userSpaceOnUse" x="0" y="97" width="129" height="41">
<path d="M128.515 97.7741V100.814C128.488 110.253 122.283 119.679 109.889 126.882C84.9428 141.379 44.3752 141.379 19.2656 126.882C6.62911 119.586 0.31712 110.01 0.343838 100.448V97.4083C0.316526 106.97 6.62853 116.546 19.265 123.842C44.3746 138.339 84.9422 138.339 109.888 123.842C122.283 116.639 128.488 107.213 128.515 97.7741Z" fill="white"/>
</mask>
<g mask="url(#mask0_94_3666)">
<path d="M3.22583 108.507V111.547C1.29441 107.937 0.333151 104.191 0.343838 100.448V97.4083C0.333151 101.152 1.29441 104.897 3.22583 108.507Z" fill="#A9B1D4"/>
</g>
<path d="M109.317 71.8335C121.77 79.0229 127.901 88.3675 127.952 97.5971C128.002 106.825 121.975 116.167 109.606 123.356C97.2388 130.543 80.964 134.152 64.6379 134.152C48.312 134.152 31.9956 130.543 19.5464 123.355L19.2652 123.842L19.5464 123.355C7.09394 116.165 0.959889 106.821 0.906601 97.5912C0.853323 88.3632 6.8776 79.021 19.2468 71.8327C31.6135 64.6461 47.891 61.0364 64.2198 61.0364C80.5485 61.0364 96.8677 64.646 109.317 71.8335Z" fill="#FAFAFC" stroke="#A9B1D4" stroke-width="1.125"/>
<path d="M64.6186 131.748C49.7349 131.748 34.8345 128.467 23.4662 121.904C12.2488 115.427 6.06386 106.764 6.0508 97.5112C6.03774 88.322 12.1259 79.7188 23.1943 73.2868C45.7859 60.1576 82.664 60.157 105.402 73.2851C116.616 79.7597 122.799 88.4206 122.813 97.6721C122.826 106.864 116.736 115.468 105.665 121.902C94.3701 128.466 79.5023 131.748 64.6186 131.748ZM64.2445 65.1568C49.6755 65.1568 35.1248 68.3689 24.0695 74.7932C13.5616 80.8997 7.78094 88.9668 7.79341 97.5083C7.80529 106.114 13.6809 114.242 24.3378 120.394C46.591 133.243 82.6818 133.243 104.788 120.396C115.3 114.287 121.082 106.218 121.07 97.6745C121.057 89.0707 115.184 80.9454 104.53 74.7943C93.4023 68.3695 78.8142 65.1568 64.2445 65.1568Z" fill="#A9B1D4"/>
<path d="M112.413 9.49705C112.76 10.3577 112.347 11.4904 112.713 12.2563C113.083 13.0322 114.072 13.0718 114.438 13.7894C115.684 16.2267 114.273 16.7349 114.43 18.586C114.606 20.6541 116.751 21.7159 114.929 23.8787C113.43 25.6596 110.394 25.3754 109.712 23.0189C109.761 22.9512 109.762 22.9521 109.715 23.0222C106.186 25.3459 103.436 19.1275 107.671 17.8875C106.12 16.7895 105.437 14.4424 107.198 13.0841C105.522 11.9271 105.628 9.63615 107.288 8.57417C107.555 8.40273 106.449 6.19318 108.665 6.00196C110.261 5.86426 111.927 8.29222 112.413 9.49705Z" fill="#133643"/>
<path d="M112.199 20.8312C113.918 20.7834 115.351 22.1373 115.399 23.8571C115.447 25.5758 114.51 30.0112 113.201 28.8961C110.627 26.7042 109.343 25.3857 109.294 23.6665C109.246 21.9472 110.48 20.8789 112.199 20.8312Z" fill="#E59375"/>
<path d="M114.427 22.6245L111.447 23.6152L110.908 26.7965C110.908 26.7965 117.466 34.7691 119.602 35.8799C121.878 37.0632 121.268 34.9912 121.119 34.1358C121.119 34.1358 116.113 23.7109 114.427 22.6245Z" fill="#E59375"/>
<path d="M120.923 36.1461C120.923 36.1461 126.483 33.3764 130.068 30.2734C130.068 30.2734 130.407 29.19 129.46 29.4316C128.553 29.6629 119.574 31.9947 118.998 32.735C118.422 33.4754 120.923 36.1461 120.923 36.1461Z" fill="#E59375"/>
<path d="M133.986 29.5351L133.124 29.9324C133.124 29.9324 134.873 29.5635 135.125 28.8124C135.125 28.8124 135.213 28.6694 134.925 28.5868C134.925 28.5868 133.529 29.2191 132.839 29.3443C132.839 29.3443 134.36 29.0001 135.28 28.425C135.28 28.425 135.536 27.9887 135.015 27.965C135.265 27.6935 134.901 27.6203 134.901 27.6203C134.901 27.6203 134.547 27.6024 133.8 27.7207C133.8 27.7207 132.648 27.8949 131.271 27.9419C131.271 27.9419 131.878 26.913 131.309 26.6059L130.287 28.0176L129.434 29.4405L129.686 30.3688L131.434 30.6297C131.434 30.6297 132.949 30.5136 133.678 30.1834C133.678 30.1833 135.696 29.0952 133.986 29.5351Z" fill="#FAC39A"/>
<path d="M112.905 20.83C112.905 20.83 115.305 21.2581 115.619 23.6011C115.619 23.6011 122.591 33.4171 121.306 36.1992C120.76 36.413 118.049 37.9856 109.641 25.9708C109.641 25.9708 107.388 19.9752 112.905 20.83Z" fill="#A04FB5"/>
<path d="M118.883 32.0212C118.883 32.0212 122.508 30.4654 129.107 29.0735C129.107 29.0735 130.24 30.2068 130.127 30.9595C130.127 30.9595 122.197 36.3336 121.033 36.2364C121.033 36.2364 118.393 34.3675 118.883 32.0212Z" fill="#A04FB5"/>
<path d="M106.547 100.758C108.025 101.445 109.647 101.35 109.647 101.35L108.297 99.9657C108.297 99.9657 107.13 97.3671 107.008 96.5285C106.93 95.9909 107.296 94.415 107.296 94.415L105.276 93.9915L104.968 95.1039L103.783 96.5984C103.783 96.5984 103.499 97.3778 104.9 97.9322C104.9 97.9322 105.607 99.347 106.547 100.758Z" fill="#FAC39A"/>
<path d="M108.296 99.966C107.693 100.071 106.732 99.8799 106.378 99.254C104.949 96.7346 104.968 95.1042 104.968 95.1042C103.672 95.928 103.686 96.9146 103.686 96.9146L103.657 97.3124L103.432 100.38L103.64 100.424L104.861 98.1714L105.635 100.78C108.821 102.114 109.853 101.433 109.853 101.433L108.296 99.966Z" fill="#2C080D"/>
<path d="M115.762 72.1941C115.762 72.1941 107.605 94.7873 107.118 95.7148C107.118 95.7148 104.711 95.3335 104.884 94.7749C105.3 93.4251 106.083 83.3918 106.535 81.2212C107.263 77.7359 107.909 75.5778 110.948 71.455C110.948 71.4551 115.567 69.3939 115.762 72.1941Z" fill="#273549"/>
<path d="M112.246 45.1143C112.246 45.1143 113.499 49.5257 114.059 52.3177C115.05 57.2568 115.448 69.9801 115.448 69.9801C115.448 69.9801 111.303 72.2246 110.727 71.1747C107.942 66.1063 107.615 67.4962 103.748 50.3315L112.246 45.1143Z" fill="#F7A483"/>
<path d="M103.98 50.8772C103.98 50.8772 105.549 63.8817 110.57 71.2511C110.57 71.2511 112.086 75.2608 115.763 72.1928C115.763 72.1928 116.22 51.0159 112.649 44.4662C112.649 44.4662 102.445 43.9618 103.98 50.8772Z" fill="#273549"/>
<path d="M108.764 36.5257C109.158 36.4542 110.785 37.2939 110.785 37.2939C110.785 37.2939 112.817 43.8241 112.904 44.8173C112.992 45.8091 106.163 50.9496 98.5352 48.0228C98.5352 48.0228 102.067 38.8271 102.283 36.5623C102.499 34.2975 108.764 36.5257 108.764 36.5257Z" fill="#E79675"/>
<path d="M110.785 37.2941C110.785 37.2941 112.733 43.1832 112.904 44.8174C113.512 50.6026 105.684 53.0287 98.0559 50.1018C98.0559 50.1018 97.5609 42.1481 102.283 36.5625C102.283 36.5625 103.538 37.7068 110.785 37.2941Z" fill="#273549"/>
<path d="M103.574 54.3938L98.0566 51.3655C98.0566 51.3655 98.9516 68.8199 99.6507 73.7224C99.6507 73.7224 102.737 74.5816 103.693 73.947C106.555 67.2346 108.212 52.6608 108.212 52.6608L103.574 54.3938Z" fill="#202E41"/>
<path d="M100.231 46.2573C100.231 46.2573 97.5835 47.0214 98.1313 51.9269C98.6664 56.7177 107.477 57.1728 108.3 52.2603C109.186 46.9749 104.897 44.1738 100.231 46.2573Z" fill="#202E41"/>
<path d="M103.952 20.4879H109.262C109.021 19.7143 108.521 17.7132 109.295 16.3516L103.93 12.8291C103.93 12.8291 104.884 18.74 103.952 20.4879Z" fill="#FAC39A"/>
<path d="M108.881 18.1661C108.866 17.5746 108.963 16.9346 109.295 16.3516L103.93 12.8291C103.93 12.8291 104.319 15.2381 104.358 17.4351C106.295 18.0511 107.092 18.2896 108.881 18.1661Z" fill="#F99D6E"/>
<path d="M100.303 20.9461C97.9126 22.1146 99.2413 24.9229 99.2413 24.9229L102.472 36.6785C102.472 36.6785 105.489 37.912 110.785 37.2943C111.521 36.2414 113.032 31.8316 113.539 28.4643C113.956 25.691 115.251 22.9584 113.84 21.4119C113.299 20.819 109.178 20.2275 109.157 20.1307H104.197L100.303 20.9461Z" fill="#FAC39A"/>
<path d="M110.12 16.8344L110.441 16.0513L111.247 13.7397C111.361 13.3719 111.432 12.8651 111.322 12.4945C111.191 12.0494 111.108 11.3307 111.312 10.5419C111.858 8.42861 110.967 7.26618 110.967 7.26618C109.82 5.23933 106.878 5.09924 106.878 5.09924C103.232 5.1034 102.757 8.60934 102.757 8.60934C102.053 10.9226 103.823 12.9622 103.826 12.9658C104.05 13.2235 104.055 13.6239 104.154 13.9342C104.259 14.2657 104.428 14.5785 104.642 14.851C105.124 15.4631 105.762 16.0585 106.43 16.4426C107.063 16.8066 108.305 17.2102 109.199 17.246C109.571 17.2611 109.935 17.2836 110.12 16.8344Z" fill="#FAC39A"/>
<path d="M104.165 14.3433C104.23 12.6818 104.267 12.7856 104.267 12.7856C104.331 12.3025 105.229 13.3967 105.242 12.7638C105.298 9.86613 106.42 8.54199 106.842 8.34056C107.989 7.79336 109.176 7.6794 110.1 7.89267C111.551 8.22695 111.396 10.1718 111.396 10.1718C113.005 3.10401 104.936 4.97879 104.936 4.97879C101.012 5.79898 101.226 9.46917 101.226 9.46917C100.552 13.3636 104.296 15.8169 104.296 15.8169L104.165 14.3433Z" fill="#133643"/>
<path d="M104.453 13.7896C104.317 13.8832 104.148 13.9319 103.94 13.9175C103.378 13.8812 102.936 13.3298 102.956 12.6885C102.975 12.0477 103.446 11.5575 104.009 11.5941C104.275 11.6114 104.514 11.7449 104.69 11.9479C104.946 12.2447 104.928 12.7669 104.846 13.123C104.78 13.408 104.654 13.649 104.453 13.7896Z" fill="#F8A07D"/>
<path d="M104.202 12.2026C104.186 11.8644 103.489 12.1512 103.582 12.3462C103.636 12.4582 103.751 12.5445 103.841 12.6255C103.964 12.7366 104.023 12.8356 104.031 13.0038C104.033 13.023 104.034 13.0819 104.014 13.0945C103.923 13.151 103.65 12.8079 103.591 12.7352C103.473 12.5927 103.468 12.3591 103.537 12.1935C103.609 12.0171 103.731 11.9387 103.922 11.9604C104.075 11.9769 104.231 11.9954 104.211 12.185C104.211 12.1889 104.203 12.2196 104.202 12.2026Z" fill="#E98B6F"/>
<path d="M103.966 12.5406C104.041 12.4732 104.106 12.536 104.175 12.5913C104.24 12.6444 104.273 12.7156 104.287 12.7957C104.317 12.9729 104.282 13.2053 104.174 13.3531C104.086 13.4717 103.946 13.5401 103.799 13.5286C103.594 13.5124 103.542 13.3285 103.543 13.1546C103.543 13.1084 103.545 12.9984 103.591 12.9719C103.643 12.9431 103.674 13.0212 103.704 13.0553C103.748 13.1008 103.815 13.1216 103.875 13.1299C103.991 13.1459 104.109 13.092 104.186 13.0094C104.2 12.9946 104.213 12.9769 104.22 12.9582C104.215 13.0718 104.207 13.096 104.199 13.0336C104.191 13.0041 104.179 12.9769 104.164 12.951C104.121 12.8707 104.043 12.8126 103.994 12.7351C103.97 12.6994 103.929 12.575 103.966 12.5406Z" fill="#E98B6F"/>
<path d="M104.468 13.9099C104.457 14.1 104.295 14.2472 104.105 14.237C103.914 14.2277 103.768 14.0653 103.778 13.8752C103.788 13.6846 103.949 13.5379 104.14 13.5476C104.331 13.5574 104.477 13.7197 104.468 13.9099Z" fill="white"/>
<path d="M110.615 20.4185L112.907 20.8298C112.907 20.8298 114.577 21.1957 114.632 22.6247C114.632 22.6247 114.725 25.3328 113.251 30.2296C113.251 30.2296 110.814 22.7158 110.615 20.4185Z" fill="#D17DE6"/>
<path d="M110.029 20.329L111.062 20.4881C111.062 20.4881 113.065 24.3613 113.539 28.4643C113.032 31.8316 112.016 36.93 110.785 37.2943C106.61 38.5287 102.252 36.588 102.252 36.588L100.256 28.6164C105.618 26.5293 102.908 20.4006 102.908 20.4006L104.035 20.1307L108.774 24.9215L110.029 20.329Z" fill="#D17DE6"/>
<path d="M112.147 22.9724C112.147 22.9724 114.243 25.8745 114.608 27.3695C114.848 28.352 113.135 30.5649 111.752 30.9553C110.996 31.1685 110.978 23.1684 112.147 22.9724Z" fill="#D17DE6"/>
<path d="M108.064 21.4645L108.004 24.1533L107.014 23.1852L108.064 21.4645Z" fill="#EDBBFA"/>
<path d="M108.063 21.4044C108.063 21.4044 105.059 20.1745 104.314 18.9502L102.91 20.4001L106.554 23.9339L108.062 21.4646" fill="#A04FB5"/>
<path d="M110.734 21.5412C110.734 21.5412 110.443 20.4154 109.016 19.464L109.202 23.3455C109.202 23.3455 109.994 21.3599 110.734 21.5412Z" fill="#A04FB5"/>
<path d="M110.865 23.3454L110.735 21.5411C110.299 21.4343 109.91 22.0446 109.592 22.5445L110.865 23.3454Z" fill="#EDBBFA"/>
<path d="M102.578 101.843C104.165 102.211 105.733 101.786 105.733 101.786L104.128 100.709C104.128 100.709 102.451 98.4047 102.16 97.6088C101.974 97.0987 102.009 95.4812 102.009 95.4812H99.9456L99.8724 96.6329L99.0198 98.3385C99.0198 98.3385 98.901 99.1603 100.386 99.415C100.386 99.415 101.369 100.654 102.578 101.843Z" fill="#FAC39A"/>
<path d="M104.128 100.709C103.559 100.935 102.58 100.945 102.104 100.406C100.189 98.2327 99.8728 96.6334 99.8728 96.6334C98.7734 97.7056 98.9899 98.6686 98.9899 98.6686L99.0433 99.0642L99.4525 102.113H99.6643L100.398 99.6568L101.69 102.051C105.082 102.703 105.953 101.825 105.953 101.825L104.128 100.709Z" fill="#2C080D"/>
<path d="M99.4346 71.9011L103.943 73.2355C103.943 73.2355 102.393 94.862 102.193 95.8901C102.193 95.8901 99.7778 96.2158 99.783 95.6309C99.7937 94.2189 98.1358 85.3942 97.9767 83.183C97.703 79.3824 96.6701 76.833 99.4346 71.9011Z" fill="#202E41"/>
<path d="M101.457 20.8314C99.7384 20.7835 98.3055 22.1375 98.2576 23.8573C98.2097 25.576 99.1463 30.0114 100.456 28.8963C103.029 26.7043 104.314 25.3859 104.362 23.6666C104.411 21.9474 103.177 20.879 101.457 20.8314Z" fill="#A04FB5"/>
<path d="M99.2273 22.6248L102.208 23.6155L102.746 26.7968C102.746 26.7968 96.1889 34.7695 94.0526 35.8802C91.7764 37.0636 92.387 34.9916 92.5358 34.1362C92.5358 34.1362 97.5421 23.7113 99.2273 22.6248Z" fill="#A04FB5"/>
<path d="M92.7316 36.1457C92.7316 36.1457 87.171 33.376 83.5863 30.2731C83.5863 30.2731 83.2474 29.1896 84.1946 29.4312C85.1015 29.6626 94.0798 31.9943 94.6558 32.7346C95.2323 33.475 92.7316 36.1457 92.7316 36.1457Z" fill="#A04FB5"/>
<path d="M79.6687 29.5348L80.5312 29.9321C80.5312 29.9321 78.7819 29.5631 78.5302 28.8121C78.5302 28.8121 78.4416 28.669 78.7299 28.5865C78.7299 28.5865 80.1262 29.2187 80.816 29.3439C80.816 29.3439 79.295 28.9997 78.3756 28.4247C78.3756 28.4247 78.1194 27.9883 78.6394 27.9647C78.3905 27.6931 78.7542 27.6199 78.7542 27.6199C78.7542 27.6199 79.1077 27.602 79.8553 27.7203C79.8553 27.7203 81.0072 27.8945 82.3836 27.9416C82.3836 27.9416 81.7773 26.9126 82.3462 26.6055L83.3684 28.0172L84.2215 29.4402L83.9695 30.3685L82.2211 30.6293C82.2211 30.6293 80.7054 30.5132 79.9775 30.183C79.9775 30.183 77.9593 29.0948 79.6687 29.5348Z" fill="#F99D6E"/>
<path d="M104.014 25.9709C95.6053 37.9858 92.8948 36.4132 92.3487 36.1994C91.0638 33.4173 97.7912 23.3454 97.7912 23.3454C98.8747 21.0079 100.749 20.8302 100.749 20.8302L102.91 20.4004L104.296 22.167C104.296 22.167 105.172 24.031 104.014 25.9709Z" fill="#A04FB5"/>
<path d="M94.7699 32.0208C94.7699 32.0208 91.1451 30.4649 84.5453 29.073C84.5453 29.073 83.4129 30.2063 83.5254 30.959C83.5254 30.959 91.4558 36.3331 92.6195 36.236C92.6195 36.236 95.2594 34.367 94.7699 32.0208Z" fill="#A04FB5"/>
<path d="M99.774 9.49705C99.4276 10.3577 99.8403 11.4904 99.4746 12.2563C99.104 13.0322 98.1155 13.0718 97.7487 13.7894C96.5035 16.2267 97.9141 16.7349 97.7578 18.586C97.5817 20.6541 95.4366 21.7159 97.2582 23.8787C98.7579 25.6596 101.794 25.3754 102.476 23.0189C102.426 22.9512 102.425 22.9521 102.472 23.0222C106.002 25.3459 108.751 19.1275 104.516 17.8875C106.068 16.7895 106.751 14.4424 104.989 13.0841C106.665 11.9271 106.56 9.63615 104.9 8.57417C104.632 8.40273 105.738 6.19318 103.523 6.00196C101.926 5.86426 100.26 8.29222 99.774 9.49705Z" fill="#133643"/>
<path d="M112.549 32.7706C112.549 32.7706 112.074 41.5756 115.619 46.2002C115.619 46.2002 105.885 50.4578 96.7363 46.3259C97.5884 43.6437 97.3952 43.647 100.257 37.4687C100.257 37.4687 101.69 34.3392 101.297 32.7706H112.549Z" fill="#D17DE6"/>
<path d="M24.1504 6.74023C24.1504 6.74023 21.0189 6.74326 21.5637 3.18091C21.5637 3.18091 23.4496 4.9618 25.4688 4.22472C25.4688 4.22472 25.6218 6.61564 24.1504 6.74023Z" fill="#133643"/>
<path d="M18.475 23.5358L17.4793 23.7526C17.4793 23.7526 14.7569 35.467 15.7812 38.2481C16.8058 41.0293 18.4519 38.2758 18.9661 38.0244C19.4798 37.7726 24.0315 24.8814 24.0315 24.8814L18.475 23.5358Z" fill="#424F70"/>
<path d="M15.0451 36.7814L16.8349 23.1763C17.9004 19.5966 21.8342 20.9186 21.8342 20.9186C24.7844 22.0127 24.315 24.3343 24.315 24.3343L20.2748 38.3133C20.2748 38.3133 19.5094 40.4357 16.7061 40.1534C16.7061 40.1534 14.6654 39.6658 15.0451 36.7814Z" fill="#424F70"/>
<path d="M19.8655 96.5509C19.8655 96.5509 19.3369 98.6081 18.6873 99.166C18.038 99.724 15.56 100.545 15.56 100.545L14.1871 100.742C14.1871 100.742 13.2329 101.426 15.8522 102.146C18.4709 102.866 23.0674 100.694 23.0674 100.694L22.031 96.4885L19.8655 96.5509Z" fill="#2C080D"/>
<path d="M33.6757 101.028C34.1379 100.308 35.1069 96.3828 35.1069 96.3828L37.2466 96.3179L38.5859 100.64C38.5859 100.64 38.8008 101.363 38.3634 101.634C38.3634 101.634 35.6952 102.56 33.416 101.59C33.416 101.59 33.4402 101.397 33.6757 101.028Z" fill="#2C080D"/>
<path d="M20.4112 41.4242L17.6786 24.725C17.6786 24.725 16.7374 22.2147 18.6203 20.9602L25.7965 17.5868H30.8578L39.4852 22.6858L33.83 41.4242H20.4112Z" fill="#F7A483"/>
<path d="M33.829 41.4243C33.829 41.4243 35.3788 44.9627 35.7527 53.0972C35.7527 53.0972 24.0891 56.7555 20.4308 53.0972L20.4102 41.4243H33.829Z" fill="#202E41"/>
<path d="M26.1837 53.0616C26.1639 55.7915 28.2898 58.0203 30.9322 58.0396C33.575 58.0588 35.7337 55.8619 35.7538 53.1321C35.7733 50.4025 33.6477 48.1742 31.0054 48.1547C28.3625 48.1352 26.2039 50.3327 26.1837 53.0616Z" fill="#202E41"/>
<path d="M35.7492 53.7338L37.0179 76.9802C37.0179 76.9802 34.772 79.9266 30.7958 76.6028L26.4785 55.2195C26.4785 55.2195 28.5742 48.0332 35.7492 53.7338Z" fill="#202E41"/>
<path d="M36.0276 74.266C36.0276 74.266 38.2132 78.4231 37.8577 85.2194L38.2132 97.9256L34.6068 98.0332L30.8164 76.6684C30.8164 76.6684 32.8242 69.496 36.0276 74.266Z" fill="#202E41"/>
<path d="M20.4557 53.1101C20.1789 55.8256 21.1488 58.1491 23.7782 58.4171C26.4073 58.6855 28.7632 56.7014 29.0403 53.9858C29.3171 51.2698 27.4104 48.8514 24.7813 48.5834C22.1521 48.3149 20.7328 50.3945 20.4557 53.1101Z" fill="#202E41"/>
<path d="M27.9171 56.6853L25.2195 77.9333C25.2195 77.9333 20.4462 78.5683 19.5163 75.319C19.5163 75.319 19.4566 60.3207 20.4545 53.1101C20.4545 53.1101 26.9211 49.9604 27.9171 56.6853Z" fill="#202E41"/>
<path d="M24.9182 76.0503C24.9182 76.0503 25.781 79.233 24.9873 84.3617L23.0283 98.7135L19.168 98.4409L19.5158 75.3191C19.5158 75.3191 21.64 72.1058 24.9182 76.0503Z" fill="#202E41"/>
<path d="M38.7303 24.739L39.7137 25.0017C39.7137 25.0017 41.2486 36.7769 40.0967 39.5075C38.9461 42.2379 37.8632 39.5295 37.3613 39.2547C36.8592 38.9793 33.1172 25.8276 33.1172 25.8276L38.7303 24.739Z" fill="#F7A483"/>
<path d="M36.0892 39.1488L32.8652 25.2807C33.5308 21.5304 37.1006 21.7942 37.1006 21.7942C40.2346 22.079 40.3887 24.4424 40.3887 24.4424L40.5961 38.5468C40.5961 38.5468 40.8027 40.9575 38.9858 40.8296C38.9858 40.8296 36.3855 40.4232 36.0892 39.1488Z" fill="#001940"/>
<path d="M30.8829 13.8986V19.3082H25.1621C25.1621 19.3082 26.5691 17.1635 25.8653 13.8986H30.8829Z" fill="#F7A483"/>
<path d="M27.9808 18.4924C27.4646 18.8239 26.3696 19.5302 25.7437 19.1172C25.5758 19.0058 25.498 18.86 25.4727 18.6976C25.8405 17.8409 26.3464 16.1321 25.8653 13.8986H30.8827V14.3891C30.2564 15.9725 29.4532 17.5426 27.9808 18.4924Z" fill="#F99D6E"/>
<path d="M31.0178 13.9743C31.0178 13.9743 31.9914 13.5517 33.0936 11.1421C33.0936 11.1421 35.4872 8.2926 33.7905 5.05762C33.7905 5.05762 32.7884 2.32201 27.9313 3.08768C27.9313 3.08768 27.4944 10.4194 31.0178 13.9743Z" fill="#F8A07D"/>
<path d="M25.0367 15.437L24.7126 14.5893C24.7126 14.5893 23.8187 11.4333 23.8187 11.4328C23.7065 11.0361 23.6998 10.5048 23.772 10.0968C23.8506 9.65327 23.9007 9.18968 23.7852 8.72144C23.2212 6.45188 24.3844 5.16346 24.3844 5.16346C25.6663 3.02265 28.8209 2.95172 28.8209 2.95172C32.7274 3.05321 33.1437 6.82138 33.1437 6.82138C33.8351 9.31787 31.8858 11.4556 31.8817 11.4603C31.726 11.6306 31.8274 12.4554 31.7848 12.6915C31.6019 13.6982 30.6571 14.3367 29.8176 14.7811C28.8946 15.2689 27.777 15.7908 26.7349 15.9105C26.3397 15.9565 25.2221 15.9237 25.0367 15.437Z" fill="#FAC39A"/>
<path d="M34.7588 40.9708C34.747 41.5268 35.5919 47.3474 35.237 47.4217C35.2346 47.4223 25.5808 49.6473 20.4318 47.4217L20.4112 41.4242L17.6786 24.725C17.6786 24.725 16.7374 22.2147 18.6203 20.9602L25.7965 17.5868L25.3118 19.0417L26.3498 21.9924L30.8578 17.5868L39.4852 22.6858C39.0029 24.2838 38.524 25.882 38.0417 27.4796C37.1519 30.4248 36.2869 33.3789 35.3704 36.3162C35.3704 36.3162 34.6122 39.5016 34.7588 40.9708Z" fill="white"/>
<path d="M26.9707 18.6371L27.0309 21.3256L28.0211 20.3572L26.9707 18.6371Z" fill="#D1D3D4"/>
<path d="M25.7109 22.9717C25.7109 23.1838 25.8827 23.3555 26.0947 23.3555C26.306 23.3555 26.4777 23.1837 26.4777 22.9717C26.4777 22.7604 26.306 22.5884 26.0947 22.5884C25.8827 22.5884 25.7109 22.7604 25.7109 22.9717Z" fill="#CFEAE6"/>
<path d="M25.7109 29.9385C25.7109 30.1498 25.8827 30.3215 26.0947 30.3215C26.306 30.3215 26.4777 30.1498 26.4777 29.9385C26.4777 29.7258 26.306 29.5547 26.0947 29.5547C25.8827 29.5547 25.7109 29.7258 25.7109 29.9385Z" fill="#CFEAE6"/>
<path d="M25.7109 36.9047C25.7109 37.1171 25.8827 37.2891 26.0947 37.2891C26.306 37.2891 26.4777 37.1171 26.4777 36.9047C26.4777 36.6931 26.306 36.5215 26.0947 36.5215C25.8827 36.5214 25.7109 36.6931 25.7109 36.9047Z" fill="#CFEAE6"/>
<path d="M25.7109 43.8706C25.7109 44.0819 25.8827 44.2541 26.0947 44.2541C26.306 44.2541 26.4777 44.0819 26.4777 43.8706C26.4777 43.6585 26.306 43.4868 26.0947 43.4868C25.8827 43.4868 25.7109 43.6585 25.7109 43.8706Z" fill="#E6E7E8"/>
<path d="M26.9707 21.6321V48.0697" stroke="#E6E7E8" stroke-width="0.375" stroke-miterlimit="10"/>
<path d="M20.4894 47.9732C20.4894 47.9732 25.4208 50.2835 35.5125 47.9223C35.6787 47.8827 35.6088 47.4524 35.6088 47.4524L35.5125 46.4806C35.4691 46.1692 35.2949 46.184 35.2949 46.184C35.293 46.1846 25.6387 48.4096 20.4894 46.184C20.4894 46.184 20.2817 46.1477 20.2734 46.4594V47.6708C20.2734 47.6708 20.2734 47.9127 20.4894 47.9732Z" fill="#471F08"/>
<path d="M25.498 48.7063C25.498 48.8601 25.6205 48.9853 25.771 48.9853H27.7349C27.8848 48.9853 28.0069 48.8601 28.0069 48.7063V47.2919C28.0069 47.1381 27.8848 47.0132 27.7349 47.0132H25.771C25.6205 47.0132 25.498 47.1381 25.498 47.2919V48.7063Z" stroke="#BCBEC0" stroke-width="0.375" stroke-miterlimit="10"/>
<path d="M26.9708 18.5767C26.9708 18.5767 30.1369 17.3472 30.882 16.1229L31.8171 17.9059L28.4801 21.1063L26.9707 18.6372" fill="#E6E7E8"/>
<path d="M24.2604 5.32591C24.4026 4.29498 27.7617 4.84556 28.6409 5.0065C29.1698 5.10362 29.7904 5.26484 30.0785 5.78513C30.1847 5.9772 30.6092 7.32008 30.0867 7.99278C30.5484 9.43828 30.6571 10.5564 30.6571 10.5564L30.924 10.5713C31.4495 11.926 31.5524 13.5542 31.5524 13.5542C31.5524 13.5542 33.5118 12.7093 34.8724 9.1321C36.25 4.57707 32.8642 2.57001 32.8642 2.57001C29.7591 1.22242 26.66 1.59113 26.66 1.59113C26.66 1.59113 23.5365 1.87674 22.8308 0.0124512C22.8308 0.0124512 20.8524 4.29118 24.2604 5.32591Z" fill="#133643"/>
<path d="M31.2984 11.8261C31.4365 11.943 31.6184 12.0157 31.8481 12.0228C32.471 12.0424 33.0141 11.4844 33.062 10.7765C33.1098 10.07 32.6446 9.48042 32.0222 9.46056C31.7275 9.45148 31.4494 9.57199 31.2351 9.77667C30.9223 10.0754 30.8856 10.6513 30.9373 11.0521C30.9795 11.3724 31.0909 11.6509 31.2984 11.8261Z" fill="#FAC39A"/>
<path d="M31.7393 10.1098C31.793 9.73974 32.5281 10.1299 32.4049 10.3338C32.3333 10.4518 32.1974 10.5332 32.0901 10.613C31.9429 10.7231 31.8687 10.8249 31.8403 11.0087C31.8361 11.0299 31.8296 11.0942 31.8502 11.1107C31.9443 11.1828 32.2802 10.8336 32.3539 10.7613C32.4981 10.6171 32.5292 10.3602 32.4714 10.1706C32.4101 9.96949 32.2849 9.86962 32.0716 9.87314C31.9027 9.87476 31.7299 9.87835 31.7305 10.0886C31.7305 10.0936 31.7363 10.1288 31.7393 10.1098Z" fill="#E98B6F"/>
<path d="M31.9598 10.5071C31.8861 10.4248 31.808 10.4862 31.7249 10.5407C31.6487 10.591 31.6032 10.6664 31.5801 10.7539C31.5282 10.9448 31.5425 11.2043 31.6451 11.3779C31.7285 11.5184 31.8748 11.6087 32.0391 11.612C32.2658 11.6153 32.3417 11.4186 32.3602 11.2273C32.3648 11.1764 32.3742 11.0548 32.3253 11.0213C32.2736 10.9852 32.2303 11.0667 32.1923 11.1013C32.1398 11.1473 32.0649 11.1618 31.9975 11.1646C31.8676 11.1701 31.745 11.0985 31.6676 10.9987C31.6544 10.9811 31.6428 10.9599 31.6363 10.9387C31.6311 11.0641 31.6357 11.093 31.6523 11.0243C31.6641 10.9924 31.6795 10.9641 31.6996 10.9379C31.7554 10.8531 31.8471 10.7978 31.909 10.7183C31.9392 10.6813 31.997 10.5495 31.9598 10.5071Z" fill="#E98B6F"/>
<path d="M32.2909 18.4344L28.4531 31.9146L29.0229 56.4074C29.0229 56.4074 35.6081 56.8982 38.2136 54.5403L35.7539 39.3782L39.485 22.6859L32.2909 18.4344Z" fill="#273549"/>
<path d="M23.7937 18.5288L19.4238 20.5826C19.4238 20.5826 16.9364 21.2393 17.4445 23.8162L18.8823 38.0915L16.5 54.5401C16.5 54.5401 18.544 56.994 22.6134 55.5523L24.4053 31.5507L23.7937 18.5288Z" fill="#273549"/>
<path d="M24.2988 18.713C24.2988 18.713 24.5899 17.5866 26.017 16.6355L25.8305 20.517C25.8305 20.517 25.0381 18.5313 24.2988 18.713Z" fill="#E6E7E8"/>
<path d="M24.1699 20.5165L24.2998 18.7125C24.7356 18.6055 25.1252 19.2158 25.4424 19.7159L24.1699 20.5165Z" fill="#D1D3D4"/>
<path d="M27.2852 19.6084L27.4021 19.3903L28.1978 20.6118L27.5136 20.8558L27.2852 19.6084Z" fill="#F84F57"/>
<path d="M25.4423 19.7162L25.2192 19.3743C25.2192 19.3743 24.3688 20.0888 25.2616 20.8558C25.2616 20.8558 25.2616 20.2235 25.4423 19.7162Z" fill="#F84F57"/>
<path d="M27.2844 19.6084C27.2844 19.6084 26.6096 20.2082 25.4422 19.7162C25.1872 20.0409 25.1877 20.4542 25.2615 20.8558L25.8662 22.1027H26.7111L27.5129 20.8558C27.5129 20.8558 27.5957 20.5807 27.2844 19.6084Z" fill="#F84F57"/>
<path d="M26.7114 22.1024L27.3931 39.9456L25.9691 42.7176L24.8066 39.96L25.8664 22.1024H26.7114Z" fill="#F84F57"/>
<path d="M31.4297 33.4113L33.1839 32.0255C33.1839 32.0255 35.8254 31.6381 37.1446 31.8045C37.1446 31.8045 37.5802 32.4109 34.2489 32.5039C34.2489 32.5039 36.5853 33.2501 37.3358 33.8055C37.3358 33.8055 37.4558 34.497 35.3194 33.4928L34.3471 33.4212L36.6073 34.5495C36.6073 34.5495 36.5192 34.9797 34.461 34.4207L32.3967 34.6469L31.4297 33.4113Z" fill="#FAC39A"/>
<path d="M20.1935 33.6687L31.4991 32.3167C32.0647 33.0067 32.6092 34.2605 32.3671 35.5726L17.9256 40.1529C17.9256 40.1529 14.1101 40.8297 15.1162 36.2348C15.1162 36.2348 16.7282 33.8918 20.1935 33.6687Z" fill="#424F70"/>
<path d="M20.1945 33.6684C20.1945 33.6684 22.2261 34.7637 22.9879 34.8503L24.1698 32.8105L22.5551 31.7631L21.4479 31.5081C21.4479 31.5081 19.6263 31.0381 19.1465 33.5374L20.1945 33.6684Z" fill="#FAC39A"/>
<path d="M40.4083 37.6246C41.0909 41.7556 38.0867 40.7121 38.0867 40.7121L22.7676 35.1988C23.1993 32.825 24.1705 32.4536 24.1705 32.4536L37.2729 34.9534C37.2729 34.9534 39.738 35.7282 40.4083 37.6246Z" fill="#273549"/>
<path d="M48.3605 13.1112C48.3605 13.1112 50.1862 14.7944 49.9906 20.2632V36.8083C49.9906 36.8083 50.0987 38.5028 51.5027 39.6243C51.5027 39.6243 39.5069 43.1487 38.483 37.7699V20.6082C38.483 20.6082 37.9262 13.3874 40.7066 12.0902C40.7066 12.0902 45.6274 10.0622 48.3605 13.1112Z" fill="#133643"/>
<path d="M49.6977 27.2975C52.1821 28.4861 50.8538 31.2943 50.8538 31.2943L47.6236 43.0494C47.6236 43.0494 44.6057 44.2833 39.31 43.6657C38.5743 42.6128 37.0628 38.203 36.5562 34.8357C36.1394 32.0625 34.8439 29.3299 36.255 27.7834C36.7959 27.1905 40.9173 26.599 40.9379 26.5018L45.803 26.4821L49.6977 27.2975Z" fill="#FAC39A"/>
<path d="M46.1155 57.2494C46.1155 57.2494 44.5447 70.2537 39.5248 77.6233C39.5248 77.6233 37.1837 81.5576 34.3315 78.5648C34.3315 78.5648 33.8745 57.3881 37.4454 50.8381C37.4454 50.8381 47.6493 50.334 46.1155 57.2494Z" fill="#FAC39A"/>
<path d="M38.7461 26.8588C37.0269 26.8109 34.743 28.5085 34.6951 30.228C34.6472 31.947 35.5843 36.3824 36.8934 35.2673C39.4675 33.0753 40.7518 31.7566 40.7997 30.0376C40.8481 28.3181 40.4654 26.9064 38.7461 26.8588Z" fill="#FAC39A"/>
<path d="M35.5972 29.4964L38.7353 29.3583L40.3732 32.1379C40.3732 32.1379 37.092 41.9256 35.4927 43.7255C33.7885 45.6431 33.6196 43.4897 33.4531 42.6371C33.4531 42.6371 34.4103 31.1125 35.5972 29.4964Z" fill="#FAC39A"/>
<path d="M35.7234 107.816C34.1167 108.09 32.5762 107.572 32.5762 107.572L34.2429 106.591C34.2429 106.591 36.0527 104.391 36.3905 103.614C36.607 103.116 36.6679 101.499 36.6679 101.499L38.7281 101.621L38.7327 102.775L39.4827 104.529C39.4827 104.529 39.5523 105.355 38.0542 105.522C38.0542 105.522 37.0006 106.701 35.7234 107.816Z" fill="#FAC39A"/>
<path d="M34.2442 106.592C34.7989 106.851 35.7759 106.919 36.2826 106.409C38.3238 104.354 38.7341 102.776 38.7341 102.776C39.768 103.911 39.4945 104.859 39.4945 104.859L39.4178 105.251L38.8293 108.27L38.6171 108.258L38.0309 105.763L36.5985 108.076C33.174 108.526 32.3574 107.597 32.3574 107.597L34.2442 106.592Z" fill="#133643"/>
<path d="M34.332 78.5643C34.332 78.5643 36.4453 100.476 36.6706 101.499C36.6706 101.499 38.7509 102.206 38.7308 101.621C38.6849 100.21 40.7359 91.1808 40.8705 88.9677C41.0848 85.4141 40.5067 83.0489 38.6582 78.2718C38.6582 78.2718 35.2573 75.9139 34.332 78.5643Z" fill="#FAC39A"/>
<path d="M41.3304 42.8972C40.9358 42.8257 39.3093 43.6657 39.3093 43.6657C39.3093 43.6657 37.277 50.1956 37.1903 51.1887C37.1023 52.1809 43.9312 57.3213 51.5597 54.3946C51.5597 54.3946 48.0279 45.1987 47.8116 42.9341C47.5956 40.6692 41.3304 42.8972 41.3304 42.8972Z" fill="#E79675"/>
<path d="M39.3106 43.6654C39.3106 43.6654 37.3627 49.5545 37.1915 51.1885C36.5832 56.9739 44.4115 59.3999 52.0399 56.4731C52.0399 56.4731 52.5346 48.5194 47.8128 42.9337C47.8129 42.9339 46.5588 44.0778 39.3106 43.6654Z" fill="#4C4EF8"/>
<path d="M46.5212 60.7652L52.0378 57.7366C52.0378 57.7366 51.1426 75.191 50.4437 80.0939C50.4437 80.0939 47.3573 80.9531 46.4015 80.3181C43.5402 73.6061 41.8828 59.0322 41.8828 59.0322L46.5212 60.7652Z" fill="#FAC39A"/>
<path d="M49.8636 52.6293C49.8636 52.6293 52.5112 53.3933 51.9631 58.2986C51.4282 63.0897 42.617 63.5444 41.7946 58.6323C40.909 53.3468 45.1974 50.5457 49.8636 52.6293Z" fill="#F7A483"/>
<path d="M46.1446 26.859H40.8346C41.0762 26.0854 41.5764 24.0844 40.8027 22.7225L46.1669 19.2003C46.1669 19.2003 45.2134 25.1112 46.1446 26.859Z" fill="#FAC39A"/>
<path d="M41.2162 24.5373C41.2308 23.9455 41.1334 23.3053 40.8027 22.7225L46.1669 19.2003C46.1669 19.2003 45.7784 21.6091 45.7388 23.8063C43.8016 24.4223 43.0045 24.6608 41.2162 24.5373Z" fill="#F99D6E"/>
<path d="M39.9755 23.2054L39.6536 22.4222L38.8473 20.1108C38.7334 19.743 38.6629 19.2359 38.7722 18.8656C38.9034 18.4204 38.9859 17.7015 38.7823 16.9127C38.2368 14.7997 39.1276 13.637 39.1276 13.637C40.2749 11.6101 43.216 11.4703 43.216 11.4703C46.862 11.4745 47.3377 14.9804 47.3377 14.9804C48.0409 17.2934 46.2722 19.333 46.2686 19.3366C46.044 19.5944 46.0394 19.995 45.9409 20.305C45.8358 20.6365 45.6669 20.9493 45.4525 21.2221C44.9713 21.8342 44.3325 22.4296 43.6647 22.8134C43.0317 23.1777 41.7895 23.5808 40.8947 23.6168C40.5241 23.6319 40.1599 23.6547 39.9755 23.2054Z" fill="#FAC39A"/>
<path d="M45.9304 20.7152C45.8649 19.0537 45.8278 19.1575 45.8278 19.1575C45.7645 18.6741 44.8659 19.7685 44.853 19.1357C44.7963 16.2377 43.6748 14.9141 43.2528 14.7122C42.1055 14.1652 40.9194 14.051 39.9941 14.2643C38.5439 14.5983 38.6985 16.5434 38.6985 16.5434C37.0896 9.4759 45.158 11.3506 45.158 11.3506C49.0827 12.1708 48.869 15.841 48.869 15.841C49.5427 19.7354 45.7988 22.1885 45.7988 22.1885L45.9304 20.7152Z" fill="#133643"/>
<path d="M45.6444 20.1631C45.7798 20.2563 45.949 20.3053 46.1576 20.2907C46.7202 20.2544 47.1607 19.703 47.1411 19.0614C47.1219 18.4212 46.6511 17.9306 46.089 17.9673C45.8222 17.9849 45.5836 18.1181 45.4078 18.321C45.1513 18.6179 45.1698 19.1404 45.2512 19.4964C45.3168 19.7809 45.4425 20.0225 45.6444 20.1631Z" fill="#F8A07D"/>
<path d="M45.8942 18.5756C45.9096 18.2374 46.6076 18.5244 46.5138 18.7192C46.4598 18.8312 46.3443 18.9175 46.2551 18.9985C46.1316 19.1093 46.0733 19.2086 46.0642 19.3768C46.0626 19.3958 46.0615 19.4549 46.0827 19.4673C46.1734 19.524 46.4458 19.1809 46.5053 19.1082C46.623 18.9654 46.6282 18.7321 46.5592 18.5662C46.4872 18.3901 46.365 18.3117 46.1734 18.3332C46.0207 18.3496 45.8659 18.3684 45.8843 18.5579C45.8848 18.5616 45.893 18.5926 45.8942 18.5756Z" fill="#E98B6F"/>
<path d="M46.1282 18.9132C46.0531 18.846 45.9882 18.9085 45.9191 18.9638C45.8541 19.0166 45.8203 19.0882 45.8068 19.1682C45.7774 19.3454 45.8129 19.5781 45.9207 19.7259C46.0076 19.8445 46.1474 19.913 46.2951 19.9011C46.5006 19.8851 46.5518 19.7011 46.5507 19.5272C46.5507 19.4813 46.5485 19.3709 46.5023 19.3445C46.4508 19.3156 46.4203 19.394 46.3894 19.4282C46.3457 19.4738 46.2791 19.4945 46.2188 19.5028C46.1025 19.5185 45.985 19.4648 45.9077 19.3823C45.8942 19.3674 45.8804 19.3498 45.8736 19.3308C45.8793 19.4444 45.8865 19.469 45.8953 19.4062C45.9025 19.377 45.9148 19.3498 45.9303 19.3237C45.9732 19.243 46.0505 19.1855 46.1003 19.1077C46.124 19.0722 46.1653 18.9475 46.1282 18.9132Z" fill="#E98B6F"/>
<path d="M45.6255 20.2816C45.6348 20.4717 45.7972 20.6186 45.9881 20.6087C46.1782 20.5994 46.3245 20.437 46.3144 20.2466C46.305 20.0563 46.1432 19.9096 45.9526 19.9193C45.7625 19.9289 45.6156 20.0911 45.6255 20.2816Z" fill="white"/>
<path d="M40.0662 26.7004L39.0336 26.8595C39.0336 26.8595 37.0302 30.7327 36.5566 34.8357C37.0631 38.2031 38.0786 43.3014 39.3104 43.6657C43.4849 44.9002 47.8429 42.9595 47.8429 42.9595L49.8393 34.9879C44.4767 32.9007 47.1868 26.7717 47.1868 26.7717L46.061 26.5018C46.061 26.5018 42.077 29.4226 40.0662 26.7004Z" fill="#F84F57"/>
<path d="M37.9461 29.3444C37.9461 29.3444 35.8513 32.2464 35.4856 33.7415C35.2454 34.724 36.9589 36.9368 38.3417 37.3272C39.0975 37.5405 39.1151 29.54 37.9461 29.3444Z" fill="#F84F57"/>
<path d="M47.5187 108.215C45.9315 108.583 44.3633 108.158 44.3633 108.158L45.9692 107.08C45.9692 107.08 47.645 104.776 47.9361 103.981C48.1226 103.471 48.0872 101.853 48.0872 101.853H50.1515L50.2247 103.005L51.0774 104.71C51.0774 104.71 51.196 105.532 49.7106 105.787C49.7104 105.787 48.7279 107.026 47.5187 108.215Z" fill="#FAC39A"/>
<path d="M45.969 107.08C46.5376 107.306 47.5166 107.316 47.9925 106.777C49.9074 104.604 50.2244 103.005 50.2244 103.005C51.3233 104.077 51.1064 105.04 51.1064 105.04L51.0533 105.435L50.6447 108.484H50.432L49.6994 106.029L48.4063 108.423C45.0148 109.074 44.1445 108.196 44.1445 108.196L45.969 107.08Z" fill="#133643"/>
<path d="M50.6603 78.2717L46.1523 79.6066C46.1523 79.6066 47.8876 100.824 48.0876 101.853C48.0876 101.853 50.1572 102.438 50.1519 101.853C50.1407 100.441 51.9593 91.7653 52.118 89.5539C52.392 85.7533 53.4248 83.2042 50.6603 78.2717Z" fill="#FAC39A"/>
<path d="M51.9562 54.2278L52.8465 75.2089C52.8465 75.2089 41.418 77.854 33.4824 74.2264C33.4824 74.2264 34.208 56.2778 37.4346 50.3254C37.4346 50.3254 51.3088 49.0419 51.9562 54.2278Z" fill="#4C4EF8"/>
<path d="M46.7397 28.5254C45.7701 29.9453 46.3157 31.3229 47.1006 32.8221C47.8982 34.346 52.7587 35.4001 52.5278 33.6959C52.0744 30.3454 51.7319 28.4376 50.2393 27.5831C48.9734 26.8587 47.7087 27.104 46.7397 28.5254Z" fill="#FAC39A"/>
<path d="M46.5879 31.3402L49.033 29.3678L52.0005 30.6334C52.0005 30.6334 55.1645 40.4594 54.945 42.8574C54.7106 45.4122 53.297 43.7785 52.6575 43.1911C52.6575 43.1911 46.5914 33.3454 46.5879 31.3402Z" fill="#FAC39A"/>
<path d="M54.8896 42.6633C54.8896 42.6633 55.2755 49.5792 54.2188 54.2011C54.2188 54.2011 52.8809 54.9959 52.7738 54.0244C52.5944 52.3748 51.2086 44.2491 51.5611 41.3674C51.6744 40.4367 54.8896 42.6633 54.8896 42.6633Z" fill="#F7A483"/>
<path d="M53.5936 59.8596C53.5936 59.8596 53.2332 60.0357 53.4767 59.1914L53.7617 57.8735C53.7617 57.8735 53.4753 60.069 52.725 60.4864C52.725 60.4864 52.5902 60.6091 52.4452 60.318C52.4452 60.318 53.0815 58.4472 53.0779 57.6864C53.0779 57.6864 52.9126 59.9744 52.0666 60.6319C52.0666 60.6319 51.6379 60.8141 51.6437 60.3629C51.6437 60.3629 52.2933 58.7441 52.353 57.4562C52.353 57.4562 51.8475 59.6919 51.3799 60.3118C51.3799 60.3118 50.9033 60.4108 51.0054 59.8801C51.0054 59.8801 51.3692 58.5402 51.6457 56.9975C51.6457 56.9975 50.7724 57.7365 50.1074 57.3913L52.0814 54.5112L52.772 54.0239L54.217 54.2006L54.3846 55.91C54.3846 55.91 54.4875 57.7 53.9559 59.3799C53.9559 59.3799 53.8167 59.8063 53.5936 59.8596Z" fill="#F7A483"/>
<path d="M37.5072 36.7381L41.7932 46.1706L33.0683 45.3653L29.1348 36.1083L37.5072 36.7381Z" fill="#D2E7F2"/>
<path d="M30.5169 39.0297C30.6828 39.3351 30.8606 39.6119 31.128 39.8237C31.4323 40.0647 31.941 39.9918 32.1372 40.1676C32.4784 40.4739 32.2362 41.3018 31.516 42.1318C30.8914 42.8523 30.4309 41.9095 30.2201 41.3295C29.9095 40.4728 29.9302 40.09 30.2845 39.3987L30.5169 39.0297Z" fill="#FAC39A"/>
<path d="M94.281 28.5742L94.5916 16.9167C94.8132 14.1913 93.7431 13.2028 93.7431 13.2028C89.1966 11.4972 86.9023 13.7996 86.9023 13.7996V25.7096C88.8786 27.5543 91.6819 28.7761 94.281 28.5742Z" fill="#133643"/>
<path d="M81.9883 27.3162C79.5982 28.4847 80.9269 31.293 80.9269 31.293L84.1571 43.0481C84.1571 43.0481 87.1747 44.282 92.4704 43.6644C93.2061 42.6114 94.7176 38.2016 95.2245 34.8344C95.6413 32.0611 96.9366 29.3285 95.5254 27.782C94.9845 27.1891 90.8634 26.5976 90.8427 26.5005H85.883L81.9883 27.3162Z" fill="#FAC39A"/>
<path d="M92.9404 16.9171L92.6308 28.5237C93.1836 28.599 93.7363 28.6166 94.28 28.5746L94.5906 16.9171C94.8121 14.1917 93.742 13.2032 93.742 13.2032C92.1224 12.5954 90.7905 12.4977 89.7441 12.6224C90.4449 12.7002 91.2274 12.8788 92.0918 13.2032C92.0918 13.2032 93.161 14.1916 92.9404 16.9171Z" fill="#133643"/>
<path d="M95.1514 27.5527C96.6872 28.3269 96.9312 30.1141 96.6778 31.738C96.4126 33.4371 93.3733 37.0053 92.6274 35.4552C91.1612 32.409 90.4759 30.0987 91.1282 28.5076C91.7808 26.9158 92.6907 26.3122 95.1514 27.5527Z" fill="#FAC39A"/>
<path d="M96.7335 30.0793L93.1637 29.9175L91.3828 32.6082C91.3828 32.6082 94.1495 42.5533 95.6542 44.4335C97.256 46.4375 97.5364 44.2959 97.7466 43.4532C97.7466 43.4532 97.2907 32.3323 96.7335 30.0793Z" fill="#FAC39A"/>
<path d="M97.5803 59.2798L97.7992 60.7567L96.9395 62.7156C96.9395 62.7156 97.3032 63.0407 97.7054 62.3983L98.4711 60.7833L98.3638 59.1193L97.5803 59.2798Z" fill="#F99D6E"/>
<path d="M97.9741 59.779L98.2748 61.2416L97.5273 63.2459C97.5273 63.2459 97.9075 63.5499 98.2729 62.886L98.9478 61.2303L98.747 59.5757L97.9741 59.779Z" fill="#F99D6E"/>
<path d="M99.6253 60.1065L99.3576 58.3894L99.0631 56.2582L97.7298 56.0739L97.2715 58.3209L97.1606 59.5003L97.0266 61.1118L96.9551 61.6323C96.9551 61.6323 97.3725 61.7666 97.6974 60.9387L98.0374 59.4189L98.6155 60.6135L98.126 62.7108C98.126 62.7108 98.2512 63.8053 98.5795 63.3923L99.6825 60.449L99.6253 60.1065Z" fill="#FAC39A"/>
<path d="M94.4414 42.0149C94.4414 42.0149 96.1692 50.1837 97.7292 56.0742C97.7292 56.0742 98.8752 57.4347 99.0625 56.2585C99.4372 53.9111 98.1951 41.187 97.5944 40.2135C96.9946 39.241 94.4414 42.0149 94.4414 42.0149Z" fill="#FAC39A"/>
<path d="M91.4043 108.121C93.011 108.395 94.5515 107.878 94.5515 107.878L92.8845 106.897C92.8845 106.897 91.075 104.697 90.7371 103.919C90.5206 103.421 90.4595 101.805 90.4595 101.805L88.3997 101.927L88.395 103.081L87.645 104.834C87.645 104.834 87.5754 105.661 89.0735 105.828C89.0733 105.828 90.1271 107.007 91.4043 108.121Z" fill="#F99D6E"/>
<path d="M92.8844 106.897C92.33 107.156 91.3527 107.225 90.8462 106.714C88.805 104.659 88.3948 103.081 88.3948 103.081C87.3608 104.216 87.6343 105.165 87.6343 105.165L87.7111 105.556L88.2995 108.576L88.5117 108.563L89.098 106.068L90.5303 108.382C93.9548 108.831 94.7714 107.902 94.7714 107.902L92.8844 106.897Z" fill="#F84F57"/>
<path d="M92.7976 78.869C92.7976 78.869 90.6843 100.782 90.4587 101.804C90.4587 101.804 88.3788 102.511 88.3988 101.926C88.4448 100.515 86.3937 91.4855 86.2592 89.2727C86.0448 85.7191 86.6229 83.3539 88.4715 78.5768C88.4715 78.5768 91.8723 76.2192 92.7976 78.869Z" fill="#F99D6E"/>
<path d="M84.987 56.3842C84.987 56.3842 84.1976 69.4592 87.8139 77.6101C87.8139 77.6101 89.4105 81.9007 92.7536 79.4683C92.7536 79.4683 97.0044 58.7179 94.6666 51.633C94.6666 51.633 84.7182 49.306 84.987 56.3842Z" fill="#F99D6E"/>
<path d="M90.45 42.896C90.8446 42.8244 92.4711 43.6644 92.4711 43.6644C92.4711 43.6644 94.5034 50.1943 94.5904 51.1875C94.6782 52.1796 87.8492 57.3201 80.2207 54.3933C80.2207 54.3933 83.7528 45.1974 83.9688 42.9328C84.1851 40.668 90.45 42.896 90.45 42.896Z" fill="#E79675"/>
<path d="M92.4705 43.6649C92.4705 43.6649 94.4184 49.5541 94.5898 51.188C95.1979 56.9735 87.3699 59.3995 79.7414 56.4727C79.7414 56.4727 79.2465 48.519 83.9682 42.9333C83.9682 42.9334 85.2222 44.0774 92.4705 43.6649Z" fill="#FFCA28"/>
<path d="M85.2585 60.7642L79.7422 57.7356C79.7422 57.7356 80.6372 75.19 81.3363 80.0928C81.3363 80.0928 84.4224 80.952 85.3785 80.3171C88.2398 73.605 89.8972 59.0312 89.8972 59.0312L85.2585 60.7642Z" fill="#FAC39A"/>
<path d="M81.9163 52.628C81.9163 52.628 79.2691 53.392 79.8168 58.2973C80.3517 63.0884 89.1629 63.5431 89.9853 58.631C90.8713 53.3455 86.5828 50.5444 81.9163 52.628Z" fill="#F7A483"/>
<path d="M85.6358 26.858H90.9455C90.7042 26.0844 90.2041 24.0834 90.9774 22.7215L85.6133 19.1993C85.6133 19.1993 86.5669 25.1101 85.6358 26.858Z" fill="#FAC39A"/>
<path d="M90.5642 24.5363C90.5494 23.9445 90.6468 23.3043 90.9774 22.7215L85.6133 19.1993C85.6133 19.1993 86.0018 21.608 86.0414 23.8052C87.9786 24.4212 88.7759 24.6598 90.5642 24.5363Z" fill="#F99D6E"/>
<path d="M91.8048 23.2044L92.1266 22.4211L92.933 20.1098C93.0472 19.7419 93.1173 19.2349 93.0081 18.8645C92.8772 18.4194 92.7943 17.7005 92.9982 16.9117C93.5435 14.7987 92.6526 13.636 92.6526 13.636C91.5053 11.6091 88.5645 11.4693 88.5645 11.4693C84.9185 11.4735 84.4425 14.9794 84.4425 14.9794C83.7393 17.2924 85.5084 19.3319 85.512 19.3355C85.7363 19.5933 85.7409 19.9939 85.8397 20.304C85.9447 20.6355 86.1134 20.9483 86.328 21.221C86.8092 21.8332 87.4481 22.4286 88.1158 22.8124C88.7486 23.1767 89.9911 23.5797 90.8855 23.6157C91.2564 23.6309 91.6207 23.6537 91.8048 23.2044Z" fill="#FAC39A"/>
<path d="M85.8498 20.7142C85.9153 19.0527 85.9527 19.1564 85.9527 19.1564C86.0157 18.673 86.9145 19.7675 86.9274 19.1347C86.9841 16.2367 88.1053 14.9131 88.5276 14.7111C89.6746 14.1641 90.861 14.05 91.7863 14.2632C93.2362 14.5972 93.0816 16.5424 93.0816 16.5424C94.6906 9.47486 86.6221 11.3496 86.6221 11.3496C82.6974 12.1698 82.9111 15.84 82.9111 15.84C82.2377 19.7344 85.9816 22.1874 85.9816 22.1874L85.8498 20.7142Z" fill="#133643"/>
<path d="M86.134 20.1621C85.999 20.2553 85.8295 20.3044 85.6209 20.2897C85.0583 20.2534 84.6178 19.702 84.6373 19.0605C84.6569 18.4202 85.1273 17.9297 85.6895 17.9663C85.9563 17.9839 86.1949 18.1171 86.371 18.3201C86.6271 18.6169 86.609 19.1394 86.5276 19.4954C86.4617 19.7799 86.336 20.0215 86.134 20.1621Z" fill="#F8A07D"/>
<path d="M85.8854 18.5744C85.87 18.2362 85.1723 18.5232 85.2661 18.718C85.3197 18.83 85.4355 18.9163 85.5247 18.9972C85.648 19.1081 85.7066 19.2074 85.7154 19.3755C85.717 19.3946 85.7184 19.4537 85.6972 19.466C85.6061 19.5227 85.334 19.1797 85.2743 19.107C85.1568 18.9642 85.1516 18.7309 85.2206 18.565C85.2925 18.3889 85.4149 18.3105 85.6061 18.3319C85.7591 18.3484 85.9137 18.3672 85.8955 18.5567C85.8948 18.5604 85.8865 18.5914 85.8854 18.5744Z" fill="#E98B6F"/>
<path d="M85.6494 18.9121C85.7242 18.845 85.7891 18.9075 85.8585 18.9628C85.9234 19.0156 85.957 19.0872 85.9705 19.1672C86.0002 19.3444 85.9647 19.5771 85.8566 19.7249C85.77 19.8435 85.6299 19.9119 85.4825 19.9001C85.2769 19.8841 85.2255 19.7001 85.2266 19.5262C85.2266 19.4802 85.229 19.3699 85.275 19.3435C85.3265 19.3146 85.3573 19.393 85.3879 19.4271C85.4316 19.4728 85.4982 19.4934 85.5585 19.5017C85.6748 19.5174 85.7923 19.4638 85.8696 19.3812C85.8834 19.3664 85.8969 19.3487 85.904 19.3298C85.8979 19.4434 85.891 19.4679 85.882 19.4052C85.8751 19.376 85.8628 19.3487 85.8474 19.3226C85.8042 19.242 85.7269 19.1845 85.6774 19.1067C85.6535 19.0712 85.6123 18.9465 85.6494 18.9121Z" fill="#E98B6F"/>
<path d="M86.1543 20.2805C86.145 20.4706 85.9826 20.6176 85.7919 20.6077C85.6018 20.5983 85.4552 20.436 85.4653 20.2456C85.4747 20.0552 85.6365 19.9086 85.8274 19.9182C86.0175 19.9278 86.1645 20.0901 86.1543 20.2805Z" fill="white"/>
<path d="M93.8347 29.3431C93.8347 29.3431 95.9298 32.2452 96.2952 33.7403C96.5354 34.7227 94.8222 36.9356 93.4391 37.326C92.6836 37.5393 92.6657 29.5388 93.8347 29.3431Z" fill="#4FA6C9"/>
<path d="M93.8347 29.3431C93.8347 29.3431 95.9298 32.2452 96.2952 33.7403C96.5354 34.7227 94.8222 36.9356 93.4391 37.326C92.6836 37.5393 92.6657 29.5388 93.8347 29.3431Z" fill="#4C4EF8"/>
<path d="M91.7143 26.6995L92.9059 26.8585C92.9059 26.8585 94.8142 30.756 95.2877 34.859C94.7812 38.2263 93.7018 43.3005 92.4701 43.6647C88.2958 44.8992 83.9378 42.9585 83.9378 42.9585L81.9414 34.9869C87.3037 32.8997 84.5936 26.7708 84.5936 26.7708L85.7197 26.5009C85.7199 26.5009 89.4005 29.8087 91.7143 26.6995Z" fill="#4C4EF8"/>
<path d="M84.2603 108.213C85.8472 108.582 87.4155 108.157 87.4155 108.157L85.8095 107.079C85.8095 107.079 84.1337 104.775 83.8426 103.979C83.6561 103.469 83.6916 101.852 83.6916 101.852H81.6272L81.5541 103.003L80.7015 104.709C80.7015 104.709 80.5829 105.531 82.0686 105.786C82.0686 105.786 83.0511 107.025 84.2603 108.213Z" fill="#FAC39A"/>
<path d="M85.811 107.079C85.2423 107.305 84.2634 107.315 83.7875 106.776C81.8728 104.603 81.5556 103.004 81.5556 103.004C80.457 104.076 80.6736 105.038 80.6736 105.038L80.7267 105.434L81.1353 108.483H81.348L82.0806 106.027L83.3737 108.421C86.7652 109.073 87.6354 108.195 87.6354 108.195L85.811 107.079Z" fill="#F84F57"/>
<path d="M81.1222 78.2704L85.6302 79.6054C85.6302 79.6054 83.895 100.823 83.6947 101.851C83.6947 101.851 81.6252 102.436 81.6304 101.851C81.6417 100.439 79.8231 91.7641 79.6644 89.5527C79.3903 85.752 78.3577 83.2029 81.1222 78.2704Z" fill="#FAC39A"/>
<path d="M85.1489 29.816C85.2557 31.5325 84.3587 33.2183 82.6414 33.3239C80.9249 33.4307 76.4606 32.6457 77.5308 31.2993C79.6336 28.6517 80.9072 27.3234 82.624 27.2169C84.3411 27.1101 85.0433 28.0992 85.1489 29.816Z" fill="#FAC39A"/>
<path d="M83.8399 32.3127L82.7477 29.3672L79.5504 28.9374C79.5504 28.9374 71.806 35.7625 70.7688 37.9357C69.6633 40.2512 71.7133 39.5703 72.5637 39.392C72.5637 39.392 82.812 34.0339 83.8399 32.3127Z" fill="#FAC39A"/>
<path d="M70.5918 39.4251C70.5918 39.4251 74.4502 44.8531 78.0437 47.9453C78.0437 47.9453 79.5923 47.7912 79.1018 46.9463C78.2676 45.512 74.8334 38.7948 73.9899 37.355C73.515 36.5461 70.5918 39.4251 70.5918 39.4251Z" fill="#F7A483"/>
<path d="M79.103 46.9469L79.9484 46.9287L81.9442 46.0263C81.9349 47.1463 82.0493 48.2865 82.0493 48.2865C83.0626 49.3636 83.6731 50.2069 83.6731 50.2069C84.0705 50.5731 83.628 50.7764 83.628 50.7764C82.8835 50.5552 81.4779 49.4605 81.4779 49.4605C82.1808 50.1868 83.5207 51.224 83.5207 51.224C83.7928 51.5837 83.3394 51.6918 83.3394 51.6918C82.2689 51.6648 81.0309 50.0757 81.0309 50.0757C81.4796 50.6904 82.7556 51.7543 82.7556 51.7543C82.8109 52.0748 82.6305 52.0561 82.6305 52.0561C81.7784 52.165 80.5915 50.632 80.5915 50.632L81.0504 51.1946C81.7481 51.9083 81.1057 51.9831 81.1057 51.9831L80.6826 51.6662C79.409 50.6787 78.9248 49.4214 78.9248 49.4214L78.0449 47.9459L79.103 46.9469Z" fill="#F7A483"/>
<path d="M91.3644 14.1907L88.5605 11.1264C91.8912 9.99506 93.8832 13.3665 93.8832 13.3665L93.2526 14.1907C93.2526 14.1907 92.0525 11.4684 91.3644 14.1907Z" fill="#133643"/>
<path d="M95.1447 66.341C95.6171 60.744 95.7687 53.9778 94.308 50.3249C94.308 50.3249 81.0479 51.1949 79.7867 54.2273C79.7867 54.2273 79.146 57.7327 79.6781 66.3409C79.6781 66.3409 88.9089 68.558 95.1447 66.341Z" fill="#FFCA28"/>
<path d="M81.3887 24.4076C81.3887 26.3166 85.1208 27.9396 87.5824 28.5078C87.4749 26.2606 87.4715 24.5677 87.4715 24.5677C87.2335 20.2622 87.3645 18.6662 87.7555 15.6874C88.0606 13.362 89.7468 12.4247 91.3635 14.1913C91.298 14.1192 91.2827 13.8724 91.2507 13.7753C91.2025 13.6262 91.1445 13.4809 91.0774 13.3392C90.5117 12.1521 89.3614 11.3088 88.1137 10.9492C87.6663 10.8201 87.23 10.7819 86.7688 10.832C85.2311 10.9995 83.3289 12.0822 82.5566 13.4303C81.8003 14.7521 81.6308 16.4174 81.5073 17.9074C81.4377 18.7512 81.3816 19.6133 81.397 20.4601C81.3969 20.4606 81.4269 22.0701 81.3887 24.4076Z" fill="#133643"/>
<path d="M58.935 22.653C59.2904 23.0068 59.4233 23.5392 59.5953 24.0104C60.92 22.2626 61.895 18.8297 60.0079 17.2563C57.1713 14.8919 57.1147 20.8404 58.935 22.653Z" fill="#133643"/>
<path d="M52.8521 69.6577L52.6331 71.1346L53.4926 73.0933C53.4926 73.0933 53.1289 73.4187 52.7269 72.7763L51.9609 71.1613L52.0685 69.4973L52.8521 69.6577Z" fill="#F99D6E"/>
<path d="M52.4578 70.157L52.1574 71.6196L52.9049 73.6239C52.9049 73.6239 52.5247 73.9279 52.1593 73.2641L51.4844 71.6083L51.685 69.9537L52.4578 70.157Z" fill="#F99D6E"/>
<path d="M50.8072 70.4845L51.0746 68.7671L51.3693 66.6362L52.7026 66.4519L53.1607 68.6986L53.2718 69.8783L53.4058 71.4898L53.4774 72.0103C53.4774 72.0103 53.0597 72.1446 52.7351 71.3167L52.395 69.7969L51.817 70.9915L52.3064 73.0885C52.3064 73.0885 52.1813 74.1833 51.853 73.7703L50.75 70.827L50.8072 70.4845Z" fill="#FAC39A"/>
<path d="M55.9368 52.123C55.9368 52.123 52.9858 63.7519 52.7024 66.4525C52.7024 66.4525 51.5562 67.8131 51.3691 66.6369C50.9941 64.2892 51.5267 51.9965 52.1273 51.0233C52.7271 50.0503 55.9368 52.123 55.9368 52.123Z" fill="#E59375"/>
<path d="M53.5442 38.1132L52.5758 38.429C52.5758 38.429 51.042 50.3573 52.3397 53.0213C53.6375 55.686 55.1312 53.0084 55.6179 52.7066C56.1037 52.4045 59.2078 38.8954 59.2078 38.8954L53.5442 38.1132Z" fill="#202E41"/>
<path d="M51.4598 51.637L52.0791 36.6936C52.7807 33.0256 56.5359 34.1176 56.5359 34.1176C59.5813 34.9103 59.4355 38.3232 59.4355 38.3232L56.8162 52.6365C56.8162 52.6365 56.2676 54.8252 53.45 54.8252C53.45 54.8252 51.3712 54.5448 51.4598 51.637Z" fill="#202E41"/>
<path d="M50.8925 66.7453L50.8457 68.105L53.2115 68.1864L53.2583 66.8267L50.8925 66.7453Z" fill="white"/>
<path d="M56.5562 53.139C56.5562 53.139 55.2496 61.9231 53.3754 67.3037C53.3754 67.3037 51.7679 67.4542 50.8519 67.2162C50.8519 67.2162 50.7127 54.6211 51.7494 50.5459C51.7494 50.5459 56.9287 50.6538 56.5562 53.139Z" fill="#202E41"/>
<path d="M54.6526 108.705C54.6526 108.705 54.124 110.762 53.4747 111.32C52.8251 111.878 50.3471 112.699 50.3471 112.699L48.9742 112.896C48.9742 112.896 48.02 113.58 50.6393 114.3C53.258 115.02 57.8545 112.848 57.8545 112.848L56.8184 108.642L54.6526 108.705Z" fill="black"/>
<path d="M68.6452 114.362C69.1074 113.642 70.0756 109.717 70.0756 109.717L72.2156 109.652L73.5547 113.974C73.5547 113.974 73.7696 114.697 73.3327 114.968C73.3327 114.968 70.6639 115.894 68.3848 114.924C68.3848 114.924 68.4089 114.731 68.6452 114.362Z" fill="black"/>
<path d="M55.3796 54.7578L52.6476 38.0589C52.6476 38.0589 51.7059 35.5483 53.5888 34.2938L60.765 30.9207H65.8262L74.4537 36.0196L68.799 54.7578L55.3796 54.7578Z" fill="#F7A483"/>
<path d="M68.7983 54.7581C68.7983 54.7581 70.3478 58.2968 70.7214 66.431C70.7214 66.431 59.0579 70.0893 55.3995 66.431L55.3789 54.7581H68.7983Z" fill="#202E41"/>
<path d="M61.1525 66.3953C61.133 69.1249 63.2586 71.3537 65.9006 71.3732C68.5435 71.3925 70.7022 69.1956 70.7223 66.4658C70.7423 63.7362 68.6162 61.5082 65.9741 61.4884C63.3312 61.4686 61.1726 63.6663 61.1525 66.3953Z" fill="#202E41"/>
<path d="M70.7172 67.0684L71.9861 87.8549C71.9861 87.8549 69.7399 93.2609 65.764 89.9373L61.4473 68.5543C61.4473 68.5543 63.5426 61.3677 70.7172 67.0684Z" fill="#202E41"/>
<path d="M71.986 87.8552C71.986 87.8552 73.1822 91.7578 72.8268 98.5543L73.1823 111.26L68.7794 111.347L65.7852 90.003C65.7852 90.003 68.7827 83.0849 71.986 87.8552Z" fill="#202E41"/>
<path d="M55.4205 66.4436C55.1437 69.1588 56.1144 71.4823 58.743 71.7505C61.3724 72.019 63.728 70.0349 64.0051 67.319C64.2819 64.6032 62.3755 62.1846 59.7467 61.9166C57.1175 61.6484 55.6975 63.7281 55.4205 66.4436Z" fill="#202E41"/>
<path d="M62.8829 70.0183L60.4675 89.1694C60.4675 89.1694 55.2307 91.4915 54.3008 88.2422C54.3008 88.2422 54.4227 73.6535 55.4203 66.443C55.4203 66.443 61.8869 63.2936 62.8829 70.0183Z" fill="#202E41"/>
<path d="M60.4696 88.3884C60.4696 88.3884 61.2047 91.1975 60.411 96.3258L58.5937 110.841L53.9551 110.595L54.3029 87.4736C54.3029 87.4736 57.1908 84.4439 60.4696 88.3884Z" fill="#202E41"/>
<path d="M73.3418 53.2697C74.3279 63.1595 73.9234 63.8143 73.8208 67.7808C73.8208 67.7808 74.3474 69.1768 75.2438 68.3927C76.1404 67.6097 77.5705 54.4388 77.1202 53.3884C76.4499 51.829 73.3418 53.2697 73.3418 53.2697Z" fill="#F7A483"/>
<path d="M73.9658 67.3865L72.5748 68.777L71.3926 70.5086C71.9778 70.9026 72.5908 69.933 72.5908 69.933C72.2086 71.4598 71.4663 72.8068 71.4663 72.8068C71.2869 73.354 71.8036 73.3133 71.8036 73.3133C72.3805 72.7209 73.119 70.9733 73.119 70.9733C72.8417 72.0143 72.1354 73.6734 72.1354 73.6734C72.0694 74.1494 72.5465 74.014 72.5465 74.014C73.5276 73.4332 73.8536 71.3133 73.8536 71.3133C73.7557 72.1175 73.1221 73.7691 73.1221 73.7691C73.2359 74.0963 73.3955 73.9846 73.3955 73.9846C74.2432 73.644 74.5508 71.6028 74.5508 71.6028L74.4157 72.3638C74.1386 73.3895 74.7742 73.1249 74.7742 73.1249L75.0031 72.6106C75.6738 71.0325 75.4713 69.6117 75.4713 69.6117L75.4672 67.7662L73.9658 67.3865Z" fill="#FAC39A"/>
<path d="M71.1528 36.326C74.4833 35.5677 75.6212 38.6461 75.6212 38.6461C75.6212 38.6461 77.294 48.8935 77.2733 53.2852C77.2596 56.2486 73.6438 53.8619 73.4064 53.3407C72.8828 52.1913 69.0825 39.8482 69.0825 39.8482C69.0825 39.8482 68.885 36.948 71.1528 36.326Z" fill="#F7A483"/>
<path d="M72.8432 53.513L68.5234 39.5084C68.6203 36.0269 72.0272 35.5075 72.0272 35.5075C75.2308 35.2007 75.9323 37.9572 75.9323 37.9572L77.4821 51.9775C77.4821 51.9775 78.0076 55.1291 76.1868 55.1745C76.1868 55.1745 73.1319 55.5058 72.8432 53.513Z" fill="#202E41"/>
<path d="M75.9297 66.9512L75.6628 68.2851L73.3418 67.8212L73.6082 66.4871L75.9297 66.9512Z" fill="white"/>
<path d="M72.582 52.6634C72.582 52.6634 73.1411 64.4284 73.3431 66.8341L75.9694 67.3866C75.9694 67.3866 78.3441 55.5957 77.4832 51.9775C77.4832 51.9775 74.0515 50.105 72.582 52.6634Z" fill="#202E41"/>
<path d="M65.8516 27.2329V32.6425H60.1309C60.1309 32.6425 61.5379 30.4982 60.8341 27.2329H65.8516Z" fill="#F7A483"/>
<path d="M62.9495 31.8268C62.4342 32.1583 61.3383 32.8645 60.7129 32.4516C60.5448 32.3399 60.4667 32.1941 60.4414 32.0317C60.8093 31.175 61.3152 29.4661 60.834 27.2329H65.8515V27.7232C65.2256 29.3068 64.4228 30.877 62.9495 31.8268Z" fill="#F99D6E"/>
<path d="M65.9881 27.3082C65.9881 27.3082 66.9618 26.885 68.0643 24.4755C68.0643 24.4755 70.4579 21.6262 68.7614 18.3913C68.7614 18.3913 67.7589 15.6554 62.902 16.4213C62.902 16.4213 62.4649 23.7527 65.9881 27.3082Z" fill="#F8A07D"/>
<path d="M60.0075 28.7713L59.6834 27.9233C59.6834 27.9233 58.7894 24.7671 58.7894 24.7665C58.6772 24.3698 58.6709 23.8388 58.743 23.431C58.8213 22.987 58.8714 22.5234 58.7559 22.0554C58.1919 19.7856 59.3552 18.4971 59.3552 18.4971C60.637 16.3569 63.7924 16.2854 63.7924 16.2854C67.6987 16.3869 68.1144 20.1551 68.1144 20.1551C68.8063 22.6518 66.8568 24.7896 66.8527 24.7943C66.6972 24.9643 66.7982 25.7891 66.7558 26.0252C66.5734 27.0322 65.6286 27.6707 64.7883 28.1148C63.8655 28.6026 62.7477 29.1245 61.7058 29.2445C61.3108 29.2904 60.1929 29.2577 60.0075 28.7713Z" fill="#FAC39A"/>
<path d="M69.7279 54.3044C69.716 54.8607 70.5604 60.6811 70.2061 60.756C70.2039 60.7562 60.5496 62.9809 55.4003 60.756L55.3796 54.7579L52.6476 38.059C52.6476 38.059 51.7059 35.5484 53.5888 34.2938L60.765 30.9207L60.2808 32.3753L61.3183 35.3263L65.8262 30.9207L74.4537 36.0196C73.972 37.6173 73.4925 39.2155 73.0101 40.8132C72.1209 43.7587 71.2554 46.7125 70.3389 49.6498C70.3389 49.6498 69.581 52.8355 69.7279 54.3044Z" fill="white"/>
<path d="M61.9414 31.9709L62.0011 34.6592L62.9913 33.6913L61.9414 31.9709Z" fill="#D1D3D4"/>
<path d="M60.6797 36.3059C60.6797 36.5175 60.8514 36.6891 61.0635 36.6891C61.2748 36.6891 61.4473 36.5174 61.4473 36.3059C61.4473 36.094 61.2748 35.9224 61.0635 35.9224C60.8513 35.9223 60.6797 36.094 60.6797 36.3059Z" fill="#E6E7E8"/>
<path d="M60.6797 43.2722C60.6797 43.4838 60.8514 43.6554 61.0635 43.6554C61.2748 43.6554 61.4473 43.4837 61.4473 43.2722C61.4473 43.0598 61.2748 42.8884 61.0635 42.8884C60.8513 42.8884 60.6797 43.0599 60.6797 43.2722Z" fill="#E6E7E8"/>
<path d="M60.6797 50.238C60.6797 50.4501 60.8514 50.6221 61.0635 50.6221C61.2748 50.6221 61.4473 50.4501 61.4473 50.238C61.4473 50.0261 61.2748 49.8545 61.0635 49.8545C60.8513 49.8545 60.6797 50.0262 60.6797 50.238Z" fill="#E6E7E8"/>
<path d="M61.2128 57.5595C61.4086 57.4784 61.5016 57.2539 61.4205 57.058C61.3394 56.8622 61.1149 56.7692 60.919 56.8503C60.7232 56.9314 60.6302 57.1559 60.7113 57.3518C60.7924 57.5476 61.017 57.6406 61.2128 57.5595Z" fill="#E6E7E8"/>
<path d="M61.9414 34.9657V61.4033" stroke="#E6E7E8" stroke-width="0.375" stroke-miterlimit="10"/>
<path d="M55.459 61.3061C55.459 61.3061 60.3896 63.6164 70.4821 61.2552C70.648 61.2158 70.5778 60.7852 70.5778 60.7852L70.4821 59.814C70.4378 59.5026 70.2642 59.5172 70.2642 59.5172C70.2617 59.5175 60.6075 61.7424 55.459 59.5172C55.459 59.5172 55.251 59.4808 55.2422 59.7926V61.0037C55.2422 61.0037 55.2422 61.2459 55.459 61.3061Z" fill="#471F08"/>
<path d="M60.4688 62.0391C60.4688 62.1929 60.5904 62.3178 60.7408 62.3178H62.7047C62.8547 62.3178 62.9768 62.1929 62.9768 62.0391V60.6244C62.9768 60.4709 62.8547 60.3457 62.7047 60.3457H60.7408C60.5903 60.3457 60.4688 60.4709 60.4688 60.6244V62.0391Z" stroke="#BCBEC0" stroke-width="0.375" stroke-miterlimit="10"/>
<path d="M61.9414 31.9107C61.9414 31.9107 65.1067 30.6812 65.8518 29.4565L66.7873 31.2396L63.4499 34.4402L61.9414 31.9711" fill="#E6E7E8"/>
<path d="M65.0488 19.1189C65.1553 19.311 65.5804 20.6539 65.0573 21.3263C66.16 22.1737 65.6277 23.8899 65.6277 23.8899L65.8951 23.9051C67.4419 23.5044 66.9225 26.431 66.9225 26.4321C66.9343 26.3647 67.1918 26.201 67.243 26.1521C67.5454 25.8624 68.1832 24.821 68.3837 24.454C69.4727 22.4577 69.3697 22.3556 69.6622 21.1773C69.8617 20.3722 69.7755 18.1921 68.6041 17.0963C68.6041 17.0963 67.2382 17.0957 65.0488 19.1189Z" fill="#133643"/>
<path d="M66.2631 25.1618C66.4018 25.2788 66.5831 25.3512 66.8133 25.3583C67.4357 25.3778 67.9788 24.8198 68.0267 24.1117C68.0746 23.4055 67.6093 22.8156 66.9875 22.7963C66.6923 22.7869 66.4141 22.9074 66.1998 23.1121C65.887 23.4109 65.8504 23.9865 65.9023 24.3873C65.9443 24.7079 66.056 24.986 66.2631 25.1618Z" fill="#FAC39A"/>
<path d="M66.7081 23.444C66.7625 23.0734 67.4969 23.4641 67.3742 23.6677C67.3021 23.7855 67.1665 23.8672 67.0589 23.9467C66.9119 24.057 66.8379 24.1591 66.809 24.3423C66.8054 24.3638 66.7986 24.4282 66.8192 24.4447C66.9136 24.5167 67.249 24.1679 67.3227 24.095C67.4669 23.9511 67.4982 23.6941 67.441 23.5048C67.3794 23.3032 67.2537 23.2033 67.0407 23.2069C66.8718 23.2085 66.6987 23.2121 66.6992 23.4225C66.6993 23.4278 66.7054 23.4627 66.7081 23.444Z" fill="#E98B6F"/>
<path d="M66.9309 23.8402C66.8565 23.7577 66.7793 23.8193 66.6959 23.8738C66.6191 23.9245 66.5738 23.9993 66.5507 24.0867C66.4987 24.278 66.5135 24.5374 66.6164 24.711C66.699 24.8516 66.8453 24.9415 67.0096 24.9451C67.2363 24.9484 67.3125 24.7517 67.3307 24.5602C67.3353 24.5096 67.345 24.3877 67.2961 24.3541C67.2441 24.3183 67.2014 24.3997 67.1637 24.4345C67.1112 24.4804 67.0355 24.4947 66.9689 24.4975C66.839 24.5033 66.7155 24.4314 66.6382 24.3316C66.6252 24.314 66.6134 24.2928 66.6069 24.2722C66.6017 24.3973 66.6063 24.4263 66.6229 24.3572C66.6347 24.3256 66.6501 24.2972 66.6702 24.2708C66.7263 24.1863 66.8177 24.131 66.8799 24.0512C66.9097 24.0143 66.9683 23.8823 66.9309 23.8402Z" fill="#E98B6F"/>
<path d="M67.2593 31.7681L63.4219 45.248L63.9911 69.741C63.9911 69.741 69.954 69.3759 72.5597 67.0184L70.7221 52.712L74.4531 36.0197L67.2593 31.7681Z" fill="#273549"/>
<path d="M67.2593 31.7681L63.4219 45.248L63.4379 45.8882L68.2713 40.9415C68.2713 40.9415 68.7792 40.083 68.0911 39.5749L66.9493 38.4826L67.7634 37.8983C67.7634 37.8983 68.9061 37.3445 68.7674 36.3063L68.4402 32.4025L67.2593 31.7681Z" fill="#424F70"/>
<path d="M58.7606 31.8625L54.3908 33.9164C54.3908 33.9164 51.9038 34.5731 52.4123 37.1499L53.8493 51.4253L53.1295 66.551C53.1295 66.551 52.5138 69.3617 57.5802 68.8857L59.373 44.8846L58.7606 31.8625Z" fill="#273549"/>
<path d="M59.2676 32.0477C59.2676 32.0477 59.5587 30.9214 60.9858 29.97L60.799 33.8515C60.799 33.8515 60.0074 31.8662 59.2676 32.0477Z" fill="#E6E7E8"/>
<path d="M59.1367 33.8506L59.2669 32.0469C59.7024 31.9399 60.0923 32.5498 60.4098 33.05L59.1367 33.8506Z" fill="#D1D3D4"/>
<path d="M58.7603 31.8625L57.6336 32.3921L56.8201 36.1506C56.8201 36.1506 56.412 37.1235 57.0025 37.378L58.0647 37.9973L56.568 38.9446C56.568 38.9446 55.7803 39.4382 56.2651 40.1648L59.2676 46.0264L59.362 45.0241L58.7603 31.8625Z" fill="#424F70"/>
<path d="M66.3114 25.7293L65.8935 23.9054L65.626 23.8903C65.626 23.8903 65.3561 25.0986 63.9107 25.3124C63.9107 25.3124 63.2856 25.407 63.0193 25.4422C62.9843 25.4472 62.5994 25.0664 62.5499 25.0342C62.1224 24.7558 61.6081 24.6804 61.109 24.6414C60.5995 24.6023 60.054 24.5528 59.5659 24.7388C59.5006 24.7636 58.8761 25.0799 58.8555 24.9911C58.8555 24.9911 59.5166 27.9135 59.9813 28.7491C59.9813 28.7491 60.1846 29.3921 61.6871 29.2346C61.6871 29.2346 64.2661 29.006 66.2685 27.1395C66.6003 26.8892 66.3114 25.7293 66.3114 25.7293ZM59.5798 25.6041C59.639 25.3004 59.6514 25.1089 59.9111 25.0607C60.4258 24.9661 60.9879 25.0535 61.4999 25.119C61.9146 25.1716 62.4274 25.2252 62.5969 25.6776C62.7463 26.0757 62.6364 26.6564 62.4274 27.0197C62.0733 27.6335 60.9271 27.9493 60.3469 27.5523C59.8525 27.2136 59.4689 26.1774 59.5798 25.6041Z" fill="#133643"/>
<path d="M62.252 32.9428L62.3689 32.7246L63.1648 33.9459L62.4803 34.1897L62.252 32.9428Z" fill="#03A9F4"/>
<path d="M60.4094 33.0503L60.1857 32.7086C60.1857 32.7086 59.3355 33.4228 60.2288 34.1898C60.2288 34.1898 60.2283 33.5582 60.4094 33.0503Z" fill="#03A9F4"/>
<path d="M62.2527 32.9427C62.2527 32.9427 61.5778 33.542 60.411 33.05C60.1554 33.3749 60.1565 33.7884 60.2306 34.1896L60.835 35.4365H61.6794L62.4811 34.1896C62.4811 34.1896 62.5639 33.9145 62.2527 32.9427Z" fill="#03A9F4"/>
<path d="M61.6781 35.437L62.3602 53.2804L60.9361 56.0523L59.7734 53.2944L60.8337 35.437H61.6781Z" fill="#03A9F4"/>
<path d="M64.824 18.8749L66.1271 18.227L68.6035 17.0962C68.6035 17.0962 68.6029 15.3984 65.4789 14.7433C65.4789 14.7433 61.6488 14.1389 58.6009 15.7509C58.6009 15.7509 57.77 16.2043 57.1152 15.8012C57.1152 15.8012 58.1734 20.2351 64.824 18.8749Z" fill="#133643"/>
</svg>
