<svg width="113" height="114" viewBox="0 0 113 114" fill="none" xmlns="http://www.w3.org/2000/svg">
<circle cx="56.4639" cy="57.125" r="55.8505" fill="#FAFAFC" stroke="#D9DCE0" stroke-width="0.798977"/>
<path d="M56.4638 34.625C59.4774 34.625 62.2078 35.7872 64.1626 37.8978C66.1415 40.0344 67.1059 42.9104 66.8778 45.9943C66.4248 52.133 61.7607 57.1265 56.4638 57.1265C51.1669 57.1265 46.4949 52.132 46.0488 45.9923C45.8238 42.8803 46.7822 39.9982 48.749 37.8777C50.6948 35.7802 53.4342 34.625 56.4638 34.625Z" fill="#D9DCE0"/>
<path d="M37.4427 79.3405C37.8632 79.5339 38.3216 79.6312 38.7844 79.6252H74.144C74.6069 79.6311 75.0653 79.5337 75.4858 79.3401C75.9063 79.1465 76.2784 78.8616 76.5749 78.5061C77.2279 77.7256 77.4911 76.6598 77.2962 75.5819C76.4484 70.8787 73.8024 66.9279 69.6437 64.1553C65.949 61.6942 61.2689 60.3381 56.4642 60.3381C51.6595 60.3381 46.9794 61.6932 43.2847 64.1553C39.126 66.9289 36.48 70.8797 35.6322 75.5829C35.4373 76.6608 35.7005 77.7266 36.3534 78.5071C36.6501 78.8624 37.0222 79.1471 37.4427 79.3405Z" fill="#D9DCE0"/>
</svg>
