<svg width="24" height="24" viewBox="0 0 24 24" fill="none" xmlns="http://www.w3.org/2000/svg">
<circle cx="12.2344" cy="11.8281" r="11.25" fill="#EF1D26"/>
<path fill-rule="evenodd" clip-rule="evenodd" d="M8.36203 15.6998C8.53492 15.8727 8.75392 15.9534 8.97292 15.9534C9.19193 15.9534 9.42245 15.8727 9.58382 15.6998L12.2349 13.0487L14.886 15.6998C15.0588 15.8727 15.2778 15.9534 15.4969 15.9534C15.7159 15.9534 15.9349 15.8727 16.1077 15.6998C16.442 15.3655 16.442 14.8123 16.1077 14.478L13.4567 11.8269L16.1077 9.17586C16.442 8.8416 16.442 8.28833 16.1077 7.95407C15.7735 7.6198 15.2202 7.6198 14.886 7.95407L12.2349 10.6051L9.58382 7.95407C9.24956 7.6198 8.69629 7.6198 8.36203 7.95407C8.02776 8.28833 8.02776 8.8416 8.36203 9.17586L11.0131 11.8269L8.36203 14.478C8.02776 14.8123 8.02776 15.3655 8.36203 15.6998Z" fill="white"/>
</svg>
