<svg width="28" height="28" viewBox="0 0 28 28" fill="none" xmlns="http://www.w3.org/2000/svg">
<circle cx="13.5923" cy="13.8496" r="13.5" fill="#FB8308"/>
<path d="M18.5335 7.18932L4.97066 15.0399C4.69725 15.1766 4.57031 15.3914 4.58984 15.6844C4.60937 15.9773 4.75584 16.1824 5.02924 16.2995L8.13433 17.5884L16.5415 10.1772C16.6196 10.1186 16.6977 10.1284 16.7759 10.2065C16.854 10.2651 16.8637 10.3335 16.8051 10.4116L9.74546 19.0238V21.3673C9.74546 21.6016 9.81382 21.7774 9.95052 21.8946C10.1067 22.0313 10.2825 22.0996 10.4778 22.0996C10.6926 22.0996 10.8684 22.0117 11.0051 21.836L12.8506 19.5804L16.5122 21.1036C16.7075 21.2013 16.9028 21.1915 17.0981 21.0743C17.3129 20.9572 17.4398 20.7912 17.4789 20.5764L19.588 7.92165C19.6271 7.62872 19.5197 7.40414 19.2658 7.24791C19.0314 7.07215 18.7873 7.05262 18.5335 7.18932Z" fill="white"/>
</svg>
