<svg width="11" height="12" viewBox="0 0 11 12" fill="none" xmlns="http://www.w3.org/2000/svg">
<path d="M3.49609 6.75391L6.91109 8.74391" stroke="#7649B3" stroke-width="0.5" stroke-linecap="round" stroke-linejoin="round"/>
<path d="M6.90609 3.25586L3.49609 5.24586" stroke="#7649B3" stroke-width="0.5" stroke-linecap="round" stroke-linejoin="round"/>
<path d="M8.20117 4C9.0296 4 9.70117 3.32843 9.70117 2.5C9.70117 1.67157 9.0296 1 8.20117 1C7.37274 1 6.70117 1.67157 6.70117 2.5C6.70117 3.32843 7.37274 4 8.20117 4Z" fill="#FB8308" stroke="#FB8308" stroke-width="0.75" stroke-linecap="round" stroke-linejoin="round"/>
<path d="M2.20117 7.50098C3.0296 7.50098 3.70117 6.8294 3.70117 6.00098C3.70117 5.17255 3.0296 4.50098 2.20117 4.50098C1.37274 4.50098 0.701172 5.17255 0.701172 6.00098C0.701172 6.8294 1.37274 7.50098 2.20117 7.50098Z" fill="#FB8308" stroke="#FB8308" stroke-width="0.75" stroke-linecap="round" stroke-linejoin="round"/>
<path d="M8.20117 10.999C9.0296 10.999 9.70117 10.3275 9.70117 9.49902C9.70117 8.6706 9.0296 7.99902 8.20117 7.99902C7.37274 7.99902 6.70117 8.6706 6.70117 9.49902C6.70117 10.3275 7.37274 10.999 8.20117 10.999Z" fill="#FB8308" stroke="#FB8308" stroke-width="0.75" stroke-linecap="round" stroke-linejoin="round"/>
</svg>
