<svg width="53" height="54" viewBox="0 0 53 54" fill="none" xmlns="http://www.w3.org/2000/svg">
<circle cx="26.5176" cy="27" r="26.25" fill="white"/>
<path fill-rule="evenodd" clip-rule="evenodd" d="M36.9491 13.5C37.2866 13.5 37.5627 13.7749 37.5627 14.1136V17.1819H15.4715V14.1136C15.4715 13.7749 15.7464 13.5 16.0852 13.5H36.9491ZM37.563 27.6149C37.9925 27.6149 38.4 27.5327 38.7903 27.4148V39.2741H40.0176V40.5014H13.0172V39.2741H14.2445V27.4148C14.6348 27.5327 15.0423 27.6149 15.4718 27.6149C17.0427 27.6149 18.4038 26.757 19.1524 25.4941C19.9011 26.757 21.2646 27.6149 22.8355 27.6149C24.4052 27.6149 25.7688 26.7582 26.5174 25.4966C27.2648 26.7582 28.6296 27.6149 30.1993 27.6149C31.769 27.6149 33.1337 26.757 33.8824 25.4941C34.631 26.757 35.9933 27.6149 37.563 27.6149ZM23.4492 36.8196C23.7879 36.8196 24.0628 36.5434 24.0628 36.2059V31.2968C24.0628 30.9593 23.7879 30.6831 23.4492 30.6831H18.54C18.2013 30.6831 17.9264 30.9593 17.9264 31.2968V36.2059C17.9264 36.5434 18.2013 36.8196 18.54 36.8196H23.4492ZM27.7447 39.2741H33.8811V31.2968C33.8811 30.9593 33.605 30.6831 33.2675 30.6831H28.3583C28.0208 30.6831 27.7447 30.9593 27.7447 31.2968V39.2741ZM34.4955 23.3164C34.4955 25.0113 35.8689 26.3846 37.5638 26.3846C39.2586 26.3846 40.632 25.0113 40.632 23.3164L37.8252 18.4072H33.0928L34.4955 23.3164ZM27.1309 23.3164V18.4072H31.8645L33.2673 23.3164C33.2673 25.0113 31.894 26.3846 30.1991 26.3846C28.5042 26.3846 27.1309 25.0113 27.1309 23.3164ZM22.8354 26.3846C24.5302 26.3846 25.9036 25.0113 25.9036 23.3164V18.4072H21.1699L19.7671 23.3164C19.7671 25.0113 21.1405 26.3846 22.8354 26.3846ZM18.5398 23.3164C18.5398 25.0113 17.1664 26.3846 15.4715 26.3846C13.7767 26.3846 12.4033 25.0113 12.4033 23.3164L15.2089 18.4072H19.9426L18.5398 23.3164Z" fill="#FB8308"/>
</svg>
