<svg width="18" height="17" viewBox="0 0 18 17" fill="none" xmlns="http://www.w3.org/2000/svg">
<path fill-rule="evenodd" clip-rule="evenodd" d="M10.1132 14.8446H1.30488C1.09001 14.8446 0.910156 14.6666 0.910156 14.447C0.910156 10.9337 3.75827 8.0856 7.2716 8.0856C8.73116 8.0856 10.0759 8.57714 11.1493 9.40371C11.7958 8.94898 12.5838 8.68198 13.4343 8.68198C15.6301 8.68198 17.4102 10.4621 17.4102 12.6579C17.4102 14.8537 15.6301 16.6338 13.4343 16.6338C12.0463 16.6338 10.8244 15.9225 10.1132 14.8446ZM7.2716 7.29042C5.29535 7.29042 3.69329 5.68835 3.69329 3.7121C3.69329 1.73585 5.29535 0.133789 7.2716 0.133789C9.24785 0.133789 10.8499 1.73585 10.8499 3.7121C10.8499 5.68835 9.24785 7.29042 7.2716 7.29042ZM13.4343 15.441C14.9713 15.441 16.2174 14.195 16.2174 12.6579C16.2174 11.1208 14.9713 9.87475 13.4343 9.87475C11.8972 9.87475 10.6511 11.1208 10.6511 12.6579C10.6511 14.195 11.8972 15.441 13.4343 15.441ZM12.2415 12.0615H14.627C14.9564 12.0615 15.2234 12.3285 15.2234 12.6579C15.2234 12.9873 14.9564 13.2543 14.627 13.2543H12.2415C11.9121 13.2543 11.6451 12.9873 11.6451 12.6579C11.6451 12.3285 11.9121 12.0615 12.2415 12.0615Z" fill="#FB8308"/>
</svg>
