<svg width="20" height="20" viewBox="0 0 20 20" fill="none" xmlns="http://www.w3.org/2000/svg">
<path d="M1.06543 10.25C1.06543 15.2205 5.09486 19.25 10.0654 19.25C15.0359 19.25 19.0654 15.2205 19.0654 10.25C19.0654 5.27943 15.0359 1.25 10.0654 1.25C5.09486 1.25 1.06543 5.27943 1.06543 10.25Z" stroke="#FB8308" stroke-width="1.5" stroke-linecap="round" stroke-linejoin="round"/>
<path d="M10.9658 1.29395C10.9658 1.29395 13.6658 4.8495 13.6658 10.2495C13.6658 15.6495 10.9658 19.2051 10.9658 19.2051" stroke="#FB8308" stroke-width="1.5" stroke-linecap="round" stroke-linejoin="round"/>
<path d="M9.16582 19.2051C9.16582 19.2051 6.46582 15.6495 6.46582 10.2495C6.46582 4.8495 9.16582 1.29395 9.16582 1.29395" stroke="#FB8308" stroke-width="1.5" stroke-linecap="round" stroke-linejoin="round"/>
<path d="M1.63281 13.3994H18.4995" stroke="#FB8308" stroke-width="1.5" stroke-linecap="round" stroke-linejoin="round"/>
<path d="M1.63281 7.10059H18.4995" stroke="#FB8308" stroke-width="1.5" stroke-linecap="round" stroke-linejoin="round"/>
</svg>
