<svg width="34" height="35" viewBox="0 0 34 35" fill="none" xmlns="http://www.w3.org/2000/svg">
<path d="M15.5833 8.70468V27.6285C15.5833 29.0054 14.4671 30.1216 13.0903 30.1216C12.0366 30.1216 11.0968 29.4592 10.7424 28.467L7.70167 19.7557M25.5 18.7882C27.8472 18.7882 29.75 16.8855 29.75 14.5382C29.75 12.191 27.8472 10.2882 25.5 10.2882M7.70167 19.7557C5.67275 18.8932 4.25 16.8819 4.25 14.5382C4.25 11.4086 6.78705 8.87158 9.91666 8.87158H12.5121C18.3214 8.87158 23.3139 7.12328 25.5 4.62158L25.5 24.4549C23.3139 21.9532 18.3214 20.2049 12.5121 20.2049L9.91663 20.2049C9.13067 20.2049 8.38208 20.0449 7.70167 19.7557Z" stroke="#AB47BC" stroke-width="2" stroke-linecap="round" stroke-linejoin="round"/>
</svg>
