<svg width="33" height="15" viewBox="0 0 33 15" fill="none" xmlns="http://www.w3.org/2000/svg">
<path d="M13.4168 0.849863C13.1033 0.928246 12.8333 1.05017 12.5851 1.22871C12.4762 1.3071 11.5443 2.18237 10.5167 3.17522C9.48897 4.16372 8.60498 5.00416 8.55273 5.03899C8.46563 5.0956 7.95179 5.1914 5.97045 5.50929C2.22549 6.11023 1.82486 6.18425 1.55923 6.3236C1.15861 6.53698 0.888622 6.92889 0.788466 7.42532C0.75363 7.60821 0.74492 8.27882 0.75363 9.62439C0.766693 11.5404 0.766693 11.5622 0.866849 11.7451C1.01491 12.0238 1.21522 12.2284 1.45908 12.3591L1.68116 12.4767L2.91351 12.4897C3.70605 12.4984 4.14151 12.5202 4.14151 12.5463C4.14151 12.6334 4.52472 13.1777 4.73374 13.3868C5.78755 14.4362 7.44666 14.5364 8.65724 13.6176C8.92722 13.4173 9.2843 13.0036 9.44977 12.7075L9.56299 12.4984H17.0181H24.4732L24.6125 12.7466C24.7998 13.0863 25.4312 13.7047 25.7621 13.8788C26.289 14.1532 26.5677 14.2185 27.2427 14.2185C27.6825 14.2141 27.9133 14.1967 28.0701 14.1445C28.8495 13.8919 29.4418 13.4303 29.825 12.7771L29.9861 12.4984H30.6001C31.5102 12.4984 31.8586 12.3591 32.1242 11.8801L32.2505 11.6493V9.31957C32.2505 6.68939 32.2548 6.72422 31.9152 6.34102C31.6495 6.0362 31.3709 5.9012 30.8309 5.81411C30.7264 5.80105 30.6306 5.74008 30.5522 5.64864C30.4825 5.57461 30.182 5.24366 29.8816 4.92142C29.5768 4.59918 28.7494 3.70213 28.0352 2.93572C27.3254 2.16495 26.6548 1.45515 26.5503 1.36371C26.4414 1.26791 26.2281 1.12856 26.08 1.05453C25.4921 0.767125 25.8666 0.784544 19.4654 0.788898C14.7493 0.793253 13.6128 0.801962 13.4168 0.849863ZM17.4579 4.01566L17.4448 5.55284H14.1353H10.8258L10.8128 5.45268C10.7953 5.34381 10.7431 5.39607 11.8274 4.37709C12.2324 3.99389 12.8072 3.44956 13.1033 3.16651C13.3994 2.88346 13.7042 2.61348 13.7783 2.56558C13.9089 2.48719 14.0134 2.48284 15.6943 2.48284H17.4666L17.4579 4.01566ZM25.0872 2.52639C25.2004 2.58735 27.4386 5.32204 27.4386 5.40042C27.4386 5.4222 27.4082 5.4701 27.369 5.50494C27.308 5.5659 26.8769 5.57461 23.2539 5.57461H19.2084V4.02872V2.48284H22.1086C23.9942 2.48284 25.0349 2.50026 25.0872 2.52639ZM7.72971 9.33699C8.814 9.8726 9.24075 11.1659 8.67901 12.211C8.61369 12.333 8.44386 12.5507 8.2958 12.6987C7.48585 13.5131 6.2143 13.5305 5.38257 12.7336C4.92534 12.2938 4.72938 11.7886 4.75987 11.1137C4.77293 10.7348 4.79035 10.6564 4.9384 10.3473C5.19533 9.81164 5.66562 9.39795 6.25349 9.20635C6.36671 9.16716 6.60186 9.14974 6.91104 9.15845C7.36827 9.16716 7.40311 9.17587 7.72971 9.33699ZM27.8785 9.23248C28.7973 9.51553 29.4287 10.4431 29.3416 11.3837C29.1718 13.1865 26.9858 13.9703 25.7142 12.6857C24.7736 11.7364 24.9391 10.2166 26.0626 9.47198C26.1932 9.38489 26.411 9.27602 26.5547 9.23248C26.9074 9.11926 27.5127 9.11926 27.8785 9.23248Z" fill="#C11F50"/>
</svg>
