<svg width="21" height="22" viewBox="0 0 21 22" fill="none" xmlns="http://www.w3.org/2000/svg">
<path d="M9.14527 7.78588C11.0687 7.3317 12.2598 5.40425 11.8056 3.4808C11.3514 1.55735 9.42398 0.366275 7.50053 0.820456C5.57709 1.27464 4.38601 3.20209 4.84019 5.12553C5.29437 7.04898 7.22182 8.24006 9.14527 7.78588Z" fill="#FB8308"/>
<path d="M14.8436 11.9645C14.8574 11.9645 14.8712 11.9645 14.8869 11.9645C13.9116 10.1103 12.1164 8.79485 10.0341 8.44092C9.50717 8.65917 8.93105 8.78108 8.32544 8.78108C7.72179 8.78108 7.14371 8.66114 6.61675 8.44288C3.39796 8.98754 0.987305 11.8347 0.987305 15.1145V16.3178C0.987305 16.9411 1.4946 17.4504 2.11791 17.4504H11.5128C11.2414 16.9313 11.0881 16.3434 11.0881 15.7181C11.09 13.6476 12.7732 11.9645 14.8436 11.9645Z" fill="#FB8308"/>
<path d="M14.8436 12.856C13.2686 12.856 11.9846 14.138 11.9846 15.713C11.9846 17.2879 13.2666 18.5699 14.8436 18.5699C16.4186 18.5699 17.7006 17.2879 17.7006 15.713C17.7006 14.138 16.4186 12.856 14.8436 12.856ZM17.2424 15.7149C17.2424 15.9627 17.0419 16.1613 16.7961 16.1613H15.2899V17.6674C15.2899 17.9152 15.0894 18.1138 14.8436 18.1138C14.5958 18.1138 14.3953 17.9132 14.3953 17.6674V16.1613H12.8891C12.6414 16.1613 12.4428 15.9607 12.4428 15.7149C12.4428 15.4672 12.6433 15.2686 12.8891 15.2686H14.3953V13.7624C14.3953 13.5147 14.5958 13.3161 14.8436 13.3161C15.0913 13.3161 15.2899 13.5166 15.2899 13.7624V15.2686H16.7961C17.0419 15.2666 17.2424 15.4672 17.2424 15.7149Z" fill="white"/>
<rect x="8.42334" y="9.25024" width="11.4998" height="11.4998" rx="5.74991" fill="#FB8308" stroke="white" stroke-width="1.5"/>
<path d="M11 15.1818L12.875 17L17 13" stroke="white" stroke-width="1.5" stroke-linecap="round" stroke-linejoin="round"/>
</svg>
