<svg width="33" height="25" viewBox="0 0 33 25" fill="none" xmlns="http://www.w3.org/2000/svg">
<path fill-rule="evenodd" clip-rule="evenodd" d="M24.3547 3.00492C24.3584 1.54804 25.5446 0.36925 27.0033 0.371096C28.462 0.372942 29.6771 1.59049 29.6685 3.04122C29.6599 4.49625 28.4386 5.70149 26.9824 5.69226C25.5107 5.68304 24.3504 4.49686 24.3541 3.00492H24.3547ZM25.6148 14.7686C25.659 14.6601 25.6556 14.5538 25.6522 14.4498C25.6513 14.4206 25.6503 14.3914 25.6505 14.3625C25.6508 13.8287 25.6525 13.2949 25.6542 12.761V12.761V12.7609V12.7608C25.6588 11.3368 25.6633 9.91269 25.6419 8.48888C25.6283 7.58325 26.222 6.86527 27.2046 6.94217C27.4287 6.95994 27.6547 6.95531 27.8806 6.95069C27.9832 6.94858 28.0859 6.94648 28.1883 6.94648C29.1093 6.9471 29.6673 7.48912 29.6698 8.41259C29.6743 9.85882 29.6736 11.3054 29.6728 12.7518V12.7519V12.7519V12.752C29.6725 13.2942 29.6723 13.8364 29.6723 14.3785C29.6723 14.5352 29.6725 14.6919 29.6728 14.8487C29.6734 15.225 29.6741 15.6014 29.671 15.9775C29.6624 16.9582 29.1167 17.5033 28.144 17.5045C27.1121 17.5054 26.0801 17.5051 25.0482 17.5048L23.5002 17.5045H23.1938C23.0864 17.6219 23.0926 17.7365 23.0984 17.8439C23.0997 17.8688 23.1011 17.8933 23.1009 17.9174C23.0998 18.357 23.1002 18.7966 23.1007 19.2362C23.1014 19.9446 23.1021 20.653 23.096 21.3614C23.0886 22.2148 22.4734 22.7814 21.6281 22.7365C20.995 22.7027 20.429 22.1539 20.4228 21.5165L20.4206 21.2781V21.2779V21.2778V21.2778C20.4076 19.9225 20.3947 18.5663 20.4284 17.2117C20.4591 15.9732 21.6508 14.8486 22.8985 14.8258C23.4042 14.8167 23.9099 14.818 24.4155 14.8193C24.6992 14.82 24.9829 14.8208 25.2666 14.8196C25.2881 14.8196 25.3098 14.8206 25.3317 14.8216C25.4221 14.8256 25.5161 14.8297 25.6142 14.7673L25.6148 14.7686ZM32.2504 17.3653C32.0216 18.386 31.4918 19.1882 30.5678 19.7124C30.0356 20.0145 29.4566 20.1154 28.8568 20.1406C28.8168 20.1422 28.7766 20.1413 28.7357 20.1404C28.6212 20.1379 28.5014 20.1352 28.3677 20.1874V22.6366C28.4477 22.7066 28.5372 22.7016 28.6246 22.6968H28.6247L28.6247 22.6968C28.6488 22.6955 28.6727 22.6942 28.6962 22.6945C28.9128 22.696 29.1294 22.6957 29.3461 22.6955C29.6521 22.6951 29.9581 22.6947 30.2638 22.6994C30.6539 22.7055 30.9443 22.975 30.9677 23.3318C30.9898 23.6751 30.7505 23.9729 30.382 24.048C30.2724 24.0701 30.1586 24.0763 30.046 24.0763C28.4575 24.0781 26.869 24.0781 25.2804 24.0763C25.1482 24.0763 25.0128 24.0658 24.8848 24.0357C24.5169 23.9477 24.3188 23.6573 24.3576 23.2832C24.3926 22.9418 24.6547 22.7055 25.0313 22.7C25.3363 22.6952 25.6413 22.6959 25.9464 22.6966C26.1538 22.6971 26.3613 22.6976 26.5687 22.6963C26.5896 22.6962 26.6106 22.697 26.6319 22.6979C26.7231 22.7016 26.8191 22.7055 26.9243 22.6342V20.1431H24.3742V18.8345C24.4776 18.7484 24.5873 18.7542 24.6931 18.7598C24.719 18.7611 24.7446 18.7625 24.7698 18.7625C25.2962 18.7613 25.8227 18.7617 26.3493 18.762C27.1858 18.7626 28.0223 18.7632 28.8586 18.7576C29.8602 18.7508 30.6016 18.1866 30.8422 17.2792C30.8895 17.1006 30.8887 16.9196 30.8879 16.7387L30.8877 16.6682C30.8885 14.7873 30.8888 12.9067 30.889 11.0259L30.8895 8.21367C30.8895 8.17493 30.8893 8.13612 30.889 8.09728V8.09719V8.0971V8.09702V8.09693V8.0969V8.09688V8.09685V8.09683V8.09681C30.8881 7.94087 30.8871 7.78447 30.9018 7.63043C30.9314 7.32281 31.0679 7.07179 31.3817 6.98136C31.6949 6.89092 31.9699 6.96721 32.1655 7.2496C32.1809 7.27201 32.2007 7.29135 32.2207 7.31081C32.2303 7.3202 32.24 7.32962 32.2492 7.33942V17.3678L32.2504 17.3653ZM0.750488 7.33841C0.891377 7.15938 1.03596 6.98896 1.28328 6.95451C1.76932 6.88621 2.10277 7.20614 2.10708 7.782C2.1134 8.60852 2.11244 9.43538 2.11147 10.2621V10.2621V10.2621V10.2621V10.2622V10.2622V10.2623V10.2623V10.2624V10.2625V10.2625C2.11112 10.563 2.11077 10.8635 2.11077 11.1639C2.11077 11.7076 2.11337 12.2512 2.11596 12.7948V12.7948C2.12212 14.0857 2.12827 15.3766 2.0997 16.6672C2.07447 17.8079 2.88966 18.7713 4.20257 18.7621C5.25203 18.7548 6.30188 18.7575 7.3515 18.7601H7.35193H7.35211H7.35229H7.35247H7.35265H7.35283C7.63495 18.7609 7.91706 18.7616 8.19914 18.7621C8.22331 18.7621 8.24763 18.7613 8.2722 18.7605H8.27228C8.38091 18.7568 8.49451 18.753 8.62242 18.8187C8.66281 19.1625 8.65221 19.5168 8.6405 19.908L8.6405 19.9081L8.6405 19.9081C8.6383 19.9817 8.63606 20.0565 8.63411 20.1328H6.07842V22.6368C6.18033 22.7063 6.27476 22.7024 6.36485 22.6987C6.38734 22.6978 6.40957 22.6969 6.43157 22.6971C6.62743 22.6985 6.82338 22.6981 7.01935 22.6977H7.01937H7.01938H7.0194H7.01941H7.01943C7.34606 22.6969 7.67274 22.6962 7.99919 22.7039C8.35233 22.7119 8.60827 22.9586 8.64149 23.2878C8.67779 23.6501 8.49076 23.9393 8.14069 24.0297C7.99427 24.0673 7.83738 24.0783 7.6848 24.0783C6.30375 24.081 4.9227 24.0804 3.54123 24.0798H3.54101H3.54078H3.54055H3.54032H3.5401L2.94995 24.0796C2.85767 24.0796 2.76477 24.079 2.67433 24.0648C2.2732 24.0021 2.00618 23.6938 2.03202 23.3314C2.05786 22.9666 2.3581 22.7039 2.77031 22.7008C3.19741 22.6974 3.62422 22.6982 4.06094 22.6989H4.06177H4.06261H4.06344H4.06428H4.06512C4.2536 22.6993 4.44393 22.6996 4.63693 22.6996V20.1907C4.45152 20.1304 4.26635 20.1302 4.08328 20.1299H4.08326H4.08324H4.08322H4.0832H4.08317C3.96922 20.1298 3.85609 20.1296 3.74422 20.115C2.22951 19.9175 1.2679 19.082 0.82124 17.6331C0.806901 17.5863 0.79025 17.5401 0.773664 17.494L0.773659 17.494C0.76605 17.4729 0.758455 17.4518 0.751104 17.4307V7.34087L0.750488 7.33841ZM19.1515 24.0446V12.3361H19.1522C19.3193 12.2651 19.472 12.2625 19.6157 12.26C19.7174 12.2583 19.8147 12.2566 19.9095 12.2309C20.3322 12.1165 20.558 11.7405 20.4294 11.337C20.3383 11.0509 20.0805 10.8841 19.7046 10.8841C18.3511 10.8827 16.9976 10.8828 15.6441 10.8829L14.6289 10.8829L13.5769 10.8829C12.1742 10.8828 10.7714 10.8827 9.36868 10.8841C8.95586 10.8848 8.69623 11.0632 8.62117 11.3849C8.51474 11.8421 8.8082 12.2044 9.32438 12.261C9.3764 12.2668 9.42946 12.2654 9.48399 12.264C9.61652 12.2606 9.75774 12.2569 9.91378 12.3546V24.0446H19.1515ZM8.56883 14.8195H7.35005H7.34943V14.3913L7.34959 12.8927C7.34982 11.3937 7.35005 9.89446 7.3482 8.39521C7.34697 7.50004 6.80126 6.95248 5.91594 6.94941C5.53695 6.94818 5.15735 6.94756 4.77837 6.94941C3.90904 6.95371 3.35533 7.48774 3.33072 8.35645C3.32251 8.65106 3.32431 8.94628 3.32611 9.24146C3.32688 9.36669 3.32764 9.4919 3.32764 9.61707C3.32764 10.2537 3.32731 10.8902 3.32698 11.5268V11.5268V11.5269C3.3262 13.012 3.32543 14.497 3.32887 15.9823C3.33133 16.9574 3.88812 17.5056 4.86081 17.5068C5.97807 17.5081 7.09534 17.5081 8.21261 17.5056C8.2399 17.5055 8.2675 17.5066 8.29514 17.5078C8.39957 17.5122 8.5047 17.5167 8.59713 17.4515C8.67711 17.1365 8.66542 15.0994 8.56883 14.8195ZM6.01751 5.69165C7.47008 5.68857 8.64826 4.49871 8.64641 3.03629C8.64456 1.55112 7.47008 0.36925 5.99782 0.371096C4.54033 0.372942 3.32032 1.5948 3.33263 3.0406C3.34493 4.50055 4.55387 5.69473 6.01751 5.69165Z" fill="#8BC34A"/>
</svg>
