<svg width="21" height="19" viewBox="0 0 21 19" fill="none" xmlns="http://www.w3.org/2000/svg">
<path fill-rule="evenodd" clip-rule="evenodd" d="M20.7485 16.0186V6.6659C20.7485 5.86182 20.0714 5.18471 19.1827 5.01543V1.48878C19.1827 0.712921 18.5479 0.078125 17.772 0.078125H4.92094C4.14508 0.078125 3.51029 0.712921 3.51029 1.48878V3.8869H1.63411H1.63411C1.57768 3.8869 1.52126 3.8869 1.46483 3.90101C0.688969 3.98565 0.181132 4.74741 0.293985 5.52327L0.477371 6.82107L2.40997 15.9621C2.60747 17.1189 3.35511 18.0781 4.52596 18.0781H18.0965H18.2517H19.5636C19.4789 18.0781 19.4084 18.064 19.3238 18.0358C19.3661 18.0499 19.4225 18.0499 19.4789 18.0499C20.8614 18.0358 20.7485 16.0186 20.7485 16.0186ZM18.4069 16.9778L18.4069 16.9778L18.4068 16.9778C18.4139 16.9708 18.4209 16.9672 18.428 16.9637C18.4351 16.9602 18.4421 16.9567 18.4492 16.9496C18.4527 16.9602 18.4562 16.9711 18.4598 16.9821C18.4631 16.9924 18.4665 17.0029 18.4699 17.0135C18.4919 17.0822 18.5159 17.1569 18.5479 17.2317C18.4915 17.1471 18.4492 17.0625 18.4069 16.9778ZM4.38489 1.48878C4.38489 1.19255 4.62471 0.938627 4.93505 0.938627H17.7862C18.0824 0.938627 18.3363 1.17844 18.3363 1.48878V15.7223C18.3363 15.9198 18.2376 16.0891 18.0824 16.1737C18.026 16.0186 17.9977 15.9198 17.9977 15.9198L16.3473 8.48565C16.178 7.55462 15.3175 6.79286 14.3865 6.79286H9.26577L8.54634 5.14239C8.34885 4.39474 7.10747 3.8728 6.34571 3.8728H4.38489V1.48878ZM16.1781 2.50391H9.68906V3.36441H16.1781V2.50391ZM10.4786 4.47852H16.1777V5.33902H10.4786V4.47852Z" fill="#FB8308"/>
</svg>
