<svg width="18" height="19" viewBox="0 0 18 19" fill="none" xmlns="http://www.w3.org/2000/svg">
<path d="M17.2641 7.00771L6.64878 17.2809C6.09672 17.7984 5.37115 18.0876 4.61404 18.0876H0.907353C0.702302 18.0876 0.513025 18.0115 0.371066 17.8745C0.229108 17.7375 0.166016 17.5549 0.166016 17.357L0.260654 13.75C0.276428 13.0347 0.576117 12.365 1.09663 11.8628L8.62042 4.60302C8.7466 4.48126 8.96743 4.48126 9.09361 4.60302L11.7277 7.12947C11.9012 7.29688 12.1536 7.40342 12.4217 7.40342C13.0054 7.40342 13.4628 6.94683 13.4628 6.39893C13.4628 6.12497 13.3524 5.88146 13.1789 5.69883C13.1315 5.63795 10.6236 3.23326 10.6236 3.23326C10.4659 3.08106 10.4659 2.82233 10.6236 2.67013L11.6804 1.6352C12.6583 0.691587 14.2357 0.691587 15.2136 1.6352L17.2641 3.61374C18.2263 4.54214 18.2263 6.0641 17.2641 7.00771Z" fill="#FB8308"/>
</svg>
