<svg width="27" height="28" viewBox="0 0 27 28" fill="none" xmlns="http://www.w3.org/2000/svg">
<path fill-rule="evenodd" clip-rule="evenodd" d="M18.3094 20.549C18.2533 20.6229 18.1918 20.6932 18.1256 20.7594C17.7368 21.1482 17.2091 21.3669 16.6589 21.3669H11.012C10.8489 21.3669 10.7165 21.2345 10.7165 21.0714C10.7165 20.9083 10.8489 20.7759 11.012 20.7759H16.6589C17.0525 20.7759 17.4295 20.6193 17.7078 20.3416C17.9862 20.0633 18.1422 19.6857 18.1422 19.2927V19.2909C18.1422 18.8979 17.9862 18.5203 17.7078 18.2426C17.4295 17.9643 17.0525 17.8077 16.6589 17.8077H8.85803C8.84503 17.8077 8.83203 17.8071 8.81962 17.8053H7.59107C6.89554 17.8053 6.21597 18.0121 5.63863 18.3998C4.3764 19.2466 2.09363 20.7783 1.00927 21.5057C0.675987 21.7291 0.587348 22.1806 0.81072 22.5133C1.58425 23.6662 3.26486 26.1711 4.03839 27.324C4.26176 27.6567 4.71264 27.746 5.04593 27.522C6.03869 26.856 7.90899 25.6015 7.90899 25.6015C7.90899 25.6015 13.6788 25.9052 16.4545 26.0518C17.3917 26.1014 18.3094 25.7728 19.002 25.1405C20.747 23.5515 24.1348 20.4485 25.7339 18.8495C26.05 18.5333 26.2787 18.1415 26.31 17.696C26.3419 17.2504 26.1954 16.8102 25.9023 16.4728C25.6092 16.1353 25.1943 15.9273 24.7488 15.896C24.3026 15.8641 23.863 16.0112 23.5255 16.3037C23.5255 16.3037 19.5994 19.5231 18.3094 20.549Z" fill="#03A9F4"/>
<path fill-rule="evenodd" clip-rule="evenodd" d="M13.057 0.803649C13.4226 0.592794 13.8732 0.592794 14.2388 0.803649C15.7091 1.65274 19.547 3.86841 21.3863 4.93005C21.6544 5.08536 21.85 5.34042 21.9304 5.63913C22.0104 5.93841 21.9684 6.25696 21.8137 6.52563L21.8131 6.52676C21.6578 6.79487 21.4027 6.99042 21.104 7.07034C20.8047 7.15083 20.4862 7.10888 20.2175 6.95414C18.1538 5.76213 13.6476 3.16046 13.6476 3.16046C13.6476 3.16046 9.142 5.76213 7.07766 6.95414C6.80956 7.10888 6.49101 7.15083 6.19173 7.07034C5.89245 6.99042 5.63739 6.79487 5.48265 6.52676L5.48208 6.52563C5.32734 6.25696 5.2854 5.93841 5.36532 5.63913C5.44581 5.34042 5.64136 5.08536 5.90946 4.93005C7.74877 3.86841 11.5861 1.65274 13.057 0.803649Z" fill="#03A9F4"/>
<path fill-rule="evenodd" clip-rule="evenodd" d="M19.6787 7.3265L13.6482 3.84473L7.61719 7.3265V15.4217H11.9351V10.6836H15.3608V15.4217H19.6787V7.3265Z" fill="#03A9F4"/>
</svg>
