<?xml version="1.0" encoding="UTF-8" standalone="no"?>
<svg
   width="12"
   height="12"
   viewBox="0 0 12 12"
   fill="none"
   version="1.1"
   id="svg5"
   sodipodi:docname="global.svg"
   xml:space="preserve"
   inkscape:version="1.3.2 (1:1.3.2+202311252150+091e20ef0f)"
   xmlns:inkscape="http://www.inkscape.org/namespaces/inkscape"
   xmlns:sodipodi="http://sodipodi.sourceforge.net/DTD/sodipodi-0.dtd"
   xmlns="http://www.w3.org/2000/svg"
   xmlns:svg="http://www.w3.org/2000/svg"><defs
     id="defs5" /><sodipodi:namedview
     id="namedview5"
     pagecolor="#ffffff"
     bordercolor="#666666"
     borderopacity="1.0"
     inkscape:showpageshadow="2"
     inkscape:pageopacity="0.0"
     inkscape:pagecheckerboard="0"
     inkscape:deskcolor="#d1d1d1"
     inkscape:zoom="15.083333"
     inkscape:cx="10.872928"
     inkscape:cy="-5.3370166"
     inkscape:window-width="1920"
     inkscape:window-height="1014"
     inkscape:window-x="0"
     inkscape:window-y="0"
     inkscape:window-maximized="1"
     inkscape:current-layer="svg5" /><path
     d="M6 11C8.76142 11 11 8.76142 11 6C11 3.23858 8.76142 1 6 1C3.23858 1 1 3.23858 1 6C1 8.76142 3.23858 11 6 11Z"
     stroke="#909090"
     stroke-width="0.7"
     stroke-linecap="round"
     stroke-linejoin="round"
     id="path1"
     style="stroke:#008c00;stroke-opacity:1" /><path
     d="M4.00005 1.5H4.50005C3.52505 4.42 3.52505 7.58 4.50005 10.5H4.00005"
     stroke="#909090"
     stroke-width="0.7"
     stroke-linecap="round"
     stroke-linejoin="round"
     id="path2"
     style="stroke:#008c00;stroke-opacity:1" /><path
     d="M7.5 1.5C8.475 4.42 8.475 7.58 7.5 10.5"
     stroke="#909090"
     stroke-width="0.7"
     stroke-linecap="round"
     stroke-linejoin="round"
     id="path3"
     style="stroke:#008c00;stroke-opacity:1" /><path
     d="M1.5 8V7.5C4.42 8.475 7.58 8.475 10.5 7.5V8"
     stroke="#909090"
     stroke-width="0.7"
     stroke-linecap="round"
     stroke-linejoin="round"
     id="path4"
     style="stroke:#008c00;stroke-opacity:1" /><path
     d="M1.5 4.49999C4.42 3.52499 7.58 3.52499 10.5 4.49999"
     stroke="#909090"
     stroke-width="0.7"
     stroke-linecap="round"
     stroke-linejoin="round"
     id="path5"
     style="stroke:#008c00;stroke-opacity:1" /></svg>
