<svg width="27" height="28" viewBox="0 0 27 28" fill="none" xmlns="http://www.w3.org/2000/svg">
<path fill-rule="evenodd" clip-rule="evenodd" d="M8.60479 0.831056H6.03683C5.77645 0.83081 5.51857 0.881915 5.27796 0.981447C5.03734 1.08098 4.81872 1.22698 4.6346 1.4111C4.45048 1.59523 4.30447 1.81385 4.20494 2.05446C4.10541 2.29507 4.0543 2.55295 4.05455 2.81334V3.99971C4.6152 3.96967 5.17584 3.94462 5.68643 3.92462V2.96852C5.68746 2.8299 5.74333 2.69732 5.84182 2.59977C5.94031 2.50222 6.07341 2.44762 6.21204 2.44792H8.42959C8.56821 2.44762 8.70132 2.50222 8.79981 2.59977C8.8983 2.69732 8.95416 2.8299 8.9552 2.96852V3.92462C9.46578 3.94464 10.0214 3.96967 10.5871 3.99971V2.81334C10.5867 2.28771 10.3778 1.78371 10.0061 1.41204C9.63442 1.04036 9.13042 0.831404 8.60479 0.831056ZM10.0864 19.1822L9.20536 21.4799C9.04996 21.8862 9.06171 22.3375 9.23805 22.7352C9.41439 23.1329 9.74098 23.4447 10.1464 23.6023L11.2978 24.0428C11.1046 24.4129 10.9728 24.8119 10.9073 25.2242C10.9048 25.2442 10.9036 25.263 10.9023 25.2817C10.9011 25.3005 10.8998 25.3193 10.8973 25.3393C9.40562 25.4394 7.90392 25.4394 7.31822 25.4394H7.31819H7.31816C6.73246 25.4394 5.23576 25.4394 3.74407 25.3393C3.74157 25.3193 3.74032 25.3005 3.73907 25.2817C3.73782 25.263 3.73657 25.2442 3.73406 25.2242C3.66322 24.7422 3.49758 24.2791 3.24669 23.8615C2.99581 23.4439 2.66466 23.0802 2.27238 22.7914C1.74001 22.4149 1.11545 22.19 0.465298 22.1406C0.45029 22.1381 0.436533 22.1381 0.422776 22.1381H0.422745C0.40898 22.1381 0.395215 22.1381 0.3802 22.1356C0.169957 19.903 0.0297959 17.4953 0.00476711 14.9323C-0.0252675 11.9088 0.104882 9.1006 0.330142 6.53264C0.361037 6.18493 0.512565 5.85898 0.758484 5.61123C1.0044 5.36349 1.32922 5.20955 1.67669 5.17608C2.39252 5.106 3.22848 5.04593 4.05443 5.00088C4.62008 4.97084 5.17572 4.94581 5.68631 4.92579C6.34707 4.90076 6.92273 4.88574 7.31819 4.88574C7.71365 4.88574 8.29432 4.90076 8.95508 4.92579C9.46066 4.94579 10.0213 4.97084 10.587 5.00088C11.4079 5.04593 12.2489 5.106 12.9647 5.17608C13.3122 5.20955 13.637 5.36349 13.8829 5.61123C14.1288 5.85898 14.2803 6.18493 14.3112 6.53264C14.3513 6.97815 14.3863 7.43368 14.4164 7.89421L11.0875 16.5742V7.68897C11.0875 7.55621 11.0348 7.42889 10.9409 7.33501C10.847 7.24114 10.7197 7.1884 10.587 7.1884C10.4542 7.1884 10.3269 7.24114 10.233 7.33501C10.1391 7.42889 10.0864 7.55621 10.0864 7.68897V19.1822ZM4.40839 22.9801C4.50227 22.8863 4.55501 22.7589 4.55501 22.6262V7.68897C4.55501 7.55621 4.50227 7.42889 4.40839 7.33501C4.31452 7.24114 4.18719 7.1884 4.05443 7.1884C3.92167 7.1884 3.79435 7.24114 3.70047 7.33501C3.60659 7.42889 3.55385 7.55621 3.55385 7.68897V22.6262C3.55385 22.7589 3.60659 22.8863 3.70047 22.9801C3.79435 23.074 3.92167 23.1268 4.05443 23.1268C4.18719 23.1268 4.31452 23.074 4.40839 22.9801ZM7.70719 22.9801C7.80107 22.8863 7.85381 22.7589 7.85381 22.6262V7.68897C7.85381 7.55621 7.80107 7.42889 7.70719 7.33501C7.61332 7.24114 7.48599 7.1884 7.35323 7.1884C7.22047 7.1884 7.09315 7.24114 6.99927 7.33501C6.90539 7.42889 6.85265 7.55621 6.85265 7.68897V22.6262C6.85265 22.7589 6.90539 22.8863 6.99927 22.9801C7.09315 23.074 7.22047 23.1268 7.35323 23.1268C7.48599 23.1268 7.61332 23.074 7.70719 22.9801ZM1.68892 23.6032C1.33146 23.3503 0.914739 23.194 0.479126 23.1494L0.498486 23.3416C0.518121 23.5376 0.537758 23.7337 0.560485 23.9268C0.591708 24.2197 0.717574 24.4945 0.919009 24.7095C1.12044 24.9245 1.38647 25.0679 1.67677 25.1181C1.99461 25.1722 2.34771 25.2144 2.71105 25.2518C2.58991 24.5932 2.22493 24.0046 1.68892 23.6032ZM12.2437 24.4092L13.5102 24.8947C13.3466 25.0081 13.1605 25.0849 12.9645 25.12C12.6442 25.1751 12.2888 25.2151 11.9283 25.2552C11.9895 24.9587 12.0959 24.6733 12.2437 24.4092ZM3.55398 26.7002V26.3297C3.03838 26.2947 2.52279 26.2446 2.04724 26.1846V26.7002C2.04724 26.9 2.12661 27.0916 2.2679 27.2329C2.40918 27.3742 2.6008 27.4535 2.80061 27.4535C3.00041 27.4535 3.19204 27.3742 3.33332 27.2329C3.4746 27.0916 3.55398 26.9 3.55398 26.7002ZM12.5943 26.1846V26.7002C12.5943 26.7991 12.5748 26.8971 12.5369 26.9885C12.4991 27.0799 12.4436 27.1629 12.3736 27.2329C12.3036 27.3028 12.2206 27.3583 12.1292 27.3962C12.0378 27.434 11.9398 27.4535 11.8409 27.4535C11.742 27.4535 11.644 27.434 11.5526 27.3962C11.4612 27.3583 11.3781 27.3028 11.3082 27.2329C11.2382 27.1629 11.1827 27.0799 11.1449 26.9885C11.107 26.8971 11.0875 26.7991 11.0875 26.7002V26.3297C11.6031 26.2947 12.1187 26.2446 12.5943 26.1846ZM20.7419 10.7656C20.8997 11.6625 20.8272 12.5847 20.5313 13.446L19.1053 12.8986C19.4616 12.0606 20.0247 11.3267 20.7419 10.7656ZM18.7469 13.833C18.453 14.6912 18.3815 15.6099 18.539 16.5032C19.2541 15.9449 19.8159 15.2144 20.172 14.3801L18.7469 13.833ZM16.4692 14.7121C16.2742 14.1353 16.2412 13.5161 16.3738 12.9219L17.8133 13.4745C17.5213 14.3492 17.4079 15.2736 17.4798 16.193C17.0138 15.8011 16.6643 15.2889 16.4692 14.7121ZM19.6378 10.291C19.0468 10.2918 18.4666 10.4492 17.9563 10.7473C17.446 11.0453 17.0238 11.4732 16.7327 11.9876L18.1719 12.54C18.5384 11.697 19.0692 10.9354 19.7333 10.2998C19.7183 10.2994 19.7034 10.2974 19.6885 10.2955C19.6716 10.2932 19.6547 10.291 19.6378 10.291ZM16.7091 6.50374L26.5905 10.2981C26.6691 10.3278 26.741 10.3729 26.8021 10.4306C26.8631 10.4884 26.9121 10.5577 26.9461 10.6346C26.9801 10.7115 26.9985 10.7943 27.0002 10.8783C27.0019 10.9624 26.9868 11.0459 26.9559 11.1241L21.2143 26.0913C21.1523 26.2499 21.0303 26.3776 20.8748 26.447C20.7193 26.5163 20.5427 26.5216 20.3833 26.4617C19.8771 26.2674 11.0152 22.8647 10.507 22.6674C10.3484 22.6069 10.2203 22.4859 10.1508 22.3311C10.0813 22.1762 10.0762 22.0001 10.1365 21.8414L11.0876 19.3636L14.5566 10.3281V10.3231L15.8832 6.87416C15.9436 6.71556 16.0646 6.58744 16.2195 6.51798C16.3743 6.44852 16.5505 6.4434 16.7091 6.50374ZM19.7898 23.9818L20.5632 21.9669C20.5791 21.9256 20.5867 21.8816 20.5855 21.8374C20.5843 21.7932 20.5745 21.7496 20.5565 21.7092C20.5385 21.6688 20.5127 21.6323 20.4806 21.6018C20.4485 21.5714 20.4108 21.5475 20.3695 21.5317L13.8153 19.0157C13.7319 18.9837 13.6391 18.9862 13.5575 19.0225C13.4759 19.0588 13.412 19.1261 13.38 19.2095L12.6066 21.2243C12.5746 21.3078 12.577 21.4005 12.6134 21.4821C12.6497 21.5637 12.717 21.6275 12.8004 21.6596L19.3546 24.1755C19.3959 24.1914 19.4399 24.1989 19.4841 24.1978C19.5284 24.1966 19.5719 24.1868 19.6123 24.1688C19.6528 24.1508 19.6892 24.125 19.7197 24.0929C19.7501 24.0608 19.774 24.0231 19.7898 23.9818ZM21.43 17.6025C22.4737 17.1313 23.2889 16.2668 23.6982 15.1974C24.1095 14.122 24.078 12.9274 23.6105 11.8751C23.143 10.8229 22.2773 9.99869 21.2035 9.5831L21.1973 9.58032L21.1918 9.57854L21.1897 9.57784C20.1135 9.16845 18.9189 9.2027 17.8679 9.67307C16.817 10.1434 15.9955 11.0115 15.5838 12.0868C15.1721 13.1622 15.2038 14.3569 15.672 15.4088C16.1401 16.4608 17.0064 17.2841 18.0809 17.6981C18.0859 17.7 18.091 17.7016 18.0961 17.7031C18.101 17.7046 18.1059 17.7061 18.1107 17.708L18.1171 17.7101L18.1246 17.7126L18.126 17.713C19.1988 18.1134 20.3863 18.0736 21.43 17.6025ZM19.5349 16.981C20.1428 16.999 20.7442 16.8512 21.2744 16.5534C21.8047 16.2557 22.244 15.8192 22.545 15.2907L21.1058 14.7383C20.7375 15.5834 20.2033 16.3461 19.5349 16.981ZM21.4652 13.8035C21.7572 12.9308 21.8722 12.0085 21.8033 11.0908C22.265 11.4845 22.6113 11.996 22.8051 12.571C22.9989 13.146 23.033 13.7628 22.9037 14.3557L21.4652 13.8035Z" fill="#03A9F4"/>
</svg>
