<svg width="22" height="23" viewBox="0 0 22 23" fill="none" xmlns="http://www.w3.org/2000/svg">
<path d="M13.2382 8.38423V4.38426C13.2382 3.58861 12.9221 2.82556 12.3595 2.26295C11.7969 1.70035 11.0339 1.38428 10.2382 1.38428L6.23825 10.3842V21.3841H17.5182C18.0005 21.3896 18.4685 21.2206 18.8361 20.9082C19.2036 20.5958 19.4458 20.1611 19.5182 19.6842L20.8982 10.6842C20.9417 10.3976 20.9223 10.1049 20.8415 9.82648C20.7607 9.54805 20.6203 9.29052 20.43 9.07174C20.2398 8.85296 20.0042 8.67816 19.7397 8.55945C19.4752 8.44074 19.1881 8.38095 18.8982 8.38423H13.2382ZM6.23825 21.3841H3.23827C2.70784 21.3841 2.19913 21.1734 1.82406 20.7984C1.44899 20.4233 1.23828 19.9146 1.23828 19.3842V12.3842C1.23828 11.8538 1.44899 11.3451 1.82406 10.97C2.19913 10.5949 2.70784 10.3842 3.23827 10.3842H6.23825" fill="#FB8308"/>
<path d="M6.23825 21.3841H3.23827C2.70784 21.3841 2.19913 21.1734 1.82406 20.7984C1.44899 20.4233 1.23828 19.9146 1.23828 19.3842V12.3842C1.23828 11.8538 1.44899 11.3451 1.82406 10.97C2.19913 10.5949 2.70784 10.3842 3.23827 10.3842H6.23825M13.2382 8.38423V4.38426C13.2382 3.58861 12.9221 2.82556 12.3595 2.26295C11.7969 1.70035 11.0339 1.38428 10.2382 1.38428L6.23825 10.3842V21.3841H17.5182C18.0005 21.3896 18.4685 21.2206 18.8361 20.9082C19.2036 20.5958 19.4458 20.1611 19.5182 19.6842L20.8982 10.6842C20.9417 10.3976 20.9223 10.1049 20.8415 9.82647C20.7607 9.54805 20.6203 9.29052 20.43 9.07174C20.2398 8.85296 20.0042 8.67816 19.7397 8.55945C19.4752 8.44074 19.1881 8.38095 18.8982 8.38423H13.2382Z" stroke="#7E57C2" stroke-width="2" stroke-linecap="round" stroke-linejoin="round"/>
</svg>
