<?xml version="1.0" encoding="UTF-8" standalone="no"?>
<svg
   width="12"
   height="12"
   viewBox="0 0 12 12"
   fill="none"
   version="1.1"
   id="svg5"
   sodipodi:docname="lock.svg"
   xml:space="preserve"
   inkscape:version="1.3.2 (1:1.3.2+202311252150+091e20ef0f)"
   xmlns:inkscape="http://www.inkscape.org/namespaces/inkscape"
   xmlns:sodipodi="http://sodipodi.sourceforge.net/DTD/sodipodi-0.dtd"
   xmlns="http://www.w3.org/2000/svg"
   xmlns:svg="http://www.w3.org/2000/svg"><defs
     id="defs5" /><sodipodi:namedview
     id="namedview5"
     pagecolor="#ffffff"
     bordercolor="#666666"
     borderopacity="1.0"
     inkscape:showpageshadow="2"
     inkscape:pageopacity="0.0"
     inkscape:pagecheckerboard="0"
     inkscape:deskcolor="#d1d1d1"
     inkscape:zoom="15.083333"
     inkscape:cx="10.872928"
     inkscape:cy="-5.3370166"
     inkscape:window-width="1920"
     inkscape:window-height="1014"
     inkscape:window-x="0"
     inkscape:window-y="0"
     inkscape:window-maximized="1"
     inkscape:current-layer="svg5" /><g
     style="fill:#aa0000"
     id="g5"
     transform="matrix(0.60131385,0,0,0.60131385,-1.0788272,-1.3339538)"><path
       d="m 16.615651,10.004392 c -0.03712,0.0088 -0.07584,0.01344 -0.115651,0.01344 -0.04599,0 -0.09053,-0.0062 -0.132825,-0.01783 H 7.5 C 6.6715729,10 6,10.671573 6,11.5 v 7 C 6,19.328427 6.6715729,20 7.5,20 h 9 c 0.828427,0 1.5,-0.671573 1.5,-1.5 v -7 c 0,-0.789513 -0.609963,-1.436562 -1.384349,-1.495608 z M 8,9 h 8 V 8 C 16,5.790861 14.209139,4 12,4 9.790861,4 8,5.790861 8,8 Z m 9,0.050009 c 1.14112,0.2316352 2,1.240512 2,2.449991 v 7 c 0,1.380712 -1.119288,2.5 -2.5,2.5 h -9 C 6.1192881,21 5,19.880712 5,18.5 v -7 C 5,10.290521 5.8588798,9.2816442 7,9.0500091 V 8 c 0,-2.7614237 2.2385763,-5 5,-5 2.761424,0 5,2.2385763 5,5 z M 11,14 v 0.381966 c 0,0.657629 0.153113,1.306226 0.447214,1.894427 l 0.276393,0.552787 C 11.775952,16.93387 11.882953,17 12,17 c 0.117047,0 0.224048,-0.06613 0.276393,-0.17082 l 0.276393,-0.552787 C 12.846887,15.688192 13,15.039595 13,14.381966 V 14 c 0,-0.552285 -0.447715,-1 -1,-1 -0.552285,0 -1,0.447715 -1,1 z m -1,0 c 0,-1.104569 0.895431,-2 2,-2 1.10457,0 2,0.895431 2,2 v 0.381966 c 0,0.812874 -0.189258,1.614584 -0.552786,2.341641 L 13.17082,17.276393 C 12.949083,17.719867 12.495819,18 12,18 11.504181,18 11.050917,17.719867 10.82918,17.276393 L 10.552786,16.723607 C 10.189258,15.99655 10,15.19484 10,14.381966 Z"
       id="path1-3"
       style="fill:#aa0000" /></g></svg>
