<svg width="65" height="46" viewBox="0 0 65 46" fill="none" xmlns="http://www.w3.org/2000/svg">
<path d="M17.6858 8.50698C20.999 7.11486 25.1994 7.87336 27.5967 10.6203C28.4992 11.5977 29.0114 12.8402 29.4262 14.0846C29.3383 12.1001 29.3813 10.114 29.37 8.1276C30.8482 8.11631 32.3243 8.14439 33.8003 8.11264C33.8266 8.83966 33.8153 9.56825 33.7911 10.2971C34.5759 9.36649 35.4821 8.46028 36.6761 8.09034C38.7465 7.4381 41.3439 7.96126 42.6274 9.82248C43.5186 11.0257 43.6309 12.5616 43.7188 14.0022C44.1019 11.9618 45.3405 10.0914 47.1026 8.98527C49.1301 7.6884 51.7609 7.50736 54.0107 8.29761C55.741 8.90499 57.1386 10.2877 57.8897 11.945C58.6708 13.6585 58.925 15.5964 58.7175 17.461C55.0963 17.4628 51.477 17.4461 47.8558 17.4705C48.1434 18.5244 48.7321 19.5689 49.7504 20.0639C51.6376 20.9814 54.0143 20.3966 55.4327 18.8962C56.3258 19.6137 57.1575 20.404 58.0262 21.1515C55.3448 24.5187 50.0009 24.967 46.587 22.4874C45.1088 21.4112 44.0439 19.7688 43.7262 17.9619C43.5711 19.8677 43.6999 21.7906 43.6682 23.704C42.1845 23.7058 40.7011 23.7095 39.2174 23.7022C39.236 20.7385 39.2247 17.7769 39.2247 14.8132C39.2192 13.78 38.838 12.6028 37.8402 12.1282C36.663 11.5806 35.0038 11.8235 34.2993 13.0026C33.7124 13.9387 33.8134 15.0787 33.8134 16.1327C33.8229 18.655 33.7948 21.1777 33.8266 23.7001C32.341 23.7095 30.8555 23.7059 29.3682 23.7022C29.3813 21.7231 29.3419 19.7444 29.4222 17.7656C28.9085 19.3931 28.0844 20.9665 26.7317 22.0522C24.6201 23.8533 21.6155 24.4494 18.9378 23.7993C16.7478 23.2966 14.7709 21.8654 13.6816 19.8903C12.4503 17.7003 12.3529 14.9255 13.3827 12.6403C14.2142 10.7736 15.8025 9.28043 17.6858 8.50698ZM48.9412 12.3039C48.3097 12.9486 48.0069 13.8249 47.7978 14.6844C50.0287 14.6826 52.2599 14.6844 54.4911 14.6826C54.3098 13.823 54.0406 12.9318 53.4035 12.2927C52.2544 11.0669 50.0922 11.095 48.9412 12.3039ZM18.1399 12.9092C16.9197 14.2751 16.7518 16.4052 17.5606 18.018C16.9627 19.068 16.3181 20.092 15.7613 21.1646C16.8357 20.6768 17.871 20.107 18.9265 19.5801C20.6794 20.7367 23.3626 20.3219 24.4819 18.4795C25.6087 16.7248 25.3844 14.1725 23.8391 12.7319C22.3236 11.2351 19.5507 11.2986 18.1399 12.9092Z" fill="white"/>
<path d="M8.6456 34.6787H9.87347C10.7217 36.4053 11.5046 38.1635 12.3922 39.8678C12.8275 38.1335 13.3283 36.4145 13.7785 34.6824C14.2196 34.6787 14.6624 34.6787 15.1035 34.6787C14.4177 37.1452 13.7657 39.6191 13.104 42.0913C12.7154 42.1213 12.3229 42.1136 11.9362 42.0596C11.2504 40.503 10.4507 38.9988 9.75016 37.448C9.65099 37.2163 9.52584 36.9957 9.35766 36.8107C8.94102 38.5764 8.42154 40.318 7.9805 42.0801C7.53579 42.1081 7.08924 42.1213 6.64453 42.1249C7.30596 39.6416 7.97683 37.1602 8.6456 34.6787Z" fill="white"/>
<path d="M16.7123 34.6809C18.5341 34.6677 20.356 34.6995 22.1779 34.6641C22.0787 35.0639 21.9722 35.4638 21.8638 35.8636C20.4885 35.8618 19.1134 35.8862 17.74 35.8468C17.5419 36.4859 17.3719 37.1324 17.1942 37.777C18.4276 37.7621 19.6589 37.7715 20.8923 37.7697C20.7782 38.1601 20.6661 38.5508 20.5578 38.9448C19.332 38.9674 18.1044 38.9506 16.8768 38.9524C16.7086 39.6157 16.5255 40.2734 16.3405 40.9312C17.7512 40.9275 19.1638 40.9275 20.5764 40.9294C20.4607 41.3124 20.3484 41.6973 20.24 42.084C18.3977 42.1365 16.5535 42.1271 14.7109 42.0859C15.3913 39.6215 16.0377 37.1474 16.7123 34.6809Z" fill="white"/>
<path d="M22.6787 34.6903C23.1441 34.6809 23.6093 34.6809 24.0745 34.6864C24.1401 36.4823 24.2988 38.2742 24.3418 40.0717C25.534 38.3414 26.5111 36.4615 27.6175 34.6696C27.9948 34.6659 28.3723 34.6641 28.7517 34.6641C28.8619 36.471 28.9965 38.2742 29.0881 40.0809C30.2427 38.3414 31.2387 36.4878 32.3149 34.694C32.8289 34.679 33.3426 34.6772 33.8584 34.679C32.3018 37.166 30.7921 39.6829 29.2337 42.1701C28.8301 42.1664 28.4264 42.1643 28.0247 42.1625C27.9108 40.423 27.7817 38.6851 27.6511 36.9474C26.5727 38.6741 25.5322 40.4248 24.4707 42.1625C24.0672 42.1625 23.6655 42.1625 23.2656 42.1607C23.0786 39.67 22.8899 37.1791 22.6787 34.6903Z" fill="white"/>
<path d="M34.9035 35.1144C36.3311 34.1746 38.34 34.4865 39.5545 35.6451C39.2554 35.9741 38.9416 36.2879 38.6165 36.5907C37.9326 35.8863 36.8487 35.5087 35.9108 35.9067C35.4081 36.0993 35.068 36.8505 35.5744 37.2277C36.4507 37.8836 37.725 37.9603 38.3754 38.9245C38.9715 39.896 38.4502 41.2432 37.4784 41.7554C35.8827 42.6522 33.7339 42.2114 32.5176 40.8696C32.8463 40.565 33.1863 40.2699 33.5377 39.9897C34.2665 40.8361 35.5054 41.3293 36.5816 40.8883C37.0972 40.7051 37.4579 39.9784 37.0169 39.545C36.1778 38.8255 34.8962 38.7788 34.214 37.8446C33.5956 36.9551 34.0309 35.6677 34.9035 35.1144Z" fill="white"/>
<path d="M6.92802 0.921232C26.1256 0.921232 45.3232 0.917296 64.5208 0.923068C64.5077 10.9255 64.5059 20.9259 64.5208 30.9283C58.6144 30.9283 52.7059 30.9302 46.7996 30.9265C34.4164 30.9228 22.0317 30.9469 9.64876 30.9134C8.77429 27.6435 7.81954 24.3941 6.95058 21.1221C6.90021 14.3898 6.94507 7.65355 6.92802 0.921232ZM17.6853 8.50755C15.802 9.28101 14.2137 10.7741 13.3822 12.6409C12.3524 14.9261 12.4498 17.7009 13.6811 19.8908C14.7704 21.8659 16.7473 23.2971 18.9373 23.7998C21.615 24.45 24.6196 23.8539 26.7312 22.0527C28.0839 20.9671 28.908 19.3936 29.4217 17.7662C29.3414 19.745 29.3808 21.7237 29.3677 23.7028C30.855 23.7064 32.3405 23.7101 33.8261 23.7007C33.7943 21.1783 33.8224 18.6556 33.8129 16.1332C33.8129 15.0793 33.7119 13.9393 34.2988 13.0032C35.0033 11.8241 36.6625 11.5812 37.8397 12.1287C38.8375 12.6034 39.2187 13.7806 39.2243 14.8138C39.2243 17.7775 39.2355 20.7391 39.2169 23.7028C40.7006 23.7101 42.184 23.7064 43.6677 23.7046C43.6994 21.7912 43.5706 19.8683 43.7257 17.9624C44.0434 19.7694 45.1083 21.4118 46.5865 22.488C50.0004 24.9676 55.3443 24.5192 58.0257 21.152C57.157 20.4045 56.3253 19.6143 55.4322 18.8967C54.0138 20.3972 51.6371 20.982 49.7499 20.0645C48.7316 19.5694 48.1429 18.525 47.8553 17.471C51.4765 17.4466 55.0958 17.4634 58.717 17.4616C58.9245 15.5969 58.6703 13.6591 57.8892 11.9456C57.1381 10.2882 55.7405 8.90556 54.0102 8.29818C51.7604 7.50794 49.1296 7.68897 47.1021 8.98584C45.34 10.092 44.1014 11.9624 43.7183 14.0028C43.6304 12.5622 43.5181 11.0263 42.6269 9.82306C41.3434 7.96183 38.746 7.43867 36.6756 8.09091C35.4816 8.46085 34.5754 9.36706 33.7906 10.2977C33.8148 9.56882 33.8261 8.84023 33.7998 8.11321C32.3238 8.14496 30.8477 8.11689 29.3695 8.12817C29.3808 10.1145 29.3378 12.1007 29.4257 14.0852C29.0109 12.8408 28.4987 11.5982 27.5962 10.6209C25.1989 7.87394 20.9985 7.11544 17.6853 8.50755Z" fill="#002896"/>
<path d="M48.9403 12.3035C50.0913 11.0945 52.2534 11.0664 53.4026 12.2922C54.0396 12.9313 54.3088 13.8226 54.4901 14.6821C52.2589 14.6839 50.0278 14.6821 47.7969 14.6839C48.006 13.8244 48.3088 12.9481 48.9403 12.3035Z" fill="#002896"/>
<path d="M18.1394 12.91C19.5501 11.2994 22.323 11.2359 23.8385 12.7327C25.3838 14.1733 25.6081 16.7256 24.4813 18.4803C23.362 20.3227 20.6788 20.7375 18.9259 19.5809C17.8704 20.1078 16.8351 20.6776 15.7607 21.1654C16.3175 20.0928 16.9621 19.0688 17.56 18.0188C16.7512 16.4061 16.9191 14.2759 18.1394 12.91Z" fill="#002896"/>
<path d="M0.259766 45.9151C2.50772 37.6561 4.68824 29.3784 6.94932 21.123C7.81827 24.395 8.77302 27.6444 9.64749 30.9143C22.0304 30.9479 34.4151 30.9237 46.7983 30.9274C45.4321 35.9202 44.1111 40.9262 42.7529 45.9209C28.589 45.9114 14.4254 45.9245 0.259766 45.9151ZM8.64394 34.6813C7.97517 37.1628 7.3043 39.6443 6.64287 42.1276C7.08758 42.1239 7.53413 42.1108 7.97884 42.0827C8.41988 40.3206 8.93936 38.5791 9.356 36.8133C9.52418 36.9983 9.64933 37.219 9.7485 37.4506C10.449 39.0015 11.2487 40.5056 11.9345 42.0622C12.3213 42.1163 12.7138 42.1239 13.1023 42.094C13.764 39.6217 14.416 37.1479 15.1018 34.6813C14.6608 34.6813 14.2179 34.6813 13.7769 34.685C13.3267 36.4172 12.8258 38.1362 12.3905 39.8704C11.5029 38.1661 10.72 36.408 9.87181 34.6813H8.64394ZM16.7107 34.6832C16.0361 37.1497 15.3896 39.6238 14.7093 42.0882C16.5519 42.1294 18.3961 42.1388 20.2384 42.0864C20.3468 41.6996 20.4591 41.3148 20.5748 40.9317C19.1622 40.9299 17.7496 40.9299 16.3389 40.9335C16.5238 40.2758 16.707 39.618 16.8752 38.9548C18.1028 38.9529 19.3304 38.9697 20.5562 38.9472C20.6645 38.5531 20.7765 38.1624 20.8907 37.772C19.6573 37.7739 18.426 37.7644 17.1926 37.7794C17.3702 37.1347 17.5403 36.4883 17.7383 35.8491C19.1118 35.8885 20.4869 35.8641 21.8622 35.8659C21.9706 35.4661 22.0771 35.0662 22.1763 34.6664C20.3544 34.7018 18.5325 34.6701 16.7107 34.6832ZM22.6769 34.6908C22.8881 37.1796 23.0767 39.6705 23.2638 42.1611C23.6636 42.163 24.0653 42.163 24.4688 42.163C25.5304 40.4253 26.5709 38.6746 27.6492 36.9479C27.7799 38.6856 27.909 40.4235 28.0228 42.163C28.4245 42.1648 28.8283 42.1669 29.2318 42.1706C30.7903 39.6834 32.2999 37.1665 33.8565 34.6795C33.3407 34.6777 32.827 34.6795 32.313 34.6945C31.2368 36.4883 30.2409 38.3419 29.0862 40.0814C28.9946 38.2747 28.86 36.4715 28.7499 34.6646C28.3705 34.6646 27.9929 34.6664 27.6156 34.6701C26.5092 36.462 25.5322 38.3419 24.34 40.0722C24.297 38.2747 24.1382 36.4828 24.0726 34.6869C23.6075 34.6813 23.1423 34.6813 22.6769 34.6908ZM34.9029 35.1166C34.0302 35.6699 33.595 36.9574 34.2134 37.8468C34.8955 38.7811 36.1772 38.8278 37.0162 39.5472C37.4573 39.9806 37.0965 40.7074 36.581 40.8905C35.5047 41.3315 34.2658 40.8383 33.537 39.9919C33.1857 40.2721 32.8456 40.5673 32.5169 40.8719C33.7332 42.2136 35.882 42.6544 37.4777 41.7576C38.4495 41.2455 38.9709 39.8982 38.3748 38.9267C37.7243 37.9625 36.45 37.8859 35.5737 37.23C35.0674 36.8527 35.4074 36.1015 35.9101 35.909C36.848 35.5109 37.9319 35.8885 38.6159 36.5929C38.9409 36.2902 39.2547 35.9764 39.5538 35.6474C38.3393 34.4888 36.3304 34.1768 34.9029 35.1166Z" fill="#EB1E23"/>
</svg>
