<svg width="28" height="18" viewBox="0 0 28 18" fill="none" xmlns="http://www.w3.org/2000/svg">
<path d="M10.6635 2.22545C10.6094 2.30972 10.5675 2.39966 10.5352 2.50619C10.5806 2.42891 10.6199 2.36167 10.6592 2.29487C10.6626 2.29662 10.6657 2.29836 10.6688 2.29967C10.6648 2.31801 10.6609 2.33591 10.6565 2.35425C10.6557 2.35774 10.6548 2.36124 10.6544 2.36473C10.543 2.85504 10.5146 3.36064 10.5635 3.86099L10.6661 4.91628C10.6762 5.01976 10.6827 5.12411 10.6897 5.22802C10.7242 5.74148 10.9416 6.22655 11.3486 6.70202C11.3604 6.71556 11.3708 6.73477 11.3761 6.75092C11.5193 7.2015 11.7293 7.5652 12.0188 7.86297C12.4541 8.31006 12.9706 8.5467 13.5137 8.54714H13.5146C14.0551 8.54714 14.5699 8.31268 15.003 7.86821C15.2802 7.58398 15.4859 7.23643 15.6317 6.8055C15.6479 6.75791 15.6784 6.70464 15.7151 6.66011C16.1369 6.1484 16.3434 5.62709 16.3425 5.07346C16.3425 5.03504 16.3425 4.99662 16.343 4.9582L16.3508 3.04148C16.3412 2.97773 16.332 2.91355 16.3229 2.84806C16.3329 2.87425 16.343 2.89914 16.3526 2.92359C16.37 2.96769 16.3866 3.01004 16.4019 3.05283C16.4255 3.11832 16.4456 3.18425 16.467 3.25018C16.4687 3.23751 16.4665 3.22616 16.4643 3.21525C16.4211 3.00786 16.3705 2.80309 16.2792 2.61054C16.2722 2.59526 16.2648 2.58042 16.2587 2.56513L16.2583 2.5647C16.2456 2.53675 16.2342 2.50837 16.2238 2.47956C16.1936 2.39747 16.1635 2.31539 16.1334 2.23287C16.1107 2.17044 16.088 2.10757 16.0653 2.04513C16.0609 2.03378 16.0565 2.02286 16.0526 2.01151C16.057 2.00889 16.0618 2.00671 16.0661 2.00409C16.1434 2.1259 16.2207 2.24772 16.2975 2.36953C16.2858 2.32849 16.2709 2.28789 16.2548 2.24815C16.1849 2.07831 16.0945 1.92201 15.9583 1.79539C15.9295 1.76876 15.9037 1.7395 15.8823 1.70719C15.7448 1.50242 15.5798 1.32909 15.354 1.22343C15.3475 1.21994 15.3409 1.21688 15.3339 1.21426C15.23 1.16798 15.1252 1.12475 15.0209 1.07978C14.9947 1.06887 14.9685 1.05752 14.9427 1.04616C14.9956 1.05053 15.048 1.05621 15.0999 1.06407C15.3955 1.10816 15.6741 1.20727 15.9448 1.3352C15.9343 1.32429 15.9225 1.31643 15.9107 1.30813C15.5859 1.08852 15.2226 0.978489 14.8371 0.933082C14.8222 0.931335 14.8074 0.929589 14.7925 0.928279C14.6633 0.915617 14.5328 0.911688 14.4088 0.861914C14.3603 0.842703 14.3083 0.832225 14.2577 0.81869C14.1992 0.803408 14.1403 0.789 14.0817 0.774592C14.0673 0.771099 14.0538 0.767606 14.0394 0.764113C14.0403 0.756691 14.0398 0.759311 14.0407 0.751888H14.7078C14.703 0.73879 14.6969 0.734861 14.6904 0.733988C14.4 0.692073 14.1093 0.661073 13.8159 0.68727C13.7154 0.696439 13.6159 0.700805 13.5159 0.686833C13.4718 0.680721 13.4268 0.678974 13.3823 0.675045C13.3819 0.667623 13.3819 0.669805 13.3819 0.662383C13.5997 0.621778 13.8172 0.581173 14.0477 0.538385C13.8167 0.544061 13.5989 0.559343 13.3836 0.597328C13.2635 0.618722 13.1461 0.657144 13.0251 0.672862C12.8527 0.695129 12.678 0.704298 12.5034 0.719143C12.8483 0.554977 13.2177 0.483373 13.5941 0.441895C13.5233 0.443641 13.4526 0.440585 13.3823 0.444514C13.1216 0.458049 12.8632 0.488612 12.6104 0.557597C12.4012 0.614793 12.2026 0.694692 12.0314 0.833535C11.9991 0.859731 11.9598 0.878069 11.924 0.899899C11.9205 0.89466 11.9166 0.888984 11.9131 0.883308C11.9917 0.826549 12.0672 0.764987 12.1493 0.713903C12.2331 0.66151 12.3213 0.615666 12.4104 0.573751C12.4968 0.533146 12.5868 0.500837 12.6754 0.464598C12.5003 0.509133 12.3314 0.570695 12.169 0.650594C11.8467 0.808648 11.604 1.0728 11.3254 1.28892C11.3254 1.28892 11.3245 1.29023 11.3237 1.29067C11.3058 1.31992 11.2861 1.3483 11.27 1.37886C11.2464 1.42383 11.2285 1.47186 11.2019 1.51465C11.1896 1.53386 11.1634 1.54739 11.1412 1.557C11.0953 1.57577 11.0464 1.58669 11.0015 1.60677C10.7613 1.71418 10.6199 1.90236 10.56 2.15559C10.6177 2.04076 10.6902 1.93772 10.7967 1.84429C10.7679 1.9434 10.7439 2.0316 10.7159 2.11804C10.7033 2.15559 10.6853 2.19183 10.6635 2.22545ZM11.2455 4.93724L11.2481 4.9058C11.2503 4.87874 11.2529 4.84162 11.2573 4.81761C11.3918 4.77307 11.4708 4.64427 11.4752 4.46264C11.4782 4.33341 11.4791 4.20286 11.4804 4.07668C11.4817 3.93609 11.483 3.79245 11.487 3.64924C11.487 3.40954 11.6817 3.21656 11.9196 3.21656C11.924 3.21656 11.9284 3.21656 11.9323 3.21699L12.1497 3.22354C12.3288 3.2087 12.5095 3.21088 12.6894 3.20826C12.8505 3.20608 13.0116 3.20782 13.1727 3.20782H13.6478C13.8207 3.20782 13.9936 3.20826 14.1664 3.20739C14.2944 3.20695 14.4219 3.20477 14.5498 3.20433C14.6603 3.20346 14.7707 3.2039 14.8812 3.2039C14.9886 3.20346 15.0947 3.20171 15.2003 3.23402C15.3226 3.27113 15.4134 3.34317 15.4658 3.45582C15.4994 3.52786 15.5151 3.60863 15.5383 3.68329C15.5396 3.68198 15.5409 3.68024 15.5422 3.67893C15.5457 3.80162 15.5457 3.92692 15.5453 4.05572C15.5448 4.16793 15.5448 4.28363 15.547 4.39934C15.5479 4.4299 15.5474 4.4609 15.5474 4.49452V4.55914C15.5474 4.68837 15.64 4.79927 15.7671 4.82197C15.7719 4.84599 15.7758 4.87917 15.7771 4.89271C15.8295 5.38739 15.6736 5.8371 15.2859 6.30776C15.206 6.40513 15.1436 6.51559 15.1056 6.6278C14.9873 6.97796 14.8235 7.25739 14.6052 7.48094C14.2791 7.81538 13.9019 7.99221 13.5142 7.99221H13.5133C13.1234 7.99177 12.744 7.8132 12.4156 7.4757C12.1877 7.24167 12.0205 6.94958 11.9044 6.58326C11.8769 6.49638 11.8288 6.41037 11.7695 6.34094C11.3708 5.87508 11.204 5.4293 11.2455 4.93724Z" fill="#4A0080"/>
<path d="M19.6117 15.646C19.6301 15.901 19.6109 15.9351 19.3751 16.0237C18.7599 16.2551 18.1194 16.3839 17.4728 16.4791C16.159 16.672 14.8352 16.7275 12.9923 16.7432C12.4465 16.7105 11.3855 16.6651 10.3276 16.5764C9.48585 16.5061 8.65236 16.366 7.84507 16.101C7.75644 16.0721 7.66868 16.0394 7.58179 16.0062C7.39842 15.9355 7.3744 15.9014 7.38488 15.7028L7.70317 12.588C7.90707 10.9018 8.88508 9.96701 10.5136 9.63126C10.8834 9.55485 11.3807 8.99818 11.5929 8.54541C11.6829 8.624 11.7754 8.69648 11.8702 8.76284L11.7056 8.62968C12.2369 9.05799 12.8499 9.28372 13.5001 9.28546C14.1502 9.28372 14.7627 9.05799 15.2945 8.62968L15.4072 8.54541C15.6189 8.99861 16.1167 9.55529 16.4865 9.63126C18.1146 9.96701 19.0926 10.9018 19.2969 12.588L19.6117 15.646Z" fill="#4A0080"/>
<path d="M2.89526 1.94513C2.84723 2.01979 2.81055 2.09881 2.78174 2.19312C2.82191 2.12501 2.8564 2.06563 2.89133 2.00669C2.89438 2.008 2.897 2.00975 2.90006 2.01106C2.89657 2.02721 2.89307 2.04337 2.88958 2.05908C2.88871 2.06214 2.88827 2.0652 2.8874 2.06825C2.78916 2.50093 2.76427 2.94715 2.80706 3.389L2.89744 4.32073C2.90617 4.41242 2.91185 4.5041 2.91796 4.59579C2.94809 5.049 3.1402 5.47731 3.49953 5.89689C3.50957 5.90868 3.51917 5.92571 3.52354 5.94012C3.64972 6.33787 3.83528 6.65878 4.0907 6.92162C4.47492 7.31632 4.93117 7.52501 5.41057 7.52545H5.41145C5.88866 7.52545 6.34317 7.3185 6.72521 6.92642C6.97015 6.67537 7.15134 6.36843 7.28014 5.98858C7.29455 5.94623 7.32118 5.89951 7.35349 5.86022C7.72592 5.40833 7.90799 4.94814 7.90755 4.45957C7.90755 4.42595 7.90755 4.3919 7.90799 4.35784L7.91497 2.66597C7.90668 2.60965 7.89838 2.55289 7.89009 2.49526C7.89925 2.5184 7.90755 2.54023 7.91628 2.56206C7.93156 2.60092 7.94641 2.63847 7.95951 2.67601C7.98003 2.73365 7.99793 2.79215 8.0167 2.85022C8.01801 2.83931 8.0167 2.82926 8.01452 2.81922C7.97654 2.63628 7.93156 2.45553 7.85123 2.28525C7.84512 2.27171 7.83857 2.25861 7.83289 2.24508C7.82198 2.22019 7.8115 2.19487 7.80233 2.16955C7.77569 2.09707 7.74906 2.02459 7.72243 1.95168C7.70234 1.89666 7.68226 1.84121 7.66218 1.7862C7.65825 1.77616 7.65475 1.76655 7.65126 1.75651C7.65519 1.75433 7.65956 1.75215 7.66349 1.74996C7.7316 1.85737 7.79971 1.96521 7.86782 2.07262C7.85734 2.03638 7.84424 2.00058 7.82983 1.96565C7.76784 1.81589 7.68837 1.67792 7.5683 1.56571C7.54298 1.54214 7.52028 1.51638 7.5015 1.488C7.38012 1.30724 7.2343 1.15399 7.0352 1.06099C7.02953 1.05793 7.02341 1.05531 7.01774 1.0527C6.92605 1.01209 6.83349 0.973669 6.74136 0.933937C6.71822 0.924332 6.69508 0.91429 6.67238 0.904247C6.7191 0.908177 6.76538 0.913416 6.81122 0.919966C7.07188 0.958824 7.31813 1.04615 7.55695 1.15923C7.54735 1.14962 7.5373 1.14264 7.52683 1.13521C7.23997 0.94136 6.9195 0.844432 6.57938 0.804264C6.56628 0.802954 6.55318 0.801207 6.54009 0.799897C6.42569 0.788982 6.31043 0.785053 6.20128 0.741392C6.15849 0.724364 6.11264 0.715195 6.06767 0.703406C6.01572 0.689871 5.9642 0.67721 5.91224 0.664548C5.89958 0.661492 5.88735 0.658436 5.87469 0.655379C5.87513 0.64883 5.87513 0.651013 5.876 0.644464H6.46499C6.46062 0.633112 6.45538 0.629619 6.44971 0.628746C6.19342 0.591634 5.93669 0.564127 5.67778 0.587704C5.58915 0.595563 5.50139 0.599493 5.41319 0.587704C5.37433 0.582465 5.3346 0.580719 5.29531 0.577662C5.29487 0.571113 5.29487 0.57286 5.29487 0.566311C5.48698 0.530508 5.67909 0.494706 5.88255 0.456721C5.67865 0.461524 5.48611 0.475059 5.29618 0.509115C5.19008 0.527889 5.08617 0.561945 4.97964 0.575916C4.82726 0.595564 4.67357 0.603859 4.51901 0.616521C4.82377 0.471566 5.14948 0.408694 5.48174 0.371582C5.41931 0.373328 5.35687 0.370709 5.29487 0.373765C5.06478 0.385554 4.83643 0.412624 4.61376 0.473749C4.42907 0.524396 4.25355 0.59469 4.10249 0.717378C4.07367 0.740518 4.03918 0.756673 4.00731 0.775884C4.00425 0.771081 4.00076 0.766279 3.9977 0.761476C4.06712 0.711266 4.13392 0.657126 4.2064 0.611718C4.28019 0.565437 4.35834 0.525269 4.43693 0.48772C4.51334 0.451918 4.5928 0.423102 4.67095 0.391666C4.51639 0.430961 4.36707 0.485537 4.22386 0.555832C3.93919 0.695547 3.72525 0.928698 3.47944 1.11906C3.47901 1.1195 3.47857 1.11993 3.47813 1.12081C3.46198 1.14657 3.44495 1.17145 3.43054 1.19852C3.41002 1.23825 3.39387 1.28061 3.37029 1.31815C3.35981 1.33518 3.33667 1.34697 3.31659 1.3557C3.27642 1.37229 3.23319 1.3819 3.19346 1.39936C2.98171 1.49455 2.85684 1.66046 2.80357 1.88357C2.85422 1.78227 2.9184 1.69102 3.01271 1.6085C2.98738 1.69582 2.96599 1.77354 2.94154 1.84995C2.93019 1.88357 2.91447 1.91544 2.89526 1.94513ZM3.40915 4.33863L3.41133 4.31069C3.41308 4.28667 3.4157 4.25393 3.41963 4.23297C3.53838 4.19367 3.60824 4.07972 3.61217 3.91992C3.61479 3.80596 3.61567 3.6907 3.61698 3.57936C3.61785 3.45493 3.61916 3.32831 3.62265 3.20213C3.62265 2.99037 3.79468 2.8201 4.00469 2.8201C4.00861 2.8201 4.01211 2.8201 4.01604 2.8201L4.20771 2.82577C4.36576 2.81267 4.52513 2.81442 4.68405 2.81224C4.82639 2.81049 4.96872 2.8118 5.11062 2.8118H5.52977C5.68258 2.8118 5.83496 2.81224 5.98777 2.8118C6.10042 2.81136 6.21306 2.80962 6.32615 2.80918C6.42351 2.80874 6.52131 2.80918 6.61868 2.80874C6.71342 2.80874 6.80729 2.807 6.90029 2.83538C7.00813 2.86812 7.08847 2.93143 7.13475 3.03098C7.16444 3.09472 7.17841 3.16589 7.19893 3.23182C7.1998 3.23051 7.20111 3.2292 7.20242 3.22789C7.20548 3.33617 7.20548 3.44663 7.20504 3.56059C7.20504 3.6597 7.20461 3.76187 7.20679 3.8636C7.20723 3.89067 7.20723 3.91817 7.20679 3.94743V4.00462C7.20679 4.11858 7.28844 4.21638 7.40065 4.2369C7.40501 4.25786 7.40807 4.28755 7.40938 4.29933C7.45566 4.73594 7.31813 5.13282 6.97582 5.54804C6.90509 5.63405 6.85008 5.73142 6.81646 5.83053C6.71167 6.13965 6.56759 6.3859 6.37505 6.58368C6.08732 6.87883 5.75419 7.03514 5.41188 7.03514H5.41145C5.0674 7.03514 4.73252 6.87708 4.44261 6.57932C4.24177 6.3728 4.09375 6.1152 3.99115 5.79167C3.96714 5.71526 3.92435 5.63886 3.87196 5.57773C3.51961 5.16688 3.37247 4.77306 3.40915 4.33863Z" fill="#4A0080"/>
<path d="M7.05219 12.5229C7.25041 10.8834 8.12887 9.75958 9.60025 9.21775C9.19726 8.86235 8.67769 8.61697 8.03587 8.48468C7.70928 8.41744 7.27049 7.92581 7.08318 7.52588L6.98364 7.6001C6.51428 7.97821 5.97332 8.1773 5.39961 8.17905C4.82591 8.1773 4.28495 7.97821 3.81559 7.6001L3.96098 7.71799C3.87715 7.65948 3.7955 7.5953 3.71604 7.52588C3.52917 7.92581 3.08994 8.417 2.76336 8.48468C1.32603 8.78114 0.462853 9.60633 0.282533 11.0947L0.00179222 13.8441C-0.00737661 14.0196 0.0140173 14.0497 0.175563 14.1122C0.252407 14.1418 0.329687 14.1702 0.40784 14.196C1.11995 14.43 1.85608 14.5536 2.59919 14.6156C3.53267 14.6937 4.46963 14.7335 4.95121 14.7627C5.65066 14.7566 6.26236 14.7435 6.82777 14.7177L7.05219 12.5229Z" fill="#4A0080"/>
<path d="M24.0601 8.27577C24.3574 8.39684 24.6545 8.51786 24.9494 8.64381C25.193 8.74818 25.431 8.86909 25.6602 9.0023C26.171 9.29959 26.464 9.77683 26.6906 10.3016C26.8316 10.6283 26.925 12.3066 26.9715 13.1406C26.9817 13.3242 26.9897 13.4669 26.9953 13.5452C27.0119 13.7766 26.9945 13.8076 26.781 13.8875C26.223 14.0975 25.6423 14.2141 25.0555 14.3006C23.8635 14.4756 22.6628 14.5258 20.9915 14.5403C20.9437 14.5374 20.8913 14.5343 20.8349 14.5312C20.7478 14.5264 20.6511 14.5213 20.5466 14.5157L20.5318 14.5149C20.414 14.5087 20.2865 14.5019 20.1519 14.4944L19.9476 12.51C19.7362 10.7649 18.7403 9.60435 17.0825 9.11622C17.2288 9.00532 17.3847 8.90402 17.5619 8.82674C17.9539 8.65551 18.349 8.49176 18.7442 8.32796L18.7478 8.32647C18.8857 8.26935 19.2376 8.09104 19.5053 8.09104C19.8223 8.70964 20.5904 9.14605 21.4876 9.14605C22.3191 9.14605 23.0397 8.7712 23.3931 8.22386C23.412 8.20623 23.431 8.18832 23.4501 8.17008C23.4428 8.16926 23.4354 8.16833 23.428 8.16717C23.4559 8.1196 23.4811 8.07084 23.5035 8.021C23.7376 8.09104 23.8569 8.19298 24.0601 8.27577Z" fill="#4A0080"/>
<path fill-rule="evenodd" clip-rule="evenodd" d="M17.9326 7.96903C17.947 7.96208 17.9581 7.95654 17.9672 7.95203C17.9838 7.94379 17.9936 7.93893 18.0038 7.93498C18.5583 7.72541 18.8814 7.32984 19.0285 6.79455H18.7473C18.6901 6.79542 18.6072 6.70854 18.5779 6.64348C18.2706 5.96062 18.1981 5.2424 18.2876 4.5054C18.3954 3.61559 18.6757 2.79694 19.2429 2.10666C19.366 1.92678 19.518 1.77396 19.693 1.64254C20.0301 1.35089 20.4174 1.14175 20.8806 1.10857C20.9837 1.10158 21.0876 1.09634 21.1915 1.09328C21.1963 1.09198 21.2015 1.09067 21.2068 1.08936L21.6958 1.08936C21.7115 1.09198 21.7276 1.09459 21.7438 1.09721C21.935 1.10595 22.1258 1.12297 22.314 1.14873C22.6803 1.19938 22.972 1.40764 23.2331 1.65477C23.3872 1.77658 23.5269 1.91979 23.6505 2.08832C23.6666 2.11059 23.6823 2.13286 23.6972 2.15556C24.2334 2.83056 24.5027 3.62607 24.6106 4.48924C24.7014 5.21839 24.6276 5.92788 24.3429 6.61161C24.2871 6.74652 24.2181 6.8142 24.06 6.8059H23.8902C23.9299 6.96614 23.9897 7.12201 24.0766 7.27133C24.2657 7.5966 24.5525 7.80269 24.9014 7.9293C24.9174 7.93525 24.933 7.94175 24.952 7.94971C24.9567 7.95169 24.9616 7.95376 24.9669 7.95594C24.2165 8.23996 23.0626 8.2738 22.4703 7.78435C22.4145 7.81487 22.3593 7.84573 22.3041 7.87649C22.1811 7.94518 22.0589 8.01341 21.9337 8.07644C21.6106 8.2393 21.2836 8.23668 20.9631 8.07077C20.8247 7.99915 20.6897 7.92127 20.5511 7.84131C20.4894 7.80573 20.427 7.76974 20.3632 7.7337C19.693 8.35987 18.6344 8.18737 17.9326 7.96903ZM22.1699 7.54989C22.9619 6.98579 23.4924 6.12566 23.6684 5.16949C23.709 4.94725 23.7422 4.74685 23.7413 4.68223C23.7422 4.62721 23.7409 4.5722 23.7378 4.51631C23.7247 4.28185 23.6679 4.07708 23.5763 3.89545L23.5164 3.78848C23.3588 3.53132 23.1265 3.32349 22.8458 3.14579C22.9032 3.24114 22.9758 3.3292 23.0484 3.41709C23.2277 3.63427 23.406 3.85038 23.3501 4.1727C23.2852 4.10076 23.2221 4.02711 23.1591 3.95354C23.0159 3.78644 22.8731 3.61977 22.7109 3.47456C22.4954 3.28099 22.2495 3.11847 22.0058 2.95739C21.9879 2.94552 21.97 2.93367 21.9521 2.92181C21.8512 2.85545 21.7534 2.7869 21.6587 2.71573C21.5202 2.76769 21.3762 2.81004 21.2264 2.84409C20.7763 2.94626 20.3178 2.97682 19.8581 2.95674H19.8555C19.7223 2.9515 19.6057 3.04406 19.5712 3.17243C19.5214 3.35755 19.4826 3.5549 19.4594 3.76491C19.4594 3.76491 18.9054 6.59458 20.8012 7.59355C21.2705 7.84111 21.6477 7.9066 22.0922 7.60403C22.1184 7.58613 22.1442 7.56823 22.1699 7.54989Z" fill="#4A0080"/>
<path d="M27.25 13.5C27.25 15.57 25.57 17.25 23.5 17.25C21.43 17.25 19.75 15.57 19.75 13.5C19.75 11.43 21.43 9.75 23.5 9.75C25.57 9.75 27.25 11.43 27.25 13.5Z" fill="white" stroke="#EF1D26" stroke-linecap="round" stroke-linejoin="round"/>
<path d="M24.8913 14.6927L23.7288 13.9989C23.5263 13.8789 23.3613 13.5902 23.3613 13.3539V11.8164" fill="white"/>
<path d="M24.8913 14.6927L23.7288 13.9989C23.5263 13.8789 23.3613 13.5902 23.3613 13.3539V11.8164" stroke="#EF1D26" stroke-linecap="round" stroke-linejoin="round"/>
</svg>
