<svg width="29" height="31" viewBox="0 0 29 31" fill="none" xmlns="http://www.w3.org/2000/svg">
<path d="M23.6666 29.6667V14.0834" stroke="#909090" stroke-width="2" stroke-miterlimit="10" stroke-linecap="round" stroke-linejoin="round"/>
<path d="M23.6666 8.41671V1.33337" stroke="#909090" stroke-width="2" stroke-miterlimit="10" stroke-linecap="round" stroke-linejoin="round"/>
<path d="M13.75 29.6667V22.5834" stroke="#909090" stroke-width="2" stroke-miterlimit="10" stroke-linecap="round" stroke-linejoin="round"/>
<path d="M13.75 16.9167V1.33337" stroke="#909090" stroke-width="2" stroke-miterlimit="10" stroke-linecap="round" stroke-linejoin="round"/>
<path d="M3.83337 29.6667V14.0834" stroke="#909090" stroke-width="2" stroke-miterlimit="10" stroke-linecap="round" stroke-linejoin="round"/>
<path d="M3.83337 8.41671V1.33337" stroke="#909090" stroke-width="2" stroke-miterlimit="10" stroke-linecap="round" stroke-linejoin="round"/>
<path d="M1 14.0834H6.66667" stroke="#909090" stroke-width="2" stroke-miterlimit="10" stroke-linecap="round" stroke-linejoin="round"/>
<path d="M20.8334 14.0834H26.5" stroke="#909090" stroke-width="2" stroke-miterlimit="10" stroke-linecap="round" stroke-linejoin="round"/>
<path d="M10.9166 16.9166H16.5833" stroke="#909090" stroke-width="2" stroke-miterlimit="10" stroke-linecap="round" stroke-linejoin="round"/>
<path d="M28 26.5C28 28.57 26.32 30.25 24.25 30.25C22.18 30.25 20.5 28.57 20.5 26.5C20.5 24.43 22.18 22.75 24.25 22.75C26.32 22.75 28 24.43 28 26.5Z" fill="white" stroke="#17A3AF" stroke-linecap="round" stroke-linejoin="round"/>
<path d="M25.6412 27.6925L24.4787 26.9988C24.2762 26.8788 24.1112 26.59 24.1112 26.3538V24.8163" fill="white"/>
<path d="M25.6412 27.6925L24.4787 26.9988C24.2762 26.8788 24.1112 26.59 24.1112 26.3538V24.8163" stroke="#17A3AF" stroke-linecap="round" stroke-linejoin="round"/>
</svg>
