<svg width="18" height="19" viewBox="0 0 18 19" fill="none" xmlns="http://www.w3.org/2000/svg">
<g clip-path="url(#clip0_29_620)">
<path fill-rule="evenodd" clip-rule="evenodd" d="M12.2872 0.682002L17.9338 6.32943C18.0221 6.41747 18.0221 6.56163 17.9338 6.64997L16.0107 8.57278C15.9225 8.66126 15.7784 8.66126 15.6904 8.57278L15.1437 8.02633L12.609 10.5608C13.1777 12.7028 12.623 15.0813 10.9435 16.7607C10.9045 16.7999 10.8651 16.8382 10.8251 16.876C10.6781 17.0159 10.7016 17.015 10.5596 16.8729L6.97227 13.2852L0 18.6159L5.33193 11.6449L1.73937 8.05226C1.59611 7.90869 1.60812 7.93126 1.74904 7.78314C1.78419 7.74637 1.82008 7.70945 1.85656 7.67283C3.53572 5.9935 5.9145 5.43827 8.05612 6.00713L10.5905 3.47268L10.0436 2.92594C9.9556 2.83789 9.9556 2.69374 10.0436 2.6054L11.9666 0.682002C12.055 0.593955 12.1992 0.593955 12.2872 0.682002Z" fill="black"/>
</g>
<defs>
<clipPath id="clip0_29_620">
<rect width="18" height="18" fill="white" transform="translate(0 0.615723)"/>
</clipPath>
</defs>
</svg>
