<svg width="14" height="14" viewBox="0 0 14 14" fill="none" xmlns="http://www.w3.org/2000/svg">
<path d="M12.6741 0.158865L0.467536 7.22441C0.221472 7.34744 0.107228 7.54078 0.124804 7.80442C0.14238 8.06806 0.2742 8.2526 0.520264 8.35806L3.31484 9.51807L10.8813 2.84799C10.9516 2.79526 11.0219 2.80405 11.0922 2.87435C11.1625 2.92708 11.1713 2.9886 11.1186 3.0589L4.76486 10.8099V12.919C4.76486 13.1299 4.82638 13.2881 4.94941 13.3936C5.09002 13.5166 5.2482 13.5781 5.42396 13.5781C5.6173 13.5781 5.77548 13.499 5.89851 13.3408L7.55944 11.3108L10.8549 12.6817C11.0307 12.7696 11.2065 12.7608 11.3822 12.6554C11.5756 12.5499 11.6898 12.4005 11.7249 12.2072L13.6232 0.817964C13.6583 0.554324 13.5616 0.3522 13.3332 0.211593C13.1222 0.0534088 12.9025 0.0358328 12.6741 0.158865Z" fill="white"/>
</svg>
