<svg width="17" height="17" viewBox="0 0 17 17" fill="none" xmlns="http://www.w3.org/2000/svg">
<path fill-rule="evenodd" clip-rule="evenodd" d="M9.20401 14.8358H0.395699C0.180831 14.8358 0.000976562 14.6578 0.000976562 14.4383C0.000976562 10.9249 2.84909 8.07681 6.36242 8.07681C7.82198 8.07681 9.16672 8.56835 10.2402 9.39492C10.8866 8.94019 11.6747 8.67319 12.5251 8.67319C14.7209 8.67319 16.501 10.4533 16.501 12.6491C16.501 14.8449 14.7209 16.625 12.5251 16.625C11.1371 16.625 9.91519 15.9138 9.20401 14.8358ZM6.36242 7.28163C4.38617 7.28163 2.78411 5.67956 2.78411 3.70331C2.78411 1.72707 4.38617 0.125 6.36242 0.125C8.33867 0.125 9.94074 1.72707 9.94074 3.70331C9.94074 5.67956 8.33867 7.28163 6.36242 7.28163ZM12.5251 15.4322C14.0622 15.4322 15.3082 14.1862 15.3082 12.6491C15.3082 11.112 14.0622 9.86596 12.5251 9.86596C10.988 9.86596 9.74194 11.112 9.74194 12.6491C9.74194 14.1862 10.988 15.4322 12.5251 15.4322ZM11.3323 12.0527H13.7178C14.0472 12.0527 14.3142 12.3197 14.3142 12.6491C14.3142 12.9785 14.0472 13.2455 13.7178 13.2455H11.3323C11.0029 13.2455 10.7359 12.9785 10.7359 12.6491C10.7359 12.3197 11.0029 12.0527 11.3323 12.0527Z" fill="#FB8308"/>
</svg>
