<svg width="27" height="27" viewBox="0 0 27 27" fill="none" xmlns="http://www.w3.org/2000/svg">
<path d="M25.2385 14.1271C24.8653 14.2398 24.4755 14.3185 24.0647 14.3185C22.5633 14.3185 21.2603 13.4979 20.5443 12.29C19.8282 13.4979 18.5229 14.3185 17.0215 14.3185C15.5201 14.3185 14.2148 13.4991 13.4999 12.2924C12.7838 13.4991 11.4797 14.3185 9.97831 14.3185C8.47577 14.3185 7.1716 13.4979 6.45555 12.29C5.73949 13.4979 4.43768 14.3185 2.93513 14.3185C2.52428 14.3185 2.13455 14.2398 1.76127 14.1271V25.4702H0.587402V26.644H26.4124V25.4702H25.2385V14.1271ZM11.1522 22.5355C11.1522 22.8583 10.8892 23.1225 10.5652 23.1225H5.86979C5.5458 23.1225 5.28286 22.8583 5.28286 22.5355V17.8401C5.28286 17.5173 5.5458 17.2531 5.86979 17.2531H10.5652C10.8892 17.2531 11.1522 17.5173 11.1522 17.8401V22.5355ZM20.5431 25.4702H14.6738V17.8401C14.6738 17.5173 14.9379 17.2531 15.2607 17.2531H19.9562C20.279 17.2531 20.5431 17.5173 20.5431 17.8401V25.4702Z" fill="#17A3AF"/>
<path d="M24.0646 1.40431C24.0646 1.08033 23.8005 0.817383 23.4777 0.817383H3.52199C3.198 0.817383 2.93506 1.08033 2.93506 1.40431V4.33898H24.0646V1.40431Z" fill="#17A3AF"/>
<path d="M21.1313 10.2091C21.1313 11.8302 22.4448 13.1438 24.0659 13.1438C25.687 13.1438 27.0006 11.8302 27.0006 10.2091L24.316 5.51367H19.7896L21.1313 10.2091Z" fill="#17A3AF"/>
<path d="M14.0869 5.51367V10.2091C14.0869 11.8302 15.4005 13.1438 17.0216 13.1438C18.6427 13.1438 19.9562 11.8302 19.9562 10.2091L18.6145 5.51367H14.0869Z" fill="#17A3AF"/>
<path d="M9.97861 13.1438C11.5997 13.1438 12.9133 11.8302 12.9133 10.2091V5.51367H8.38567L7.04395 10.2091C7.04395 11.8302 8.3575 13.1438 9.97861 13.1438Z" fill="#17A3AF"/>
<path d="M2.93515 13.1438C4.55625 13.1438 5.86981 11.8302 5.86981 10.2091L7.21153 5.51367H2.68394L0.000488281 10.2091C0.000488281 11.8302 1.31404 13.1438 2.93515 13.1438Z" fill="#17A3AF"/>
</svg>
