<svg width="24" height="24" viewBox="0 0 24 24" fill="none" xmlns="http://www.w3.org/2000/svg">
<path fill-rule="evenodd" clip-rule="evenodd" d="M18.9268 17.0857L23.3369 21.4958C23.846 22.0036 23.846 22.8291 23.3369 23.3369C22.8291 23.846 22.0049 23.846 21.4958 23.3369L17.0857 18.9268C15.3214 20.2979 13.1053 21.1143 10.6978 21.1143C4.94525 21.1143 0.28125 16.4503 0.28125 10.6978C0.28125 4.94525 4.94525 0.28125 10.6978 0.28125C16.4503 0.28125 21.1143 4.94525 21.1143 10.6978C21.1143 13.1053 20.2979 15.3214 18.9268 17.0857ZM2.88542 10.6978C2.88542 15.0129 6.38276 18.5102 10.6978 18.5102C15.0129 18.5102 18.5102 15.0129 18.5102 10.6978C18.5102 6.38276 15.0129 2.88542 10.6978 2.88542C6.38276 2.88542 2.88542 6.38276 2.88542 10.6978Z" fill="white"/>
</svg>
