<svg width="13" height="12" viewBox="0 0 13 12" fill="none" xmlns="http://www.w3.org/2000/svg">
<path d="M4.97342 7.70191C4.34676 7.70191 3.73418 7.51609 3.21313 7.16793C2.69208 6.81978 2.28597 6.32494 2.04616 5.74598C1.80635 5.16702 1.7436 4.52995 1.86585 3.91533C1.98811 3.30071 2.28988 2.73615 2.73299 2.29304C3.17611 1.84992 3.74067 1.54816 4.35528 1.4259C4.9699 1.30364 5.60698 1.36639 6.18594 1.6062C6.7649 1.84602 7.25974 2.25212 7.60789 2.77317C7.95604 3.29422 8.14186 3.90681 8.14186 4.53347C8.14413 4.95019 8.06374 5.36322 7.90531 5.74866C7.74689 6.1341 7.51358 6.48429 7.21891 6.77896C6.92424 7.07363 6.57406 7.30693 6.18862 7.46535C5.80318 7.62378 5.39014 7.70418 4.97342 7.70191ZM9.19259 7.70191H8.62998L8.41932 7.49125C8.85347 6.98286 9.17254 6.38658 9.35464 5.74331C9.53675 5.10005 9.57757 4.425 9.47432 3.76448C9.3045 2.80285 8.82985 1.92136 8.1205 1.25025C7.41115 0.579146 6.50473 0.154022 5.53518 0.0376972C4.34755 -0.115397 3.14708 0.201518 2.18977 0.920867C1.23246 1.64022 0.594051 2.70508 0.410642 3.88841C0.227234 5.07174 0.513345 6.27991 1.20798 7.2553C1.90262 8.23069 2.95082 8.89613 4.12907 9.10973C4.7896 9.21298 5.46465 9.17215 6.10792 8.99005C6.75119 8.80795 7.34745 8.48888 7.85584 8.05472L8.0665 8.26538V8.828L11.02 11.7815C11.0893 11.8508 11.1715 11.9057 11.262 11.9432C11.3525 11.9807 11.4495 12 11.5475 12C11.6455 12 11.7425 11.9807 11.833 11.9432C11.9235 11.9057 12.0057 11.8508 12.075 11.7815C12.1443 11.7122 12.1992 11.63 12.2367 11.5395C12.2742 11.449 12.2935 11.352 12.2935 11.254C12.2935 11.156 12.2742 11.059 12.2367 10.9685C12.1992 10.878 12.1443 10.7958 12.075 10.7265L9.19259 7.70191Z" fill="#1F1216"/>
</svg>
