<svg width="14" height="14" viewBox="0 0 14 14" fill="none" xmlns="http://www.w3.org/2000/svg">
<path fill-rule="evenodd" clip-rule="evenodd" d="M11.1376 10.0379L13.7719 12.6722C14.076 12.9755 14.076 13.4686 13.7719 13.7719C13.4686 14.076 12.9763 14.076 12.6722 13.7719L10.0379 11.1376C8.98399 11.9566 7.66023 12.4443 6.22214 12.4443C2.78596 12.4443 0 9.65831 0 6.22214C0 2.78596 2.78596 0 6.22214 0C9.65831 0 12.4443 2.78596 12.4443 6.22214C12.4443 7.66023 11.9566 8.98399 11.1376 10.0379ZM1.55556 6.22216C1.55556 8.79968 3.64464 10.8888 6.22216 10.8888C8.79968 10.8888 10.8888 8.79968 10.8888 6.22216C10.8888 3.64464 8.79968 1.55556 6.22216 1.55556C3.64464 1.55556 1.55556 3.64464 1.55556 6.22216Z" fill="white"/>
</svg>
