<svg width="25" height="28" viewBox="0 0 25 28" fill="none" xmlns="http://www.w3.org/2000/svg">
<path fill-rule="evenodd" clip-rule="evenodd" d="M6.72115 2.6465C7.09935 2.6465 7.47724 2.6465 7.85543 2.6465C7.85543 3.47518 7.85543 4.30385 7.85543 5.13223H6.15865V3.20901C6.15865 2.89923 6.41137 2.6465 6.72115 2.6465ZM8.7552 2.6465C8.7552 3.47518 8.7552 4.30385 8.7552 5.13223H10.745V4.04217C10.745 3.79362 10.9464 3.59228 11.1949 3.59228C11.4435 3.59228 11.6448 3.79362 11.6448 4.04217V5.13223H18.8669C19.0219 5.13223 19.1551 5.18749 19.2645 5.29683L22.2323 8.2647C22.342 8.37433 22.3969 8.50756 22.3969 8.6623V24.5562C22.3969 25.4401 22.054 26.2828 21.438 26.9149H24.3205C24.6302 26.9149 24.883 26.6622 24.883 26.3524V6.13028H21.8494C21.6008 6.13028 21.3995 5.92894 21.3995 5.68039V2.6465H13.0742C13.0742 1.21052 11.9008 0.0371094 10.4648 0.0371094C9.05602 0.0371094 7.90024 1.1663 7.85692 2.56525H8.75759C8.80061 1.66339 9.5531 0.937179 10.4651 0.937179C11.4043 0.937179 12.1747 1.7073 12.1747 2.6465C11.0345 2.6465 9.89485 2.6465 8.7552 2.6465ZM3.67293 22.6398V6.14492C3.67293 6.11415 3.68577 6.08607 3.70609 6.06575C3.7267 6.04514 3.75478 6.0326 3.78525 6.0326H7.85513V8.17717C7.85513 9.22033 8.7068 10.072 9.74997 10.072C10.7931 10.072 11.6448 9.22003 11.6448 8.17717V6.0326H18.4636V8.6163C18.4636 8.86484 18.6649 9.06619 18.9135 9.06619H21.4972V24.5565C21.4972 25.9264 20.3868 27.0371 19.0165 27.0371C17.6466 27.0371 16.5359 25.9267 16.5359 24.5565C16.5359 24.129 16.6431 23.7123 16.8531 23.3397C16.9009 23.2683 16.929 23.1823 16.929 23.0897C16.929 22.8412 16.7277 22.6398 16.4791 22.6398H3.67293ZM10.745 6.0323V8.17687C10.745 8.72324 10.2963 9.17194 9.74997 9.17194C9.20359 9.17194 8.7549 8.72324 8.7549 8.17687V6.0323H10.745ZM6.08367 12.037C5.83512 12.037 5.63378 11.8357 5.63378 11.5872C5.63378 11.3386 5.83512 11.1373 6.08367 11.1373H19.0861C19.3347 11.1373 19.536 11.3386 19.536 11.5872C19.536 11.8357 19.3347 12.037 19.0861 12.037H6.08367ZM6.08367 21.1659C5.83512 21.1659 5.63378 20.9646 5.63378 20.716C5.63378 20.4675 5.83512 20.2661 6.08367 20.2661H19.0861C19.3347 20.2661 19.536 20.4675 19.536 20.716C19.536 20.9646 19.3347 21.1659 19.0861 21.1659H6.08367ZM6.08367 18.123C5.83512 18.123 5.63378 17.9217 5.63378 17.6732C5.63378 17.4246 5.83512 17.2233 6.08367 17.2233H19.0861C19.3347 17.2233 19.536 17.4246 19.536 17.6732C19.536 17.9217 19.3347 18.123 19.0861 18.123H6.08367ZM6.08367 15.0802C5.83512 15.0802 5.63378 14.8788 5.63378 14.6303C5.63378 14.3818 5.83512 14.1804 6.08367 14.1804H19.0861C19.3347 14.1804 19.536 14.3818 19.536 14.6303C19.536 14.8788 19.3347 15.0802 19.0861 15.0802H6.08367ZM20.8609 8.16612H19.3634V6.66859L20.8609 8.16612ZM2.5993 27.0368C1.46472 27.0368 0.118652 25.6429 0.118652 24.5562C0.127017 24.2798 0.149123 23.7747 0.30715 23.5396H15.7927C15.689 23.8679 15.6364 24.212 15.6364 24.5562C15.6364 25.4897 16.0149 26.3348 16.6267 26.9466C16.6575 26.9774 16.6885 27.0072 16.7205 27.0368H2.5993ZM22.2996 3.09639L24.4334 5.23021H22.2996V3.09639Z" fill="#255AA8"/>
</svg>
