<svg width="25" height="28" viewBox="0 0 25 28" fill="none" xmlns="http://www.w3.org/2000/svg">
<path fill-rule="evenodd" clip-rule="evenodd" d="M18.9159 23.3648C17.8026 23.3648 16.9005 24.2669 16.9005 25.3801C16.9005 26.493 17.8026 27.3955 18.9159 27.3955C20.0291 27.3955 20.9312 26.4933 20.9312 25.3801C20.9309 24.2672 20.0288 23.3648 18.9159 23.3648ZM22.9834 16.4816H22.3141V17.9455H22.9834V16.4816ZM20.4287 11.2238H19.7594V12.6877H20.4287V11.2238ZM4.94306 9.03983V12.042L3.01587 12.0551V9.03983H0.00537109L12.3069 0.45761C12.4255 0.374807 12.5756 0.374807 12.694 0.45761L24.9958 9.03983H21.9852V10.3213H20.0581V9.03983H4.94306ZM11.4615 6.33872C11.4615 6.43198 11.5374 6.50791 11.6307 6.50791H13.3707C13.464 6.50791 13.5399 6.43198 13.5399 6.33872V4.59896C13.5399 4.50569 13.464 4.42977 13.3707 4.42977H11.6307C11.5374 4.42977 11.4615 4.50569 11.4615 4.59896V6.33872ZM22.4411 11.2238V15.6046C22.4411 15.7771 22.3006 15.9176 22.1281 15.9176H18.06C17.8875 15.9176 17.747 15.7771 17.747 15.6046V11.2238H18.857V13.1387C18.857 13.388 19.059 13.5898 19.3081 13.5898H20.8798C21.1291 13.5898 21.3309 13.3877 21.3309 13.1387V11.2238H22.4411ZM17.3318 11.2238H16.2219V13.1387C16.2219 13.388 16.0198 13.5898 15.7708 13.5898H14.1991C13.9498 13.5898 13.748 13.3877 13.748 13.1387V11.2238H12.6381V15.6046C12.6381 15.7771 12.7786 15.9176 12.951 15.9176H17.0192C17.1916 15.9176 17.3321 15.7771 17.3321 15.6046L17.3318 11.2238ZM15.3195 11.2238H14.6502V12.6877H15.3195V11.2238ZM14.7772 16.4816H13.6673V18.3966C13.6673 18.6459 13.4652 18.8477 13.2162 18.8477H11.6444C11.3951 18.8477 11.1933 18.6456 11.1933 18.3966V16.4816H10.0834V20.8624C10.0834 21.0349 10.2239 21.1754 10.3964 21.1754H14.4645C14.637 21.1754 14.7775 21.0349 14.7775 20.8624L14.7772 16.4816ZM24.9958 16.4816V20.8624C24.9958 21.0349 24.8553 21.1754 24.6828 21.1754H20.6147C20.4422 21.1754 20.3017 21.0349 20.3017 20.8624V16.4816H21.4116V18.3966C21.4116 18.6459 21.6137 18.8477 21.8627 18.8477H23.4342C23.6835 18.8477 23.8852 18.6456 23.8852 18.3966V16.4816H24.9958ZM19.8865 16.4816H18.7766V18.3966C18.7766 18.6459 18.5745 18.8477 18.3255 18.8477H16.7537C16.5044 18.8477 16.3026 18.6456 16.3026 18.3966V16.4816H15.1927V20.8624C15.1927 21.0349 15.3332 21.1754 15.5057 21.1754H19.5738C19.7463 21.1754 19.8868 21.0349 19.8868 20.8624L19.8865 16.4816ZM17.8741 16.4816V17.9455H17.2048V16.4816H17.8741ZM12.7648 16.4816V17.9455H12.0955V16.4816H12.7648ZM9.73607 21.7395C14.8226 21.7395 19.9092 21.7395 24.9958 21.7395V24.3724C24.9958 24.9276 24.5432 25.3801 23.9881 25.3801C23.2697 25.3801 22.5517 25.3801 21.8334 25.3801C21.8334 25.3577 21.8331 25.3353 21.8325 25.3129C21.7963 23.7196 20.4909 22.4623 18.9156 22.4623C17.3043 22.4623 15.9977 23.7689 15.9977 25.3801C13.9103 25.3801 11.8232 25.3801 9.73578 25.3801L9.73607 21.7395ZM0.00537109 22.9406V24.6244C0.00537109 25.0406 0.344953 25.3801 0.761061 25.3801C1.00798 25.3801 1.25489 25.3801 1.50151 25.3801C1.50151 23.7608 2.81619 22.4623 4.41934 22.4623C6.02459 22.4623 7.33718 23.7629 7.33718 25.3801C7.83609 25.3801 8.3347 25.3801 8.83361 25.3801V21.7395V12.9444H3.26518C2.76208 12.9444 2.29127 13.2042 2.0895 13.6795L0.0908646 18.3858C0.0316768 18.5248 0.00537109 18.6525 0.00537109 18.8019V21.8779H0.739239C0.894682 21.8779 1.02113 22.0046 1.02113 22.1598V22.6584C1.02113 22.8138 0.894383 22.9403 0.739239 22.9403L0.00537109 22.9406ZM1.75649 18.4256L3.4266 14.4932H7.28457V18.4256H1.75649ZM4.41934 23.3648C5.53255 23.3648 6.43471 24.2669 6.43471 25.3801C6.43471 26.493 5.53255 27.3955 4.41934 27.3955C3.30613 27.3955 2.40397 26.4933 2.40397 25.3801C2.40427 24.2672 3.30643 23.3648 4.41934 23.3648ZM18.9159 24.6935C19.2952 24.6935 19.6025 25.0008 19.6025 25.3801C19.6025 25.7595 19.2952 26.0668 18.9159 26.0668C18.5362 26.0668 18.2292 25.7598 18.2292 25.3801C18.2292 25.0008 18.5362 24.6935 18.9159 24.6935ZM4.41934 24.6935C4.79868 24.6935 5.10598 25.0008 5.10598 25.3801C5.10598 25.7595 4.79898 26.0668 4.41934 26.0668C4.0397 26.0668 3.7327 25.7598 3.7327 25.3801C3.7327 25.0008 4.04 24.6935 4.41934 24.6935Z" fill="#8BC34A"/>
</svg>
