<svg width="37" height="37" viewBox="0 0 37 37" fill="none" xmlns="http://www.w3.org/2000/svg">
<path d="M0.949219 0.599609H30.3577C32.7837 0.599609 33.9968 0.599609 34.9063 1.10897C35.5491 1.46896 36.0799 1.9997 36.4399 2.64251C36.9492 3.55204 36.9492 4.76509 36.9492 7.19117V30.008C36.9492 32.4341 36.9492 33.6472 36.4399 34.5567C36.0799 35.1995 35.5491 35.7303 34.9063 36.0902C33.9968 36.5996 32.7837 36.5996 30.3577 36.5996H0.949219V0.599609Z" fill="#1F1216"/>
<path fill-rule="evenodd" clip-rule="evenodd" d="M25.6594 10.9199H24.5451V9.10303H23.0916V10.9199H14.8068V9.10303H13.3533V10.9199H12.2389C11.5322 10.9199 10.8544 11.2006 10.3547 11.7004C9.85496 12.2001 9.57422 12.8779 9.57422 13.5846V25.4305C9.57422 26.1372 9.85496 26.815 10.3547 27.3147C10.8544 27.8144 11.5322 28.0952 12.2389 28.0952H25.6594C26.3661 28.0952 27.0439 27.8144 27.5436 27.3147C28.0434 26.815 28.3241 26.1372 28.3241 25.4305V13.5846C28.3241 12.8779 28.0434 12.2001 27.5436 11.7004C27.0439 11.2006 26.3661 10.9199 25.6594 10.9199ZM12.2632 12.3734H13.3775V13.948H14.831V12.3734H23.0916V13.948H24.5451V12.3734H25.6594C25.9806 12.3734 26.2887 12.501 26.5159 12.7281C26.743 12.9553 26.8706 13.2634 26.8706 13.5846V15.0623H11.0277V13.5846C11.0277 13.2634 11.1553 12.9553 11.3825 12.7281C11.6096 12.501 11.9177 12.3734 12.2389 12.3734H12.2632ZM25.6594 26.6417H12.2389C11.9177 26.6417 11.6096 26.5141 11.3825 26.2869C11.1553 26.0598 11.0277 25.7517 11.0277 25.4305V16.5158H26.8706V25.4305C26.8706 25.5895 26.8393 25.747 26.7784 25.894C26.7176 26.0409 26.6284 26.1745 26.5159 26.2869C26.4034 26.3994 26.2699 26.4886 26.1229 26.5495C25.976 26.6104 25.8185 26.6417 25.6594 26.6417ZM20.5479 17.9199H17.3745V21.0909H20.5479V17.9199ZM12.8687 17.9214H16.0421V21.0924H12.8687V17.9214ZM25.0538 17.9199H21.8804V21.0909H25.0538V17.9199ZM17.3745 22.0391H20.5479V25.2101H17.3745V22.0391ZM16.0421 22.039H12.8686V25.21H16.0421V22.039ZM21.8804 22.0391H25.0538V25.2101H21.8804V22.0391Z" fill="white"/>
</svg>
