<svg width="26" height="26" viewBox="0 0 26 26" fill="none" xmlns="http://www.w3.org/2000/svg">
<rect x="0.990967" y="0.75" width="24" height="24" rx="3.24489" fill="#7649B3" stroke="#7649B3" stroke-width="1.5"/>
<path d="M19.2809 7.14059V15.6406C19.2809 16.5246 18.7199 17.2726 17.9209 17.5616C17.8019 17.6126 17.6659 17.6296 17.5469 17.6636C17.5639 17.5616 17.5809 17.4596 17.5809 17.3576V16.6096C17.9889 16.4566 18.2609 16.0826 18.2609 15.6576V7.14059C18.2609 6.57959 17.8019 6.12059 17.2409 6.12059H11.4609C11.0359 6.12059 10.6449 6.39259 10.4919 6.80059H9.76093C9.65893 6.80059 9.55693 6.81759 9.45493 6.83459C9.47193 6.71559 9.50593 6.59659 9.53993 6.47759C9.81193 5.67859 10.5769 5.10059 11.4609 5.10059H17.2409C18.3629 5.10059 19.2809 6.01859 19.2809 7.14059ZM16.5609 9.86059V18.3606C16.5609 18.6666 16.4929 18.9386 16.3739 19.1936C16.0509 19.9076 15.3369 20.4006 14.5209 20.4006H8.74093C7.61893 20.4006 6.70093 19.4826 6.70093 18.3606V9.86059C6.70093 9.02759 7.19393 8.33059 7.90793 8.00759C8.16293 7.88859 8.45193 7.82059 8.74093 7.82059H14.5209C15.6429 7.82059 16.5609 8.73859 16.5609 9.86059ZM15.5409 9.86059C15.5409 9.29959 15.0819 8.84059 14.5209 8.84059H8.74093C8.17993 8.84059 7.72093 9.29959 7.72093 9.86059V18.3606C7.72093 18.9216 8.17993 19.3806 8.74093 19.3806H14.5209C15.0819 19.3806 15.5409 18.9216 15.5409 18.3606V9.86059Z" fill="white" stroke="white" stroke-width="0.375"/>
</svg>
