<svg width="181" height="35" viewBox="0 0 181 35" fill="none" xmlns="http://www.w3.org/2000/svg">
<path d="M8.6582 28.7227C7.33984 28.7227 6.14355 28.3931 5.06934 27.7339C3.99512 27.0991 3.07959 26.2202 2.32275 25.0972C1.59033 23.9741 1.0166 22.6558 0.601562 21.1421C0.210938 19.6284 0.015625 17.9927 0.015625 16.2349C0.015625 13.7202 0.308594 11.4741 0.894531 9.49658C1.48047 7.51904 2.24951 5.84668 3.20166 4.47949C4.17822 3.1123 5.27686 2.0625 6.49756 1.33008C7.74268 0.597656 9.01221 0.231445 10.3062 0.231445C11.5269 0.231445 12.5522 0.451172 13.3823 0.890625C14.2124 1.33008 14.8716 1.8916 15.3599 2.5752C15.8726 3.25879 16.2144 4.01563 16.3853 4.8457C16.5806 5.65137 16.6416 6.42041 16.5684 7.15283C16.4463 8.56885 15.958 9.71631 15.1035 10.5952C14.2734 11.4741 13.3091 11.9136 12.2104 11.9136C11.8442 11.8892 11.4658 11.8281 11.0752 11.7305C10.7334 11.6328 10.3794 11.4863 10.0132 11.291C9.64697 11.0957 9.30518 10.8149 8.98779 10.4487C10.0132 10.522 10.8066 10.3145 11.3682 9.82617C11.9297 9.33789 12.3447 8.78857 12.6133 8.17822C12.9062 7.47021 13.0771 6.64014 13.126 5.68799C13.126 5.15088 13.0405 4.68701 12.8696 4.29639C12.6987 3.88135 12.4668 3.55176 12.1738 3.30762C11.9053 3.03906 11.6123 2.84375 11.2949 2.72168C10.9775 2.59961 10.6724 2.53857 10.3794 2.53857C9.72021 2.53857 9 2.79492 8.21875 3.30762C7.46191 3.82031 6.7417 4.60156 6.05811 5.65137C5.37451 6.67676 4.80078 7.99512 4.33691 9.60645C3.89746 11.1934 3.67773 13.0854 3.67773 15.2827C3.67773 17.4556 3.87305 19.2378 4.26367 20.6294C4.6543 21.9966 5.13037 23.0708 5.69189 23.8521C6.25342 24.6089 6.83936 25.1338 7.44971 25.4268C8.08447 25.6953 8.62158 25.8296 9.06104 25.8296C9.91553 25.7563 10.6968 25.4634 11.4048 24.9507C12.0151 24.5112 12.5889 23.8154 13.126 22.8633C13.6875 21.8867 14.0659 20.4951 14.2612 18.6885C14.5786 18.7129 14.835 18.7861 15.0303 18.9082C15.25 19.0303 15.4331 19.1523 15.5796 19.2744C15.7261 19.4209 15.8604 19.5918 15.9824 19.7871C16.0068 19.8115 16.0068 20.0557 15.9824 20.5195C15.958 20.9834 15.8726 21.5449 15.7261 22.2041C15.5796 22.8633 15.3477 23.5713 15.0303 24.3281C14.7373 25.085 14.3101 25.793 13.7485 26.4521C13.2114 27.1113 12.5278 27.6484 11.6978 28.0635C10.8677 28.5029 9.85449 28.7227 8.6582 28.7227ZM28.6167 19.2012C28.5679 20.1533 28.397 21.0322 28.104 21.8379C27.8354 22.6436 27.457 23.3516 26.9688 23.9619C26.4805 24.5479 25.8945 25.0117 25.2109 25.3535C24.5518 25.6953 23.8193 25.8784 23.0137 25.9028C22.3057 25.9272 21.6343 25.7563 20.9995 25.3901C20.3892 25.0239 19.8521 24.5112 19.3882 23.8521C18.9243 23.1929 18.5703 22.4116 18.3262 21.5083C18.1064 20.5806 18.0454 19.5796 18.1431 18.5054C18.2163 17.2603 18.4482 16.1982 18.8389 15.3193C19.2295 14.416 19.6445 13.6714 20.084 13.0854C20.5234 12.4995 20.9263 12.0723 21.2925 11.8037C21.6831 11.5107 21.9272 11.3398 22.0249 11.291C22.1958 11.2178 22.3545 11.2056 22.501 11.2544C22.6475 11.2788 22.8062 11.3154 22.9771 11.3643C23.0259 11.3887 23.0747 11.4497 23.1235 11.5474C23.2212 11.7183 23.2822 12.0356 23.3066 12.4995C23.4287 12.231 23.5874 12.0112 23.7827 11.8403C23.978 11.6694 24.1733 11.5474 24.3687 11.4741C24.6128 11.3765 24.8569 11.3154 25.1011 11.291C25.272 11.2666 25.5649 11.4009 25.98 11.6938C26.4194 11.9868 26.8345 12.4507 27.2251 13.0854C27.6401 13.7202 27.9941 14.5503 28.2871 15.5757C28.5801 16.5767 28.6899 17.7852 28.6167 19.2012ZM26.1265 18.7617C26.1509 18.1758 26.1265 17.5898 26.0532 17.0039C26.0044 16.3936 25.9067 15.8442 25.7603 15.356C25.6382 14.8433 25.4795 14.4404 25.2842 14.1475C25.0889 13.8301 24.8936 13.6714 24.6982 13.6714C24.4785 13.7202 24.2344 13.8301 23.9658 14.001C23.7461 14.1475 23.502 14.3794 23.2334 14.6968C22.9648 15.0142 22.7085 15.4658 22.4644 16.0518C22.4399 15.9785 22.4155 15.8442 22.3911 15.6489C22.3667 15.478 22.3423 15.2583 22.3179 14.9897C22.3179 14.6968 22.3423 14.3062 22.3911 13.8179C22.0493 14.2329 21.7808 14.7212 21.5854 15.2827C21.4146 15.8442 21.2803 16.3813 21.1826 16.894C21.085 17.5044 21.0117 18.1147 20.9629 18.7251C20.9385 19.3843 20.9629 20.0312 21.0361 20.666C21.1338 21.3008 21.2803 21.8623 21.4756 22.3506C21.6953 22.8389 21.9517 23.2295 22.2446 23.5225C22.5376 23.8154 22.8916 23.9497 23.3066 23.9253C23.7217 23.9009 24.0879 23.73 24.4053 23.4126C24.7227 23.0952 25.0034 22.6924 25.2476 22.2041C25.4917 21.7158 25.687 21.1665 25.8335 20.5562C25.98 19.9458 26.0776 19.3477 26.1265 18.7617ZM34.4028 24.5112C34.3784 24.6577 34.2441 24.8164 34 24.9873C33.7803 25.1338 33.5117 25.2681 33.1943 25.3901C32.9014 25.5122 32.6206 25.5854 32.3521 25.6099C32.0835 25.6587 31.9004 25.6343 31.8027 25.5366C31.7051 25.439 31.5464 25.2559 31.3267 24.9873C31.1069 24.7188 30.9727 24.2793 30.9238 23.6689C30.875 23.0342 30.8506 22.2407 30.8506 21.2886C30.8506 20.312 30.8384 19.2378 30.814 18.0659V16.6011C30.814 16.1616 30.8018 15.6489 30.7773 15.063C30.7773 14.4771 30.7651 13.8667 30.7407 13.2319C30.9604 13.1099 31.1802 13 31.3999 12.9023C31.644 12.7803 31.8638 12.6826 32.0591 12.6094C32.2788 12.5117 32.4863 12.4385 32.6816 12.3896C33.1943 12.2432 33.585 12.1577 33.8535 12.1333C34.1221 12.1089 34.2808 12.1943 34.3296 12.3896C34.354 12.5361 34.3418 12.8901 34.293 13.4517C34.2441 13.9399 34.1831 14.6846 34.1099 15.6855C34.0366 16.6621 33.9146 18.0293 33.7437 19.7871C34.061 19.0059 34.3174 18.3345 34.5127 17.7729C34.7324 17.2114 34.9155 16.7598 35.062 16.418C35.2085 16.0029 35.3428 15.6733 35.4648 15.4292C35.5869 15.1118 35.7456 14.7578 35.9409 14.3672C36.1362 13.9766 36.3315 13.6104 36.5269 13.2686C36.7466 12.9268 36.9419 12.6216 37.1128 12.353C37.3081 12.0845 37.4546 11.9258 37.5522 11.877C37.6255 11.8281 37.8452 11.8281 38.2114 11.877C38.5776 11.9258 38.9683 12.0479 39.3833 12.2432C39.7983 12.4141 40.2012 12.6704 40.5918 13.0122C40.9824 13.3296 41.2388 13.7202 41.3608 14.1841C41.5073 14.7212 41.5562 15.4292 41.5073 16.3081C41.4829 17.187 41.4219 18.0903 41.3242 19.0181C41.251 19.9458 41.1899 20.8247 41.1411 21.6548C41.0923 22.4849 41.1411 23.1196 41.2876 23.5591C41.3364 23.8032 41.4097 24.0229 41.5073 24.2183C41.5562 24.4136 41.6172 24.5967 41.6904 24.7676C41.7881 24.9141 41.8857 25.0239 41.9834 25.0972C41.3975 25.3657 40.9214 25.561 40.5552 25.6831C40.189 25.8052 39.9082 25.8906 39.7129 25.9395C39.4688 26.0127 39.2979 26.0371 39.2002 26.0127C38.9805 25.9395 38.7852 25.7563 38.6143 25.4634C38.4678 25.1704 38.3335 24.7065 38.2114 24.0718C38.1626 23.8765 38.1382 23.5591 38.1382 23.1196C38.1626 22.6558 38.1992 22.1431 38.248 21.5815C38.2969 20.9956 38.3457 20.3975 38.3945 19.7871C38.4678 19.1523 38.5166 18.5664 38.541 18.0293C38.5898 17.4678 38.6265 16.9917 38.6509 16.6011C38.6753 16.186 38.6753 15.9053 38.6509 15.7588C38.5288 15.3193 38.3579 15.0142 38.1382 14.8433C37.9185 14.6479 37.7476 14.6235 37.6255 14.77C37.3081 15.1362 36.9663 15.7344 36.6001 16.5645C36.2583 17.3701 35.9287 18.2612 35.6113 19.2378C35.2939 20.1899 35.0254 21.1421 34.8057 22.0942C34.5859 23.0464 34.4517 23.8521 34.4028 24.5112ZM48.1357 25.8296C47.623 25.8296 47.0981 25.6953 46.561 25.4268C46.0239 25.1582 45.5234 24.7554 45.0596 24.2183C44.5957 23.6567 44.2173 22.9731 43.9243 22.1675C43.6313 21.3374 43.4849 20.373 43.4849 19.2744C43.4849 17.6631 43.6924 16.3325 44.1074 15.2827C44.5225 14.2085 45.0229 13.354 45.6089 12.7192C46.2192 12.0601 46.8784 11.5962 47.5864 11.3276C48.2944 11.0591 48.9414 10.9248 49.5273 10.9248C50.1377 10.9248 50.6382 11.0347 51.0288 11.2544C51.4438 11.4497 51.7856 11.6816 52.0542 11.9502V11.2544C52.2007 11.1323 52.3594 11.0225 52.5303 10.9248C52.7256 10.8271 52.9209 10.7539 53.1162 10.7051C53.3115 10.6318 53.519 10.5952 53.7388 10.5952H54.2881C54.4346 10.6196 54.5811 10.644 54.7275 10.6685C54.8984 10.6929 55.0205 10.7539 55.0938 10.8516C54.9473 14.0498 54.8252 16.6377 54.7275 18.6152C54.6299 20.5928 54.5566 22.1309 54.5078 23.2295C54.4346 24.5234 54.3857 25.4634 54.3613 26.0493C54.3125 27.0747 54.1782 28.0879 53.9585 29.0889C53.7388 30.1143 53.397 31.0298 52.9331 31.8354C52.4692 32.6411 51.8589 33.2881 51.1021 33.7764C50.3452 34.2646 49.4175 34.5088 48.3188 34.5088C47.3667 34.5088 46.5977 34.3257 46.0117 33.9595C45.4502 33.5933 45.0107 33.1416 44.6934 32.6045C44.4004 32.0674 44.2051 31.4937 44.1074 30.8833C44.0098 30.2974 43.9609 29.7603 43.9609 29.272C43.9609 29.1499 44.022 28.9668 44.144 28.7227C44.2905 28.4785 44.4858 28.2222 44.73 27.9536C44.9985 27.7095 45.3281 27.4897 45.7188 27.2944C46.1094 27.0991 46.5488 26.9771 47.0371 26.9282C46.8174 27.5874 46.6831 28.1855 46.6343 28.7227C46.5854 29.0156 46.5732 29.3086 46.5977 29.6016C46.5977 30.4072 46.7563 31.0786 47.0737 31.6157C47.3911 32.1528 47.8794 32.4214 48.5386 32.4214C49.2466 32.4214 49.8203 32.1162 50.2598 31.5059C50.6992 30.9199 51.0288 30.1997 51.2485 29.3452C51.4927 28.5151 51.6514 27.6362 51.7246 26.7085C51.8223 25.8052 51.8711 25.0361 51.8711 24.4014V23.3394C51.7246 23.6079 51.5415 23.8887 51.3218 24.1816C51.1265 24.4746 50.8823 24.7432 50.5894 24.9873C50.2964 25.2314 49.9424 25.4268 49.5273 25.5732C49.1367 25.7441 48.6729 25.8296 48.1357 25.8296ZM49.6372 13.0122C49.2222 13.0122 48.8193 13.1953 48.4287 13.5615C48.0625 13.9277 47.7329 14.416 47.4399 15.0264C47.147 15.6123 46.915 16.2837 46.7441 17.0405C46.5732 17.7974 46.4878 18.5542 46.4878 19.311C46.4878 19.7993 46.5122 20.2998 46.561 20.8125C46.6343 21.3252 46.7563 21.8013 46.9272 22.2407C47.1226 22.6558 47.3667 22.9976 47.6597 23.2661C47.9526 23.5347 48.3433 23.6689 48.8315 23.6689C49.1978 23.6445 49.5396 23.498 49.8569 23.2295C50.1255 23.0098 50.394 22.6558 50.6626 22.1675C50.9556 21.6792 51.1875 20.9834 51.3584 20.0801C51.5537 20.2754 51.7002 20.4585 51.7979 20.6294C51.9199 20.8003 52.0176 20.959 52.0908 21.1055C52.1152 20.9102 52.1274 20.6782 52.1274 20.4097C52.1519 20.1411 52.1641 19.8359 52.1641 19.4941C52.1641 18.835 52.1274 18.127 52.0542 17.3701C51.981 16.5889 51.8467 15.8809 51.6514 15.2461C51.4805 14.6113 51.2241 14.0864 50.8823 13.6714C50.5649 13.2319 50.1499 13.0122 49.6372 13.0122ZM67.2886 14.2573C67.2886 14.5991 67.1909 14.9531 66.9956 15.3193C66.8247 15.6611 66.605 15.9907 66.3364 16.3081C66.0679 16.6255 65.7627 16.9062 65.4209 17.1504C65.1035 17.3701 64.7983 17.5044 64.5054 17.5532C64.7007 16.7964 64.7617 16.2104 64.6885 15.7954C64.6152 15.3804 64.4932 15.0752 64.3223 14.8799C64.127 14.6602 63.8828 14.5381 63.5898 14.5137C63.1504 14.5137 62.7231 14.77 62.3081 15.2827C61.9175 15.771 61.5757 16.3813 61.2827 17.1138C60.9897 17.8218 60.7578 18.5908 60.5869 19.4209C60.416 20.2266 60.3306 20.959 60.3306 21.6182C60.3062 22.082 60.3184 22.5337 60.3672 22.9731C60.3916 23.3394 60.4282 23.7178 60.4771 24.1084C60.5503 24.499 60.6479 24.8042 60.77 25.0239C60.6235 25.146 60.3794 25.2925 60.0376 25.4634C59.7202 25.6343 59.3784 25.7441 59.0122 25.793C58.6704 25.8418 58.353 25.7808 58.0601 25.6099C57.7915 25.439 57.645 25.0728 57.6206 24.5112C57.5718 23.9741 57.5352 23.376 57.5107 22.7168C57.5107 22.0332 57.5107 21.3618 57.5107 20.7026C57.5352 20.019 57.5596 19.3477 57.584 18.6885C57.6084 18.0293 57.645 17.4189 57.6938 16.8574C57.7427 15.7832 57.7671 14.9531 57.7671 14.3672C57.7671 13.7812 57.7549 13.2197 57.7305 12.6826C57.7305 12.585 57.8892 12.4507 58.2065 12.2798C58.5483 12.0845 58.9146 11.9136 59.3052 11.7671C59.7202 11.6206 60.0986 11.5352 60.4404 11.5107C60.7822 11.4863 60.9531 11.5596 60.9531 11.7305C60.9531 11.999 60.9165 12.5361 60.8433 13.3418C60.7944 14.123 60.7212 14.9409 60.6235 15.7954C60.7944 15.3315 61.0142 14.8311 61.2827 14.2939C61.5757 13.7568 61.9053 13.2563 62.2715 12.7925C62.6377 12.3286 63.0527 11.9502 63.5166 11.6572C63.9805 11.3398 64.4932 11.1812 65.0547 11.1812C65.4941 11.1812 65.8481 11.3154 66.1167 11.584C66.4097 11.8525 66.6416 12.1577 66.8125 12.4995C66.9834 12.8413 67.1055 13.1831 67.1787 13.5249C67.252 13.8667 67.2886 14.1108 67.2886 14.2573ZM79.0439 23.6323C79.0928 23.8032 79.166 23.9619 79.2637 24.1084C79.3369 24.2305 79.4346 24.3525 79.5566 24.4746C79.7031 24.5723 79.874 24.6333 80.0693 24.6577C79.8984 24.9995 79.7275 25.2314 79.5566 25.3535C79.459 25.4268 79.3735 25.4756 79.3003 25.5C79.0806 25.5732 78.751 25.6099 78.3115 25.6099C77.8721 25.6099 77.4448 25.4756 77.0298 25.207C76.8833 25.085 76.749 24.9019 76.627 24.6577C76.5049 24.4624 76.395 24.1938 76.2974 23.8521C76.2241 23.4858 76.1631 23.022 76.1143 22.4604C75.7725 23.1929 75.3818 23.7788 74.9424 24.2183C74.5273 24.6333 74.1123 24.9385 73.6973 25.1338C73.2334 25.4023 72.7573 25.561 72.269 25.6099C71.6587 25.6587 71.0728 25.561 70.5112 25.3169C69.9741 25.0483 69.5103 24.6577 69.1196 24.145C68.7534 23.6079 68.4727 22.9609 68.2773 22.2041C68.082 21.4473 68.021 20.5928 68.0942 19.6406C68.1675 18.6396 68.3628 17.7485 68.6802 16.9673C68.9976 16.186 69.376 15.4902 69.8154 14.8799C70.2549 14.2695 70.7188 13.7568 71.207 13.3418C71.6953 12.9023 72.1592 12.5483 72.5986 12.2798C73.0625 11.9868 73.4531 11.7793 73.7705 11.6572C74.1123 11.5107 74.332 11.4253 74.4297 11.4009C74.6982 11.3276 74.9302 11.3032 75.1255 11.3276C75.3208 11.3521 75.4917 11.4619 75.6382 11.6572C75.687 11.7305 75.748 11.8159 75.8213 11.9136C75.8701 12.0112 75.9312 12.1455 76.0044 12.3164C76.0776 12.4629 76.1387 12.6338 76.1875 12.8291C75.6016 13.0977 75.0522 13.4028 74.5396 13.7446C74.0269 14.062 73.5508 14.4526 73.1113 14.9165C72.6963 15.3804 72.3301 15.9419 72.0127 16.6011C71.6953 17.2603 71.4512 18.0659 71.2803 19.0181C71.0361 20.2144 71.0972 21.1787 71.4634 21.9111C71.854 22.6436 72.3789 22.9487 73.0381 22.8267C73.4287 22.7046 73.8071 22.4727 74.1733 22.1309C74.4907 21.8379 74.8203 21.3984 75.1621 20.8125C75.5283 20.2266 75.8701 19.4209 76.1875 18.3955C76.3096 16.9307 76.4072 15.7832 76.4805 14.9531C76.5781 14.0986 76.6636 13.4517 76.7368 13.0122C76.8345 12.4995 76.9077 12.1577 76.9565 11.9868C77.0298 11.8647 77.1763 11.7549 77.396 11.6572C77.6157 11.5352 77.8599 11.4375 78.1284 11.3643C78.397 11.291 78.6411 11.2544 78.8608 11.2544C79.0806 11.23 79.2271 11.23 79.3003 11.2544C79.3491 11.2788 79.3735 11.584 79.3735 12.1699C79.3735 12.7314 79.3491 13.4517 79.3003 14.3306C79.2759 15.1851 79.2393 16.125 79.1904 17.1504C79.1416 18.1514 79.0928 19.1035 79.0439 20.0068C79.0195 20.9102 78.9951 21.7036 78.9707 22.3872C78.9707 23.0464 78.9951 23.4614 79.0439 23.6323ZM95.9629 9.20361C95.6943 9.15479 95.3281 9.10596 94.8643 9.05713C94.4248 9.0083 93.9731 8.97168 93.5093 8.94727C92.9722 8.92285 92.3984 8.91064 91.7881 8.91064C91.1777 8.86182 90.4087 8.86182 89.481 8.91064C88.5776 8.93506 87.6255 8.94727 86.6245 8.94727C86.6001 9.58203 86.5513 10.229 86.478 10.8882C86.4292 11.5474 86.3804 12.1943 86.3315 12.8291C86.2095 14.001 86.0996 15.1973 86.002 16.418C85.9287 17.6387 85.8921 18.7983 85.8921 19.897C85.8921 20.9956 85.9531 21.9966 86.0752 22.8999C86.2217 23.7788 86.478 24.4746 86.8442 24.9873C86.5513 25.207 86.2339 25.3779 85.8921 25.5C85.5503 25.5977 85.2451 25.6709 84.9766 25.7197C84.6592 25.793 84.3418 25.8296 84.0244 25.8296C83.7314 25.8296 83.4873 25.7319 83.292 25.5366C83.0967 25.3413 82.9868 24.9995 82.9624 24.5112C82.9136 23.6812 82.9014 22.8511 82.9258 22.021C82.9746 21.1665 83.0234 20.2754 83.0723 19.3477C83.1455 18.4199 83.2188 17.4312 83.292 16.3813C83.3652 15.3071 83.4385 14.1353 83.5117 12.8657C83.585 11.5474 83.6216 10.2656 83.6216 9.02051C82.6938 9.04492 81.9126 9.05713 81.2778 9.05713C80.6431 9.05713 80.2891 9.04492 80.2158 9.02051C80.1426 8.97168 80.0571 8.86182 79.9595 8.69092C79.8618 8.54443 79.7397 8.32471 79.5933 8.03174C79.4224 7.73877 79.2148 7.32373 78.9707 6.78662C79.4346 6.78662 79.9473 6.78662 80.5088 6.78662C81.0459 6.78662 81.5464 6.77441 82.0103 6.75C82.5474 6.72559 83.0845 6.70117 83.6216 6.67676C83.5972 6.28613 83.585 5.87109 83.585 5.43164C83.5605 5.08984 83.5483 4.71143 83.5483 4.29639C83.5483 3.85693 83.5361 3.4541 83.5117 3.08789C83.5117 2.94141 83.6826 2.77051 84.0244 2.5752C84.3906 2.35547 84.7812 2.16016 85.1963 1.98926C85.6113 1.81836 85.9897 1.7085 86.3315 1.65967C86.6978 1.61084 86.8809 1.69629 86.8809 1.91602C86.8809 2.13574 86.8687 2.67285 86.8442 3.52734C86.8442 4.35742 86.8198 5.37061 86.771 6.56689C87.0151 6.56689 87.1982 6.55469 87.3203 6.53027C88.6143 6.48145 89.6519 6.43262 90.4331 6.38379C91.2388 6.31055 91.8979 6.29834 92.4106 6.34717C92.9233 6.396 93.375 6.51807 93.7656 6.71338C94.1562 6.90869 94.5957 7.22607 95.084 7.66553C95.2549 7.81201 95.4014 7.9707 95.5234 8.1416C95.6455 8.28809 95.7432 8.45898 95.8164 8.6543C95.9141 8.8252 95.9629 9.0083 95.9629 9.20361ZM98.1235 11.877C98.1235 11.6084 98.2822 11.4131 98.5996 11.291C98.9414 11.1445 99.2954 11.0713 99.6616 11.0713C100.052 11.0713 100.406 11.1445 100.724 11.291C101.041 11.4131 101.188 11.584 101.163 11.8037C101.139 11.9746 101.114 12.3164 101.09 12.8291C101.065 13.3174 101.029 13.9033 100.98 14.5869C100.956 15.2705 100.919 16.0029 100.87 16.7842C100.821 17.5654 100.772 18.3345 100.724 19.0913C100.699 19.8237 100.675 20.5073 100.65 21.1421C100.65 21.7769 100.65 22.2651 100.65 22.6069C100.65 23.0464 100.675 23.4492 100.724 23.8154C100.772 24.1328 100.833 24.4502 100.907 24.7676C100.98 25.0605 101.09 25.2681 101.236 25.3901C101.041 25.4634 100.833 25.5122 100.614 25.5366C100.418 25.561 100.235 25.5854 100.064 25.6099C99.8691 25.6343 99.6738 25.6465 99.4785 25.6465C99.0635 25.6465 98.7095 25.561 98.4165 25.3901C98.1479 25.2192 98.0137 24.8652 98.0137 24.3281C98.0137 24.0596 98.0259 23.6689 98.0503 23.1562C98.0991 22.6436 98.1479 22.0942 98.1968 21.5083C98.0259 22.021 97.8184 22.5459 97.5742 23.083C97.3301 23.6201 97.0249 24.0962 96.6587 24.5112C96.3169 24.9263 95.9263 25.2681 95.4868 25.5366C95.0474 25.8052 94.5469 25.9395 93.9854 25.9395C93.3506 25.9395 92.7646 25.8052 92.2275 25.5366C91.7148 25.2681 91.2632 24.8896 90.8726 24.4014C90.4819 23.8887 90.189 23.2661 89.9937 22.5337C89.7983 21.8013 89.7251 20.959 89.7739 20.0068C89.7739 19.2744 89.7861 18.4932 89.8105 17.6631C89.835 16.9551 89.8716 16.1372 89.9204 15.2095C89.9692 14.2817 90.0547 13.3174 90.1768 12.3164C90.2012 12.2188 90.3721 12.0967 90.6895 11.9502C91.0068 11.8037 91.3608 11.6816 91.7515 11.584C92.1421 11.4863 92.5205 11.4497 92.8867 11.4741C93.2529 11.4985 93.5215 11.645 93.6924 11.9136C93.5703 12.353 93.4482 12.8779 93.3262 13.4883C93.2041 14.0742 93.0942 14.6846 92.9966 15.3193C92.8989 15.9541 92.8257 16.5767 92.7769 17.187C92.728 17.7974 92.7036 18.3589 92.7036 18.8716C92.7036 19.3354 92.728 19.8481 92.7769 20.4097C92.8257 20.9468 92.9111 21.4595 93.0332 21.9478C93.1797 22.4116 93.375 22.8022 93.6191 23.1196C93.8877 23.437 94.2295 23.5957 94.6445 23.5957C95.1084 23.5957 95.5112 23.4004 95.853 23.0098C96.2192 22.5947 96.5244 22.0698 96.7686 21.4351C97.0127 20.8003 97.2202 20.0801 97.3911 19.2744C97.562 18.4443 97.6963 17.6265 97.7939 16.8208C97.916 16.0151 97.9893 15.2461 98.0137 14.5137C98.0625 13.7568 98.0991 13.1221 98.1235 12.6094V11.877ZM108.487 1.76953C108.438 2.64844 108.353 3.66162 108.231 4.80908C108.109 5.95654 107.975 7.18945 107.828 8.50781C107.706 9.82617 107.572 11.2056 107.425 12.646C107.303 14.0864 107.193 15.5391 107.096 17.0039C106.998 18.4688 106.949 19.665 106.949 20.5928C106.974 21.4961 107.035 22.2407 107.132 22.8267C107.23 23.4126 107.364 23.8765 107.535 24.2183C107.706 24.5601 107.926 24.8896 108.194 25.207C107.877 25.4023 107.584 25.5488 107.315 25.6465C107.047 25.7441 106.815 25.8174 106.62 25.8662C106.375 25.9395 106.156 25.9761 105.96 25.9761C105.594 25.9761 105.277 25.8052 105.008 25.4634C104.74 25.0972 104.52 24.6333 104.349 24.0718C104.203 23.5103 104.081 22.8877 103.983 22.2041C103.91 21.4961 103.873 20.8003 103.873 20.1167C103.873 19.3843 103.897 18.542 103.946 17.5898C103.995 16.6133 104.044 15.5879 104.093 14.5137C104.166 13.415 104.239 12.2798 104.312 11.1079C104.386 9.91162 104.447 8.72754 104.496 7.55566C104.544 6.65234 104.593 5.83447 104.642 5.10205C104.691 4.46729 104.728 3.89355 104.752 3.38086C104.776 2.84375 104.764 2.52637 104.715 2.42871C104.862 2.2334 105.045 2.08691 105.265 1.98926C105.484 1.8916 105.692 1.80615 105.887 1.73291C106.131 1.65967 106.375 1.59863 106.62 1.5498H107.315C107.511 1.5498 107.718 1.57422 107.938 1.62305C108.158 1.64746 108.341 1.69629 108.487 1.76953ZM120.792 23.6323C120.841 23.8032 120.914 23.9619 121.012 24.1084C121.085 24.2305 121.183 24.3525 121.305 24.4746C121.451 24.5723 121.622 24.6333 121.817 24.6577C121.646 24.9995 121.476 25.2314 121.305 25.3535C121.207 25.4268 121.122 25.4756 121.048 25.5C120.829 25.5732 120.499 25.6099 120.06 25.6099C119.62 25.6099 119.193 25.4756 118.778 25.207C118.631 25.085 118.497 24.9019 118.375 24.6577C118.253 24.4624 118.143 24.1938 118.045 23.8521C117.972 23.4858 117.911 23.022 117.862 22.4604C117.521 23.1929 117.13 23.7788 116.69 24.2183C116.275 24.6333 115.86 24.9385 115.445 25.1338C114.981 25.4023 114.505 25.561 114.017 25.6099C113.407 25.6587 112.821 25.561 112.259 25.3169C111.722 25.0483 111.258 24.6577 110.868 24.145C110.501 23.6079 110.221 22.9609 110.025 22.2041C109.83 21.4473 109.769 20.5928 109.842 19.6406C109.916 18.6396 110.111 17.7485 110.428 16.9673C110.746 16.186 111.124 15.4902 111.563 14.8799C112.003 14.2695 112.467 13.7568 112.955 13.3418C113.443 12.9023 113.907 12.5483 114.347 12.2798C114.811 11.9868 115.201 11.7793 115.519 11.6572C115.86 11.5107 116.08 11.4253 116.178 11.4009C116.446 11.3276 116.678 11.3032 116.874 11.3276C117.069 11.3521 117.24 11.4619 117.386 11.6572C117.435 11.7305 117.496 11.8159 117.569 11.9136C117.618 12.0112 117.679 12.1455 117.752 12.3164C117.826 12.4629 117.887 12.6338 117.936 12.8291C117.35 13.0977 116.8 13.4028 116.288 13.7446C115.775 14.062 115.299 14.4526 114.859 14.9165C114.444 15.3804 114.078 15.9419 113.761 16.6011C113.443 17.2603 113.199 18.0659 113.028 19.0181C112.784 20.2144 112.845 21.1787 113.211 21.9111C113.602 22.6436 114.127 22.9487 114.786 22.8267C115.177 22.7046 115.555 22.4727 115.921 22.1309C116.239 21.8379 116.568 21.3984 116.91 20.8125C117.276 20.2266 117.618 19.4209 117.936 18.3955C118.058 16.9307 118.155 15.7832 118.229 14.9531C118.326 14.0986 118.412 13.4517 118.485 13.0122C118.583 12.4995 118.656 12.1577 118.705 11.9868C118.778 11.8647 118.924 11.7549 119.144 11.6572C119.364 11.5352 119.608 11.4375 119.876 11.3643C120.145 11.291 120.389 11.2544 120.609 11.2544C120.829 11.23 120.975 11.23 121.048 11.2544C121.097 11.2788 121.122 11.584 121.122 12.1699C121.122 12.7314 121.097 13.4517 121.048 14.3306C121.024 15.1851 120.987 16.125 120.938 17.1504C120.89 18.1514 120.841 19.1035 120.792 20.0068C120.768 20.9102 120.743 21.7036 120.719 22.3872C120.719 23.0464 120.743 23.4614 120.792 23.6323ZM137.711 9.20361C137.442 9.15479 137.076 9.10596 136.612 9.05713C136.173 9.0083 135.721 8.97168 135.257 8.94727C134.72 8.92285 134.146 8.91064 133.536 8.91064C132.926 8.86182 132.157 8.86182 131.229 8.91064C130.326 8.93506 129.374 8.94727 128.373 8.94727C128.348 9.58203 128.299 10.229 128.226 10.8882C128.177 11.5474 128.128 12.1943 128.08 12.8291C127.958 14.001 127.848 15.1973 127.75 16.418C127.677 17.6387 127.64 18.7983 127.64 19.897C127.64 20.9956 127.701 21.9966 127.823 22.8999C127.97 23.7788 128.226 24.4746 128.592 24.9873C128.299 25.207 127.982 25.3779 127.64 25.5C127.298 25.5977 126.993 25.6709 126.725 25.7197C126.407 25.793 126.09 25.8296 125.772 25.8296C125.479 25.8296 125.235 25.7319 125.04 25.5366C124.845 25.3413 124.735 24.9995 124.71 24.5112C124.662 23.6812 124.649 22.8511 124.674 22.021C124.723 21.1665 124.771 20.2754 124.82 19.3477C124.894 18.4199 124.967 17.4312 125.04 16.3813C125.113 15.3071 125.187 14.1353 125.26 12.8657C125.333 11.5474 125.37 10.2656 125.37 9.02051C124.442 9.04492 123.661 9.05713 123.026 9.05713C122.391 9.05713 122.037 9.04492 121.964 9.02051C121.891 8.97168 121.805 8.86182 121.708 8.69092C121.61 8.54443 121.488 8.32471 121.341 8.03174C121.17 7.73877 120.963 7.32373 120.719 6.78662C121.183 6.78662 121.695 6.78662 122.257 6.78662C122.794 6.78662 123.294 6.77441 123.758 6.75C124.295 6.72559 124.833 6.70117 125.37 6.67676C125.345 6.28613 125.333 5.87109 125.333 5.43164C125.309 5.08984 125.296 4.71143 125.296 4.29639C125.296 3.85693 125.284 3.4541 125.26 3.08789C125.26 2.94141 125.431 2.77051 125.772 2.5752C126.139 2.35547 126.529 2.16016 126.944 1.98926C127.359 1.81836 127.738 1.7085 128.08 1.65967C128.446 1.61084 128.629 1.69629 128.629 1.91602C128.629 2.13574 128.617 2.67285 128.592 3.52734C128.592 4.35742 128.568 5.37061 128.519 6.56689C128.763 6.56689 128.946 6.55469 129.068 6.53027C130.362 6.48145 131.4 6.43262 132.181 6.38379C132.987 6.31055 133.646 6.29834 134.159 6.34717C134.671 6.396 135.123 6.51807 135.514 6.71338C135.904 6.90869 136.344 7.22607 136.832 7.66553C137.003 7.81201 137.149 7.9707 137.271 8.1416C137.394 8.28809 137.491 8.45898 137.564 8.6543C137.662 8.8252 137.711 9.0083 137.711 9.20361ZM131.778 12.5361C131.778 12.3896 131.974 12.231 132.364 12.0601C132.755 11.8892 133.182 11.7549 133.646 11.6572C134.134 11.5352 134.574 11.4741 134.964 11.4741C135.379 11.4497 135.587 11.5352 135.587 11.7305C135.587 12.0967 135.562 12.6216 135.514 13.3052C135.465 13.9644 135.404 14.6724 135.331 15.4292C135.257 16.1616 135.184 16.9062 135.111 17.6631C135.038 18.3955 134.989 19.0181 134.964 19.5308C134.916 20.0679 134.867 20.6538 134.818 21.2886C134.769 21.8257 134.732 22.4238 134.708 23.083C134.684 23.7422 134.684 24.4136 134.708 25.0972C134.708 25.2192 134.586 25.3413 134.342 25.4634C134.098 25.5854 133.829 25.6709 133.536 25.7197C133.243 25.793 132.962 25.8296 132.694 25.8296C132.425 25.8296 132.279 25.7808 132.254 25.6831C132.206 25.5854 132.157 25.4146 132.108 25.1704C132.059 24.9263 132.01 24.5845 131.961 24.145C131.913 23.6812 131.876 23.0952 131.852 22.3872C131.827 21.6548 131.839 20.7759 131.888 19.7505C131.986 17.7241 131.998 16.1616 131.925 15.063C131.852 13.9399 131.803 13.0977 131.778 12.5361ZM134.342 5.24854C134.83 5.24854 135.294 5.39502 135.733 5.68799C136.173 5.98096 136.393 6.37158 136.393 6.85986C136.393 7.22607 136.295 7.58008 136.1 7.92188C135.929 8.26367 135.709 8.56885 135.44 8.8374C135.172 9.10596 134.867 9.32568 134.525 9.49658C134.183 9.64307 133.866 9.71631 133.573 9.71631C133.182 9.71631 132.865 9.65527 132.621 9.5332C132.376 9.38672 132.181 9.22803 132.035 9.05713C131.913 8.86182 131.827 8.6543 131.778 8.43457C131.729 8.21484 131.705 8.00732 131.705 7.81201C131.705 7.56787 131.742 7.29932 131.815 7.00635C131.888 6.68896 132.022 6.4082 132.218 6.16406C132.413 5.89551 132.682 5.67578 133.023 5.50488C133.365 5.33398 133.805 5.24854 134.342 5.24854ZM133.426 8.6543C133.573 8.6543 133.731 8.60547 133.902 8.50781C134.098 8.38574 134.269 8.25146 134.415 8.10498C134.586 7.9585 134.72 7.7998 134.818 7.62891C134.94 7.45801 135.001 7.31152 135.001 7.18945C135.001 6.99414 134.903 6.89648 134.708 6.89648C134.586 6.89648 134.427 6.94531 134.232 7.04297C134.061 7.14062 133.89 7.2627 133.719 7.40918C133.548 7.53125 133.402 7.67773 133.28 7.84863C133.182 7.99512 133.133 8.1416 133.133 8.28809C133.133 8.53223 133.231 8.6543 133.426 8.6543ZM148.221 19.2012C148.172 20.1533 148.001 21.0322 147.708 21.8379C147.44 22.6436 147.062 23.3516 146.573 23.9619C146.085 24.5479 145.499 25.0117 144.815 25.3535C144.156 25.6953 143.424 25.8784 142.618 25.9028C141.91 25.9272 141.239 25.7563 140.604 25.3901C139.994 25.0239 139.457 24.5112 138.993 23.8521C138.529 23.1929 138.175 22.4116 137.931 21.5083C137.711 20.5806 137.65 19.5796 137.748 18.5054C137.821 17.2603 138.053 16.1982 138.443 15.3193C138.834 14.416 139.249 13.6714 139.688 13.0854C140.128 12.4995 140.531 12.0723 140.897 11.8037C141.288 11.5107 141.532 11.3398 141.629 11.291C141.8 11.2178 141.959 11.2056 142.105 11.2544C142.252 11.2788 142.411 11.3154 142.582 11.3643C142.63 11.3887 142.679 11.4497 142.728 11.5474C142.826 11.7183 142.887 12.0356 142.911 12.4995C143.033 12.231 143.192 12.0112 143.387 11.8403C143.583 11.6694 143.778 11.5474 143.973 11.4741C144.217 11.3765 144.461 11.3154 144.706 11.291C144.876 11.2666 145.169 11.4009 145.584 11.6938C146.024 11.9868 146.439 12.4507 146.83 13.0854C147.245 13.7202 147.599 14.5503 147.892 15.5757C148.185 16.5767 148.294 17.7852 148.221 19.2012ZM145.731 18.7617C145.755 18.1758 145.731 17.5898 145.658 17.0039C145.609 16.3936 145.511 15.8442 145.365 15.356C145.243 14.8433 145.084 14.4404 144.889 14.1475C144.693 13.8301 144.498 13.6714 144.303 13.6714C144.083 13.7202 143.839 13.8301 143.57 14.001C143.351 14.1475 143.106 14.3794 142.838 14.6968C142.569 15.0142 142.313 15.4658 142.069 16.0518C142.044 15.9785 142.02 15.8442 141.996 15.6489C141.971 15.478 141.947 15.2583 141.922 14.9897C141.922 14.6968 141.947 14.3062 141.996 13.8179C141.654 14.2329 141.385 14.7212 141.19 15.2827C141.019 15.8442 140.885 16.3813 140.787 16.894C140.689 17.5044 140.616 18.1147 140.567 18.7251C140.543 19.3843 140.567 20.0312 140.641 20.666C140.738 21.3008 140.885 21.8623 141.08 22.3506C141.3 22.8389 141.556 23.2295 141.849 23.5225C142.142 23.8154 142.496 23.9497 142.911 23.9253C143.326 23.9009 143.692 23.73 144.01 23.4126C144.327 23.0952 144.608 22.6924 144.852 22.2041C145.096 21.7158 145.292 21.1665 145.438 20.5562C145.584 19.9458 145.682 19.3477 145.731 18.7617ZM154.007 24.5112C153.983 24.6577 153.849 24.8164 153.604 24.9873C153.385 25.1338 153.116 25.2681 152.799 25.3901C152.506 25.5122 152.225 25.5854 151.957 25.6099C151.688 25.6587 151.505 25.6343 151.407 25.5366C151.31 25.439 151.151 25.2559 150.931 24.9873C150.711 24.7188 150.577 24.2793 150.528 23.6689C150.479 23.0342 150.455 22.2407 150.455 21.2886C150.455 20.312 150.443 19.2378 150.418 18.0659V16.6011C150.418 16.1616 150.406 15.6489 150.382 15.063C150.382 14.4771 150.37 13.8667 150.345 13.2319C150.565 13.1099 150.785 13 151.004 12.9023C151.249 12.7803 151.468 12.6826 151.664 12.6094C151.883 12.5117 152.091 12.4385 152.286 12.3896C152.799 12.2432 153.189 12.1577 153.458 12.1333C153.727 12.1089 153.885 12.1943 153.934 12.3896C153.958 12.5361 153.946 12.8901 153.897 13.4517C153.849 13.9399 153.788 14.6846 153.714 15.6855C153.641 16.6621 153.519 18.0293 153.348 19.7871C153.666 19.0059 153.922 18.3345 154.117 17.7729C154.337 17.2114 154.52 16.7598 154.667 16.418C154.813 16.0029 154.947 15.6733 155.069 15.4292C155.191 15.1118 155.35 14.7578 155.545 14.3672C155.741 13.9766 155.936 13.6104 156.131 13.2686C156.351 12.9268 156.546 12.6216 156.717 12.353C156.913 12.0845 157.059 11.9258 157.157 11.877C157.23 11.8281 157.45 11.8281 157.816 11.877C158.182 11.9258 158.573 12.0479 158.988 12.2432C159.403 12.4141 159.806 12.6704 160.196 13.0122C160.587 13.3296 160.843 13.7202 160.965 14.1841C161.112 14.7212 161.161 15.4292 161.112 16.3081C161.087 17.187 161.026 18.0903 160.929 19.0181C160.855 19.9458 160.794 20.8247 160.746 21.6548C160.697 22.4849 160.746 23.1196 160.892 23.5591C160.941 23.8032 161.014 24.0229 161.112 24.2183C161.161 24.4136 161.222 24.5967 161.295 24.7676C161.393 24.9141 161.49 25.0239 161.588 25.0972C161.002 25.3657 160.526 25.561 160.16 25.6831C159.793 25.8052 159.513 25.8906 159.317 25.9395C159.073 26.0127 158.902 26.0371 158.805 26.0127C158.585 25.9395 158.39 25.7563 158.219 25.4634C158.072 25.1704 157.938 24.7065 157.816 24.0718C157.767 23.8765 157.743 23.5591 157.743 23.1196C157.767 22.6558 157.804 22.1431 157.853 21.5815C157.901 20.9956 157.95 20.3975 157.999 19.7871C158.072 19.1523 158.121 18.5664 158.146 18.0293C158.194 17.4678 158.231 16.9917 158.255 16.6011C158.28 16.186 158.28 15.9053 158.255 15.7588C158.133 15.3193 157.962 15.0142 157.743 14.8433C157.523 14.6479 157.352 14.6235 157.23 14.77C156.913 15.1362 156.571 15.7344 156.205 16.5645C155.863 17.3701 155.533 18.2612 155.216 19.2378C154.898 20.1899 154.63 21.1421 154.41 22.0942C154.19 23.0464 154.056 23.8521 154.007 24.5112ZM169.498 18.542C170.035 18.7373 170.548 18.9204 171.036 19.0913C171.524 19.2622 171.952 19.4697 172.318 19.7139C172.684 19.958 172.977 20.251 173.197 20.5928C173.417 20.9102 173.526 21.313 173.526 21.8013C173.526 22.3872 173.392 22.9365 173.124 23.4492C172.879 23.9619 172.513 24.4136 172.025 24.8042C171.537 25.1948 170.938 25.5 170.23 25.7197C169.547 25.9639 168.778 26.0859 167.923 26.0859C166.971 26.0859 166.202 25.9883 165.616 25.793C165.03 25.6221 164.579 25.4146 164.261 25.1704C163.944 24.9263 163.736 24.6821 163.639 24.438C163.541 24.1938 163.492 23.9985 163.492 23.8521C163.492 23.5591 163.553 23.2417 163.675 22.8999C163.797 22.5337 164.029 22.1431 164.371 21.728C164.518 21.5571 164.676 21.3984 164.847 21.252C165.189 20.959 165.531 20.7759 165.873 20.7026C165.824 21.2642 165.885 21.728 166.056 22.0942C166.251 22.436 166.495 22.7046 166.788 22.8999C167.105 23.0952 167.447 23.2295 167.813 23.3027C168.204 23.376 168.57 23.4126 168.912 23.4126C169.254 23.4126 169.596 23.3638 169.938 23.2661C170.304 23.1685 170.633 23.0464 170.926 22.8999C171.219 22.729 171.451 22.5459 171.622 22.3506C171.817 22.1309 171.915 21.8989 171.915 21.6548C171.915 21.3862 171.805 21.1665 171.585 20.9956C171.366 20.8247 171.085 20.6904 170.743 20.5928C170.426 20.4707 170.072 20.3853 169.681 20.3364C169.315 20.2632 168.961 20.1899 168.619 20.1167C168.277 20.0435 167.813 19.9458 167.228 19.8237C166.666 19.6772 166.104 19.4575 165.543 19.1646C165.006 18.8716 164.53 18.481 164.115 17.9927C163.724 17.5044 163.529 16.8574 163.529 16.0518C163.529 15.124 163.761 14.3184 164.225 13.6348C164.713 12.9268 165.299 12.3408 165.982 11.877C166.69 11.3887 167.435 11.0225 168.216 10.7783C168.998 10.5342 169.693 10.4121 170.304 10.4121C170.621 10.4121 170.963 10.4609 171.329 10.5586C171.695 10.6318 172.037 10.7783 172.354 10.998C172.672 11.1934 172.928 11.4619 173.124 11.8037C173.343 12.1455 173.453 12.585 173.453 13.1221C173.453 13.6592 173.404 14.0986 173.307 14.4404C173.233 14.7578 173.111 15.0142 172.94 15.2095C172.794 15.3804 172.611 15.4902 172.391 15.5391C172.171 15.5879 171.915 15.6123 171.622 15.6123C171.427 15.6123 171.244 15.5879 171.073 15.5391C170.926 15.4902 170.768 15.4414 170.597 15.3926C170.426 15.3438 170.267 15.2583 170.121 15.1362C170.365 14.8433 170.548 14.5625 170.67 14.2939C170.816 14.0254 170.89 13.6958 170.89 13.3052C170.89 12.9634 170.792 12.6582 170.597 12.3896C170.426 12.1211 170.133 11.9868 169.718 11.9868C169.278 11.9868 168.851 12.0723 168.436 12.2432C168.045 12.4141 167.691 12.646 167.374 12.939C167.081 13.2319 166.837 13.5737 166.642 13.9644C166.471 14.3306 166.385 14.7334 166.385 15.1729C166.385 15.832 166.629 16.4546 167.118 17.0405C167.63 17.6265 168.424 18.127 169.498 18.542ZM176.529 22.6069C176.358 21.2642 176.212 20.0312 176.09 18.9082C175.992 17.7852 175.919 16.833 175.87 16.0518C175.797 15.124 175.748 14.2939 175.724 13.5615C175.65 12.6582 175.589 11.7427 175.541 10.8149C175.492 9.88721 175.455 8.99609 175.431 8.1416C175.431 7.28711 175.431 6.48145 175.431 5.72461C175.455 4.94336 175.479 4.25977 175.504 3.67383C175.528 3.08789 175.748 2.62402 176.163 2.28223C176.603 1.91602 177.066 1.65967 177.555 1.51318C178.067 1.34229 178.531 1.26904 178.946 1.29346C179.386 1.29346 179.605 1.3667 179.605 1.51318C179.63 2.09912 179.63 2.86816 179.605 3.82031C179.605 4.74805 179.593 5.66357 179.569 6.56689C179.544 7.6167 179.508 8.71533 179.459 9.86279C179.41 11.0591 179.337 12.3408 179.239 13.708C179.166 14.8799 179.081 16.2349 178.983 17.7729C178.885 19.311 178.763 20.9468 178.617 22.6802C178.519 22.8022 178.409 22.8999 178.287 22.9731C178.189 23.022 178.092 23.0708 177.994 23.1196C177.872 23.1685 177.75 23.1929 177.628 23.1929C177.481 23.1929 177.347 23.1685 177.225 23.1196C176.957 23.022 176.725 22.8511 176.529 22.6069ZM178.653 24.2915C179.117 24.2915 179.508 24.4258 179.825 24.6943C180.143 24.9629 180.301 25.3413 180.301 25.8296C180.301 26.1226 180.24 26.4277 180.118 26.7451C179.996 27.0869 179.801 27.3921 179.532 27.6606C179.288 27.9536 178.971 28.1855 178.58 28.3564C178.189 28.5518 177.713 28.6494 177.152 28.6494C176.664 28.6494 176.285 28.5029 176.017 28.21C175.772 27.917 175.65 27.5508 175.65 27.1113C175.65 26.3789 175.931 25.7319 176.493 25.1704C177.079 24.5845 177.799 24.2915 178.653 24.2915Z" fill="#FB8308"/>
</svg>
