<svg width="28" height="28" viewBox="0 0 28 28" fill="none" xmlns="http://www.w3.org/2000/svg">
<rect x="0.949219" y="0.474609" width="27" height="27" rx="13.5" fill="#7649B3"/>
<path fill-rule="evenodd" clip-rule="evenodd" d="M18.7994 10.4272C19.0036 10.4272 19.1736 10.5967 19.1736 10.8125V11.012C19.1736 11.2225 19.0036 11.3974 18.7994 11.3974H10.0984C9.89366 11.3974 9.72363 11.2225 9.72363 11.012V10.8125C9.72363 10.5967 9.89366 10.4272 10.0984 10.4272H11.6292C11.9401 10.4272 12.2107 10.2061 12.2807 9.8943L12.3608 9.53625C12.4854 9.04853 12.8954 8.72461 13.3647 8.72461H15.5326C15.9967 8.72461 16.4113 9.04853 16.5313 9.51053L16.6171 9.89377C16.6865 10.2061 16.9572 10.4272 17.2686 10.4272H18.7994ZM18.0214 17.7196C18.1812 16.2302 18.4611 12.6917 18.4611 12.656C18.4713 12.5479 18.436 12.4455 18.3661 12.3631C18.291 12.2859 18.1961 12.2402 18.0914 12.2402H10.8093C10.7042 12.2402 10.6041 12.2859 10.5346 12.3631C10.4642 12.4455 10.4295 12.5479 10.4346 12.656C10.4355 12.6626 10.4456 12.7872 10.4623 12.9956C10.5369 13.9213 10.7446 16.4996 10.8788 17.7196C10.9738 18.6184 11.5635 19.1833 12.4177 19.2038C13.0769 19.219 13.756 19.2242 14.4504 19.2242C15.1044 19.2242 15.7687 19.219 16.4483 19.2038C17.3321 19.1885 17.9214 18.6336 18.0214 17.7196Z" fill="white"/>
</svg>
