<svg width="28" height="28" viewBox="0 0 28 28" fill="none" xmlns="http://www.w3.org/2000/svg">
<rect x="0.699219" y="0.474609" width="27" height="27" rx="13.5" fill="#7649B3"/>
<path d="M19.0325 12.445L12.765 18.731C12.4391 19.0477 12.0107 19.2246 11.5637 19.2246H9.3752C9.25413 19.2246 9.14238 19.178 9.05857 19.0942C8.97475 19.0104 8.9375 18.8987 8.9375 18.7776L8.99338 16.5705C9.00269 16.1328 9.17963 15.7231 9.48695 15.4157L13.9291 10.9736C14.0036 10.8991 14.134 10.8991 14.2085 10.9736L15.7637 12.5195C15.8662 12.6219 16.0152 12.6871 16.1735 12.6871C16.518 12.6871 16.7881 12.4078 16.7881 12.0725C16.7881 11.9049 16.7229 11.7559 16.6205 11.6441C16.5926 11.6069 15.1118 10.1355 15.1118 10.1355C15.0187 10.0423 15.0187 9.88403 15.1118 9.79091L15.7358 9.15765C16.3132 8.58026 17.2444 8.58026 17.8218 9.15765L19.0325 10.3683C19.6006 10.9364 19.6006 11.8676 19.0325 12.445Z" fill="white"/>
</svg>
