<svg width="19" height="13" viewBox="0 0 19 13" fill="none" xmlns="http://www.w3.org/2000/svg">
<path fill-rule="evenodd" clip-rule="evenodd" d="M5.5697 6.37498C5.5697 4.41177 7.16693 2.81451 9.13019 2.81451C11.0934 2.81451 12.6906 4.41177 12.6906 6.37498C12.6906 8.33817 11.0934 9.93542 9.13019 9.93542C7.16693 9.93542 5.5697 8.33817 5.5697 6.37498ZM6.7565 6.37498C6.7565 7.68382 7.82126 8.7486 9.13019 8.7486C10.439 8.7486 11.5038 7.68382 11.5038 6.37498C11.5038 5.06614 10.439 4.00136 9.13019 4.00136C7.82135 4.00136 6.7565 5.06614 6.7565 6.37498Z" fill="white"/>
<path fill-rule="evenodd" clip-rule="evenodd" d="M9.13028 0.638672C14.0237 0.638672 17.8552 5.80486 18.0159 6.02483C18.1685 6.2333 18.1685 6.51656 18.0159 6.72521C17.8552 6.94498 14.0237 12.1112 9.13028 12.1112C4.23688 12.1112 0.405212 6.94501 0.244629 6.72505C0.0922852 6.51636 0.0922852 6.23332 0.244629 6.02463C0.405212 5.80486 4.23688 0.638672 9.13028 0.638672ZM1.47968 6.37454C2.40381 7.49549 5.52576 10.9244 9.13028 10.9244C12.7426 10.9244 15.8579 7.49725 16.7809 6.37534C15.8564 5.25378 12.7346 1.82547 9.13028 1.82547C5.51797 1.82547 2.40262 5.25259 1.47968 6.37454Z" fill="white"/>
</svg>
