<svg width="114" height="114" viewBox="0 0 114 114" fill="none" xmlns="http://www.w3.org/2000/svg">
<circle cx="57.0625" cy="56.875" r="56.25" fill="#EF1D26"/>
<path d="M82.805 49.9944L82.2431 49.6712V50.3194V52.8861V53.104L82.4324 53.2119L82.9759 53.5217L81.8819 54.1541V26.875V26.5H81.5069H32.6181H32.2431V26.875V54.1552L31.6951 53.8395L31.6941 53.839L31.1481 53.5223L31.6926 53.2119L31.8819 53.104V52.8861V50.3194V49.6712L31.32 49.9944L29.0978 51.2721L26.8756 52.5499L26.6875 52.6581V52.875V86.875V87.25H27.0625H87.0625H87.4375V86.875V52.875V52.6581L87.2494 52.5499L85.0272 51.2721L82.805 49.9944ZM56.8753 71.7714L57.0625 71.8792L57.2497 71.7714L64.4373 67.63L82.1969 84.2778H31.9285L49.688 67.6303L56.8753 71.7714ZM35.2153 29.4722H78.9097V55.8607L57.0625 68.4485L35.2153 55.8607V29.4722ZM29.6597 56.0905L46.9963 66.0794L29.6597 82.3305V56.0905ZM84.4653 56.0905V82.331L67.1284 66.0795L84.4653 56.0905Z" fill="white" stroke="white" stroke-width="0.75"/>
<circle cx="56.4385" cy="46.375" r="10.125" fill="white"/>
<path d="M57.859 50.6087C57.859 50.9977 57.7244 51.3268 57.4551 51.5961C57.1858 51.8654 56.8517 52 56.4528 52C56.0638 52 55.7347 51.8654 55.4654 51.5961C55.1961 51.3268 55.0615 50.9977 55.0615 50.6087C55.0615 50.2098 55.1961 49.8757 55.4654 49.6064C55.7347 49.3371 56.0638 49.2025 56.4528 49.2025C56.8517 49.2025 57.1858 49.3371 57.4551 49.6064C57.7244 49.8757 57.859 50.2098 57.859 50.6087ZM55.3158 48.2301L55.0166 40.75H57.7842L57.485 48.2301H55.3158Z" fill="#EF1D26"/>
</svg>
