<svg width="37" height="37" viewBox="0 0 37 37" fill="none" xmlns="http://www.w3.org/2000/svg">
<path d="M36.9492 0.0996094H7.54078C5.11469 0.0996094 3.90165 0.0996094 2.99212 0.608973C2.34931 0.968963 1.81857 1.4997 1.45858 2.14251C0.949219 3.05204 0.949219 4.26509 0.949219 6.69117V29.508C0.949219 31.9341 0.949219 33.1472 1.45858 34.0567C1.81857 34.6995 2.34931 35.2303 2.99212 35.5902C3.90165 36.0996 5.11469 36.0996 7.54078 36.0996H36.9492V0.0996094Z" fill="#1F1216"/>
<path d="M24.2067 21.5771C24.2067 22.3571 24.0042 23.0921 23.5992 23.7821C23.2092 24.4571 22.6242 25.0196 21.8442 25.4696C21.0792 25.9046 20.1717 26.1596 19.1217 26.2346V28.0571H17.6817V26.2121C16.1817 26.0771 14.9742 25.6271 14.0592 24.8621C13.1442 24.0821 12.6717 23.0321 12.6417 21.7121H16.0167C16.1067 22.7921 16.6617 23.4446 17.6817 23.6696V19.3721C16.6017 19.1021 15.7317 18.8321 15.0717 18.5621C14.4117 18.2921 13.8417 17.8571 13.3617 17.2571C12.8817 16.6571 12.6417 15.8396 12.6417 14.8046C12.6417 13.4996 13.1067 12.4346 14.0367 11.6096C14.9817 10.7846 16.1967 10.3121 17.6817 10.1921V8.36961H19.1217V10.1921C20.5617 10.3121 21.7092 10.7471 22.5642 11.4971C23.4342 12.2471 23.9217 13.2821 24.0267 14.6021H20.6292C20.5842 14.1671 20.4267 13.7921 20.1567 13.4771C19.9017 13.1471 19.5567 12.9146 19.1217 12.7796V17.0321C20.2467 17.3171 21.1317 17.5946 21.7767 17.8646C22.4367 18.1196 23.0067 18.5471 23.4867 19.1471C23.9667 19.7321 24.2067 20.5421 24.2067 21.5771ZM15.9267 14.6471C15.9267 15.1421 16.0767 15.5471 16.3767 15.8621C16.6767 16.1621 17.1117 16.4096 17.6817 16.6046V12.7121C17.1417 12.7871 16.7142 12.9896 16.3992 13.3196C16.0842 13.6496 15.9267 14.0921 15.9267 14.6471ZM19.1217 23.7146C19.6917 23.6096 20.1342 23.3771 20.4492 23.0171C20.7792 22.6571 20.9442 22.2221 20.9442 21.7121C20.9442 21.2171 20.7867 20.8196 20.4717 20.5196C20.1567 20.2196 19.7067 19.9721 19.1217 19.7771V23.7146Z" fill="white"/>
</svg>
