<svg width="114" height="113" viewBox="0 0 114 113" fill="none" xmlns="http://www.w3.org/2000/svg">
<circle cx="57" cy="56.25" r="56.25" fill="#09D260"/>
<path d="M82.7425 49.3694L82.1806 49.0462V49.6944V52.2611V52.479L82.3699 52.5869L82.9134 52.8967L81.8194 53.5291V26.25V25.875H81.4444H32.5556H32.1806V26.25V53.5302L31.6326 53.2145L31.6316 53.214L31.0856 52.8973L31.6301 52.5869L31.8194 52.479V52.2611V49.6944V49.0462L31.2575 49.3694L29.0353 50.6471L26.8131 51.9249L26.625 52.0331V52.25V86.25V86.625H27H87H87.375V86.25V52.25V52.0331L87.1869 51.9249L84.9647 50.6471L82.7425 49.3694ZM56.8128 71.1464L57 71.2542L57.1872 71.1464L64.3748 67.005L82.1344 83.6528H31.866L49.6255 67.0053L56.8128 71.1464ZM35.1528 28.8472H78.8472V55.2357L57 67.8235L35.1528 55.2357V28.8472ZM29.5972 55.4655L46.9338 65.4544L29.5972 81.7055V55.4655ZM84.4028 55.4655V81.706L67.0659 65.4545L84.4028 55.4655Z" fill="white" stroke="white" stroke-width="0.75"/>
<circle cx="56.376" cy="45.75" r="10.125" fill="white"/>
<path d="M55.8252 49.6965C55.5719 49.9497 55.2285 50.0919 54.8704 50.0919C54.5123 50.0919 54.1688 49.9497 53.9156 49.6965L50.9571 46.738C50.8287 46.6133 50.7263 46.4643 50.656 46.2997C50.5856 46.1351 50.5487 45.9581 50.5474 45.7791C50.5461 45.6001 50.5804 45.4226 50.6483 45.2569C50.7162 45.0913 50.8163 44.9408 50.9429 44.8142C51.0695 44.6876 51.22 44.5874 51.3856 44.5195C51.5513 44.4516 51.7288 44.4173 51.9078 44.4187C52.0868 44.42 52.2638 44.4569 52.4284 44.5272C52.5931 44.5976 52.7421 44.7 52.8668 44.8284L54.6295 46.5911C54.6936 46.6549 54.7803 46.6907 54.8707 46.6907C54.9611 46.6907 55.0478 46.6549 55.1119 46.5911L59.885 41.818C60.0098 41.6895 60.1588 41.5872 60.3234 41.5168C60.488 41.4465 60.665 41.4096 60.844 41.4082C61.023 41.4069 61.2005 41.4412 61.3662 41.5091C61.5318 41.577 61.6823 41.6772 61.8089 41.8037C61.9355 41.9303 62.0357 42.0808 62.1036 42.2465C62.1715 42.4121 62.2058 42.5896 62.2044 42.7687C62.2031 42.9477 62.1662 43.1247 62.0959 43.2893C62.0255 43.4539 61.9231 43.6029 61.7947 43.7276L55.8252 49.6965Z" fill="#09D260"/>
</svg>
