<svg width="29" height="26" viewBox="0 0 29 26" fill="none" xmlns="http://www.w3.org/2000/svg">
<path d="M8.4512 24.2535H4.58048C3.89609 24.2535 3.23974 24.0191 2.75581 23.6017C2.27187 23.1844 2 22.6184 2 22.0282V14.2394C2 13.6492 2.27187 13.0832 2.75581 12.6659C3.23974 12.2485 3.89609 12.0141 4.58048 12.0141H8.4512M17.4829 9.78873V5.33803C17.4829 4.45273 17.0751 3.60369 16.3492 2.97769C15.6233 2.35168 14.6387 2 13.6122 2L8.4512 12.0141V24.2535H23.0051C23.6274 24.2596 24.2313 24.0715 24.7055 23.7239C25.1797 23.3763 25.4923 22.8926 25.5856 22.362L27.3661 12.3479C27.4223 12.0289 27.3973 11.7033 27.293 11.3935C27.1887 11.0837 27.0076 10.7971 26.7621 10.5537C26.5167 10.3103 26.2128 10.1158 25.8715 9.98369C25.5302 9.8516 25.1597 9.78508 24.7856 9.78873H17.4829Z" stroke="black" stroke-width="2.63566" stroke-linecap="round" stroke-linejoin="round"/>
</svg>
