<svg width="57" height="57" viewBox="0 0 57 57" fill="none" xmlns="http://www.w3.org/2000/svg">
<rect x="0.457031" y="0.754883" width="55.925" height="55.925" rx="27.9625" fill="#CC1111" fill-opacity="0.960784"/>
<path d="M42.8962 43.862C42.8962 44.297 42.5544 44.6387 42.1194 44.6387H15.4308C14.9958 44.6387 14.6541 44.297 14.6541 43.862C14.6541 37.4306 20.9922 32.2109 28.7751 32.2109C30.3752 32.2109 31.9287 32.4284 33.3579 32.8478C32.4413 33.9353 31.8821 35.349 31.8821 36.8714C31.8821 38.0365 32.2083 39.1394 32.783 40.0715C33.0937 40.5997 33.4977 41.0812 33.9637 41.4851C35.0511 42.4793 36.4959 43.0852 38.0959 43.0852C39.8358 43.0852 41.4049 42.3706 42.5233 41.2211C42.7719 42.0599 42.8962 42.9454 42.8962 43.862Z" fill="white" fill-opacity="0.8"/>
<path d="M42.2506 33.1274L42.2506 33.1274C41.247 31.9844 39.7518 31.2696 38.0969 31.2696C36.5277 31.2696 35.0999 31.9135 34.0773 32.964L42.2506 33.1274ZM42.2506 33.1274L42.2559 33.1334M42.2506 33.1274L42.2559 33.1334M42.2559 33.1334C43.1535 34.1291 43.6985 35.4449 43.6985 36.8711C43.6985 37.3166 43.6429 37.7451 43.5328 38.1581L43.5297 38.1697L43.527 38.1814C43.4021 38.7366 43.1794 39.2791 42.8889 39.7495L42.8888 39.7494L42.8836 39.7582C41.918 41.3816 40.1412 42.4727 38.0969 42.4727C36.6553 42.4727 35.3566 41.9278 34.3779 41.033L34.3719 41.0275L34.3657 41.0221C33.9486 40.6606 33.5879 40.2301 33.3118 39.7608L33.312 39.7607M42.2559 33.1334L33.312 39.7607M33.312 39.7607L33.3053 39.7499M33.312 39.7607L33.3053 39.7499M33.3053 39.7499C32.7894 38.9133 32.4954 37.9214 32.4954 36.8711C32.4954 35.3579 33.0976 33.9719 34.0773 32.9641L33.3053 39.7499ZM39.8744 39.2169V38.6175H40.4272C41.4023 38.6175 42.2046 37.8151 42.2046 36.84C42.2046 35.8649 41.4023 35.0626 40.4272 35.0626H39.8744V34.572C39.8744 33.5969 39.0721 32.7946 38.0969 32.7946C37.1218 32.7946 36.3195 33.5969 36.3195 34.572V35.0626H35.7667C34.7916 35.0626 33.9893 35.8649 33.9893 36.84C33.9893 37.8151 34.7916 38.6175 35.7667 38.6175H36.3195V39.2169C36.3195 40.192 37.1218 40.9943 38.0969 40.9943C39.0721 40.9943 39.8744 40.192 39.8744 39.2169Z" fill="white" stroke="white" stroke-width="1.22468"/>
<path d="M35.6237 21.3367C35.6237 25.1192 32.5573 28.1856 28.7748 28.1856C24.9923 28.1856 21.926 25.1192 21.926 21.3367C21.926 17.5542 24.9923 14.4878 28.7748 14.4878C32.5573 14.4878 35.6237 17.5542 35.6237 21.3367Z" stroke="white" stroke-width="1.83702"/>
</svg>
