<svg width="30" height="23" viewBox="0 0 30 23" fill="none" xmlns="http://www.w3.org/2000/svg">
<path d="M18.7384 2.21187L18.7384 2.21189L18.7465 2.20877C18.9927 2.11275 19.272 2.16651 19.4261 2.28671L19.4285 2.28856L28.5854 9.39534L28.5871 9.39662C28.6382 9.43614 28.6614 9.4706 28.6713 9.48977C28.6807 9.50806 28.6823 9.52001 28.6823 9.52886C28.6823 9.53201 28.682 9.54312 28.6709 9.56464C28.6592 9.58712 28.6334 9.62428 28.5816 9.66537C28.5809 9.66589 28.5803 9.6664 28.5796 9.66692L19.4321 16.7664C19.4316 16.7667 19.4312 16.767 19.4308 16.7673C19.2749 16.8867 18.9942 16.9428 18.7349 16.8445L18.2677 18.0767L18.7349 16.8445C18.6225 16.8019 18.5588 16.7435 18.5282 16.7028C18.4987 16.6636 18.4981 16.6408 18.4981 16.6356V13.4771V12.1592H17.1803H11.6861C8.115 12.1592 4.87411 14.695 4.87411 18.2149C4.87411 19.3154 5.17721 20.1762 5.5754 20.8305C4.04915 19.7486 2.01558 17.6683 2.01558 14.2667C2.01558 10.3739 5.74544 6.89848 10.7704 6.89848H17.1803H18.4981V5.58065V2.42208V2.42201C18.4981 2.42031 18.4979 2.39782 18.5289 2.35681C18.5616 2.3135 18.6274 2.25432 18.7384 2.21187Z" stroke="black" stroke-width="2.63566"/>
</svg>
