<svg width="31" height="23" viewBox="0 0 31 23" fill="none" xmlns="http://www.w3.org/2000/svg">
<path d="M15.4628 22.9995C14.741 22.9995 13.875 22.7505 13.2976 22.2526C3.91506 15.1572 3.77072 15.0327 3.77072 14.9082L3.62637 14.7837C1.89421 13.2899 0.883789 11.1737 0.883789 9.05756V8.8086C1.02814 4.32727 5.21418 0.841797 10.4107 0.841797C11.9985 0.841797 14.1637 1.58868 15.4628 3.08246C16.7619 1.58868 19.0714 0.841797 20.6593 0.841797C25.8557 0.841797 29.8974 4.32727 30.1861 8.8086V9.05756C30.1861 11.2982 29.1757 13.2899 27.4435 14.9082L27.2992 15.0327C27.1548 15.1571 26.0001 16.0285 17.7723 22.3771C17.0506 22.7505 16.3289 22.9995 15.4628 22.9995ZM5.93592 14.5347C6.5133 15.0327 9.40023 16.7754 14.741 20.7588C15.1741 21.1323 15.7515 21.1323 16.1845 20.7588C21.6697 16.5264 24.8453 14.1613 25.567 13.6634L25.7114 13.5389C27.1548 12.2941 27.8766 10.6758 27.8766 9.05756V8.8086C27.7322 5.32312 24.5566 2.70902 20.5149 2.70902C19.5045 2.70902 17.4836 3.33142 16.7619 4.70072C16.4732 5.19864 15.8958 5.44761 15.3184 5.44761C14.7411 5.44761 14.1637 5.19864 13.875 4.70072C13.1532 3.4559 11.2767 2.70902 10.122 2.70902C6.22461 2.70902 2.90464 5.44761 2.76029 8.8086V9.18205C2.76029 10.8003 3.62637 12.4186 4.92549 13.5389L5.93592 14.5347Z" fill="black"/>
</svg>
