<svg width="26" height="26" viewBox="0 0 26 26" fill="none" xmlns="http://www.w3.org/2000/svg">
<rect x="1.25098" y="0.875" width="24" height="24" rx="3.24489" fill="#7649B3" stroke="#7649B3" stroke-width="1.5"/>
<path d="M19.5405 7.26559V15.7656C19.5405 16.6496 18.9795 17.3976 18.1805 17.6866C18.0615 17.7376 17.9255 17.7546 17.8065 17.7886C17.8235 17.6866 17.8405 17.5846 17.8405 17.4826V16.7346C18.2485 16.5816 18.5205 16.2076 18.5205 15.7826V7.26559C18.5205 6.70459 18.0615 6.24559 17.5005 6.24559H11.7204C11.2954 6.24559 10.9044 6.51759 10.7514 6.92559H10.0204C9.91845 6.92559 9.81645 6.94259 9.71445 6.95959C9.73145 6.84059 9.76545 6.72159 9.79945 6.60259C10.0714 5.80359 10.8364 5.22559 11.7204 5.22559H17.5005C18.6225 5.22559 19.5405 6.14359 19.5405 7.26559ZM16.8205 9.98559V18.4856C16.8205 18.7916 16.7525 19.0636 16.6335 19.3186C16.3105 20.0326 15.5965 20.5256 14.7804 20.5256H9.00045C7.87845 20.5256 6.96045 19.6076 6.96045 18.4856V9.98559C6.96045 9.15259 7.45345 8.45559 8.16745 8.13259C8.42245 8.01359 8.71145 7.94559 9.00045 7.94559H14.7804C15.9025 7.94559 16.8205 8.86359 16.8205 9.98559ZM15.8005 9.98559C15.8005 9.42459 15.3415 8.96559 14.7804 8.96559H9.00045C8.43945 8.96559 7.98045 9.42459 7.98045 9.98559V18.4856C7.98045 19.0466 8.43945 19.5056 9.00045 19.5056H14.7804C15.3415 19.5056 15.8005 19.0466 15.8005 18.4856V9.98559Z" fill="white" stroke="white" stroke-width="0.375"/>
</svg>
