<svg width="14" height="15" viewBox="0 0 14 15" fill="none" xmlns="http://www.w3.org/2000/svg">
<path fill-rule="evenodd" clip-rule="evenodd" d="M4.54375 14.3744H5.44371C5.62272 14.3744 5.79441 14.3033 5.92099 14.1767C6.04757 14.0501 6.11868 13.8785 6.11868 13.6994V1.54997C6.11868 1.37096 6.04757 1.19928 5.92099 1.07269C5.79441 0.946113 5.62272 0.875 5.44371 0.875H4.54375C4.36474 0.875 4.19306 0.946113 4.06647 1.07269C3.93989 1.19928 3.86878 1.37096 3.86878 1.54997V13.6994C3.86878 13.8785 3.93989 14.0501 4.06647 14.1767C4.19306 14.3033 4.36474 14.3744 4.54375 14.3744ZM12.3834 14.3745H11.4834C11.3044 14.3745 11.1327 14.3034 11.0062 14.1768C10.8796 14.0502 10.8085 13.8786 10.8085 13.6995V3.79997C10.8085 3.62096 10.8796 3.44928 11.0062 3.32269C11.1327 3.19611 11.3044 3.125 11.4834 3.125H12.3834C12.5624 3.125 12.7341 3.19611 12.8607 3.32269C12.9873 3.44928 13.0584 3.62096 13.0584 3.79997V13.6995C13.0584 13.8786 12.9873 14.0502 12.8607 14.1768C12.7341 14.3034 12.5624 14.3745 12.3834 14.3745ZM8.01359 14.3741H8.91355C9.09257 14.3741 9.26425 14.3029 9.39083 14.1764C9.51741 14.0498 9.58852 13.8781 9.58852 13.6991V6.94938C9.58852 6.77037 9.51741 6.59869 9.39083 6.47211C9.26425 6.34553 9.09257 6.27441 8.91355 6.27441H8.01359C7.83458 6.27441 7.6629 6.34553 7.53632 6.47211C7.40974 6.59869 7.33862 6.77037 7.33862 6.94938V13.6991C7.33862 13.8781 7.40974 14.0498 7.53632 14.1764C7.6629 14.3029 7.83458 14.3741 8.01359 14.3741ZM1.0739 14.3754H1.97386C2.15287 14.3754 2.32455 14.3042 2.45113 14.1777C2.57771 14.0511 2.64883 13.8794 2.64883 13.7004V9.65056C2.64883 9.47154 2.57771 9.29986 2.45113 9.17328C2.32455 9.0467 2.15287 8.97559 1.97386 8.97559H1.0739C0.894883 8.97559 0.723202 9.0467 0.59662 9.17328C0.470039 9.29986 0.398926 9.47154 0.398926 9.65056V13.7004C0.398926 13.8794 0.470039 14.0511 0.59662 14.1777C0.723202 14.3042 0.894883 14.3754 1.0739 14.3754Z" fill="#FB8308"/>
</svg>
