<svg width="13" height="12" viewBox="0 0 13 12" fill="none" xmlns="http://www.w3.org/2000/svg">
<path d="M11.2999 2.12525C11.0446 1.86975 10.7413 1.66707 10.4076 1.52879C10.0739 1.39051 9.71619 1.31934 9.35494 1.31934C8.9937 1.31934 8.636 1.39051 8.30227 1.52879C7.96854 1.66707 7.66532 1.86975 7.40994 2.12525L6.87994 2.65525L6.34994 2.12525C5.8341 1.6094 5.13446 1.3196 4.40494 1.3196C3.67543 1.3196 2.97579 1.6094 2.45994 2.12525C1.9441 2.6411 1.6543 3.34073 1.6543 4.07025C1.6543 4.79977 1.9441 5.4994 2.45994 6.01525L2.98994 6.54525L6.87994 10.4352L10.7699 6.54525L11.2999 6.01525C11.5554 5.75987 11.7581 5.45666 11.8964 5.12293C12.0347 4.7892 12.1059 4.43149 12.1059 4.07025C12.1059 3.70901 12.0347 3.3513 11.8964 3.01757C11.7581 2.68384 11.5554 2.38063 11.2999 2.12525Z" stroke="#7649B3" stroke-width="1.5" stroke-linecap="round" stroke-linejoin="round"/>
</svg>
