<svg width="29" height="28" viewBox="0 0 29 28" fill="none" xmlns="http://www.w3.org/2000/svg">
<path d="M13.9278 0.974609C12.0499 1.34102 10.3896 3.52805 9.34766 6.64255C10.8568 6.94335 12.3893 7.11192 13.9278 7.14637V0.974609Z" fill="#255AA8"/>
<path d="M8.2373 12.9276H13.9625V8.34747C12.312 8.31121 10.668 8.12726 9.05028 7.79785C8.58935 9.47222 8.31667 11.1928 8.2373 12.9276Z" fill="#255AA8"/>
<path d="M13.9283 27.1847V19.8564C12.2766 19.8928 10.6319 20.0845 9.01611 20.429C10.0123 24.116 11.8444 26.761 13.9283 27.1847Z" fill="#255AA8"/>
<path d="M15.0732 12.9292H20.7984C20.7346 11.1764 20.4734 9.43646 20.0198 7.74219C18.3926 8.09289 16.737 8.296 15.0732 8.34906V12.9292Z" fill="#255AA8"/>
<path d="M8.77532 19.3175C10.478 18.9555 12.2106 18.7523 13.9509 18.7106V14.0732H8.22571C8.22019 15.836 8.40446 17.5942 8.77532 19.3175Z" fill="#255AA8"/>
<path d="M21.1304 7.47765C21.585 9.26119 21.846 11.0885 21.909 12.928H28.2411C28.0287 10.4004 27.1168 7.98188 25.6075 5.9433C24.1742 6.61329 22.6733 7.12768 21.1304 7.47765Z" fill="#255AA8"/>
<path d="M20.81 6.39004C22.1834 6.06767 23.5219 5.61128 24.8062 5.02744C22.7703 2.70463 20.0112 1.13549 16.9741 0.573242C18.8553 2.03973 20.203 4.08332 20.81 6.39004Z" fill="#255AA8"/>
<path d="M15.0732 0.974609V7.20362C16.6117 7.16982 18.1443 7.00124 19.6534 6.6998C18.6114 3.52805 16.9511 1.34102 15.0732 0.974609Z" fill="#255AA8"/>
<path d="M7.09268 12.928C7.15565 11.0885 7.4167 9.26119 7.87131 7.47765C6.34796 7.12378 4.8664 6.60946 3.45146 5.9433C1.94214 7.98188 1.03023 10.4004 0.817871 12.928H7.09268Z" fill="#255AA8"/>
<path d="M19.9855 20.429C18.3696 20.0845 16.725 19.8928 15.0732 19.8564V27.1847C17.1572 26.761 18.9893 24.116 19.9855 20.429Z" fill="#255AA8"/>
<path d="M21.1192 20.6914C20.2719 23.909 18.8291 26.4166 16.9971 27.5616C20.3799 26.9325 23.4036 25.057 25.4704 22.3059C24.0934 21.5875 22.6315 21.0451 21.1192 20.6914Z" fill="#255AA8"/>
<path d="M7.63049 19.5923C7.24482 17.7781 7.0529 15.928 7.05797 14.0732H0.760254C0.764865 16.6592 1.49911 19.1913 2.87858 21.3786C4.37662 20.5757 5.97452 19.9751 7.63049 19.5923Z" fill="#255AA8"/>
<path d="M7.8824 20.6914C6.36955 21.0487 4.90768 21.595 3.53125 22.3174C5.59798 25.0684 8.62167 26.9439 12.0045 27.5731C10.2068 26.3822 8.77553 23.909 7.8824 20.6914Z" fill="#255AA8"/>
<path d="M20.7984 14.0732H15.0732V18.7106C16.8135 18.7523 18.5461 18.9555 20.2488 19.3175C20.6197 17.5942 20.804 15.836 20.7984 14.0732Z" fill="#255AA8"/>
<path d="M8.1915 6.39004C8.79854 4.08332 10.1462 2.03973 12.0274 0.573242C8.99026 1.13549 6.23117 2.70463 4.19531 5.02744C5.47959 5.61128 6.81807 6.06767 8.1915 6.39004Z" fill="#255AA8"/>
<path d="M21.3711 19.5923C23.0231 19.976 24.6171 20.5767 26.1116 21.3786C27.4951 19.1925 28.2333 16.6603 28.2413 14.0732H21.9436C21.9487 15.928 21.7568 17.7781 21.3711 19.5923Z" fill="#255AA8"/>
<rect x="2.44775" y="10.0244" width="23.9623" height="8.09994" rx="3.75" fill="white"/>
<path d="M7.81327 11.7645H8.93701V16.3909H7.81327L5.9338 13.4797V16.3909H4.81006V11.7645H5.9338L7.81327 14.6757V11.7645Z" fill="#255AA8"/>
<path d="M12.7178 11.7645V12.6188H11.0486V13.6111H12.5206V14.4654H11.0486V15.5366H12.7178V16.3909H9.92485V11.7645H12.7178Z" fill="#255AA8"/>
<path d="M18.8048 11.7776H20.014L18.7259 16.3909H17.4379L16.6296 13.4665L15.8279 16.3909H14.5398L13.2321 11.7776H14.4347L15.2364 15.0963L16.0579 11.7776H17.3328L18.1214 15.0437L18.8048 11.7776Z" fill="#255AA8"/>
<path d="M22.1164 12.5991C21.9762 12.5991 21.8601 12.6363 21.7681 12.7108C21.6805 12.7853 21.6366 12.8926 21.6366 13.0328C21.6366 13.173 21.6783 13.2869 21.7615 13.3745C21.8447 13.4578 21.9521 13.5235 22.0835 13.5717C22.2193 13.6155 22.3683 13.6593 22.5304 13.7031C22.6969 13.7425 22.8611 13.7929 23.0232 13.8542C23.1853 13.9112 23.3321 13.9835 23.4635 14.0711C23.5994 14.1587 23.7089 14.2836 23.7921 14.4457C23.8754 14.6034 23.917 14.794 23.917 15.0174C23.917 15.4073 23.7571 15.7425 23.4373 16.0229C23.1218 16.2989 22.7034 16.4369 22.1821 16.4369C21.6651 16.4369 21.2467 16.312 20.9269 16.0623C20.6115 15.8126 20.4538 15.4577 20.4538 14.9977H21.6498C21.6805 15.3657 21.8688 15.5497 22.2149 15.5497C22.377 15.5497 22.5041 15.5081 22.5961 15.4249C22.6881 15.3372 22.7341 15.2277 22.7341 15.0963C22.7341 14.9648 22.6925 14.8575 22.6092 14.7743C22.526 14.691 22.4165 14.6253 22.2807 14.5771C22.1492 14.5289 22.0003 14.4851 21.8338 14.4457C21.6717 14.4019 21.5096 14.3493 21.3475 14.288C21.1854 14.2266 21.0364 14.1544 20.9006 14.0711C20.7692 13.9835 20.6619 13.8608 20.5786 13.7031C20.4954 13.541 20.4538 13.3504 20.4538 13.1314C20.4538 12.702 20.6137 12.3581 20.9335 12.0996C21.2533 11.8412 21.6607 11.7119 22.1558 11.7119C22.6552 11.7119 23.0583 11.8258 23.365 12.0536C23.6716 12.2771 23.8316 12.6319 23.8447 13.1182H22.6224C22.6049 12.9518 22.5501 12.8247 22.4581 12.7371C22.3705 12.6451 22.2566 12.5991 22.1164 12.5991Z" fill="#255AA8"/>
</svg>
