<svg width="27" height="28" viewBox="0 0 27 28" fill="none" xmlns="http://www.w3.org/2000/svg">
<path d="M25.7834 27.5384C26.2551 27.5384 26.6359 27.1575 26.6359 26.6858C26.6359 26.2141 26.2551 25.8333 25.7834 25.8333H23.0734C23.2346 25.5315 23.2053 25.1477 22.968 24.8723L19.9826 21.4241C19.675 21.0696 19.1388 21.0285 18.7814 21.3362C18.7521 21.3596 18.7257 21.386 18.7023 21.4153L16.7921 22.9036C16.4962 23.135 16.215 23.3049 15.84 23.302L15.3712 23.2991C15.503 23.2346 15.6202 23.1379 15.7081 23.0061C15.9689 22.6164 15.8663 22.0862 15.4738 21.8254L12.4181 19.7688C12.1339 19.549 11.7296 19.5227 11.4161 19.7336L7.36724 22.47C7.21197 22.5754 7.10357 22.7219 7.04204 22.883L6.59087 23.8528C6.01665 25.0862 4.85355 25.8274 3.49417 25.8274H3.01662C2.95217 25.8274 2.89943 25.7952 2.86721 25.7395C2.83498 25.6839 2.83791 25.6223 2.87014 25.5667L3.44436 24.6028C2.91115 24.2981 2.49513 23.8118 2.27834 23.2258L0.51172 26.1966C0.417969 26.3342 0.365234 26.4983 0.365234 26.677C0.365234 27.1487 0.746097 27.5296 1.21778 27.5296H25.7834V27.5384ZM4.59281 20.0647C3.38284 20.0647 2.40431 21.0432 2.40431 22.2532C2.40431 23.4631 3.38284 24.4417 4.59281 24.4417C5.80278 24.4417 6.7813 23.4631 6.7813 22.2532C6.7813 21.0432 5.80278 20.0647 4.59281 20.0647ZM9.61433 23.0149L11.8995 21.4709L14.5275 23.2405C14.5362 23.2463 14.545 23.2522 14.5568 23.2581L9.61433 23.0149ZM21.55 25.8333H18.1984C17.9933 25.8333 17.0265 25.9065 16.9269 25.6135C16.8273 25.3206 17.1056 25.054 17.2726 24.9338L18.9455 23.7122C19.0685 23.6213 19.1798 23.5393 19.3322 23.5393C19.4845 23.5393 19.6164 23.6008 19.716 23.7151L21.55 25.8333Z" fill="#17A3AF"/>
<path d="M12.5415 1.01539C12.5415 0.753768 12.7541 0.537109 13.0198 0.537109C13.2814 0.537109 13.4981 0.749681 13.4981 1.01539V4.96431L13.8701 4.59231C14.0581 4.40836 14.3565 4.40836 14.5446 4.59231C14.7326 4.78036 14.7326 5.07877 14.5446 5.26682L13.3672 6.44413C13.2814 6.53407 13.1588 6.58721 13.0239 6.58721C12.889 6.58721 12.7663 6.52998 12.6805 6.44413L11.5032 5.26682C11.3151 5.07877 11.3151 4.78036 11.5032 4.59231C11.6912 4.40836 11.9896 4.40836 12.1777 4.59231L12.5497 4.96431V1.01539H12.5415ZM22.7081 8.9909C22.7081 8.72927 22.9207 8.51261 23.1864 8.51261C23.448 8.51261 23.6647 8.72519 23.6647 8.9909V12.7559L23.9917 12.4288C24.1798 12.2408 24.4782 12.2408 24.6662 12.4288C24.8543 12.6169 24.8543 12.9153 24.6662 13.1033L23.5298 14.2398C23.4439 14.3297 23.3213 14.3869 23.1864 14.3869C23.0515 14.3869 22.9289 14.3297 22.843 14.2398L21.7066 13.1033C21.5185 12.9153 21.5185 12.6169 21.7066 12.4288C21.8946 12.2408 22.193 12.2408 22.3811 12.4288L22.7081 12.7559V8.9909ZM3.2742 7.62554C3.2742 7.36391 3.48677 7.14725 3.75249 7.14725C4.01411 7.14725 4.23077 7.35982 4.23077 7.62554V11.648L4.61912 11.2597C4.80716 11.0716 5.10558 11.0716 5.29362 11.2597C5.48167 11.4477 5.48167 11.7461 5.29362 11.9342L4.09587 13.1319C4.01002 13.2219 3.88739 13.2791 3.75249 13.2791C3.61758 13.2791 3.49495 13.2219 3.4091 13.1319L2.21135 11.9342C2.0233 11.7461 2.0233 11.4477 2.21135 11.2597C2.39939 11.0716 2.69781 11.0716 2.88585 11.2597L3.2742 11.648V7.62554ZM13.6043 10.389V10.716C13.8169 10.7405 14.005 10.7814 14.1562 10.8468C14.3115 10.9122 14.4424 11.0144 14.5568 11.1493C14.6468 11.2515 14.7162 11.3578 14.7653 11.4641C14.8144 11.5745 14.8389 11.6726 14.8389 11.7625C14.8389 11.8647 14.8021 11.9505 14.7285 12.0241C14.6549 12.0977 14.565 12.1345 14.4628 12.1345C14.2666 12.1345 14.1358 12.0282 14.0785 11.8156C14.0131 11.5663 13.8537 11.3987 13.6002 11.3169V12.5678C13.8496 12.6373 14.0458 12.6986 14.193 12.7559C14.3402 12.8131 14.471 12.8908 14.5895 12.9971C14.7122 13.1074 14.8103 13.2382 14.8798 13.3936C14.9452 13.5489 14.982 13.7165 14.982 13.8964C14.982 14.1253 14.9288 14.3379 14.8225 14.5382C14.7162 14.7385 14.5568 14.902 14.3483 15.0287C14.1399 15.1555 13.8905 15.229 13.6043 15.2536V15.7523C13.6043 15.8708 13.5921 15.9567 13.5675 16.0098C13.543 16.063 13.494 16.0916 13.4163 16.0916C13.3427 16.0916 13.2937 16.0712 13.265 16.0262C13.2364 15.9812 13.2201 15.9117 13.2201 15.8218V15.2577C12.9871 15.2331 12.7827 15.1759 12.6069 15.0941C12.4311 15.0083 12.2839 14.9061 12.1695 14.7794C12.0509 14.6526 11.9651 14.5218 11.9119 14.3869C11.8547 14.252 11.8261 14.1171 11.8261 13.9863C11.8261 13.8923 11.8629 13.8024 11.9406 13.7288C12.0141 13.6511 12.1082 13.6143 12.2226 13.6143C12.3126 13.6143 12.3902 13.6348 12.4515 13.6756C12.5129 13.7165 12.5578 13.7778 12.5824 13.8514C12.6355 14.0149 12.6846 14.1417 12.7214 14.2275C12.7622 14.3134 12.8235 14.3951 12.9053 14.4646C12.9871 14.5382 13.0933 14.5913 13.2282 14.6281V13.2301C12.9584 13.1565 12.7377 13.0747 12.5537 12.9807C12.3739 12.8908 12.2267 12.7599 12.1163 12.5923C12.006 12.4247 11.9487 12.2081 11.9487 11.9424C11.9487 11.599 12.0591 11.3128 12.2799 11.0962C12.5006 10.8754 12.8154 10.7487 13.2323 10.7119V10.3931C13.2323 10.2254 13.2977 10.1396 13.4204 10.1396C13.5471 10.1396 13.6125 10.2214 13.6125 10.3849L13.6043 10.389ZM13.2242 12.4493V11.2965C13.0566 11.3455 12.9257 11.4109 12.8317 11.4927C12.7377 11.5745 12.6886 11.7012 12.6886 11.8647C12.6886 12.0241 12.7336 12.1427 12.8195 12.2244C12.9094 12.3062 13.0402 12.3798 13.2242 12.4452V12.4493ZM13.6043 13.3404V14.6567C13.8046 14.6159 13.9641 14.5341 14.0744 14.4156C14.1848 14.2929 14.238 14.1498 14.238 13.9863C14.238 13.8105 14.1848 13.6756 14.0785 13.5816C13.9722 13.4876 13.8128 13.4058 13.6043 13.3404ZM16.797 9.71855C15.9304 8.85191 14.7285 8.31231 13.404 8.31231C12.0795 8.31231 10.8777 8.84782 10.0111 9.71855C9.14443 10.5852 8.60483 11.787 8.60483 13.1115C8.60483 14.436 9.14035 15.6378 10.0111 16.5045C10.8777 17.3711 12.0795 17.9107 13.404 17.9107C14.7285 17.9107 15.9304 17.3752 16.797 16.5045C17.6636 15.6378 18.2032 14.436 18.2032 13.1115C18.2032 11.787 17.6677 10.5852 16.797 9.71855Z" fill="#17A3AF"/>
</svg>
