<svg width="16" height="21" viewBox="0 0 16 21" fill="none" xmlns="http://www.w3.org/2000/svg">
<path d="M15.2783 5.34961V5.57813H10.4033V0.703125H10.6318C10.8857 0.703125 11.1016 0.791992 11.2793 0.969727L15.0117 4.70215C15.1895 4.87988 15.2783 5.0957 15.2783 5.34961ZM10.0986 6.79688C9.84473 6.79688 9.62891 6.70801 9.45117 6.53027C9.27344 6.35254 9.18457 6.13672 9.18457 5.88281V0.703125H1.56738C1.31348 0.703125 1.09766 0.791992 0.919922 0.969727C0.742188 1.14746 0.65332 1.36328 0.65332 1.61719V19.2891C0.65332 19.543 0.742188 19.7588 0.919922 19.9365C1.09766 20.1143 1.31348 20.2031 1.56738 20.2031H14.3643C14.6182 20.2031 14.834 20.1143 15.0117 19.9365C15.1895 19.7588 15.2783 19.543 15.2783 19.2891V6.79688H10.0986ZM4.95703 7.40625C5.43945 7.40625 5.8584 7.58398 6.21387 7.93945C6.59473 8.29492 6.78516 8.72656 6.78516 9.23438C6.78516 9.74219 6.59473 10.1738 6.21387 10.5293C5.8584 10.8848 5.42676 11.0625 4.91895 11.0625C4.43652 11.0625 4.01758 10.8848 3.66211 10.5293C3.30664 10.1738 3.12891 9.74219 3.12891 9.23438C3.12891 8.72656 3.30664 8.29492 3.66211 7.93945C4.01758 7.58398 4.44922 7.40625 4.95703 7.40625ZM12.8789 16.5469H3.12891V14.7188L4.65234 13.1953C4.72852 13.1191 4.81738 13.0811 4.91895 13.0811C5.0459 13.0811 5.16016 13.1191 5.26172 13.1953L6.78516 14.7188L10.708 10.7578C10.8096 10.6816 10.9238 10.6436 11.0508 10.6436C11.1777 10.6436 11.2793 10.6816 11.3555 10.7578L12.8789 12.2813V16.5469Z" fill="#FB8308"/>
</svg>
